<?xml version="1.0" encoding="utf-8"?>
<!-- Generator: Adobe Illustrator 26.3.1, SVG Export Plug-In . SVG Version: 6.00 Build 0)  -->
<svg version="1.1" id="Laag_1" xmlns="http://www.w3.org/2000/svg" xmlns:xlink="http://www.w3.org/1999/xlink" x="0px" y="0px"
	 viewBox="0 0 678.6 595.3" style="enable-background:new 0 0 678.6 595.3;" xml:space="preserve">
<style type="text/css">
	.st0{fill:#009BBB;}
	.st1{fill:#008FAB;}
	.st2{opacity:0.3;}
	.st3{clip-path:url(#SVGID_00000116925341935160217660000000939112870323229878_);}
	.st4{fill:#003A47;}
	.st5{fill:#B8E1F9;}
	.st6{fill:#FFFFFF;}
	.st7{opacity:0.65;}
	.st8{clip-path:url(#SVGID_00000054260491728973826220000003488701673177842593_);}
	.st9{opacity:0.5;}
	.st10{clip-path:url(#SVGID_00000160882950381967296600000013032944078373576347_);}
	.st11{fill:#050607;}
	.st12{fill:#E3F3F8;}
	.st13{opacity:0.6;}
	.st14{clip-path:url(#SVGID_00000071554128270188728190000001042971535314995898_);}
	.st15{fill:#6FB3E3;}
	.st16{clip-path:url(#SVGID_00000178174020066862737350000003394170775031751067_);}
	.st17{clip-path:url(#SVGID_00000151535355404866816780000014609478886758581668_);}
	.st18{clip-path:url(#SVGID_00000013164561513120506300000003953310208315795873_);}
	.st19{clip-path:url(#SVGID_00000143606940738265350890000011859017275968225967_);}
	.st20{clip-path:url(#SVGID_00000015344620223344252100000004233196822801199290_);}
	.st21{clip-path:url(#SVGID_00000138557456684809061420000005050812055678204861_);}
	.st22{fill:#FAD0CD;}
	.st23{fill:#A25CA0;}
	.st24{fill:#AAA39E;}
	.st25{fill:#032429;}
	.st26{fill:#888787;}
	.st27{clip-path:url(#SVGID_00000127025326078868104560000004932993693321671329_);}
	.st28{fill:#F5AAA3;}
	.st29{fill:#112E48;}
	.st30{fill:#06477F;}
	.st31{fill:#F8BC9D;}
	.st32{fill:#404040;}
	.st33{fill:#3D3F3E;}
	.st34{fill:#00AAC7;}
	.st35{fill:#040506;}
	.st36{clip-path:url(#SVGID_00000040544056867171883090000018372998765363675564_);}
	.st37{fill:#B0D5F3;}
	.st38{clip-path:url(#SVGID_00000163772776775464644320000018337563609944089251_);}
	.st39{clip-path:url(#SVGID_00000156579357590097218280000011479649623558754999_);}
	.st40{clip-path:url(#SVGID_00000124876992084630292480000003118398708020919960_);}
	.st41{fill:#00A78A;}
	.st42{fill:none;}
</style>
<g id="Group_212_00000121990757164498622670000003416254435680886149_">
	<g id="Group_211_00000065068214495053132310000007681478033544136634_">
		<g id="Group_210_00000002373972965767541280000007324637947884562611_">
			<path id="Path_394_00000032628814926696492320000012889658546593268645_" class="st0" d="M317.8,82.9h-54.3
				c-5.6,0-10.1,4.5-10.1,10.1v17.8c0,5.6,4.5,10.1,10.1,10.1h54.3c5.6,0,10.1-4.5,10.1-10.1c0,0,0,0,0,0V92.9
				C327.9,87.4,323.4,82.9,317.8,82.9C317.8,82.9,317.8,82.9,317.8,82.9"/>
			<path id="Path_395_00000143600366973197710340000016758189955716975538_" class="st0" d="M245.8,456.9l-57.6,26.5v5.9h205v-5.9
				l-58.1-26.5H245.8z"/>
			
				<rect id="Rectangle_573_00000021109767101277999070000000110952483785259707_" x="245.8" y="343.2" class="st1" width="89.4" height="113.8"/>
			<path id="Path_396_00000044862883059968982900000004478308729512360844_" class="st1" d="M561,378.9V122.4
				c0-12.2-9.9-22.1-22.1-22.1l0,0H41.5c-12.2,0-22.1,9.9-22.1,22.1v256.5H561z"/>
			<g id="Group_167_00000021799408610985615180000015378421028373766556_" transform="translate(168.805 400.589)" class="st2">
				<g id="Group_166_00000052094983989134799880000006593330413371463850_">
					<g>
						<defs>
							<rect id="SVGID_1_" x="19.5" y="82.9" width="205" height="5.9"/>
						</defs>
						<clipPath id="SVGID_00000175283326127444624610000003323780314339834525_">
							<use xlink:href="#SVGID_1_"  style="overflow:visible;"/>
						</clipPath>
						
							<g id="Group_165_00000168082752775585894650000004404340214542228669_" style="clip-path:url(#SVGID_00000175283326127444624610000003323780314339834525_);">
							
								<rect id="Rectangle_574_00000125595626274970855620000013634068252433739705_" x="19.5" y="82.9" class="st4" width="205" height="5.9"/>
						</g>
					</g>
				</g>
			</g>
			
				<rect id="Rectangle_576_00000023247654704968809820000013070976658652548786_" x="245.8" y="443.6" class="st0" width="89.3" height="13.4"/>
			<path id="Path_397_00000073689819232394115950000012636611151327720118_" class="st0" d="M19.5,378.9V420
				c0,8.6,5.7,15.5,12.6,15.5h516.3c7,0,12.6-6.9,12.6-15.5v-41.1H19.5z"/>
			<path id="Path_398_00000164474797889105639790000009611796752387697322_" class="st4" d="M296.1,92.9c0,2.8-2.3,5-5,5
				c-2.8,0-5-2.3-5-5c0-2.8,2.3-5,5-5c0,0,0,0,0,0C293.9,87.9,296.1,90.2,296.1,92.9"/>
			<path id="Path_399_00000010282073544774559560000015329653730895754916_" class="st5" d="M548.3,367.7V123
				c-0.1-6.5-5.5-11.7-12-11.6H44.2c-6.5-0.1-11.9,5.1-12,11.6v244.7H548.3z"/>
			<path id="Path_400_00000172431196579970203260000015608907229306130869_" class="st6" d="M417.4,139.6
				c56.7,0,102.7,46,102.7,102.7c0,56.7-46,102.7-102.7,102.7c-56.7,0-102.7-46-102.7-102.7C314.7,185.6,360.7,139.6,417.4,139.6
				L417.4,139.6"/>
			<path id="Path_401_00000007386947586626749450000002112142101973628089_" class="st5" d="M342.3,242.4c0-7.8,1.2-15.5,3.6-22.9
				l-12.5-4.2c-11.7,36.4,1.3,76.1,32.2,98.6l7.7-10.7C353.8,289,342.3,266.4,342.3,242.4"/>
			<path id="Path_402_00000145050805894063655690000001086075239746798757_" class="st5" d="M355.5,242.4c0-6.4,1-12.7,2.9-18.7
				l-12.5-4.2c-9.8,30.9,1.2,64.6,27.3,83.6l7.7-10.7C364.9,280.8,355.5,262.2,355.5,242.4"/>
			<path id="Path_403_00000114767075813725099640000003117594887278974630_" class="st6" d="M373.3,303.5l-0.2-0.1
				c-19.5-14.2-31-36.8-31-60.9c0-7.8,1.2-15.5,3.6-22.9l0.1-0.2l13,4.3l0,0.2c-8,25.3,1,52.9,22.5,68.5l0.2,0.1L373.3,303.5z
				 M346,219.8c-9.7,30.7,1.2,64.1,27.2,83.1l7.5-10.4c-15.9-11.7-25.3-30.3-25.3-50.1c0-6.3,0.9-12.6,2.8-18.6L346,219.8z"/>
			<path id="Path_404_00000055707481689569539530000011918534925650243493_" class="st5" d="M368.7,242.4c0-4.9,0.7-9.9,2.2-14.6
				l-12.5-4.2c-8,25.4,1,53,22.5,68.8l7.7-10.7C376.1,272.5,368.7,257.9,368.7,242.4"/>
			<path id="Path_405_00000053519698187896761970000016925609245125646510_" class="st6" d="M381,292.7l-0.2-0.1
				c-21.5-15.8-30.6-43.5-22.6-69l0.1-0.2l13,4.3l0,0.2c-6.2,19.8,0.9,41.3,17.6,53.6l0.2,0.1L381,292.7z M358.5,224
				c-4.8,15.5-3.4,32.4,4.1,46.8c4.4,8.4,10.6,15.7,18.2,21.4l7.5-10.4c-16.7-12.4-23.7-33.9-17.6-53.7L358.5,224z"/>
			<path id="Path_406_00000180361684150390604490000009137285943882094999_" class="st5" d="M370.9,227.8
				c-6.2,19.9,0.9,41.5,17.7,53.9l27.8-38.8L370.9,227.8z"/>
			<path id="Path_407_00000057858082857835647170000015626286297169468585_" class="st6" d="M388.7,282l-0.2-0.1
				c-12.5-9.2-19.9-23.9-20-39.5c0-5,0.7-9.9,2.2-14.6l0.1-0.2l46,15.3L388.7,282z M371.1,228.1c-6,19.7,1,41,17.5,53.3l27.5-38.3
				L371.1,228.1z"/>
			<path id="Path_408_00000079471343510105172590000004962608053541777072_" class="st5" d="M417.5,317.6
				c-15.7,0-31.1-4.9-43.9-14.1l-7.8,10.6c30.9,22.3,72.6,22.3,103.5-0.1l-7.8-10.6C448.7,312.6,433.3,317.6,417.5,317.6"/>
			<path id="Path_409_00000011737656255372750030000008421077157600202165_" class="st5" d="M417.5,304.4c-12.9,0-25.5-4-36-11.5
				l-7.8,10.6c26.3,18.8,61.6,18.8,87.8-0.1l-7.8-10.6C443.1,300.3,430.5,304.4,417.5,304.4"/>
			<path id="Path_410_00000133527870348789974350000008734190336797568143_" class="st6" d="M417.5,317.8c-15.8,0-31.2-4.9-44-14.2
				l-0.2-0.1l8.1-11l0.2,0.1c21.5,15.3,50.4,15.3,71.9-0.1l0.2-0.1l8.1,11l-0.2,0.1C448.8,312.8,433.4,317.8,417.5,317.8 M374,303.4
				c26.1,18.6,61.2,18.6,87.2-0.1l-7.6-10.3c-21.6,15.3-50.5,15.4-72.1,0.1L374,303.4z"/>
			<path id="Path_411_00000103231605475332361530000017254197758438925952_" class="st5" d="M417.5,291.2c-10.1,0-20-3.1-28.2-9
				l-7.8,10.6c21.6,15.4,50.6,15.4,72.2-0.1l-7.8-10.6C437.6,288,427.7,291.2,417.5,291.2"/>
			<path id="Path_412_00000181803850251714559480000006959719581002521253_" class="st6" d="M417.5,304.6c-13,0-25.6-4-36.1-11.6
				l-0.2-0.1l8.1-11l0.2,0.1c16.8,12,39.4,11.9,56.2-0.1l0.2-0.1l8.1,11l-0.2,0.1C443.2,300.5,430.5,304.6,417.5,304.6 M381.8,292.8
				c21.5,15.2,50.2,15.1,71.6-0.1l-7.6-10.3c-16.9,11.9-39.5,12-56.4,0.1L381.8,292.8z"/>
			<path id="Path_413_00000139287911409985816620000004847232077536630692_" class="st5" d="M389.3,282.2c16.9,12,39.6,12,56.5-0.1
				l-28.2-38.3L389.3,282.2z"/>
			<path id="Path_414_00000165924362584129601530000010683857722592353449_" class="st6" d="M417.5,291.4c-10.1,0-20-3.1-28.3-9
				l-0.2-0.1l0.1-0.2l28.4-38.7l28.5,38.8l-0.2,0.1C437.7,288.2,427.7,291.4,417.5,291.4 M389.6,282.1c16.8,11.8,39.2,11.7,55.9-0.1
				l-27.9-38L389.6,282.1z"/>
			<path id="Path_415_00000042009630957804805800000005092628320098160531_" class="st5" d="M505.9,242.4c0-9.2-1.4-18.3-4.2-27
				l-12.5,4.2c9.8,30.8-1.2,64.4-27.3,83.5l7.7,10.7C492.4,297.2,505.9,270.6,505.9,242.4"/>
			<path id="Path_416_00000027590433582084789530000014086260861795351999_" class="st5" d="M479.5,242.4c0,19.7-9.4,38.3-25.3,50
				l7.7,10.7c26.1-19.1,37.1-52.7,27.3-83.5l-12.5,4.2C478.5,229.8,479.5,236.1,479.5,242.4"/>
			<path id="Path_417_00000114756544826553261760000009292487795705604781_" class="st6" d="M461.8,303.4l-8-11.1l0.2-0.1
				c7.7-5.7,13.9-13,18.3-21.4c4.6-8.8,6.9-18.5,6.9-28.3c0-6.3-1-12.6-2.8-18.6l0-0.2l13-4.3l0.1,0.2c9.9,30.9-1.2,64.6-27.3,83.7
				L461.8,303.4z M454.5,292.4l7.5,10.4c19.2-14.1,30.5-36.5,30.6-60.4c0-7.6-1.2-15.3-3.5-22.5l-12.2,4c4.8,15.6,3.4,32.5-4.1,47
				C468.4,279.4,462.1,286.7,454.5,292.4"/>
			<path id="Path_418_00000036233085336326680340000014025590264553530775_" class="st5" d="M466.2,242.4c0,15.5-7.3,30-19.8,39.2
				l7.7,10.7c21.4-15.7,30.4-43.3,22.4-68.6l-12.5,4.2C465.5,232.6,466.3,237.5,466.2,242.4"/>
			<g id="Group_170_00000129917520929901768690000008556626894280914865_" transform="translate(426.733 140.595)" class="st7">
				<g id="Group_169_00000103237806501961688720000006947125224559344771_">
					<g>
						<defs>
							<rect id="SVGID_00000096049258705839455440000003135244840891863427_" x="19.5" y="82.9" width="33.6" height="69.2"/>
						</defs>
						<clipPath id="SVGID_00000150059972429029485180000011877443940961967533_">
							<use xlink:href="#SVGID_00000096049258705839455440000003135244840891863427_"  style="overflow:visible;"/>
						</clipPath>
						
							<g id="Group_168_00000090273002824095876710000010762694092255322271_" style="clip-path:url(#SVGID_00000150059972429029485180000011877443940961967533_);">
							<path id="Path_419_00000088824788870425989500000006722868950829238932_" class="st6" d="M27.4,152.1l-8-11.1l0.2-0.1
								c12.4-9.2,19.7-23.6,19.7-39c0-4.9-0.7-9.8-2.2-14.4l0-0.2l13-4.3l0.1,0.2c8,25.4-1,53.1-22.5,68.9L27.4,152.1z M20.1,141
								l7.5,10.4c7.6-5.6,13.8-12.9,18.2-21.3c7.4-14.4,8.9-31.2,4.1-46.7l-12.2,4c1.4,4.7,2.2,9.5,2.2,14.4
								C39.7,117.2,32.4,131.8,20.1,141"/>
						</g>
					</g>
				</g>
			</g>
			<path id="Path_420_00000025433330970731717960000010400885206387975811_" class="st5" d="M446.5,281.6
				c12.4-9.2,19.8-23.7,19.8-39.2c0-4.9-0.7-9.8-2.2-14.5l-45.3,15L446.5,281.6z"/>
			<g id="Group_173_00000018926716476044301710000006211381166827607724_" transform="translate(398.936 144.748)" class="st9">
				<g id="Group_172_00000003802990569596578100000005982858866654377362_">
					<g>
						<defs>
							<rect id="SVGID_00000170973442712162587350000007670948101415077528_" x="19.5" y="82.9" width="48.1" height="54.3"/>
						</defs>
						<clipPath id="SVGID_00000076605393488646395170000002835137098656414133_">
							<use xlink:href="#SVGID_00000170973442712162587350000007670948101415077528_"  style="overflow:visible;"/>
						</clipPath>
						
							<g id="Group_171_00000085930552556581000720000013692181631737341595_" style="clip-path:url(#SVGID_00000076605393488646395170000002835137098656414133_);">
							<path id="Path_421_00000053503517903325000230000016600281628875915700_" class="st6" d="M47.5,137.1L19.5,98l45.8-15.2
								l0.1,0.2c1.5,4.7,2.2,9.6,2.2,14.6c0,15.5-7.4,30.1-19.9,39.4L47.5,137.1z M20.2,98.3l27.5,38.3C64,124.3,71,103,65,83.4
								L20.2,98.3z"/>
						</g>
					</g>
				</g>
			</g>
			<path id="Path_422_00000003824081938667694900000017457228887301759677_" class="st5" d="M489,219l12.6-4
				c-11.8-36.3-45.6-60.9-83.8-61.1l0.1,13.2C450.3,167.3,478.9,188.2,489,219"/>
			<path id="Path_423_00000111150499681785416740000009256337040473035681_" class="st5" d="M476.4,223.1l12.6-4
				c-10.1-30.8-38.7-51.7-71.1-51.9l0.1,13.2C444.6,180.6,468.1,197.8,476.4,223.1"/>
			<path id="Path_424_00000165918794396798137740000011736007886353223345_" class="st6" d="M476.3,223.3l-0.1-0.2
				c-8.2-25.2-31.7-42.4-58.3-42.5h-0.2l-0.1-13.6h0.2c32.5,0.1,61.3,21.1,71.4,52l0.1,0.2L476.3,223.3z M418.2,180.2
				c26.6,0.2,50,17.4,58.4,42.6l12.2-3.9c-10-30.6-38.5-51.3-70.7-51.5L418.2,180.2z"/>
			<path id="Path_425_00000024685653871879302370000005728452106350683574_" class="st5" d="M417.9,180.4l0.1,13.2
				c20.8,0.2,39.3,13.6,45.8,33.4l12.6-4C468.1,197.7,444.6,180.6,417.9,180.4"/>
			<path id="Path_426_00000003813668230240340290000002312256891913514886_" class="st6" d="M463.7,227.4l-0.1-0.2
				c-6.5-19.7-24.8-33.1-45.6-33.3h-0.2l-0.1-13.6h0.2c26.7,0.1,50.4,17.4,58.7,42.8l0.1,0.2L463.7,227.4z M418.2,193.4
				c20.8,0.3,39.1,13.7,45.7,33.4l12.2-3.9c-8.3-25.1-31.6-42.1-58-42.3L418.2,193.4z"/>
			<path id="Path_427_00000073681733440490093380000005404519108793535892_" class="st5" d="M463.8,227.1
				c-6.6-19.8-25-33.2-45.8-33.4l0.3,47.9L463.8,227.1z"/>
			<path id="Path_428_00000005946272361163082840000009888808327407104688_" class="st6" d="M418.1,241.8l-0.3-48.4h0.2
				c20.9,0.2,39.4,13.7,46,33.6l0.1,0.2l-0.2,0.1L418.1,241.8z M418.2,193.8l0.3,47.4l45-14.3C457,207.4,438.8,194.1,418.2,193.8"/>
			<path id="Path_429_00000020391951323815407430000015875622831007874720_" class="st5" d="M417.3,167.2l0.1-13.2
				c-38.2,0-72.1,24.7-84,61l12.6,4C356.1,188.2,384.9,167.3,417.3,167.2"/>
			<path id="Path_430_00000132081434739997104410000018225150732269390212_" class="st5" d="M417.3,180.4l0.1-13.2
				c-32.5,0.1-61.2,21-71.3,51.8l12.6,4C367,197.7,390.6,180.5,417.3,180.4"/>
			<path id="Path_431_00000018198031407965485640000012695951564288125108_" class="st6" d="M358.7,223.3l-13-4.2l0.1-0.2
				c10.1-30.9,38.9-51.9,71.5-52h0.2l-0.1,13.6h-0.2c-26.6,0.1-50.1,17.2-58.4,42.5L358.7,223.3z M346.3,218.9l12.2,3.9
				c8.4-25.3,31.9-42.4,58.6-42.5l0.1-12.8C384.9,167.6,356.4,188.3,346.3,218.9"/>
			<path id="Path_432_00000096752362454335282750000007845717530854762918_" class="st5" d="M417.2,193.6l0.1-13.2
				c-26.7,0.1-50.3,17.3-58.6,42.6l12.6,4C377.8,207.2,396.3,193.8,417.2,193.6"/>
			<path id="Path_433_00000099629822464584999480000009695856809739185048_" class="st6" d="M371.3,227.3l-13-4.2l0.1-0.2
				c8.4-25.4,32.1-42.7,58.8-42.8h0.2l-0.1,13.6h-0.2c-20.8,0.1-39.2,13.5-45.8,33.3L371.3,227.3z M358.9,222.9l12.2,3.9
				c6.6-19.8,25.1-33.1,45.9-33.3l0.1-12.8C390.6,180.8,367.2,197.8,358.9,222.9"/>
			<path id="Path_434_00000017485894627045563060000009821523469652813727_" class="st5" d="M417.2,193.6
				c-20.9,0.2-39.4,13.6-46,33.4l45.7,14.5L417.2,193.6z"/>
			<path id="Path_435_00000103952219740483373080000007683033122485510311_" class="st6" d="M417.1,241.8l-46.1-14.7l0.1-0.2
				c6.6-19.9,25.2-33.4,46.1-33.6h0.2L417.1,241.8z M371.5,226.9l45.2,14.4l0.3-47.4C396.3,194,378.1,207.3,371.5,226.9"/>
			<path id="Path_436_00000168830844260326469140000005876423734527158442_" class="st6" d="M392.4,217.2
				c13.9-13.9,36.4-13.9,50.3,0c13.9,13.9,13.9,36.4,0,50.3c-13.9,13.9-36.4,13.9-50.3,0c0,0,0,0,0,0
				C378.5,253.6,378.5,231.1,392.4,217.2"/>
			<path id="Path_437_00000080169288623176108990000008388307612824981436_" class="st11" d="M402.2,240.1l-1.8-5.9h1.4l0.7,2.8
				c0.1,0.3,0.2,0.6,0.3,0.9c0.1,0.3,0.2,0.6,0.3,0.9h0c0.1-0.3,0.2-0.6,0.3-0.9c0.1-0.3,0.2-0.6,0.3-0.9l0.7-2.8h1.4l-1.8,5.9
				H402.2z"/>
			<path id="Path_438_00000119813839986369703990000003610280058531267475_" class="st11" d="M407.2,235c-0.2,0-0.4-0.1-0.6-0.2
				c-0.3-0.3-0.3-0.7,0-1c0,0,0,0,0,0c0.3-0.3,0.8-0.3,1.1,0c0.3,0.3,0.3,0.7,0,1C407.6,234.9,407.4,235,407.2,235 M406.5,235.7h1.4
				v4.5h-1.3L406.5,235.7z"/>
			<path id="Path_439_00000145033943691638005110000002282989644534627236_" class="st11" d="M410.8,240.3c-0.3,0-0.6-0.1-0.9-0.2
				c-0.3-0.1-0.6-0.3-0.8-0.5l0.6-0.8c0.2,0.2,0.4,0.3,0.6,0.3c0.2,0.1,0.4,0.1,0.6,0.1c0.1,0,0.3,0,0.4-0.1
				c0.1-0.1,0.1-0.2,0.1-0.3c0-0.1,0-0.1-0.1-0.2c-0.1-0.1-0.1-0.1-0.2-0.2c-0.1-0.1-0.2-0.1-0.3-0.1c-0.1,0-0.2-0.1-0.3-0.1
				c-0.1-0.1-0.3-0.1-0.4-0.2l-0.4-0.3c-0.1-0.1-0.2-0.2-0.3-0.4c-0.1-0.2-0.1-0.3-0.1-0.5c0-0.2,0-0.4,0.1-0.6
				c0.1-0.2,0.2-0.3,0.3-0.5c0.2-0.1,0.4-0.2,0.6-0.3c0.5-0.1,1.1-0.1,1.6,0.1c0.2,0.1,0.5,0.2,0.7,0.4l-0.6,0.8
				c-0.2-0.1-0.3-0.2-0.5-0.3c-0.1-0.1-0.3-0.1-0.5-0.1c-0.3,0-0.5,0.1-0.5,0.3c0,0.1,0,0.1,0.1,0.2c0.1,0.1,0.1,0.1,0.2,0.1
				c0.1,0.1,0.2,0.1,0.3,0.1c0.1,0,0.2,0.1,0.3,0.1c0.1,0,0.3,0.1,0.4,0.2c0.1,0.1,0.3,0.2,0.4,0.3c0.1,0.1,0.2,0.2,0.3,0.4
				c0.1,0.2,0.1,0.4,0.1,0.6c0,0.2,0,0.4-0.1,0.6c-0.1,0.2-0.2,0.3-0.3,0.5c-0.2,0.1-0.4,0.3-0.6,0.3
				C411.4,240.2,411.1,240.3,410.8,240.3"/>
			<path id="Path_440_00000155104077297061641320000014674247908038675346_" class="st11" d="M414.6,235c-0.2,0-0.4-0.1-0.6-0.2
				c-0.3-0.3-0.3-0.7,0-1c0,0,0,0,0,0c0.3-0.3,0.8-0.3,1.1,0c0.3,0.3,0.3,0.7,0,1c0,0,0,0,0,0C415.1,234.9,414.8,235,414.6,235
				 M414,235.7h1.4v4.5H414V235.7z"/>
			<path id="Path_441_00000035513257580414403150000017987128272799785901_" class="st11" d="M419,240.3c-0.3,0-0.6,0-0.9-0.2
				c-0.3-0.1-0.5-0.2-0.7-0.5c-0.2-0.2-0.4-0.4-0.5-0.7c-0.1-0.3-0.2-0.7-0.2-1c0-0.3,0-0.7,0.2-1c0.1-0.3,0.3-0.5,0.5-0.8
				c0.2-0.2,0.4-0.4,0.7-0.5c0.2-0.1,0.5-0.2,0.8-0.2c0.3,0,0.6,0,0.8,0.2c0.2,0.1,0.4,0.3,0.6,0.5c0.2,0.2,0.3,0.4,0.3,0.7
				c0.1,0.3,0.1,0.6,0.1,0.8v0.3c0,0.1,0,0.2,0,0.3H418c0,0.3,0.2,0.5,0.4,0.7c0.2,0.2,0.5,0.2,0.8,0.2c0.3,0,0.7-0.1,1-0.3l0.5,0.8
				c-0.2,0.2-0.5,0.3-0.8,0.4C419.6,240.2,419.3,240.3,419,240.3 M418,237.4h1.6c0-0.2,0-0.4-0.2-0.6c-0.1-0.2-0.4-0.3-0.6-0.3
				c-0.2,0-0.4,0.1-0.6,0.2C418.1,236.9,418,237.1,418,237.4"/>
			<path id="Path_442_00000060022426898986810810000008908089883480083868_" class="st11" d="M426.3,240.3c-0.3,0-0.6-0.1-0.8-0.2
				c-0.5-0.2-1-0.6-1.2-1.2c-0.2-0.7-0.2-1.4,0-2c0.2-0.5,0.6-1,1.2-1.2c0.3-0.1,0.6-0.2,0.8-0.2c0.3,0,0.6,0,0.8,0.2
				c0.3,0.1,0.5,0.3,0.7,0.5c0.2,0.2,0.4,0.4,0.5,0.7c0.2,0.7,0.2,1.4,0,2c-0.2,0.5-0.6,1-1.2,1.2
				C426.9,240.2,426.6,240.3,426.3,240.3 M426.3,239.2c0.3,0,0.5-0.1,0.6-0.3c0.3-0.6,0.3-1.3,0-1.9c-0.1-0.2-0.4-0.4-0.6-0.3
				c-0.3,0-0.5,0.1-0.6,0.3c-0.3,0.6-0.3,1.3,0,1.9C425.8,239.1,426.1,239.2,426.3,239.2"/>
			<path id="Path_443_00000117635802341669030200000010688806091741554817_" class="st11" d="M429.9,241.8v-6.2h1.1l0.1,0.5h0
				c0.2-0.2,0.4-0.3,0.6-0.4c0.2-0.1,0.4-0.2,0.7-0.2c0.3,0,0.5,0,0.7,0.2c0.2,0.1,0.4,0.3,0.6,0.5c0.2,0.2,0.3,0.5,0.3,0.7
				c0.1,0.3,0.1,0.6,0.1,0.9c0,0.3,0,0.7-0.2,1c-0.1,0.3-0.2,0.5-0.4,0.8c-0.2,0.2-0.4,0.4-0.6,0.5c-0.2,0.1-0.5,0.2-0.7,0.2
				c-0.2,0-0.4,0-0.6-0.1c-0.2-0.1-0.3-0.2-0.5-0.3l0,0.7v1.3H429.9L429.9,241.8z M432,239.2c0.2,0,0.5-0.1,0.6-0.3
				c0.2-0.3,0.3-0.7,0.3-1c0-0.8-0.3-1.2-0.8-1.2c-0.3,0-0.6,0.2-0.8,0.4v1.9c0.1,0.1,0.2,0.2,0.4,0.2
				C431.7,239.2,431.8,239.2,432,239.2"/>
			<path id="Path_444_00000129190667020795911430000016532876903542719647_" class="st11" d="M398.2,251.2c-0.4,0-0.7-0.1-1.1-0.2
				c-0.3-0.1-0.6-0.3-0.8-0.6c-0.3-0.3-0.4-0.6-0.6-1c-0.1-0.4-0.2-0.9-0.2-1.3c0-0.4,0.1-0.9,0.2-1.3c0.1-0.4,0.3-0.7,0.6-1
				c0.2-0.3,0.5-0.5,0.8-0.6c0.7-0.3,1.5-0.3,2.2,0c0.3,0.1,0.6,0.3,0.8,0.6c0.3,0.3,0.4,0.6,0.6,1c0.1,0.4,0.2,0.8,0.2,1.3
				c0,0.4-0.1,0.9-0.2,1.3c-0.1,0.4-0.3,0.7-0.6,1c-0.2,0.3-0.5,0.5-0.8,0.6C399,251.1,398.6,251.2,398.2,251.2 M398.2,250
				c0.4,0,0.8-0.2,1-0.5c0.3-0.4,0.4-0.9,0.3-1.4c0-0.5-0.1-1-0.3-1.4c-0.4-0.5-1.1-0.7-1.7-0.3c-0.1,0.1-0.2,0.2-0.3,0.3
				c-0.3,0.4-0.4,0.9-0.3,1.4c0,0.5,0.1,1,0.3,1.4C397.4,249.8,397.8,250,398.2,250"/>
			<path id="Path_445_00000156545281276168167170000009478967313642722463_" class="st11" d="M402.3,251.1v-4.5h1.1l0.1,0.6h0
				c0.2-0.2,0.4-0.3,0.6-0.5c0.2-0.1,0.5-0.2,0.8-0.2c0.4,0,0.8,0.1,1.1,0.5c0.2,0.4,0.4,0.9,0.3,1.4v2.8h-1.4v-2.6
				c0-0.2,0-0.5-0.1-0.7c-0.1-0.1-0.3-0.2-0.4-0.2c-0.2,0-0.3,0-0.4,0.1c-0.1,0.1-0.3,0.2-0.4,0.3v3.1L402.3,251.1L402.3,251.1z"/>
			<path id="Path_446_00000045610100682916673660000009996807715136095678_" class="st11" d="M409.6,251.2c-0.3,0-0.5,0-0.8-0.2
				c-0.2-0.1-0.4-0.3-0.6-0.5c-0.2-0.2-0.3-0.5-0.4-0.7c-0.1-0.3-0.1-0.6-0.1-1c0-0.3,0-0.7,0.2-1c0.1-0.3,0.2-0.5,0.4-0.8
				c0.2-0.2,0.4-0.3,0.6-0.5c0.2-0.1,0.4-0.2,0.7-0.2c0.2,0,0.4,0,0.6,0.1c0.2,0.1,0.3,0.2,0.5,0.3l0-0.7v-1.6h1.4v6.4H411l-0.1-0.5
				h0c-0.2,0.2-0.3,0.3-0.6,0.4C410.1,251.1,409.9,251.2,409.6,251.2 M410,250.1c0.1,0,0.3,0,0.4-0.1c0.1,0,0.2-0.2,0.3-0.3v-1.9
				c-0.1-0.1-0.2-0.2-0.4-0.2c-0.1,0-0.3-0.1-0.4-0.1c-0.2,0-0.4,0.1-0.6,0.3c-0.2,0.3-0.3,0.6-0.3,0.9c0,0.3,0.1,0.7,0.2,1
				C409.5,250,409.7,250.1,410,250.1"/>
			<path id="Path_447_00000000218842340760024930000018418051383961865861_" class="st11" d="M415.7,251.2c-0.3,0-0.6,0-0.9-0.2
				c-0.3-0.1-0.5-0.2-0.7-0.5c-0.2-0.2-0.4-0.4-0.5-0.7c-0.1-0.3-0.2-0.7-0.2-1c0-0.3,0-0.7,0.2-1c0.1-0.3,0.3-0.5,0.5-0.8
				c0.2-0.2,0.4-0.4,0.7-0.5c0.3-0.1,0.5-0.2,0.8-0.2c0.3,0,0.6,0,0.8,0.2c0.2,0.1,0.4,0.3,0.6,0.5c0.2,0.2,0.3,0.4,0.3,0.7
				c0.1,0.3,0.1,0.6,0.1,0.8v0.3c0,0.1,0,0.2,0,0.3h-2.7c0,0.3,0.2,0.6,0.4,0.7c0.2,0.2,0.5,0.2,0.8,0.2c0.3,0,0.7-0.1,1-0.3
				l0.5,0.8c-0.2,0.2-0.5,0.3-0.8,0.4C416.3,251.1,416,251.2,415.7,251.2 M414.7,248.3h1.6c0-0.2,0-0.4-0.2-0.6
				c-0.1-0.2-0.4-0.3-0.6-0.3c-0.2,0-0.4,0.1-0.6,0.2C414.8,247.8,414.7,248.1,414.7,248.3"/>
			<path id="Path_448_00000087395857390092406250000011698233329116581277_" class="st11" d="M418.8,251.1v-4.5h1.1l0.1,0.8h0
				c0.1-0.3,0.3-0.5,0.6-0.7c0.2-0.1,0.4-0.2,0.7-0.2c0.1,0,0.2,0,0.3,0c0.1,0,0.2,0,0.2,0.1l-0.2,1.1c-0.1,0-0.2,0-0.3,0h-0.3
				c-0.2,0-0.4,0.1-0.6,0.2c-0.2,0.2-0.4,0.4-0.5,0.6v2.6L418.8,251.1L418.8,251.1z"/>
			<path id="Path_449_00000119803599146036412890000008996333677342137001_" class="st11" d="M423.7,251.1l-1.1-4.5h1.3l0.4,2.1
				c0,0.2,0.1,0.4,0.1,0.7c0.1,0.2,0.1,0.4,0.1,0.7h0c0-0.2,0.1-0.5,0.1-0.7l0.1-0.6l0.5-2.1h1.1l0.5,2.1c0,0.2,0.1,0.5,0.1,0.7
				s0.1,0.4,0.1,0.7h0c0-0.2,0.1-0.4,0.1-0.7c0-0.2,0-0.4,0.1-0.7l0.4-2.1h1.2l-1.1,4.5h-1.6l-0.4-1.8l-0.1-0.6
				c0-0.2-0.1-0.4-0.1-0.7h0c0,0.3-0.1,0.5-0.1,0.7l-0.1,0.6l-0.4,1.8L423.7,251.1L423.7,251.1z"/>
			<path id="Path_450_00000179635298979874054210000007735531551955987632_" class="st11" d="M431.2,245.9c-0.2,0-0.4-0.1-0.6-0.2
				c-0.3-0.3-0.3-0.7,0-1c0,0,0,0,0,0c0.3-0.3,0.8-0.3,1.1,0c0.3,0.3,0.3,0.7,0,1c0,0,0,0,0,0C431.6,245.8,431.4,245.9,431.2,245.9
				 M430.5,246.6h1.4v4.5h-1.4V246.6z"/>
			<path id="Path_451_00000177471231767228956830000016086604738381755552_" class="st11" d="M433.2,252.9c-0.2,0-0.3,0-0.5,0
				c-0.1,0-0.2,0-0.3-0.1l0.3-1c0,0,0.1,0,0.2,0h0.2c0.1,0,0.3,0,0.4-0.2c0.1-0.2,0.1-0.4,0.1-0.6v-4.5h1.4v4.5c0,0.2,0,0.5-0.1,0.7
				c0,0.2-0.1,0.4-0.3,0.6c-0.1,0.2-0.3,0.3-0.5,0.4C433.7,252.8,433.5,252.9,433.2,252.9 M434.1,245.9c-0.2,0-0.4-0.1-0.6-0.2
				c-0.3-0.3-0.3-0.7,0-1c0,0,0,0,0,0c0.3-0.3,0.8-0.3,1.1,0c0.3,0.3,0.3,0.7,0,1c0,0,0,0,0,0C434.5,245.8,434.3,245.9,434.1,245.9"
				/>
			<path id="Path_452_00000016792684131079069990000006684259925472537757_" class="st11" d="M437.8,251.2c-0.3,0-0.6-0.1-0.9-0.2
				c-0.3-0.1-0.6-0.3-0.8-0.5l0.6-0.8c0.2,0.2,0.4,0.3,0.6,0.3c0.2,0.1,0.4,0.1,0.6,0.1c0.1,0,0.3,0,0.4-0.1
				c0.1-0.1,0.1-0.2,0.1-0.3c0-0.1,0-0.1-0.1-0.2c-0.1-0.1-0.1-0.1-0.2-0.2c-0.1,0-0.2-0.1-0.3-0.1c-0.1,0-0.2-0.1-0.3-0.1
				c-0.1-0.1-0.3-0.1-0.4-0.2l-0.4-0.3c-0.1-0.1-0.2-0.2-0.3-0.4c-0.1-0.2-0.1-0.3-0.1-0.5c0-0.2,0-0.4,0.1-0.6
				c0.1-0.2,0.2-0.3,0.3-0.5c0.2-0.1,0.4-0.2,0.6-0.3c0.5-0.1,1.1-0.1,1.6,0.1c0.2,0.1,0.5,0.2,0.7,0.4l-0.6,0.8
				c-0.2-0.1-0.3-0.2-0.5-0.3c-0.1-0.1-0.3-0.1-0.5-0.1c-0.3,0-0.5,0.1-0.5,0.3c0,0.1,0,0.1,0.1,0.2c0.1,0.1,0.1,0.1,0.2,0.1
				c0.1,0.1,0.2,0.1,0.3,0.1c0.1,0,0.2,0.1,0.3,0.1c0.1,0,0.3,0.1,0.4,0.2l0.4,0.3c0.1,0.1,0.2,0.2,0.3,0.4c0.1,0.2,0.1,0.4,0.1,0.6
				c0,0.2,0,0.4-0.1,0.6c-0.1,0.2-0.2,0.3-0.3,0.5c-0.2,0.1-0.4,0.3-0.6,0.3C438.3,251.1,438.1,251.2,437.8,251.2"/>
			<path id="Path_453_00000019649654979195353670000012213441436737014437_" class="st11" d="M389.3,213.8v-1h1.1v-3.1h-1V209
				c0.2,0,0.5-0.1,0.7-0.2c0.2-0.1,0.4-0.2,0.6-0.3h0.9v4.3h1v1L389.3,213.8L389.3,213.8z"/>
			<path id="Path_454_00000071547214800396182160000014349034831618970497_" class="st11" d="M376.3,257.6v-1h1.1v-3.1h-1v-0.8
				c0.2,0,0.5-0.1,0.7-0.2c0.2-0.1,0.4-0.2,0.6-0.3h0.9v4.3h1v1L376.3,257.6L376.3,257.6z"/>
			<path id="Path_455_00000094618956427241284060000009751111337322924733_" class="st11" d="M455.1,257.6v-1h1.1v-3.1h-1v-0.8
				c0.2,0,0.5-0.1,0.7-0.2c0.2-0.1,0.4-0.2,0.6-0.3h0.9v4.3h1v1L455.1,257.6L455.1,257.6z"/>
			<path id="Path_456_00000032642338372071124330000004117642574786045840_" class="st11" d="M466.8,264.6v-0.7
				c0.3-0.3,0.6-0.6,0.9-0.9c0.3-0.3,0.5-0.5,0.7-0.8c0.2-0.2,0.3-0.4,0.5-0.7c0.1-0.2,0.2-0.4,0.2-0.6c0-0.2-0.1-0.4-0.2-0.6
				c-0.1-0.1-0.3-0.2-0.6-0.2c-0.2,0-0.4,0-0.5,0.2c-0.1,0.1-0.3,0.3-0.4,0.4l-0.7-0.6c0.2-0.3,0.5-0.5,0.8-0.6
				c0.3-0.2,0.6-0.2,1-0.2c0.2,0,0.5,0,0.7,0.1c0.2,0.1,0.4,0.2,0.6,0.3c0.2,0.1,0.3,0.3,0.3,0.5c0.1,0.2,0.1,0.4,0.1,0.7
				c0,0.2,0,0.5-0.1,0.7c-0.1,0.2-0.2,0.5-0.4,0.7c-0.2,0.2-0.4,0.5-0.6,0.7c-0.2,0.2-0.4,0.5-0.6,0.7c0.1,0,0.3,0,0.4,0h1.5v1
				H466.8z"/>
			<path id="Path_457_00000139270819014759753460000007767334869006398635_" class="st11" d="M480.1,272.6c-0.4,0-0.8-0.1-1.1-0.2
				c-0.3-0.1-0.5-0.3-0.7-0.6l0.6-0.8c0.1,0.2,0.3,0.3,0.5,0.4c0.2,0.1,0.4,0.2,0.6,0.2c0.2,0,0.4,0,0.6-0.2
				c0.2-0.1,0.2-0.3,0.2-0.5c0-0.1,0-0.2,0-0.3c-0.1-0.1-0.1-0.2-0.2-0.3c-0.1-0.1-0.3-0.1-0.4-0.2c-0.2,0-0.5-0.1-0.7,0v-0.8
				c0.2,0,0.4,0,0.6,0c0.1,0,0.3-0.1,0.4-0.1c0.1,0,0.2-0.1,0.2-0.2c0-0.1,0.1-0.2,0-0.3c0-0.2,0-0.3-0.2-0.4
				c-0.1-0.1-0.3-0.2-0.5-0.2c-0.2,0-0.4,0-0.5,0.1c-0.2,0.1-0.3,0.2-0.5,0.3l-0.6-0.8c0.2-0.2,0.5-0.4,0.8-0.5
				c0.3-0.1,0.6-0.2,0.9-0.2c0.2,0,0.5,0,0.7,0.1c0.2,0.1,0.4,0.2,0.6,0.3c0.2,0.1,0.3,0.3,0.4,0.5c0.1,0.2,0.1,0.4,0.1,0.6
				c0,0.3-0.1,0.5-0.2,0.7c-0.2,0.2-0.4,0.3-0.6,0.5v0c0.3,0.1,0.6,0.2,0.8,0.5c0.2,0.2,0.3,0.5,0.3,0.8c0,0.2,0,0.4-0.2,0.6
				c-0.1,0.2-0.3,0.3-0.4,0.5c-0.2,0.1-0.4,0.2-0.6,0.3C480.6,272.6,480.3,272.6,480.1,272.6"/>
			<path id="Path_458_00000130612889553132217800000001401574815249918870_" class="st11" d="M492.2,280.2v-1.3h-2.3v-0.8l1.9-3.2
				h1.5v3.1h0.6v0.9h-0.6v1.3L492.2,280.2L492.2,280.2z M491.1,278h1.1v-1.4c0-0.2,0-0.4,0-0.6h0c-0.1,0.1-0.1,0.3-0.2,0.4
				c-0.1,0.2-0.1,0.3-0.2,0.5L491.1,278z"/>
			<path id="Path_459_00000139267224774854495960000016192168762303707813_" class="st11" d="M363.1,263v-0.7
				c0.3-0.3,0.6-0.6,0.9-0.9c0.3-0.3,0.5-0.5,0.7-0.8c0.2-0.2,0.3-0.4,0.5-0.7c0.1-0.2,0.2-0.4,0.2-0.6c0-0.2-0.1-0.4-0.2-0.6
				c-0.1-0.1-0.3-0.2-0.6-0.2c-0.2,0-0.4,0-0.5,0.2c-0.1,0.1-0.3,0.3-0.4,0.4l-0.7-0.6c0.2-0.3,0.5-0.5,0.8-0.6
				c0.3-0.2,0.6-0.2,1-0.2c0.2,0,0.5,0,0.7,0.1c0.2,0.1,0.4,0.2,0.6,0.3c0.2,0.1,0.3,0.3,0.3,0.5c0.1,0.2,0.1,0.4,0.1,0.7
				c0,0.2,0,0.5-0.1,0.7c-0.1,0.2-0.2,0.5-0.4,0.7c-0.2,0.2-0.4,0.5-0.6,0.7c-0.2,0.2-0.4,0.5-0.6,0.7c0.1,0,0.3,0,0.4,0h1.5v1
				L363.1,263z"/>
			<path id="Path_460_00000023983603583805907530000006100532033592294837_" class="st11" d="M353,268.6c-0.4,0-0.8-0.1-1.1-0.2
				c-0.3-0.1-0.5-0.3-0.7-0.6l0.6-0.8c0.1,0.2,0.3,0.3,0.5,0.4c0.2,0.1,0.4,0.2,0.6,0.2c0.2,0,0.4,0,0.6-0.2
				c0.2-0.1,0.2-0.3,0.2-0.5c0-0.1,0-0.2,0-0.3c-0.1-0.1-0.1-0.2-0.2-0.3c-0.1-0.1-0.3-0.1-0.4-0.2c-0.2,0-0.5-0.1-0.7,0v-0.8
				c0.2,0,0.4,0,0.6,0c0.1,0,0.3-0.1,0.4-0.1c0.1,0,0.2-0.1,0.2-0.2c0-0.1,0.1-0.2,0-0.3c0-0.2,0-0.3-0.2-0.4
				c-0.1-0.1-0.3-0.2-0.5-0.2c-0.2,0-0.4,0-0.5,0.1c-0.2,0.1-0.3,0.2-0.5,0.3l-0.6-0.8c0.2-0.2,0.5-0.4,0.8-0.5
				c0.3-0.1,0.6-0.2,0.9-0.2c0.2,0,0.5,0,0.7,0.1c0.2,0.1,0.4,0.2,0.6,0.3c0.2,0.1,0.3,0.3,0.4,0.5c0.1,0.2,0.1,0.4,0.1,0.6
				c0,0.3-0.1,0.5-0.2,0.7c-0.2,0.2-0.4,0.3-0.6,0.5v0c0.3,0.1,0.6,0.2,0.8,0.5c0.2,0.2,0.3,0.5,0.3,0.8c0,0.2,0,0.4-0.2,0.6
				c-0.1,0.2-0.3,0.3-0.4,0.5c-0.2,0.1-0.4,0.2-0.6,0.3C353.5,268.6,353.3,268.6,353,268.6"/>
			<path id="Path_461_00000090985769555722428640000003018239077501153158_" class="st11" d="M341.9,275.2v-1.3h-2.3v-0.8l1.9-3.2
				h1.5v3.1h0.6v0.9H343v1.3L341.9,275.2L341.9,275.2z M340.8,273h1.1v-1.4c0-0.2,0-0.4,0-0.6h0c-0.1,0.1-0.1,0.3-0.2,0.4
				c-0.1,0.2-0.1,0.3-0.2,0.5L340.8,273z"/>
			<path id="Path_462_00000170999920415930349030000005919013567055520178_" class="st11" d="M443.2,213.8v-1h1.1v-3.1h-1V209
				c0.2,0,0.5-0.1,0.7-0.2c0.2-0.1,0.4-0.2,0.6-0.3h0.9v4.3h1v1L443.2,213.8L443.2,213.8z"/>
			<path id="Path_463_00000171684840602373559440000011322125432628797335_" class="st11" d="M416.1,287.5v-1h1.1v-3.1h-1v-0.8
				c0.2,0,0.5-0.1,0.7-0.2c0.2-0.1,0.4-0.2,0.6-0.3h0.9v4.3h1v1L416.1,287.5L416.1,287.5z"/>
			<path id="Path_464_00000100370760876158739610000013774327438021182388_" class="st11" d="M415.8,300.1v-0.7
				c0.3-0.3,0.6-0.6,0.9-0.9c0.3-0.3,0.5-0.5,0.7-0.8c0.2-0.2,0.3-0.4,0.5-0.7c0.1-0.2,0.2-0.4,0.2-0.6c0-0.2-0.1-0.4-0.2-0.6
				c-0.1-0.1-0.3-0.2-0.6-0.2c-0.2,0-0.4,0-0.5,0.2c-0.1,0.1-0.3,0.3-0.4,0.4l-0.7-0.6c0.2-0.3,0.5-0.5,0.8-0.6
				c0.3-0.2,0.6-0.2,1-0.2c0.2,0,0.5,0,0.7,0.1c0.2,0.1,0.4,0.2,0.6,0.3c0.2,0.1,0.3,0.3,0.3,0.5c0.1,0.2,0.1,0.4,0.1,0.7
				c0,0.2,0,0.5-0.1,0.7c-0.1,0.2-0.2,0.5-0.4,0.7c-0.2,0.2-0.4,0.5-0.6,0.7c-0.2,0.2-0.4,0.5-0.6,0.7c0.1,0,0.3,0,0.4,0h1.5v1
				L415.8,300.1z"/>
			<path id="Path_465_00000157310144309275376100000015436633112572481684_" class="st11" d="M417.5,314c-0.4,0-0.8-0.1-1.1-0.2
				c-0.3-0.1-0.5-0.3-0.7-0.6l0.6-0.8c0.1,0.2,0.3,0.3,0.5,0.4c0.2,0.1,0.4,0.2,0.6,0.2c0.2,0,0.4,0,0.6-0.2
				c0.2-0.1,0.2-0.3,0.2-0.5c0-0.1,0-0.2,0-0.3c-0.1-0.1-0.1-0.2-0.2-0.3c-0.1-0.1-0.3-0.1-0.4-0.2c-0.2,0-0.5-0.1-0.7,0v-0.8
				c0.2,0,0.4,0,0.6,0c0.1,0,0.3-0.1,0.4-0.1c0.1,0,0.2-0.1,0.2-0.2c0-0.1,0.1-0.2,0-0.3c0-0.2,0-0.3-0.2-0.4
				c-0.1-0.1-0.3-0.2-0.5-0.2c-0.2,0-0.4,0-0.5,0.1c-0.2,0.1-0.3,0.2-0.5,0.3l-0.6-0.8c0.2-0.2,0.5-0.4,0.8-0.5
				c0.3-0.1,0.6-0.2,0.9-0.2c0.2,0,0.5,0,0.7,0.1c0.2,0.1,0.4,0.2,0.6,0.3c0.2,0.1,0.3,0.3,0.4,0.5c0.1,0.2,0.1,0.4,0.1,0.6
				c0,0.3-0.1,0.5-0.2,0.7c-0.2,0.2-0.4,0.3-0.6,0.5v0c0.3,0.1,0.6,0.2,0.8,0.5c0.2,0.2,0.3,0.5,0.3,0.8c0,0.2,0,0.4-0.2,0.6
				c-0.1,0.2-0.3,0.3-0.4,0.5c-0.2,0.1-0.4,0.2-0.6,0.3C418,313.9,417.8,314,417.5,314"/>
			<path id="Path_466_00000031911724405697549750000007181488689329185152_" class="st11" d="M417.9,326.8v-1.3h-2.3v-0.8l1.9-3.2
				h1.5v3.1h0.6v0.9H419v1.3L417.9,326.8L417.9,326.8z M416.8,324.6h1.1v-1.4c0-0.2,0-0.4,0-0.6h0c-0.1,0.1-0.1,0.3-0.2,0.4
				c-0.1,0.2-0.1,0.3-0.2,0.5L416.8,324.6z"/>
			<path id="Path_467_00000109013131058051202260000007018292711505958331_" class="st11" d="M452.9,203.9v-0.7
				c0.3-0.3,0.6-0.6,0.9-0.9c0.3-0.3,0.5-0.5,0.7-0.8c0.2-0.2,0.3-0.4,0.5-0.7c0.1-0.2,0.2-0.4,0.2-0.6c0-0.2-0.1-0.4-0.2-0.6
				c-0.1-0.1-0.3-0.2-0.6-0.2c-0.2,0-0.4,0-0.5,0.2c-0.1,0.1-0.3,0.3-0.4,0.4l-0.7-0.6c0.2-0.3,0.5-0.5,0.8-0.6
				c0.3-0.2,0.6-0.2,1-0.2c0.2,0,0.5,0,0.7,0.1c0.2,0.1,0.4,0.2,0.6,0.3c0.2,0.1,0.3,0.3,0.3,0.5c0.1,0.2,0.1,0.4,0.1,0.7
				c0,0.2,0,0.5-0.1,0.7c-0.1,0.2-0.2,0.5-0.4,0.7c-0.2,0.2-0.4,0.5-0.6,0.7c-0.2,0.2-0.4,0.5-0.6,0.7c0.1,0,0.3,0,0.4,0h1.5v1
				H452.9z"/>
			<path id="Path_468_00000096034898635108316290000006103064555839224248_" class="st11" d="M463.6,194.9c-0.4,0-0.8-0.1-1.1-0.2
				c-0.3-0.1-0.5-0.3-0.7-0.6l0.6-0.8c0.1,0.2,0.3,0.3,0.5,0.4c0.2,0.1,0.4,0.2,0.6,0.2c0.2,0,0.4,0,0.6-0.2
				c0.2-0.1,0.2-0.3,0.2-0.5c0-0.1,0-0.2,0-0.3c-0.1-0.1-0.1-0.2-0.2-0.3c-0.1-0.1-0.3-0.1-0.4-0.2c-0.2,0-0.5-0.1-0.7,0v-0.8
				c0.2,0,0.4,0,0.6,0c0.1,0,0.3-0.1,0.4-0.1c0.1,0,0.2-0.1,0.2-0.2c0-0.1,0.1-0.2,0-0.3c0-0.2,0-0.3-0.2-0.4
				c-0.1-0.1-0.3-0.2-0.5-0.2c-0.2,0-0.4,0-0.5,0.1c-0.2,0.1-0.3,0.2-0.5,0.3l-0.6-0.8c0.2-0.2,0.5-0.4,0.8-0.5
				c0.3-0.1,0.6-0.2,0.9-0.2c0.2,0,0.5,0,0.7,0.1c0.2,0.1,0.4,0.2,0.6,0.3c0.2,0.1,0.3,0.3,0.4,0.5c0.1,0.2,0.1,0.4,0.1,0.6
				c0,0.3-0.1,0.5-0.2,0.7c-0.2,0.2-0.4,0.3-0.6,0.5v0c0.3,0.1,0.6,0.2,0.8,0.5c0.2,0.2,0.3,0.5,0.3,0.8c0,0.2,0,0.4-0.2,0.6
				c-0.1,0.2-0.3,0.3-0.4,0.5c-0.2,0.1-0.4,0.2-0.6,0.3C464.1,194.9,463.9,194.9,463.6,194.9"/>
			<path id="Path_469_00000096778020485432671910000003078135198154247864_" class="st11" d="M473.6,185.3V184h-2.3v-0.8l1.9-3.2
				h1.5v3.1h0.6v0.9h-0.6v1.3L473.6,185.3L473.6,185.3z M472.5,183.1h1.1v-1.4c0-0.2,0-0.4,0-0.6h0c-0.1,0.1-0.1,0.3-0.2,0.4
				c-0.1,0.2-0.1,0.3-0.2,0.5L472.5,183.1z"/>
			<path id="Path_470_00000136378359162079631890000000128185883684166795_" class="st11" d="M379,203.7v-0.7
				c0.3-0.3,0.6-0.6,0.9-0.9c0.3-0.3,0.5-0.5,0.7-0.8c0.2-0.2,0.3-0.4,0.5-0.7c0.1-0.2,0.2-0.4,0.2-0.6c0-0.2-0.1-0.4-0.2-0.6
				c-0.1-0.1-0.3-0.2-0.6-0.2c-0.2,0-0.4,0-0.5,0.2c-0.1,0.1-0.3,0.3-0.4,0.4l-0.7-0.6c0.2-0.3,0.5-0.5,0.8-0.6
				c0.3-0.2,0.6-0.2,1-0.2c0.2,0,0.5,0,0.7,0.1c0.2,0.1,0.4,0.2,0.6,0.3c0.2,0.1,0.3,0.3,0.3,0.5c0.1,0.2,0.1,0.4,0.1,0.7
				c0,0.2,0,0.5-0.1,0.7c-0.1,0.2-0.2,0.5-0.4,0.7c-0.2,0.2-0.4,0.5-0.6,0.7c-0.2,0.2-0.4,0.5-0.6,0.7c0.1,0,0.3,0,0.4,0h1.5v1
				L379,203.7z"/>
			<path id="Path_471_00000088816462877903970820000001093234392319825318_" class="st11" d="M371.1,194.2c-0.4,0-0.8-0.1-1.1-0.2
				c-0.3-0.1-0.5-0.3-0.7-0.6l0.6-0.8c0.1,0.2,0.3,0.3,0.5,0.4c0.2,0.1,0.4,0.2,0.6,0.2c0.2,0,0.4,0,0.6-0.2
				c0.2-0.1,0.2-0.3,0.2-0.5c0-0.1,0-0.2,0-0.3c-0.1-0.1-0.1-0.2-0.2-0.3c-0.1-0.1-0.3-0.1-0.4-0.2c-0.2,0-0.5-0.1-0.7,0V191
				c0.2,0,0.4,0,0.6,0c0.1,0,0.3-0.1,0.4-0.1c0.1,0,0.2-0.1,0.2-0.2c0-0.1,0.1-0.2,0-0.3c0-0.2,0-0.3-0.2-0.4
				c-0.1-0.1-0.3-0.2-0.5-0.2c-0.2,0-0.4,0-0.5,0.1c-0.2,0.1-0.3,0.2-0.5,0.3l-0.6-0.8c0.2-0.2,0.5-0.4,0.8-0.5
				c0.3-0.1,0.6-0.2,0.9-0.2c0.2,0,0.5,0,0.7,0.1c0.2,0.1,0.4,0.2,0.6,0.3c0.2,0.1,0.3,0.3,0.4,0.5c0.1,0.2,0.1,0.4,0.1,0.6
				c0,0.3-0.1,0.5-0.2,0.7c-0.2,0.2-0.4,0.3-0.6,0.5v0c0.3,0.1,0.6,0.2,0.8,0.5c0.2,0.2,0.3,0.5,0.3,0.8c0,0.2,0,0.4-0.2,0.6
				c-0.1,0.2-0.3,0.3-0.4,0.5c-0.2,0.1-0.4,0.2-0.6,0.3C371.6,194.2,371.3,194.2,371.1,194.2"/>
			<path id="Path_472_00000111896857821868520110000012517728614948935320_" class="st11" d="M362,184.6v-1.3h-2.3v-0.8l1.9-3.2h1.5
				v3.1h0.6v0.9h-0.6v1.3L362,184.6L362,184.6z M360.9,182.4h1.1v-1.4c0-0.2,0-0.4,0-0.6h0c-0.1,0.1-0.1,0.3-0.2,0.4
				c-0.1,0.2-0.1,0.3-0.2,0.5L360.9,182.4z"/>
			<path id="Path_473_00000136395091514493116730000017149886858445837750_" class="st11" d="M344.1,186.4l-2.1-1.6l-0.6,0.7
				l-0.5-0.4l1.5-2l0.5,0.4l-0.6,0.7l2.1,1.6L344.1,186.4z"/>
			<path id="Path_474_00000120519741683223471700000010535284124627916988_" class="st11" d="M346,184c-0.1,0.1-0.2,0.2-0.3,0.3
				c-0.1,0.1-0.3,0.1-0.4,0.1c-0.2,0-0.3,0-0.5,0c-0.2-0.1-0.4-0.1-0.5-0.3c-0.2-0.1-0.3-0.3-0.4-0.4c-0.1-0.1-0.1-0.3-0.2-0.5
				c0-0.2,0-0.3,0-0.5c0-0.2,0.1-0.3,0.2-0.4c0.1-0.1,0.2-0.2,0.3-0.3c0.1-0.1,0.3-0.1,0.4-0.1c0.2,0,0.3,0,0.5,0
				c0.2,0,0.4,0.1,0.5,0.3c0.2,0.1,0.3,0.3,0.4,0.4c0.1,0.1,0.1,0.3,0.2,0.5c0,0.2,0,0.3,0,0.5C346.2,183.8,346.1,183.9,346,184
				 M345.5,183.7c0.1-0.1,0.1-0.2,0.1-0.4c-0.1-0.2-0.2-0.3-0.3-0.4c-0.1-0.1-0.3-0.2-0.5-0.3c-0.1,0-0.3,0-0.4,0.1
				c-0.1,0.1-0.1,0.2-0.1,0.4c0.1,0.2,0.2,0.3,0.3,0.4c0.1,0.1,0.3,0.2,0.5,0.3C345.3,183.8,345.4,183.8,345.5,183.7"/>
			<path id="Path_475_00000088825338610925103250000006510789778851022744_" class="st11" d="M347.9,181.7c-0.1,0.1-0.2,0.2-0.4,0.3
				c-0.1,0.1-0.3,0.1-0.5,0.1c-0.2,0-0.3,0-0.5-0.1c-0.2-0.1-0.3-0.2-0.5-0.3c-0.1-0.1-0.3-0.3-0.3-0.4c-0.1-0.1-0.1-0.3-0.1-0.5
				c0-0.2,0-0.3,0-0.5c0-0.1,0.1-0.3,0.2-0.4c0.1-0.1,0.2-0.2,0.4-0.3c0.1-0.1,0.3-0.1,0.4-0.1c0.1,0,0.3,0,0.4,0.1
				c0.1,0.1,0.3,0.2,0.4,0.3l0.1,0.1l0.1,0.1l-1,1.1c0.1,0.1,0.3,0.1,0.5,0.1c0.1-0.1,0.3-0.1,0.4-0.3c0.1-0.1,0.2-0.3,0.2-0.5
				l0.5,0.1c0,0.2,0,0.3-0.1,0.5C348.2,181.4,348.1,181.6,347.9,181.7 M346.4,181.1l0.6-0.7c-0.1-0.1-0.2-0.1-0.3-0.2
				c-0.1,0-0.2,0.1-0.3,0.2c-0.1,0.1-0.1,0.2-0.1,0.3C346.2,180.8,346.3,181,346.4,181.1"/>
			<path id="Path_476_00000168087824105629800140000008151835496884001471_" class="st11" d="M349.7,179.8c-0.1,0.2-0.4,0.3-0.6,0.3
				c-0.1,0-0.2,0-0.3-0.1c-0.1-0.1-0.2-0.1-0.3-0.2l-0.8-0.7l-0.2,0.3L347,179l0.3-0.3l-0.4-0.5l0.4-0.5l0.5,0.5l0.4-0.4l0.4,0.4
				l-0.4,0.4l0.7,0.7c0.1,0.1,0.2,0.1,0.3,0.1c0.1,0,0.2,0,0.2-0.1l0.1-0.1c0,0,0-0.1,0-0.1l0.5,0.3c-0.1,0.1-0.1,0.1-0.1,0.2
				C349.8,179.6,349.8,179.7,349.7,179.8"/>
			<path id="Path_477_00000008138348088106332920000016024447248830581168_" class="st11" d="M351,178.4c-0.1,0.1-0.3,0.2-0.4,0.3
				c-0.2,0.1-0.3,0.1-0.5,0.2l-0.1-0.6c0.1,0,0.3,0,0.4-0.1c0.1,0,0.2-0.1,0.3-0.2c0.1-0.1,0.1-0.1,0.1-0.2c0-0.1,0-0.1,0-0.2
				c-0.1-0.1-0.2-0.1-0.3,0c-0.1,0-0.1,0-0.2,0.1c0,0-0.1,0-0.2,0.1c-0.1,0-0.2,0.1-0.3,0.1c-0.2,0.1-0.3,0.1-0.5,0l-0.3-0.1
				c-0.1-0.1-0.1-0.2-0.2-0.3c0-0.1,0-0.2,0-0.3c0-0.1,0-0.2,0.1-0.3c0.1-0.1,0.1-0.2,0.2-0.3c0.1-0.1,0.3-0.2,0.4-0.3
				c0.1,0,0.3-0.1,0.4-0.1l0.1,0.6c-0.1,0-0.2,0-0.3,0.1c-0.1,0-0.2,0.1-0.2,0.2c-0.1,0.1-0.1,0.3,0,0.3c0,0,0,0,0.1,0
				c0,0,0.1,0,0.1,0c0,0,0.1,0,0.2-0.1c0,0,0.1,0,0.2-0.1c0.1,0,0.2-0.1,0.3-0.1c0.2-0.1,0.3-0.1,0.5,0c0.1,0,0.2,0.1,0.3,0.2
				c0.1,0.1,0.1,0.2,0.2,0.3c0,0.1,0.1,0.2,0,0.3c0,0.1,0,0.2-0.1,0.3C351.2,178.2,351.1,178.3,351,178.4"/>
			<path id="Path_478_00000125569884540553799580000007376904926939417018_" class="st11" d="M353.3,177.2c-0.4-0.1-0.8-0.2-1.1-0.4
				c-0.4-0.2-0.7-0.4-1-0.7c-0.3-0.3-0.5-0.6-0.7-1c-0.2-0.3-0.3-0.7-0.4-1.1l0.5-0.2c0.1,0.4,0.2,0.7,0.4,1
				c0.4,0.6,0.9,1.1,1.5,1.5c0.3,0.2,0.7,0.4,1,0.4L353.3,177.2z"/>
			<path id="Path_479_00000063611165229198650270000009344982760755873153_" class="st11" d="M354.3,175.1c-0.1,0.1-0.2,0.2-0.3,0.2
				c-0.1,0-0.2,0-0.3,0c-0.1,0-0.2,0-0.3-0.1c-0.1-0.1-0.2-0.1-0.3-0.3l-0.7-0.7l-0.3,0.3l-0.4-0.4l0.3-0.3l-0.4-0.6l0.4-0.4
				l0.5,0.5l0.4-0.4l0.4,0.4l-0.4,0.4l0.7,0.7c0.1,0.1,0.2,0.1,0.3,0.2c0.1,0,0.2,0,0.2-0.1l0.1-0.1c0,0,0-0.1,0-0.1l0.5,0.3
				c-0.1,0.1-0.1,0.1-0.1,0.2C354.4,174.9,354.3,175,354.3,175.1"/>
			<path id="Path_480_00000015351234176116429390000004224062100427041972_" class="st11" d="M355.5,173.9c-0.1,0.1-0.2,0.1-0.3,0.2
				c-0.1,0-0.2,0.1-0.3,0c-0.1,0-0.2,0-0.3-0.1c-0.1,0-0.2-0.1-0.3-0.2c-0.2-0.2-0.2-0.4-0.2-0.7c0.1-0.3,0.3-0.7,0.6-0.9
				c-0.1-0.1-0.2-0.1-0.3-0.1c-0.1,0-0.2,0.1-0.3,0.1c-0.1,0.1-0.1,0.2-0.2,0.3c0,0.1-0.1,0.2-0.1,0.3l-0.5-0.2
				c0.1-0.2,0.1-0.3,0.2-0.5c0.1-0.2,0.2-0.3,0.3-0.4c0.2-0.2,0.5-0.3,0.7-0.3c0.3,0,0.6,0.2,0.8,0.5l1,1.1l-0.5,0.4l-0.2-0.2
				c0,0.1,0,0.3-0.1,0.4C355.7,173.7,355.6,173.8,355.5,173.9 M355.3,173.3c0,0,0.1-0.1,0.1-0.2c0-0.1,0-0.2,0-0.3l-0.3-0.3
				c-0.1,0.1-0.2,0.3-0.3,0.5c0,0.1,0,0.2,0,0.3c0,0,0.1,0.1,0.2,0.1C355.2,173.4,355.3,173.4,355.3,173.3"/>
			<path id="Path_481_00000045588590111123859370000008548168106992264114_" class="st11" d="M357.2,172.4l-2.3-2.7l0.6-0.5l1.3,1.5
				l0-1.3l0.6-0.5v1.4l1.7,0.5l-0.6,0.5l-1.1-0.4v0.5l0.4,0.5L357.2,172.4z"/>
			<path id="Path_482_00000142876024444501598860000008139883796583879820_" class="st11" d="M360.3,170.9l-0.5,0.1
				c0-0.4-0.2-0.7-0.3-1.1c-0.2-0.3-0.4-0.6-0.6-0.9c-0.2-0.3-0.5-0.6-0.8-0.8c-0.3-0.2-0.6-0.4-1-0.6l0.3-0.4
				c0.4,0.1,0.7,0.3,1.1,0.5c0.3,0.2,0.6,0.5,0.9,0.8c0.3,0.3,0.5,0.7,0.6,1.1C360.1,170.1,360.2,170.5,360.3,170.9"/>
			<path id="Path_483_00000005982527373297894520000000536676997520012717_" class="st11" d="M361.9,168.6c-0.1,0.1-0.3,0.2-0.5,0.2
				c-0.2,0-0.3,0-0.5,0c-0.2,0-0.3-0.1-0.5-0.2c-0.2-0.1-0.3-0.2-0.4-0.4c-0.1-0.2-0.2-0.3-0.3-0.5c0-0.2,0-0.3,0-0.5
				c0-0.1,0.1-0.3,0.1-0.4c0.1-0.1,0.2-0.2,0.3-0.3c0.1-0.1,0.3-0.2,0.4-0.2c0.1,0,0.3,0,0.4,0c0.1,0,0.3,0.1,0.4,0.2
				c0.1,0.1,0.2,0.2,0.3,0.3c0.1,0,0.1,0.1,0.1,0.2c0,0,0,0.1,0.1,0.1l-1.2,0.9c0.2,0.2,0.6,0.2,0.8,0c0.1-0.1,0.3-0.3,0.3-0.5
				l0.5,0.2c-0.1,0.1-0.1,0.3-0.2,0.4C362.1,168.4,362,168.5,361.9,168.6 M360.5,167.7l0.7-0.6c-0.1-0.1-0.2-0.2-0.3-0.2
				c-0.1,0-0.2,0-0.3,0.1c-0.1,0.1-0.2,0.2-0.2,0.3C360.4,167.4,360.4,167.6,360.5,167.7"/>
			<path id="Path_484_00000031197708249351850380000014881994826262064263_" class="st11" d="M363.2,167.5l-1.4-2l0.5-0.3l0.2,0.2
				c0-0.1,0.1-0.3,0.1-0.4c0.1-0.1,0.2-0.3,0.3-0.3c0.2-0.2,0.4-0.2,0.6-0.1c0.2,0.1,0.4,0.3,0.6,0.5l0.9,1.3l-0.6,0.4l-0.8-1.2
				c-0.1-0.1-0.2-0.3-0.3-0.3c-0.1,0-0.2,0-0.3,0c-0.1,0-0.1,0.1-0.2,0.2c0,0.1,0,0.2-0.1,0.3l1,1.4L363.2,167.5z"/>
			<path id="Path_485_00000096040086620334262020000017409553494813709211_" class="st11" d="M467.5,164.5l1.4-2.2l-0.8-0.5l0.3-0.5
				l2.1,1.4l-0.3,0.5l-0.8-0.5l-1.4,2.2L467.5,164.5z"/>
			<path id="Path_486_00000012473798907490296640000010936840849818223545_" class="st11" d="M470,166.3c-0.1-0.1-0.2-0.2-0.3-0.3
				c-0.1-0.1-0.1-0.3-0.2-0.4c0-0.2,0-0.3,0-0.5c0-0.2,0.1-0.4,0.3-0.5c0.1-0.1,0.2-0.3,0.4-0.4c0.1-0.1,0.3-0.2,0.5-0.2
				c0.2,0,0.3,0,0.5,0c0.2,0,0.3,0.1,0.4,0.2c0.3,0.2,0.4,0.4,0.5,0.8c0,0.2,0,0.3,0,0.5c0,0.2-0.1,0.4-0.3,0.5
				c-0.1,0.1-0.2,0.3-0.4,0.4c-0.3,0.2-0.6,0.2-0.9,0.2C470.3,166.4,470.1,166.4,470,166.3 M470.3,165.8c0.1,0.1,0.3,0.1,0.4,0
				c0.2-0.1,0.3-0.2,0.4-0.3c0.1-0.1,0.2-0.3,0.2-0.5c0-0.1-0.1-0.3-0.2-0.3c-0.1-0.1-0.3-0.1-0.4,0c-0.2,0.1-0.3,0.2-0.4,0.3
				c-0.1,0.1-0.2,0.3-0.2,0.5C470.1,165.6,470.2,165.7,470.3,165.8"/>
			<path id="Path_487_00000060024929660895620080000001851113646099964553_" class="st11" d="M472.4,168.1c-0.1-0.1-0.2-0.2-0.3-0.4
				c-0.1-0.1-0.1-0.3-0.2-0.5c0-0.2,0-0.3,0-0.5c0-0.2,0.1-0.4,0.3-0.5c0.1-0.2,0.3-0.3,0.4-0.4c0.1-0.1,0.3-0.1,0.5-0.2
				c0.2,0,0.3,0,0.5,0c0.2,0,0.3,0.1,0.4,0.2c0.1,0.1,0.2,0.2,0.3,0.3c0.1,0.1,0.1,0.2,0.1,0.4c0,0.1,0,0.3-0.1,0.4
				c-0.1,0.1-0.1,0.3-0.2,0.4l-0.1,0.1l-0.1,0.1l-1.2-0.9c-0.1,0.1-0.1,0.3,0,0.5c0,0.1,0.1,0.3,0.3,0.3c0.1,0.1,0.3,0.2,0.5,0.2
				l-0.1,0.5c-0.2,0-0.3,0-0.5-0.1C472.8,168.2,472.6,168.2,472.4,168.1 M472.9,166.5l0.7,0.6c0.1-0.1,0.1-0.2,0.1-0.3
				c0-0.1-0.1-0.2-0.2-0.3c-0.1-0.1-0.2-0.1-0.3-0.1C473.2,166.3,473.1,166.4,472.9,166.5"/>
			<path id="Path_488_00000168805540969196918500000003671348614265686401_" class="st11" d="M474.5,169.7c-0.2-0.1-0.3-0.4-0.3-0.6
				c0-0.1,0-0.2,0.1-0.3c0.1-0.1,0.1-0.2,0.2-0.3l0.6-0.8l-0.3-0.2l0.3-0.4l0.3,0.2l0.5-0.5l0.5,0.4l-0.4,0.5l0.5,0.4l-0.3,0.5
				l-0.5-0.4l-0.6,0.8c-0.1,0.1-0.1,0.2-0.1,0.3c0,0.1,0,0.2,0.1,0.2c0,0,0.1,0,0.1,0.1c0,0,0.1,0,0.1,0L475,170
				c-0.1,0-0.1,0-0.2-0.1C474.7,169.8,474.6,169.8,474.5,169.7"/>
			<path id="Path_489_00000035494260126023768950000001254552749923396238_" class="st11" d="M476,170.9c-0.1-0.1-0.2-0.2-0.3-0.4
				c-0.1-0.1-0.1-0.3-0.2-0.5l0.6-0.1c0,0.1,0.1,0.2,0.1,0.3c0.1,0.1,0.1,0.2,0.2,0.3c0.1,0.1,0.1,0.1,0.2,0.1c0.1,0,0.1,0,0.2-0.1
				c0.1-0.1,0.1-0.2,0-0.3c0,0,0-0.1-0.1-0.2c0,0-0.1-0.1-0.1-0.2c0-0.1-0.1-0.1-0.1-0.2c0-0.1,0-0.2-0.1-0.3v-0.3
				c0-0.1,0.1-0.2,0.1-0.3c0.1-0.1,0.2-0.2,0.3-0.2c0.1,0,0.2-0.1,0.3-0.1c0.1,0,0.2,0,0.3,0.1c0.1,0.1,0.2,0.1,0.3,0.2
				c0.1,0.1,0.2,0.2,0.3,0.4c0.1,0.1,0.1,0.3,0.2,0.4l-0.6,0.1c0-0.1-0.1-0.2-0.1-0.3c0-0.1-0.1-0.2-0.2-0.2c-0.1-0.1-0.3-0.1-0.3,0
				c0,0,0,0.1,0,0.1c0,0,0,0.1,0,0.1c0,0,0,0.1,0.1,0.2c0,0,0.1,0.1,0.1,0.2c0,0.1,0.1,0.1,0.1,0.2c0,0.1,0,0.2,0.1,0.3v0.3
				c0,0.1-0.1,0.2-0.1,0.3c-0.1,0.1-0.2,0.2-0.3,0.2c-0.1,0-0.2,0.1-0.3,0.1c-0.1,0-0.2,0-0.3-0.1C476.3,171,476.1,171,476,170.9"/>
			<path id="Path_490_00000114032118213464818250000013806565874235404727_" class="st11" d="M476.7,172.6l2.2-2.6l0.5,0.4l-0.1,0.2
				c0.1,0,0.3,0,0.4,0c0.1,0,0.2,0.1,0.3,0.2c0.1,0.1,0.2,0.2,0.3,0.3c0.1,0.1,0.1,0.3,0,0.4c0,0.2,0,0.3-0.1,0.4
				c-0.1,0.2-0.2,0.3-0.3,0.4c-0.1,0.1-0.3,0.3-0.4,0.4c-0.1,0.1-0.3,0.1-0.5,0.2c-0.1,0-0.3,0-0.4,0c-0.1,0-0.2-0.1-0.3-0.2
				c-0.1-0.1-0.1-0.2-0.2-0.3c-0.1-0.1-0.1-0.2-0.1-0.3l-0.3,0.3l-0.5,0.6L476.7,172.6z M478.5,172.3c0.1,0.1,0.2,0.1,0.3,0.1
				c0.2-0.1,0.3-0.2,0.5-0.3c0.3-0.3,0.3-0.6,0.1-0.8c-0.1-0.1-0.3-0.1-0.5-0.1l-0.7,0.8c0,0.1,0,0.2,0.1,0.2
				C478.4,172.1,478.5,172.2,478.5,172.3"/>
			<path id="Path_491_00000183944705995678629680000009468054404030021284_" class="st11" d="M479.6,174l1.7-1.8l0.4,0.4l-0.3,0.3
				c0.2-0.1,0.3-0.1,0.5,0c0.1,0,0.3,0.1,0.4,0.2l0.1,0.1c0,0,0,0.1,0.1,0.1l-0.5,0.4c0,0,0-0.1-0.1-0.1c0,0,0-0.1-0.1-0.1
				c-0.1-0.1-0.2-0.1-0.3-0.1c-0.1,0-0.3,0-0.4,0.1l-1,1.1L479.6,174z"/>
			<path id="Path_492_00000044897531429298002380000015595859453911609743_" class="st11" d="M482,176.2c-0.1-0.1-0.2-0.2-0.3-0.4
				c-0.1-0.1-0.1-0.3-0.1-0.5c0-0.2,0-0.3,0.1-0.5c0.2-0.3,0.5-0.6,0.8-0.8c0.1-0.1,0.3-0.1,0.5-0.1c0.2,0,0.3,0,0.5,0.1
				c0.3,0.1,0.5,0.3,0.6,0.6c0.1,0.3,0.1,0.6,0,0.9c-0.1,0.2-0.2,0.3-0.3,0.5c-0.1,0.1-0.3,0.3-0.5,0.3c-0.1,0.1-0.3,0.1-0.5,0.1
				c-0.2,0-0.3,0-0.5-0.1C482.2,176.5,482.1,176.4,482,176.2 M482.4,175.8c0.1,0.1,0.2,0.1,0.4,0.1c0.2-0.1,0.3-0.2,0.5-0.3
				c0.1-0.1,0.2-0.3,0.3-0.5c0-0.1,0-0.3-0.1-0.4c-0.1-0.1-0.2-0.1-0.4-0.1c-0.2,0.1-0.3,0.2-0.4,0.3c-0.1,0.1-0.2,0.3-0.3,0.5
				C482.3,175.6,482.3,175.7,482.4,175.8"/>
			<path id="Path_493_00000085232258624182880770000002627394001927386547_" class="st11" d="M483.2,179c-0.1-0.1-0.2-0.2-0.3-0.3
				c-0.1-0.1-0.1-0.2-0.1-0.3c0-0.1,0-0.2,0-0.3c0-0.1,0.1-0.2,0.2-0.3c0.2-0.1,0.4-0.2,0.6-0.1v-0.3c0-0.1,0.1-0.2,0.1-0.2
				c0.1-0.1,0.2-0.1,0.3-0.1h0.3c0-0.1,0-0.2,0-0.3c0-0.1,0.1-0.3,0.2-0.3c0.1-0.1,0.2-0.2,0.3-0.2c0.1,0,0.3,0,0.4,0
				c0.1,0,0.2,0,0.3,0.1c0.1,0.1,0.2,0.1,0.3,0.3c0.1,0.1,0.2,0.2,0.2,0.3l0.6,0.7l-0.4,0.4l-0.3-0.3c0,0,0,0.1,0,0.1l-0.1,0.1
				c-0.1,0.1-0.2,0.2-0.3,0.2c-0.1,0-0.2,0-0.3,0c-0.1,0-0.2,0-0.3-0.1c-0.1-0.1-0.2-0.1-0.3-0.3c-0.1-0.1-0.1-0.2-0.2-0.3h-0.1
				c0,0,0,0-0.1,0c0,0,0,0.1,0,0.2c0,0.1,0.1,0.1,0.2,0.3l0.3,0.3c0.2,0.2,0.3,0.4,0.4,0.6c0,0.2,0,0.4-0.2,0.5
				c-0.1,0.1-0.2,0.2-0.3,0.2c-0.1,0-0.3,0-0.4,0c-0.1,0-0.3-0.1-0.4-0.2C483.5,179.2,483.3,179.1,483.2,179 M483.6,178.7
				c0.1,0.1,0.2,0.2,0.3,0.3c0.1,0,0.2,0,0.3,0c0,0,0.1-0.1,0-0.2c-0.1-0.1-0.1-0.2-0.2-0.3l-0.2-0.2c0,0-0.1-0.1-0.1-0.2
				c0,0,0-0.1-0.1-0.1c-0.1,0-0.2,0-0.3,0.1c-0.1,0.1-0.1,0.2,0,0.3C483.4,178.5,483.5,178.6,483.6,178.7 M484.9,177.4
				c0.1,0.1,0.1,0.1,0.3,0.1c0.1,0,0.2,0,0.3-0.1c0.1-0.1,0.1-0.2,0.2-0.3c0-0.1,0-0.2-0.1-0.3c-0.1-0.1-0.2-0.1-0.3-0.1
				c-0.1,0-0.2,0-0.3,0.1c-0.1,0.1-0.1,0.2-0.2,0.3C484.8,177.2,484.9,177.4,484.9,177.4"/>
			<path id="Path_494_00000062180708241865426530000000161142283922485687_" class="st11" d="M485.4,179.7l1.9-1.7l0.4,0.5l-0.3,0.3
				c0.2,0,0.3,0,0.5,0c0.1,0,0.2,0.1,0.3,0.2l0.1,0.1c0,0,0,0.1,0,0.1l-0.6,0.3c0,0,0-0.1-0.1-0.1c0,0,0-0.1-0.1-0.1
				c0-0.1-0.2-0.1-0.3-0.2c-0.1,0-0.3,0-0.4,0l-1.1,1L485.4,179.7z"/>
			<path id="Path_495_00000021805337385073647430000007126837582498287267_" class="st11" d="M487.1,181.8c-0.1-0.1-0.1-0.2-0.2-0.3
				c0-0.1-0.1-0.2,0-0.3c0-0.1,0-0.2,0.1-0.3c0-0.1,0.1-0.2,0.2-0.2c0.2-0.2,0.4-0.2,0.7-0.1c0.3,0.2,0.7,0.4,0.9,0.6
				c0.1-0.1,0.1-0.2,0.1-0.3c0-0.1-0.1-0.2-0.1-0.3c-0.1-0.1-0.2-0.2-0.3-0.2c-0.1,0-0.2-0.1-0.3-0.2l0.2-0.5
				c0.2,0.1,0.3,0.1,0.5,0.2c0.2,0.1,0.3,0.2,0.4,0.4c0.2,0.2,0.3,0.5,0.3,0.7c-0.1,0.3-0.2,0.6-0.5,0.8l-1.1,0.9l-0.4-0.5l0.2-0.2
				c-0.1,0-0.3,0-0.4-0.1C487.3,182,487.2,181.9,487.1,181.8 M487.7,181.6c0,0,0.1,0.1,0.2,0.1c0.1,0,0.2,0.1,0.3,0l0.3-0.3
				c-0.2-0.2-0.3-0.3-0.5-0.3c-0.1,0-0.2,0-0.3,0c0,0-0.1,0.1-0.1,0.2C487.6,181.4,487.6,181.5,487.7,181.6"/>
			<path id="Path_496_00000034086781310322083240000004134271504805260709_" class="st11" d="M488.6,183.4l1.9-1.5l0.4,0.5l-0.2,0.3
				c0.1,0,0.3,0,0.4,0.1c0.1,0,0.3,0.1,0.3,0.3c0.1,0.1,0.2,0.3,0.2,0.4c0,0.1,0,0.3-0.1,0.4c0.2,0,0.3,0,0.5,0.1
				c0.1,0.1,0.3,0.1,0.4,0.3c0.2,0.2,0.2,0.4,0.2,0.6c-0.1,0.3-0.2,0.5-0.5,0.6l-1.2,1l-0.5-0.6l1.1-0.9c0.1-0.1,0.2-0.2,0.3-0.3
				c0-0.1,0-0.2-0.1-0.3c-0.1-0.1-0.3-0.2-0.5-0.2l-1.3,1.1l-0.5-0.6l1.1-0.9c0.1-0.1,0.2-0.2,0.3-0.3c0-0.1,0-0.2-0.1-0.3
				c-0.1-0.1-0.3-0.2-0.5-0.2L489,184L488.6,183.4z"/>
			<path id="Path_497_00000028305079546948049800000003033425921040062113_" class="st11" d="M491.4,187l2-1.4l0.3,0.5l-0.2,0.2
				c0.1,0,0.3,0.1,0.4,0.1c0.1,0,0.3,0.2,0.3,0.3c0.1,0.1,0.2,0.3,0.2,0.4c0,0.1,0,0.3-0.1,0.4c0.1,0,0.3,0.1,0.4,0.1
				c0.1,0,0.3,0.2,0.3,0.3c0.2,0.2,0.2,0.4,0.1,0.6c-0.1,0.2-0.3,0.4-0.5,0.6l-1.3,0.9l-0.4-0.6l1.2-0.8c0.1-0.1,0.3-0.2,0.3-0.3
				c0-0.1,0-0.2,0-0.3c-0.1-0.1-0.3-0.2-0.4-0.2l-1.4,1l-0.4-0.6l1.2-0.8c0.1-0.1,0.3-0.2,0.3-0.3c0-0.1,0-0.2,0-0.3
				c-0.1-0.1-0.3-0.2-0.4-0.2l-1.4,1L491.4,187z"/>
			<path id="Path_498_00000090293826101282750750000005896255160658168202_" class="st11" d="M494.3,191.2c0-0.1-0.1-0.2-0.1-0.3
				v-0.3c0-0.1,0-0.2,0.1-0.3c0-0.1,0.1-0.1,0.2-0.2c0.2-0.1,0.5-0.2,0.7,0c0.3,0.2,0.6,0.4,0.8,0.7c0.1-0.1,0.1-0.1,0.2-0.2
				c0-0.1,0-0.2-0.1-0.3c-0.1-0.1-0.1-0.2-0.2-0.3c-0.1-0.1-0.2-0.2-0.3-0.2l0.3-0.5c0.2,0.1,0.3,0.2,0.5,0.3
				c0.1,0.1,0.3,0.3,0.4,0.4c0.2,0.2,0.2,0.5,0.2,0.8c0,0.3-0.3,0.5-0.6,0.7l-1.2,0.8l-0.3-0.5l0.2-0.2c-0.1,0-0.3-0.1-0.4-0.2
				C494.5,191.5,494.4,191.4,494.3,191.2 M494.9,191.2c0,0.1,0.1,0.1,0.2,0.2c0,0,0.1,0,0.3,0.1l0.4-0.3c-0.1-0.2-0.3-0.3-0.4-0.4
				c-0.1,0-0.2,0-0.3,0c-0.1,0-0.1,0.1-0.1,0.2C494.8,191,494.8,191.1,494.9,191.2"/>
			<path id="Path_499_00000080903704061618227880000004229919039569841819_" class="st11" d="M493.4,300.2l-2.2-1.7l-0.6,0.7
				l-0.5-0.4l1.6-2.1l0.5,0.4l-0.6,0.7l2.2,1.7L493.4,300.2z"/>
			<path id="Path_500_00000013166616669807782860000011385347059559269799_" class="st11" d="M495.3,297.8c-0.1,0.1-0.2,0.2-0.3,0.3
				c-0.1,0.1-0.3,0.1-0.4,0.2c-0.2,0-0.3,0-0.5,0c-0.2-0.1-0.4-0.1-0.5-0.3c-0.2-0.1-0.3-0.3-0.4-0.4c-0.1-0.1-0.2-0.3-0.2-0.5
				c0-0.2,0-0.3,0-0.5c0-0.2,0.1-0.3,0.2-0.4c0.1-0.1,0.2-0.2,0.3-0.3c0.1-0.1,0.3-0.1,0.4-0.2c0.2,0,0.3,0,0.5,0
				c0.2,0,0.4,0.1,0.5,0.3c0.2,0.1,0.3,0.3,0.4,0.4c0.1,0.1,0.2,0.3,0.2,0.5c0,0.2,0,0.3,0,0.5C495.4,297.6,495.4,297.7,495.3,297.8
				 M494.8,297.4c0.1-0.1,0.1-0.3,0-0.4c-0.1-0.2-0.2-0.3-0.3-0.4c-0.1-0.1-0.3-0.2-0.5-0.2c-0.1,0-0.3,0.1-0.4,0.2
				c-0.1,0.1-0.1,0.3,0,0.4c0.1,0.2,0.2,0.3,0.4,0.4c0.1,0.1,0.3,0.2,0.5,0.2C494.6,297.7,494.8,297.6,494.8,297.4
				C494.8,297.4,494.8,297.4,494.8,297.4"/>
			<path id="Path_501_00000177477925895205345170000001835290818963775930_" class="st11" d="M497.1,295.2c-0.1,0.1-0.2,0.3-0.3,0.4
				c-0.1,0.1-0.3,0.2-0.5,0.2c-0.2,0-0.3,0-0.5,0c-0.2,0-0.4-0.1-0.5-0.3c-0.2-0.1-0.3-0.2-0.4-0.4c-0.1-0.1-0.2-0.3-0.2-0.5
				c0-0.2,0-0.3,0-0.5c0-0.2,0.1-0.3,0.2-0.4c0.1-0.1,0.2-0.3,0.3-0.3c0.1-0.1,0.3-0.1,0.4-0.1c0.1,0,0.3,0,0.4,0
				c0.2,0,0.3,0.1,0.4,0.2c0,0,0.1,0.1,0.2,0.1l0.1,0.1l-0.8,1.3c0.1,0.1,0.3,0.1,0.5,0c0.1,0,0.3-0.2,0.3-0.3
				c0.1-0.2,0.2-0.4,0.2-0.6l0.5,0c0,0.2,0,0.3-0.1,0.5C497.2,295,497.2,295.1,497.1,295.2 M495.4,294.8l0.5-0.8
				c-0.1-0.1-0.2-0.1-0.3-0.1c-0.1,0-0.2,0.1-0.3,0.2c-0.1,0.1-0.1,0.2-0.1,0.3C495.2,294.6,495.3,294.7,495.4,294.8"/>
			<path id="Path_502_00000078766869599844890080000013136521092440452230_" class="st11" d="M498.5,293c-0.1,0.1-0.2,0.2-0.3,0.3
				c-0.1,0-0.2,0.1-0.3,0.1c-0.1,0-0.2,0-0.3,0c-0.1,0-0.3-0.1-0.4-0.2l-0.9-0.6l-0.2,0.3l-0.5-0.3l0.2-0.3l-0.5-0.4l0.3-0.5
				l0.6,0.4l0.3-0.5l0.5,0.3l-0.3,0.5l0.8,0.6c0.1,0.1,0.2,0.1,0.3,0.1c0.1,0,0.2-0.1,0.2-0.2c0,0,0-0.1,0-0.1c0,0,0-0.1,0-0.1
				l0.5,0.2c0,0.1,0,0.1-0.1,0.3C498.7,292.8,498.6,292.9,498.5,293"/>
			<path id="Path_503_00000019644602844033742700000014812616059061313187_" class="st11" d="M499.6,291.4c-0.1,0.1-0.2,0.3-0.3,0.4
				c-0.1,0.1-0.3,0.2-0.5,0.3l-0.2-0.6c0.1,0,0.2-0.1,0.3-0.2c0.1-0.1,0.2-0.1,0.2-0.3c0-0.1,0.1-0.2,0.1-0.3c0,0,0-0.1-0.1-0.1
				c0,0-0.1,0-0.1,0c0,0,0,0,0,0c0,0-0.1,0-0.1,0c0,0-0.1,0-0.2,0.1c0,0.1-0.1,0.1-0.2,0.1c-0.1,0-0.1,0.1-0.2,0.1
				c-0.1,0-0.2,0.1-0.3,0.1c-0.1,0-0.2,0-0.3,0c-0.1,0-0.2,0-0.3-0.1c-0.1-0.1-0.2-0.1-0.3-0.2c-0.1-0.1-0.1-0.2-0.1-0.3v-0.3
				c0-0.1,0.1-0.3,0.2-0.4c0.1-0.2,0.2-0.3,0.3-0.4c0.1-0.1,0.2-0.2,0.4-0.2l0.2,0.5c-0.1,0-0.2,0.1-0.3,0.2
				c-0.1,0.1-0.1,0.1-0.2,0.2c-0.1,0.2-0.1,0.3,0,0.3c0,0,0.1,0,0.1,0c0,0,0,0,0,0c0,0,0.1,0,0.1,0c0,0,0.1,0,0.1-0.1
				c0-0.1,0.1-0.1,0.2-0.1c0.1,0,0.2-0.1,0.2-0.2c0.1-0.1,0.2-0.1,0.3-0.1c0.1,0,0.2,0,0.3,0c0.1,0,0.2,0,0.3,0.1
				c0.1,0.1,0.2,0.1,0.3,0.2c0.1,0.1,0.1,0.2,0.1,0.3v0.4C499.7,291,499.7,291.2,499.6,291.4"/>
			<path id="Path_504_00000091707962479405112890000004498044909889000866_" class="st11" d="M501.2,288.6c-0.1,0.1-0.1,0.2-0.3,0.3
				c-0.1,0.1-0.2,0.1-0.4,0.2l0.2,0.2l-0.3,0.5l-3.1-1.7l0.4-0.7l0.8,0.4l0.3,0.2c0-0.1,0-0.3,0-0.4c0-0.1,0-0.2,0.1-0.3
				c0.1-0.1,0.2-0.2,0.3-0.3c0.1-0.1,0.2-0.1,0.4-0.2c0.2,0,0.3,0,0.5,0c0.2,0,0.4,0.1,0.5,0.2c0.2,0.1,0.3,0.2,0.5,0.4
				c0.1,0.1,0.2,0.3,0.3,0.4c0,0.1,0.1,0.3,0.1,0.4C501.3,288.4,501.2,288.5,501.2,288.6 M500.5,288.5c0.1-0.1,0.1-0.3,0-0.4
				c-0.1-0.2-0.3-0.3-0.4-0.4c-0.4-0.2-0.7-0.2-0.8,0c-0.1,0.2-0.1,0.3,0,0.5l0.9,0.5c0.1,0,0.1-0.1,0.2-0.1
				C500.5,288.6,500.5,288.5,500.5,288.5"/>
			<path id="Path_505_00000000197292606688324320000006444114786266164612_" class="st11" d="M502.6,286c-0.1,0.2-0.2,0.3-0.3,0.4
				c-0.1,0.1-0.3,0.2-0.4,0.3c-0.2,0.1-0.3,0.1-0.5,0c-0.2,0-0.4-0.1-0.6-0.2c-0.2-0.1-0.3-0.2-0.5-0.3c-0.1-0.1-0.2-0.3-0.3-0.4
				c-0.1-0.1-0.1-0.3,0-0.5c0-0.2,0-0.3,0.1-0.4c0.1-0.2,0.2-0.3,0.3-0.4c0.1-0.1,0.2-0.1,0.4-0.2c0.1,0,0.3,0,0.4,0
				c0.2,0,0.3,0.1,0.5,0.2c0,0,0.1,0.1,0.2,0.1c0,0,0.1,0,0.1,0.1l-0.7,1.4c0.2,0,0.3,0,0.5,0c0.1-0.1,0.2-0.2,0.3-0.3
				c0.1-0.2,0.1-0.4,0.1-0.6h0.5v0.5C502.7,285.7,502.7,285.9,502.6,286 M500.9,285.7l0.4-0.8c-0.1-0.1-0.2-0.1-0.3-0.1
				c-0.1,0-0.2,0.1-0.3,0.2c-0.1,0.1-0.1,0.2,0,0.3C500.7,285.5,500.8,285.7,500.9,285.7"/>
			<path id="Path_506_00000114765680095230709480000017620713816183793280_" class="st11" d="M503.7,283.8c0,0.1-0.1,0.2-0.2,0.3
				l-0.3,0.1h-0.3c-0.1,0-0.2-0.1-0.3-0.1l-2.5-1.2l0.3-0.7l2.5,1.3c0.1,0,0.1,0,0.2,0c0,0,0.1,0,0.1,0v-0.1l0.6,0.2
				c0,0.1,0,0.1,0,0.2C503.7,283.7,503.7,283.8,503.7,283.8"/>
			<path id="Path_507_00000055702654050144630260000012046801391999725952_" class="st11" d="M504.6,281.8c-0.1,0.2-0.2,0.3-0.3,0.4
				c-0.1,0.1-0.3,0.2-0.4,0.3c-0.2,0.1-0.3,0.1-0.5,0.1c-0.2,0-0.4,0-0.6-0.1c-0.2-0.1-0.3-0.2-0.5-0.3c-0.1-0.1-0.2-0.3-0.3-0.4
				c0-0.2-0.1-0.3-0.1-0.5c0-0.1,0-0.3,0.1-0.4c0.1-0.2,0.2-0.3,0.3-0.4c0.1-0.1,0.2-0.2,0.4-0.2c0.1,0,0.3,0,0.4,0
				c0.2,0,0.3,0.1,0.5,0.1c0,0,0.1,0,0.2,0.1c0,0,0.1,0,0.1,0.1l-0.6,1.4c0.2,0.1,0.3,0,0.5,0c0.1-0.1,0.2-0.2,0.3-0.3
				c0.1-0.2,0.1-0.4,0.1-0.6l0.5,0c0,0.2,0,0.3,0,0.5C504.7,281.5,504.7,281.7,504.6,281.8 M502.9,281.7l0.4-0.8
				c-0.1-0.1-0.2-0.1-0.3,0c-0.1,0-0.2,0.1-0.3,0.3c0,0.1,0,0.2,0,0.3C502.7,281.5,502.8,281.6,502.9,281.7"/>
			<path id="Path_508_00000168804764444042894400000002960702082189188748_" class="st11" d="M502.7,278.7c0,0.1-0.1,0.2-0.2,0.3
				c-0.1,0-0.2,0-0.3,0c-0.1,0-0.2-0.1-0.2-0.2c0-0.1,0-0.2,0-0.3c0-0.1,0.1-0.2,0.2-0.3c0.1,0,0.2,0,0.3,0c0.1,0,0.2,0.1,0.2,0.2
				C502.8,278.5,502.8,278.6,502.7,278.7 M505.3,280.2l-2.3-1l0.3-0.7l2.3,1L505.3,280.2z"/>
			<path id="Path_509_00000129906986342273458710000003921523761699093151_" class="st11" d="M506.3,277.9c-0.1,0.1-0.1,0.3-0.3,0.4
				c-0.1,0.1-0.2,0.2-0.4,0.2c-0.2,0-0.3,0.1-0.5,0c-0.2,0-0.4,0-0.6-0.1c-0.2-0.1-0.3-0.2-0.5-0.3c-0.1-0.1-0.2-0.2-0.3-0.4
				c-0.1-0.1-0.1-0.3-0.1-0.4c0-0.1,0-0.3,0-0.4c0-0.1,0.1-0.2,0.2-0.3c0.1-0.1,0.2-0.1,0.3-0.2l-0.4-0.1l-0.8-0.3l0.3-0.7l3.3,1.4
				l-0.2,0.6l-0.3,0c0,0.1,0.1,0.3,0.1,0.4C506.4,277.6,506.4,277.8,506.3,277.9 M505.8,277.5c0-0.1,0-0.1,0-0.2
				c0-0.1,0-0.2-0.1-0.3l-1-0.4c-0.1,0-0.1,0.1-0.2,0.1c0,0-0.1,0.1-0.1,0.2c0,0.1,0,0.2,0,0.3c0.1,0.2,0.3,0.3,0.5,0.3
				c0.2,0.1,0.4,0.1,0.6,0.1C505.7,277.7,505.8,277.6,505.8,277.5"/>
			<path id="Path_510_00000177481718776636632360000006267908873135817109_" class="st11" d="M399,335.7l0.6-2.6l-0.9-0.2l0.1-0.6
				l2.5,0.6l-0.1,0.6l-0.9-0.2l-0.6,2.6L399,335.7z"/>
			<path id="Path_511_00000029756621470039924720000006953016349865656717_" class="st11" d="M401.9,336.3c-0.2,0-0.3-0.1-0.4-0.2
				c-0.1-0.1-0.2-0.2-0.3-0.3c-0.1-0.1-0.2-0.3-0.2-0.5c0-0.2,0-0.4,0-0.6c0-0.2,0.1-0.4,0.2-0.5c0.1-0.1,0.2-0.2,0.3-0.3
				c0.1-0.1,0.3-0.1,0.4-0.2c0.2,0,0.3,0,0.5,0c0.2,0,0.3,0.1,0.4,0.2c0.1,0.1,0.2,0.2,0.3,0.3c0.1,0.1,0.2,0.3,0.2,0.5
				c0,0.2,0,0.4,0,0.6c0,0.2-0.1,0.4-0.2,0.5c-0.1,0.1-0.2,0.2-0.3,0.3c-0.1,0.1-0.3,0.1-0.4,0.2
				C402.2,336.3,402.1,336.3,401.9,336.3 M402.1,335.7c0.1,0,0.3,0,0.4-0.1c0.1-0.1,0.2-0.3,0.2-0.5c0-0.2,0-0.3,0-0.5
				c-0.1-0.1-0.2-0.2-0.3-0.3c-0.1-0.1-0.3,0-0.4,0.1c-0.1,0.1-0.2,0.3-0.2,0.5c0,0.2,0,0.3,0,0.5
				C401.8,335.6,401.9,335.7,402.1,335.7"/>
			<path id="Path_512_00000056409259430123457920000005660330132857908127_" class="st11" d="M405,336.8c-0.2,0-0.3-0.1-0.5-0.2
				c-0.1-0.1-0.2-0.2-0.3-0.3c-0.1-0.1-0.2-0.3-0.2-0.5c0-0.2,0-0.4,0-0.6c0-0.2,0.1-0.4,0.2-0.5c0.1-0.1,0.2-0.3,0.3-0.4
				c0.1-0.1,0.3-0.2,0.4-0.2c0.2,0,0.3,0,0.5,0c0.2,0,0.3,0.1,0.5,0.2c0.1,0.1,0.2,0.2,0.3,0.3c0.1,0.1,0.1,0.3,0.1,0.4v0.5
				c0,0.1,0,0.1,0,0.2s0,0.1,0,0.1l-1.5-0.2c0,0.2,0,0.3,0.2,0.4c0.1,0.1,0.2,0.2,0.4,0.2c0.2,0,0.4,0,0.6-0.1l0.2,0.5
				c-0.1,0.1-0.3,0.1-0.5,0.1C405.3,336.8,405.1,336.9,405,336.8 M404.7,335.2l0.9,0.1c0-0.1,0-0.2,0-0.3c-0.1-0.1-0.2-0.2-0.3-0.2
				c-0.1,0-0.2,0-0.3,0.1C404.8,334.9,404.7,335,404.7,335.2"/>
			<path id="Path_513_00000151524975647893384490000002001010034397113010_" class="st11" d="M407.6,337.2c-0.1,0-0.3,0-0.4-0.1
				c-0.1-0.1-0.2-0.1-0.3-0.2c0-0.1-0.1-0.2-0.1-0.3v-0.4l0.1-1l-0.3,0l0.1-0.6h0.4l0.2-0.6l0.6,0.1l-0.1,0.7l0.6,0.1l-0.1,0.6
				l-0.6-0.1l-0.1,1c0,0.1,0,0.3,0,0.3c0,0.1,0.1,0.1,0.2,0.1h0.3l0,0.6c-0.1,0-0.2,0-0.3,0C407.8,337.2,407.7,337.2,407.6,337.2"/>
			<path id="Path_514_00000065778860489563977850000011191837733244898448_" class="st11" d="M409.4,337.4c-0.2,0-0.3-0.1-0.5-0.1
				c-0.2-0.1-0.3-0.2-0.4-0.3l0.4-0.4c0.1,0.1,0.2,0.2,0.3,0.2c0.1,0,0.2,0.1,0.3,0.1c0.1,0,0.2,0,0.3,0c0,0,0.1-0.1,0.1-0.1
				c0,0,0-0.1,0-0.1c0,0,0-0.1-0.1-0.1s-0.1,0-0.2-0.1c0,0-0.1,0-0.2-0.1c-0.1,0-0.1-0.1-0.2-0.1c-0.1,0-0.2-0.1-0.2-0.2
				c0-0.1-0.1-0.1-0.1-0.2c0-0.1-0.1-0.2,0-0.3c0-0.1,0-0.2,0.1-0.3c0-0.1,0.1-0.2,0.2-0.2c0.1,0,0.2-0.1,0.3-0.1c0.1,0,0.3,0,0.4,0
				c0.2,0,0.4,0.1,0.5,0.2c0.1,0.1,0.2,0.2,0.3,0.3l-0.4,0.4c-0.1-0.1-0.2-0.1-0.3-0.2c-0.1,0-0.2-0.1-0.3-0.1c-0.2,0-0.3,0-0.3,0.2
				c0,0,0,0.1,0,0.1l0.1,0.1c0,0,0.1,0,0.1,0.1c0,0,0.1,0,0.2,0.1c0.1,0,0.1,0.1,0.2,0.1c0.1,0,0.2,0.1,0.2,0.2
				c0.1,0.1,0.1,0.1,0.1,0.2c0,0.1,0.1,0.2,0,0.3c0,0.1,0,0.2-0.1,0.3c0,0.1-0.1,0.2-0.2,0.2c-0.1,0.1-0.2,0.1-0.3,0.1
				C409.8,337.4,409.6,337.4,409.4,337.4"/>
			<path id="Path_515_00000127029821416225622850000005207131189408608164_" class="st11" d="M412.2,337.7c-0.2,0-0.3,0-0.5-0.1
				c-0.1-0.1-0.3-0.2-0.4-0.3c-0.1-0.1-0.2-0.3-0.3-0.4c-0.1-0.4-0.1-0.8,0.1-1.1c0.1-0.2,0.2-0.3,0.3-0.4c0.1-0.1,0.3-0.2,0.4-0.2
				c0.1-0.1,0.3-0.1,0.5,0c0.2,0,0.3,0,0.5,0.1c0.1,0.1,0.3,0.2,0.4,0.3c0.1,0.1,0.2,0.3,0.3,0.4c0.1,0.4,0.1,0.8-0.1,1.1
				c-0.1,0.2-0.2,0.3-0.3,0.4c-0.1,0.1-0.3,0.2-0.4,0.2C412.5,337.6,412.4,337.7,412.2,337.7 M412.3,337.1c0.1,0,0.3,0,0.3-0.2
				c0.1-0.2,0.1-0.3,0.2-0.5c0-0.2,0-0.4-0.1-0.5c-0.1-0.1-0.2-0.2-0.3-0.2c-0.1,0-0.3,0-0.3,0.2c-0.1,0.2-0.1,0.3-0.2,0.5
				c0,0.2,0,0.4,0.1,0.5C412,337,412.1,337,412.3,337.1"/>
			<path id="Path_516_00000065791590364781186290000003244597796680370079_" class="st11" d="M414.2,337.7l0.1-2.5l0.6,0l0,0.4
				c0.1-0.2,0.2-0.3,0.3-0.4c0.1-0.1,0.2-0.1,0.4-0.1h0.2c0,0,0.1,0,0.1,0l-0.2,0.6c0,0-0.1,0-0.1,0h-0.1c-0.1,0-0.2,0-0.3,0.1
				c-0.1,0.1-0.2,0.2-0.3,0.3l-0.1,1.4L414.2,337.7z"/>
			<path id="Path_517_00000081614339875931952950000002750862799695837826_" class="st11" d="M417.3,338.9c-0.1,0-0.3,0-0.4,0
				c-0.1,0-0.3,0-0.3-0.1c-0.1,0-0.2-0.1-0.2-0.2c-0.1-0.1-0.1-0.2-0.1-0.3c0-0.2,0.1-0.4,0.3-0.5c-0.1,0-0.1-0.1-0.2-0.2
				c-0.1-0.2-0.1-0.4,0-0.5c0-0.1,0.1-0.2,0.2-0.2c-0.1-0.1-0.2-0.1-0.2-0.3c0-0.1-0.1-0.3-0.1-0.4c0-0.1,0-0.3,0.1-0.4
				c0-0.1,0.1-0.2,0.2-0.3c0.1-0.1,0.2-0.1,0.3-0.2c0.1,0,0.3,0,0.4,0c0.1,0,0.3,0,0.4,0h0.9v0.6h-0.4c0,0,0,0.1,0,0.1
				c0,0,0,0.1,0,0.2c0,0.1,0,0.3-0.1,0.4c0,0.1-0.1,0.2-0.2,0.3c-0.1,0.1-0.2,0.1-0.3,0.2c-0.1,0-0.3,0-0.4,0c-0.1,0-0.2,0-0.3,0
				l-0.1,0.1v0.1c0,0.1,0,0.1,0.1,0.1c0,0,0.2,0,0.3,0h0.4c0.3,0,0.5,0,0.7,0.2c0.2,0.1,0.3,0.3,0.3,0.5c0,0.1,0,0.2-0.1,0.3
				c-0.1,0.1-0.2,0.2-0.3,0.3c-0.1,0.1-0.3,0.1-0.4,0.2C417.7,338.9,417.5,338.9,417.3,338.9 M417.4,338.4c0.1,0,0.3,0,0.4-0.1
				c0.1,0,0.2-0.1,0.2-0.2c0-0.1,0-0.1-0.1-0.2c0,0-0.2,0-0.3,0h-0.5c0,0-0.1,0-0.1,0c-0.1,0.1-0.1,0.2-0.1,0.3
				c0,0.1,0.1,0.2,0.2,0.2C417.1,338.4,417.3,338.4,417.4,338.4 M417.3,336.6c0.1,0,0.2,0,0.3-0.1c0.1-0.1,0.1-0.2,0.1-0.3
				c0-0.1,0-0.2-0.1-0.3c-0.1-0.1-0.1-0.1-0.3-0.1c-0.1,0-0.2,0-0.3,0.1c-0.1,0.1-0.1,0.2-0.1,0.3c0,0.1,0,0.2,0.1,0.3
				C417.2,336.6,417.2,336.6,417.3,336.6"/>
			<path id="Path_518_00000095302066856436073290000003909226157560984252_" class="st11" d="M419.9,337.9c-0.1,0-0.2,0-0.3,0
				c-0.1,0-0.2-0.1-0.3-0.2c-0.1-0.1-0.1-0.2-0.2-0.3c0-0.1,0-0.2,0-0.3c0-0.3,0.1-0.5,0.3-0.6c0.3-0.2,0.7-0.3,1.1-0.3
				c0-0.1,0-0.2-0.1-0.3c0-0.1-0.2-0.1-0.3-0.1c-0.1,0-0.2,0-0.3,0.1c-0.1,0-0.2,0.1-0.3,0.2l-0.3-0.5l0.5-0.3
				c0.2,0,0.4-0.1,0.6-0.1c0.3,0,0.5,0.1,0.7,0.3c0.2,0.2,0.3,0.5,0.3,0.8v1.4h-0.6l0-0.3c-0.1,0.1-0.2,0.2-0.3,0.2
				C420.1,337.9,420,337.9,419.9,337.9 M420.1,337.3c0.1,0,0.1,0,0.2,0c0,0,0.1-0.1,0.2-0.2v-0.4c-0.2,0-0.4,0.1-0.6,0.2
				c-0.1,0.1-0.2,0.2-0.1,0.3c0,0.1,0,0.1,0.1,0.2C420,337.3,420.1,337.3,420.1,337.3"/>
			<path id="Path_519_00000042010361771480789660000009920738516763311505_" class="st11" d="M422.1,337.8l-0.1-2.5l0.6,0l0.1,0.3
				c0.1-0.1,0.2-0.2,0.3-0.3c0.3-0.2,0.8-0.2,1,0.1c0.1,0.2,0.2,0.5,0.2,0.7l0.1,1.5l-0.7,0l0-1.4c0-0.1,0-0.3-0.1-0.4
				c0-0.1-0.1-0.1-0.3-0.1c-0.1,0-0.2,0-0.3,0.1c-0.1,0-0.1,0.1-0.2,0.2l0.1,1.7L422.1,337.8z"/>
			<path id="Path_520_00000159448160830914405800000014495516583644526015_" class="st11" d="M425.4,334.8c-0.1,0-0.2,0-0.3-0.1
				c-0.1-0.1-0.1-0.2-0.1-0.3c0-0.1,0-0.2,0.1-0.3c0.1-0.1,0.2-0.1,0.3-0.1c0.1,0,0.2,0,0.3,0.1c0.1,0.1,0.1,0.2,0.1,0.3
				c0,0.1,0,0.2-0.1,0.3C425.6,334.7,425.5,334.8,425.4,334.8 M425.2,337.7l-0.2-2.5l0.7,0l0.2,2.5L425.2,337.7z"/>
			<path id="Path_521_00000177447105233952917570000013345631389699545226_" class="st11" d="M427.6,337.5c-0.2,0-0.3,0-0.5,0
				c-0.2,0-0.3-0.1-0.5-0.2l0.3-0.5c0.1,0.1,0.2,0.1,0.3,0.2c0.1,0,0.2,0,0.3,0c0.1,0,0.2,0,0.3-0.1c0.1,0,0.1-0.1,0-0.2
				c0,0,0-0.1,0-0.1c0,0-0.1,0-0.1-0.1c0,0-0.1,0-0.2,0c-0.1,0-0.1,0-0.2,0c-0.1,0-0.2,0-0.3-0.1c-0.1,0-0.1-0.1-0.2-0.1
				c-0.1-0.1-0.1-0.1-0.2-0.2c0-0.1-0.1-0.2-0.1-0.3c0-0.1,0-0.2,0-0.3c0-0.1,0.1-0.2,0.2-0.3c0.1-0.1,0.2-0.1,0.3-0.2
				c0.1,0,0.3-0.1,0.4-0.1c0.2,0,0.3,0,0.5,0c0.1,0,0.3,0.1,0.4,0.2l-0.3,0.5c-0.1-0.1-0.2-0.1-0.3-0.1c-0.1,0-0.2,0-0.3,0
				c-0.2,0-0.3,0.1-0.3,0.2c0,0,0,0.1,0,0.1c0,0,0.1,0,0.1,0.1c0,0,0.1,0,0.2,0c0.1,0,0.1,0,0.2,0c0.1,0,0.2,0,0.3,0.1
				c0.1,0,0.1,0.1,0.2,0.1c0.1,0.1,0.1,0.1,0.2,0.2c0.1,0.1,0.1,0.2,0.1,0.3c0,0.1,0,0.2,0,0.3c0,0.1-0.1,0.2-0.2,0.3
				c-0.1,0.1-0.2,0.2-0.3,0.2C427.8,337.5,427.7,337.5,427.6,337.5"/>
			<path id="Path_522_00000144310491241977503950000008042377342340518304_" class="st11" d="M429.9,337.3c-0.1,0-0.2,0-0.3,0
				l-0.3-0.1c-0.1-0.1-0.1-0.1-0.2-0.2c-0.1-0.1-0.1-0.2-0.1-0.3c0-0.2,0.1-0.5,0.3-0.6c0.3-0.2,0.7-0.3,1-0.4c0-0.1,0-0.2-0.1-0.3
				c-0.1-0.1-0.2-0.1-0.3,0c-0.1,0-0.2,0-0.3,0.1c-0.1,0.1-0.2,0.1-0.3,0.2l-0.3-0.5c0.1-0.1,0.3-0.2,0.5-0.3
				c0.2-0.1,0.4-0.1,0.6-0.2c0.3,0,0.5,0,0.8,0.2c0.2,0.2,0.3,0.5,0.3,0.8l0.2,1.4l-0.6,0.1l-0.1-0.3c-0.1,0.1-0.2,0.2-0.3,0.3
				C430.2,337.2,430,337.3,429.9,337.3 M430.1,336.7c0.1,0,0.2,0,0.2-0.1c0,0,0.1-0.1,0.2-0.2l0-0.4c-0.2,0-0.4,0.1-0.5,0.2
				c-0.1,0.1-0.1,0.2-0.1,0.3c0,0.1,0,0.1,0.1,0.2C429.9,336.7,430,336.7,430.1,336.7"/>
			<path id="Path_523_00000079443840407024733300000003357797087948398987_" class="st11" d="M433,336.9c-0.1,0-0.3,0-0.4,0
				c-0.1,0-0.2-0.1-0.3-0.2c-0.1-0.1-0.2-0.2-0.2-0.3c0-0.1-0.1-0.3-0.1-0.4l-0.1-1l-0.3,0l-0.1-0.6l0.4-0.1v-0.7l0.6-0.1l0.1,0.6
				l0.6-0.1l0.1,0.6l-0.6,0.1l0.1,1c0,0.1,0.1,0.2,0.1,0.3c0.1,0.1,0.2,0.1,0.3,0c0,0,0.1,0,0.1,0c0,0,0.1,0,0.1,0l0.2,0.5
				c0,0-0.1,0-0.2,0.1C433.3,336.8,433.2,336.9,433,336.9"/>
			<path id="Path_524_00000148618798073372526130000011641005809093181092_" class="st11" d="M434.1,333.8c-0.1,0-0.2,0-0.3,0
				c-0.1-0.1-0.2-0.1-0.2-0.3c0-0.1,0-0.2,0.1-0.3c0.1-0.1,0.2-0.1,0.3-0.2c0.1,0,0.2,0,0.3,0c0.1,0.1,0.1,0.1,0.2,0.3
				c0,0.1,0,0.2-0.1,0.3C434.3,333.7,434.2,333.8,434.1,333.8 M434.2,336.7l-0.4-2.5l0.7-0.1l0.4,2.5L434.2,336.7z"/>
			<path id="Path_525_00000052790071780000380120000006497777151833282956_" class="st11" d="M436.9,336.3c-0.2,0-0.3,0-0.5,0
				c-0.3-0.1-0.6-0.2-0.8-0.5c-0.1-0.2-0.2-0.3-0.2-0.5c0-0.2,0-0.4,0-0.6c0-0.2,0.1-0.3,0.2-0.5c0.1-0.1,0.2-0.2,0.3-0.3
				c0.1-0.1,0.3-0.1,0.4-0.2c0.2,0,0.3,0,0.5,0c0.1,0,0.3,0.1,0.4,0.2c0.1,0.1,0.2,0.2,0.3,0.3c0.1,0.1,0.1,0.3,0.2,0.5
				c0,0.1,0,0.1,0,0.2v0.1l-1.5,0.3c0.1,0.2,0.2,0.3,0.3,0.3c0.1,0.1,0.3,0.1,0.4,0c0.2,0,0.4-0.1,0.5-0.3l0.3,0.4
				c-0.1,0.1-0.2,0.2-0.4,0.3C437.2,336.2,437,336.2,436.9,336.3 M436.1,334.8l0.9-0.2c0-0.1-0.1-0.2-0.2-0.3
				c-0.1-0.1-0.2-0.1-0.3-0.1c-0.1,0-0.2,0.1-0.3,0.2C436.1,334.5,436,334.7,436.1,334.8"/>
			<path id="Path_526_00000026843479095940750740000009155104041688595892_" class="st11" d="M324.8,260.1l2.7-0.5l-0.2-0.9l0.6-0.1
				l0.5,2.5l-0.6,0.1l-0.1-0.9l-2.7,0.5L324.8,260.1z"/>
			<path id="Path_527_00000031898258978029807010000002417222739006414262_" class="st11" d="M325.4,263.2c0-0.2,0-0.3,0-0.5
				c0.1-0.3,0.2-0.6,0.5-0.8c0.2-0.1,0.4-0.2,0.6-0.2c0.2,0,0.4,0,0.6,0c0.2,0,0.3,0.1,0.5,0.2c0.1,0.1,0.2,0.2,0.3,0.3
				c0.1,0.1,0.1,0.3,0.2,0.4c0,0.2,0,0.3,0,0.5c0,0.2-0.1,0.3-0.2,0.4c-0.1,0.1-0.2,0.2-0.3,0.3c-0.2,0.1-0.4,0.2-0.6,0.2
				c-0.2,0-0.4,0-0.6,0c-0.2,0-0.3-0.1-0.5-0.2c-0.1-0.1-0.2-0.2-0.3-0.3C325.4,263.5,325.4,263.3,325.4,263.2 M325.9,263
				c0,0.1,0.1,0.3,0.3,0.3c0.2,0,0.4,0,0.6,0c0.2,0,0.4-0.1,0.5-0.2c0.1-0.1,0.2-0.2,0.1-0.4c0-0.1-0.1-0.3-0.3-0.3
				c-0.2,0-0.4,0-0.6,0c-0.2,0-0.4,0.1-0.5,0.2C326,262.7,325.9,262.9,325.9,263"/>
			<path id="Path_528_00000092456521979775655270000002569874898108205706_" class="st11" d="M326,266.2c0-0.2,0-0.3,0-0.5
				c0-0.2,0.1-0.3,0.2-0.5c0.1-0.1,0.2-0.3,0.3-0.4c0.2-0.1,0.3-0.2,0.5-0.2c0.2,0,0.4,0,0.6,0c0.2,0,0.3,0.1,0.5,0.2
				c0.1,0.1,0.2,0.2,0.3,0.3c0.1,0.1,0.2,0.3,0.2,0.4c0,0.2,0,0.3,0,0.5c0,0.1-0.1,0.3-0.2,0.4c-0.1,0.1-0.2,0.2-0.3,0.3
				c-0.1,0.1-0.3,0.1-0.5,0.2c-0.1,0-0.1,0-0.2,0h-0.1l-0.4-1.5c-0.2,0.1-0.3,0.2-0.3,0.3c0,0.2,0,0.3,0,0.5
				c0.1,0.2,0.2,0.4,0.3,0.5l-0.4,0.3c-0.1-0.1-0.2-0.2-0.3-0.4C326.1,266.5,326.1,266.4,326,266.2 M327.5,265.3l0.2,0.9
				c0.1,0,0.3-0.1,0.3-0.2c0.1-0.1,0.1-0.2,0-0.3c0-0.1-0.1-0.2-0.2-0.3C327.8,265.3,327.6,265.2,327.5,265.3"/>
			<path id="Path_529_00000100361220476573097310000001605112219508953011_" class="st11" d="M326.8,268.8c0-0.1,0-0.3,0-0.4
				c0-0.1,0-0.2,0.1-0.3c0.1-0.1,0.2-0.2,0.3-0.2c0.1-0.1,0.2-0.1,0.4-0.2l1-0.3l-0.1-0.3l0.6-0.2l0.1,0.4l0.7-0.1l0.2,0.6l-0.6,0.2
				l0.2,0.6l-0.6,0.2l-0.2-0.6l-1,0.3c-0.1,0-0.2,0.1-0.3,0.2c0,0.1,0,0.2,0,0.3c0,0,0,0.1,0,0.1c0,0,0,0.1,0.1,0.1l-0.5,0.3
				c-0.1-0.1-0.1-0.1-0.1-0.2C326.8,269,326.8,268.9,326.8,268.8"/>
			<path id="Path_530_00000159428661341975970910000005381457243446609822_" class="st11" d="M327.3,270.7c-0.1-0.2-0.1-0.3,0-0.5
				c0-0.2,0-0.4,0.1-0.5l0.6,0.2c0,0.1-0.1,0.3-0.1,0.4c0,0.1,0,0.2,0,0.3c0,0.1,0.1,0.2,0.1,0.2c0,0,0.1,0,0.2,0c0,0,0.1,0,0.1-0.1
				c0,0,0-0.1,0-0.1c0-0.1,0-0.1,0-0.2v-0.2c0-0.1,0-0.2,0-0.3c0-0.1,0-0.2,0.1-0.3c0-0.1,0.1-0.2,0.2-0.2c0.1,0,0.1-0.1,0.3-0.1
				c0.1,0,0.2,0,0.3,0c0.1,0,0.2,0,0.3,0.1c0.1,0.1,0.2,0.1,0.3,0.3c0.1,0.1,0.1,0.2,0.2,0.4c0.1,0.2,0.1,0.3,0,0.5
				c0,0.1,0,0.3-0.1,0.4l-0.6-0.2c0-0.1,0.1-0.2,0.1-0.3c0-0.1,0-0.2,0-0.3c0-0.2-0.1-0.3-0.3-0.2c0,0-0.1,0-0.1,0.1
				c0,0,0,0.1,0,0.1v0.4c0,0.1,0,0.2,0,0.3c0,0.1,0,0.2-0.1,0.3c0,0.1-0.1,0.2-0.2,0.2c-0.1,0.1-0.2,0.1-0.3,0.1c-0.1,0-0.2,0-0.3,0
				c-0.1,0-0.2,0-0.3-0.1l-0.3-0.3C327.4,271,327.3,270.8,327.3,270.7"/>
			<path id="Path_531_00000096758033097302332590000002680452296516395686_" class="st11" d="M328.2,273.6c0-0.1,0-0.2,0-0.3
				c0-0.1,0-0.3,0.1-0.4l-0.3,0l-0.2-0.6l3.4-1.1l0.3,0.7l-0.8,0.3l-0.4,0.1c0.1,0.1,0.2,0.1,0.3,0.3c0.1,0.1,0.1,0.2,0.2,0.3
				c0.1,0.1,0.1,0.3,0,0.4c0,0.1-0.1,0.3-0.1,0.4c-0.1,0.1-0.2,0.2-0.3,0.3c-0.2,0.1-0.3,0.2-0.5,0.3c-0.2,0.1-0.4,0.1-0.6,0.1
				c-0.2,0-0.3,0-0.5-0.1c-0.1-0.1-0.3-0.1-0.4-0.3C328.4,273.9,328.3,273.8,328.2,273.6 M328.8,273.2c0,0.1,0.1,0.2,0.3,0.3
				c0.2,0,0.4,0,0.6,0c0.4-0.1,0.6-0.4,0.5-0.6c-0.1-0.2-0.2-0.3-0.3-0.3l-1,0.3c0,0.1,0,0.2,0,0.3
				C328.7,273.1,328.7,273.2,328.8,273.2"/>
			<path id="Path_532_00000060028658959858685620000018151011996144637062_" class="st11" d="M329.3,276.4c-0.1-0.2-0.1-0.3-0.1-0.5
				c0-0.2,0-0.3,0.1-0.5c0.1-0.2,0.2-0.3,0.3-0.4c0.1-0.1,0.3-0.2,0.5-0.3c0.2-0.1,0.4-0.1,0.6-0.1c0.2,0,0.3,0,0.5,0.1
				c0.2,0,0.3,0.2,0.4,0.3c0.1,0.1,0.2,0.2,0.3,0.4c0,0.2,0.1,0.3,0.1,0.5c0,0.2,0,0.3-0.1,0.4c-0.1,0.1-0.2,0.2-0.3,0.3
				c-0.1,0.1-0.3,0.2-0.4,0.2c-0.1,0-0.1,0-0.2,0c0,0-0.1,0-0.1,0l-0.6-1.4c-0.1,0.1-0.3,0.2-0.3,0.3c0,0.2,0,0.3,0,0.5
				c0.1,0.2,0.2,0.3,0.3,0.5l-0.3,0.4c-0.1-0.1-0.2-0.2-0.3-0.3C329.5,276.7,329.3,276.5,329.3,276.4 M330.6,275.3l0.3,0.8
				c0.1,0,0.2-0.1,0.3-0.2c0.1-0.1,0.1-0.2,0-0.3c0-0.1-0.1-0.2-0.2-0.3C330.9,275.3,330.7,275.3,330.6,275.3"/>
			<path id="Path_533_00000042705379856541576520000013926500661017844152_" class="st11" d="M329.9,278l3.3-1.4l0.3,0.7l-1.9,0.8
				l1.2,0.4l0.3,0.8l-1.3-0.4l-1,1.4l-0.3-0.8l0.7-0.9l-0.5-0.2l-0.6,0.3L329.9,278z"/>
			<path id="Path_534_00000108309392296992643610000002634551162181212331_" class="st11" d="M331.3,281.3l2-1.7l0.3,0.7l-1,0.7
				c-0.1,0.1-0.2,0.1-0.3,0.2c-0.1,0.1-0.2,0.2-0.3,0.2c0.1,0,0.3-0.1,0.4-0.1c0.1,0,0.3,0,0.4-0.1l1.2-0.3l0.3,0.6l-1,0.8
				c-0.2,0.1-0.4,0.3-0.6,0.4c0.1,0,0.3-0.1,0.4-0.1c0.1,0,0.3-0.1,0.4-0.1l1.2-0.3l0.3,0.6l-2.6,0.5l-0.4-0.8l0.8-0.6
				c0.1-0.1,0.2-0.1,0.3-0.2c0.1-0.1,0.2-0.2,0.3-0.2c-0.1,0-0.3,0.1-0.4,0.1c-0.1,0-0.3,0-0.3,0.1l-1,0.2L331.3,281.3z"/>
			<path id="Path_535_00000168839589677864581950000009594551018782451637_" class="st11" d="M333.1,285.3c0-0.1-0.1-0.2-0.1-0.3
				c0-0.1,0-0.2,0-0.3c0.1-0.2,0.2-0.3,0.4-0.4c0.2-0.1,0.5-0.1,0.7,0c0.3,0.2,0.6,0.5,0.8,0.8c0.1,0,0.2-0.1,0.2-0.2
				c0-0.1,0-0.2,0-0.3c-0.1-0.1-0.1-0.2-0.2-0.3c-0.1-0.1-0.2-0.2-0.3-0.3l0.3-0.5c0.2,0.1,0.3,0.2,0.5,0.3c0.1,0.1,0.3,0.3,0.3,0.5
				c0.1,0.2,0.2,0.5,0.1,0.8c-0.1,0.3-0.3,0.4-0.7,0.6l-1.3,0.6l-0.3-0.6l0.2-0.2c-0.1-0.1-0.3-0.1-0.4-0.2
				C333.3,285.6,333.2,285.4,333.1,285.3 M333.7,285.3c0,0.1,0.1,0.1,0.2,0.2c0.1,0.1,0.1,0.1,0.2,0.1l0.4-0.2
				c-0.1-0.2-0.2-0.3-0.4-0.4c-0.1,0-0.2-0.1-0.3,0c-0.1,0-0.1,0.1-0.1,0.2C333.7,285.1,333.7,285.2,333.7,285.3"/>
			<path id="Path_536_00000035507452308069352080000011325697427756544422_" class="st11" d="M334.5,287.9c0-0.1-0.1-0.2-0.1-0.3
				c0-0.1,0-0.2,0-0.3l0.1-0.3c0.1-0.1,0.2-0.2,0.3-0.2c0.2-0.1,0.5-0.1,0.7,0c0.3,0.2,0.6,0.5,0.8,0.8c0.1,0,0.2-0.1,0.2-0.2
				c0-0.1,0-0.2,0-0.3c-0.1-0.1-0.1-0.2-0.2-0.3c-0.1-0.1-0.2-0.2-0.3-0.2l0.3-0.5c0.2,0.1,0.3,0.2,0.5,0.3c0.1,0.1,0.3,0.3,0.3,0.5
				c0.2,0.2,0.2,0.5,0.1,0.8c-0.1,0.3-0.3,0.5-0.6,0.6l-1.3,0.7l-0.3-0.6l0.2-0.2c-0.1-0.1-0.3-0.1-0.4-0.2
				C334.6,288.2,334.5,288,334.5,287.9 M335.1,287.8c0,0.1,0.1,0.1,0.2,0.2c0.1,0.1,0.1,0.1,0.2,0.1l0.4-0.2
				c-0.1-0.2-0.3-0.3-0.4-0.4c-0.1,0-0.2,0-0.3,0c-0.1,0-0.1,0.1-0.1,0.2C335,287.7,335,287.8,335.1,287.8"/>
			<path id="Path_537_00000165193354668559331270000005421153286030832055_" class="st11" d="M335.6,289.9l2.2-1.3l0.3,0.6l-0.3,0.2
				c0.1,0,0.3,0.1,0.4,0.2c0.1,0.1,0.2,0.2,0.3,0.3c0.1,0.1,0.1,0.3,0.1,0.4c0,0.1,0,0.3-0.1,0.4c0.2,0,0.3,0.1,0.4,0.2
				c0.1,0.1,0.3,0.2,0.3,0.3c0.1,0.2,0.2,0.5,0.1,0.7c-0.1,0.2-0.3,0.4-0.6,0.6l-1.4,0.8l-0.4-0.6l1.3-0.8c0.1,0,0.2-0.1,0.3-0.3
				c0-0.1,0-0.2,0-0.3c-0.1-0.1-0.3-0.2-0.4-0.3l-1.5,0.9l-0.4-0.6l1.3-0.8c0.1,0,0.2-0.1,0.3-0.3c0-0.1,0-0.2,0-0.3
				c-0.1-0.1-0.3-0.2-0.4-0.3l-1.5,0.9L335.6,289.9z"/>
			<path id="Path_538_00000028289040003690112950000001871837960576855704_" class="st11" d="M338,293.9l3-1.9l0.4,0.6l-0.8,0.5
				l-0.4,0.2c0.1,0,0.3,0.1,0.4,0.2c0.1,0.1,0.3,0.2,0.3,0.3c0.1,0.2,0.2,0.4,0.1,0.6c-0.1,0.2-0.3,0.4-0.6,0.6l-1.3,0.8l-0.4-0.6
				l1.2-0.8c0.1,0,0.2-0.1,0.3-0.3c0-0.1,0-0.2,0-0.3c0-0.1-0.1-0.1-0.2-0.2c-0.1-0.1-0.2-0.1-0.3-0.1l-1.4,0.9L338,293.9z"/>
			<path id="Path_539_00000175306653267657909170000001663363428767979397_" class="st11" d="M340.3,297.5c-0.1-0.1-0.2-0.3-0.2-0.5
				c0-0.2,0-0.3,0-0.5c0-0.2,0.1-0.3,0.2-0.5c0.1-0.2,0.3-0.3,0.4-0.4c0.1-0.1,0.3-0.2,0.5-0.2c0.2,0,0.3,0,0.5,0
				c0.2,0,0.3,0.1,0.4,0.2c0.1,0.1,0.2,0.2,0.3,0.3c0.1,0.1,0.1,0.3,0.2,0.4c0,0.1,0,0.3,0,0.4c-0.1,0.1-0.1,0.3-0.2,0.4
				c-0.1,0.1-0.2,0.2-0.4,0.3c0,0-0.1,0.1-0.2,0.1c0,0-0.1,0-0.1,0l-0.8-1.3c-0.1,0.1-0.2,0.3-0.2,0.4c0,0.2,0,0.3,0.1,0.4
				c0.1,0.2,0.3,0.3,0.5,0.3l-0.2,0.5c-0.2-0.1-0.3-0.1-0.4-0.3C340.5,297.8,340.4,297.7,340.3,297.5 M341.3,296.1l0.5,0.8
				c0.1-0.1,0.2-0.2,0.2-0.3c0-0.1,0-0.2-0.1-0.3c-0.1-0.1-0.2-0.2-0.3-0.2C341.5,296,341.4,296.1,341.3,296.1"/>
			<path id="Path_540_00000174584716362799758060000001665708770320631184_" class="st11" d="M341.4,298.9l2.1-1.5l0.4,0.6l-2.1,1.5
				L341.4,298.9z M344,297.5c-0.1-0.1-0.1-0.2-0.1-0.3c0-0.1,0.1-0.2,0.2-0.3c0.1-0.1,0.2-0.1,0.3-0.1c0.1,0,0.2,0.1,0.3,0.2
				c0.1,0.1,0.1,0.2,0.1,0.3c0,0.1-0.1,0.2-0.2,0.3c-0.1,0.1-0.2,0.1-0.3,0.1C344.1,297.6,344,297.6,344,297.5"/>
			<path id="Path_541_00000095305013924239982280000012237375881512326585_" class="st11" d="M342.8,301c-0.1-0.1-0.1-0.2-0.2-0.4
				c0-0.1,0-0.3,0-0.4c0-0.2,0.1-0.3,0.2-0.4c0.1-0.1,0.2-0.3,0.4-0.4c0.2-0.1,0.3-0.2,0.5-0.3c0.2,0,0.3-0.1,0.5-0.1
				c0.2,0,0.3,0,0.4,0.1c0.1,0.1,0.2,0.2,0.3,0.3c0.1,0.1,0.1,0.2,0.2,0.3c0,0.1,0,0.2,0,0.3l0.3-0.3l0.7-0.5l0.5,0.6l-2.8,2.2
				l-0.4-0.5l0.2-0.2c-0.1,0-0.3,0-0.4-0.1C343,301.2,342.9,301.1,342.8,301 M343.4,300.8c0,0.1,0.1,0.1,0.2,0.1c0.1,0,0.2,0,0.3,0
				l0.8-0.6c0-0.1,0-0.2,0-0.3c0-0.1,0-0.1-0.1-0.2c-0.1-0.1-0.2-0.1-0.3-0.1c-0.2,0-0.4,0.1-0.5,0.2c-0.2,0.1-0.3,0.3-0.4,0.4
				C343.3,300.5,343.4,300.7,343.4,300.8"/>
			<path id="Path_542_00000101100906094712993340000007239859598262759818_" class="st6" d="M416.8,206.8l0.3-54.2l0.9,0l0.2,54.4
				L416.8,206.8z"/>
			<path id="Path_543_00000002348397884495501520000018375112684302809015_" class="st6" d="M451.1,231l51.5-16.7l0.3,0.8
				l-51.6,17.3L451.1,231z"/>
			<path id="Path_544_00000058563325306080148100000002451944994497749156_" class="st6" d="M384.4,231l-51.5-16.7l-0.3,0.8
				l51.6,17.3L384.4,231z"/>
			<path id="Path_545_00000109731017409827577110000001840355097338894469_" class="st6" d="M396.7,270.1l-31.5,44.1l0.7,0.6
				l32-43.9L396.7,270.1z"/>
			<path id="Path_546_00000014597619607004219490000008963900247204596158_" class="st6" d="M438.6,270.1l31.4,44.1l-0.7,0.6
				l-32-43.9L438.6,270.1z"/>
			
				<rect id="Rectangle_579_00000068652249281915506290000007889707191762570421_" x="54.8" y="131.2" class="st12" width="243.8" height="216.5"/>
			<g id="Group_176_00000052090093772358620190000010590910203321216392_" transform="translate(35.344 48.327)" class="st13">
				<g id="Group_175_00000126313116600179742420000002799192231544905385_">
					<g>
						<defs>
							<rect id="SVGID_00000047765081087842026630000016951094253801302451_" x="19.5" y="82.9" width="243.8" height="25.3"/>
						</defs>
						<clipPath id="SVGID_00000098179979346238146390000003585430340965002649_">
							<use xlink:href="#SVGID_00000047765081087842026630000016951094253801302451_"  style="overflow:visible;"/>
						</clipPath>
						
							<g id="Group_174_00000176730726718498957500000011778789976929840549_" style="clip-path:url(#SVGID_00000098179979346238146390000003585430340965002649_);">
							
								<rect id="Rectangle_580_00000072977939478609701140000017713096672680339328_" x="19.5" y="82.9" class="st15" width="243.8" height="25.3"/>
						</g>
					</g>
				</g>
			</g>
			<g id="Group_179_00000013160493895610660720000014774081931143776685_" transform="translate(43.754 84.112)" class="st13">
				<g id="Group_178_00000056413816478667212880000007198473039866163590_">
					<g>
						<defs>
							<rect id="SVGID_00000040533420866319157510000000310686761890076316_" x="19.5" y="82.9" width="225" height="36.8"/>
						</defs>
						<clipPath id="SVGID_00000114763348172211601110000012988677452807193226_">
							<use xlink:href="#SVGID_00000040533420866319157510000000310686761890076316_"  style="overflow:visible;"/>
						</clipPath>
						
							<g id="Group_177_00000082352913020397289740000012859349151432694938_" style="clip-path:url(#SVGID_00000114763348172211601110000012988677452807193226_);">
							
								<rect id="Rectangle_582_00000018939930618457467620000015488838543728170636_" x="19.5" y="82.9" class="st15" width="225" height="36.8"/>
						</g>
					</g>
				</g>
			</g>
			<g id="Group_182_00000094575726466950344790000002413887396525969578_" transform="translate(123.934 131.304)" class="st13">
				<g id="Group_181_00000151543617197550410760000008629404040469158027_">
					<g>
						<defs>
							<rect id="SVGID_00000148649590772286168720000006190821905088632460_" x="19.5" y="82.9" width="144.8" height="9.4"/>
						</defs>
						<clipPath id="SVGID_00000000917853325216230720000005680593340078418089_">
							<use xlink:href="#SVGID_00000148649590772286168720000006190821905088632460_"  style="overflow:visible;"/>
						</clipPath>
						
							<g id="Group_180_00000119799129058808362220000003112094629055151525_" style="clip-path:url(#SVGID_00000000917853325216230720000005680593340078418089_);">
							
								<rect id="Rectangle_584_00000042696566127583591430000001966813750534822307_" x="19.5" y="82.9" class="st15" width="144.8" height="9.4"/>
						</g>
					</g>
				</g>
			</g>
			<g id="Group_185_00000036221415090107974250000006303852234262179262_" transform="translate(43.754 131.304)" class="st13">
				<g id="Group_184_00000049937942006416999730000012493831293997437861_">
					<g>
						<defs>
							<rect id="SVGID_00000153671087360902474540000017180241215903294138_" x="19.5" y="82.9" width="71.2" height="108.7"/>
						</defs>
						<clipPath id="SVGID_00000145761736060735897090000015669371225852207535_">
							<use xlink:href="#SVGID_00000153671087360902474540000017180241215903294138_"  style="overflow:visible;"/>
						</clipPath>
						
							<g id="Group_183_00000069372674626998012820000010646351299415470506_" style="clip-path:url(#SVGID_00000145761736060735897090000015669371225852207535_);">
							
								<rect id="Rectangle_586_00000010295636670724790100000000965252311899283842_" x="19.5" y="82.9" class="st15" width="71.2" height="108.7"/>
						</g>
					</g>
				</g>
			</g>
			<g id="Group_188_00000140698654973275514540000010353389042932811945_" transform="translate(123.934 151.163)" class="st13">
				<g id="Group_187_00000023277652476289994110000003941077703142584455_">
					<g>
						<defs>
							<rect id="SVGID_00000140731853290602255100000008553773530754955960_" x="19.5" y="82.9" width="144.8" height="9.4"/>
						</defs>
						<clipPath id="SVGID_00000035525212436357374790000014953301562018518154_">
							<use xlink:href="#SVGID_00000140731853290602255100000008553773530754955960_"  style="overflow:visible;"/>
						</clipPath>
						
							<g id="Group_186_00000174561209954435909640000010127484097326284683_" style="clip-path:url(#SVGID_00000035525212436357374790000014953301562018518154_);">
							
								<rect id="Rectangle_588_00000091010776212681135280000006243105956464955293_" x="19.5" y="82.9" class="st15" width="144.8" height="9.4"/>
						</g>
					</g>
				</g>
			</g>
			<g id="Group_191_00000130618555317704863940000014315703217826119830_" transform="translate(123.934 210.739)" class="st13">
				<g id="Group_190_00000049198354050946378830000006701929025218283921_">
					<g>
						<defs>
							<rect id="SVGID_00000071519144232727191530000012956383828140109207_" x="19.5" y="82.9" width="144.8" height="9.4"/>
						</defs>
						<clipPath id="SVGID_00000106857730894927999710000009851199274968161935_">
							<use xlink:href="#SVGID_00000071519144232727191530000012956383828140109207_"  style="overflow:visible;"/>
						</clipPath>
						
							<g id="Group_189_00000159432217727680350250000015789172084019181959_" style="clip-path:url(#SVGID_00000106857730894927999710000009851199274968161935_);">
							
								<rect id="Rectangle_590_00000036249305502288649820000003441460985001919909_" x="19.5" y="82.9" class="st15" width="144.8" height="9.4"/>
						</g>
					</g>
				</g>
			</g>
			<g id="Group_194_00000143598923780277071130000012896108275632184192_" transform="translate(123.934 230.598)" class="st13">
				<g id="Group_193_00000169525831390840787530000016717613219247485616_">
					<g>
						<defs>
							<rect id="SVGID_00000119104237552506873650000007221001718519363732_" x="19.5" y="82.9" width="144.8" height="9.4"/>
						</defs>
						<clipPath id="SVGID_00000106861763330937300560000015661572397471904924_">
							<use xlink:href="#SVGID_00000119104237552506873650000007221001718519363732_"  style="overflow:visible;"/>
						</clipPath>
						
							<g id="Group_192_00000119805531716900008120000015035918631105892497_" style="clip-path:url(#SVGID_00000106861763330937300560000015661572397471904924_);">
							
								<rect id="Rectangle_592_00000062152196449648781070000001282382209268704402_" x="19.5" y="82.9" class="st15" width="144.8" height="9.4"/>
						</g>
					</g>
				</g>
			</g>
			<path id="Path_547_00000163774988593532735630000008826849916295089057_" class="st22" d="M203.6,463.4c0,0-1.2,8.6-3.4,11.4
				c-1.1,1.2-2.1,2.4-2.9,3.8c-1.3,2.6-0.6,6.5,0.4,8.7c0.5,1.1,0,1.1,1.1,1.5c3.4,1,7-0.7,8.4-4c1-2.3,1.6-4.8,1.7-7.3
				c0.4-7.8,2.8-11.8,2.8-11.8L203.6,463.4z"/>
			<path id="Path_548_00000012466014526978694420000009101144119699218050_" class="st22" d="M240.7,467.4c0,0,0.8,9.7,0.1,12.8
				c-0.3,1.7-2.2,5.2-1.3,6.7c0.4,0.8,1,1.5,1.8,2l21.9,0.4c1.2,0,0.4-0.8-0.6-1.5c-1.6-1.2-2.8-1.9-7.9-4.4c-0.3-0.2-1.5-0.9-2-1.2
				c-1.2-0.8-2.2-1.7-3.1-2.8c-1.6-1.8-1.7-10.3-1.7-10.3L240.7,467.4z"/>
			<path id="Path_549_00000134214886280673037920000002651114770229366172_" class="st23" d="M257.8,338.5c0,0,2.8,15.7,0.9,26.1
				c-1.8,10.3-10.5,106-10.5,106l-9.7,0.5c0,0-2-40-1.7-45.5c0.4-5.6,3.2-14.9,3.2-14.9l-1-32.3l12.2-42.4L257.8,338.5z"/>
			<path id="Path_550_00000147918846253480356610000011538426549314188161_" class="st23" d="M229.4,335.2c0,0-7.6,11.5-9.4,21
				c-1.8,9.5,1.3,38.8-2.2,51.3c-1.9,6.8-9,17.2-10.1,25.9s-5.3,31.6-5.3,31.6l9.7,1.9l22.4-57.1l17.6-51.6l4.5-26.6L229.4,335.2z"
				/>
			<path id="Path_551_00000000224396346135272020000010119110520368831133_" class="st24" d="M207.9,483c-5.3,1-8.8-2.1-10.6-4.4
				c-1.3,2.6-2,6.5-1,8.7c0.9,1.9,3.4,1.8,5.4,1.9c2,0,3.9-1.1,4.8-2.9C207.1,485.2,207.6,484.1,207.9,483"/>
			<path id="Path_552_00000057829402607298340810000011821538021174931643_" class="st24" d="M252.8,482.3c-4.1,1.2-8.5,1-12.5-0.5
				c-0.6,1.8-1.4,4-1,5.2c0.5,1.6,1.3,1.9,2,1.9c5.3,0.1,19.4,0.3,23.4,0.4c0.4,0,0.7-0.3,0.7-0.7c0-0.2-0.1-0.3-0.2-0.4
				C264.2,487,253.2,482.5,252.8,482.3"/>
			<path id="Path_553_00000137134288589993976280000007501532755266304425_" class="st22" d="M292.4,311.3c0.4-0.9-3.9-2-4-2.9
				c-0.1-0.9,5.6-0.4,5.9-1.2c0.5-1.4-6.2-1-6-1.6c0.2-0.7,7.1-1.5,6.5-2.7c-0.6-1.2-7.1,1.6-7.2,0.8c-0.1-0.8,6.3-2.1,6.3-3.9
				c0-0.9-10.6,3.6-11.7,3c-1.1-0.6,1.8-4.7,0.9-5.5c-0.9-0.7-4.6,7.9-5.3,8.1c-0.7,0.3-15.3,4.7-20.2,5.4
				c-0.4-1.7-4.2-10.9-4.5-12.5c-2.9,1.6-6.6-0.3-9.6,1.1c1.5,5.3,4.9,22.7,6.2,23.5c4.1,2.4,25.7-9,29.3-11c3.6-2,5.4-1.1,7.7-1.6
				C289,309.8,292,312.2,292.4,311.3"/>
			<path id="Path_554_00000112606185185253290380000017018960249947160735_" class="st25" d="M254,259.9c1.1-4.9,2.1-9.9-0.7-15.3
				c-2.2-4.2-6.3-7-11-7.5c-13.1-1.6-10.3,10.7-28.7,13.4c-5.7,0.8-11,1.6-15.8,4.5c-8.6,5.1-11.8,13.3-6.1,26.7
				c14,32.8,47.4,4.3,52.5-1.5C249.3,274.4,253.3,263.1,254,259.9"/>
			<path id="Path_555_00000173137064951646098300000006034581186417803941_" class="st26" d="M233.3,275.5c0,0-6.6,0.8-10.6,5.1
				c-4,4.3,6.4,39,7.1,44.5c0.7,5.5-6.9,20.7-6.9,20.7s25.9,5.1,32.6,0.7c0,0,0.6-42.4-0.1-46.4c-0.7-3.9-6.7-19.9-8.2-21.4
				C245.9,277.1,233.3,275.5,233.3,275.5"/>
			<path id="Path_556_00000119113986467916243160000004542152653230672302_" class="st22" d="M236.7,262.1c0,0-0.1,0.3-0.1,0.8
				c-0.4,2.4-2.2,10.4-3.3,12.6c-1.4,2.7,4.8,11.1,10.8,10.1c1.8-0.3-1.5-7.8-1.3-8.6c0.3-1.5,0.7-3.6,1.1-5.7
				c0.2-1.2,0.5-2.4,0.7-3.5c0.6-3.2,1.2-5.9,1.2-5.9L236.7,262.1z"/>
			<g id="Group_197_00000145042993393358222260000016724057493003059105_" transform="translate(216.793 179.063)" class="st9">
				<g id="Group_196_00000138535482135681928630000007981387336426229380_">
					<g>
						<defs>
							<rect id="SVGID_00000016039968673771016940000013188924262711390384_" x="19.5" y="82.9" width="9.4" height="9.4"/>
						</defs>
						<clipPath id="SVGID_00000173841429978835570390000005902812272228255142_">
							<use xlink:href="#SVGID_00000016039968673771016940000013188924262711390384_"  style="overflow:visible;"/>
						</clipPath>
						
							<g id="Group_195_00000133506849175634483930000004003007390167222916_" style="clip-path:url(#SVGID_00000173841429978835570390000005902812272228255142_);">
							<path id="Path_557_00000040550307172273887840000002184329328108661666_" class="st28" d="M19.7,83.9
								c0.1-0.5,0.1-0.8,0.1-0.8l9-0.2c0,0-0.5,2.6-1.2,5.9L27,92.3c-1.6-0.3-3.1-1-4.3-2.1c-1.5-1.3-2.6-3-3.2-4.8
								C19.6,84.7,19.7,84.2,19.7,83.9"/>
						</g>
					</g>
				</g>
			</g>
			<path id="Path_558_00000149364602596155159840000008393138470153513860_" class="st22" d="M242.1,240.8c-2.5,0.5-4.7,1.9-6.3,3.9
				c-2.6,3.4-5.5,14,1.1,19.7c6.6,5.7,13.1-0.8,14-7.7C251.9,249.9,251.7,240.6,242.1,240.8"/>
			<path id="Path_559_00000098219108656031801980000015841329531329402247_" class="st22" d="M252.8,255.1c-0.4,1.7-1.5,2.8-2.4,2.5
				c-0.9-0.3-1.3-1.9-0.9-3.5c0.4-1.7,1.5-2.8,2.4-2.5C252.8,251.9,253.2,253.5,252.8,255.1"/>
			<path id="Path_560_00000102546700074995740550000010832246269675621558_" class="st25" d="M246.1,240.9c0,0-8.6,9.9-12.6,10.3
				c-4,0.5-4.6,5.8-4.6,5.8s1.4-12.3,5.4-14.7C238.4,239.9,246.1,240.9,246.1,240.9"/>
			<path id="Path_561_00000153680067529043407080000001253163450679321991_" class="st22" d="M234.8,253.6c0.3,1.8-0.3,3.4-1.5,3.7
				c-1.1,0.2-2.3-1-2.7-2.8c-0.3-1.8,0.3-3.4,1.5-3.7C233.3,250.5,234.5,251.8,234.8,253.6"/>
			<path id="Path_562_00000106120227444284114710000003460410431473125795_" class="st4" d="M234.7,303.7l27.8,4.1
				c0.8,0.1,1.4,0.9,1.3,1.7c0,0,0,0,0,0l-5.4,37c-0.1,0.8-0.9,1.4-1.7,1.3c0,0,0,0,0,0l-27.8-4.1c-0.8-0.1-1.4-0.9-1.3-1.7l5.4-37
				C233.1,304.1,233.9,303.5,234.7,303.7C234.7,303.7,234.7,303.7,234.7,303.7"/>
			<path id="Path_563_00000157308905407626618770000005617482133597946018_" class="st29" d="M255.4,305.5c0-0.2-0.1-0.3-0.3-0.4
				l-11.6-1.7c-0.2,0-0.3,0.1-0.4,0.3l-0.2,1.2l12.2,1.8L255.4,305.5z"/>
			<path id="Path_564_00000075877787394484182450000001356265854598002078_" class="st29" d="M249.6,302.8c-1-0.1-1.9,0.6-2.1,1.6
				c-0.1,1,0.6,1.9,1.6,2.1c1,0.1,1.9-0.6,2.1-1.6C251.3,303.9,250.6,302.9,249.6,302.8C249.6,302.8,249.6,302.8,249.6,302.8
				 M249.1,305.8c-0.6-0.1-1.1-0.7-1-1.3s0.7-1.1,1.3-1s1.1,0.7,1,1.3l0,0C250.4,305.4,249.8,305.9,249.1,305.8"/>
			<path id="Path_565_00000084500511365840351730000016906425187120447879_" class="st30" d="M255.3,305.2c0.1,0.1,0.2,0.2,0.1,0.3
				l-0.2,1.2l-12.2-1.8c-0.1,0.8,0.5,1.6,1.3,1.7c0,0,0,0,0,0l9.2,1.3c0.8,0.1,1.6-0.5,1.7-1.3c0,0,0,0,0,0l0.2-1.2
				C255.4,305.3,255.4,305.2,255.3,305.2"/>
			<path id="Path_566_00000054986682504230541160000012130094506919813265_" class="st22" d="M215.2,313.1l10.1,1c0,0-0.2,8.5,0,9.5
				c0,0,17.2,4.8,24.4,6.1c0,0,3.3-1.9,4.6-2.4c1.8-0.6,3.7-1.1,5.7-1.3c0.8-0.1,0.5,0.8-0.2,1.1c-0.7,0.3-2.4,1.1-2.9,2.1
				c0.7,0.1,1.5,0,2.2-0.2c0.8-0.3,1.8-1,1.8-1.4s0.2-1.3,0.4-1.2c0.1,0,0.1,0.3,0.2,0.6c0.1,0.3,0.2,0.6,0.2,0.9
				c0.1,0.5,0.3,1.3,0.3,1.6c0,1.2-0.2,2.5-0.4,3.7c-0.1,1.4-0.5,2-1.3,2.4c-1.4,0.5-2.9,0.8-4.3,0.9c-3.4,0.4-6.6-0.6-7.9-0.8
				c-1.4-0.2-23.3-2.3-23.3-2.3s-8.7-1.3-9.3-2.8S215.2,313.1,215.2,313.1"/>
			<path id="Path_567_00000119094370763054946460000017776052330476238726_" class="st26" d="M224,279.3c0,0-3.2,1.5-6,8
				c-2.7,6.2-3.4,37-3.4,37l10.5-1.8l5.3-14.4c3.8-8.6,2.8-18.6-2.7-26.2C226.2,280,224.9,278.7,224,279.3"/>
			<path id="Path_568_00000168108814886757686520000009155317598137602451_" class="st31" d="M559.6,279.5
				c-1.8-1.5-15.9,4.7-15.8,6.9c0.2,2.2-9.9,23.1-9.9,23.1l-17.3-13.8h0c-0.2-0.5-1.8-5.9-1.9-6.8c-0.1-1-3-2.8-4.4-2.5
				c-1.4,0.3,1.2,2,1.3,2.3c0.5,0.9-1.3,1.2-1.3,1.2s-5-1.6-5.1-3.2c-0.1-1.6-3.5,2.8-3.1,3.4c0.4,0.6,8.5,7.1,9.6,8.5
				c0,0,22.4,25.6,24,26.3c1.4,0.6,6.4-8.2,11.1-14.1C551.8,304.8,565.3,284.1,559.6,279.5"/>
			<path id="Path_569_00000113319537572843262930000005027741280211860374_" class="st31" d="M604.9,468c0,0,3.1,3,3.2,4.1
				c0.1,1.1,0.3,12.9-1,14c-1.3,1.1-5,1.9-3.8,3.1c0.9,0.9,7.8,0.7,12.4,0.5c1.3-0.1,3-10.7,3.5-12.3c0.8-2.3,2.6-7.4,1.9-9
				c-0.3-0.8-2-2.4-4.3-3.8c-1.8-1.4-3.4-3.1-4.7-5L604.9,468z"/>
			<path id="Path_570_00000158711665330861709260000005185990460316709281_" class="st31" d="M572.9,475c0,0,2.8,7.8,2.8,7.8
				c0.2,1.2,1,4.3,1,5.4c0,4.2-19-3.6-14.8-5.4c0.9-0.7,1.6-1.8,1.7-3c0.2-2.2-1.6-5-1.6-5L572.9,475z"/>
			<path id="Path_571_00000129900543303968995460000009839368113682541200_" class="st32" d="M543.1,329.9c0,0-1.4,14-1.4,14.2
				c0,22.6-4.5,66.7-3.6,71c2.1,10.4,24.4,63.2,24.4,63.2l12.1-1.4l-13-63.9l3-24.9l8.2-50.3L543.1,329.9z"/>
			<path id="Path_572_00000176000962572569241490000001478570834696345756_" class="st33" d="M583.7,342.2l2.3,13.2l6.2,54.5
				l23.6,53.2c0,0-3.3,7.7-8.2,8.8L570,417.4l-23.4-69.9l0.8-15.5L583.7,342.2z"/>
			<path id="Path_573_00000081613715931112201910000003467575886775117992_" class="st34" d="M538.3,296.6l16.8,1.7
				c0,0,0.8-13.7,0.8-20.3c0-8-0.7-18.2-1.6-18c-2.7,0.6-6.3,2.1-8.5,5.1C538.2,275.4,538.3,296.6,538.3,296.6"/>
			<path id="Path_574_00000119117612750212393550000009926520298705724605_" class="st34" d="M546.5,276.7
				c-0.4,2.4-6.8,68.3-6.8,68.3c30.5,14.7,47.4,2.6,47.4,2.6s-1-46.3,0.2-52.6c0.8-4.2,1.8-31.9-0.9-32.6c-3.8-1.2-7.8-2-11.8-2.5
				c-3.7-0.4-18.1-0.6-20.6,0.3C550,264.8,547.4,270.6,546.5,276.7"/>
			<path id="Path_575_00000153696353100469695320000003854212103719616145_" class="st35" d="M616.7,464.5c0,0-7.1,20-9.9,21
				c-0.7,0.3-4.3,0.9-4.9,2.5c-0.1,0.7-0.1,1.4,0,2h14.8c0,0,1.9-8.8,2.6-12.7c0,0,3.9-9.5,3.5-10.3
				C622.4,466.1,616.7,464.5,616.7,464.5"/>
			<path id="Path_576_00000031188083185650011170000013286326489632578724_" class="st35" d="M577.8,489.6l-2.2-6.9
				c0,0-4.6,1.9-6.9,1.6c-2.3-0.4-4.5-1-6.7-1.6c-9.1,3-16.6,4.5-15.2,6.9H577.8z"/>
			<path id="Path_577_00000103246306015703537570000017728807454726197153_" class="st31" d="M536,324.8c-0.2-0.1-0.3-0.2-0.5-0.3
				c0.5-6.5,0.4-12.7-1.6-14.8c0-0.1,0.5-1,1-2c2.3,1.8,3.5,6.6,3,14.5c-0.1,0.5-0.2,1.1-0.3,1.6C536.9,324.4,536.3,324.9,536,324.8
				"/>
			<path id="Path_578_00000018230652075749157950000016431496599989553044_" class="st31" d="M570.5,247.2l2,13
				c0,0-7.2,15.4-11.5,14.1c-3.6-1.1-1.4-14.8-1.4-14.8s2-7.3,1.4-11C560.4,244.8,570.5,247.2,570.5,247.2"/>
			<path id="Path_579_00000158733054379120697830000013694484387027043731_" class="st31" d="M561,248.4c-0.6-3.7,9.5-1.3,9.5-1.3
				l0.2,1.1c-0.3,0.7-0.6,1.3-1.1,1.8c-2.3,2.4-5.5,3.8-8.8,4C561.1,252.2,561.2,250.3,561,248.4"/>
			<path id="Path_580_00000143608692688600500720000000877378182816307379_" class="st31" d="M572.2,228.8
				c0.3-0.1,2.3,14.8-1.5,18.9c-3.8,4.1-11.2,5.4-13.9,2.2c-2.9-3.6-2.8-19.5,3.1-23.8C565.8,221.9,572.2,228.8,572.2,228.8"/>
			<path id="Path_581_00000067234871910115558270000008182953600082019987_" class="st25" d="M562.2,218.2c3.3,0.7,6.3,2.4,8.6,4.9
				c2.1,0.2,4.9,1.4,7.8,6.2c3.6,5.9,0.9,12.5-3.2,15.7s-4.1,6.9-4.1,6.9l-0.7-1.9c-0.5-1.5-0.7-3-0.5-4.5c0.1-0.9,0.3-1.9,0.7-2.7
				c1-2.2-2.2-3.6-3-5.4c-0.7-1.4-0.7-4.5-1.8-6.8l-1.3-1.7c0,0-3-2.3-5.9-1.7C555.9,227.8,556.3,217,562.2,218.2"/>
			<path id="Path_582_00000088818624987476939970000013082823651028762812_" class="st31" d="M567.9,240c0,1.8,0.8,3.3,1.8,3.3
				s1.9-1.4,2-3.3c0-1.8-0.8-3.3-1.8-3.3S567.9,238.2,567.9,240"/>
			<path id="Path_583_00000046333989123248385060000005319579067801295531_" class="st25" d="M514.8,278.1c1.3-1.4,2.6-2.8,3.8-4.3
				l25,24.4c1.5,1.5,1,4.5-1.2,6.8c-2.2,2.2-5.2,2.8-6.7,1.3l-25-24.4C512.1,280.8,513.5,279.5,514.8,278.1"/>
			<g id="Group_200_00000070115866484820714500000012520265470804896685_" transform="translate(386.175 87.176)" class="st13">
				<g id="Group_199_00000056404777233531880770000001882471282748666799_">
					<g>
						<defs>
							<rect id="SVGID_00000060727542020487537660000003375421658909142946_" x="19.5" y="82.9" width="126.6" height="126.6"/>
						</defs>
						<clipPath id="SVGID_00000106112098882302794550000001993969400668046238_">
							<use xlink:href="#SVGID_00000060727542020487537660000003375421658909142946_"  style="overflow:visible;"/>
						</clipPath>
						
							<g id="Group_198_00000178895997502264100470000017482953744355866814_" style="clip-path:url(#SVGID_00000106112098882302794550000001993969400668046238_);">
							<path id="Path_584_00000136403259082851400450000017918525653705999512_" class="st37" d="M38.7,191.3
								c24.9,24.5,65,24.1,89.5-0.8c24.3-24.9,23.7-65-1.3-89.5c-24.9-24.5-65-24.1-89.5,0.8C13,126.7,13.6,166.8,38.7,191.3"/>
						</g>
					</g>
				</g>
			</g>
			<g id="Group_203_00000042711055976266087800000010023242374840829568_" transform="translate(386.357 104.024)">
				<g id="Group_202_00000003792012897284061710000016665996970152037505_">
					<g>
						<defs>
							<rect id="SVGID_00000002382043582118578210000006978471659835594663_" x="19.5" y="82.9" width="108.6" height="109.8"/>
						</defs>
						<clipPath id="SVGID_00000121239752366728303830000013608629319055472769_">
							<use xlink:href="#SVGID_00000002382043582118578210000006978471659835594663_"  style="overflow:visible;"/>
						</clipPath>
						
							<g id="Group_201_00000007428263097873814320000006420205704599833476_" style="clip-path:url(#SVGID_00000121239752366728303830000013608629319055472769_);">
							<path id="Path_585_00000170252728239867891230000008578570191891482790_" class="st6" d="M128.1,173
								c-10.5,11.2-24.8,18.2-40.2,19.7l-68.4-69.6c0-0.1,0-0.3,0-0.4c1.6-15.2,8.7-29.4,19.9-39.8L128.1,173z"/>
						</g>
					</g>
				</g>
			</g>
			<g id="Group_206_00000134220973545736993430000000528211415607948444_" transform="translate(418.437 87.102)">
				<g id="Group_205_00000178192442987808306740000015364946106686194364_">
					<g>
						<defs>
							<rect id="SVGID_00000111154188679645250620000005761283679931282362_" x="19.5" y="82.9" width="93.8" height="94.9"/>
						</defs>
						<clipPath id="SVGID_00000067931075003351349190000009528114377884290735_">
							<use xlink:href="#SVGID_00000111154188679645250620000005761283679931282362_"  style="overflow:visible;"/>
						</clipPath>
						
							<g id="Group_204_00000098184172058973301200000007710949129240018325_" style="clip-path:url(#SVGID_00000067931075003351349190000009528114377884290735_);">
							<path id="Path_586_00000007418221186390729340000010076746150663445155_" class="st6" d="M50,82.9l63.3,64.3
								c0,1.9-0.1,3.9-0.4,5.9c-0.9,8.7-3.6,17.1-7.9,24.7L19.5,90.9C28.8,85.7,39.3,82.9,50,82.9"/>
						</g>
					</g>
				</g>
			</g>
			<path id="Path_587_00000106854025119659593740000001583166872442100136_" class="st4" d="M419.1,284.3
				c28.4,27.7,73.7,27.3,101.2-0.9c27.5-28.2,26.8-73.5-1.5-101.2c-28.4-27.7-73.7-27.3-101.2,0.9S390.8,256.6,419.1,284.3
				 M424.9,278.4c-25.1-24.5-25.7-64.6-1.3-89.5c24.3-24.9,64.4-25.3,89.5-0.8c25.1,24.5,25.7,64.6,1.3,89.5
				C490,302.6,449.9,302.9,424.9,278.4"/>
			<g id="Group_209_00000008135080737421130120000007735971211832280501_" transform="translate(382.258 83.256)" class="st9">
				<g id="Group_208_00000075136929172407086040000017431055629250393493_">
					<g>
						<defs>
							<rect id="SVGID_00000011004418070474597600000018030809139745915797_" x="19.5" y="82.9" width="134.4" height="134.4"/>
						</defs>
						<clipPath id="SVGID_00000000914678720614694220000013436629233041329302_">
							<use xlink:href="#SVGID_00000011004418070474597600000018030809139745915797_"  style="overflow:visible;"/>
						</clipPath>
						
							<g id="Group_207_00000068669545941423002050000000558064401215975313_" style="clip-path:url(#SVGID_00000000914678720614694220000013436629233041329302_);">
							<path id="Path_588_00000013165692145810869910000002747295673879036815_" class="st41" d="M39.9,198
								c26.6,26,69.2,25.6,95-0.8c25.9-26.5,25.2-69-1.4-95s-69.2-25.6-95,0.8C12.6,129.4,13.2,172,39.9,198 M42.6,195.2
								c-25.1-24.5-25.7-64.6-1.3-89.5s64.4-25.3,89.5-0.8c25.1,24.5,25.7,64.6,1.3,89.5C107.8,219.3,67.7,219.7,42.6,195.2"/>
						</g>
					</g>
				</g>
			</g>
			<path id="Path_589_00000002352892957028535640000011857989137620400787_" class="st4" d="M621.3,385.3l3.9-4
				c3.9-4,3.8-10.4-0.3-14.3l-72.2-70c-4-3.9-10.4-3.8-14.3,0.3l-3.9,4c-3.9,4-3.8,10.4,0.3,14.3l72.2,70
				C611,389.5,617.4,389.4,621.3,385.3"/>
			<path id="Path_590_00000070804914777305421090000018335595851450730674_" class="st31" d="M617.3,345.7c0-0.1,0-0.3,0-0.4
				c-0.5-4.6-4.2-42.9-4.9-44.5c-0.6-1.5-17.6-25.8-17.6-25.8l-8.4,11.4l16.3,21.8c0.4,1.4,6.3,27.3,6.3,27.3s1.2,4.7,1.8,7.5
				c-0.2,0.7-0.5,1.3-0.7,1.9c-0.5,1-1.1,1.9-1.8,2.8c-0.8,1.2-1.5,2.4-2.1,3.7c-0.2,0.7-0.5,2-0.7,2.9c-0.2,0.8-0.4,1.8-0.5,2.3
				c-0.1,0.4-0.3,0.8-0.5,1.2c-0.2,0.4-0.1,0.8,0.3,1c0.2,0.1,0.4,0.1,0.6,0.1c0.6-0.2,1.1-1,1.3-1.4c0.8-1.4,1.2-3.8,1.4-3.7
				c0.2,0.1,0.9,4.3,1,4.8c0.3,2.1,0.8,4.2,1.4,6.2c0.5,0.9,1.1,0.7,1.3,0.2c0.1-0.5-0.5-7.3-0.5-7.3s-0.1-0.9,0.3-0.6
				c0.4,0.3,1,6.4,1.3,7.4c0.3,0.9,0.9,1.4,1.4,0.7c0.6-0.9-0.4-7.4-0.4-7.4s-0.1-0.8,0.2-0.7c0.4,0.1,0.8,5.3,1.1,5.8
				c0.2,0.3,0.6,0.5,0.9,0.3c0.2-0.1,0.3-0.3,0.4-0.5c0.4-0.9-0.6-6.7-0.6-6.7s0-0.5,0.3-0.3c0.2,0.2,0.9,4.6,1.4,5
				c0.2,0.2,0.5,0.2,0.7,0c0,0,0,0,0,0c0.8-0.6-0.4-4.8-0.4-6.9c0-2.1-1-4.5-0.7-7C617.2,346.3,617.3,345.9,617.3,345.7"/>
			<path id="Path_591_00000010299253130256386270000005067012703736919481_" class="st34" d="M608.2,290.4l-14.5,9.7
				c0,0-8.2-12.2-12.6-16.5c-5.5-5.4,2-22.1,5.6-21.1C594.5,264.6,608.2,290.4,608.2,290.4"/>
		</g>
		<rect x="19.5" y="82.9" class="st42" width="608.6" height="407.1"/>
	</g>
</g>
</svg>
