<?xml version="1.0" encoding="utf-8"?>
<!-- Generator: Adobe Illustrator 26.3.1, SVG Export Plug-In . SVG Version: 6.00 Build 0)  -->
<svg version="1.1" id="Laag_1" xmlns="http://www.w3.org/2000/svg" xmlns:xlink="http://www.w3.org/1999/xlink" x="0px" y="0px"
	 viewBox="0 0 678.6 595.3" style="enable-background:new 0 0 678.6 595.3;" xml:space="preserve">
<style type="text/css">
	.st0{fill:#EE7302;}
	.st1{fill:#FFFFFF;}
	.st2{fill:#1E2E35;}
	.st3{fill:#E1E0E0;}
	.st4{fill:#F6A354;}
	.st5{fill:#ECECEC;}
	.st6{fill:#405964;}
	.st7{fill:#EB5E62;}
	.st8{fill:#F9B87E;}
	.st9{opacity:0.65;}
	.st10{clip-path:url(#SVGID_00000008112046892113877850000011839671318607586688_);}
	.st11{opacity:0.5;}
	.st12{clip-path:url(#SVGID_00000087408513567031650180000007304772400293378459_);}
	.st13{fill:#050607;}
	.st14{fill:none;stroke:#EE7302;stroke-width:2;stroke-miterlimit:10;}
	.st15{fill:#EF7D77;}
	.st16{fill:#BF8C7A;}
	.st17{opacity:0.3;}
	.st18{fill:#010202;}
</style>
<g>
	<g>
		<g>
			<rect x="363.7" y="331.8" class="st0" width="7.2" height="131.7"/>
		</g>
		<g>
			<polygon class="st0" points="315.3,463.5 365.4,415.3 369,418.5 322.3,463.5 			"/>
		</g>
		<g>
			<polygon class="st0" points="419.1,463.4 369.1,415.3 365.5,418.5 412.2,463.5 			"/>
		</g>
	</g>
	<g>
		<g>
			<rect x="206.4" y="118.3" class="st1" width="323.6" height="235.9"/>
		</g>
		<g>
			<g>
				<path class="st2" d="M530.1,354.2c0-1.6-0.1-92.9-0.2-235.9l0.2,0.2c-90.8,0-202.7,0-323.6,0h0l0.2-0.2c0,84.6,0,164.8,0,235.9
					l-0.2-0.2C398,354.1,528.2,354.2,530.1,354.2c-1.9,0-132.1,0.1-323.6,0.2l-0.2,0v-0.2c0-71.1,0-151.3,0-235.9v-0.2h0.2h0
					c120.9,0,232.9,0,323.6,0l0.2,0l0,0.2C530.2,261.4,530.1,352.7,530.1,354.2z"/>
			</g>
		</g>
	</g>
	<g>
		<path class="st3" d="M262.8,180.7c0,0-2.3,20.6,0.6,31.9l27.6-1.2c0,0-5.9-20.3-2.3-29.4L262.8,180.7z"/>
	</g>
	<g>
		<path class="st3" d="M226.4,192.1c0,0-2.3,20.6,0.6,31.9l27.6-1.2c0,0-5.9-20.3-2.3-29.4L226.4,192.1z"/>
	</g>
	<g>
		<g>
			<path class="st4" d="M262.8,180.7c0,0,0.2,22.3,1.3,29.1l27.9-1.3c0,0-2.5-21.9-1.5-27.7H262.8z"/>
		</g>
		<g>
			<g>
				<g>
					<g>
						<path class="st1" d="M276.6,183.9c0,0,0,0,0.1,0c0.1,0,0.2,0,0.3,0c0.3,0,0.7,0,1.2,0.1c0.5,0.1,1.1,0.2,1.8,0.5
							c0.7,0.3,1.3,0.8,1.9,1.5c0.6,0.7,1.1,1.6,1.3,2.7c0.2,1.1,0.1,2.3-0.3,3.5c-0.2,0.6-0.5,1.2-0.8,1.7
							c-0.3,0.6-0.6,1.1-0.9,1.7c-0.5,1.2-0.9,2.6-1.1,4l0,0.1l-0.1,0c-0.9,0-1.8,0-2.8,0c-1,0-2,0-2.9,0l-0.1,0l0-0.1
							c0-1.4-0.7-2.7-1.3-3.8c-0.3-0.6-0.7-1.1-1-1.7c-0.3-0.5-0.7-1-1-1.6c-0.6-1.1-0.6-2.3-0.4-3.4c0.2-1.1,0.6-2,1.1-2.8
							c0.5-0.8,1.2-1.3,1.8-1.6c0.6-0.4,1.2-0.5,1.7-0.7c0.5-0.1,0.9-0.2,1.1-0.2c0.1,0,0.2,0,0.3,0
							C276.6,183.9,276.6,183.9,276.6,183.9c0,0,0,0-0.1,0c-0.1,0-0.2,0-0.3,0c-0.3,0-0.6,0.1-1.1,0.2c-0.5,0.1-1.1,0.3-1.7,0.7
							c-0.6,0.4-1.3,0.9-1.8,1.6c-0.5,0.7-0.8,1.7-1,2.7c-0.2,1-0.1,2.2,0.4,3.3c0.3,0.5,0.6,1,1,1.6c0.3,0.5,0.7,1.1,1.1,1.7
							c0.7,1.1,1.3,2.4,1.4,3.9l-0.1-0.1c0.9,0,1.9,0,2.9,0c0.9,0,1.9,0,2.8,0l-0.1,0.1c0.2-1.4,0.6-2.8,1.2-4
							c0.3-0.6,0.6-1.2,0.9-1.8c0.3-0.6,0.6-1.1,0.8-1.7c0.4-1.1,0.5-2.3,0.3-3.4c-0.2-1-0.7-1.9-1.3-2.6c-0.6-0.7-1.2-1.2-1.9-1.5
							c-0.6-0.3-1.2-0.5-1.7-0.6c-0.5-0.1-0.9-0.1-1.2-0.1c-0.1,0-0.2,0-0.3,0C276.6,183.9,276.6,183.9,276.6,183.9z"/>
					</g>
				</g>
				<g>
					<g>
						<path class="st1" d="M278,199.4C278,199.4,278,199.4,278,199.4c0-0.1,0-0.2-0.1-0.3c0-0.2-0.1-0.6-0.2-1
							c-0.1-0.9-0.3-2.1-0.4-3.7c0-0.4-0.1-0.8-0.1-1.2c0-0.4,0-0.9,0-1.3c0-0.5,0.1-0.9,0.3-1.4c0.2-0.4,0.6-0.9,1.1-1.1
							c0.5-0.2,1.1-0.1,1.5,0.3c0.2,0.2,0.3,0.5,0.3,0.8c0,0.3-0.1,0.6-0.3,0.8c-0.2,0.2-0.4,0.4-0.7,0.5c-0.3,0.1-0.5,0.2-0.8,0.3
							c-0.6,0.1-1.2,0.2-1.8,0.2c-0.6,0-1.2,0-1.8-0.1c-0.3,0-0.6-0.1-0.8-0.2c-0.3-0.1-0.5-0.3-0.7-0.5c-0.2-0.2-0.3-0.5-0.4-0.7
							c-0.1-0.3,0-0.6,0.1-0.8c0.1-0.3,0.3-0.5,0.6-0.6c0.3-0.1,0.6-0.1,0.8,0c0.2,0.1,0.4,0.3,0.6,0.5c0.1,0.2,0.2,0.5,0.3,0.7
							c0.1,0.5,0.1,1,0.1,1.4c0,0.9,0.1,1.8,0.1,2.6c0.1,1.6,0.1,2.8,0.2,3.7c0,0.4,0,0.8,0,1c0,0.1,0,0.2,0,0.3c0,0.1,0,0.1,0,0.1
							s0,0,0-0.1c0-0.1,0-0.1,0-0.3c0-0.2,0-0.6-0.1-1c-0.1-0.9-0.1-2.1-0.2-3.7c0-0.8-0.1-1.6-0.1-2.6c0-0.5,0-0.9-0.1-1.4
							c-0.1-0.2-0.1-0.5-0.3-0.7c-0.1-0.2-0.3-0.4-0.6-0.5c-0.2-0.1-0.5-0.1-0.7,0c-0.2,0.1-0.4,0.3-0.5,0.5
							c-0.1,0.2-0.2,0.5-0.1,0.8c0.1,0.3,0.2,0.5,0.4,0.7c0.4,0.4,0.9,0.6,1.5,0.7c0.6,0.1,1.2,0.1,1.8,0.1c0.6,0,1.2-0.1,1.7-0.2
							c0.3-0.1,0.6-0.1,0.8-0.3c0.3-0.1,0.5-0.3,0.6-0.5c0.2-0.2,0.3-0.5,0.3-0.7c0-0.3-0.1-0.5-0.3-0.7c-0.4-0.4-1-0.5-1.4-0.3
							c-0.5,0.2-0.8,0.6-1,1c-0.2,0.4-0.3,0.9-0.3,1.4c0,0.5,0,0.9,0,1.3c0,0.4,0,0.8,0.1,1.2c0.1,1.6,0.3,2.8,0.4,3.7
							c0.1,0.4,0.1,0.8,0.1,1C278,199.2,278,199.2,278,199.4C278,199.4,278,199.4,278,199.4z"/>
					</g>
				</g>
				<g>
					<g>
						<path class="st1" d="M274.4,199.5c0,0,0,0.3,0.1,0.9c0,0.7,0.1,1.5,0.1,2.4l0-0.1c0.6,0.6,1.2,1.4,1.9,2.2l-0.1,0
							c0.7,0,1.4-0.1,2.2-0.1l-0.1,0c0.3-0.4,0.7-0.9,1.1-1.3c0.2-0.2,0.4-0.4,0.5-0.7l0,0.1c0-1.3-0.1-2.5-0.1-3.6l0.1,0.1
							c-1.6,0-3,0-4.1,0c-0.4,0-0.8,0-1.2,0C274.5,199.6,274.4,199.5,274.4,199.5c0,0,0.1,0,0.4,0c0.3,0,0.7,0,1.1-0.1
							c1.1,0,2.5-0.1,4.1-0.2l0.1,0l0,0.1c0,1.1,0.1,2.3,0.1,3.6l0,0l0,0c-0.2,0.2-0.4,0.4-0.5,0.7c-0.4,0.5-0.7,0.9-1.1,1.3l0,0
							l-0.1,0c-0.8,0-1.5,0.1-2.2,0.1l-0.1,0l0,0c-0.7-0.8-1.3-1.5-1.8-2.2l0,0l0,0c0-1,0-1.8,0-2.5
							C274.3,199.8,274.3,199.5,274.4,199.5z"/>
					</g>
				</g>
				<g>
					<g>
						<path class="st1" d="M280,202.7c0,0-0.1,0-0.2-0.1c-0.1-0.1-0.3-0.1-0.6-0.2c-0.5-0.2-1.2-0.3-2-0.3c-0.8,0-1.5,0.2-1.9,0.4
							c-0.2,0.1-0.4,0.2-0.5,0.3c-0.1,0.1-0.2,0.1-0.2,0.1c0,0,0.1-0.1,0.2-0.1c0.1-0.1,0.3-0.2,0.5-0.3c0.5-0.2,1.2-0.4,2-0.4
							c0.8,0,1.5,0.1,2,0.3c0.2,0.1,0.4,0.2,0.6,0.3C279.9,202.6,280,202.7,280,202.7z"/>
					</g>
				</g>
				<g>
					<g>
						<path class="st1" d="M280,201.8c0,0-0.1,0-0.2-0.1c-0.1-0.1-0.3-0.1-0.6-0.2c-0.5-0.2-1.2-0.3-2-0.3c-0.8,0-1.5,0.2-1.9,0.4
							c-0.2,0.1-0.4,0.2-0.5,0.3c-0.1,0.1-0.2,0.1-0.2,0.1c0,0,0.1-0.1,0.2-0.1c0.1-0.1,0.3-0.2,0.5-0.3c0.5-0.2,1.2-0.4,2-0.4
							c0.8,0,1.5,0.1,2,0.3c0.2,0.1,0.4,0.2,0.6,0.3C279.9,201.8,280,201.8,280,201.8z"/>
					</g>
				</g>
				<g>
					<g>
						<path class="st1" d="M279.9,201c0,0-0.1,0-0.2-0.1c-0.1-0.1-0.3-0.1-0.6-0.2c-0.5-0.2-1.2-0.3-2-0.3c-0.8,0-1.5,0.2-1.9,0.4
							c-0.2,0.1-0.4,0.2-0.5,0.3c-0.1,0.1-0.2,0.1-0.2,0.1c0,0,0.1-0.1,0.2-0.1c0.1-0.1,0.3-0.2,0.5-0.3c0.5-0.2,1.2-0.4,2-0.4
							c0.8,0,1.5,0.1,2,0.3c0.2,0.1,0.4,0.2,0.6,0.3C279.9,200.9,279.9,201,279.9,201z"/>
					</g>
				</g>
			</g>
		</g>
	</g>
	<g>
		<g>
			<path class="st0" d="M226.2,192.1c0,0,0.2,22.3,1.3,29.1l27.9-1.3c0,0-2.5-21.9-1.5-27.7H226.2z"/>
		</g>
		<g>
			<g>
				<path class="st1" d="M249.8,201.5c0,0.1-4.2,0.5-9.4,0.8c-5.2,0.3-9.4,0.5-9.4,0.3c0-0.1,4.2-0.5,9.4-0.8
					C245.5,201.5,249.8,201.3,249.8,201.5z"/>
			</g>
		</g>
		<g>
			<g>
				<path class="st1" d="M249.8,206.2c0,0.1-4.2,0.5-9.4,0.8c-5.2,0.3-9.4,0.5-9.4,0.3c0-0.1,4.2-0.5,9.4-0.8
					C245.6,206.2,249.8,206,249.8,206.2z"/>
			</g>
		</g>
		<g>
			<g>
				<path class="st1" d="M245,210.8c0,0.1-2.4,0.4-5.3,0.6c-2.9,0.2-5.3,0.2-5.4,0.1c0-0.1,2.4-0.4,5.3-0.6
					C242.6,210.7,245,210.7,245,210.8z"/>
			</g>
		</g>
	</g>
	<g>
		<g>
			<path class="st5" d="M278.2,216.2c0,0-2.3,20.6,0.6,31.9l27.6-1.2c0,0-5.9-20.3-2.3-29.4L278.2,216.2z"/>
		</g>
		<g>
			<g>
				<path class="st0" d="M278.3,215.5c0,0,0.2,22.3,1.3,29.1l27.9-1.3c0,0-2.5-21.9-1.5-27.7H278.3z"/>
			</g>
			<g>
				<g>
					<path class="st1" d="M301.8,224.9c0,0.1-4.2,0.5-9.4,0.8c-5.2,0.3-9.4,0.5-9.4,0.3c0-0.1,4.2-0.5,9.4-0.8
						C297.6,224.9,301.8,224.7,301.8,224.9z"/>
				</g>
			</g>
			<g>
				<g>
					<path class="st1" d="M301.8,229.6c0,0.1-4.2,0.5-9.4,0.8c-5.2,0.3-9.4,0.5-9.4,0.3c0-0.1,4.2-0.5,9.4-0.8
						C297.6,229.6,301.8,229.5,301.8,229.6z"/>
				</g>
			</g>
			<g>
				<g>
					<path class="st1" d="M297.1,234.2c0,0.1-2.4,0.4-5.3,0.6c-2.9,0.2-5.3,0.2-5.4,0.1c0-0.1,2.4-0.4,5.3-0.6
						C294.7,234.1,297.1,234.1,297.1,234.2z"/>
				</g>
			</g>
		</g>
	</g>
	<g>
		<g>
			<path class="st5" d="M272.5,302.6c0,0-2.3,20.6,0.6,31.9l27.6-1.2c0,0-5.9-20.3-2.3-29.4L272.5,302.6z"/>
		</g>
		<g>
			<g>
				<path class="st0" d="M272.6,302c0,0,0.2,22.3,1.3,29.1l27.9-1.3c0,0-2.5-21.9-1.5-27.7H272.6z"/>
			</g>
			<g>
				<g>
					<path class="st1" d="M296.1,311.3c0,0.1-4.2,0.5-9.4,0.8c-5.2,0.3-9.4,0.5-9.4,0.3c0-0.1,4.2-0.5,9.4-0.8
						C291.9,311.3,296.1,311.2,296.1,311.3z"/>
				</g>
			</g>
			<g>
				<g>
					<path class="st1" d="M296.1,316c0,0.1-4.2,0.5-9.4,0.8c-5.2,0.3-9.4,0.5-9.4,0.3c0-0.1,4.2-0.5,9.4-0.8
						C291.9,316.1,296.1,315.9,296.1,316z"/>
				</g>
			</g>
			<g>
				<g>
					<path class="st1" d="M291.4,320.7c0,0.1-2.4,0.4-5.3,0.6c-2.9,0.2-5.3,0.2-5.4,0.1c0-0.1,2.4-0.4,5.3-0.6
						C289,320.6,291.4,320.5,291.4,320.7z"/>
				</g>
			</g>
		</g>
	</g>
	<g>
		<g>
			<path class="st5" d="M233.7,285.9c0,0-2.3,20.6,0.6,31.9l27.6-1.2c0,0-5.9-20.3-2.3-29.4L233.7,285.9z"/>
		</g>
		<g>
			<g>
				<path class="st0" d="M233.8,285.3c0,0,0.2,22.3,1.3,29.1l27.9-1.3c0,0-2.5-21.9-1.5-27.7H233.8z"/>
			</g>
			<g>
				<g>
					<path class="st1" d="M257.4,294.6c0,0.1-4.2,0.5-9.4,0.8c-5.2,0.3-9.4,0.5-9.4,0.3c0-0.1,4.2-0.5,9.4-0.8
						C253.1,294.7,257.3,294.5,257.4,294.6z"/>
				</g>
			</g>
			<g>
				<g>
					<path class="st1" d="M257.4,299.4c0,0.1-4.2,0.5-9.4,0.8c-5.2,0.3-9.4,0.5-9.4,0.3c0-0.1,4.2-0.5,9.4-0.8
						C253.2,299.4,257.4,299.2,257.4,299.4z"/>
				</g>
			</g>
			<g>
				<g>
					<path class="st1" d="M252.6,304c0,0.1-2.4,0.4-5.3,0.6c-2.9,0.2-5.3,0.2-5.4,0.1c0-0.1,2.4-0.4,5.3-0.6
						C250.2,303.9,252.6,303.9,252.6,304z"/>
				</g>
			</g>
		</g>
	</g>
	<g>
		<g>
			<path class="st5" d="M377.4,289c0,0-2.3,20.6,0.6,31.9l27.6-1.2c0,0-5.9-20.3-2.3-29.4L377.4,289z"/>
		</g>
		<g>
			<g>
				<path class="st0" d="M377.5,288.4c0,0,0.2,22.3,1.3,29.1l27.9-1.3c0,0-2.5-21.9-1.5-27.7H377.5z"/>
			</g>
			<g>
				<g>
					<path class="st1" d="M401.1,297.7c0,0.1-4.2,0.5-9.4,0.8c-5.2,0.3-9.4,0.5-9.4,0.3c0-0.1,4.2-0.5,9.4-0.8
						C396.9,297.7,401.1,297.6,401.1,297.7z"/>
				</g>
			</g>
			<g>
				<g>
					<path class="st1" d="M401.1,302.4c0,0.1-4.2,0.5-9.4,0.8c-5.2,0.3-9.4,0.5-9.4,0.3c0-0.1,4.2-0.5,9.4-0.8
						C396.9,302.4,401.1,302.3,401.1,302.4z"/>
				</g>
			</g>
			<g>
				<g>
					<path class="st1" d="M396.3,307.1c0,0.1-2.4,0.4-5.3,0.6c-2.9,0.2-5.3,0.2-5.4,0.1c0-0.1,2.4-0.4,5.3-0.6
						C393.9,307,396.3,306.9,396.3,307.1z"/>
				</g>
			</g>
		</g>
	</g>
	<g>
		<g>
			<path class="st5" d="M273,238c0,0-2.8,20.6-8.4,30.8l-26.5-7.8c0,0,10.7-18.3,9.3-27.9L273,238z"/>
		</g>
		<g>
			<g>
				<path class="st4" d="M273.1,237.3c0,0-5.6,21.6-8.3,27.9l-26.8-8c0,0,7.7-20.6,8.2-26.6L273.1,237.3z"/>
			</g>
			<g>
				<g>
					<path class="st1" d="M248,240.7c0-0.1,4.1,1,9,2.6c4.9,1.6,8.9,2.9,8.9,3c0,0.1-4.1-1-9-2.6C251.9,242.1,247.9,240.8,248,240.7
						z"/>
				</g>
			</g>
			<g>
				<g>
					<path class="st1" d="M246.8,245.2c0-0.1,4.1,1,9,2.6c4.9,1.6,8.9,2.9,8.9,3c0,0.1-4.1-1-9-2.6
						C250.8,246.7,246.8,245.4,246.8,245.2z"/>
				</g>
			</g>
			<g>
				<g>
					<path class="st1" d="M250.3,250.9c0-0.1,2.4,0.5,5.2,1.4c2.8,0.9,5.1,1.7,5,1.8c0,0.1-2.4-0.5-5.2-1.4
						C252.5,251.8,250.3,251,250.3,250.9z"/>
				</g>
			</g>
		</g>
	</g>
	<g>
		<g>
			<path class="st5" d="M301.9,259.6c0,0,2.3,20.6-0.6,31.9l-27.6-1.2c0,0,5.9-20.3,2.3-29.4L301.9,259.6z"/>
		</g>
		<g>
			<g>
				<path class="st4" d="M273.7,254.8c0,0-1.9,24.7-3.4,29.4l25.1,2.6l3.8-3.6c0,0,2.5-18.1,2.1-24L273.7,254.8z"/>
			</g>
			<g>
				<polygon class="st2" points="296,283.1 295.4,286.9 299.2,283.3 				"/>
			</g>
			<g>
				<g>
					<path class="st1" d="M296.3,267.9c0,0.1-1.1-0.1-2.8-0.3c-1.9-0.3-4.2-0.6-6.8-0.9c-2.6-0.3-4.9-0.6-6.8-0.8
						c-1.7-0.2-2.8-0.4-2.8-0.4c0-0.1,1.1,0,2.8,0.1c1.7,0.1,4.2,0.4,6.8,0.7c2.6,0.4,5,0.8,6.7,1.1
						C295.3,267.6,296.3,267.9,296.3,267.9z"/>
				</g>
			</g>
			<g>
				<g>
					<path class="st1" d="M295.2,273.1c0,0.1-1,0-2.7-0.1c-1.7-0.1-4-0.3-6.5-0.7c-2.5-0.3-4.8-0.7-6.5-1c-1.6-0.3-2.7-0.5-2.7-0.6
						c0-0.1,1,0,2.7,0.3c1.8,0.2,4,0.5,6.5,0.8c2.5,0.3,4.7,0.6,6.5,0.8C294.2,272.9,295.2,273,295.2,273.1z"/>
				</g>
			</g>
			<g>
				<g>
					<path class="st1" d="M293.6,277.8c0,0.1-3.8-0.3-8.4-0.9c-4.6-0.6-8.4-1.2-8.4-1.4c0-0.1,3.8,0.3,8.4,0.9
						C289.9,277.1,293.6,277.7,293.6,277.8z"/>
				</g>
			</g>
		</g>
	</g>
	<g>
		<g>
			<path class="st5" d="M357.5,237.8c0,0,2.3,20.6-0.6,31.9l-27.6-1.2c0,0,5.9-20.3,2.3-29.4L357.5,237.8z"/>
		</g>
		<g>
			<g>
				<path class="st4" d="M329.3,233c0,0-1.9,24.7-3.4,29.4l25.1,2.6l3.8-3.6c0,0,2.5-18.1,2.1-24L329.3,233z"/>
			</g>
			<g>
				<polygon class="st2" points="351.5,261.3 351,265.1 354.7,261.5 				"/>
			</g>
			<g>
				<g>
					<path class="st1" d="M351.8,246.1c0,0.1-1.1-0.1-2.8-0.3c-1.9-0.3-4.2-0.6-6.8-0.9c-2.6-0.3-4.9-0.6-6.8-0.8
						c-1.7-0.2-2.8-0.4-2.8-0.4c0-0.1,1.1,0,2.8,0.1c1.7,0.1,4.2,0.4,6.8,0.7c2.6,0.4,5,0.8,6.7,1.1
						C350.8,245.8,351.8,246.1,351.8,246.1z"/>
				</g>
			</g>
			<g>
				<g>
					<path class="st1" d="M350.7,251.3c0,0.1-1,0-2.7-0.1c-1.7-0.1-4-0.3-6.5-0.7c-2.5-0.3-4.8-0.7-6.5-1c-1.6-0.3-2.7-0.5-2.7-0.6
						c0-0.1,1,0,2.7,0.3c1.8,0.2,4,0.5,6.5,0.8c2.5,0.3,4.7,0.6,6.5,0.8C349.7,251.1,350.7,251.2,350.7,251.3z"/>
				</g>
			</g>
			<g>
				<g>
					<path class="st1" d="M349.1,256c0,0.1-3.8-0.3-8.4-0.9c-4.6-0.6-8.4-1.2-8.4-1.4c0-0.1,3.8,0.3,8.4,0.9
						C345.4,255.3,349.2,255.9,349.1,256z"/>
				</g>
			</g>
		</g>
	</g>
	<g>
		<g>
			<path class="st5" d="M358.5,289.7c0,0,2.3,20.6-0.6,31.9l-27.6-1.2c0,0,5.9-20.3,2.3-29.4L358.5,289.7z"/>
		</g>
		<g>
			<g>
				<path class="st4" d="M330.3,284.8c0,0-1.9,24.7-3.4,29.4l25.1,2.6l3.8-3.6c0,0,2.5-18.1,2.1-24L330.3,284.8z"/>
			</g>
			<g>
				<polygon class="st2" points="352.6,313.2 352,316.9 355.8,313.3 				"/>
			</g>
			<g>
				<g>
					<path class="st1" d="M352.8,298c0,0.1-1.1-0.1-2.8-0.3c-1.9-0.3-4.2-0.6-6.8-0.9c-2.6-0.3-4.9-0.6-6.8-0.8
						c-1.7-0.2-2.8-0.4-2.8-0.4c0-0.1,1.1,0,2.8,0.1c1.7,0.1,4.2,0.4,6.8,0.7c2.6,0.4,5,0.8,6.7,1.1
						C351.8,297.7,352.8,297.9,352.8,298z"/>
				</g>
			</g>
			<g>
				<g>
					<path class="st1" d="M351.7,303.1c0,0.1-1,0-2.7-0.1c-1.7-0.1-4-0.3-6.5-0.7c-2.5-0.3-4.8-0.7-6.5-1c-1.7-0.3-2.7-0.5-2.7-0.6
						c0-0.1,1,0,2.7,0.3c1.8,0.2,4,0.5,6.5,0.8c2.5,0.3,4.7,0.6,6.5,0.8C350.7,302.9,351.8,303.1,351.7,303.1z"/>
				</g>
			</g>
			<g>
				<g>
					<path class="st1" d="M350.2,307.9c0,0.1-3.8-0.3-8.4-0.9c-4.6-0.6-8.4-1.2-8.4-1.4c0-0.1,3.8,0.3,8.4,0.9
						C346.4,307.2,350.2,307.8,350.2,307.9z"/>
				</g>
			</g>
		</g>
	</g>
	<g>
		<g>
			<path class="st5" d="M366.4,189.7c0,0,2.3,20.6-0.6,31.9l-27.6-1.2c0,0,5.9-20.3,2.3-29.4L366.4,189.7z"/>
		</g>
		<g>
			<g>
				<path class="st4" d="M338.2,184.8c0,0-1.9,24.7-3.4,29.4l25.1,2.6l3.8-3.6c0,0,2.5-18.1,2.1-24L338.2,184.8z"/>
			</g>
			<g>
				<polygon class="st2" points="360.5,213.1 359.9,216.9 363.7,213.3 				"/>
			</g>
			<g>
				<g>
					<path class="st1" d="M360.8,198c0,0.1-1.1-0.1-2.8-0.3c-1.9-0.3-4.2-0.6-6.8-0.9c-2.6-0.3-4.9-0.6-6.8-0.8
						c-1.7-0.2-2.8-0.4-2.8-0.4c0-0.1,1.1,0,2.8,0.1c1.7,0.1,4.2,0.4,6.8,0.7c2.6,0.4,5,0.8,6.7,1.1
						C359.7,197.7,360.8,197.9,360.8,198z"/>
				</g>
			</g>
			<g>
				<g>
					<path class="st1" d="M359.7,203.1c0,0.1-1,0-2.7-0.1c-1.7-0.1-4-0.3-6.5-0.7c-2.5-0.3-4.8-0.7-6.5-1c-1.6-0.3-2.7-0.5-2.7-0.6
						c0-0.1,1,0,2.7,0.3c1.8,0.2,4,0.5,6.5,0.8c2.5,0.3,4.7,0.6,6.5,0.8C358.6,202.9,359.7,203.1,359.7,203.1z"/>
				</g>
			</g>
			<g>
				<g>
					<path class="st1" d="M358.1,207.9c0,0.1-3.8-0.3-8.4-0.9c-4.6-0.6-8.4-1.2-8.4-1.4s3.8,0.3,8.4,0.9
						C354.4,207.1,358.1,207.8,358.1,207.9z"/>
				</g>
			</g>
		</g>
	</g>
	<g>
		<g>
			<polygon class="st5" points="414.6,212 395.9,221.6 386.9,220.3 391.7,211.7 411.4,204.8 			"/>
		</g>
		<g>
			<g>
				<polygon class="st6" points="386.1,218.5 390.7,211.2 410.9,203.8 415,211.8 395.3,219.7 				"/>
			</g>
			<g>
				<g>
					<path class="st1" d="M408.6,208.6c0,0.1-0.7,0.4-2,0.9c-1.2,0.5-2.9,1.2-4.8,1.9c-1.8,0.7-3.5,1.3-4.9,1.8
						c-1.2,0.5-2,0.7-2,0.7c-0.2-0.2,2.9-1.5,6.7-3C405.5,209.5,408.6,208.4,408.6,208.6z"/>
				</g>
			</g>
			<g>
				<g>
					<path class="st1" d="M405.5,212.2c0.1,0.1-1.9,1.1-4.4,2.1c-2.5,0.9-4.6,1.4-4.6,1.3c0-0.1,2-0.8,4.5-1.7
						C403.4,212.9,405.4,212.1,405.5,212.2z"/>
				</g>
			</g>
		</g>
	</g>
	<g>
		<g>
			<g>
				<polygon class="st5" points="229,151.3 235.8,187.4 304.1,174.5 292.2,139.4 				"/>
			</g>
			<g>
				<g>
					<g>
						<g>
							
								<rect x="230" y="145.2" transform="matrix(0.9825 -0.186 0.186 0.9825 -25.4445 51.7211)" class="st1" width="65.8" height="32.5"/>
						</g>
						<g>
							<g>
								<path class="st2" d="M298.2,171.3c0,0-0.1-0.2-0.1-0.6c-0.1-0.4-0.2-0.9-0.3-1.7c-0.3-1.5-0.7-3.6-1.3-6.4
									c-1.1-5.5-2.6-13.5-4.5-23.3l0.2,0.1c-16.9,3.2-39.7,7.5-64.6,12.3l0,0l0.2-0.3c2.1,11.3,4.2,22.1,6,32l-0.3-0.2
									c18.8-3.5,35-6.5,46.4-8.7c5.7-1.1,10.3-1.9,13.4-2.5c1.6-0.3,2.8-0.5,3.6-0.7c0.4-0.1,0.7-0.1,0.9-0.2
									C298.1,171.3,298.2,171.3,298.2,171.3c0,0-0.1,0-0.3,0.1c-0.2,0-0.5,0.1-0.9,0.2c-0.8,0.2-2,0.4-3.5,0.7
									c-3.1,0.6-7.6,1.5-13.3,2.6c-11.5,2.2-27.6,5.3-46.5,8.9l-0.2,0l0-0.2c-1.9-9.9-3.9-20.7-6.1-32l0-0.2l0.2,0l0,0
									c24.9-4.7,47.7-9,64.6-12.2l0.2,0l0,0.2c1.8,9.9,3.3,17.9,4.3,23.5c0.5,2.7,0.9,4.9,1.2,6.4c0.1,0.7,0.2,1.3,0.3,1.6
									C298.2,171.1,298.2,171.3,298.2,171.3z"/>
							</g>
						</g>
					</g>
					<g>
						<g>
							<g>
								
									<rect x="236.9" y="155.6" transform="matrix(0.9825 -0.186 0.186 0.9825 -26.3369 48.6254)" class="st1" width="18.2" height="18.2"/>
							</g>
							<g>
								<g>
									<path class="st2" d="M256.6,171.9c0,0,0-0.1-0.1-0.3c-0.1-0.3-0.1-0.6-0.2-1c-0.2-0.9-0.4-2.1-0.7-3.6
										c-0.6-3.2-1.5-7.6-2.5-12.9l0.2,0.2c-5.2,1-11.3,2.2-17.9,3.4c0,0.1,0.4-0.5,0.2-0.3l0,0l0,0l0,0l0,0l0,0.1l0,0.2l0.1,0.3
										l0.1,0.6c0.1,0.4,0.2,0.8,0.2,1.2c0.2,0.8,0.3,1.6,0.5,2.4c0.3,1.6,0.6,3.1,0.9,4.6c0.6,3,1.1,5.8,1.6,8.4l-0.2-0.2
										c5.3-1,9.7-1.8,12.9-2.3c1.5-0.3,2.8-0.5,3.7-0.6c0.4-0.1,0.7-0.1,1-0.2C256.5,171.9,256.6,171.9,256.6,171.9
										c0,0-0.1,0-0.3,0.1c-0.2,0.1-0.6,0.1-0.9,0.2c-0.9,0.2-2.1,0.4-3.6,0.7c-3.2,0.6-7.7,1.5-13,2.6l-0.2,0l0-0.2
										c-0.5-2.6-1-5.4-1.6-8.4c-0.3-1.5-0.6-3-0.9-4.6c-0.1-0.8-0.3-1.6-0.5-2.4c-0.1-0.4-0.2-0.8-0.2-1.2l-0.1-0.6l-0.1-0.3
										l0-0.2l0-0.1l0,0l0,0l0,0l0,0c-0.2,0.2,0.2-0.3,0.2-0.3c6.5-1.2,12.7-2.4,17.9-3.4l0.2,0l0,0.2c1,5.4,1.8,9.8,2.4,13
										c0.3,1.5,0.5,2.7,0.6,3.6c0.1,0.4,0.1,0.7,0.2,0.9C256.6,171.8,256.6,171.9,256.6,171.9z"/>
								</g>
							</g>
						</g>
						<g>
							<g>
								<path class="st2" d="M256.6,171.9c0,0-0.1-0.5-0.4-1.3c-0.3-0.8-0.7-2-1.9-3l0,0c-0.6-0.5-1.3-1-2.2-1.3
									c-0.9-0.3-1.9-0.4-3-0.3l-0.4,0l0.2-0.4c0.7-1.2,0.9-2.8,0.2-4.3c-0.3-0.7-0.9-1.4-1.6-1.8c-0.7-0.4-1.6-0.6-2.4-0.6
									c-1,0.1-1.9,0.4-2.6,1c-0.7,0.6-1.2,1.4-1.4,2.2c-0.4,1.7,0.3,3.5,1.5,4.5l0.2,0.2l-0.2,0.1c-1.2,0.7-2.1,1.7-2.7,2.7
									c-0.6,1-0.9,2-1,2.8c-0.3,1.7,0,2.6-0.1,2.6c0,0-0.1-0.2-0.2-0.7c-0.1-0.5-0.1-1.1,0-2c0.1-0.8,0.4-1.9,1-2.9
									c0.6-1.1,1.5-2.1,2.8-2.9l0,0.3c-1.3-1-2.1-3-1.7-4.9c0.2-0.9,0.7-1.9,1.5-2.5c0.8-0.7,1.8-1,2.9-1.1
									c0.9-0.1,1.9,0.2,2.7,0.6c0.8,0.5,1.4,1.2,1.8,2c0.7,1.6,0.6,3.4-0.2,4.7l-0.2-0.3c1.1-0.1,2.2,0.1,3.2,0.4
									c0.9,0.4,1.7,0.9,2.3,1.5l0,0c1.3,1.1,1.6,2.4,1.9,3.2c0.1,0.4,0.2,0.8,0.2,1C256.6,171.8,256.6,171.9,256.6,171.9z"/>
							</g>
						</g>
					</g>
					<g>
						<g>
							<g>
								<path class="st1" d="M260,153.4c5.2-1,10.3-2,15.5-2.9"/>
							</g>
							<g>
								<g>
									<path class="st2" d="M275.5,150.5c0,0.1-3.4,0.9-7.7,1.7c-4.3,0.8-7.8,1.4-7.8,1.2c0-0.1,3.4-0.9,7.7-1.7
										C272,150.9,275.5,150.4,275.5,150.5z"/>
								</g>
							</g>
						</g>
						<g>
							<g>
								<path class="st1" d="M260.7,157c1-0.2,2.1-0.4,3.1-0.6"/>
							</g>
							<g>
								<g>
									<path class="st2" d="M263.8,156.4c0,0.1-0.7,0.4-1.5,0.5c-0.9,0.2-1.6,0.2-1.6,0.1c0-0.1,0.7-0.4,1.5-0.5
										C263.1,156.3,263.8,156.3,263.8,156.4z"/>
								</g>
							</g>
						</g>
						<g>
							<g>
								<path class="st2" d="M289.6,158c0,0.1-6.2,1.4-13.8,2.9c-7.6,1.4-13.9,2.5-13.9,2.4c0-0.1,6.2-1.4,13.8-2.9
									C283.3,159,289.6,157.9,289.6,158z"/>
							</g>
						</g>
						<g>
							<g>
								<path class="st2" d="M290.3,161.1c0,0.1-6.2,1.4-13.9,2.9c-7.7,1.5-13.9,2.5-14,2.4c0-0.1,6.2-1.4,13.9-2.9
									C284.1,162.1,290.3,161,290.3,161.1z"/>
							</g>
						</g>
						<g>
							<g>
								<path class="st2" d="M290.6,164.8c0,0-0.4,0.1-1.1,0.3c-0.8,0.2-1.8,0.4-2.9,0.6c-2.5,0.5-5.9,1.2-9.7,1.9
									c-3.8,0.7-7.2,1.3-9.7,1.8c-1.2,0.2-2.2,0.4-2.9,0.5c-0.7,0.1-1.1,0.1-1.1,0.1s0.4-0.1,1.1-0.3c0.8-0.2,1.8-0.4,2.9-0.6
									c2.5-0.5,5.9-1.2,9.7-1.9c3.8-0.7,7.2-1.3,9.7-1.8c1.2-0.2,2.2-0.4,2.9-0.5C290.2,164.8,290.5,164.8,290.6,164.8z"/>
							</g>
						</g>
					</g>
				</g>
				<g>
					<g>
						<path class="st7" d="M262.4,149.9c0,0,0.2-0.1,0.7-0.4c0.5-0.2,1.2-0.5,2.1-0.8c1.8-0.6,4.7-1.2,8.2-0.8
							c1.7,0.2,3.6,0.7,5.5,1.6c0.9,0.5,1.8,1.1,2.5,2c0.7,0.9,1.1,2.1,0.8,3.3c-0.3,1.2-1.2,2.2-2.1,2.9c-1,0.8-2.1,1.3-3.2,1.9
							c-2.3,1.1-4.7,2-7.4,2.5c-2.6,0.5-5.3,0.5-7.8-0.1c-1.2-0.3-2.4-0.7-3.5-1.4c-1-0.7-1.9-1.6-2.4-2.7c-0.4-1.2-0.2-2.4,0.4-3.4
							c0.6-1,1.4-1.7,2.2-2.4c1.7-1.2,3.4-2.1,5-2.7c3.3-1.2,6.2-1.5,8.1-1.4c1,0,1.7,0.1,2.2,0.2c0.5,0.1,0.8,0.1,0.8,0.1
							c0,0-0.3,0-0.8,0c-0.5,0-1.3-0.1-2.2-0.1c-1.9,0-4.8,0.3-8,1.6c-1.6,0.6-3.3,1.5-4.9,2.7c-0.8,0.6-1.6,1.3-2.1,2.3
							c-0.5,0.9-0.7,2-0.3,3.1c0.4,1,1.2,1.9,2.2,2.5c1,0.6,2.1,1.1,3.3,1.4c2.4,0.6,5,0.6,7.6,0.1c2.6-0.5,5-1.4,7.3-2.5
							c1.1-0.5,2.2-1.1,3.1-1.8c0.9-0.7,1.7-1.6,2-2.7c0.3-1.1,0-2.2-0.7-3c-0.6-0.8-1.5-1.4-2.4-1.9c-1.8-0.9-3.7-1.4-5.4-1.6
							c-3.4-0.5-6.3,0.1-8.1,0.6c-0.9,0.3-1.6,0.6-2.1,0.8C262.6,149.8,262.4,149.9,262.4,149.9z"/>
					</g>
				</g>
				<g>
					<g>
						<path class="st7" d="M280.9,149.4c-0.1-0.1,2-1.9,4.6-4c2.6-2.1,4.8-3.8,4.9-3.7c0.1,0.1-2,1.9-4.6,4
							C283.2,147.9,281,149.5,280.9,149.4z"/>
					</g>
				</g>
				<g>
					<g>
						<path class="st7" d="M286.7,148.7c0,0.1-2.4,0.7-5.4,1.3c-0.2,0-0.4,0.1-0.6,0.1l-0.4,0.1l0.1-0.4c0.7-2.7,1.9-4.5,2-4.5
							c0.1,0.1-0.9,1.9-1.5,4.6l-0.3-0.3c0.2,0,0.4-0.1,0.6-0.1C284.2,148.9,286.7,148.5,286.7,148.7z"/>
					</g>
				</g>
				<g>
					<g>
						<path class="st7" d="M277.1,152.6c0,0.1-3.8,0.8-8.5,1.5c-4.7,0.7-8.6,1.2-8.6,1.1c0-0.1,3.8-0.8,8.5-1.5
							C273.2,152.9,277.1,152.4,277.1,152.6z"/>
					</g>
				</g>
			</g>
		</g>
		<g>
			<path class="st7" d="M257.7,145.7c0.4,2.2-1,4.2-3.2,4.6c-2.2,0.4-4.2-1-4.6-3.2c-0.4-2.2,1-4.2,3.2-4.6
				C255.2,142.1,257.3,143.5,257.7,145.7z"/>
			<path class="st2" d="M253.8,150.4c-1.9,0-3.6-1.3-3.9-3.2c-0.4-2.2,1-4.3,3.2-4.7c1-0.2,2.1,0,3,0.6c0.9,0.6,1.5,1.5,1.7,2.6
				c0.4,2.2-1,4.3-3.2,4.7C254.3,150.4,254.1,150.4,253.8,150.4z M253.8,142.5c-0.2,0-0.5,0-0.7,0.1c-2.1,0.4-3.5,2.5-3.1,4.6
				c0.4,2.1,2.5,3.5,4.6,3.1c2.1-0.4,3.5-2.5,3.1-4.6c-0.2-1-0.8-1.9-1.7-2.5C255.4,142.7,254.6,142.5,253.8,142.5z"/>
		</g>
	</g>
	<g>
		<polygon class="st3" points="206.8,119.2 529.5,127.9 529.7,118.3 		"/>
	</g>
	<g>
		<rect x="203.5" y="112" class="st0" width="333.1" height="7.2"/>
	</g>
</g>
<path id="Path_400_00000167378400364218592930000013568076556546326201_" class="st1" d="M449.4,130c40.6,0,73.4,32.9,73.4,73.4
	c0,40.6-32.9,73.4-73.4,73.4c-40.6,0-73.4-32.9-73.4-73.4C376,162.9,408.9,130,449.4,130L449.4,130"/>
<g>
	<path id="Path_401_00000084510849671599440980000000877376542250057130_" class="st8" d="M395.7,203.5c0-5.6,0.8-11.1,2.5-16.4
		l-9-3c-8.4,26,0.9,54.4,23,70.5l5.5-7.7C403.9,236.8,395.7,220.6,395.7,203.5"/>
	<path id="Path_402_00000148660617536012339200000000929004201532293053_" class="st8" d="M405.2,203.5c0-4.5,0.7-9.1,2.1-13.4l-9-3
		c-7,22.1,0.8,46.2,19.5,59.8l5.5-7.7C411.9,230.9,405.1,217.6,405.2,203.5"/>
	<path id="Path_404_00000172418217670137187040000017823714120963105704_" class="st8" d="M414.6,203.5c0-3.5,0.5-7,1.6-10.4l-9-3
		c-5.7,18.1,0.7,37.9,16.1,49.2l5.5-7.7C419.9,225,414.6,214.6,414.6,203.5"/>
	<path id="Path_406_00000126319382260916833610000015100130793338088846_" class="st8" d="M416.2,193c-4.4,14.2,0.7,29.7,12.6,38.5
		l19.9-27.7L416.2,193z"/>
	<path id="Path_408_00000101793669418810226470000016086869697783165625_" class="st8" d="M449.5,257.2c-11.3,0-22.2-3.5-31.4-10.1
		l-5.6,7.6c22.1,15.9,51.9,15.9,74-0.1l-5.6-7.6C471.8,253.7,460.8,257.2,449.5,257.2"/>
	<path id="Path_409_00000018924531583241161040000006316296165893951381_" class="st8" d="M449.5,247.8c-9.2,0-18.2-2.9-25.8-8.2
		l-5.6,7.6c18.8,13.5,44.1,13.5,62.8-0.1l-5.6-7.6C467.8,244.9,458.8,247.8,449.5,247.8"/>
	<path id="Path_411_00000106861294751790769910000014312050185932329397_" class="st8" d="M449.5,238.3c-7.2,0-14.3-2.2-20.1-6.4
		l-5.6,7.6c15.4,11,36.2,11,51.6-0.1l-5.6-7.6C463.8,236.1,456.7,238.3,449.5,238.3"/>
	<path id="Path_413_00000165218543669205558610000014376459420349783461_" class="st8" d="M429.3,231.9c12.1,8.6,28.3,8.6,40.4-0.1
		l-20.2-27.4L429.3,231.9z"/>
	<path id="Path_415_00000089564483592191844930000002708564437074992534_" class="st8" d="M512.7,203.5c0-6.5-1-13.1-3-19.3l-9,3
		c7,22-0.9,46.1-19.5,59.7l5.5,7.7C503.1,242.6,512.7,223.6,512.7,203.5"/>
	<path id="Path_416_00000088818832765785621330000013383386569115223937_" class="st8" d="M493.8,203.5c0,14.1-6.7,27.4-18.1,35.7
		l5.5,7.7c18.6-13.7,26.5-37.7,19.5-59.7l-9,3C493.1,194.4,493.8,198.9,493.8,203.5"/>
	<path id="Path_418_00000099642771677888915680000008284426730467085731_" class="st8" d="M484.3,203.5c0,11.1-5.2,21.5-14.1,28
		l5.5,7.7c15.3-11.2,21.7-31,16-49.1l-9,3C483.8,196.4,484.3,199.9,484.3,203.5"/>
	<path id="Path_420_00000055695414619842383140000005060244079519087787_" class="st8" d="M470.2,231.5c8.9-6.6,14.1-17,14.1-28
		c0-3.5-0.5-7-1.6-10.4l-32.4,10.8L470.2,231.5z"/>
	<path id="Path_422_00000054980872201467393290000006280893014186633092_" class="st8" d="M500.6,186.8l9-2.9
		c-8.5-26-32.6-43.6-59.9-43.7l0.1,9.5C472.9,149.8,493.4,164.7,500.6,186.8"/>
	<path id="Path_423_00000152966876468547572680000007241505760744556461_" class="st8" d="M491.6,189.6l9-2.9
		c-7.2-22-27.7-37-50.9-37.1l0.1,9.5C468.8,159.3,485.7,171.5,491.6,189.6"/>
	<path id="Path_425_00000170241039430231426190000011016931376267900338_" class="st8" d="M449.8,159.1l0.1,9.5
		c14.9,0.1,28.1,9.8,32.8,23.9l9-2.9C485.6,171.5,468.8,159.3,449.8,159.1"/>
	<path id="Path_427_00000052795792599467430760000007941460671268010378_" class="st8" d="M482.6,192.5
		c-4.7-14.2-17.8-23.8-32.8-23.9l0.2,34.3L482.6,192.5z"/>
	<path id="Path_429_00000181776693595654956830000005881784879374972829_" class="st8" d="M449.4,149.7l0.1-9.5
		c-27.3,0-51.6,17.6-60.1,43.6l9,2.9C405.6,164.7,426.2,149.7,449.4,149.7"/>
	<path id="Path_430_00000116204665433198308160000017719473837073070981_" class="st8" d="M449.3,159.1l0.1-9.5
		c-23.2,0.1-43.8,15-51,37.1l9,2.9C413.3,171.5,430.2,159.2,449.3,159.1"/>
	<path id="Path_432_00000134241343443704474020000001677531877769952426_" class="st8" d="M449.2,168.6l0.1-9.5
		c-19.1,0.1-36,12.3-41.9,30.4l9,2.9C421.1,178.3,434.3,168.7,449.2,168.6"/>
	<path id="Path_434_00000079461872318564451700000001056829860413281962_" class="st8" d="M449.2,168.6
		c-14.9,0.1-28.1,9.7-32.9,23.9l32.7,10.4L449.2,168.6z"/>
</g>
<path id="Path_403_00000056422295142381209400000001073829776007917488_" class="st1" d="M417.9,247.1l-0.1-0.1
	c-13.9-10.1-22.2-26.3-22.2-43.6c0-5.6,0.8-11.1,2.5-16.4l0.1-0.2l9.3,3.1l0,0.2c-5.7,18.1,0.7,37.8,16.1,49l0.1,0.1L417.9,247.1z
	 M398.3,187.3c-7,21.9,0.9,45.8,19.4,59.4l5.3-7.4c-11.4-8.4-18.1-21.7-18.1-35.8c0-4.5,0.7-9,2-13.3L398.3,187.3z"/>
<path id="Path_405_00000115489784716517922490000013513224187322075028_" class="st1" d="M423.4,239.4l-0.1-0.1
	c-15.4-11.3-21.9-31.1-16.1-49.3l0.1-0.2l9.3,3.1l0,0.2c-4.4,14.1,0.6,29.5,12.6,38.3l0.1,0.1L423.4,239.4z M407.3,190.3
	c-3.5,11.1-2.4,23.1,2.9,33.5c3.1,6,7.6,11.2,13,15.3l5.3-7.4c-11.9-8.8-17-24.2-12.6-38.4L407.3,190.3z"/>
<path id="Path_407_00000021824437158482469360000007412986053029096109_" class="st1" d="M428.9,231.8l-0.1-0.1
	c-9-6.6-14.2-17.1-14.3-28.2c0-3.5,0.5-7.1,1.6-10.5l0.1-0.2l32.9,10.9L428.9,231.8z M416.3,193.2c-4.3,14.1,0.7,29.3,12.5,38.1
	l19.7-27.4L416.3,193.2z"/>
<path id="Path_410_00000178887383012767536760000007840356404242539148_" class="st1" d="M449.5,257.4c-11.3,0-22.3-3.5-31.4-10.1
	l-0.1-0.1l5.8-7.8l0.1,0.1c15.4,11,36.1,10.9,51.4-0.1l0.1-0.1l5.8,7.8l-0.1,0.1C471.9,253.8,460.8,257.4,449.5,257.4 M418.3,247.1
	c18.7,13.3,43.7,13.3,62.4-0.1l-5.4-7.4c-15.4,11-36.1,11-51.5,0.1L418.3,247.1z"/>
<path id="Path_412_00000052091495615025818630000009531483932325423024_" class="st1" d="M449.5,247.9c-9.3,0-18.3-2.9-25.8-8.3
	l-0.1-0.1l5.8-7.8l0.1,0.1c12,8.5,28.2,8.5,40.2-0.1l0.1-0.1l5.8,7.8l-0.1,0.1C467.9,245,458.8,247.9,449.5,247.9 M423.9,239.5
	c15.3,10.8,35.9,10.8,51.2-0.1l-5.4-7.4c-12.1,8.5-28.2,8.6-40.3,0.1L423.9,239.5z"/>
<path id="Path_414_00000168095508748443808840000000675774262540250001_" class="st1" d="M449.5,238.5c-7.3,0-14.3-2.2-20.2-6.5
	l-0.1-0.1l0.1-0.1l20.3-27.7l20.4,27.7l-0.1,0.1C463.9,236.2,456.8,238.5,449.5,238.5 M429.5,231.9c12,8.4,28,8.4,40-0.1l-20-27.1
	L429.5,231.9z"/>
<path id="Path_417_00000132077838200904189580000005342369592722559673_" class="st1" d="M481.2,247.1l-5.7-7.9l0.1-0.1
	c5.5-4.1,10-9.3,13.1-15.3c3.3-6.3,4.9-13.2,4.9-20.3c0-4.5-0.7-9-2-13.3l0-0.2l9.3-3.1l0.1,0.2c7,22.1-0.8,46.2-19.5,59.9
	L481.2,247.1z M475.9,239.2l5.3,7.4c13.7-10.1,21.8-26.1,21.8-43.2c0-5.5-0.8-10.9-2.5-16.1l-8.7,2.9c3.5,11.2,2.4,23.2-2.9,33.6
	C485.9,229.9,481.4,235.1,475.9,239.2"/>
<g id="Group_170_00000171718933827847301450000017627499876749494191_" transform="translate(426.733 140.595)" class="st9">
	<g id="Group_169_00000086664287466186414390000004566892549110899098_">
		<g>
			<defs>
				<rect id="SVGID_1_" x="43.3" y="49.3" width="24" height="49.5"/>
			</defs>
			<clipPath id="SVGID_00000156546531221551249270000016287834527240047238_">
				<use xlink:href="#SVGID_1_"  style="overflow:visible;"/>
			</clipPath>
			
				<g id="Group_168_00000080166660340043846820000010671876632346018749_" style="clip-path:url(#SVGID_00000156546531221551249270000016287834527240047238_);">
				<path id="Path_419_00000065790867006741730060000004202544876890686908_" class="st1" d="M49,98.8l-5.7-7.9l0.1-0.1
					c8.8-6.6,14.1-16.9,14.1-27.9c0-3.5-0.5-7-1.6-10.3l0-0.2l9.3-3.1l0.1,0.2c5.7,18.2-0.7,38-16.1,49.2L49,98.8z M43.7,90.9
					l5.3,7.4c5.4-4,9.9-9.2,13-15.2c5.3-10.3,6.4-22.3,2.9-33.4l-8.7,2.9c1,3.3,1.6,6.8,1.5,10.3C57.8,73.9,52.5,84.3,43.7,90.9"/>
			</g>
		</g>
	</g>
</g>
<g id="Group_173_00000136369786055411771580000011740777849468670113_" transform="translate(398.936 144.748)" class="st11">
	<g id="Group_172_00000170970129610379931850000005736180042228213127_">
		<g>
			<defs>
				<rect id="SVGID_00000099650643561825107460000006877789699714251188_" x="51.2" y="48.1" width="34.4" height="38.8"/>
			</defs>
			<clipPath id="SVGID_00000012462810574024085480000000291421742686257800_">
				<use xlink:href="#SVGID_00000099650643561825107460000006877789699714251188_"  style="overflow:visible;"/>
			</clipPath>
			
				<g id="Group_171_00000176755269214423133550000008121755501233861018_" style="clip-path:url(#SVGID_00000012462810574024085480000000291421742686257800_);">
				<path id="Path_421_00000043416387083831357330000014544005981142328713_" class="st1" d="M71.2,86.9L51.2,59l32.8-10.8l0.1,0.2
					c1.1,3.4,1.6,6.9,1.6,10.4c0,11.1-5.3,21.5-14.2,28.1L71.2,86.9z M51.7,59.2l19.6,27.4c11.8-8.8,16.7-24,12.5-38L51.7,59.2z"/>
			</g>
		</g>
	</g>
</g>
<path id="Path_424_00000027602493111299032690000013429218174716000655_" class="st1" d="M491.5,189.8l-0.1-0.2
	c-5.9-18-22.7-30.3-41.7-30.4h-0.2l-0.1-9.8h0.2c23.2,0.1,43.8,15.1,51,37.2l0.1,0.2L491.5,189.8z M449.9,159
	c19,0.2,35.8,12.4,41.8,30.4l8.7-2.8c-7.2-21.9-27.5-36.7-50.5-36.8L449.9,159z"/>
<path id="Path_426_00000087389396392904168130000001670783436079135117_" class="st1" d="M482.5,192.7l-0.1-0.2
	c-4.7-14.1-17.8-23.7-32.6-23.8h-0.2l-0.1-9.8h0.2c19.1,0.1,36,12.4,42,30.6l0.1,0.2L482.5,192.7z M450,168.4
	c14.9,0.2,28,9.8,32.7,23.9l8.7-2.8c-5.9-17.9-22.6-30.1-41.5-30.2L450,168.4z"/>
<path id="Path_428_00000003808967457640841220000017603415781113303690_" class="st1" d="M449.9,203.1l-0.2-34.6h0.2
	c15,0.2,28.2,9.8,32.9,24l0.1,0.2l-0.2,0.1L449.9,203.1z M450,168.7l0.2,33.9l32.2-10.2C477.7,178.4,464.7,169,450,168.7"/>
<path id="Path_431_00000137116497369260223900000009587905284008800656_" class="st1" d="M407.5,189.8l-9.3-3l0.1-0.2
	c7.2-22.1,27.8-37.1,51.1-37.1h0.2l-0.1,9.8h-0.2c-19,0.1-35.9,12.3-41.8,30.4L407.5,189.8z M398.6,186.6l8.7,2.8
	c6-18.1,22.8-30.3,41.9-30.4l0.1-9.2C426.2,150,405.8,164.8,398.6,186.6"/>
<path id="Path_433_00000100366530996993230180000012804143186106826676_" class="st1" d="M416.5,192.7l-9.3-3l0.1-0.2
	c6-18.2,22.9-30.5,42.1-30.6h0.2l-0.1,9.8h-0.2c-14.9,0.1-28,9.7-32.7,23.8L416.5,192.7z M407.6,189.5l8.7,2.8
	c4.7-14.1,17.9-23.7,32.8-23.8l0.1-9.2C430.2,159.4,413.5,171.6,407.6,189.5"/>
<path id="Path_435_00000098188968201198191790000012169252262771522479_" class="st1" d="M449.2,203.1l-33-10.5l0.1-0.2
	c4.7-14.2,18-23.9,33-24h0.2L449.2,203.1z M416.6,192.4l32.3,10.3l0.2-33.9C434.4,168.9,421.3,178.4,416.6,192.4"/>
<path id="Path_436_00000047779726393325856790000014359395865192671364_" class="st1" d="M431.5,185.5c9.9-9.9,26-9.9,35.9,0
	c9.9,9.9,9.9,26,0,35.9c-9.9,9.9-26,9.9-35.9,0c0,0,0,0,0,0C421.6,211.5,421.6,195.4,431.5,185.5"/>
<path id="Path_437_00000018209199596756436760000004629999147792783502_" class="st13" d="M438.5,201.8l-1.3-4.2h1l0.5,2
	c0.1,0.2,0.1,0.5,0.2,0.7c0.1,0.2,0.1,0.5,0.2,0.7h0c0.1-0.2,0.1-0.5,0.2-0.7c0.1-0.2,0.1-0.5,0.2-0.7l0.5-2h1l-1.3,4.2H438.5z"/>
<path id="Path_438_00000021104348282526443490000009915761953983960752_" class="st13" d="M442.1,198.2c-0.1,0-0.3-0.1-0.4-0.2
	c-0.2-0.2-0.2-0.5,0-0.7c0,0,0,0,0,0c0.2-0.2,0.6-0.2,0.8,0c0.2,0.2,0.2,0.5,0,0.7C442.4,198.1,442.3,198.2,442.1,198.2
	 M441.6,198.6h1v3.2h-1L441.6,198.6z"/>
<path id="Path_439_00000172404591564732963930000011540208690554794381_" class="st13" d="M444.7,201.9c-0.2,0-0.5,0-0.7-0.1
	c-0.2-0.1-0.4-0.2-0.6-0.3l0.4-0.6c0.1,0.1,0.3,0.2,0.4,0.2c0.1,0,0.3,0.1,0.4,0.1c0.1,0,0.2,0,0.3-0.1c0.1-0.1,0.1-0.1,0.1-0.2
	c0-0.1,0-0.1-0.1-0.2c0,0-0.1-0.1-0.2-0.1c-0.1,0-0.1-0.1-0.2-0.1c-0.1,0-0.2-0.1-0.2-0.1c-0.1,0-0.2-0.1-0.3-0.2l-0.3-0.2
	c-0.1-0.1-0.2-0.2-0.2-0.3c-0.1-0.1-0.1-0.2-0.1-0.4c0-0.1,0-0.3,0.1-0.4c0.1-0.1,0.1-0.2,0.2-0.3c0.1-0.1,0.3-0.2,0.4-0.2
	c0.4-0.1,0.8-0.1,1.2,0.1c0.2,0.1,0.3,0.2,0.5,0.3l-0.4,0.6c-0.1-0.1-0.2-0.2-0.3-0.2c-0.1,0-0.2-0.1-0.3-0.1
	c-0.2,0-0.4,0.1-0.4,0.2c0,0,0,0.1,0.1,0.1c0,0,0.1,0.1,0.2,0.1c0.1,0,0.1,0.1,0.2,0.1c0.1,0,0.2,0.1,0.2,0.1c0.1,0,0.2,0.1,0.3,0.1
	c0.1,0,0.2,0.1,0.3,0.2c0.1,0.1,0.2,0.2,0.2,0.3c0.1,0.1,0.1,0.3,0.1,0.4c0,0.1,0,0.3-0.1,0.4c-0.1,0.1-0.1,0.2-0.2,0.3
	c-0.1,0.1-0.3,0.2-0.4,0.2C445.1,201.9,444.9,202,444.7,201.9"/>
<path id="Path_440_00000183947158196267704760000011374461933951409077_" class="st13" d="M447.4,198.2c-0.1,0-0.3-0.1-0.4-0.2
	c-0.2-0.2-0.2-0.5,0-0.7c0,0,0,0,0,0c0.2-0.2,0.6-0.2,0.8,0c0.2,0.2,0.2,0.5,0,0.7c0,0,0,0,0,0C447.7,198.1,447.6,198.2,447.4,198.2
	 M447,198.6h1v3.2h-1V198.6z"/>
<path id="Path_441_00000069382063472538240890000012441425862277071519_" class="st13" d="M450.5,201.9c-0.2,0-0.4,0-0.6-0.1
	c-0.2-0.1-0.4-0.2-0.5-0.3c-0.1-0.1-0.3-0.3-0.3-0.5c-0.1-0.2-0.1-0.5-0.1-0.7c0-0.2,0-0.5,0.1-0.7c0.1-0.2,0.2-0.4,0.3-0.5
	c0.1-0.1,0.3-0.3,0.5-0.3c0.2-0.1,0.4-0.1,0.6-0.1c0.2,0,0.4,0,0.6,0.1c0.2,0.1,0.3,0.2,0.4,0.3c0.1,0.1,0.2,0.3,0.2,0.5
	c0.1,0.2,0.1,0.4,0.1,0.6v0.2c0,0.1,0,0.1,0,0.2h-1.9c0,0.2,0.1,0.4,0.3,0.5c0.2,0.1,0.4,0.2,0.5,0.2c0.2,0,0.5-0.1,0.7-0.2l0.3,0.6
	c-0.2,0.1-0.3,0.2-0.5,0.3C450.9,201.9,450.7,201.9,450.5,201.9 M449.8,199.9h1.2c0-0.2,0-0.3-0.1-0.5c-0.1-0.1-0.3-0.2-0.4-0.2
	c-0.1,0-0.3,0.1-0.4,0.2C449.9,199.5,449.8,199.7,449.8,199.9"/>
<path id="Path_442_00000150103363215631236810000006211268836440544391_" class="st13" d="M455.8,201.9c-0.2,0-0.4,0-0.6-0.1
	c-0.4-0.1-0.7-0.5-0.8-0.8c-0.2-0.5-0.2-1,0-1.5c0.1-0.4,0.5-0.7,0.8-0.8c0.2-0.1,0.4-0.1,0.6-0.1c0.2,0,0.4,0,0.6,0.1
	c0.2,0.1,0.4,0.2,0.5,0.3c0.1,0.1,0.3,0.3,0.3,0.5c0.2,0.5,0.2,1,0,1.5c-0.1,0.4-0.5,0.7-0.8,0.8C456.2,201.9,456,201.9,455.8,201.9
	 M455.8,201.2c0.2,0,0.3-0.1,0.5-0.2c0.2-0.4,0.2-0.9,0-1.3c-0.1-0.2-0.3-0.3-0.5-0.2c-0.2,0-0.4,0.1-0.5,0.2
	c-0.2,0.4-0.2,0.9,0,1.3C455.4,201.1,455.6,201.2,455.8,201.2"/>
<path id="Path_443_00000098924469838260518570000008069395606081055622_" class="st13" d="M458.3,203.1v-4.4h0.8l0.1,0.3h0
	c0.1-0.1,0.3-0.2,0.4-0.3c0.2-0.1,0.3-0.1,0.5-0.1c0.2,0,0.4,0,0.5,0.1c0.2,0.1,0.3,0.2,0.4,0.3c0.1,0.2,0.2,0.3,0.2,0.5
	c0.1,0.2,0.1,0.4,0.1,0.7c0,0.2,0,0.5-0.1,0.7c-0.1,0.2-0.2,0.4-0.3,0.5c-0.1,0.1-0.3,0.3-0.4,0.3c-0.2,0.1-0.3,0.1-0.5,0.1
	c-0.1,0-0.3,0-0.4-0.1c-0.1-0.1-0.2-0.2-0.4-0.2l0,0.5v0.9H458.3L458.3,203.1z M459.8,201.1c0.2,0,0.3-0.1,0.4-0.2
	c0.1-0.2,0.2-0.5,0.2-0.7c0-0.6-0.2-0.9-0.5-0.9c-0.2,0-0.4,0.1-0.5,0.3v1.3c0.1,0.1,0.2,0.1,0.3,0.2
	C459.6,201.1,459.7,201.1,459.8,201.1"/>
<path id="Path_444_00000071554354518837151550000016929619593619765133_" class="st13" d="M435.7,209.7c-0.3,0-0.5-0.1-0.8-0.2
	c-0.2-0.1-0.4-0.2-0.6-0.4c-0.2-0.2-0.3-0.4-0.4-0.7c-0.1-0.3-0.2-0.6-0.2-0.9c0-0.3,0.1-0.6,0.2-0.9c0.1-0.3,0.2-0.5,0.4-0.7
	c0.2-0.2,0.4-0.3,0.6-0.4c0.5-0.2,1.1-0.2,1.6,0c0.2,0.1,0.4,0.2,0.6,0.4c0.2,0.2,0.3,0.4,0.4,0.7c0.1,0.3,0.2,0.6,0.2,0.9
	c0,0.3-0.1,0.6-0.2,0.9c-0.1,0.3-0.2,0.5-0.4,0.7c-0.2,0.2-0.4,0.3-0.6,0.4C436.2,209.7,435.9,209.7,435.7,209.7 M435.7,208.9
	c0.3,0,0.5-0.1,0.7-0.4c0.2-0.3,0.3-0.7,0.2-1c0-0.3-0.1-0.7-0.2-1c-0.3-0.4-0.8-0.5-1.2-0.2c-0.1,0.1-0.2,0.1-0.2,0.2
	c-0.2,0.3-0.3,0.6-0.2,1c0,0.4,0.1,0.7,0.2,1C435.1,208.8,435.4,208.9,435.7,208.9"/>
<path id="Path_445_00000144315589383798347880000002170617680516997020_" class="st13" d="M438.6,209.7v-3.2h0.8l0.1,0.4h0
	c0.1-0.1,0.3-0.2,0.5-0.3c0.2-0.1,0.4-0.2,0.6-0.2c0.3,0,0.6,0.1,0.8,0.3c0.2,0.3,0.3,0.6,0.2,1v2h-1v-1.9c0-0.2,0-0.3-0.1-0.5
	c-0.1-0.1-0.2-0.1-0.3-0.1c-0.1,0-0.2,0-0.3,0.1c-0.1,0.1-0.2,0.1-0.3,0.2v2.2L438.6,209.7L438.6,209.7z"/>
<path id="Path_446_00000166637659588530165320000003119980473208192400_" class="st13" d="M443.9,209.7c-0.2,0-0.4,0-0.5-0.1
	c-0.2-0.1-0.3-0.2-0.4-0.3c-0.1-0.2-0.2-0.3-0.3-0.5c-0.1-0.2-0.1-0.5-0.1-0.7c0-0.2,0-0.5,0.1-0.7c0.1-0.2,0.2-0.4,0.3-0.5
	c0.1-0.1,0.3-0.2,0.4-0.3c0.1-0.1,0.3-0.1,0.5-0.1c0.2,0,0.3,0,0.5,0.1c0.1,0.1,0.2,0.1,0.3,0.2l0-0.5v-1.1h1v4.5h-0.8l-0.1-0.3h0
	c-0.1,0.1-0.2,0.2-0.4,0.3C444.2,209.7,444,209.7,443.9,209.7 M444.1,209c0.1,0,0.2,0,0.3-0.1c0.1,0,0.2-0.1,0.2-0.2v-1.3
	c-0.1-0.1-0.2-0.1-0.3-0.2c-0.1,0-0.2-0.1-0.3-0.1c-0.2,0-0.3,0.1-0.4,0.2c-0.1,0.2-0.2,0.4-0.2,0.7c0,0.2,0,0.5,0.2,0.7
	C443.7,208.9,443.9,209,444.1,209"/>
<path id="Path_447_00000142877421301402981890000000427768305768815274_" class="st13" d="M448.2,209.7c-0.2,0-0.4,0-0.6-0.1
	c-0.2-0.1-0.4-0.2-0.5-0.3c-0.1-0.1-0.3-0.3-0.3-0.5c-0.1-0.2-0.1-0.5-0.1-0.7c0-0.2,0-0.5,0.1-0.7c0.1-0.2,0.2-0.4,0.3-0.5
	c0.1-0.1,0.3-0.3,0.5-0.3c0.2-0.1,0.4-0.1,0.6-0.1c0.2,0,0.4,0,0.6,0.1c0.2,0.1,0.3,0.2,0.4,0.3c0.1,0.1,0.2,0.3,0.2,0.5
	c0.1,0.2,0.1,0.4,0.1,0.6v0.2c0,0.1,0,0.2,0,0.2h-1.9c0,0.2,0.1,0.4,0.3,0.5c0.2,0.1,0.4,0.2,0.5,0.2c0.2,0,0.5-0.1,0.7-0.2l0.3,0.6
	c-0.2,0.1-0.3,0.2-0.5,0.3C448.6,209.7,448.4,209.7,448.2,209.7 M447.5,207.7h1.2c0-0.2,0-0.3-0.1-0.5c-0.1-0.1-0.3-0.2-0.4-0.2
	c-0.1,0-0.3,0.1-0.4,0.2C447.6,207.4,447.5,207.5,447.5,207.7"/>
<path id="Path_448_00000152254480891375918890000017946657124918273928_" class="st13" d="M450.4,209.7v-3.2h0.8l0.1,0.6h0
	c0.1-0.2,0.2-0.4,0.4-0.5c0.1-0.1,0.3-0.1,0.5-0.2c0.1,0,0.1,0,0.2,0c0.1,0,0.1,0,0.2,0.1l-0.2,0.8c-0.1,0-0.1,0-0.2,0h-0.2
	c-0.1,0-0.3,0-0.4,0.1c-0.1,0.1-0.3,0.3-0.3,0.5v1.9L450.4,209.7L450.4,209.7z"/>
<path id="Path_449_00000031930299830006669740000006045998400280354223_" class="st13" d="M453.9,209.7l-0.8-3.2h0.9l0.3,1.5
	c0,0.2,0.1,0.3,0.1,0.5c0,0.2,0.1,0.3,0.1,0.5h0c0-0.2,0.1-0.3,0.1-0.5l0.1-0.5l0.4-1.5h0.8l0.4,1.5c0,0.2,0.1,0.3,0.1,0.5
	s0.1,0.3,0.1,0.5h0c0-0.2,0.1-0.3,0.1-0.5c0-0.2,0-0.3,0.1-0.5l0.3-1.5h0.9l-0.8,3.2h-1.1l-0.3-1.3l-0.1-0.5c0-0.2-0.1-0.3-0.1-0.5
	h0c0,0.2-0.1,0.3-0.1,0.5l-0.1,0.5l-0.3,1.3L453.9,209.7L453.9,209.7z"/>
<path id="Path_450_00000018236133166511253690000011856634828200773281_" class="st13" d="M459.2,206c-0.1,0-0.3-0.1-0.4-0.2
	c-0.2-0.2-0.2-0.5,0-0.7c0,0,0,0,0,0c0.2-0.2,0.6-0.2,0.8,0c0.2,0.2,0.2,0.5,0,0.7c0,0,0,0,0,0C459.5,205.9,459.4,206,459.2,206
	 M458.8,206.5h1v3.2h-1V206.5z"/>
<path id="Path_451_00000109745644715333297890000011934742190711808929_" class="st13" d="M460.7,210.9c-0.1,0-0.2,0-0.3,0
	c-0.1,0-0.2,0-0.2-0.1l0.2-0.7c0,0,0.1,0,0.1,0h0.1c0.1,0,0.2,0,0.3-0.1c0.1-0.1,0.1-0.3,0.1-0.4v-3.2h1v3.2c0,0.2,0,0.3-0.1,0.5
	c0,0.2-0.1,0.3-0.2,0.4c-0.1,0.1-0.2,0.2-0.4,0.3C461.1,210.9,460.9,210.9,460.7,210.9 M461.4,206c-0.1,0-0.3-0.1-0.4-0.2
	c-0.2-0.2-0.2-0.5,0-0.7c0,0,0,0,0,0c0.2-0.2,0.6-0.2,0.8,0c0.2,0.2,0.2,0.5,0,0.7c0,0,0,0,0,0C461.6,205.9,461.5,206,461.4,206"/>
<path id="Path_452_00000035495564987213877160000007488629740627770261_" class="st13" d="M464,209.7c-0.2,0-0.5,0-0.7-0.1
	c-0.2-0.1-0.4-0.2-0.6-0.3l0.4-0.6c0.1,0.1,0.3,0.2,0.4,0.2c0.1,0.1,0.3,0.1,0.4,0.1c0.1,0,0.2,0,0.3-0.1c0.1-0.1,0.1-0.1,0.1-0.2
	c0-0.1,0-0.1-0.1-0.2c0,0-0.1-0.1-0.2-0.1c-0.1,0-0.1-0.1-0.2-0.1c-0.1,0-0.2-0.1-0.2-0.1c-0.1,0-0.2-0.1-0.3-0.2l-0.3-0.2
	c-0.1-0.1-0.2-0.2-0.2-0.3c-0.1-0.1-0.1-0.2-0.1-0.4c0-0.1,0-0.3,0.1-0.4c0.1-0.1,0.1-0.2,0.2-0.3c0.1-0.1,0.3-0.2,0.4-0.2
	c0.4-0.1,0.8-0.1,1.2,0.1c0.2,0.1,0.3,0.2,0.5,0.3l-0.4,0.6c-0.1-0.1-0.2-0.2-0.3-0.2c-0.1,0-0.2-0.1-0.3-0.1
	c-0.2,0-0.4,0.1-0.4,0.2c0,0,0,0.1,0.1,0.1c0,0,0.1,0.1,0.2,0.1c0.1,0,0.1,0.1,0.2,0.1c0.1,0,0.2,0.1,0.2,0.1c0.1,0,0.2,0.1,0.3,0.1
	l0.3,0.2c0.1,0.1,0.2,0.2,0.2,0.3c0.1,0.1,0.1,0.3,0.1,0.4c0,0.1,0,0.3-0.1,0.4c-0.1,0.1-0.1,0.2-0.2,0.3c-0.1,0.1-0.3,0.2-0.4,0.2
	C464.4,209.7,464.2,209.7,464,209.7"/>
<path id="Path_453_00000173157671228855656940000011355972335951825590_" class="st13" d="M429.3,183v-0.7h0.8v-2.2h-0.7v-0.5
	c0.2,0,0.4-0.1,0.5-0.2c0.1-0.1,0.3-0.1,0.4-0.2h0.6v3.1h0.7v0.7L429.3,183L429.3,183z"/>
<path id="Path_454_00000181789792610430223710000012169494545868803488_" class="st13" d="M420,214.3v-0.7h0.8v-2.2h-0.7v-0.5
	c0.2,0,0.4-0.1,0.5-0.2c0.1-0.1,0.3-0.1,0.4-0.2h0.6v3.1h0.7v0.7L420,214.3L420,214.3z"/>
<path id="Path_455_00000029020572026098120330000007375298643535474087_" class="st13" d="M476.3,214.3v-0.7h0.8v-2.2h-0.7v-0.5
	c0.2,0,0.4-0.1,0.5-0.2c0.1-0.1,0.3-0.1,0.4-0.2h0.6v3.1h0.7v0.7L476.3,214.3L476.3,214.3z"/>
<path id="Path_456_00000011004560789242174050000011075922852880292750_" class="st13" d="M484.8,219.3v-0.5
	c0.2-0.2,0.5-0.4,0.7-0.6c0.2-0.2,0.4-0.4,0.5-0.5c0.1-0.2,0.2-0.3,0.3-0.5c0.1-0.1,0.1-0.3,0.1-0.4c0-0.2,0-0.3-0.2-0.4
	c-0.1-0.1-0.2-0.2-0.4-0.2c-0.1,0-0.3,0-0.4,0.1c-0.1,0.1-0.2,0.2-0.3,0.3l-0.5-0.5c0.2-0.2,0.4-0.3,0.6-0.5
	c0.2-0.1,0.5-0.2,0.7-0.2c0.2,0,0.4,0,0.5,0.1c0.1,0.1,0.3,0.1,0.4,0.2c0.1,0.1,0.2,0.2,0.2,0.4c0.1,0.2,0.1,0.3,0.1,0.5
	c0,0.2,0,0.3-0.1,0.5c-0.1,0.2-0.2,0.3-0.3,0.5c-0.1,0.2-0.3,0.3-0.4,0.5c-0.2,0.2-0.3,0.3-0.5,0.5c0.1,0,0.2,0,0.3,0h1.1v0.7H484.8
	z"/>
<path id="Path_457_00000100361191314688495960000009734828546712059572_" class="st13" d="M494.2,225.1c-0.3,0-0.5,0-0.8-0.2
	c-0.2-0.1-0.4-0.2-0.5-0.4l0.4-0.5c0.1,0.1,0.2,0.2,0.4,0.3c0.1,0.1,0.3,0.1,0.5,0.1c0.2,0,0.3,0,0.5-0.1c0.1-0.1,0.2-0.2,0.2-0.3
	c0-0.1,0-0.1,0-0.2c0-0.1-0.1-0.1-0.2-0.2c-0.1-0.1-0.2-0.1-0.3-0.1c-0.2,0-0.3,0-0.5,0v-0.6c0.1,0,0.3,0,0.4,0
	c0.1,0,0.2-0.1,0.3-0.1c0.1,0,0.1-0.1,0.2-0.2c0-0.1,0-0.1,0-0.2c0-0.1,0-0.2-0.1-0.3c-0.1-0.1-0.2-0.1-0.3-0.1
	c-0.1,0-0.3,0-0.4,0.1c-0.1,0.1-0.2,0.2-0.3,0.2l-0.4-0.5c0.2-0.1,0.4-0.3,0.5-0.4c0.2-0.1,0.4-0.1,0.6-0.1c0.2,0,0.3,0,0.5,0.1
	c0.1,0,0.3,0.1,0.4,0.2c0.1,0.1,0.2,0.2,0.3,0.3c0.1,0.1,0.1,0.3,0.1,0.4c0,0.2-0.1,0.4-0.2,0.5c-0.1,0.1-0.3,0.2-0.5,0.3v0
	c0.2,0.1,0.4,0.2,0.5,0.3c0.2,0.2,0.2,0.4,0.2,0.6c0,0.2,0,0.3-0.1,0.5c-0.1,0.1-0.2,0.2-0.3,0.3c-0.1,0.1-0.3,0.2-0.5,0.2
	C494.6,225,494.4,225.1,494.2,225.1"/>
<path id="Path_458_00000043445510990649314060000006345461035014642315_" class="st13" d="M502.9,230.5v-0.9h-1.6V229l1.4-2.3h1.1
	v2.2h0.4v0.7h-0.4v0.9L502.9,230.5L502.9,230.5z M502.1,228.9h0.8v-1c0-0.2,0-0.3,0-0.4h0c-0.1,0.1-0.1,0.2-0.2,0.3
	c-0.1,0.1-0.1,0.2-0.2,0.3L502.1,228.9z"/>
<path id="Path_459_00000162323310173874930190000015906960505837944467_" class="st13" d="M410.6,218.2v-0.5
	c0.2-0.2,0.5-0.4,0.7-0.6s0.4-0.4,0.5-0.5c0.1-0.2,0.2-0.3,0.3-0.5c0.1-0.1,0.1-0.3,0.1-0.4c0-0.2,0-0.3-0.2-0.4
	c-0.1-0.1-0.2-0.2-0.4-0.2c-0.1,0-0.3,0-0.4,0.1c-0.1,0.1-0.2,0.2-0.3,0.3l-0.5-0.5c0.2-0.2,0.4-0.3,0.6-0.5
	c0.2-0.1,0.5-0.2,0.7-0.2c0.2,0,0.4,0,0.5,0.1c0.1,0.1,0.3,0.1,0.4,0.2c0.1,0.1,0.2,0.2,0.2,0.4c0.1,0.2,0.1,0.3,0.1,0.5
	c0,0.2,0,0.3-0.1,0.5c-0.1,0.2-0.2,0.3-0.3,0.5c-0.1,0.2-0.3,0.3-0.4,0.5c-0.2,0.2-0.3,0.3-0.5,0.5c0.1,0,0.2,0,0.3,0h1.1v0.7
	L410.6,218.2z"/>
<path id="Path_460_00000111898681484736352510000003687291723361520015_" class="st13" d="M403.4,222.2c-0.3,0-0.5,0-0.8-0.2
	c-0.2-0.1-0.4-0.2-0.5-0.4l0.4-0.5c0.1,0.1,0.2,0.2,0.4,0.3c0.1,0.1,0.3,0.1,0.5,0.1c0.2,0,0.3,0,0.5-0.1c0.1-0.1,0.2-0.2,0.2-0.3
	c0-0.1,0-0.1,0-0.2c0-0.1-0.1-0.1-0.2-0.2c-0.1-0.1-0.2-0.1-0.3-0.1c-0.2,0-0.3,0-0.5,0v-0.6c0.1,0,0.3,0,0.4,0
	c0.1,0,0.2-0.1,0.3-0.1c0.1,0,0.1-0.1,0.2-0.2c0-0.1,0-0.1,0-0.2c0-0.1,0-0.2-0.1-0.3c-0.1-0.1-0.2-0.1-0.3-0.1
	c-0.1,0-0.3,0-0.4,0.1c-0.1,0.1-0.2,0.2-0.3,0.2l-0.4-0.5c0.2-0.1,0.4-0.3,0.5-0.4c0.2-0.1,0.4-0.1,0.6-0.1c0.2,0,0.3,0,0.5,0.1
	c0.1,0,0.3,0.1,0.4,0.2c0.1,0.1,0.2,0.2,0.3,0.3c0.1,0.1,0.1,0.3,0.1,0.4c0,0.2-0.1,0.4-0.2,0.5c-0.1,0.1-0.3,0.2-0.5,0.3v0
	c0.2,0.1,0.4,0.2,0.5,0.3c0.2,0.2,0.2,0.4,0.2,0.6c0,0.2,0,0.3-0.1,0.5c-0.1,0.1-0.2,0.2-0.3,0.3c-0.1,0.1-0.3,0.2-0.5,0.2
	C403.7,222.2,403.6,222.2,403.4,222.2"/>
<path id="Path_461_00000017486821006901253750000015743291656781980324_" class="st13" d="M395.4,226.9V226h-1.6v-0.6l1.4-2.3h1.1
	v2.2h0.4v0.7h-0.4v0.9L395.4,226.9L395.4,226.9z M394.6,225.3h0.8v-1c0-0.2,0-0.3,0-0.4h0c-0.1,0.1-0.1,0.2-0.2,0.3
	c-0.1,0.1-0.1,0.2-0.2,0.3L394.6,225.3z"/>
<path id="Path_462_00000049203911693863451060000017401224771418558362_" class="st13" d="M467.9,183v-0.7h0.8v-2.2H468v-0.5
	c0.2,0,0.4-0.1,0.5-0.2c0.1-0.1,0.3-0.1,0.4-0.2h0.6v3.1h0.7v0.7L467.9,183L467.9,183z"/>
<path id="Path_463_00000034770619771409238280000006581971707598048393_" class="st13" d="M448.5,235.7V235h0.8v-2.2h-0.7v-0.5
	c0.2,0,0.4-0.1,0.5-0.2c0.1-0.1,0.3-0.1,0.4-0.2h0.6v3.1h0.7v0.7L448.5,235.7L448.5,235.7z"/>
<path id="Path_464_00000154422395667060444680000003186174583976488064_" class="st13" d="M448.3,244.7v-0.5
	c0.2-0.2,0.5-0.4,0.7-0.6c0.2-0.2,0.4-0.4,0.5-0.5c0.1-0.2,0.2-0.3,0.3-0.5c0.1-0.1,0.1-0.3,0.1-0.4c0-0.2,0-0.3-0.2-0.4
	c-0.1-0.1-0.2-0.2-0.4-0.2c-0.1,0-0.3,0-0.4,0.1c-0.1,0.1-0.2,0.2-0.3,0.3l-0.5-0.5c0.2-0.2,0.4-0.3,0.6-0.5
	c0.2-0.1,0.5-0.2,0.7-0.2c0.2,0,0.4,0,0.5,0.1c0.1,0.1,0.3,0.1,0.4,0.2c0.1,0.1,0.2,0.2,0.2,0.4c0.1,0.2,0.1,0.3,0.1,0.5
	c0,0.2,0,0.3-0.1,0.5c-0.1,0.2-0.2,0.3-0.3,0.5c-0.1,0.2-0.3,0.3-0.4,0.5c-0.2,0.2-0.3,0.3-0.5,0.5c0.1,0,0.2,0,0.3,0h1.1v0.7
	L448.3,244.7z"/>
<path id="Path_465_00000092443752563904994500000008890451224968491686_" class="st13" d="M449.5,254.6c-0.3,0-0.5,0-0.8-0.2
	c-0.2-0.1-0.4-0.2-0.5-0.4l0.4-0.5c0.1,0.1,0.2,0.2,0.4,0.3c0.1,0.1,0.3,0.1,0.5,0.1c0.2,0,0.3,0,0.5-0.1c0.1-0.1,0.2-0.2,0.2-0.3
	c0-0.1,0-0.1,0-0.2c0-0.1-0.1-0.1-0.2-0.2c-0.1-0.1-0.2-0.1-0.3-0.1c-0.2,0-0.3,0-0.5,0v-0.6c0.1,0,0.3,0,0.4,0
	c0.1,0,0.2-0.1,0.3-0.1c0.1,0,0.1-0.1,0.2-0.2c0-0.1,0-0.1,0-0.2c0-0.1,0-0.2-0.1-0.3c-0.1-0.1-0.2-0.1-0.3-0.1
	c-0.1,0-0.3,0-0.4,0.1c-0.1,0.1-0.2,0.2-0.3,0.2l-0.4-0.5c0.2-0.1,0.4-0.3,0.5-0.4c0.2-0.1,0.4-0.1,0.6-0.1c0.2,0,0.3,0,0.5,0.1
	c0.1,0,0.3,0.1,0.4,0.2c0.1,0.1,0.2,0.2,0.3,0.3c0.1,0.1,0.1,0.3,0.1,0.4c0,0.2-0.1,0.4-0.2,0.5c-0.1,0.1-0.3,0.2-0.5,0.3v0
	c0.2,0.1,0.4,0.2,0.5,0.3c0.2,0.2,0.2,0.4,0.2,0.6c0,0.2,0,0.3-0.1,0.5c-0.1,0.1-0.2,0.2-0.3,0.3c-0.1,0.1-0.3,0.2-0.5,0.2
	C449.9,254.6,449.7,254.6,449.5,254.6"/>
<path id="Path_466_00000083089485048724639380000015601849639791649423_" class="st13" d="M449.8,263.8v-0.9h-1.6v-0.6l1.4-2.3h1.1
	v2.2h0.4v0.7h-0.4v0.9L449.8,263.8L449.8,263.8z M449,262.2h0.8v-1c0-0.2,0-0.3,0-0.4h0c-0.1,0.1-0.1,0.2-0.2,0.3
	c-0.1,0.1-0.1,0.2-0.2,0.3L449,262.2z"/>
<path id="Path_467_00000073683455336125158280000001392016538893263536_" class="st13" d="M474.8,175.9v-0.5
	c0.2-0.2,0.5-0.4,0.7-0.6c0.2-0.2,0.4-0.4,0.5-0.5c0.1-0.2,0.2-0.3,0.3-0.5c0.1-0.1,0.1-0.3,0.1-0.4c0-0.2,0-0.3-0.2-0.4
	c-0.1-0.1-0.2-0.2-0.4-0.2c-0.1,0-0.3,0-0.4,0.1c-0.1,0.1-0.2,0.2-0.3,0.3l-0.5-0.5c0.2-0.2,0.4-0.3,0.6-0.5
	c0.2-0.1,0.5-0.2,0.7-0.2c0.2,0,0.4,0,0.5,0.1c0.1,0.1,0.3,0.1,0.4,0.2c0.1,0.1,0.2,0.2,0.2,0.4c0.1,0.2,0.1,0.3,0.1,0.5
	c0,0.2,0,0.3-0.1,0.5c-0.1,0.2-0.2,0.3-0.3,0.5c-0.1,0.2-0.3,0.3-0.4,0.5c-0.2,0.2-0.3,0.3-0.5,0.5c0.1,0,0.2,0,0.3,0h1.1v0.7H474.8
	z"/>
<path id="Path_468_00000021098928516952445960000011796028367396299422_" class="st13" d="M482.4,169.5c-0.3,0-0.5,0-0.8-0.2
	c-0.2-0.1-0.4-0.2-0.5-0.4l0.4-0.5c0.1,0.1,0.2,0.2,0.4,0.3c0.1,0.1,0.3,0.1,0.5,0.1c0.2,0,0.3,0,0.5-0.1c0.1-0.1,0.2-0.2,0.2-0.3
	c0-0.1,0-0.1,0-0.2c0-0.1-0.1-0.1-0.2-0.2c-0.1-0.1-0.2-0.1-0.3-0.1c-0.2,0-0.3,0-0.5,0v-0.6c0.1,0,0.3,0,0.4,0
	c0.1,0,0.2-0.1,0.3-0.1c0.1,0,0.1-0.1,0.2-0.2c0-0.1,0-0.1,0-0.2c0-0.1,0-0.2-0.1-0.3c-0.1-0.1-0.2-0.1-0.3-0.1
	c-0.1,0-0.3,0-0.4,0.1c-0.1,0.1-0.2,0.2-0.3,0.2l-0.4-0.5c0.2-0.1,0.4-0.3,0.5-0.4c0.2-0.1,0.4-0.1,0.6-0.1c0.2,0,0.3,0,0.5,0.1
	c0.1,0,0.3,0.1,0.4,0.2c0.1,0.1,0.2,0.2,0.3,0.3c0.1,0.1,0.1,0.3,0.1,0.4c0,0.2-0.1,0.4-0.2,0.5c-0.1,0.1-0.3,0.2-0.5,0.3v0
	c0.2,0.1,0.4,0.2,0.5,0.3c0.2,0.2,0.2,0.4,0.2,0.6c0,0.2,0,0.3-0.1,0.5c-0.1,0.1-0.2,0.2-0.3,0.3c-0.1,0.1-0.3,0.2-0.5,0.2
	C482.8,169.5,482.6,169.5,482.4,169.5"/>
<path id="Path_469_00000103975057824635322890000005950757650814705303_" class="st13" d="M489.6,162.6v-0.9H488v-0.6l1.4-2.3h1.1
	v2.2h0.4v0.7h-0.4v0.9L489.6,162.6L489.6,162.6z M488.8,161h0.8v-1c0-0.2,0-0.3,0-0.4h0c-0.1,0.1-0.1,0.2-0.2,0.3
	c-0.1,0.1-0.1,0.2-0.2,0.3L488.8,161z"/>
<path id="Path_470_00000005981192305039676630000009875297227796526743_" class="st13" d="M422,175.8v-0.5c0.2-0.2,0.5-0.4,0.7-0.6
	c0.2-0.2,0.4-0.4,0.5-0.5c0.1-0.2,0.2-0.3,0.3-0.5c0.1-0.1,0.1-0.3,0.1-0.4c0-0.2,0-0.3-0.2-0.4c-0.1-0.1-0.2-0.2-0.4-0.2
	c-0.1,0-0.3,0-0.4,0.1c-0.1,0.1-0.2,0.2-0.3,0.3l-0.5-0.5c0.2-0.2,0.4-0.3,0.6-0.5c0.2-0.1,0.5-0.2,0.7-0.2c0.2,0,0.4,0,0.5,0.1
	c0.1,0.1,0.3,0.1,0.4,0.2c0.1,0.1,0.2,0.2,0.2,0.4c0.1,0.2,0.1,0.3,0.1,0.5c0,0.2,0,0.3-0.1,0.5c-0.1,0.2-0.2,0.3-0.3,0.5
	c-0.1,0.2-0.3,0.3-0.4,0.5c-0.2,0.2-0.3,0.3-0.5,0.5c0.1,0,0.2,0,0.3,0h1.1v0.7L422,175.8z"/>
<path id="Path_471_00000134245221448388118580000017816463163486915756_" class="st13" d="M416.3,169c-0.3,0-0.5,0-0.8-0.2
	c-0.2-0.1-0.4-0.2-0.5-0.4l0.4-0.5c0.1,0.1,0.2,0.2,0.4,0.3c0.1,0.1,0.3,0.1,0.5,0.1c0.2,0,0.3,0,0.5-0.1c0.1-0.1,0.2-0.2,0.2-0.3
	c0-0.1,0-0.1,0-0.2c0-0.1-0.1-0.1-0.2-0.2c-0.1-0.1-0.2-0.1-0.3-0.1c-0.2,0-0.3,0-0.5,0v-0.6c0.1,0,0.3,0,0.4,0
	c0.1,0,0.2-0.1,0.3-0.1c0.1,0,0.1-0.1,0.2-0.2c0-0.1,0-0.1,0-0.2c0-0.1,0-0.2-0.1-0.3c-0.1-0.1-0.2-0.1-0.3-0.1
	c-0.1,0-0.3,0-0.4,0.1c-0.1,0.1-0.2,0.2-0.3,0.2l-0.4-0.5c0.2-0.1,0.4-0.3,0.5-0.4c0.2-0.1,0.4-0.1,0.6-0.1c0.2,0,0.3,0,0.5,0.1
	c0.1,0,0.3,0.1,0.4,0.2c0.1,0.1,0.2,0.2,0.3,0.3c0.1,0.1,0.1,0.3,0.1,0.4c0,0.2-0.1,0.4-0.2,0.5c-0.1,0.1-0.3,0.2-0.5,0.3v0
	c0.2,0.1,0.4,0.2,0.5,0.3c0.2,0.2,0.2,0.4,0.2,0.6c0,0.2,0,0.3-0.1,0.5c-0.1,0.1-0.2,0.2-0.3,0.3c-0.1,0.1-0.3,0.2-0.5,0.2
	C416.6,169,416.5,169,416.3,169"/>
<path id="Path_472_00000021810693053172150890000017033151921109748383_" class="st13" d="M409.8,162.1v-0.9h-1.6v-0.6l1.4-2.3h1.1
	v2.2h0.4v0.7h-0.4v0.9L409.8,162.1L409.8,162.1z M409,160.6h0.8v-1c0-0.2,0-0.3,0-0.4h0c-0.1,0.1-0.1,0.2-0.2,0.3
	c-0.1,0.1-0.1,0.2-0.2,0.3L409,160.6z"/>
<path id="Path_473_00000073699746957151008060000004623042373901694140_" class="st13" d="M397,163.4l-1.5-1.2l-0.4,0.5l-0.4-0.3
	l1.1-1.5l0.4,0.3l-0.4,0.5l1.5,1.2L397,163.4z"/>
<path id="Path_474_00000168087167643694297340000015095418802529544837_" class="st13" d="M398.3,161.7c-0.1,0.1-0.1,0.2-0.2,0.2
	c-0.1,0.1-0.2,0.1-0.3,0.1c-0.1,0-0.2,0-0.4,0c-0.1,0-0.3-0.1-0.4-0.2c-0.1-0.1-0.2-0.2-0.3-0.3c-0.1-0.1-0.1-0.2-0.1-0.3
	c0-0.1,0-0.2,0-0.3c0-0.1,0.1-0.2,0.2-0.3c0.1-0.1,0.1-0.2,0.2-0.2c0.1-0.1,0.2-0.1,0.3-0.1c0.1,0,0.2,0,0.3,0
	c0.1,0,0.3,0.1,0.4,0.2c0.1,0.1,0.2,0.2,0.3,0.3c0.1,0.1,0.1,0.2,0.1,0.3c0,0.1,0,0.2,0,0.3C398.5,161.5,398.4,161.7,398.3,161.7
	 M398,161.5c0.1-0.1,0.1-0.2,0.1-0.3c-0.1-0.1-0.1-0.2-0.2-0.3c-0.1-0.1-0.2-0.1-0.3-0.2c-0.1,0-0.2,0-0.3,0.1
	c-0.1,0.1-0.1,0.2-0.1,0.3c0.1,0.1,0.1,0.2,0.2,0.3c0.1,0.1,0.2,0.1,0.3,0.2C397.8,161.6,397.9,161.5,398,161.5"/>
<path id="Path_475_00000083806548090238271290000014758422142908127874_" class="st13" d="M399.7,160.1c-0.1,0.1-0.2,0.2-0.3,0.2
	c-0.1,0.1-0.2,0.1-0.3,0.1c-0.1,0-0.2,0-0.3-0.1c-0.1,0-0.2-0.1-0.3-0.2c-0.1-0.1-0.2-0.2-0.2-0.3c-0.1-0.1-0.1-0.2-0.1-0.3
	c0-0.1,0-0.2,0-0.3c0-0.1,0.1-0.2,0.2-0.3c0.1-0.1,0.2-0.2,0.3-0.2c0.1,0,0.2-0.1,0.3-0.1c0.1,0,0.2,0,0.3,0.1
	c0.1,0,0.2,0.1,0.3,0.2l0.1,0.1l0.1,0.1l-0.7,0.8c0.1,0.1,0.2,0.1,0.3,0.1c0.1,0,0.2-0.1,0.3-0.2c0.1-0.1,0.2-0.2,0.2-0.4l0.4,0.1
	c0,0.1,0,0.2-0.1,0.3C399.9,159.9,399.8,160,399.7,160.1 M398.6,159.6l0.4-0.5c-0.1-0.1-0.2-0.1-0.2-0.1c-0.1,0-0.2,0-0.2,0.1
	c-0.1,0.1-0.1,0.1-0.1,0.2C398.5,159.4,398.6,159.5,398.6,159.6"/>
<path id="Path_476_00000021079321826062743120000014838844802095062918_" class="st13" d="M401,158.7c-0.1,0.1-0.3,0.2-0.5,0.2
	c-0.1,0-0.2,0-0.2-0.1c-0.1,0-0.2-0.1-0.2-0.2l-0.5-0.5l-0.2,0.2l-0.3-0.3l0.2-0.2l-0.3-0.4l0.3-0.3l0.4,0.3l0.3-0.3l0.3,0.3
	l-0.3,0.3l0.5,0.5c0.1,0.1,0.1,0.1,0.2,0.1c0.1,0,0.1,0,0.2-0.1l0.1-0.1c0,0,0-0.1,0-0.1l0.3,0.2c0,0-0.1,0.1-0.1,0.2
	C401.1,158.6,401,158.6,401,158.7"/>
<path id="Path_477_00000043448982319058436560000003468444284675772592_" class="st13" d="M401.9,157.7c-0.1,0.1-0.2,0.2-0.3,0.2
	c-0.1,0.1-0.2,0.1-0.4,0.1l-0.1-0.4c0.1,0,0.2,0,0.3-0.1c0.1,0,0.2-0.1,0.2-0.1c0,0,0.1-0.1,0.1-0.2c0,0,0-0.1,0-0.1
	c-0.1,0-0.1,0-0.2,0c0,0-0.1,0-0.1,0.1c0,0-0.1,0-0.1,0.1c-0.1,0-0.1,0.1-0.2,0.1c-0.1,0-0.2,0-0.4,0l-0.2-0.1
	c-0.1-0.1-0.1-0.1-0.1-0.2c0-0.1,0-0.1,0-0.2c0-0.1,0-0.2,0.1-0.2c0-0.1,0.1-0.2,0.2-0.2c0.1-0.1,0.2-0.2,0.3-0.2
	c0.1,0,0.2-0.1,0.3-0.1l0.1,0.4c-0.1,0-0.1,0-0.2,0.1c-0.1,0-0.1,0.1-0.2,0.1c-0.1,0.1-0.1,0.2,0,0.2c0,0,0,0,0.1,0c0,0,0.1,0,0.1,0
	c0,0,0.1,0,0.1-0.1c0,0,0.1,0,0.1-0.1c0.1,0,0.1-0.1,0.2-0.1c0.1,0,0.2,0,0.4,0c0.1,0,0.1,0.1,0.2,0.1c0.1,0.1,0.1,0.1,0.1,0.2
	c0,0.1,0,0.1,0,0.2c0,0.1,0,0.2-0.1,0.2C402.1,157.5,402,157.6,401.9,157.7"/>
<path id="Path_478_00000080898784844340721180000013040058559434303900_" class="st13" d="M403.6,156.9c-0.3-0.1-0.5-0.2-0.8-0.3
	c-0.3-0.1-0.5-0.3-0.7-0.5c-0.2-0.2-0.4-0.4-0.5-0.7c-0.1-0.2-0.2-0.5-0.3-0.8l0.3-0.2c0.1,0.3,0.2,0.5,0.3,0.7
	c0.3,0.4,0.7,0.8,1.1,1.1c0.2,0.1,0.5,0.3,0.7,0.3L403.6,156.9z"/>
<path id="Path_479_00000030453100039651728120000005490707201141406633_" class="st13" d="M404.3,155.3c-0.1,0.1-0.1,0.1-0.2,0.2
	c-0.1,0-0.2,0-0.2,0c-0.1,0-0.2,0-0.2-0.1c-0.1,0-0.2-0.1-0.2-0.2l-0.5-0.5l-0.2,0.2l-0.3-0.3l0.2-0.2l-0.3-0.4l0.3-0.3l0.3,0.3
	l0.3-0.3l0.3,0.3l-0.3,0.3l0.5,0.5c0.1,0.1,0.1,0.1,0.2,0.1c0.1,0,0.1,0,0.2-0.1l0.1-0.1c0,0,0,0,0-0.1l0.3,0.2c0,0-0.1,0.1-0.1,0.2
	C404.4,155.2,404.3,155.3,404.3,155.3"/>
<path id="Path_480_00000070076413223727820730000006411270507295039639_" class="st13" d="M405.2,154.5c-0.1,0.1-0.1,0.1-0.2,0.1
	c-0.1,0-0.1,0-0.2,0c-0.1,0-0.1,0-0.2-0.1c-0.1,0-0.1-0.1-0.2-0.1c-0.1-0.1-0.2-0.3-0.1-0.5c0.1-0.2,0.2-0.5,0.4-0.7
	c0-0.1-0.1-0.1-0.2-0.1c-0.1,0-0.2,0-0.2,0.1c-0.1,0.1-0.1,0.1-0.2,0.2c0,0.1-0.1,0.2-0.1,0.2l-0.4-0.1c0-0.1,0.1-0.2,0.2-0.4
	c0.1-0.1,0.1-0.2,0.2-0.3c0.1-0.1,0.3-0.2,0.5-0.2c0.2,0,0.4,0.1,0.5,0.3l0.7,0.8l-0.3,0.3l-0.2-0.1c0,0.1,0,0.2-0.1,0.3
	C405.3,154.4,405.2,154.4,405.2,154.5 M405,154.1c0,0,0.1-0.1,0.1-0.1c0-0.1,0-0.1,0-0.2l-0.2-0.2c-0.1,0.1-0.2,0.2-0.2,0.3
	c0,0.1,0,0.2,0,0.2c0,0,0.1,0.1,0.1,0.1C404.9,154.1,405,154.1,405,154.1"/>
<path id="Path_481_00000028316283195323161000000008757305183733741461_" class="st13" d="M406.3,153.4l-1.6-1.9l0.4-0.3l0.9,1.1
	l0-0.9l0.4-0.4v1l1.2,0.4l-0.4,0.4l-0.8-0.3v0.3l0.3,0.3L406.3,153.4z"/>
<path id="Path_482_00000074412519641108393380000009519383077181542050_" class="st13" d="M408.6,152.3l-0.3,0.1
	c0-0.3-0.1-0.5-0.2-0.8c-0.1-0.2-0.3-0.5-0.4-0.7c-0.2-0.2-0.3-0.4-0.5-0.5c-0.2-0.2-0.4-0.3-0.7-0.4l0.2-0.3
	c0.3,0.1,0.5,0.2,0.8,0.4c0.2,0.2,0.5,0.4,0.6,0.6c0.2,0.2,0.4,0.5,0.5,0.8C408.5,151.8,408.5,152.1,408.6,152.3"/>
<path id="Path_483_00000053543316741954564310000005633308394086431107_" class="st13" d="M409.7,150.7c-0.1,0.1-0.2,0.1-0.3,0.2
	c-0.1,0-0.2,0-0.3,0c-0.1,0-0.2-0.1-0.3-0.1c-0.1-0.1-0.2-0.2-0.3-0.3c-0.1-0.1-0.1-0.2-0.2-0.4c0-0.1,0-0.2,0-0.4
	c0-0.1,0-0.2,0.1-0.3c0.1-0.1,0.1-0.2,0.2-0.2c0.1-0.1,0.2-0.1,0.3-0.2c0.1,0,0.2,0,0.3,0c0.1,0,0.2,0.1,0.3,0.1
	c0.1,0.1,0.2,0.1,0.2,0.2c0,0,0.1,0.1,0.1,0.1c0,0,0,0.1,0.1,0.1l-0.8,0.6c0.2,0.2,0.4,0.2,0.6,0c0.1-0.1,0.2-0.2,0.2-0.3l0.3,0.2
	c0,0.1-0.1,0.2-0.2,0.3C409.9,150.5,409.8,150.6,409.7,150.7 M408.7,150l0.5-0.4c0-0.1-0.1-0.1-0.2-0.2c-0.1,0-0.2,0-0.2,0.1
	c-0.1,0.1-0.1,0.1-0.1,0.2C408.6,149.9,408.7,150,408.7,150"/>
<path id="Path_484_00000020359891006825700920000008726059875605159836_" class="st13" d="M410.6,149.9l-1-1.5l0.4-0.2l0.2,0.2
	c0-0.1,0.1-0.2,0.1-0.3c0-0.1,0.1-0.2,0.2-0.2c0.1-0.1,0.3-0.2,0.5-0.1c0.2,0.1,0.3,0.2,0.4,0.4l0.6,0.9l-0.4,0.3l-0.6-0.8
	c-0.1-0.1-0.2-0.2-0.2-0.2c-0.1,0-0.1,0-0.2,0c-0.1,0-0.1,0.1-0.1,0.2c0,0.1,0,0.1-0.1,0.2l0.7,1L410.6,149.9z"/>
<path id="Path_485_00000094594224875905460420000013657617892367791536_" class="st13" d="M485.2,147.8l1-1.6l-0.5-0.4l0.2-0.4
	l1.5,1l-0.2,0.4l-0.5-0.4l-1,1.6L485.2,147.8z"/>
<path id="Path_486_00000154411913131789484350000001662826775812211615_" class="st13" d="M487,149c-0.1-0.1-0.2-0.1-0.2-0.2
	c-0.1-0.1-0.1-0.2-0.1-0.3c0-0.1,0-0.2,0-0.4c0-0.1,0.1-0.3,0.2-0.4c0.1-0.1,0.2-0.2,0.3-0.3c0.1-0.1,0.2-0.1,0.3-0.1
	c0.1,0,0.2,0,0.3,0c0.1,0,0.2,0.1,0.3,0.1c0.2,0.1,0.3,0.3,0.4,0.5c0,0.1,0,0.2,0,0.4c0,0.1-0.1,0.3-0.2,0.4
	c-0.1,0.1-0.2,0.2-0.3,0.3c-0.2,0.1-0.4,0.2-0.7,0.1C487.2,149.1,487.1,149.1,487,149 M487.2,148.7c0.1,0.1,0.2,0.1,0.3,0
	c0.1-0.1,0.2-0.1,0.3-0.2c0.1-0.1,0.1-0.2,0.2-0.4c0-0.1,0-0.2-0.1-0.2c-0.1-0.1-0.2-0.1-0.3,0c-0.1,0.1-0.2,0.1-0.3,0.2
	c-0.1,0.1-0.1,0.2-0.2,0.4C487.1,148.5,487.1,148.6,487.2,148.7"/>
<rect x="207.2" y="114.4" class="st14" width="323" height="240"/>
<path id="Path_487_00000080188995880917029490000017125557566645727622_" class="st13" d="M488.8,150.3c-0.1-0.1-0.2-0.2-0.2-0.3
	c-0.1-0.1-0.1-0.2-0.1-0.3c0-0.1,0-0.2,0-0.4c0-0.1,0.1-0.3,0.2-0.4c0.1-0.1,0.2-0.2,0.3-0.3c0.1-0.1,0.2-0.1,0.3-0.1
	c0.1,0,0.2,0,0.3,0c0.1,0,0.2,0.1,0.3,0.1c0.1,0.1,0.2,0.1,0.2,0.2c0.1,0.1,0.1,0.2,0.1,0.3c0,0.1,0,0.2-0.1,0.3
	c0,0.1-0.1,0.2-0.2,0.3l-0.1,0.1l-0.1,0.1l-0.8-0.6c-0.1,0.1-0.1,0.2,0,0.3c0,0.1,0.1,0.2,0.2,0.2c0.1,0.1,0.2,0.1,0.4,0.1l-0.1,0.4
	c-0.1,0-0.2,0-0.3-0.1C489,150.4,488.9,150.4,488.8,150.3 M489.1,149.2l0.5,0.4c0.1-0.1,0.1-0.2,0.1-0.2c0-0.1,0-0.2-0.1-0.2
	c-0.1,0-0.1-0.1-0.2-0.1C489.3,149,489.2,149.1,489.1,149.2"/>
<path id="Path_488_00000075148158051973491880000006850764758206045330_" class="st13" d="M490.2,151.5c-0.1-0.1-0.2-0.3-0.2-0.5
	c0-0.1,0-0.2,0.1-0.2c0.1-0.1,0.1-0.2,0.2-0.2l0.5-0.6l-0.2-0.2l0.2-0.3l0.2,0.2l0.3-0.3l0.3,0.3l-0.3,0.4l0.3,0.3l-0.2,0.3
	l-0.3-0.3l-0.5,0.6c-0.1,0.1-0.1,0.1-0.1,0.2c0,0.1,0,0.1,0.1,0.2c0,0,0.1,0,0.1,0.1c0,0,0.1,0,0.1,0l-0.2,0.4c-0.1,0-0.1,0-0.2-0.1
	C490.4,151.6,490.3,151.5,490.2,151.5"/>
<path id="Path_489_00000146500840800034325000000013995152560431766155_" class="st13" d="M491.3,152.3c-0.1-0.1-0.2-0.2-0.2-0.3
	c-0.1-0.1-0.1-0.2-0.1-0.3l0.4-0.1c0,0.1,0.1,0.2,0.1,0.2c0,0.1,0.1,0.1,0.2,0.2c0,0,0.1,0.1,0.2,0.1c0,0,0.1,0,0.1-0.1
	c0-0.1,0-0.1,0-0.2c0,0,0-0.1-0.1-0.1c0,0-0.1-0.1-0.1-0.1c0-0.1-0.1-0.1-0.1-0.2c0-0.1,0-0.1-0.1-0.2v-0.2c0-0.1,0-0.1,0.1-0.2
	c0.1-0.1,0.1-0.1,0.2-0.2c0.1,0,0.1-0.1,0.2-0.1c0.1,0,0.2,0,0.2,0.1c0.1,0,0.2,0.1,0.2,0.2c0.1,0.1,0.2,0.2,0.2,0.3
	c0.1,0.1,0.1,0.2,0.1,0.3l-0.4,0.1c0-0.1,0-0.1-0.1-0.2c0-0.1-0.1-0.1-0.1-0.2c-0.1-0.1-0.2-0.1-0.2,0c0,0,0,0,0,0.1
	c0,0,0,0.1,0,0.1c0,0,0,0.1,0.1,0.1c0,0,0.1,0.1,0.1,0.1c0,0.1,0.1,0.1,0.1,0.2c0,0.1,0,0.1,0.1,0.2v0.2c0,0.1-0.1,0.1-0.1,0.2
	c0,0.1-0.1,0.1-0.2,0.2c-0.1,0-0.1,0.1-0.2,0.1c-0.1,0-0.2,0-0.2-0.1C491.5,152.4,491.4,152.4,491.3,152.3"/>
<path id="Path_490_00000154414592705415468890000011885223975014275767_" class="st13" d="M491.8,153.6l1.6-1.8l0.3,0.3l-0.1,0.2
	c0.1,0,0.2,0,0.3,0c0.1,0,0.2,0.1,0.2,0.1c0.1,0.1,0.1,0.1,0.2,0.2c0,0.1,0.1,0.2,0,0.3c0,0.1,0,0.2-0.1,0.3
	c-0.1,0.1-0.1,0.2-0.2,0.3c-0.1,0.1-0.2,0.2-0.3,0.3c-0.1,0.1-0.2,0.1-0.3,0.1c-0.1,0-0.2,0-0.3,0c-0.1,0-0.2-0.1-0.2-0.1
	c-0.1-0.1-0.1-0.1-0.1-0.2c0-0.1-0.1-0.2-0.1-0.2l-0.2,0.2l-0.3,0.4L491.8,153.6z M493.1,153.3c0.1,0.1,0.2,0.1,0.2,0.1
	c0.1,0,0.2-0.1,0.3-0.2c0.2-0.2,0.2-0.4,0.1-0.6c-0.1-0.1-0.2-0.1-0.3-0.1L493,153c0,0.1,0,0.1,0.1,0.2
	C493,153.2,493.1,153.3,493.1,153.3"/>
<path id="Path_491_00000003819114512279526800000007335186916321051307_" class="st13" d="M493.9,154.6l1.2-1.3l0.3,0.3l-0.2,0.2
	c0.1,0,0.2-0.1,0.4,0c0.1,0,0.2,0.1,0.3,0.1l0.1,0.1c0,0,0,0.1,0.1,0.1l-0.4,0.3c0,0,0-0.1-0.1-0.1c0,0,0-0.1-0.1-0.1
	c-0.1-0.1-0.1-0.1-0.2-0.1c-0.1,0-0.2,0-0.3,0.1l-0.7,0.8L493.9,154.6z"/>
<path id="Path_492_00000155831182020200912590000009140056660627996334_" class="st13" d="M495.6,156.2c-0.1-0.1-0.1-0.2-0.2-0.3
	c-0.1-0.1-0.1-0.2-0.1-0.3c0-0.1,0-0.2,0.1-0.3c0.1-0.2,0.3-0.4,0.6-0.6c0.1,0,0.2-0.1,0.3-0.1c0.1,0,0.2,0,0.3,0.1
	c0.2,0.1,0.4,0.2,0.5,0.5c0.1,0.2,0.1,0.5,0,0.7c0,0.1-0.1,0.2-0.2,0.3c-0.1,0.1-0.2,0.2-0.3,0.2c-0.1,0-0.2,0.1-0.3,0.1
	c-0.1,0-0.2,0-0.3-0.1C495.7,156.3,495.6,156.3,495.6,156.2 M495.9,155.9c0.1,0.1,0.2,0.1,0.3,0.1c0.1,0,0.2-0.1,0.3-0.2
	c0.1-0.1,0.2-0.2,0.2-0.3c0-0.1,0-0.2-0.1-0.3c-0.1-0.1-0.2-0.1-0.3-0.1c-0.1,0-0.2,0.1-0.3,0.2c-0.1,0.1-0.2,0.2-0.2,0.3
	C495.8,155.7,495.8,155.8,495.9,155.9"/>
<path id="Path_493_00000133496690381873873410000013927414305392819884_" class="st13" d="M496.5,158.1c-0.1-0.1-0.1-0.2-0.2-0.2
	c-0.1-0.1-0.1-0.2-0.1-0.2c0-0.1,0-0.1,0-0.2c0-0.1,0.1-0.1,0.1-0.2c0.1-0.1,0.3-0.1,0.4-0.1V157c0-0.1,0.1-0.1,0.1-0.2
	c0.1,0,0.1-0.1,0.2-0.1h0.2c0-0.1,0-0.2,0-0.2c0-0.1,0.1-0.2,0.2-0.2c0.1-0.1,0.2-0.1,0.2-0.2c0.1,0,0.2,0,0.3,0
	c0.1,0,0.2,0,0.2,0.1c0.1,0,0.2,0.1,0.2,0.2c0.1,0.1,0.1,0.2,0.2,0.2l0.5,0.5l-0.3,0.3l-0.2-0.2c0,0,0,0.1,0,0.1l-0.1,0.1
	c-0.1,0.1-0.2,0.1-0.2,0.2c-0.1,0-0.2,0-0.2,0c-0.1,0-0.2,0-0.2-0.1c-0.1,0-0.2-0.1-0.2-0.2c-0.1-0.1-0.1-0.1-0.1-0.2h-0.1
	c0,0,0,0-0.1,0c0,0,0,0.1,0,0.1c0,0.1,0.1,0.1,0.1,0.2l0.2,0.2c0.1,0.1,0.2,0.3,0.3,0.4c0,0.1,0,0.3-0.1,0.4
	c-0.1,0.1-0.1,0.1-0.2,0.1c-0.1,0-0.2,0-0.3,0c-0.1,0-0.2-0.1-0.3-0.1C496.7,158.3,496.6,158.2,496.5,158.1 M496.8,157.9
	c0.1,0.1,0.1,0.1,0.2,0.2c0.1,0,0.2,0,0.2,0c0,0,0.1-0.1,0-0.1c0-0.1-0.1-0.1-0.1-0.2l-0.1-0.1c0,0-0.1-0.1-0.1-0.1
	c0,0,0-0.1-0.1-0.1c-0.1,0-0.2,0-0.2,0.1c-0.1,0-0.1,0.1,0,0.2C496.6,157.8,496.7,157.9,496.8,157.9 M497.7,157
	c0.1,0.1,0.1,0.1,0.2,0.1c0.1,0,0.2,0,0.2-0.1c0.1-0.1,0.1-0.1,0.1-0.2c0-0.1,0-0.1-0.1-0.2c0,0-0.1-0.1-0.2-0.1
	c-0.1,0-0.1,0-0.2,0.1c-0.1,0.1-0.1,0.1-0.1,0.2C497.6,156.9,497.6,157,497.7,157"/>
<path id="Path_494_00000172429314573120811340000015216329815267276200_" class="st13" d="M498,158.6l1.3-1.2l0.3,0.3l-0.2,0.2
	c0.1,0,0.2,0,0.4,0c0.1,0,0.2,0.1,0.2,0.2l0.1,0.1c0,0,0,0.1,0,0.1l-0.4,0.2c0,0,0-0.1-0.1-0.1c0,0,0-0.1-0.1-0.1
	c0-0.1-0.1-0.1-0.2-0.1c-0.1,0-0.2,0-0.3,0l-0.8,0.7L498,158.6z"/>
<path id="Path_495_00000147199131232478264580000006080662920351613833_" class="st13" d="M499.3,160.1c-0.1-0.1-0.1-0.1-0.1-0.2
	c0-0.1,0-0.1,0-0.2c0-0.1,0-0.1,0.1-0.2c0-0.1,0.1-0.1,0.1-0.2c0.1-0.1,0.3-0.2,0.5-0.1c0.2,0.1,0.5,0.3,0.7,0.5
	c0.1,0,0.1-0.1,0.1-0.2c0-0.1,0-0.2-0.1-0.2c-0.1-0.1-0.1-0.1-0.2-0.2c-0.1,0-0.2-0.1-0.2-0.1l0.2-0.4c0.1,0,0.2,0.1,0.4,0.2
	c0.1,0.1,0.2,0.2,0.3,0.3c0.1,0.1,0.2,0.3,0.2,0.5c0,0.2-0.2,0.4-0.3,0.5l-0.8,0.7l-0.3-0.3l0.1-0.2c-0.1,0-0.2,0-0.3-0.1
	C499.4,160.3,499.3,160.2,499.3,160.1 M499.7,160c0,0,0.1,0.1,0.1,0.1c0.1,0,0.1,0,0.2,0l0.2-0.2c-0.2-0.1-0.2-0.2-0.3-0.2
	c-0.1,0-0.2,0-0.2,0c0,0-0.1,0.1-0.1,0.1C499.6,159.9,499.6,159.9,499.7,160"/>
<path id="Path_496_00000035506459886041581830000007020780653453987986_" class="st13" d="M500.3,161.3l1.4-1.1l0.3,0.3l-0.2,0.2
	c0.1,0,0.2,0,0.3,0.1c0.1,0,0.2,0.1,0.2,0.2c0.1,0.1,0.1,0.2,0.1,0.3c0,0.1,0,0.2-0.1,0.3c0.1,0,0.2,0,0.3,0.1
	c0.1,0,0.2,0.1,0.3,0.2c0.1,0.1,0.2,0.3,0.1,0.5c-0.1,0.2-0.2,0.3-0.3,0.4l-0.9,0.7l-0.3-0.4l0.8-0.6c0.1-0.1,0.1-0.1,0.2-0.2
	c0-0.1,0-0.1-0.1-0.2c-0.1-0.1-0.2-0.1-0.3-0.1l-0.9,0.8l-0.3-0.4l0.8-0.6c0.1-0.1,0.1-0.1,0.2-0.2c0-0.1,0-0.1-0.1-0.2
	c-0.1-0.1-0.2-0.1-0.3-0.1l-0.9,0.8L500.3,161.3z"/>
<path id="Path_497_00000121274392813584651190000000634378942779916165_" class="st13" d="M502.3,163.9l1.5-1l0.2,0.4l-0.2,0.2
	c0.1,0,0.2,0,0.3,0.1c0.1,0,0.2,0.1,0.2,0.2c0.1,0.1,0.1,0.2,0.1,0.3c0,0.1,0,0.2-0.1,0.3c0.1,0,0.2,0,0.3,0.1
	c0.1,0,0.2,0.1,0.2,0.2c0.1,0.1,0.2,0.3,0.1,0.5c-0.1,0.2-0.2,0.3-0.4,0.4l-0.9,0.6l-0.3-0.4l0.8-0.6c0.1-0.1,0.2-0.2,0.2-0.2
	c0-0.1,0-0.1,0-0.2c-0.1-0.1-0.2-0.1-0.3-0.2l-1,0.7l-0.3-0.4l0.8-0.6c0.1-0.1,0.2-0.2,0.2-0.2c0-0.1,0-0.1,0-0.2
	c-0.1-0.1-0.2-0.1-0.3-0.2l-1,0.7L502.3,163.9z"/>
<path id="Path_498_00000029746608123354588480000008970195262352726441_" class="st13" d="M504.4,166.9c0-0.1-0.1-0.2-0.1-0.2v-0.2
	c0-0.1,0-0.1,0.1-0.2c0-0.1,0.1-0.1,0.2-0.2c0.1-0.1,0.3-0.1,0.5,0c0.2,0.1,0.4,0.3,0.6,0.5c0,0,0.1-0.1,0.1-0.2
	c0-0.1,0-0.1-0.1-0.2c0-0.1-0.1-0.1-0.2-0.2c-0.1-0.1-0.2-0.1-0.2-0.2l0.2-0.4c0.1,0.1,0.2,0.1,0.3,0.2c0.1,0.1,0.2,0.2,0.3,0.3
	c0.1,0.2,0.2,0.4,0.1,0.5c0,0.2-0.2,0.3-0.4,0.5l-0.8,0.5l-0.2-0.4l0.1-0.1c-0.1,0-0.2-0.1-0.3-0.1C504.5,167,504.4,167,504.4,166.9
	 M504.8,166.8c0,0.1,0.1,0.1,0.1,0.1c0,0,0.1,0,0.2,0.1l0.3-0.2c-0.1-0.1-0.2-0.2-0.3-0.3c-0.1,0-0.1,0-0.2,0
	c-0.1,0-0.1,0.1-0.1,0.1S504.8,166.8,504.8,166.8"/>
<path id="Path_499_00000069371729153959833690000015687438643349689785_" class="st13" d="M503.7,244.8l-1.5-1.2l-0.4,0.5l-0.4-0.3
	l1.1-1.5l0.4,0.3l-0.4,0.5l1.5,1.2L503.7,244.8z"/>
<path id="Path_500_00000094583586744770244080000016934545660734446759_" class="st13" d="M505.1,243.1c-0.1,0.1-0.1,0.2-0.2,0.2
	c-0.1,0.1-0.2,0.1-0.3,0.1c-0.1,0-0.2,0-0.4,0c-0.1,0-0.3-0.1-0.4-0.2c-0.1-0.1-0.2-0.2-0.3-0.3c-0.1-0.1-0.1-0.2-0.1-0.3
	c0-0.1,0-0.2,0-0.3c0-0.1,0.1-0.2,0.2-0.3c0.1-0.1,0.1-0.2,0.2-0.2c0.1-0.1,0.2-0.1,0.3-0.1c0.1,0,0.2,0,0.4,0
	c0.1,0,0.3,0.1,0.4,0.2c0.1,0.1,0.2,0.2,0.3,0.3c0.1,0.1,0.1,0.2,0.1,0.3c0,0.1,0,0.2,0,0.3C505.2,242.9,505.2,243,505.1,243.1
	 M504.7,242.8c0.1-0.1,0.1-0.2,0-0.3c-0.1-0.1-0.1-0.2-0.2-0.3c-0.1-0.1-0.2-0.1-0.4-0.2c-0.1,0-0.2,0-0.3,0.1
	c-0.1,0.1-0.1,0.2,0,0.3c0.1,0.1,0.2,0.2,0.3,0.3c0.1,0.1,0.2,0.1,0.4,0.2C504.6,243,504.7,242.9,504.7,242.8
	C504.7,242.8,504.7,242.8,504.7,242.8"/>
<path id="Path_501_00000051354172522922102310000010964745292228175287_" class="st13" d="M506.4,241.2c-0.1,0.1-0.1,0.2-0.2,0.3
	c-0.1,0.1-0.2,0.1-0.3,0.2c-0.1,0-0.2,0-0.4,0c-0.1,0-0.3-0.1-0.4-0.2c-0.1-0.1-0.2-0.2-0.3-0.3c-0.1-0.1-0.1-0.2-0.2-0.3
	c0-0.1,0-0.2,0-0.3c0-0.1,0.1-0.2,0.1-0.3c0.1-0.1,0.1-0.2,0.2-0.2c0.1-0.1,0.2-0.1,0.3-0.1c0.1,0,0.2,0,0.3,0
	c0.1,0,0.2,0.1,0.3,0.2c0,0,0.1,0.1,0.1,0.1l0.1,0.1l-0.6,0.9c0.1,0.1,0.2,0.1,0.3,0c0.1,0,0.2-0.1,0.2-0.2c0.1-0.1,0.1-0.3,0.1-0.4
	l0.4,0c0,0.1,0,0.2-0.1,0.3C506.5,241,506.4,241.1,506.4,241.2 M505.2,240.9l0.4-0.5c-0.1-0.1-0.2-0.1-0.2-0.1
	c-0.1,0-0.2,0.1-0.2,0.2c-0.1,0.1-0.1,0.2-0.1,0.2C505,240.8,505.1,240.8,505.2,240.9"/>
<path id="Path_502_00000018937428638954672020000010027422515276383405_" class="st13" d="M507.4,239.6c0,0.1-0.1,0.2-0.2,0.2
	c-0.1,0-0.2,0.1-0.2,0.1c-0.1,0-0.2,0-0.2,0c-0.1,0-0.2-0.1-0.3-0.1l-0.6-0.4l-0.1,0.2l-0.3-0.2l0.1-0.2l-0.4-0.3l0.2-0.4l0.4,0.3
	l0.2-0.4l0.4,0.2l-0.2,0.4l0.6,0.4c0.1,0.1,0.2,0.1,0.2,0.1c0.1,0,0.1-0.1,0.2-0.1c0,0,0-0.1,0-0.1c0,0,0-0.1,0-0.1l0.4,0.2
	c0,0.1,0,0.1-0.1,0.2C507.5,239.5,507.5,239.6,507.4,239.6"/>
<path id="Path_503_00000099631995823882939390000004444200251784907173_" class="st13" d="M508.1,238.5c-0.1,0.1-0.2,0.2-0.2,0.3
	c-0.1,0.1-0.2,0.2-0.3,0.2l-0.2-0.4c0.1,0,0.2-0.1,0.2-0.1c0.1-0.1,0.1-0.1,0.2-0.2c0-0.1,0.1-0.1,0.1-0.2c0,0,0-0.1-0.1-0.1
	c0,0-0.1,0-0.1,0c0,0,0,0,0,0c0,0-0.1,0-0.1,0c0,0-0.1,0-0.1,0.1c0,0-0.1,0.1-0.1,0.1c-0.1,0-0.1,0.1-0.2,0.1
	c-0.1,0-0.1,0.1-0.2,0.1c-0.1,0-0.1,0-0.2,0c-0.1,0-0.1,0-0.2-0.1c-0.1,0-0.1-0.1-0.2-0.2c-0.1-0.1-0.1-0.1-0.1-0.2v-0.2
	c0-0.1,0.1-0.2,0.1-0.3c0.1-0.1,0.1-0.2,0.2-0.3c0.1-0.1,0.2-0.1,0.3-0.2l0.2,0.4c-0.1,0-0.2,0.1-0.2,0.1c0,0-0.1,0.1-0.1,0.2
	c-0.1,0.1-0.1,0.2,0,0.2c0,0,0.1,0,0.1,0c0,0,0,0,0,0c0,0,0.1,0,0.1,0c0,0,0.1,0,0.1-0.1c0,0,0.1-0.1,0.1-0.1c0.1,0,0.1-0.1,0.2-0.1
	c0.1-0.1,0.1-0.1,0.2-0.1c0.1,0,0.1,0,0.2,0c0.1,0,0.1,0,0.2,0.1c0.1,0,0.1,0.1,0.2,0.2c0.1,0.1,0.1,0.2,0.1,0.2v0.3
	C508.3,238.2,508.2,238.4,508.1,238.5"/>
<path id="Path_504_00000026863863959315642180000011033133983925944472_" class="st13" d="M509.3,236.5c0,0.1-0.1,0.1-0.2,0.2
	c-0.1,0.1-0.2,0.1-0.3,0.1l0.2,0.1l-0.2,0.4l-2.2-1.2l0.3-0.5l0.5,0.3l0.2,0.2c0-0.1,0-0.2,0-0.3c0-0.1,0-0.2,0.1-0.2
	c0.1-0.1,0.1-0.2,0.2-0.2c0.1-0.1,0.2-0.1,0.3-0.1c0.1,0,0.2,0,0.3,0c0.1,0,0.3,0.1,0.4,0.2c0.1,0.1,0.2,0.2,0.3,0.3
	c0.1,0.1,0.1,0.2,0.2,0.3c0,0.1,0.1,0.2,0.1,0.3C509.4,236.3,509.4,236.4,509.3,236.5 M508.8,236.4c0-0.1,0-0.2,0-0.3
	c-0.1-0.1-0.2-0.2-0.3-0.3c-0.3-0.2-0.5-0.2-0.6,0c-0.1,0.1-0.1,0.2,0,0.4l0.6,0.4c0.1,0,0.1-0.1,0.2-0.1
	C508.8,236.5,508.8,236.4,508.8,236.4"/>
<path id="Path_505_00000031203109169318996650000006916800455107777970_" class="st13" d="M510.3,234.6c-0.1,0.1-0.1,0.2-0.2,0.3
	c-0.1,0.1-0.2,0.2-0.3,0.2c-0.1,0-0.2,0.1-0.4,0c-0.1,0-0.3-0.1-0.4-0.1c-0.1-0.1-0.2-0.1-0.3-0.2c-0.1-0.1-0.1-0.2-0.2-0.3
	c0-0.1-0.1-0.2,0-0.3c0-0.1,0-0.2,0.1-0.3c0-0.1,0.1-0.2,0.2-0.3c0.1-0.1,0.2-0.1,0.3-0.1c0.1,0,0.2,0,0.3,0c0.1,0,0.2,0.1,0.3,0.1
	c0,0,0.1,0.1,0.1,0.1c0,0,0.1,0,0.1,0.1l-0.5,1c0.1,0,0.2,0,0.3,0c0.1,0,0.2-0.1,0.2-0.2c0.1-0.1,0.1-0.3,0.1-0.4h0.4v0.3
	C510.4,234.4,510.4,234.5,510.3,234.6 M509.1,234.4l0.3-0.6c-0.1,0-0.2-0.1-0.2-0.1c-0.1,0-0.2,0.1-0.2,0.2c0,0.1-0.1,0.2,0,0.2
	C509,234.3,509,234.4,509.1,234.4"/>
<path id="Path_506_00000172418014211812992760000004597994731974494900_" class="st13" d="M511.1,233.1c0,0.1-0.1,0.1-0.2,0.2
	l-0.2,0.1h-0.2c-0.1,0-0.2-0.1-0.2-0.1l-1.8-0.9l0.2-0.5l1.8,0.9c0,0,0.1,0,0.1,0c0,0,0,0,0.1,0v-0.1l0.4,0.1
	C511.2,232.9,511.2,232.9,511.1,233.1C511.1,233,511.1,233,511.1,233.1"/>
<path id="Path_507_00000133508111224796627440000013890374520570397840_" class="st13" d="M511.7,231.7c-0.1,0.1-0.1,0.2-0.2,0.3
	c-0.1,0.1-0.2,0.2-0.3,0.2c-0.1,0-0.2,0.1-0.4,0.1c-0.1,0-0.3,0-0.4-0.1c-0.1-0.1-0.2-0.1-0.3-0.2c-0.1-0.1-0.2-0.2-0.2-0.3
	c0-0.1-0.1-0.2-0.1-0.3c0-0.1,0-0.2,0.1-0.3c0-0.1,0.1-0.2,0.2-0.3c0.1-0.1,0.2-0.1,0.3-0.2c0.1,0,0.2,0,0.3,0
	c0.1,0,0.2,0.1,0.3,0.1c0,0,0.1,0,0.1,0.1c0,0,0.1,0,0.1,0.1l-0.5,1c0.1,0,0.2,0,0.3,0c0.1-0.1,0.2-0.1,0.2-0.2
	c0.1-0.1,0.1-0.3,0.1-0.4l0.4,0c0,0.1,0,0.2,0,0.3C511.8,231.4,511.8,231.6,511.7,231.7 M510.5,231.6l0.3-0.6c-0.1,0-0.2,0-0.2,0
	c-0.1,0-0.2,0.1-0.2,0.2c0,0.1,0,0.2,0,0.2C510.4,231.4,510.5,231.5,510.5,231.6"/>
<path id="Path_508_00000126295078215311960070000003881878105909354123_" class="st13" d="M510.4,229.4c0,0.1-0.1,0.1-0.2,0.2
	c-0.1,0-0.1,0-0.2,0c-0.1,0-0.1-0.1-0.2-0.2c0-0.1,0-0.2,0-0.2c0-0.1,0.1-0.1,0.2-0.2c0.1,0,0.1,0,0.2,0c0.1,0,0.1,0.1,0.2,0.2
	C510.5,229.3,510.5,229.4,510.4,229.4 M512.2,230.5l-1.7-0.7l0.2-0.5l1.7,0.7L512.2,230.5z"/>
<path id="Path_509_00000039121400967109221360000012151467260559316365_" class="st13" d="M513,228.8c0,0.1-0.1,0.2-0.2,0.3
	c-0.1,0.1-0.2,0.1-0.3,0.2c-0.1,0-0.2,0-0.3,0c-0.1,0-0.3,0-0.4-0.1c-0.1,0-0.2-0.1-0.3-0.2c-0.1-0.1-0.2-0.2-0.2-0.3
	c-0.1-0.1-0.1-0.2-0.1-0.3c0-0.1,0-0.2,0-0.3c0-0.1,0.1-0.2,0.2-0.2c0.1,0,0.1-0.1,0.2-0.1l-0.3-0.1l-0.6-0.2l0.2-0.5l2.4,1
	l-0.2,0.4l-0.2,0c0,0.1,0.1,0.2,0.1,0.3C513,228.7,513,228.7,513,228.8 M512.6,228.5c0,0,0-0.1,0-0.2c0-0.1,0-0.1-0.1-0.2l-0.7-0.3
	c-0.1,0-0.1,0.1-0.2,0.1c0,0-0.1,0.1-0.1,0.1c0,0.1,0,0.2,0,0.2c0.1,0.1,0.2,0.2,0.3,0.2c0.1,0.1,0.3,0.1,0.4,0.1
	C512.5,228.7,512.6,228.6,512.6,228.5"/>
<path id="Path_510_00000036245761489077315430000007306203797448154282_" class="st13" d="M436.2,270.1l0.4-1.8l-0.6-0.1l0.1-0.4
	l1.8,0.4l-0.1,0.4l-0.6-0.1l-0.4,1.8L436.2,270.1z"/>
<path id="Path_511_00000025431452494544113510000016804253471376890756_" class="st13" d="M438.3,270.6c-0.1,0-0.2-0.1-0.3-0.1
	c-0.1-0.1-0.2-0.1-0.2-0.2c-0.1-0.1-0.1-0.2-0.1-0.3c0-0.1,0-0.3,0-0.4c0-0.1,0.1-0.3,0.2-0.4c0.1-0.1,0.1-0.2,0.2-0.2
	c0.1-0.1,0.2-0.1,0.3-0.1c0.1,0,0.2,0,0.3,0c0.1,0,0.2,0.1,0.3,0.1c0.1,0.1,0.2,0.1,0.2,0.2c0.1,0.1,0.1,0.2,0.1,0.3
	c0,0.1,0,0.3,0,0.4c0,0.1-0.1,0.3-0.2,0.4c-0.1,0.1-0.1,0.2-0.2,0.2c-0.1,0.1-0.2,0.1-0.3,0.1C438.6,270.6,438.4,270.6,438.3,270.6
	 M438.4,270.2c0.1,0,0.2,0,0.3-0.1c0.1-0.1,0.1-0.2,0.2-0.4c0-0.1,0-0.2,0-0.4c0-0.1-0.1-0.2-0.2-0.2c-0.1,0-0.2,0-0.3,0.1
	c-0.1,0.1-0.1,0.2-0.2,0.4c0,0.1,0,0.2,0,0.4C438.2,270.1,438.3,270.2,438.4,270.2"/>
<path id="Path_512_00000168810604571847552340000009158808891521071010_" class="st13" d="M440.5,271c-0.1,0-0.2-0.1-0.3-0.1
	c-0.1-0.1-0.2-0.1-0.2-0.2c-0.1-0.1-0.1-0.2-0.2-0.3c0-0.1,0-0.3,0-0.4c0-0.1,0.1-0.3,0.1-0.4c0.1-0.1,0.1-0.2,0.2-0.3
	c0.1-0.1,0.2-0.1,0.3-0.2c0.1,0,0.2,0,0.3,0c0.1,0,0.2,0.1,0.3,0.1c0.1,0.1,0.2,0.1,0.2,0.2c0.1,0.1,0.1,0.2,0.1,0.3v0.3
	c0,0.1,0,0.1,0,0.1s0,0.1,0,0.1l-1.1-0.2c0,0.1,0,0.2,0.1,0.3c0.1,0.1,0.2,0.1,0.3,0.2c0.1,0,0.3,0,0.4-0.1l0.1,0.3
	c-0.1,0.1-0.2,0.1-0.3,0.1C440.8,271,440.6,271,440.5,271 M440.3,269.8l0.6,0.1c0-0.1,0-0.2,0-0.2c0-0.1-0.1-0.1-0.2-0.1
	c-0.1,0-0.2,0-0.2,0.1C440.4,269.6,440.3,269.7,440.3,269.8"/>
<path id="Path_513_00000010289806285107921800000010346838787154372502_" class="st13" d="M442.4,271.2c-0.1,0-0.2,0-0.3-0.1
	c-0.1,0-0.1-0.1-0.2-0.2c0-0.1-0.1-0.2-0.1-0.2v-0.3l0.1-0.7l-0.2,0l0.1-0.4h0.3l0.1-0.5l0.4,0.1l-0.1,0.5l0.4,0.1l-0.1,0.4
	l-0.4-0.1l-0.1,0.7c0,0.1,0,0.2,0,0.2c0,0.1,0.1,0.1,0.2,0.1h0.2l0,0.4c-0.1,0-0.1,0-0.2,0C442.5,271.2,442.5,271.2,442.4,271.2"/>
<path id="Path_514_00000006704507343850690690000006734006263104065201_" class="st13" d="M443.7,271.4c-0.1,0-0.2,0-0.4-0.1
	c-0.1-0.1-0.2-0.1-0.3-0.2l0.3-0.3c0.1,0.1,0.1,0.1,0.2,0.2c0.1,0,0.1,0.1,0.2,0.1c0.1,0,0.2,0,0.2,0c0,0,0.1-0.1,0.1-0.1
	c0,0,0-0.1,0-0.1c0,0,0-0.1-0.1-0.1c0,0-0.1,0-0.1-0.1c0,0-0.1,0-0.1-0.1c-0.1,0-0.1-0.1-0.2-0.1c-0.1,0-0.1-0.1-0.2-0.1
	c0-0.1-0.1-0.1-0.1-0.2c0-0.1,0-0.1,0-0.2c0-0.1,0-0.1,0.1-0.2c0-0.1,0.1-0.1,0.2-0.2c0.1,0,0.2-0.1,0.2-0.1c0.1,0,0.2,0,0.3,0
	c0.1,0,0.3,0.1,0.4,0.1c0.1,0.1,0.2,0.1,0.2,0.2l-0.3,0.3c-0.1-0.1-0.1-0.1-0.2-0.1c-0.1,0-0.1-0.1-0.2-0.1c-0.1,0-0.2,0-0.2,0.1
	c0,0,0,0.1,0,0.1l0.1,0.1c0,0,0.1,0,0.1,0.1c0,0,0.1,0,0.1,0.1c0.1,0,0.1,0.1,0.2,0.1c0.1,0,0.1,0.1,0.2,0.1c0,0,0.1,0.1,0.1,0.2
	c0,0.1,0,0.1,0,0.2c0,0.1,0,0.1-0.1,0.2c0,0.1-0.1,0.1-0.2,0.2c-0.1,0-0.2,0.1-0.2,0.1C443.9,271.4,443.8,271.4,443.7,271.4"/>
<path id="Path_515_00000000197030643514292370000000600874918550803117_" class="st13" d="M445.7,271.6c-0.1,0-0.2,0-0.3-0.1
	c-0.1-0.1-0.2-0.1-0.3-0.2c-0.1-0.1-0.1-0.2-0.2-0.3c-0.1-0.3,0-0.5,0.1-0.8c0-0.1,0.1-0.2,0.2-0.3c0.1-0.1,0.2-0.1,0.3-0.2
	c0.1,0,0.2-0.1,0.3,0c0.1,0,0.2,0,0.3,0.1c0.1,0.1,0.2,0.1,0.3,0.2c0.1,0.1,0.1,0.2,0.2,0.3c0.1,0.3,0,0.5-0.1,0.8
	c0,0.1-0.1,0.2-0.2,0.3c-0.1,0.1-0.2,0.1-0.3,0.2C445.9,271.6,445.8,271.6,445.7,271.6 M445.7,271.1c0.1,0,0.2,0,0.2-0.1
	c0.1-0.1,0.1-0.2,0.1-0.4c0-0.1,0-0.3-0.1-0.4c0-0.1-0.1-0.2-0.2-0.2c-0.1,0-0.2,0-0.2,0.1c-0.1,0.1-0.1,0.2-0.1,0.4
	c0,0.1,0,0.3,0.1,0.4C445.5,271.1,445.6,271.1,445.7,271.1"/>
<path id="Path_516_00000122684843683728620340000009975506215614250135_" class="st13" d="M447.1,271.6l0.1-1.8l0.4,0l0,0.3
	c0.1-0.1,0.1-0.2,0.2-0.3c0.1-0.1,0.2-0.1,0.3-0.1h0.1c0,0,0.1,0,0.1,0l-0.1,0.5c0,0-0.1,0-0.1,0h-0.1c-0.1,0-0.1,0-0.2,0.1
	c-0.1,0.1-0.2,0.1-0.2,0.2l-0.1,1L447.1,271.6z"/>
<path id="Path_517_00000039131764560194340800000006855754041292190865_" class="st13" d="M449.3,272.4c-0.1,0-0.2,0-0.3,0
	c-0.1,0-0.2,0-0.2-0.1c-0.1,0-0.1-0.1-0.2-0.2c0-0.1-0.1-0.1-0.1-0.2c0-0.2,0.1-0.3,0.2-0.4c-0.1,0-0.1-0.1-0.1-0.1
	c-0.1-0.1-0.1-0.3,0-0.4c0-0.1,0.1-0.1,0.2-0.2c-0.1,0-0.1-0.1-0.2-0.2c0-0.1-0.1-0.2-0.1-0.3c0-0.1,0-0.2,0.1-0.3
	c0-0.1,0.1-0.2,0.2-0.2c0.1-0.1,0.2-0.1,0.2-0.1c0.1,0,0.2,0,0.3,0c0.1,0,0.2,0,0.3,0h0.6v0.4H450c0,0,0,0.1,0,0.1c0,0,0,0.1,0,0.1
	c0,0.1,0,0.2-0.1,0.3c0,0.1-0.1,0.1-0.2,0.2c-0.1,0.1-0.1,0.1-0.2,0.1c-0.1,0-0.2,0-0.3,0c-0.1,0-0.1,0-0.2,0l-0.1,0.1v0.1
	c0,0.1,0,0.1,0.1,0.1c0,0,0.1,0,0.2,0h0.3c0.2,0,0.4,0,0.5,0.1c0.1,0.1,0.2,0.2,0.2,0.3c0,0.1,0,0.2-0.1,0.2
	c-0.1,0.1-0.1,0.2-0.2,0.2c-0.1,0.1-0.2,0.1-0.3,0.1C449.6,272.4,449.5,272.5,449.3,272.4 M449.4,272.1c0.1,0,0.2,0,0.3-0.1
	c0.1,0,0.1-0.1,0.1-0.2c0,0,0-0.1-0.1-0.1c0,0-0.1,0-0.2,0h-0.3c0,0-0.1,0-0.1,0c-0.1,0-0.1,0.1-0.1,0.2c0,0.1,0,0.1,0.1,0.2
	C449.2,272.1,449.3,272.1,449.4,272.1 M449.4,270.8c0.1,0,0.1,0,0.2-0.1c0.1-0.1,0.1-0.1,0.1-0.2c0-0.1,0-0.1-0.1-0.2
	c-0.1-0.1-0.1-0.1-0.2-0.1c-0.1,0-0.1,0-0.2,0.1c-0.1,0.1-0.1,0.1-0.1,0.2c0,0.1,0,0.2,0.1,0.2C449.2,270.8,449.3,270.8,449.4,270.8
	"/>
<path id="Path_518_00000112595683516673451860000010921301341662437517_" class="st13" d="M451.2,271.7c-0.1,0-0.1,0-0.2,0
	c-0.1,0-0.1-0.1-0.2-0.1c-0.1,0-0.1-0.1-0.1-0.2c0-0.1,0-0.1,0-0.2c0-0.2,0.1-0.4,0.2-0.5c0.2-0.1,0.5-0.2,0.8-0.2
	c0-0.1,0-0.1-0.1-0.2c0-0.1-0.1-0.1-0.2-0.1c-0.1,0-0.2,0-0.2,0.1c-0.1,0-0.2,0.1-0.2,0.1l-0.2-0.3l0.4-0.2c0.1,0,0.3-0.1,0.4-0.1
	c0.2,0,0.4,0.1,0.5,0.2c0.1,0.2,0.2,0.4,0.2,0.6v1h-0.4l0-0.2c-0.1,0.1-0.2,0.1-0.2,0.2C451.4,271.7,451.3,271.7,451.2,271.7
	 M451.4,271.3c0.1,0,0.1,0,0.2,0c0,0,0.1-0.1,0.1-0.1v-0.3c-0.1,0-0.3,0.1-0.4,0.1c-0.1,0.1-0.1,0.1-0.1,0.2c0,0,0,0.1,0.1,0.1
	C451.3,271.3,451.3,271.3,451.4,271.3"/>
<path id="Path_519_00000183958396060621089240000008267759490967921280_" class="st13" d="M452.8,271.7l-0.1-1.8l0.4,0l0.1,0.2
	c0.1-0.1,0.2-0.2,0.2-0.2c0.2-0.1,0.5-0.1,0.7,0.1c0.1,0.2,0.2,0.3,0.2,0.5l0.1,1.1l-0.5,0l0-1c0-0.1,0-0.2-0.1-0.3
	c0-0.1-0.1-0.1-0.2-0.1c-0.1,0-0.1,0-0.2,0.1c-0.1,0-0.1,0.1-0.2,0.1l0.1,1.2L452.8,271.7z"/>
<path id="Path_520_00000078002883129570802670000009926735693251226255_" class="st13" d="M455.1,269.5c-0.1,0-0.2,0-0.2-0.1
	c-0.1,0-0.1-0.1-0.1-0.2c0-0.1,0-0.1,0.1-0.2c0.1-0.1,0.1-0.1,0.2-0.1c0.1,0,0.2,0,0.2,0.1c0.1,0,0.1,0.1,0.1,0.2
	c0,0.1,0,0.1-0.1,0.2C455.3,269.5,455.2,269.5,455.1,269.5 M455,271.6l-0.1-1.8l0.5,0l0.1,1.8L455,271.6z"/>
<path id="Path_521_00000176043793813654709640000016728097917025707174_" class="st13" d="M456.7,271.5c-0.1,0-0.2,0-0.4,0
	c-0.1,0-0.2-0.1-0.3-0.2l0.2-0.4c0.1,0,0.2,0.1,0.2,0.1c0.1,0,0.2,0,0.2,0c0.1,0,0.1,0,0.2-0.1c0.1,0,0.1-0.1,0-0.1c0,0,0-0.1,0-0.1
	c0,0-0.1,0-0.1-0.1c0,0-0.1,0-0.1,0c0,0-0.1,0-0.2,0c-0.1,0-0.1,0-0.2-0.1c-0.1,0-0.1-0.1-0.2-0.1c-0.1,0-0.1-0.1-0.1-0.2
	c0-0.1-0.1-0.1-0.1-0.2c0-0.1,0-0.2,0-0.2c0-0.1,0.1-0.1,0.1-0.2c0.1-0.1,0.1-0.1,0.2-0.1c0.1,0,0.2-0.1,0.3-0.1c0.1,0,0.2,0,0.4,0
	c0.1,0,0.2,0.1,0.3,0.1l-0.2,0.3c-0.1,0-0.1-0.1-0.2-0.1c-0.1,0-0.1,0-0.2,0c-0.1,0-0.2,0.1-0.2,0.2c0,0,0,0.1,0,0.1
	c0,0,0.1,0,0.1,0.1c0,0,0.1,0,0.1,0s0.1,0,0.1,0c0.1,0,0.1,0,0.2,0.1c0.1,0,0.1,0.1,0.2,0.1c0.1,0,0.1,0.1,0.1,0.2
	c0,0.1,0.1,0.1,0.1,0.2c0,0.1,0,0.2,0,0.2c0,0.1-0.1,0.1-0.1,0.2c-0.1,0.1-0.1,0.1-0.2,0.2C456.9,271.5,456.8,271.5,456.7,271.5"/>
<path id="Path_522_00000076567550023312030280000016670187432134465669_" class="st13" d="M458.3,271.3c-0.1,0-0.1,0-0.2,0l-0.2-0.1
	c-0.1,0-0.1-0.1-0.1-0.2c0-0.1-0.1-0.1-0.1-0.2c0-0.2,0-0.4,0.2-0.5c0.2-0.1,0.5-0.2,0.7-0.3c0-0.1,0-0.1-0.1-0.2
	c-0.1,0-0.1-0.1-0.2,0c-0.1,0-0.1,0-0.2,0.1c-0.1,0-0.2,0.1-0.2,0.2l-0.2-0.3c0.1-0.1,0.2-0.2,0.3-0.2c0.1-0.1,0.3-0.1,0.4-0.1
	c0.2,0,0.4,0,0.5,0.1c0.1,0.2,0.2,0.4,0.2,0.6l0.1,1l-0.4,0.1l-0.1-0.2c-0.1,0.1-0.1,0.1-0.2,0.2
	C458.5,271.2,458.4,271.3,458.3,271.3 M458.5,270.9c0.1,0,0.1,0,0.2-0.1c0,0,0.1-0.1,0.1-0.1l0-0.3c-0.1,0-0.3,0.1-0.4,0.2
	c-0.1,0-0.1,0.1-0.1,0.2c0,0,0,0.1,0.1,0.1C458.4,270.9,458.4,270.9,458.5,270.9"/>
<path id="Path_523_00000144299913537709680410000008386593512650260369_" class="st13" d="M460.6,271c-0.1,0-0.2,0-0.3,0
	c-0.1,0-0.2-0.1-0.2-0.1c-0.1-0.1-0.1-0.1-0.2-0.2c0-0.1-0.1-0.2-0.1-0.3l-0.1-0.7l-0.2,0l-0.1-0.4l0.3-0.1v-0.5l0.4-0.1l0.1,0.5
	l0.4-0.1l0.1,0.4l-0.4,0.1l0.1,0.7c0,0.1,0,0.2,0.1,0.2c0.1,0,0.1,0.1,0.2,0c0,0,0.1,0,0.1,0c0,0,0.1,0,0.1,0l0.2,0.4
	c0,0-0.1,0-0.2,0.1C460.8,271,460.7,271,460.6,271"/>
<path id="Path_524_00000168834985658147464010000003766077376032065982_" class="st13" d="M461.3,268.8c-0.1,0-0.2,0-0.2,0
	c-0.1,0-0.1-0.1-0.1-0.2c0-0.1,0-0.2,0.1-0.2c0.1-0.1,0.1-0.1,0.2-0.1c0.1,0,0.2,0,0.2,0c0.1,0,0.1,0.1,0.1,0.2c0,0.1,0,0.2-0.1,0.2
	C461.5,268.7,461.4,268.8,461.3,268.8 M461.4,270.9l-0.3-1.8l0.5-0.1l0.3,1.8L461.4,270.9z"/>
<path id="Path_525_00000064343106422661475270000009234102833902741428_" class="st13" d="M463.3,270.6c-0.1,0-0.2,0-0.4,0
	c-0.2,0-0.4-0.2-0.5-0.4c-0.1-0.1-0.1-0.2-0.2-0.4c0-0.1,0-0.3,0-0.4c0-0.1,0.1-0.2,0.1-0.3c0.1-0.1,0.1-0.2,0.2-0.2
	c0.1-0.1,0.2-0.1,0.3-0.1c0.1,0,0.2,0,0.3,0c0.1,0,0.2,0.1,0.3,0.1c0.1,0.1,0.1,0.1,0.2,0.2c0.1,0.1,0.1,0.2,0.1,0.3
	c0,0.1,0,0.1,0,0.1v0.1l-1.1,0.2c0.1,0.1,0.1,0.2,0.2,0.2c0.1,0,0.2,0.1,0.3,0c0.1,0,0.3-0.1,0.4-0.2l0.2,0.3
	c-0.1,0.1-0.2,0.2-0.3,0.2C463.6,270.5,463.5,270.5,463.3,270.6 M462.8,269.5l0.6-0.1c0-0.1-0.1-0.2-0.1-0.2
	c-0.1-0.1-0.2-0.1-0.2-0.1c-0.1,0-0.2,0.1-0.2,0.1C462.8,269.3,462.7,269.4,462.8,269.5"/>
<path id="Path_526_00000163047202082620031220000002739670042413783709_" class="st13" d="M383.2,216.1l1.9-0.4l-0.1-0.6l0.5-0.1
	l0.3,1.8l-0.5,0.1l-0.1-0.7l-1.9,0.4L383.2,216.1z"/>
<path id="Path_527_00000046317132281529929120000004935913738409957802_" class="st13" d="M383.6,218.3c0-0.1,0-0.2,0-0.3
	c0-0.2,0.2-0.4,0.4-0.5c0.1-0.1,0.3-0.1,0.4-0.2c0.1,0,0.3,0,0.4,0c0.1,0,0.2,0.1,0.3,0.1c0.1,0.1,0.2,0.1,0.2,0.2
	c0.1,0.1,0.1,0.2,0.1,0.3c0,0.1,0,0.2,0,0.3c0,0.1-0.1,0.2-0.1,0.3c-0.1,0.1-0.1,0.2-0.2,0.2c-0.1,0.1-0.3,0.1-0.4,0.2
	c-0.1,0-0.3,0-0.4,0c-0.1,0-0.2-0.1-0.3-0.1c-0.1-0.1-0.2-0.1-0.2-0.2C383.6,218.5,383.6,218.4,383.6,218.3 M384,218.2
	c0,0.1,0.1,0.2,0.2,0.2c0.1,0,0.3,0,0.4,0c0.1,0,0.3-0.1,0.4-0.2c0.1-0.1,0.1-0.2,0.1-0.3c0-0.1-0.1-0.2-0.2-0.2c-0.1,0-0.3,0-0.4,0
	c-0.1,0-0.3,0.1-0.4,0.2C384,218,384,218.1,384,218.2"/>
<path id="Path_528_00000116926436681437439410000005626664325233540774_" class="st13" d="M384.1,220.5c0-0.1,0-0.2,0-0.4
	c0-0.1,0-0.2,0.1-0.3c0.1-0.1,0.2-0.2,0.2-0.3c0.1-0.1,0.2-0.1,0.4-0.2c0.1,0,0.3,0,0.4,0c0.1,0,0.2,0.1,0.3,0.1
	c0.1,0.1,0.2,0.1,0.2,0.2c0.1,0.1,0.1,0.2,0.2,0.3c0,0.1,0,0.2,0,0.3c0,0.1-0.1,0.2-0.1,0.3c-0.1,0.1-0.1,0.2-0.2,0.2
	c-0.1,0.1-0.2,0.1-0.3,0.1c-0.1,0-0.1,0-0.2,0H385l-0.3-1.1c-0.1,0.1-0.2,0.1-0.2,0.2c0,0.1,0,0.2,0,0.3c0,0.1,0.1,0.3,0.2,0.4
	l-0.3,0.2c-0.1-0.1-0.2-0.2-0.2-0.3C384.1,220.7,384.1,220.6,384.1,220.5 M385.1,219.8l0.2,0.6c0.1,0,0.2-0.1,0.2-0.1
	c0.1-0.1,0.1-0.2,0-0.2c0-0.1-0.1-0.2-0.2-0.2C385.3,219.8,385.2,219.8,385.1,219.8"/>
<path id="Path_529_00000148645076412678879720000017601657592579469722_" class="st13" d="M384.6,222.3c0-0.1,0-0.2,0-0.3
	c0-0.1,0-0.2,0.1-0.2c0-0.1,0.1-0.1,0.2-0.2c0.1-0.1,0.2-0.1,0.3-0.1l0.7-0.2l-0.1-0.2l0.4-0.1l0.1,0.3l0.5-0.1l0.1,0.4l-0.5,0.1
	l0.1,0.4l-0.4,0.1l-0.1-0.4l-0.7,0.2c-0.1,0-0.1,0.1-0.2,0.1c0,0.1,0,0.1,0,0.2c0,0,0,0.1,0,0.1c0,0,0,0.1,0.1,0.1l-0.4,0.2
	c0,0-0.1-0.1-0.1-0.2C384.6,222.5,384.6,222.4,384.6,222.3"/>
<path id="Path_530_00000164514366507948487670000008063033225013899697_" class="st13" d="M385,223.7c0-0.1-0.1-0.2,0-0.4
	c0-0.1,0-0.3,0.1-0.4l0.4,0.1c0,0.1-0.1,0.2-0.1,0.3c0,0.1,0,0.2,0,0.2c0,0.1,0,0.1,0.1,0.2c0,0,0.1,0,0.1,0c0,0,0.1,0,0.1-0.1
	c0,0,0-0.1,0-0.1c0,0,0-0.1,0-0.1v-0.2c0-0.1,0-0.1,0-0.2c0-0.1,0-0.1,0.1-0.2c0-0.1,0.1-0.1,0.1-0.2c0.1,0,0.1-0.1,0.2-0.1
	c0.1,0,0.2,0,0.2,0c0.1,0,0.2,0,0.2,0.1c0.1,0,0.1,0.1,0.2,0.2c0.1,0.1,0.1,0.2,0.1,0.3c0,0.1,0.1,0.2,0,0.4c0,0.1,0,0.2-0.1,0.3
	l-0.4-0.2c0-0.1,0-0.1,0.1-0.2c0-0.1,0-0.1,0-0.2c0-0.1-0.1-0.2-0.2-0.2c0,0-0.1,0-0.1,0.1c0,0,0,0.1,0,0.1v0.3c0,0.1,0,0.1,0,0.2
	c0,0.1,0,0.1-0.1,0.2c0,0.1-0.1,0.1-0.1,0.2c0,0.1-0.1,0.1-0.2,0.1c-0.1,0-0.2,0-0.2,0c-0.1,0-0.2,0-0.2-0.1l-0.2-0.2
	C385.1,223.9,385,223.8,385,223.7"/>
<path id="Path_531_00000050651010162734989780000005507580749771827387_" class="st13" d="M385.6,225.8c0-0.1,0-0.2,0-0.2
	c0-0.1,0-0.2,0.1-0.3l-0.2,0l-0.1-0.4l2.4-0.8l0.2,0.5l-0.6,0.2l-0.3,0.1c0.1,0,0.2,0.1,0.2,0.2c0.1,0.1,0.1,0.1,0.1,0.2
	c0,0.1,0.1,0.2,0,0.3c0,0.1,0,0.2-0.1,0.3c-0.1,0.1-0.1,0.2-0.2,0.2c-0.1,0.1-0.2,0.1-0.3,0.2c-0.1,0-0.3,0.1-0.4,0.1
	c-0.1,0-0.2,0-0.4-0.1c-0.1,0-0.2-0.1-0.3-0.2C385.7,226,385.7,225.9,385.6,225.8 M386,225.5c0,0.1,0.1,0.2,0.2,0.2
	c0.1,0,0.3,0,0.4,0c0.3-0.1,0.4-0.3,0.4-0.5c0-0.1-0.1-0.2-0.2-0.2l-0.7,0.2c0,0.1,0,0.1,0,0.2C386,225.4,386,225.5,386,225.5"/>
<path id="Path_532_00000060738067654431438030000008633832276982329006_" class="st13" d="M386.4,227.8c0-0.1-0.1-0.2-0.1-0.4
	c0-0.1,0-0.2,0.1-0.3c0-0.1,0.1-0.2,0.2-0.3c0.1-0.1,0.2-0.2,0.4-0.2c0.1,0,0.3-0.1,0.4-0.1c0.1,0,0.2,0,0.4,0.1
	c0.1,0,0.2,0.1,0.3,0.2c0.1,0.1,0.1,0.2,0.2,0.3c0,0.1,0.1,0.2,0.1,0.3c0,0.1,0,0.2-0.1,0.3c-0.1,0.1-0.1,0.2-0.2,0.2
	c-0.1,0.1-0.2,0.1-0.3,0.2c0,0-0.1,0-0.1,0c0,0-0.1,0-0.1,0l-0.4-1c-0.1,0-0.2,0.1-0.2,0.2c0,0.1,0,0.2,0,0.3
	c0.1,0.1,0.1,0.2,0.2,0.3l-0.2,0.3c-0.1-0.1-0.2-0.1-0.2-0.2C386.5,228,386.4,227.9,386.4,227.8 M387.3,227l0.2,0.6
	c0.1,0,0.2-0.1,0.2-0.2c0.1-0.1,0.1-0.2,0-0.2c0-0.1-0.1-0.1-0.2-0.2C387.5,227,387.4,227,387.3,227"/>
<path id="Path_533_00000057834030562753689050000001921807085576442282_" class="st13" d="M386.9,228.9l2.4-1l0.2,0.5l-1.4,0.5
	l0.9,0.3l0.2,0.5l-0.9-0.3l-0.7,1l-0.2-0.5l0.5-0.6l-0.3-0.1l-0.4,0.2L386.9,228.9z"/>
<path id="Path_534_00000036240545706757320350000007090838601703196831_" class="st13" d="M387.8,231.3l1.5-1.2l0.2,0.5l-0.7,0.5
	c-0.1,0-0.1,0.1-0.2,0.2c-0.1,0.1-0.2,0.1-0.2,0.2c0.1,0,0.2-0.1,0.3-0.1c0.1,0,0.2,0,0.3-0.1l0.8-0.2l0.2,0.4l-0.7,0.5
	c-0.1,0.1-0.3,0.2-0.4,0.3c0.1,0,0.2-0.1,0.3-0.1c0.1,0,0.2-0.1,0.3-0.1l0.8-0.2l0.2,0.5l-1.8,0.4l-0.3-0.6l0.6-0.5
	c0.1-0.1,0.2-0.1,0.2-0.2c0.1-0.1,0.2-0.1,0.2-0.2c-0.1,0-0.2,0.1-0.3,0.1c-0.1,0-0.2,0-0.2,0.1l-0.7,0.2L387.8,231.3z"/>
<path id="Path_535_00000154425932467997877320000012483060716884200877_" class="st13" d="M389.1,234.1c0-0.1-0.1-0.1-0.1-0.2
	c0-0.1,0-0.1,0-0.2c0.1-0.1,0.2-0.2,0.3-0.3c0.2-0.1,0.4-0.1,0.5,0c0.2,0.1,0.4,0.4,0.5,0.6c0.1,0,0.1-0.1,0.2-0.2
	c0-0.1,0-0.1,0-0.2c0-0.1-0.1-0.1-0.2-0.2c-0.1-0.1-0.1-0.1-0.2-0.2l0.2-0.3c0.1,0.1,0.2,0.2,0.3,0.2c0.1,0.1,0.2,0.2,0.2,0.3
	c0.1,0.2,0.1,0.4,0.1,0.6c-0.1,0.2-0.2,0.3-0.5,0.5l-0.9,0.5l-0.2-0.4l0.2-0.1c-0.1,0-0.2-0.1-0.3-0.2
	C389.3,234.3,389.2,234.2,389.1,234.1 M389.6,234.1c0,0.1,0.1,0.1,0.1,0.1c0,0,0.1,0.1,0.2,0.1l0.3-0.2c-0.1-0.1-0.2-0.2-0.3-0.3
	c-0.1,0-0.2-0.1-0.2,0c-0.1,0-0.1,0.1-0.1,0.1C389.5,234,389.6,234.1,389.6,234.1"/>
<path id="Path_536_00000097470495583829351400000018078630024536790710_" class="st13" d="M390.1,236c0-0.1-0.1-0.1-0.1-0.2
	c0-0.1,0-0.1,0-0.2l0.1-0.2c0.1-0.1,0.1-0.1,0.2-0.2c0.2-0.1,0.4-0.1,0.5,0c0.2,0.1,0.4,0.3,0.6,0.6c0.1,0,0.1-0.1,0.1-0.2
	c0-0.1,0-0.1,0-0.2c0-0.1-0.1-0.1-0.2-0.2c-0.1-0.1-0.1-0.1-0.2-0.2l0.2-0.3c0.1,0.1,0.2,0.2,0.3,0.2c0.1,0.1,0.2,0.2,0.2,0.3
	c0.1,0.2,0.1,0.4,0.1,0.6c-0.1,0.2-0.2,0.4-0.5,0.5l-0.9,0.5l-0.2-0.4l0.2-0.1c-0.1,0-0.2-0.1-0.3-0.2
	C390.2,236.2,390.1,236.1,390.1,236 M390.6,235.9c0,0.1,0.1,0.1,0.1,0.1c0,0,0.1,0.1,0.2,0.1l0.3-0.2c-0.1-0.1-0.2-0.2-0.3-0.3
	c-0.1,0-0.1,0-0.2,0c-0.1,0-0.1,0.1-0.1,0.1C390.5,235.9,390.5,235.9,390.6,235.9"/>
<path id="Path_537_00000065039377230972287980000001799594573992872322_" class="st13" d="M390.9,237.4l1.6-0.9l0.2,0.4l-0.2,0.2
	c0.1,0,0.2,0.1,0.3,0.1c0.1,0.1,0.2,0.1,0.2,0.2c0.1,0.1,0.1,0.2,0.1,0.3c0,0.1,0,0.2-0.1,0.3c0.1,0,0.2,0.1,0.3,0.1
	c0.1,0.1,0.2,0.1,0.2,0.2c0.1,0.1,0.1,0.3,0.1,0.5c-0.1,0.2-0.2,0.3-0.4,0.4l-1,0.6l-0.3-0.5l0.9-0.5c0.1,0,0.2-0.1,0.2-0.2
	c0-0.1,0-0.1,0-0.2c-0.1-0.1-0.2-0.2-0.3-0.2l-1.1,0.6l-0.3-0.5l0.9-0.5c0.1,0,0.2-0.1,0.2-0.2c0-0.1,0-0.1,0-0.2
	c-0.1-0.1-0.2-0.2-0.3-0.2l-1.1,0.6L390.9,237.4z"/>
<path id="Path_538_00000183951750716822988970000017349091707365398453_" class="st13" d="M392.6,240.3l2.2-1.4l0.3,0.5l-0.5,0.3
	l-0.3,0.2c0.1,0,0.2,0.1,0.3,0.1c0.1,0.1,0.2,0.1,0.2,0.2c0.1,0.1,0.1,0.3,0.1,0.5c-0.1,0.2-0.2,0.3-0.4,0.4l-0.9,0.6l-0.3-0.5
	l0.9-0.6c0.1,0,0.2-0.1,0.2-0.2c0-0.1,0-0.1,0-0.2c0-0.1-0.1-0.1-0.1-0.1c-0.1,0-0.1-0.1-0.2-0.1l-1,0.7L392.6,240.3z"/>
<path id="Path_539_00000155857603384577006240000009651948447440704657_" class="st13" d="M394.3,242.9c-0.1-0.1-0.1-0.2-0.2-0.3
	c0-0.1,0-0.2,0-0.4c0-0.1,0.1-0.2,0.1-0.3c0.1-0.1,0.2-0.2,0.3-0.3c0.1-0.1,0.2-0.1,0.4-0.2c0.1,0,0.2,0,0.4,0
	c0.1,0,0.2,0.1,0.3,0.1c0.1,0.1,0.2,0.1,0.2,0.2c0.1,0.1,0.1,0.2,0.2,0.3c0,0.1,0,0.2,0,0.3c0,0.1-0.1,0.2-0.2,0.3
	c-0.1,0.1-0.2,0.2-0.3,0.2c0,0-0.1,0.1-0.1,0.1c0,0-0.1,0-0.1,0l-0.6-0.9c-0.1,0.1-0.1,0.2-0.2,0.3c0,0.1,0,0.2,0.1,0.3
	c0.1,0.1,0.2,0.2,0.3,0.2l-0.2,0.3c-0.1,0-0.2-0.1-0.3-0.2C394.4,243,394.3,243,394.3,242.9 M395,241.9l0.4,0.5
	c0.1-0.1,0.2-0.1,0.2-0.2c0-0.1,0-0.2-0.1-0.2c-0.1-0.1-0.1-0.1-0.2-0.2C395.1,241.8,395.1,241.8,395,241.9"/>
<path id="Path_540_00000135666839344454573320000016662916680699725981_" class="st13" d="M395,243.9l1.5-1.1l0.3,0.4l-1.5,1.1
	L395,243.9z M396.9,242.8c-0.1-0.1-0.1-0.2-0.1-0.2c0-0.1,0-0.1,0.1-0.2c0.1,0,0.1-0.1,0.2-0.1c0.1,0,0.1,0.1,0.2,0.1
	c0.1,0.1,0.1,0.2,0.1,0.2c0,0.1,0,0.1-0.1,0.2c-0.1,0-0.1,0.1-0.2,0.1C397,243,396.9,242.9,396.9,242.8"/>
<path id="Path_541_00000005963285620661487370000001614170616642286770_" class="st13" d="M396.1,245.4c-0.1-0.1-0.1-0.2-0.1-0.3
	c0-0.1,0-0.2,0-0.3c0-0.1,0.1-0.2,0.2-0.3c0.1-0.1,0.2-0.2,0.3-0.3c0.1-0.1,0.2-0.1,0.4-0.2c0.1,0,0.2-0.1,0.3-0.1
	c0.1,0,0.2,0,0.3,0.1c0.1,0.1,0.1,0.1,0.2,0.2c0.1,0.1,0.1,0.2,0.1,0.2c0,0.1,0,0.2,0,0.2l0.2-0.2l0.5-0.4l0.3,0.4l-2,1.6l-0.3-0.4
	l0.1-0.2c-0.1,0-0.2,0-0.3-0.1C396.2,245.5,396.1,245.4,396.1,245.4 M396.5,245.2c0,0,0.1,0.1,0.1,0.1c0.1,0,0.1,0,0.2,0l0.6-0.5
	c0-0.1,0-0.1,0-0.2c0-0.1,0-0.1-0.1-0.1c-0.1-0.1-0.2-0.1-0.2-0.1c-0.1,0-0.3,0.1-0.4,0.2c-0.1,0.1-0.2,0.2-0.3,0.3
	C396.4,245,396.5,245.1,396.5,245.2"/>
<path id="Path_542_00000059283301778776543310000012709140479576292997_" class="st1" d="M449,178l0.2-38.7l0.7,0l0.1,38.9L449,178z
	"/>
<path id="Path_543_00000090998436619503551960000001567478850304139443_" class="st1" d="M473.5,195.3l36.8-12l0.2,0.6l-36.9,12.4
	L473.5,195.3z"/>
<path id="Path_544_00000019653614816821135250000010309350147743303097_" class="st1" d="M425.8,195.3l-36.8-12l-0.2,0.6l36.9,12.4
	L425.8,195.3z"/>
<path id="Path_545_00000080927666570706416510000016956295039102229941_" class="st1" d="M434.6,223.2l-22.5,31.5l0.5,0.4l22.9-31.4
	L434.6,223.2z"/>
<path id="Path_546_00000181794864976942615200000005117920653476451757_" class="st1" d="M464.6,223.3l22.5,31.5l-0.5,0.4
	l-22.9-31.4L464.6,223.3z"/>
<path id="Path_577_00000031926290961379453870000012542655720368761514_" class="st15" d="M534.2,262.3c-0.1-0.1-0.2-0.2-0.3-0.2"/>
<g>
	<g>
		<polygon class="st6" points="129.9,453.7 127.8,462 141.9,463.5 142.4,455.4 		"/>
		<g>
			<path class="st2" d="M136.2,454.1c0.1,0-0.1,1.7-0.5,3.8c-0.4,2.1-0.8,3.7-0.9,3.7c-0.1,0,0.1-1.7,0.5-3.8
				C135.7,455.8,136.1,454.1,136.2,454.1z"/>
		</g>
		<g>
			<path class="st2" d="M141.9,462.6c0,0.1-0.8-0.1-2-0.2c-1.4-0.2-3-0.4-4.9-0.7c-1.9-0.3-3.6-0.6-4.9-0.8c-1.2-0.2-2-0.4-2-0.5
				c0-0.1,0.8,0.1,2,0.2c1.4,0.2,3,0.4,4.9,0.7c1.9,0.3,3.6,0.6,4.9,0.8C141.2,462.4,141.9,462.6,141.9,462.6z"/>
		</g>
	</g>
	<g>
		<g>
			<g>
				<g>
					<g>
						<path class="st6" d="M194,459.2l-0.1-5.1h-15.2l0.1,9.2l0.9,0c4.2,0.1,21.4,0.4,24.2-0.5C207,461.9,194,459.2,194,459.2z"/>
					</g>
				</g>
			</g>
			<g>
				<g>
					<g>
						<path class="st2" d="M178.6,463c0,0,0.1,0,0.3,0c0.2,0,0.5,0,0.8,0c0.8,0,1.7,0,2.8,0.1c2.3,0,5.6,0,9.1,0
							c3.6-0.1,6.8-0.2,9.1-0.3c1.1-0.1,2-0.1,2.8-0.2c0.3,0,0.5,0,0.8-0.1c0.2,0,0.3,0,0.3,0c0,0-0.1,0-0.3,0c-0.2,0-0.5,0-0.8,0
							c-0.8,0-1.7,0.1-2.8,0.1c-2.3,0.1-5.6,0.2-9.1,0.3c-3.6,0.1-6.8,0.1-9.1,0.1c-1.1,0-2,0-2.8,0c-0.3,0-0.5,0-0.8,0
							C178.7,463,178.6,463,178.6,463z"/>
					</g>
				</g>
			</g>
			<g>
				<g>
					<g>
						<path class="st2" d="M199.1,463c0.1,0,0.1-0.7,0.5-1.3c0.4-0.7,1-1,0.9-1.1c0,0-0.7,0.3-1.1,1C199,462.3,199,463,199.1,463z"
							/>
					</g>
				</g>
			</g>
			<g>
				<g>
					<g>
						<path class="st2" d="M194.5,460.8c0,0,0.3-0.2,0.5-0.6c0.2-0.4,0.4-0.7,0.3-0.7c0,0-0.3,0.2-0.5,0.6
							C194.6,460.4,194.5,460.8,194.5,460.8z"/>
					</g>
				</g>
			</g>
			<g>
				<g>
					<g>
						<path class="st2" d="M193.3,460.2c0,0,0.3-0.1,0.5-0.4c0.3-0.2,0.4-0.5,0.4-0.5c0,0-0.3,0.1-0.5,0.4
							C193.4,459.9,193.3,460.1,193.3,460.2z"/>
					</g>
				</g>
			</g>
			<g>
				<g>
					<g>
						<path class="st2" d="M192.5,458.7c0,0.1,0.4,0.1,0.8,0.1c0.4,0,0.8,0,0.8-0.1c0-0.1-0.4-0.1-0.8-0.1
							C192.8,458.6,192.5,458.7,192.5,458.7z"/>
					</g>
				</g>
			</g>
			<g>
				<g>
					<g>
						<path class="st2" d="M192.2,457.7c0,0,0.4,0.2,0.9,0.2c0.5,0,0.9-0.1,0.9-0.1c0-0.1-0.4,0-0.9,0
							C192.6,457.8,192.2,457.7,192.2,457.7z"/>
					</g>
				</g>
			</g>
			<g>
				<g>
					<g>
						<path class="st2" d="M195,459.4c0,0,0.4,0.1,1,0c0.3,0,0.7-0.1,1-0.3c0.2-0.1,0.4-0.1,0.6-0.3c0.1-0.1,0.2-0.2,0.2-0.3
							c0-0.1,0-0.3-0.2-0.4c-0.9-0.5-1.9,0.1-2.2,0.6c-0.2,0.3-0.3,0.5-0.3,0.7c0,0.2,0,0.3,0,0.3c0,0,0.1-0.4,0.4-0.8
							c0.2-0.2,0.5-0.4,0.8-0.6c0.3-0.1,0.8-0.1,1.2,0.1c0.2,0.1,0.1,0.3-0.1,0.4c-0.2,0.1-0.4,0.2-0.5,0.2c-0.4,0.1-0.7,0.2-1,0.3
							C195.4,459.4,195,459.4,195,459.4z"/>
					</g>
				</g>
			</g>
			<g>
				<g>
					<g>
						<path class="st2" d="M195.3,459.5c0,0,0.2-0.2,0.1-0.7c0-0.2-0.1-0.5-0.3-0.7c-0.2-0.2-0.4-0.5-0.8-0.5
							c-0.2,0-0.3,0.3-0.3,0.5c0,0.2,0.1,0.3,0.2,0.4c0.2,0.2,0.3,0.4,0.5,0.6C195,459.4,195.2,459.5,195.3,459.5
							c-0.1,0-0.3-0.2-0.6-0.5c-0.1-0.2-0.3-0.3-0.4-0.6c-0.1-0.2-0.2-0.6,0-0.6c0.2,0,0.5,0.2,0.7,0.4c0.2,0.2,0.2,0.4,0.3,0.6
							C195.3,459.2,195.3,459.5,195.3,459.5z"/>
					</g>
				</g>
			</g>
			<g>
				<g>
					<g>
						<path class="st2" d="M178.8,458.8c0,0,0.4-0.1,1.1,0c0.7,0.1,1.6,0.3,2.5,1c0.8,0.6,1.3,1.5,1.6,2.1c0.2,0.6,0.3,1.1,0.3,1.1
							c0,0,0-0.1,0-0.3c0-0.2-0.1-0.5-0.2-0.8c-0.2-0.7-0.7-1.6-1.6-2.2c-0.9-0.7-1.9-0.9-2.6-0.9c-0.4,0-0.6,0-0.8,0
							C178.9,458.8,178.8,458.8,178.8,458.8z"/>
					</g>
				</g>
			</g>
			<g>
				<g>
					<g>
						<path class="st2" d="M186.2,461.6c0,0,1,0.2,2.2,0.2c1.2,0,2.2-0.2,2.2-0.2c0-0.1-1,0-2.2,0
							C187.2,461.6,186.2,461.5,186.2,461.6z"/>
					</g>
				</g>
			</g>
			<g>
				<g>
					<g>
						<path class="st2" d="M183.2,461.6c0,0,0.1,0.2,0.2,0.4c0.1,0.2,0.2,0.4,0.2,0.4c0,0,0.1-0.2-0.1-0.5
							C183.4,461.7,183.2,461.6,183.2,461.6z"/>
					</g>
				</g>
			</g>
			<g>
				<g>
					<g>
						<path class="st2" d="M182.1,460.3c0,0,0.1,0.2,0.2,0.3c0.2,0.2,0.3,0.3,0.4,0.2c0,0-0.1-0.2-0.2-0.3
							C182.2,460.3,182.1,460.2,182.1,460.3z"/>
					</g>
				</g>
			</g>
			<g>
				<g>
					<g>
						<path class="st2" d="M180.4,459.7c0,0.1,0.2,0,0.4,0.1c0.2,0.1,0.4,0.2,0.4,0.2c0,0-0.1-0.2-0.4-0.3
							C180.6,459.5,180.4,459.6,180.4,459.7z"/>
					</g>
				</g>
			</g>
			<g>
				<g>
					<g>
						<path class="st2" d="M179.3,459.4c0,0,0.1,0.1,0.2,0.2c0.1,0,0.2,0,0.3,0c0,0-0.1-0.1-0.2-0.2
							C179.4,459.3,179.3,459.3,179.3,459.4z"/>
					</g>
				</g>
			</g>
		</g>
	</g>
	<path class="st16" d="M249.7,261l-4.3,2.1l-4-6.2l2.3-4.8c0.2-0.4,0.5-0.9,0.7-1.5c0.3-0.7,0.5-1.4,0.5-2.1
		c0.1-0.9,0.1-2.1-0.1-2.7c-0.2-0.8,0.6-1.5,1.2-1c0.6,0.5,1.2,2.7,0.8,5.3c-0.4,2.7,2.7-0.2,3.8-1.2c1.1-1,4.8-4,5.4-3.8
		c0.8,0.2,0.8,1.1-0.3,2.1c-1.2,1-4.5,4.2-3.9,4.8c0,0,0,0,0,0c1.4,0.1,2.5,1.2,2.8,2.5c0.3,1.3,0.5,3.1-0.2,3.7
		C253.1,259.2,249.7,261,249.7,261z"/>
	<g>
		<g>
			<g>
				<path class="st16" d="M165.8,202.7l-0.1,37.6l16.1,0.8l0.5-9.1c0,0,5.7,1.1,7.2-4.2c0.9-3.4,0.7-29.6,0.7-29.6L165.8,202.7z"/>
			</g>
			<g>
				<path class="st2" d="M193.9,201.8c-1.1,2.2-6.3,6.4-6.3,6.4l-2.3,6.3c-2-1.6-4.8-1.5-5.3,2.1c-0.4,2.6,2.8,3.1,2.8,3.1
					c-1.9,3.2-3.1,5.7-5.8,8.8c-2.9,3.3-4.6,3.6-7.8,3.6h-3.5c0,0-7.2-6-5.8-21.8c1.4-15.8,15.6-11.2,19-15.2
					C184.5,188.5,197.5,194.3,193.9,201.8z"/>
			</g>
		</g>
	</g>
	<g>
		<g>
			<polyline class="st2" points="193.2,309.1 149.3,312.8 129.2,454.4 142.2,455.4 170.8,337.8 179.2,456.4 			"/>
			<path class="st2" d="M148.9,312.4l0.4,0l44.3-3.7l0,0.5l-0.4,147.2l-16.5,0.8l2.5-0.8l-8.7-115.2"/>
		</g>
	</g>
	<g>
		<g>
			<g>
				<g>
					<path class="st0" d="M147.2,320.8h46.9l-1.8-37.9c-0.3-7.5-0.3-8.3-0.4-15.2c0,0,7,8.5,12.5,14.4c3.3,3.6,8.6,4.6,13,2.5
						l28.8-20.1l-4-8l-27.6,10.2c-1.2-0.7-11.4-15.3-18.5-22.4c-4.5-4.5-10.6-7.2-17-7.4c-4.8-0.1-10.7,0.1-15.9,0.6
						c-7.9,0.8-14.2,7.2-14.8,15.2c-0.5,6.1-0.1,13.2-0.1,25.2L147.2,320.8z"/>
				</g>
			</g>
			<g>
				<path class="st0" d="M154.7,241c-4.4,2-22.9,25.6-24.2,41c-1,11.5,21.3,10.2,21.3,10.2s1.5-47,0.9-46.4"/>
			</g>
		</g>
		<g class="st17">
			<g>
				<path class="st18" d="M147.8,292.2"/>
			</g>
		</g>
	</g>
</g>
</svg>
