<?xml version="1.0" encoding="utf-8"?>
<!-- Generator: Adobe Illustrator 26.3.1, SVG Export Plug-In . SVG Version: 6.00 Build 0)  -->
<svg xmlns:xlink="http://www.w3.org/1999/xlink" version="1.1" id="Laag_1" xmlns="http://www.w3.org/2000/svg" x="0px"
     y="0px"
     viewBox="0 0 678.6 595.3" style="enable-background:new 0 0 678.6 595.3;" xml:space="preserve">
<style type="text/css">
	.st0{fill:#00ACA0;}
	.st1{fill:#9AD2CF;}
	.st2{fill:#FAD0CD;}
	.st3{fill:#EC665D;}
	.st4{fill:#64C0BB;}
	.st5{clip-path:url(#SVGID_00000117646776060836814470000016809729616992422074_);fill:#E5ECF6;}
	.st6{clip-path:url(#SVGID_00000117646776060836814470000016809729616992422074_);}
	.st7{fill:#AAB9E0;}
	.st8{fill:#314282;}
	.st9{fill:#241E4A;}
	.st10{fill:#FFFFFF;}
	.st11{fill:#030304;}
	.st12{fill:#3D3F3E;}
	.st13{fill:#CDB96F;}
	.st14{fill:#89CCCB;}
	.st15{opacity:0.65;}
	.st16{clip-path:url(#SVGID_00000152235230565408293250000009528467179453487761_);}
	.st17{opacity:0.5;}
	.st18{clip-path:url(#SVGID_00000044171111767775195230000006974660156278726283_);}
	.st19{fill:#050607;}
	.st20{fill:#EF7D77;}
</style>
    <g>
	<g>
		<path class="st0" d="M554.5,438.5h-466c-6.4,0-11.6-5.2-11.6-11.6V110.3c0-6.4,5.2-11.6,11.6-11.6h466c6.4,0,11.6,5.2,11.6,11.6
			v316.6C566.1,433.3,560.9,438.5,554.5,438.5z"/>
        <rect x="82.9" y="119.5" class="st1" width="475.5" height="301.5"/>
	</g>
        <rect x="91.2" y="241.1" class="st0" width="120.6" height="95.9"/>
        <rect x="222" y="131.6" class="st0" width="117.4" height="97.3"/>
        <g>
		<rect x="222.8" y="244.1" class="st0" width="120.6" height="7.8"/>
            <rect x="222.8" y="280" class="st0" width="120.6" height="7.8"/>
            <rect x="222.8" y="305.9" class="st0" width="120.6" height="7.8"/>
	</g>
        <rect x="440.7" y="349.7" class="st0" width="111" height="8.8"/>
        <g>
		<rect x="91.5" y="132.9" class="st0" width="122.7" height="8.8"/>
            <rect x="91.5" y="155" class="st0" width="122.7" height="8.8"/>
            <rect x="91.5" y="177.1" class="st0" width="122.7" height="8.8"/>
            <rect x="91.5" y="199.2" class="st0" width="122.7" height="8.8"/>
            <rect x="91.5" y="221.3" class="st0" width="122.7" height="8.8"/>
	</g>
        <g>
		<rect x="91.2" y="342.5" class="st0" width="120.6" height="7.8"/>
            <rect x="91.2" y="364.1" class="st0" width="120.6" height="7.8"/>
            <rect x="91.2" y="385.7" class="st0" width="120.6" height="7.8"/>
            <rect x="91.2" y="407.3" class="st0" width="120.6" height="7.8"/>
	</g>
        <g>
		<rect x="222.8" y="320.5" class="st0" width="120.6" height="5.7"/>
            <rect x="222.8" y="339.7" class="st0" width="120.6" height="5.7"/>
            <rect x="222.8" y="358.9" class="st0" width="120.6" height="5.7"/>
	</g>
        <rect x="440.7" y="371.9" class="st0" width="111" height="7.8"/>
        <rect x="440.7" y="393.6" class="st0" width="111" height="7.8"/>
        <g>
		<rect x="222.8" y="378.9" class="st0" width="120.6" height="5.7"/>
            <rect x="222.8" y="398.1" class="st0" width="120.6" height="5.7"/>
	</g>
        <g>
		<rect x="352.6" y="378.9" class="st0" width="78" height="5.7"/>
            <rect x="352.6" y="398.1" class="st0" width="78" height="5.7"/>
	</g>
        <g>
		<rect x="352.6" y="338.9" class="st0" width="78" height="5.7"/>
            <rect x="352.6" y="358.1" class="st0" width="78" height="5.7"/>
	</g>
</g>
    <g>
	<path class="st2" d="M169.3,225.3c-1.1-0.5-2.4-0.4-3.4-1.1c-0.5-0.4-0.9-1-1.2-1.6c-1-1.9-1.7-3.8-2.1-5.9c-0.5-2.5-0.6-5.3,1-7.3
		c4.5,3.3,5.6,9.7,9.7,13.6c0.6,0.6,1.3,1.1,1.7,1.9C177,229.3,170.3,225.7,169.3,225.3z"/>
        <path class="st3" d="M170,231.6c0.6-1.2,1.2-2.2,1.5-3c0.2-0.6,0.5-1.2,0.5-1.8c-0.2-1.9-2.7-4-3.5-5.8c-1.1-2.5-1.6-5.3-1.5-8
		c0-0.3,0.1-0.7,0.3-0.8c0.4-0.2,0.8,0.1,1.1,0.4c2.6,2.6,4.2,5.9,6.1,9c1.6,2.6,5.8,5.9,5.3,9.1c-0.2,1.3-0.9,2.6-1.6,3.7
		c-1,1.7-2,3.5-3,5.2c-0.5,0.9-1.1,1.9-2.1,2.1c-1.7,0.3-3.5-2-4.1-3.3C168,236,168.9,233.7,170,231.6z"/>
        <path class="st4" d="M170,230.3c3.3,2,6.6,3.9,9.8,5.9c-10.2,14-14.6,32.2-11.8,49.3c0.8,4.8,2.1,9.6,2.4,14.5
		c0.3,5.6-2,16.4-8.6,17.9c-2.3,0.6-5-0.2-6.6-1.9c-1.5-1.5-2.2-3.7-2.8-5.8c-4.6-16.3-4.2-34,0.9-50.2
		C154,257.8,167.5,228.8,170,230.3z"/>
        <g>
		<defs>
			
				<ellipse id="SVGID_1_" transform="matrix(0.2322 -0.9727 0.9727 0.2322 -37.2245 344.1323)" cx="199.4"
                         cy="195.6" rx="37.9" ry="37.9"/>
		</defs>
            <clipPath id="SVGID_00000159445647098050986860000017076828528764000390_">
			<use xlink:href="#SVGID_1_" style="overflow:visible;"/>
		</clipPath>

            <rect x="159.2" y="156.6"
                  style="clip-path:url(#SVGID_00000159445647098050986860000017076828528764000390_);fill:#E5ECF6;"
                  width="84.3" height="79.8"/>
            <g style="clip-path:url(#SVGID_00000159445647098050986860000017076828528764000390_);">
			<rect x="143.5" y="218.2" class="st7" width="111.2" height="11.4"/>
                <rect x="143.5" y="196.8" class="st7" width="111.2" height="11.4"/>
                <rect x="143.5" y="176.9" class="st7" width="111.2" height="11.4"/>
                <rect x="143.5" y="155.5" class="st7" width="111.2" height="11.4"/>
		</g>
	</g>
        <g>
		<g>
			<path class="st8" d="M202.3,234.3c-22.9,0-41.6-18.6-41.6-41.6s24.5-50.3,47.4-50.3s41.6,18.6,41.6,41.6
				C249.6,206.9,225.2,234.3,202.3,234.3z M202.3,158.4c-18.9,0-38.7,21.2-38.7,40.1c0,18.9,15.4,34.3,34.3,34.3
				c18.9,0,38.7-21.2,38.7-40.1C236.6,173.8,221.2,158.4,202.3,158.4z"/>
		</g>
	</g>
        <g>
		<path class="st9" d="M199.4,237.2c-22.9,0-41.6-18.6-41.6-41.6c0-22.9,18.6-41.6,41.6-41.6c22.9,0,41.6,18.6,41.6,41.6
			C240.9,218.6,222.3,237.2,199.4,237.2z M199.4,161.3c-18.9,0-34.3,15.4-34.3,34.3c0,18.9,15.4,34.3,34.3,34.3
			c18.9,0,34.3-15.4,34.3-34.3C233.7,176.7,218.3,161.3,199.4,161.3z"/>
	</g>
        <g>
		<path class="st10" d="M199.9,224.1c-6.4,0-12.8-2.2-18.2-6.3c-7.2-5.5-11.5-13.5-11.8-22.1c-0.2-6.1,1.6-12.4,5.1-17.5
			c0.9-1.3,2.8-1.6,4-0.6l0.2,0.1c1.1,0.9,1.3,2.5,0.5,3.6c-2.8,4.1-4.2,9.2-4.1,14.1c0.2,6.9,3.7,13.4,9.5,17.8
			c5.2,4,11.6,5.7,17.7,4.9c1.4-0.2,2.7,0.7,3,2l0,0.2c0.4,1.6-0.7,3.1-2.3,3.3C202.3,224.1,201.1,224.1,199.9,224.1z"/>
	</g>
        <g>
		<path class="st11" d="M88,471.9c-0.1,0.2-0.2,0.4-0.2,0.5c-1.2,3.2,2.4,6.4,4.1,8.8c2.7,4,5.5,7.9,8.2,11.9
			c0.9,1.3,1.8,2.7,3.2,3.6c3.2,2.3,9,1.8,8-3.3c-0.4-2-1.8-3.7-3-5.4c-2.5-3.4-4.7-7.4-5-11.7c-0.4-4.5,1.9-7.8,4.2-11.5
			c1.8-2.9,3-6.1,3.5-9.5c0.2-1,0.3-2,0-2.9c-0.2-1-0.9-1.9-1.8-2.2c-0.5-0.2-1.1-0.1-1.6,0c-3.8,0.7-6.9,4.1-8.7,7.3
			c-2.3,4-5.1,7.7-8.2,11.1C89.6,469.7,88.6,470.7,88,471.9z"/>
            <path class="st11" d="M164.6,490.7c-0.2,1.5-0.3,3.2,0.8,4.2c0.8,0.7,2,0.8,3.1,0.8c5.8,0.1,11.6,0.4,17.3,1
			c2.9,0.3,4.7,0.1,7.5-0.9c1.3-0.5,2.7-1.3,3-2.7c0.3-1.5-0.7-2.9-2-3.6s-2.8-0.9-4.3-1.1c-3.1-0.5-7.6-0.6-9.6-3.3
			c-1.8-2.4-1.7-5.8-1.7-8.7c0-2,0.2-4.1,0.1-6.1c-0.1-2-0.7-4.1-2-5.7s-3.5-2.5-5.4-1.9c-1.5,0.5-2.7,1.8-3.3,3.3
			c-0.6,1.5-0.8,3.1-1,4.7C166.1,477.2,164.8,484,164.6,490.7z"/>
            <path class="st2" d="M226.4,226.9c-1.3,1.3-2.7,2.5-4.1,3.6c-2.5,2.1-4.4,1-7.3,0.4c-0.5-0.1-1-0.2-1.5-0.1
			c-0.5,0.1-0.9,0.5-1,0.9c-0.1,0.8,2.9,2.9,3.5,3.6c1.1,1.5,2,3.2,2.1,5.1c0.1,2.4-0.4,5-0.5,7.4c-0.1,1.4-0.1,2.8-0.1,4.2
			c0,2.5,0.2,5.6,2.1,7.5c2.8,3,5.6-0.5,5.9-3.3c0.1-1.5,0-3-0.1-4.4c-0.5-6,0.2-11.5,2.9-17c2-4.1,4.8-7.1,5.3-11.8
			c0.1-0.5,0.1-1-0.2-1.5c-0.5-0.9-1.8-0.9-2.6-0.3C228.9,222.5,227.9,225.3,226.4,226.9z"/>
            <path class="st2" d="M174.6,277.9c-0.9-4.8-2.3-10-0.3-14.5c1.7-3.8,5.8-6.3,9.9-6.1c4.1,0.1,8,2.8,9.7,6.6
			c1.3,2.8,1.4,6.4,0.1,9.2c-1.4,2.9-4,4.3-4.8,7.7c-0.6,2.4-0.6,5-0.8,7.5c-0.2,1.9-0.5,4-1.7,5.5c-1.6,2-4.5,2.7-7,2.2
			c-1.9-0.4-5.9-2-6.8-3.8c-0.9-1.7,1.1-3.4,1.7-5C175.5,284.2,175.1,280.9,174.6,277.9z"/>
            <path class="st4" d="M227.4,244.6h-11.9c0,1.1,0.1,2.2,0.1,3.3c0.1,4,0.2,8.1,0.4,12.1c0.2,6,0,11.1-3.2,16.3
			c-3.7,6.2-10.7,14-18.2,15c-2.7,0.4-5.5-0.3-8.2-0.8c-6.5-1.2-18.8-3-24.2,1.9c-2.5,2.3-3.1,5.9-3.7,9.2
			c-1.6,8.7-4.4,17.2-8.3,25.3c-1.7,3.5-3.6,6.9-3.9,10.8c-0.4,4.7,1.8,9.4,5.2,12.7c3.9,3.7,8.1,2.5,12.9,3.5
			c5.4,1.2,11.7,3.9,17.2,4.3c5.8,0.3,5.2-7,5.9-11.1c1.2-7.3,2.4-14.7,5-21.6c2.5-7,6.5-13.6,12.3-18.2c5.1-4,11.6-6.3,16.3-10.9
			c1.4-1.3,2.6-2.8,3.6-4.5c2.6-4,4.2-8.7,4.7-13.3c0.2-2,0.1-4.1,0-6.1C228.8,263.2,227.6,253.8,227.4,244.6z"/>
            <path class="st12" d="M123.2,405.3c-1.2,3.3-2.4,6.6-3.8,9.8c-7.2,16.7-17.8,30.9-27.1,46.5c0.8,0.7,16.1,10.7,15.5,11.7
			c20.9-22,38.7-56.4,50.7-90.8c3.9-11.3,8.5-22.3,11.9-33.7c0.2-0.8,0.5-1.7,0.3-2.5c-0.2-1.2-1.2-2.2-2.2-3
			c-5.8-4.9-12.5-8.8-19.6-11.4c-0.1-1,0.1-2.1,0.6-3c-0.4-0.5-1.2,0.1-1.6,0.7c-6.1,9.5-8.1,22.4-10.8,33.4
			c-1.1,4.5-1.8,9.1-3.5,13.4c-1.8,4.6-3.6,9.2-5.2,13.9C126.6,395.2,125,400.3,123.2,405.3z"/>
            <path class="st13" d="M192.3,265.7c0.3-3,1.3-5.8,1.3-9c0-0.7-0.1-1.4-0.4-2c-1.5-4.2-5.3-1.6-8.3-2.5c-1.1-0.3-2-0.9-3.1-1.3
			c-1.7-0.6-4-0.5-5.6,0.5c-1.8,1.1-1.7,3.6-3.4,5c-2.1,1.7-4,2.1-5,5.1c-0.5,1.6,0.1,5.5-0.9,6.6c-1,1.1-4.4,0.5-5.8,1
			c-4.1,1.2-7.8,4.2-9.3,8.3c0-0.1-5.7,0.4-6.3,0.6c-2.3,0.6-4.6,1.6-6.6,2.9c-4.1,2.7-7.4,6.7-8.4,11.6c-0.8,3.8-0.6,7.7,0.2,11.5
			c0.4,1.9,1,3.8,1.8,5.6c2.9,6.1,9.1,10.3,15.7,11.7c6.6,1.4,13.6,0.4,20-1.9c8.2-2.9,16-8,20.3-15.6c3.2-5.6,4.2-12.7,2.2-18.8
			c-0.5-1.5-1.5-2.8-2-4.2c-0.7-2-0.5-1.7,0.8-3.4c1.9-2.5,2.9-5.1,2.6-8.3C192.2,267.7,192.2,266.7,192.3,265.7z"/>
            <path class="st12" d="M161.4,416.8c0.7,10.7,1.1,21.5,1.3,32.2c0.2,10.3-0.8,21.3,0.3,31.6c0,0.3,18.2,0,19-0.8
			c0.8-0.9,0.3-5.3,0.3-6.4c0.2-5,0.3-10,0.5-15c0.2-5.9,0.5-11.9,0.9-17.8c0.4-5.7,2.3-10,3.6-15.5c2.7-11.5,2.3-23.4,1.5-35.1
			c-1-14.9-1.8-29.2,0.2-44.1c-2-0.5-4.7-2.5-6.9-3.5c-4.4-2-8.9-4-13.2-6.1c-3.6-1.7-7.2-3.4-10.8-5c-2.4-1-7.1-4.3-9.5-2.3
			c-1,0.9-1.6,2.2-2,3.5c-2,6.1-2.8,12.7-1.1,18.8c1.9,7.1,6.7,12.9,9.1,19.8c2.7,7.9,2.2,16.7,3.8,24.9
			C159.6,403,160.9,409.8,161.4,416.8z"/>
	</g>
</g>
    <path id="Path_400_00000067215339670863117820000000586243087825025708_" class="st10" d="M452.4,138.6c46,0,83.3,37.3,83.3,83.3
	c0,46-37.3,83.3-83.3,83.3c-46,0-83.3-37.3-83.3-83.3C369.1,176,406.4,138.6,452.4,138.6L452.4,138.6"/>
    <g>
	<path id="Path_401_00000020384829967844253100000001022007125277054873_" class="st14" d="M391.4,222c0-6.3,1-12.6,2.9-18.6
		l-10.2-3.4c-9.5,29.5,1.1,61.7,26.1,80l6.3-8.7C400.8,259.8,391.4,241.5,391.4,222"/>
        <path id="Path_402_00000129896277897476449650000014798852545645148580_" class="st14" d="M402.2,222c0-5.2,0.8-10.3,2.3-15.2
		l-10.2-3.4c-8,25,0.9,52.4,22.2,67.9l6.3-8.7C409.8,253.1,402.1,238,402.2,222"/>
        <path id="Path_404_00000006695634540297036880000007885381237705814665_" class="st14" d="M412.9,222c0-4,0.6-8,1.8-11.8l-10.2-3.4
		c-6.5,20.6,0.8,43,18.3,55.8l6.3-8.7C418.9,246.4,412.9,234.6,412.9,222"/>
        <path id="Path_406_00000139281595106466026630000014612590277329016963_" class="st14" d="M414.7,210.2c-5,16.1,0.7,33.7,14.3,43.7
		l22.6-31.5L414.7,210.2z"/>
        <path id="Path_408_00000083783717260173922740000006647724516292796316_" class="st14" d="M452.4,283c-12.8,0-25.2-4-35.6-11.4
		l-6.4,8.6c25.1,18.1,58.9,18.1,83.9-0.1l-6.4-8.6C477.7,279,465.3,283,452.4,283"/>
        <path id="Path_409_00000003797087320512149500000014387581004228775300_" class="st14" d="M452.4,272.3c-10.5,0-20.7-3.3-29.2-9.4
		l-6.4,8.6c21.3,15.3,50,15.3,71.3-0.1l-6.4-8.6C473.2,269,463,272.3,452.4,272.3"/>
        <path id="Path_411_00000140724724749597462650000013392173233876099749_" class="st14" d="M452.4,261.6c-8.2,0-16.2-2.5-22.9-7.3
		l-6.4,8.6c17.5,12.5,41,12.5,58.5-0.1l-6.4-8.6C468.7,259,460.7,261.6,452.4,261.6"/>
        <path id="Path_413_00000059988918570160600550000004252844649070969747_" class="st14" d="M429.6,254.3c13.7,9.7,32.1,9.7,45.8-0.1
		l-22.9-31.1L429.6,254.3z"/>
        <path id="Path_415_00000047040549085273529280000001933780583365839543_" class="st14" d="M524.2,222c0-7.4-1.1-14.8-3.4-21.9
		l-10.2,3.4c7.9,25-1,52.3-22.1,67.7l6.3,8.7C513.2,266.4,524.2,244.9,524.2,222"/>
        <path id="Path_416_00000055682456342014546720000001487883468559723673_" class="st14" d="M502.7,222c0,16-7.6,31.1-20.5,40.5
		l6.3,8.7c21.1-15.5,30.1-42.8,22.1-67.8l-10.2,3.4C501.9,211.7,502.7,216.9,502.7,222"/>
        <path id="Path_418_00000007405606817874207810000009686226459383029695_" class="st14" d="M492,222c0,12.5-6,24.4-16.1,31.8
		l6.3,8.7c17.4-12.7,24.7-35.1,18.2-55.7l-10.2,3.4C491.4,214,492,218,492,222"/>
        <path id="Path_420_00000150098940078078359430000005656968282953901470_" class="st14" d="M476,253.8c10.1-7.5,16.1-19.3,16.1-31.8
		c0-4-0.6-8-1.8-11.8l-36.8,12.2L476,253.8z"/>
        <path id="Path_422_00000156573530286774833600000006895451784047402917_" class="st14" d="M510.4,203.1l10.2-3.3
		c-9.6-29.5-37-49.4-68-49.5l0.1,10.7C479,161.1,502.3,178.1,510.4,203.1"/>
        <path id="Path_423_00000118373515514919323070000015227287959433529770_" class="st14" d="M500.2,206.3l10.2-3.3
		c-8.2-25-31.4-41.9-57.7-42.1l0.1,10.7C474.4,171.9,493.5,185.8,500.2,206.3"/>
        <path id="Path_425_00000052788412087636990180000009580668245153153159_" class="st14" d="M452.8,171.7l0.1,10.7
		c16.9,0.2,31.8,11.1,37.2,27.1l10.2-3.3C493.5,185.8,474.4,171.9,452.8,171.7"/>
        <path id="Path_427_00000166658544601052610420000009463842117610929581_" class="st14" d="M490,209.6c-5.3-16.1-20.2-27-37.2-27.1
		l0.2,38.9L490,209.6z"/>
        <path id="Path_429_00000028291806562171288030000014482486503268738460_" class="st14" d="M452.3,161l0.1-10.7
		c-31,0-58.5,20-68.1,49.5l10.2,3.3C402.7,178,426,161.1,452.3,161"/>
        <path id="Path_430_00000070102202073737138810000006089067799527968677_" class="st14" d="M452.2,171.7l0.1-10.7
		c-26.3,0.1-49.7,17-57.9,42l10.2,3.3C411.4,185.7,430.6,171.8,452.2,171.7"/>
        <path id="Path_432_00000069390297193564453960000011432157692194326443_" class="st14" d="M452.2,182.4l0.1-10.7
		c-21.6,0.1-40.8,14-47.6,34.5l10.2,3.3C420.2,193.4,435.2,182.6,452.2,182.4"/>
        <path id="Path_434_00000151512543921950409360000014699788299735036037_" class="st14" d="M452.2,182.4
		c-16.9,0.1-31.9,11-37.3,27.1l37.1,11.8L452.2,182.4z"/>
</g>
    <path id="Path_403_00000054954377067101017970000006791188174057266857_" class="st10" d="M416.6,271.5l-0.1-0.1
	c-15.8-11.5-25.2-29.9-25.2-49.4c0-6.3,1-12.6,2.9-18.6l0.1-0.2l10.5,3.5l0,0.2c-6.5,20.5,0.8,42.9,18.2,55.6l0.1,0.1L416.6,271.5z
	 M394.4,203.6c-7.9,24.9,1,52,22,67.4l6.1-8.4C409.6,253.1,402,238,402,222c0-5.1,0.8-10.2,2.3-15.1L394.4,203.6z"/>
    <path id="Path_405_00000149358935810395897280000001948203805997848742_" class="st10" d="M422.8,262.8l-0.1-0.1
	c-17.5-12.8-24.8-35.3-18.3-56l0.1-0.2l10.5,3.5l0,0.2c-5,16.1,0.7,33.5,14.3,43.5l0.1,0.1L422.8,262.8z M404.6,207.1
	c-3.9,12.6-2.7,26.3,3.3,38c3.6,6.8,8.6,12.7,14.8,17.3l6.1-8.4c-13.5-10-19.2-27.5-14.3-43.6L404.6,207.1z"/>
    <path id="Path_407_00000118397430504777885830000016851483000805288832_" class="st10" d="M429,254.1l-0.1-0.1
	c-10.2-7.5-16.2-19.4-16.2-32c0-4,0.6-8,1.8-11.9l0.1-0.2l37.3,12.4L429,254.1z M414.8,210.4c-4.9,16,0.8,33.2,14.2,43.2l22.3-31.1
	L414.8,210.4z"/>
    <path id="Path_410_00000035532793379599442940000010244490176572482228_" class="st10" d="M452.4,283.2c-12.8,0-25.3-4-35.7-11.5
	l-0.1-0.1l6.6-8.9l0.1,0.1c17.5,12.4,40.9,12.4,58.3-0.1l0.1-0.1l6.6,8.9l-0.1,0.1C477.8,279.1,465.3,283.2,452.4,283.2
	 M417.1,271.5c21.2,15.1,49.6,15.1,70.8-0.1l-6.2-8.4c-17.5,12.4-40.9,12.5-58.5,0.1L417.1,271.5z"/>
    <path id="Path_412_00000122697074736592284000000014421339177642671786_" class="st10" d="M452.4,272.5c-10.5,0-20.8-3.3-29.3-9.4
	L423,263l6.6-8.9l0.1,0.1c13.7,9.7,32,9.7,45.6-0.1l0.1-0.1l6.6,8.9l-0.1,0.1C473.3,269.2,463,272.5,452.4,272.5 M423.5,262.9
	c17.4,12.3,40.7,12.3,58.1-0.1l-6.2-8.4c-13.7,9.7-32,9.7-45.8,0.1L423.5,262.9z"/>
    <path id="Path_414_00000153695985030948038150000014974657682237076370_" class="st10" d="M452.4,261.7c-8.2,0-16.3-2.5-23-7.3
	l-0.1-0.1l0.1-0.1l23.1-31.4l23.1,31.5l-0.1,0.1C468.8,259.2,460.7,261.7,452.4,261.7 M429.8,254.2c13.6,9.6,31.8,9.5,45.3-0.1
	l-22.7-30.8L429.8,254.2z"/>
    <path id="Path_417_00000145025321703873588000000001824601165679485582_" class="st10" d="M488.4,271.5l-6.5-9l0.1-0.1
	c6.2-4.6,11.3-10.5,14.9-17.4c3.7-7.1,5.6-15,5.6-23c0-5.1-0.8-10.2-2.3-15.1l0-0.2l10.5-3.5l0.1,0.2c8,25.1-0.9,52.4-22.2,67.9
	L488.4,271.5z M482.5,262.6l6.1,8.4c15.6-11.5,24.8-29.6,24.8-49c0-6.2-0.9-12.4-2.8-18.3l-9.9,3.3c3.9,12.7,2.7,26.4-3.3,38.2
	C493.7,252,488.7,258,482.5,262.6"/>
    <g id="Group_170_00000010290443932704830450000010243539941886780597_" transform="translate(426.733 140.595)"
       class="st15">
	<g id="Group_169_00000049937625258870821470000016635160022463177871_">
		<g>
			<defs>
				<rect id="SVGID_00000107554182493244785610000013382363979162776764_" x="49" y="66" width="27.2"
                      height="56.1"/>
			</defs>
            <clipPath id="SVGID_00000092447124380577109440000010659004660778128785_">
				<use xlink:href="#SVGID_00000107554182493244785610000013382363979162776764_" style="overflow:visible;"/>
			</clipPath>

            <g id="Group_168_00000106148375780893111880000002766247136601053353_"
               style="clip-path:url(#SVGID_00000092447124380577109440000010659004660778128785_);">
				<path id="Path_419_00000155137067820248496210000007242520125178490274_" class="st10" d="M55.5,122.2l-6.5-9l0.1-0.1
					c10-7.4,15.9-19.2,16-31.7c0-4-0.6-7.9-1.8-11.7l0-0.2L73.8,66l0.1,0.2c6.5,20.6-0.8,43.1-18.3,55.9L55.5,122.2z M49.5,113.2
					l6.1,8.4c6.2-4.6,11.2-10.5,14.7-17.3c6-11.7,7.2-25.3,3.3-37.9l-9.9,3.3c1.2,3.8,1.8,7.7,1.8,11.7
					C65.4,93.9,59.5,105.7,49.5,113.2"/>
			</g>
		</g>
	</g>
</g>
    <g id="Group_173_00000101825816563793750240000009016624965782843284_" transform="translate(398.936 144.748)"
       class="st17">
	<g id="Group_172_00000113330681138249845060000013046393360293787008_">
		<g>
			<defs>
				<rect id="SVGID_00000036948890614824531220000003649364745680615346_" x="54.2" y="65.3" width="39"
                      height="44"/>
			</defs>
            <clipPath id="SVGID_00000132079614192048530860000014323321201014905248_">
				<use xlink:href="#SVGID_00000036948890614824531220000003649364745680615346_" style="overflow:visible;"/>
			</clipPath>

            <g id="Group_171_00000004518697602475245870000016506506739119089038_"
               style="clip-path:url(#SVGID_00000132079614192048530860000014323321201014905248_);">
				<path id="Path_421_00000166651905568252622960000005256019928057590414_" class="st10" d="M77,109.3L54.2,77.6l37.2-12.3
					l0.1,0.2c1.2,3.8,1.8,7.8,1.8,11.8c0,12.6-6,24.4-16.1,31.9L77,109.3z M54.8,77.8l22.3,31c13.3-9.9,19-27.2,14.1-43.1L54.8,77.8
					z"/>
			</g>
		</g>
	</g>
</g>
    <path id="Path_424_00000018205875551925422960000009984152504153994388_" class="st10" d="M500.1,206.5l-0.1-0.2
	c-6.7-20.5-25.7-34.4-47.3-34.5h-0.2l-0.1-11.1h0.2c26.4,0.1,49.7,17.1,57.9,42.2l0.1,0.2L500.1,206.5z M453,171.5
	c21.6,0.2,40.6,14.1,47.4,34.5l9.9-3.2c-8.2-24.8-31.2-41.6-57.3-41.8L453,171.5z"/>
    <path id="Path_426_00000000933832720981129930000011770589367050378134_" class="st10" d="M489.9,209.8l-0.1-0.2
	c-5.3-16-20.2-26.8-37-27h-0.2l-0.1-11.1h0.2c21.7,0.1,40.9,14.1,47.6,34.7l0.1,0.2L489.9,209.8z M453,182.3
	c16.9,0.2,31.7,11.1,37.1,27.1l9.9-3.2c-6.7-20.3-25.6-34.1-47.1-34.3L453,182.3z"/>
    <path id="Path_428_00000156566870639462071630000005095819352868122772_" class="st10" d="M452.9,221.6l-0.2-39.3h0.2
	c17,0.2,32,11.1,37.3,27.3l0.1,0.2l-0.2,0.1L452.9,221.6z M453,182.6l0.2,38.5l36.5-11.6C484.5,193.6,469.7,182.9,453,182.6"/>
    <path id="Path_431_00000137846076681618078710000015447837646874361746_" class="st10" d="M404.8,206.5l-10.6-3.4l0.1-0.2
	c8.2-25.1,31.6-42.1,58-42.1h0.2l-0.1,11.1h-0.2c-21.6,0.1-40.7,13.9-47.4,34.4L404.8,206.5z M394.7,202.9l9.9,3.2
	c6.8-20.5,25.9-34.4,47.5-34.5l0.1-10.4C426,161.3,402.9,178.1,394.7,202.9"/>
    <path id="Path_433_00000105414125998819198570000014793701819603283631_" class="st10" d="M415,209.8l-10.6-3.4l0.1-0.2
	c6.8-20.6,26-34.6,47.7-34.7h0.2l-0.1,11.1h-0.2c-16.9,0.1-31.8,11-37.1,27L415,209.8z M404.9,206.2l9.9,3.2
	c5.4-16,20.3-26.9,37.2-27.1l0.1-10.4C430.6,172,411.6,185.8,404.9,206.2"/>
    <path id="Path_435_00000165915004784152172790000016649824742811637135_" class="st10" d="M452.1,221.6l-37.4-11.9l0.1-0.2
	c5.4-16.2,20.4-27.1,37.4-27.2h0.2L452.1,221.6z M415.1,209.4l36.7,11.7l0.2-38.5C435.3,182.8,420.5,193.5,415.1,209.4"/>
    <path id="Path_436_00000059281175684984276230000012246034474677089425_" class="st10" d="M432.1,201.6c11.3-11.3,29.5-11.3,40.8,0
	c11.3,11.3,11.3,29.5,0,40.8c-11.3,11.3-29.5,11.3-40.8,0c0,0,0,0,0,0C420.8,231.1,420.8,212.9,432.1,201.6"/>
    <path id="Path_437_00000013185728483383180920000008194328630085657761_" class="st19" d="M440,220.2l-1.4-4.8h1.1l0.6,2.2
	c0.1,0.3,0.1,0.5,0.2,0.8c0.1,0.2,0.1,0.5,0.2,0.8h0c0.1-0.3,0.1-0.5,0.2-0.8c0.1-0.2,0.1-0.5,0.2-0.8l0.6-2.2h1.1l-1.4,4.8H440z"/>
    <path id="Path_438_00000023979117456128363580000012310148981735334590_" class="st19" d="M444.1,216c-0.2,0-0.3-0.1-0.4-0.2
	c-0.2-0.2-0.2-0.6,0-0.8c0,0,0,0,0,0c0.3-0.2,0.6-0.2,0.9,0c0.2,0.2,0.2,0.6,0,0.8C444.4,215.9,444.3,216,444.1,216 M443.5,216.5
	h1.1v3.6h-1.1L443.5,216.5z"/>
    <path id="Path_439_00000149381300956562405000000004572928815297208483_" class="st19" d="M447,220.3c-0.3,0-0.5,0-0.8-0.1
	c-0.2-0.1-0.5-0.2-0.7-0.4l0.5-0.7c0.1,0.1,0.3,0.2,0.5,0.3c0.2,0.1,0.3,0.1,0.5,0.1c0.1,0,0.2,0,0.3-0.1c0.1-0.1,0.1-0.2,0.1-0.2
	c0-0.1,0-0.1-0.1-0.2c-0.1-0.1-0.1-0.1-0.2-0.1c-0.1,0-0.2-0.1-0.2-0.1c-0.1,0-0.2-0.1-0.3-0.1c-0.1,0-0.2-0.1-0.3-0.2l-0.3-0.2
	c-0.1-0.1-0.2-0.2-0.2-0.3c-0.1-0.1-0.1-0.3-0.1-0.4c0-0.2,0-0.3,0.1-0.5c0.1-0.1,0.2-0.3,0.3-0.4c0.1-0.1,0.3-0.2,0.4-0.2
	c0.4-0.1,0.9-0.1,1.3,0.1c0.2,0.1,0.4,0.2,0.5,0.3l-0.5,0.7c-0.1-0.1-0.3-0.2-0.4-0.2c-0.1-0.1-0.2-0.1-0.4-0.1
	c-0.3,0-0.4,0.1-0.4,0.3c0,0.1,0,0.1,0.1,0.1c0.1,0,0.1,0.1,0.2,0.1c0.1,0,0.2,0.1,0.2,0.1c0.1,0,0.2,0.1,0.3,0.1
	c0.1,0,0.2,0.1,0.3,0.1c0.1,0.1,0.2,0.1,0.3,0.2c0.1,0.1,0.2,0.2,0.2,0.3c0.1,0.1,0.1,0.3,0.1,0.4c0,0.2,0,0.3-0.1,0.5
	c-0.1,0.1-0.2,0.3-0.3,0.4c-0.1,0.1-0.3,0.2-0.5,0.2C447.5,220.2,447.3,220.3,447,220.3"/>
    <path id="Path_440_00000090280340592744732420000012747278594465818023_" class="st19" d="M450.1,216c-0.2,0-0.3-0.1-0.4-0.2
	c-0.2-0.2-0.2-0.6,0-0.8c0,0,0,0,0,0c0.3-0.2,0.6-0.2,0.9,0c0.2,0.2,0.2,0.6,0,0.8c0,0,0,0,0,0C450.4,215.9,450.3,216,450.1,216
	 M449.6,216.5h1.1v3.6h-1.1V216.5z"/>
    <path id="Path_441_00000029015304959404330740000010214477411364992154_" class="st19" d="M453.6,220.3c-0.2,0-0.5,0-0.7-0.1
	c-0.2-0.1-0.4-0.2-0.6-0.4c-0.2-0.2-0.3-0.4-0.4-0.6c-0.1-0.3-0.1-0.5-0.1-0.8c0-0.3,0-0.5,0.1-0.8c0.1-0.2,0.2-0.4,0.4-0.6
	c0.2-0.2,0.3-0.3,0.6-0.4c0.2-0.1,0.4-0.1,0.6-0.1c0.2,0,0.5,0,0.7,0.1c0.2,0.1,0.4,0.2,0.5,0.4c0.1,0.2,0.2,0.3,0.3,0.6
	c0.1,0.2,0.1,0.5,0.1,0.7v0.3c0,0.1,0,0.1,0,0.2h-2.2c0,0.2,0.2,0.4,0.3,0.6c0.2,0.1,0.4,0.2,0.6,0.2c0.3,0,0.6-0.1,0.8-0.2l0.4,0.7
	c-0.2,0.1-0.4,0.2-0.6,0.3C454.1,220.2,453.9,220.3,453.6,220.3 M452.8,217.9h1.3c0-0.2,0-0.4-0.1-0.5c-0.1-0.1-0.3-0.2-0.5-0.2
	c-0.2,0-0.3,0.1-0.4,0.2C452.9,217.5,452.8,217.7,452.8,217.9"/>
    <path id="Path_442_00000108285677061108662680000013925000249903802040_" class="st19" d="M459.6,220.3c-0.2,0-0.5,0-0.7-0.1
	c-0.4-0.2-0.8-0.5-1-1c-0.2-0.5-0.2-1.1,0-1.7c0.2-0.4,0.5-0.8,1-1c0.2-0.1,0.5-0.1,0.7-0.1c0.2,0,0.4,0,0.7,0.1
	c0.2,0.1,0.4,0.2,0.6,0.4c0.2,0.2,0.3,0.4,0.4,0.6c0.2,0.5,0.2,1.1,0,1.7c-0.2,0.4-0.5,0.8-1,1C460,220.2,459.8,220.3,459.6,220.3
	 M459.6,219.4c0.2,0,0.4-0.1,0.5-0.3c0.2-0.5,0.2-1,0-1.5c-0.1-0.2-0.3-0.3-0.5-0.3c-0.2,0-0.4,0.1-0.5,0.3c-0.2,0.5-0.2,1,0,1.5
	C459.2,219.3,459.4,219.4,459.6,219.4"/>
    <path id="Path_443_00000150068588597558820600000004596061822958177665_" class="st19" d="M462.5,221.6v-5h0.9l0.1,0.4h0
	c0.1-0.1,0.3-0.2,0.5-0.3c0.2-0.1,0.4-0.1,0.5-0.1c0.2,0,0.4,0,0.6,0.1c0.2,0.1,0.3,0.2,0.4,0.4c0.1,0.2,0.2,0.4,0.3,0.6
	c0.1,0.2,0.1,0.5,0.1,0.8c0,0.3,0,0.6-0.1,0.8c-0.1,0.2-0.2,0.4-0.3,0.6c-0.1,0.2-0.3,0.3-0.5,0.4c-0.2,0.1-0.4,0.1-0.6,0.1
	c-0.2,0-0.3,0-0.4-0.1c-0.1-0.1-0.3-0.2-0.4-0.3l0,0.6v1.1H462.5L462.5,221.6z M464.2,219.4c0.2,0,0.4-0.1,0.5-0.2
	c0.2-0.2,0.2-0.5,0.2-0.8c0-0.7-0.2-1-0.6-1c-0.2,0-0.5,0.1-0.6,0.3v1.5c0.1,0.1,0.2,0.1,0.3,0.2C464,219.4,464.1,219.4,464.2,219.4
	"/>
    <path id="Path_444_00000036951351036450301770000000771798601465982855_" class="st19" d="M436.8,229.1c-0.3,0-0.6-0.1-0.9-0.2
	c-0.3-0.1-0.5-0.3-0.7-0.5c-0.2-0.2-0.4-0.5-0.4-0.8c-0.1-0.3-0.2-0.7-0.2-1.1c0-0.4,0.1-0.7,0.2-1.1c0.1-0.3,0.2-0.6,0.4-0.8
	c0.2-0.2,0.4-0.4,0.7-0.5c0.6-0.2,1.2-0.2,1.8,0c0.3,0.1,0.5,0.3,0.7,0.5c0.2,0.2,0.4,0.5,0.4,0.8c0.1,0.3,0.2,0.7,0.2,1
	c0,0.4-0.1,0.7-0.2,1.1c-0.1,0.3-0.2,0.6-0.4,0.8c-0.2,0.2-0.4,0.4-0.7,0.5C437.4,229.1,437.1,229.1,436.8,229.1 M436.8,228.2
	c0.3,0,0.6-0.1,0.8-0.4c0.2-0.3,0.3-0.8,0.3-1.2c0-0.4-0.1-0.8-0.3-1.1c-0.3-0.4-0.9-0.5-1.3-0.2c-0.1,0.1-0.2,0.1-0.2,0.2
	c-0.2,0.3-0.3,0.7-0.3,1.1c0,0.4,0.1,0.8,0.3,1.2C436.2,228,436.5,228.2,436.8,228.2"/>
    <path id="Path_445_00000148640019852574659210000018201699913280626308_" class="st19" d="M440.1,229.1v-3.6h0.9l0.1,0.5h0
	c0.2-0.1,0.3-0.3,0.5-0.4c0.2-0.1,0.4-0.2,0.7-0.2c0.3,0,0.7,0.1,0.9,0.4c0.2,0.3,0.3,0.7,0.3,1.1v2.3h-1.1V227c0-0.2,0-0.4-0.1-0.6
	c-0.1-0.1-0.2-0.2-0.3-0.1c-0.1,0-0.2,0-0.3,0.1c-0.1,0.1-0.2,0.2-0.3,0.3v2.5L440.1,229.1L440.1,229.1z"/>
    <path id="Path_446_00000173133842842807392690000004180425704856437664_" class="st19" d="M446.1,229.1c-0.2,0-0.4,0-0.6-0.1
	c-0.2-0.1-0.3-0.2-0.5-0.4c-0.1-0.2-0.2-0.4-0.3-0.6c-0.1-0.3-0.1-0.5-0.1-0.8c0-0.3,0-0.5,0.1-0.8c0.1-0.2,0.2-0.4,0.3-0.6
	c0.1-0.2,0.3-0.3,0.5-0.4c0.2-0.1,0.4-0.1,0.5-0.1c0.2,0,0.4,0,0.5,0.1c0.1,0.1,0.3,0.2,0.4,0.3l0-0.5v-1.3h1.1v5.2h-0.9l-0.1-0.4h0
	c-0.1,0.1-0.3,0.2-0.4,0.3C446.4,229.1,446.2,229.1,446.1,229.1 M446.3,228.3c0.1,0,0.2,0,0.3-0.1c0.1,0,0.2-0.1,0.3-0.3v-1.5
	c-0.1-0.1-0.2-0.1-0.3-0.2c-0.1,0-0.2-0.1-0.3-0.1c-0.2,0-0.3,0.1-0.4,0.2c-0.2,0.2-0.2,0.5-0.2,0.8c0,0.3,0,0.5,0.2,0.8
	C445.9,228.1,446.1,228.3,446.3,228.3"/>
    <path id="Path_447_00000083796619059918405600000002579658871050591159_" class="st19" d="M451,229.1c-0.2,0-0.5,0-0.7-0.1
	c-0.2-0.1-0.4-0.2-0.6-0.4c-0.2-0.2-0.3-0.4-0.4-0.6c-0.1-0.3-0.1-0.5-0.1-0.8c0-0.3,0-0.5,0.1-0.8c0.1-0.2,0.2-0.4,0.4-0.6
	c0.2-0.2,0.3-0.3,0.5-0.4c0.2-0.1,0.4-0.1,0.7-0.1c0.2,0,0.5,0,0.7,0.1c0.2,0.1,0.4,0.2,0.5,0.4c0.1,0.2,0.2,0.3,0.3,0.5
	c0.1,0.2,0.1,0.5,0.1,0.7v0.3c0,0.1,0,0.2,0,0.2h-2.2c0,0.2,0.2,0.4,0.3,0.6c0.2,0.1,0.4,0.2,0.6,0.2c0.3,0,0.6-0.1,0.8-0.2l0.4,0.7
	c-0.2,0.1-0.4,0.2-0.6,0.3C451.5,229.1,451.2,229.1,451,229.1 M450.1,226.8h1.3c0-0.2,0-0.4-0.1-0.5c-0.1-0.1-0.3-0.2-0.5-0.2
	c-0.2,0-0.3,0.1-0.4,0.2C450.3,226.4,450.2,226.6,450.1,226.8"/>
    <path id="Path_448_00000088825177966770216220000006665094026527052966_" class="st19" d="M453.5,229.1v-3.6h0.9l0.1,0.7h0
	c0.1-0.2,0.3-0.4,0.5-0.6c0.2-0.1,0.4-0.2,0.5-0.2c0.1,0,0.2,0,0.2,0c0.1,0,0.1,0,0.2,0.1l-0.2,0.9c-0.1,0-0.1,0-0.2,0h-0.2
	c-0.2,0-0.3,0-0.4,0.1c-0.2,0.1-0.3,0.3-0.4,0.5v2.1L453.5,229.1L453.5,229.1z"/>
    <path id="Path_449_00000062893939161092020550000016157516354349858209_" class="st19" d="M457.5,229l-0.9-3.6h1.1l0.3,1.7
	c0,0.2,0.1,0.4,0.1,0.5c0,0.2,0.1,0.4,0.1,0.6h0c0-0.2,0.1-0.4,0.1-0.6l0.1-0.5l0.4-1.7h0.9l0.4,1.7c0,0.2,0.1,0.4,0.1,0.6
	c0,0.2,0.1,0.3,0.1,0.6h0c0-0.2,0.1-0.4,0.1-0.6c0-0.2,0-0.3,0.1-0.6l0.3-1.7h1l-0.9,3.6h-1.3l-0.3-1.4l-0.1-0.5
	c0-0.2-0.1-0.3-0.1-0.5h0c0,0.2-0.1,0.4-0.1,0.5l-0.1,0.5l-0.3,1.4L457.5,229L457.5,229z"/>
    <path id="Path_450_00000044895820012637570770000004039122349707814584_" class="st19" d="M463.5,224.9c-0.2,0-0.3-0.1-0.4-0.2
	c-0.2-0.2-0.2-0.6,0-0.8c0,0,0,0,0,0c0.3-0.2,0.6-0.2,0.9,0c0.2,0.2,0.2,0.6,0,0.8c0,0,0,0,0,0C463.8,224.8,463.7,224.9,463.5,224.9
	 M463,225.4h1.1v3.6H463V225.4z"/>
    <path id="Path_451_00000094575679378621654910000014702342324516219029_" class="st19" d="M465.2,230.5c-0.1,0-0.3,0-0.4,0
	c-0.1,0-0.2,0-0.3-0.1l0.2-0.8c0,0,0.1,0,0.1,0h0.1c0.1,0,0.2,0,0.3-0.1c0.1-0.1,0.1-0.3,0.1-0.4v-3.7h1.1v3.6c0,0.2,0,0.4-0.1,0.6
	c0,0.2-0.1,0.3-0.2,0.5c-0.1,0.1-0.2,0.2-0.4,0.3C465.6,230.5,465.4,230.5,465.2,230.5 M465.9,224.9c-0.2,0-0.3-0.1-0.4-0.2
	c-0.2-0.2-0.2-0.6,0-0.8c0,0,0,0,0,0c0.3-0.2,0.6-0.2,0.9,0c0.2,0.2,0.2,0.6,0,0.8c0,0,0,0,0,0C466.2,224.8,466.1,224.9,465.9,224.9
	"/>
    <path id="Path_452_00000139989436771137156420000008857107149978865814_" class="st19" d="M468.9,229.1c-0.3,0-0.5,0-0.8-0.1
	c-0.2-0.1-0.5-0.2-0.7-0.4l0.5-0.7c0.1,0.1,0.3,0.2,0.5,0.3c0.2,0.1,0.3,0.1,0.5,0.1c0.1,0,0.2,0,0.3-0.1c0.1-0.1,0.1-0.2,0.1-0.2
	c0-0.1,0-0.1-0.1-0.2c-0.1-0.1-0.1-0.1-0.2-0.1c-0.1,0-0.2-0.1-0.2-0.1c-0.1,0-0.2-0.1-0.3-0.1c-0.1,0-0.2-0.1-0.3-0.2l-0.3-0.2
	c-0.1-0.1-0.2-0.2-0.2-0.3c-0.1-0.1-0.1-0.3-0.1-0.4c0-0.2,0-0.3,0.1-0.5c0.1-0.1,0.2-0.3,0.3-0.4c0.1-0.1,0.3-0.2,0.4-0.2
	c0.4-0.1,0.9-0.1,1.3,0.1c0.2,0.1,0.4,0.2,0.5,0.3l-0.5,0.7c-0.1-0.1-0.3-0.2-0.4-0.2c-0.1-0.1-0.2-0.1-0.4-0.1
	c-0.3,0-0.4,0.1-0.4,0.3c0,0.1,0,0.1,0.1,0.1c0.1,0,0.1,0.1,0.2,0.1c0.1,0,0.2,0.1,0.2,0.1c0.1,0,0.2,0.1,0.3,0.1
	c0.1,0,0.2,0.1,0.3,0.1l0.3,0.2c0.1,0.1,0.2,0.2,0.2,0.3c0.1,0.1,0.1,0.3,0.1,0.4c0,0.2,0,0.3-0.1,0.5c-0.1,0.1-0.2,0.3-0.3,0.4
	c-0.1,0.1-0.3,0.2-0.5,0.2C469.3,229.1,469.1,229.1,468.9,229.1"/>
    <path id="Path_453_00000023279803917512929200000011736822286955468215_" class="st19" d="M429.6,198.8V198h0.9v-2.5h-0.8v-0.6
	c0.2,0,0.4-0.1,0.6-0.2c0.2-0.1,0.3-0.1,0.5-0.2h0.7v3.5h0.8v0.8L429.6,198.8L429.6,198.8z"/>
    <path id="Path_454_00000134964778499339208230000000038696978704198062_" class="st19" d="M419,234.3v-0.8h0.9v-2.5h-0.8v-0.6
	c0.2,0,0.4-0.1,0.6-0.2c0.2-0.1,0.3-0.1,0.5-0.2h0.7v3.5h0.8v0.8L419,234.3L419,234.3z"/>
    <path id="Path_455_00000007408060528206387520000004028103816000875404_" class="st19" d="M482.9,234.3v-0.8h0.9v-2.5H483v-0.6
	c0.2,0,0.4-0.1,0.6-0.2c0.2-0.1,0.3-0.1,0.5-0.2h0.7v3.5h0.8v0.8L482.9,234.3L482.9,234.3z"/>
    <path id="Path_456_00000145031029876901943290000002738041094168260024_" class="st19" d="M492.5,240v-0.6c0.3-0.2,0.5-0.5,0.8-0.7
	c0.2-0.2,0.4-0.4,0.6-0.6c0.1-0.2,0.3-0.4,0.4-0.6c0.1-0.1,0.1-0.3,0.1-0.5c0-0.2-0.1-0.3-0.2-0.5c-0.1-0.1-0.3-0.2-0.4-0.2
	c-0.2,0-0.3,0-0.4,0.1c-0.1,0.1-0.2,0.2-0.3,0.3l-0.6-0.5c0.2-0.2,0.4-0.4,0.6-0.5c0.2-0.1,0.5-0.2,0.8-0.2c0.2,0,0.4,0,0.6,0.1
	c0.2,0.1,0.3,0.2,0.4,0.3c0.1,0.1,0.2,0.3,0.3,0.4c0.1,0.2,0.1,0.4,0.1,0.6c0,0.2,0,0.4-0.1,0.6c-0.1,0.2-0.2,0.4-0.3,0.6
	c-0.1,0.2-0.3,0.4-0.4,0.5c-0.2,0.2-0.3,0.4-0.5,0.6c0.1,0,0.2,0,0.3,0h1.2v0.8H492.5z"/>
    <path id="Path_457_00000100363770552843274080000006402557950529799305_" class="st19" d="M503.2,246.5c-0.3,0-0.6-0.1-0.9-0.2
	c-0.2-0.1-0.4-0.2-0.6-0.4l0.4-0.6c0.1,0.1,0.3,0.2,0.4,0.3c0.2,0.1,0.3,0.1,0.5,0.1c0.2,0,0.4,0,0.5-0.1c0.1-0.1,0.2-0.2,0.2-0.4
	c0-0.1,0-0.2,0-0.2c0-0.1-0.1-0.1-0.2-0.2c-0.1-0.1-0.2-0.1-0.3-0.1c-0.2,0-0.4,0-0.6,0v-0.7c0.2,0,0.3,0,0.5,0
	c0.1,0,0.2-0.1,0.3-0.1c0.1,0,0.1-0.1,0.2-0.2c0-0.1,0-0.2,0-0.2c0-0.1,0-0.3-0.1-0.3c-0.1-0.1-0.2-0.1-0.4-0.1
	c-0.1,0-0.3,0-0.4,0.1c-0.1,0.1-0.3,0.2-0.4,0.3l-0.5-0.6c0.2-0.2,0.4-0.3,0.6-0.4c0.2-0.1,0.5-0.1,0.7-0.1c0.2,0,0.4,0,0.6,0.1
	c0.2,0.1,0.3,0.1,0.4,0.2c0.1,0.1,0.2,0.2,0.3,0.4c0.1,0.2,0.1,0.3,0.1,0.5c0,0.2-0.1,0.4-0.2,0.6c-0.2,0.2-0.3,0.3-0.5,0.4v0
	c0.2,0.1,0.4,0.2,0.6,0.4c0.2,0.2,0.3,0.4,0.2,0.7c0,0.2,0,0.4-0.1,0.5c-0.1,0.1-0.2,0.3-0.3,0.4c-0.2,0.1-0.3,0.2-0.5,0.2
	C503.6,246.5,503.4,246.5,503.2,246.5"/>
    <path id="Path_458_00000124125258955936530630000004726748300198200235_" class="st19" d="M513.1,252.7v-1h-1.9v-0.7l1.5-2.6h1.2
	v2.5h0.5v0.8h-0.5v1L513.1,252.7L513.1,252.7z M512.2,250.9h0.9v-1.2c0-0.2,0-0.3,0-0.5h0c-0.1,0.1-0.1,0.2-0.2,0.3
	c-0.1,0.1-0.1,0.2-0.2,0.4L512.2,250.9z"/>
    <path id="Path_459_00000149340071565564835130000011958891342523009692_" class="st19" d="M408.3,238.7v-0.6
	c0.3-0.2,0.5-0.5,0.8-0.7c0.2-0.2,0.4-0.4,0.6-0.6c0.1-0.2,0.3-0.4,0.4-0.6c0.1-0.1,0.1-0.3,0.1-0.5c0-0.2-0.1-0.3-0.2-0.5
	c-0.1-0.1-0.3-0.2-0.4-0.2c-0.2,0-0.3,0-0.4,0.1c-0.1,0.1-0.2,0.2-0.3,0.3l-0.6-0.5c0.2-0.2,0.4-0.4,0.7-0.5
	c0.2-0.1,0.5-0.2,0.8-0.2c0.2,0,0.4,0,0.6,0.1c0.2,0.1,0.3,0.2,0.4,0.3c0.1,0.1,0.2,0.3,0.3,0.4c0.1,0.2,0.1,0.4,0.1,0.6
	c0,0.2,0,0.4-0.1,0.6c-0.1,0.2-0.2,0.4-0.3,0.6c-0.1,0.2-0.3,0.4-0.4,0.6c-0.2,0.2-0.3,0.4-0.5,0.5c0.1,0,0.2,0,0.3,0h1.2v0.8
	L408.3,238.7z"/>
    <path id="Path_460_00000119078088785635218870000012136351975147435683_" class="st19" d="M400.1,243.3c-0.3,0-0.6-0.1-0.9-0.2
	c-0.2-0.1-0.4-0.2-0.6-0.4l0.4-0.6c0.1,0.1,0.3,0.2,0.4,0.3c0.2,0.1,0.3,0.1,0.5,0.1c0.2,0,0.4,0,0.5-0.1c0.1-0.1,0.2-0.2,0.2-0.4
	c0-0.1,0-0.2,0-0.2c0-0.1-0.1-0.1-0.2-0.2c-0.1-0.1-0.2-0.1-0.3-0.1c-0.2,0-0.4,0-0.6,0v-0.7c0.2,0,0.3,0,0.5,0
	c0.1,0,0.2-0.1,0.3-0.1c0.1,0,0.1-0.1,0.2-0.2c0-0.1,0-0.2,0-0.2c0-0.1,0-0.3-0.1-0.3c-0.1-0.1-0.2-0.1-0.4-0.1
	c-0.1,0-0.3,0-0.4,0.1c-0.1,0.1-0.3,0.2-0.4,0.3l-0.5-0.6c0.2-0.2,0.4-0.3,0.6-0.4c0.2-0.1,0.5-0.1,0.7-0.1c0.2,0,0.4,0,0.6,0.1
	c0.2,0.1,0.3,0.1,0.4,0.2c0.1,0.1,0.2,0.2,0.3,0.4c0.1,0.2,0.1,0.3,0.1,0.5c0,0.2-0.1,0.4-0.2,0.6c-0.2,0.2-0.3,0.3-0.5,0.4v0
	c0.2,0.1,0.4,0.2,0.6,0.4c0.2,0.2,0.3,0.4,0.2,0.7c0,0.2,0,0.4-0.1,0.5c-0.1,0.1-0.2,0.3-0.3,0.4c-0.2,0.1-0.3,0.2-0.5,0.2
	C400.5,243.3,400.3,243.3,400.1,243.3"/>
    <path id="Path_461_00000088823582658801631020000001903596258850629540_" class="st19" d="M391.1,248.6v-1h-1.9v-0.7l1.5-2.6h1.2
	v2.5h0.5v0.8H392v1L391.1,248.6L391.1,248.6z M390.2,246.8h0.9v-1.2c0-0.2,0-0.3,0-0.5h0c-0.1,0.1-0.1,0.2-0.2,0.3
	c-0.1,0.1-0.1,0.2-0.2,0.4L390.2,246.8z"/>
    <path id="Path_462_00000037691200157975033480000011799467317556333960_" class="st19" d="M473.3,198.8V198h0.9v-2.5h-0.8v-0.6
	c0.2,0,0.4-0.1,0.6-0.2c0.2-0.1,0.3-0.1,0.5-0.2h0.7v3.5h0.8v0.8L473.3,198.8L473.3,198.8z"/>
    <path id="Path_463_00000001656684105787136990000012592408918944181394_" class="st19" d="M451.3,258.6v-0.8h0.9v-2.5h-0.8v-0.6
	c0.2,0,0.4-0.1,0.6-0.2c0.2-0.1,0.3-0.1,0.5-0.2h0.7v3.5h0.8v0.8L451.3,258.6L451.3,258.6z"/>
    <path id="Path_464_00000074402810344067250890000014977518726754910396_" class="st19" d="M451.1,268.8v-0.5
	c0.3-0.2,0.5-0.5,0.8-0.7s0.4-0.4,0.6-0.6c0.1-0.2,0.3-0.4,0.4-0.5c0.1-0.1,0.1-0.3,0.1-0.5c0-0.2-0.1-0.3-0.2-0.5
	c-0.1-0.1-0.3-0.2-0.4-0.2c-0.2,0-0.3,0-0.4,0.1c-0.1,0.1-0.2,0.2-0.3,0.3l-0.6-0.5c0.2-0.2,0.4-0.4,0.6-0.5
	c0.2-0.1,0.5-0.2,0.8-0.2c0.2,0,0.4,0,0.6,0.1c0.2,0.1,0.3,0.2,0.4,0.3c0.1,0.1,0.2,0.3,0.3,0.4c0.1,0.2,0.1,0.4,0.1,0.6
	c0,0.2,0,0.4-0.1,0.5c-0.1,0.2-0.2,0.4-0.3,0.5c-0.1,0.2-0.3,0.4-0.4,0.5c-0.2,0.2-0.3,0.4-0.5,0.6c0.1,0,0.2,0,0.3,0h1.2v0.8
	L451.1,268.8z"/>
    <path id="Path_465_00000140002573562194815200000010135453404095921046_" class="st19" d="M452.4,280.1c-0.3,0-0.6-0.1-0.9-0.2
	c-0.2-0.1-0.4-0.2-0.6-0.4l0.4-0.6c0.1,0.1,0.3,0.2,0.4,0.3c0.2,0.1,0.3,0.1,0.5,0.1c0.2,0,0.4,0,0.5-0.1c0.1-0.1,0.2-0.2,0.2-0.4
	c0-0.1,0-0.2,0-0.2c0-0.1-0.1-0.1-0.2-0.2c-0.1-0.1-0.2-0.1-0.3-0.1c-0.2,0-0.4,0-0.6,0v-0.7c0.2,0,0.3,0,0.5,0
	c0.1,0,0.2-0.1,0.3-0.1c0.1,0,0.1-0.1,0.2-0.2c0-0.1,0-0.2,0-0.2c0-0.1,0-0.3-0.1-0.3c-0.1-0.1-0.2-0.1-0.4-0.1
	c-0.1,0-0.3,0-0.4,0.1c-0.1,0.1-0.3,0.2-0.4,0.3l-0.5-0.6c0.2-0.2,0.4-0.3,0.6-0.4c0.2-0.1,0.5-0.1,0.7-0.1c0.2,0,0.4,0,0.6,0.1
	c0.2,0.1,0.3,0.1,0.4,0.2c0.1,0.1,0.2,0.2,0.3,0.4c0.1,0.2,0.1,0.3,0.1,0.5c0,0.2-0.1,0.4-0.2,0.6c-0.2,0.2-0.3,0.3-0.5,0.4v0
	c0.2,0.1,0.4,0.2,0.6,0.4c0.2,0.2,0.3,0.4,0.2,0.7c0,0.2,0,0.4-0.1,0.5c-0.1,0.1-0.2,0.3-0.3,0.4c-0.2,0.1-0.3,0.2-0.5,0.2
	C452.9,280,452.7,280.1,452.4,280.1"/>
    <path id="Path_466_00000142882417435176589930000003138018555188508548_" class="st19" d="M452.8,290.4v-1h-1.9v-0.7l1.5-2.6h1.2
	v2.5h0.5v0.8h-0.5v1L452.8,290.4L452.8,290.4z M451.9,288.7h0.9v-1.2c0-0.2,0-0.3,0-0.5h0c-0.1,0.1-0.1,0.2-0.2,0.3
	c-0.1,0.1-0.1,0.2-0.2,0.4L451.9,288.7z"/>
    <path id="Path_467_00000038408374887786992840000002626391502016398976_" class="st19" d="M481.1,190.8v-0.5
	c0.3-0.2,0.5-0.5,0.8-0.7c0.2-0.2,0.4-0.4,0.6-0.6c0.1-0.2,0.3-0.4,0.4-0.6c0.1-0.1,0.1-0.3,0.1-0.5c0-0.2-0.1-0.3-0.2-0.5
	c-0.1-0.1-0.3-0.2-0.4-0.2c-0.2,0-0.3,0-0.4,0.1c-0.1,0.1-0.2,0.2-0.3,0.3l-0.6-0.5c0.2-0.2,0.4-0.4,0.6-0.5
	c0.2-0.1,0.5-0.2,0.8-0.2c0.2,0,0.4,0,0.6,0.1c0.2,0.1,0.3,0.2,0.4,0.3c0.1,0.1,0.2,0.3,0.3,0.4c0.1,0.2,0.1,0.4,0.1,0.5
	c0,0.2,0,0.4-0.1,0.6c-0.1,0.2-0.2,0.4-0.3,0.6c-0.1,0.2-0.3,0.4-0.4,0.6c-0.2,0.2-0.3,0.4-0.5,0.6c0.1,0,0.2,0,0.3,0h1.2v0.8H481.1
	z"/>
    <path id="Path_468_00000144321691567055707920000002635291212630152367_" class="st19" d="M489.8,183.5c-0.3,0-0.6-0.1-0.9-0.2
	c-0.2-0.1-0.4-0.2-0.6-0.4l0.4-0.6c0.1,0.1,0.3,0.2,0.4,0.3c0.2,0.1,0.3,0.1,0.5,0.1c0.2,0,0.4,0,0.5-0.1c0.1-0.1,0.2-0.2,0.2-0.4
	c0-0.1,0-0.2,0-0.2c0-0.1-0.1-0.1-0.2-0.2c-0.1-0.1-0.2-0.1-0.3-0.1c-0.2,0-0.4,0-0.6,0v-0.7c0.2,0,0.3,0,0.5,0
	c0.1,0,0.2-0.1,0.3-0.1c0.1,0,0.1-0.1,0.2-0.2c0-0.1,0-0.2,0-0.2c0-0.1,0-0.3-0.1-0.3c-0.1-0.1-0.2-0.1-0.4-0.1
	c-0.1,0-0.3,0-0.4,0.1c-0.1,0.1-0.3,0.2-0.4,0.3l-0.5-0.6c0.2-0.2,0.4-0.3,0.6-0.4c0.2-0.1,0.5-0.1,0.7-0.1c0.2,0,0.4,0,0.6,0.1
	c0.2,0.1,0.3,0.1,0.4,0.2c0.1,0.1,0.2,0.2,0.3,0.4c0.1,0.2,0.1,0.3,0.1,0.5c0,0.2-0.1,0.4-0.2,0.6c-0.2,0.2-0.3,0.3-0.5,0.4v0
	c0.2,0.1,0.4,0.2,0.6,0.4c0.2,0.2,0.3,0.4,0.2,0.7c0,0.2,0,0.4-0.1,0.5c-0.1,0.1-0.2,0.3-0.3,0.4c-0.2,0.1-0.3,0.2-0.5,0.2
	C490.3,183.5,490.1,183.5,489.8,183.5"/>
    <path id="Path_469_00000170248403864834566320000006323551425964624303_" class="st19" d="M498,175.7v-1h-1.9v-0.7l1.5-2.6h1.2v2.5
	h0.5v0.8h-0.5v1L498,175.7L498,175.7z M497.1,173.9h0.9v-1.2c0-0.2,0-0.3,0-0.5h0c-0.1,0.1-0.1,0.2-0.2,0.3
	c-0.1,0.1-0.1,0.2-0.2,0.4L497.1,173.9z"/>
    <path id="Path_470_00000029020149772827836040000008226997795015263108_" class="st19" d="M421.2,190.7v-0.5
	c0.3-0.2,0.5-0.5,0.8-0.7c0.2-0.2,0.4-0.4,0.6-0.6c0.1-0.2,0.3-0.4,0.4-0.6c0.1-0.1,0.1-0.3,0.1-0.5c0-0.2-0.1-0.3-0.2-0.5
	c-0.1-0.1-0.3-0.2-0.4-0.2c-0.2,0-0.3,0-0.4,0.1c-0.1,0.1-0.2,0.2-0.3,0.3l-0.6-0.5c0.2-0.2,0.4-0.4,0.7-0.5
	c0.2-0.1,0.5-0.2,0.8-0.2c0.2,0,0.4,0,0.6,0.1c0.2,0.1,0.3,0.2,0.4,0.3c0.1,0.1,0.2,0.3,0.3,0.4c0.1,0.2,0.1,0.4,0.1,0.6
	c0,0.2,0,0.4-0.1,0.5c-0.1,0.2-0.2,0.4-0.3,0.6c-0.1,0.2-0.3,0.4-0.4,0.6c-0.2,0.2-0.3,0.4-0.5,0.6c0.1,0,0.2,0,0.3,0h1.2v0.8
	L421.2,190.7z"/>
    <path id="Path_471_00000179614435085391411930000006249686301010167992_" class="st19" d="M414.8,182.9c-0.3,0-0.6-0.1-0.9-0.2
	c-0.2-0.1-0.4-0.2-0.6-0.4l0.4-0.6c0.1,0.1,0.3,0.2,0.4,0.3c0.2,0.1,0.3,0.1,0.5,0.1c0.2,0,0.4,0,0.5-0.1c0.1-0.1,0.2-0.2,0.2-0.4
	c0-0.1,0-0.2,0-0.2c0-0.1-0.1-0.1-0.2-0.2c-0.1-0.1-0.2-0.1-0.3-0.1c-0.2,0-0.4,0-0.6,0v-0.7c0.2,0,0.3,0,0.5,0
	c0.1,0,0.2-0.1,0.3-0.1c0.1,0,0.1-0.1,0.2-0.2c0-0.1,0-0.2,0-0.2c0-0.1,0-0.3-0.1-0.3c-0.1-0.1-0.2-0.1-0.4-0.1
	c-0.1,0-0.3,0-0.4,0.1c-0.1,0.1-0.3,0.2-0.4,0.3l-0.5-0.6c0.2-0.2,0.4-0.3,0.6-0.4c0.2-0.1,0.5-0.1,0.7-0.1c0.2,0,0.4,0,0.6,0.1
	c0.2,0.1,0.3,0.1,0.4,0.2c0.1,0.1,0.2,0.2,0.3,0.4c0.1,0.2,0.1,0.3,0.1,0.5c0,0.2-0.1,0.4-0.2,0.6c-0.2,0.2-0.3,0.3-0.5,0.4v0
	c0.2,0.1,0.4,0.2,0.6,0.4c0.2,0.2,0.3,0.4,0.2,0.7c0,0.2,0,0.4-0.1,0.5c-0.1,0.1-0.2,0.3-0.3,0.4c-0.2,0.1-0.3,0.2-0.5,0.2
	C415.2,182.9,415,182.9,414.8,182.9"/>
    <path id="Path_472_00000029767865627843604550000013997858174779139506_" class="st19" d="M407.4,175.1v-1h-1.9v-0.7l1.5-2.6h1.2
	v2.5h0.5v0.8h-0.5v1L407.4,175.1L407.4,175.1z M406.5,173.3h0.9v-1.2c0-0.2,0-0.3,0-0.5h0c-0.1,0.1-0.1,0.2-0.2,0.3
	c-0.1,0.1-0.1,0.2-0.2,0.4L406.5,173.3z"/>
    <path id="Path_473_00000018957043848069971800000005847289312080141449_" class="st19" d="M392.9,176.6l-1.7-1.3l-0.4,0.6l-0.4-0.3
	l1.2-1.7l0.4,0.3l-0.4,0.6l1.7,1.3L392.9,176.6z"/>
    <path id="Path_474_00000129184138205924941350000001916418844211290010_" class="st19" d="M394.4,174.7c-0.1,0.1-0.2,0.2-0.3,0.2
	c-0.1,0.1-0.2,0.1-0.3,0.1c-0.1,0-0.3,0-0.4,0c-0.1,0-0.3-0.1-0.4-0.2c-0.1-0.1-0.2-0.2-0.3-0.3c-0.1-0.1-0.1-0.2-0.1-0.4
	c0-0.1,0-0.3,0-0.4c0-0.1,0.1-0.2,0.2-0.3c0.1-0.1,0.2-0.2,0.3-0.2c0.1-0.1,0.2-0.1,0.3-0.1c0.1,0,0.3,0,0.4,0
	c0.1,0,0.3,0.1,0.4,0.2c0.1,0.1,0.2,0.2,0.3,0.3c0.1,0.1,0.1,0.2,0.1,0.4c0,0.1,0,0.3,0,0.4C394.6,174.5,394.5,174.6,394.4,174.7
	 M394,174.4c0.1-0.1,0.1-0.2,0.1-0.3c-0.1-0.1-0.2-0.3-0.3-0.3c-0.1-0.1-0.2-0.2-0.4-0.2c-0.1,0-0.2,0-0.3,0.1
	c-0.1,0.1-0.1,0.2-0.1,0.3c0.1,0.1,0.2,0.3,0.3,0.3c0.1,0.1,0.2,0.2,0.4,0.2C393.8,174.5,394,174.5,394,174.4"/>
    <path id="Path_475_00000000923990296396892080000013724582605486680766_" class="st19" d="M396,172.8c-0.1,0.1-0.2,0.2-0.3,0.3
	c-0.1,0.1-0.2,0.1-0.4,0.1c-0.1,0-0.3,0-0.4-0.1c-0.1,0-0.3-0.1-0.4-0.2c-0.1-0.1-0.2-0.2-0.3-0.3c-0.1-0.1-0.1-0.2-0.1-0.4
	c0-0.1,0-0.3,0-0.4c0-0.1,0.1-0.2,0.2-0.3c0.1-0.1,0.2-0.2,0.3-0.2c0.1,0,0.2-0.1,0.3-0.1c0.1,0,0.2,0,0.3,0.1
	c0.1,0.1,0.2,0.1,0.3,0.2l0.1,0.1l0.1,0.1l-0.8,0.9c0.1,0.1,0.2,0.1,0.4,0.1c0.1,0,0.2-0.1,0.3-0.2c0.1-0.1,0.2-0.3,0.2-0.4l0.4,0.1
	c0,0.1,0,0.3-0.1,0.4C396.2,172.5,396.1,172.7,396,172.8 M394.8,172.3l0.5-0.6c-0.1-0.1-0.2-0.1-0.3-0.1c-0.1,0-0.2,0-0.2,0.1
	c-0.1,0.1-0.1,0.2-0.1,0.2C394.6,172.1,394.7,172.2,394.8,172.3"/>
    <path id="Path_476_00000011022603576849738670000015258778257552599185_" class="st19" d="M397.4,171.2c-0.1,0.2-0.3,0.3-0.5,0.3
	c-0.1,0-0.2,0-0.3-0.1c-0.1,0-0.2-0.1-0.3-0.2l-0.6-0.6l-0.2,0.2l-0.3-0.3l0.2-0.2l-0.3-0.4l0.3-0.4l0.4,0.4l0.3-0.3l0.3,0.3
	l-0.3,0.3l0.6,0.6c0.1,0.1,0.2,0.1,0.2,0.1c0.1,0,0.1,0,0.2-0.1l0.1-0.1c0,0,0-0.1,0-0.1l0.4,0.2c0,0.1-0.1,0.1-0.1,0.2
	C397.6,171.1,397.5,171.1,397.4,171.2"/>
    <path id="Path_477_00000096764002399256228390000008207129846229485445_" class="st19" d="M398.5,170.1c-0.1,0.1-0.2,0.2-0.3,0.2
	c-0.1,0.1-0.3,0.1-0.4,0.1l-0.1-0.4c0.1,0,0.2,0,0.3-0.1c0.1,0,0.2-0.1,0.2-0.1c0.1,0,0.1-0.1,0.1-0.2c0,0,0-0.1,0-0.1
	c-0.1,0-0.1,0-0.2,0c-0.1,0-0.1,0-0.1,0.1c0,0-0.1,0-0.1,0.1c-0.1,0-0.1,0.1-0.2,0.1c-0.1,0-0.3,0-0.4,0l-0.2-0.1
	c-0.1-0.1-0.1-0.1-0.1-0.2c0-0.1,0-0.2,0-0.2c0-0.1,0-0.2,0.1-0.3c0-0.1,0.1-0.2,0.2-0.3c0.1-0.1,0.2-0.2,0.3-0.2
	c0.1,0,0.2-0.1,0.3-0.1l0.1,0.4c-0.1,0-0.2,0-0.2,0.1c-0.1,0-0.1,0.1-0.2,0.1c-0.1,0.1-0.1,0.2,0,0.3c0,0,0,0,0.1,0c0,0,0.1,0,0.1,0
	c0,0,0.1,0,0.1-0.1c0,0,0.1,0,0.1-0.1c0.1,0,0.1-0.1,0.2-0.1c0.1,0,0.3,0,0.4,0c0.1,0,0.1,0.1,0.2,0.1c0.1,0.1,0.1,0.1,0.1,0.2
	c0,0.1,0,0.2,0,0.2c0,0.1,0,0.2-0.1,0.3C398.6,169.9,398.6,170,398.5,170.1"/>
    <path id="Path_478_00000078740941221727185790000012634756973273930124_" class="st19" d="M400.3,169.1c-0.3-0.1-0.6-0.2-0.9-0.3
	c-0.3-0.2-0.6-0.4-0.8-0.6c-0.2-0.2-0.4-0.5-0.6-0.8c-0.1-0.3-0.3-0.6-0.3-0.9l0.4-0.2c0.1,0.3,0.2,0.6,0.3,0.8
	c0.3,0.5,0.7,0.9,1.2,1.2c0.2,0.2,0.5,0.3,0.8,0.3L400.3,169.1z"/>
    <path id="Path_479_00000011016016796338426580000007983978219902570632_" class="st19" d="M401.1,167.4c-0.1,0.1-0.2,0.1-0.3,0.2
	c-0.1,0-0.2,0-0.3,0c-0.1,0-0.2,0-0.3-0.1c-0.1,0-0.2-0.1-0.2-0.2l-0.6-0.6l-0.2,0.2l-0.3-0.3l0.2-0.2l-0.3-0.4l0.3-0.3l0.4,0.4
	l0.3-0.3l0.3,0.3l-0.3,0.3l0.6,0.6c0.1,0.1,0.1,0.1,0.2,0.1c0.1,0,0.1,0,0.2-0.1l0.1-0.1c0,0,0,0,0-0.1l0.4,0.2
	c0,0.1-0.1,0.1-0.1,0.2C401.3,167.3,401.2,167.3,401.1,167.4"/>
    <path id="Path_480_00000042010813076343957040000003494315748609503143_" class="st19" d="M402.2,166.5c-0.1,0.1-0.1,0.1-0.2,0.1
	c-0.1,0-0.2,0-0.2,0c-0.1,0-0.1,0-0.2-0.1c-0.1,0-0.1-0.1-0.2-0.1c-0.1-0.2-0.2-0.4-0.1-0.6c0.1-0.3,0.3-0.5,0.5-0.8
	c-0.1-0.1-0.1-0.1-0.2-0.1c-0.1,0-0.2,0-0.2,0.1c-0.1,0.1-0.1,0.1-0.2,0.2c0,0.1-0.1,0.2-0.1,0.3l-0.4-0.1c0-0.1,0.1-0.3,0.2-0.4
	c0.1-0.1,0.2-0.2,0.3-0.3c0.2-0.2,0.4-0.2,0.6-0.2c0.3,0,0.5,0.2,0.6,0.4l0.8,0.9l-0.4,0.3l-0.2-0.1c0,0.1,0,0.2-0.1,0.3
	C402.3,166.3,402.2,166.4,402.2,166.5 M402,166c0,0,0.1-0.1,0.1-0.1c0-0.1,0-0.1,0-0.2l-0.2-0.3c-0.1,0.1-0.2,0.2-0.2,0.4
	c0,0.1,0,0.2,0,0.2c0,0,0.1,0.1,0.1,0.1C401.9,166,401.9,166,402,166"/>
    <path id="Path_481_00000068652666798189447430000013813053561536434346_" class="st19" d="M403.5,165.2l-1.9-2.2l0.4-0.4l1.1,1.2
	l0-1l0.5-0.4v1.1l1.3,0.4l-0.5,0.4l-0.9-0.3v0.4l0.3,0.4L403.5,165.2z"/>
    <path id="Path_482_00000179612744043225959600000001226031064073825156_" class="st19" d="M406,164l-0.4,0.1c0-0.3-0.1-0.6-0.3-0.9
	c-0.1-0.3-0.3-0.5-0.5-0.8c-0.2-0.2-0.4-0.4-0.6-0.6c-0.2-0.2-0.5-0.3-0.8-0.4l0.2-0.3c0.3,0.1,0.6,0.2,0.9,0.4
	c0.3,0.2,0.5,0.4,0.7,0.7c0.2,0.2,0.4,0.5,0.5,0.9C405.9,163.4,406,163.7,406,164"/>
    <path id="Path_483_00000105384899168004651290000015414801028206654136_" class="st19" d="M407.3,162.2c-0.1,0.1-0.2,0.2-0.4,0.2
	c-0.1,0-0.3,0-0.4,0c-0.1,0-0.3-0.1-0.4-0.1c-0.1-0.1-0.2-0.2-0.3-0.3c-0.1-0.1-0.2-0.3-0.2-0.4c0-0.1,0-0.3,0-0.4
	c0-0.1,0-0.2,0.1-0.3c0.1-0.1,0.1-0.2,0.2-0.3c0.1-0.1,0.2-0.1,0.3-0.2c0.1,0,0.2,0,0.3,0c0.1,0,0.2,0.1,0.3,0.1
	c0.1,0.1,0.2,0.2,0.3,0.3c0,0,0.1,0.1,0.1,0.1c0,0,0,0.1,0.1,0.1l-1,0.7c0.2,0.2,0.5,0.2,0.7,0c0.1-0.1,0.2-0.2,0.3-0.4l0.4,0.2
	c0,0.1-0.1,0.2-0.2,0.3C407.5,161.9,407.4,162.1,407.3,162.2 M406.2,161.4l0.6-0.4c-0.1-0.1-0.1-0.1-0.2-0.2c-0.1,0-0.2,0-0.3,0.1
	c-0.1,0.1-0.1,0.1-0.1,0.2C406.1,161.2,406.1,161.3,406.2,161.4"/>
    <path id="Path_484_00000095325280721850970110000014075549316089901748_" class="st19" d="M408.4,161.3l-1.2-1.7l0.4-0.3l0.2,0.2
	c0-0.1,0.1-0.2,0.1-0.3c0.1-0.1,0.1-0.2,0.2-0.3c0.1-0.1,0.3-0.2,0.5-0.1c0.2,0.1,0.4,0.2,0.5,0.4l0.7,1l-0.5,0.3l-0.7-1
	c-0.1-0.1-0.2-0.2-0.2-0.2c-0.1,0-0.1,0-0.2,0c-0.1,0-0.1,0.1-0.1,0.2c0,0.1,0,0.1-0.1,0.2l0.8,1.1L408.4,161.3z"/>
    <path id="Path_485_00000041266110715491482880000005813154811042168734_" class="st19" d="M493,158.9l1.2-1.8l-0.6-0.4l0.3-0.4
	l1.7,1.1l-0.3,0.4l-0.6-0.4l-1.2,1.8L493,158.9z"/>
    <path id="Path_486_00000010303333306541739660000003960522841057831568_" class="st19" d="M495,160.3c-0.1-0.1-0.2-0.2-0.3-0.3
	c-0.1-0.1-0.1-0.2-0.1-0.3c0-0.1,0-0.3,0-0.4c0-0.1,0.1-0.3,0.2-0.4c0.1-0.1,0.2-0.2,0.3-0.3c0.1-0.1,0.2-0.1,0.4-0.1
	c0.1,0,0.3,0,0.4,0c0.1,0,0.2,0.1,0.3,0.1c0.2,0.1,0.4,0.4,0.4,0.6c0,0.1,0,0.3,0,0.4c0,0.1-0.1,0.3-0.2,0.4
	c-0.1,0.1-0.2,0.2-0.3,0.3c-0.2,0.1-0.5,0.2-0.8,0.1C495.2,160.4,495.1,160.3,495,160.3 M495.3,159.9c0.1,0.1,0.2,0.1,0.3,0
	c0.1-0.1,0.2-0.2,0.3-0.3c0.1-0.1,0.2-0.3,0.2-0.4c0-0.1,0-0.2-0.1-0.3c-0.1-0.1-0.2-0.1-0.3,0c-0.1,0.1-0.2,0.2-0.3,0.3
	c-0.1,0.1-0.2,0.3-0.2,0.4C495.1,159.7,495.2,159.8,495.3,159.9"/>
    <path id="Path_487_00000175312289779740667830000012938656580953458831_" class="st19" d="M497,161.7c-0.1-0.1-0.2-0.2-0.3-0.3
	c-0.1-0.1-0.1-0.2-0.1-0.4c0-0.1,0-0.3,0-0.4c0-0.1,0.1-0.3,0.2-0.4c0.1-0.1,0.2-0.2,0.3-0.3c0.1-0.1,0.2-0.1,0.4-0.1
	c0.1,0,0.3,0,0.4,0c0.1,0,0.2,0.1,0.3,0.1c0.1,0.1,0.2,0.2,0.3,0.3c0.1,0.1,0.1,0.2,0.1,0.3c0,0.1,0,0.2-0.1,0.3
	c0,0.1-0.1,0.2-0.2,0.3l-0.1,0.1l-0.1,0.1l-1-0.7c-0.1,0.1-0.1,0.3,0,0.4c0,0.1,0.1,0.2,0.2,0.3c0.1,0.1,0.3,0.1,0.4,0.1l-0.1,0.4
	c-0.1,0-0.3,0-0.4-0.1C497.3,161.8,497.1,161.8,497,161.7 M497.4,160.4l0.6,0.4c0.1-0.1,0.1-0.2,0.1-0.3c0-0.1,0-0.2-0.1-0.2
	c-0.1-0.1-0.2-0.1-0.2-0.1C497.6,160.3,497.5,160.3,497.4,160.4"/>
    <path id="Path_488_00000092431384215056649560000010969171220181296048_" class="st19" d="M498.7,163c-0.2-0.1-0.3-0.3-0.3-0.5
	c0-0.1,0-0.2,0.1-0.3c0.1-0.1,0.1-0.2,0.2-0.3l0.5-0.6l-0.2-0.2l0.3-0.3l0.3,0.2l0.4-0.4l0.4,0.3l-0.3,0.4l0.4,0.3L500,162l-0.4-0.3
	l-0.5,0.7c-0.1,0.1-0.1,0.2-0.1,0.2c0,0.1,0,0.1,0.1,0.2c0,0,0.1,0,0.1,0.1c0,0,0.1,0,0.1,0l-0.2,0.4c-0.1,0-0.1,0-0.2-0.1
	C498.8,163.1,498.8,163.1,498.7,163"/>
    <path id="Path_489_00000104701023589430133910000012113288868405015970_" class="st19" d="M499.9,164c-0.1-0.1-0.2-0.2-0.3-0.3
	c-0.1-0.1-0.1-0.2-0.1-0.4l0.4-0.1c0,0.1,0.1,0.2,0.1,0.3c0,0.1,0.1,0.1,0.2,0.2c0,0.1,0.1,0.1,0.2,0.1c0.1,0,0.1,0,0.1-0.1
	c0-0.1,0-0.1,0-0.2c0,0,0-0.1-0.1-0.1c0,0-0.1-0.1-0.1-0.1c0-0.1-0.1-0.1-0.1-0.2c0-0.1,0-0.1-0.1-0.2v-0.2c0-0.1,0-0.2,0.1-0.2
	c0.1-0.1,0.1-0.1,0.2-0.2c0.1,0,0.2-0.1,0.2-0.1c0.1,0,0.2,0,0.3,0.1c0.1,0,0.2,0.1,0.3,0.2c0.1,0.1,0.2,0.2,0.3,0.3
	c0.1,0.1,0.1,0.2,0.1,0.3l-0.4,0.1c0-0.1,0-0.2-0.1-0.2c0-0.1-0.1-0.1-0.1-0.2c-0.1-0.1-0.2-0.1-0.3,0c0,0,0,0,0,0.1
	c0,0,0,0.1,0,0.1c0,0,0,0.1,0.1,0.1c0,0,0.1,0.1,0.1,0.1c0,0.1,0.1,0.1,0.1,0.2c0,0.1,0,0.1,0.1,0.2v0.2c0,0.1-0.1,0.1-0.1,0.2
	c-0.1,0.1-0.1,0.1-0.2,0.2c-0.1,0-0.2,0.1-0.2,0.1c-0.1,0-0.2,0-0.3-0.1C500.1,164.1,500,164.1,499.9,164"/>
    <path id="Path_490_00000052808091384975530840000000108331753875114664_" class="st19" d="M500.5,165.4l1.8-2.1l0.4,0.3l-0.1,0.2
	c0.1,0,0.2,0,0.3,0c0.1,0,0.2,0.1,0.3,0.1c0.1,0.1,0.2,0.2,0.2,0.3c0,0.1,0.1,0.2,0,0.3c0,0.1,0,0.2-0.1,0.3
	c-0.1,0.1-0.2,0.2-0.2,0.3c-0.1,0.1-0.2,0.2-0.3,0.3c-0.1,0.1-0.2,0.1-0.4,0.1c-0.1,0-0.2,0-0.3,0c-0.1,0-0.2-0.1-0.3-0.1
	c-0.1-0.1-0.1-0.1-0.1-0.2c0-0.1-0.1-0.2-0.1-0.3l-0.2,0.2l-0.4,0.4L500.5,165.4z M501.9,165.1c0.1,0.1,0.2,0.1,0.3,0.1
	c0.2-0.1,0.3-0.1,0.4-0.3c0.2-0.3,0.3-0.5,0.1-0.6c-0.1-0.1-0.2-0.1-0.4-0.1l-0.5,0.6c0,0.1,0,0.1,0.1,0.2
	C501.9,165,501.9,165.1,501.9,165.1"/>
    <path id="Path_491_00000068678644410105949200000008581715592199576715_" class="st19" d="M502.8,166.5l1.4-1.5l0.3,0.3l-0.2,0.3
	c0.1,0,0.3-0.1,0.4,0c0.1,0,0.2,0.1,0.3,0.1l0.1,0.1c0,0,0,0.1,0.1,0.1l-0.4,0.3c0,0,0-0.1-0.1-0.1s0-0.1-0.1-0.1
	c-0.1-0.1-0.1-0.1-0.2-0.1c-0.1,0-0.2,0-0.3,0.1l-0.8,0.9L502.8,166.5z"/>
    <path id="Path_492_00000072971236048352936870000014005662994459733159_" class="st19" d="M504.7,168.3c-0.1-0.1-0.2-0.2-0.2-0.3
	c-0.1-0.1-0.1-0.2-0.1-0.4c0-0.1,0-0.3,0.1-0.4c0.1-0.3,0.4-0.5,0.7-0.6c0.1-0.1,0.2-0.1,0.4-0.1c0.1,0,0.3,0,0.4,0.1
	c0.2,0.1,0.4,0.3,0.5,0.5c0.1,0.2,0.1,0.5,0,0.8c-0.1,0.1-0.2,0.3-0.3,0.4c-0.1,0.1-0.2,0.2-0.4,0.3c-0.1,0.1-0.2,0.1-0.4,0.1
	c-0.1,0-0.3,0-0.4-0.1C504.9,168.5,504.8,168.5,504.7,168.3 M505.1,168c0.1,0.1,0.2,0.1,0.3,0.1c0.1-0.1,0.3-0.1,0.4-0.2
	c0.1-0.1,0.2-0.2,0.2-0.4c0-0.1,0-0.2-0.1-0.3c-0.1-0.1-0.2-0.1-0.3-0.1c-0.1,0-0.3,0.1-0.3,0.2c-0.1,0.1-0.2,0.2-0.2,0.4
	C505,167.8,505,167.9,505.1,168"/>
    <path id="Path_493_00000022524783228947463610000005530990922998898856_" class="st19" d="M505.7,170.5c-0.1-0.1-0.1-0.2-0.2-0.3
	c-0.1-0.1-0.1-0.2-0.1-0.3c0-0.1,0-0.2,0-0.2c0-0.1,0.1-0.1,0.1-0.2c0.1-0.1,0.3-0.1,0.5-0.1v-0.2c0-0.1,0.1-0.1,0.1-0.2
	c0.1,0,0.1-0.1,0.2-0.1h0.2c0-0.1,0-0.2,0-0.3c0-0.1,0.1-0.2,0.2-0.3c0.1-0.1,0.2-0.1,0.3-0.2c0.1,0,0.2,0,0.3,0
	c0.1,0,0.2,0,0.3,0.1c0.1,0,0.2,0.1,0.2,0.2c0.1,0.1,0.1,0.2,0.2,0.3l0.5,0.5l-0.3,0.3l-0.2-0.2c0,0,0,0.1,0,0.1l-0.1,0.1
	c-0.1,0.1-0.2,0.1-0.3,0.2c-0.1,0-0.2,0-0.3,0c-0.1,0-0.2,0-0.3-0.1c-0.1,0-0.2-0.1-0.2-0.2c-0.1-0.1-0.1-0.1-0.1-0.2h-0.1
	c0,0,0,0-0.1,0c0,0,0,0.1,0,0.1c0,0.1,0.1,0.1,0.1,0.2l0.2,0.2c0.1,0.1,0.2,0.3,0.3,0.5c0,0.2,0,0.3-0.1,0.4
	c-0.1,0.1-0.2,0.1-0.3,0.1c-0.1,0-0.2,0-0.3,0c-0.1,0-0.2-0.1-0.3-0.1C506,170.8,505.9,170.7,505.7,170.5 M506.1,170.3
	c0.1,0.1,0.2,0.2,0.3,0.2c0.1,0,0.2,0,0.2,0c0,0,0.1-0.1,0-0.1c0-0.1-0.1-0.1-0.1-0.2l-0.1-0.1c0,0-0.1-0.1-0.1-0.1
	c0,0,0-0.1-0.1-0.1c-0.1,0-0.2,0-0.2,0.1c-0.1,0.1-0.1,0.1,0,0.2C505.9,170.2,506,170.3,506.1,170.3 M507.1,169.3
	c0.1,0.1,0.1,0.1,0.2,0.1c0.1,0,0.2,0,0.2-0.1c0.1-0.1,0.1-0.2,0.1-0.2c0-0.1,0-0.1-0.1-0.2c-0.1-0.1-0.1-0.1-0.2-0.1
	c-0.1,0-0.1,0-0.2,0.1c-0.1,0.1-0.1,0.1-0.1,0.2C507,169.1,507.1,169.2,507.1,169.3"/>
    <path id="Path_494_00000090997185098935026390000018419044587592643261_" class="st19" d="M507.5,171.2l1.5-1.3l0.3,0.4l-0.2,0.3
	c0.1,0,0.3,0,0.4,0c0.1,0,0.2,0.1,0.3,0.2l0.1,0.1c0,0,0,0.1,0,0.1l-0.4,0.3c0,0,0-0.1-0.1-0.1c0,0,0-0.1-0.1-0.1
	c0-0.1-0.1-0.1-0.2-0.1c-0.1,0-0.2,0-0.3,0l-0.9,0.8L507.5,171.2z"/>
    <path id="Path_495_00000070080168170339761790000000366728818081009046_" class="st19" d="M508.9,172.8c-0.1-0.1-0.1-0.1-0.1-0.2
	c0-0.1,0-0.2,0-0.2c0-0.1,0-0.1,0.1-0.2c0-0.1,0.1-0.1,0.1-0.2c0.1-0.1,0.4-0.2,0.5-0.1c0.3,0.1,0.5,0.3,0.8,0.5
	c0.1-0.1,0.1-0.1,0.1-0.2c0-0.1,0-0.2-0.1-0.2c-0.1-0.1-0.1-0.1-0.2-0.2c-0.1,0-0.2-0.1-0.3-0.1l0.2-0.4c0.1,0,0.3,0.1,0.4,0.2
	c0.1,0.1,0.3,0.2,0.3,0.3c0.2,0.2,0.2,0.4,0.2,0.6c0,0.2-0.2,0.5-0.4,0.6l-0.9,0.8l-0.3-0.4l0.1-0.2c-0.1,0-0.2,0-0.3-0.1
	C509.1,173,509,172.9,508.9,172.8 M509.4,172.7c0,0,0.1,0.1,0.1,0.1c0.1,0,0.1,0,0.2,0l0.3-0.2c-0.2-0.1-0.3-0.2-0.4-0.2
	c-0.1,0-0.2,0-0.2,0c0,0-0.1,0.1-0.1,0.1C509.3,172.6,509.3,172.6,509.4,172.7"/>
    <path id="Path_496_00000054951683441260198730000005988044399545239477_" class="st19" d="M510.1,174.2l1.6-1.2l0.3,0.4l-0.2,0.2
	c0.1,0,0.2,0,0.3,0.1c0.1,0,0.2,0.1,0.3,0.2c0.1,0.1,0.1,0.2,0.1,0.3c0,0.1,0,0.2-0.1,0.3c0.1,0,0.3,0,0.4,0.1
	c0.1,0,0.2,0.1,0.3,0.2c0.1,0.1,0.2,0.3,0.1,0.5c-0.1,0.2-0.2,0.4-0.4,0.5l-1,0.8l-0.4-0.5l0.9-0.7c0.1-0.1,0.1-0.2,0.2-0.2
	c0-0.1,0-0.1-0.1-0.2c-0.1-0.1-0.2-0.1-0.4-0.1l-1.1,0.9l-0.4-0.5l0.9-0.7c0.1-0.1,0.1-0.2,0.2-0.2c0-0.1,0-0.1-0.1-0.2
	c-0.1-0.1-0.2-0.1-0.4-0.1l-1.1,0.9L510.1,174.2z"/>
    <path id="Path_497_00000163056659070670919100000006087997909682172559_" class="st19" d="M512.4,177.1l1.7-1.2l0.3,0.4l-0.2,0.2
	c0.1,0,0.2,0.1,0.3,0.1c0.1,0,0.2,0.1,0.3,0.2c0.1,0.1,0.1,0.2,0.1,0.3c0,0.1,0,0.2-0.1,0.3c0.1,0,0.2,0,0.3,0.1
	c0.1,0,0.2,0.1,0.3,0.2c0.1,0.1,0.2,0.3,0.1,0.5c-0.1,0.2-0.2,0.4-0.4,0.5l-1,0.7l-0.3-0.5l1-0.7c0.1-0.1,0.2-0.2,0.2-0.2
	c0-0.1,0-0.1,0-0.2c-0.1-0.1-0.2-0.2-0.3-0.2l-1.1,0.8l-0.3-0.5l1-0.7c0.1-0.1,0.2-0.2,0.2-0.2c0-0.1,0-0.1,0-0.2
	c-0.1-0.1-0.2-0.2-0.3-0.2l-1.1,0.8L512.4,177.1z"/>
    <path id="Path_498_00000129198296676137166100000004213030402302505605_" class="st19" d="M514.7,180.5c0-0.1-0.1-0.2-0.1-0.2V180
	c0-0.1,0-0.1,0.1-0.2c0-0.1,0.1-0.1,0.2-0.2c0.2-0.1,0.4-0.1,0.5,0c0.3,0.1,0.5,0.3,0.7,0.6c0.1,0,0.1-0.1,0.1-0.2
	c0-0.1,0-0.1-0.1-0.2c0-0.1-0.1-0.1-0.2-0.2c-0.1-0.1-0.2-0.1-0.3-0.2l0.2-0.4c0.1,0.1,0.3,0.1,0.4,0.2c0.1,0.1,0.2,0.2,0.3,0.3
	c0.1,0.2,0.2,0.4,0.1,0.6c0,0.2-0.2,0.4-0.5,0.5l-1,0.6l-0.3-0.4l0.1-0.1c-0.1,0-0.2-0.1-0.3-0.1
	C514.9,180.7,514.8,180.6,514.7,180.5 M515.2,180.4c0,0.1,0.1,0.1,0.1,0.1c0,0,0.1,0,0.2,0.1l0.3-0.2c-0.1-0.1-0.2-0.2-0.3-0.3
	c-0.1,0-0.2,0-0.2,0c-0.1,0-0.1,0.1-0.1,0.1C515.1,180.3,515.2,180.4,515.2,180.4"/>
    <path id="Path_499_00000111182200946864969500000009824907088201221274_" class="st19" d="M514,268.9l-1.8-1.3l-0.4,0.6l-0.4-0.3
	l1.3-1.7l0.4,0.3l-0.4,0.6l1.8,1.3L514,268.9z"/>
    <path id="Path_500_00000018229453293451614250000016411722402765555085_" class="st19" d="M515.5,267c-0.1,0.1-0.2,0.2-0.3,0.3
	c-0.1,0.1-0.2,0.1-0.3,0.1c-0.1,0-0.3,0-0.4,0c-0.1,0-0.3-0.1-0.4-0.2c-0.1-0.1-0.2-0.2-0.3-0.3c-0.1-0.1-0.1-0.2-0.1-0.4
	c0-0.1,0-0.3,0-0.4c0-0.1,0.1-0.2,0.2-0.3c0.1-0.1,0.2-0.2,0.3-0.3c0.1-0.1,0.2-0.1,0.3-0.1c0.1,0,0.3,0,0.4,0
	c0.2,0,0.3,0.1,0.4,0.2c0.1,0.1,0.2,0.2,0.3,0.3c0.1,0.1,0.1,0.2,0.1,0.4c0,0.1,0,0.3,0,0.4C515.7,266.8,515.6,266.9,515.5,267
	 M515.1,266.7c0.1-0.1,0.1-0.2,0-0.3c-0.1-0.1-0.2-0.2-0.3-0.3c-0.1-0.1-0.3-0.2-0.4-0.2c-0.1,0-0.2,0-0.3,0.1
	c-0.1,0.1-0.1,0.2,0,0.3c0.1,0.1,0.2,0.3,0.3,0.3c0.1,0.1,0.3,0.2,0.4,0.2C515,266.8,515.1,266.8,515.1,266.7
	C515.1,266.7,515.1,266.7,515.1,266.7"/>
    <path id="Path_501_00000023275709634556421490000002183771886183067014_" class="st19" d="M517,264.9c-0.1,0.1-0.2,0.2-0.3,0.3
	c-0.1,0.1-0.2,0.1-0.4,0.2c-0.1,0-0.3,0-0.4,0c-0.1,0-0.3-0.1-0.4-0.2c-0.1-0.1-0.2-0.2-0.3-0.3c-0.1-0.1-0.2-0.2-0.2-0.4
	c0-0.1,0-0.3,0-0.4c0-0.1,0.1-0.2,0.1-0.3c0.1-0.1,0.2-0.2,0.3-0.3c0.1-0.1,0.2-0.1,0.3-0.1c0.1,0,0.2,0,0.3,0
	c0.1,0,0.2,0.1,0.3,0.2c0,0,0.1,0.1,0.1,0.1l0.1,0.1l-0.7,1c0.1,0.1,0.3,0.1,0.4,0c0.1,0,0.2-0.1,0.3-0.2c0.1-0.1,0.1-0.3,0.1-0.4
	l0.4,0c0,0.1,0,0.3-0.1,0.4C517.1,264.6,517.1,264.8,517,264.9 M515.7,264.5l0.4-0.6c-0.1-0.1-0.2-0.1-0.3-0.1
	c-0.1,0-0.2,0.1-0.2,0.2c-0.1,0.1-0.1,0.2-0.1,0.3C515.5,264.4,515.6,264.4,515.7,264.5"/>
    <path id="Path_502_00000181807095236500423390000002338059279347657876_" class="st19" d="M518.2,263c-0.1,0.1-0.1,0.2-0.2,0.2
	c-0.1,0-0.2,0.1-0.2,0.1c-0.1,0-0.2,0-0.3,0c-0.1,0-0.2-0.1-0.3-0.1l-0.7-0.4l-0.1,0.2l-0.4-0.2l0.1-0.3l-0.4-0.3l0.3-0.4l0.4,0.3
	l0.3-0.4l0.4,0.2l-0.3,0.4l0.7,0.4c0.1,0.1,0.2,0.1,0.2,0.1c0.1,0,0.1-0.1,0.2-0.1c0,0,0-0.1,0-0.1c0,0,0-0.1,0-0.1l0.4,0.2
	c0,0.1,0,0.1-0.1,0.2C518.3,262.9,518.2,263,518.2,263"/>
    <path id="Path_503_00000071561201727401304600000008906999222190802600_" class="st19" d="M519,261.7c-0.1,0.1-0.2,0.2-0.3,0.3
	c-0.1,0.1-0.2,0.2-0.4,0.2l-0.2-0.4c0.1,0,0.2-0.1,0.3-0.1c0.1-0.1,0.1-0.1,0.2-0.2c0-0.1,0.1-0.1,0.1-0.2c0,0,0-0.1-0.1-0.1
	c0,0-0.1,0-0.1,0c0,0,0,0,0,0c0,0-0.1,0-0.1,0c0,0-0.1,0-0.1,0.1c0,0-0.1,0.1-0.1,0.1c-0.1,0-0.1,0.1-0.2,0.1
	c-0.1,0-0.1,0.1-0.2,0.1c-0.1,0-0.1,0-0.2,0c-0.1,0-0.1,0-0.2-0.1c-0.1,0-0.1-0.1-0.2-0.2c-0.1-0.1-0.1-0.1-0.1-0.2v-0.3
	c0-0.1,0.1-0.2,0.1-0.3c0.1-0.1,0.2-0.2,0.3-0.3c0.1-0.1,0.2-0.1,0.3-0.2l0.2,0.4c-0.1,0-0.2,0.1-0.2,0.1c-0.1,0-0.1,0.1-0.1,0.2
	c-0.1,0.1-0.1,0.2,0,0.3c0,0,0.1,0,0.1,0c0,0,0,0,0,0c0,0,0.1,0,0.1,0c0,0,0.1,0,0.1-0.1c0,0,0.1-0.1,0.1-0.1c0.1,0,0.1-0.1,0.2-0.1
	c0.1-0.1,0.1-0.1,0.2-0.1c0.1,0,0.1,0,0.2,0c0.1,0,0.2,0,0.2,0.1c0.1,0,0.1,0.1,0.2,0.2c0.1,0.1,0.1,0.2,0.1,0.2v0.3
	C519.1,261.5,519.1,261.6,519,261.7"/>
    <path id="Path_504_00000035516016437298927940000017712548313357233341_" class="st19" d="M520.3,259.5c-0.1,0.1-0.1,0.2-0.2,0.2
	c-0.1,0.1-0.2,0.1-0.3,0.1l0.2,0.1l-0.2,0.4l-2.5-1.4l0.3-0.6l0.6,0.3l0.3,0.2c0-0.1,0-0.2,0-0.3c0-0.1,0-0.2,0.1-0.3
	c0.1-0.1,0.1-0.2,0.2-0.3c0.1-0.1,0.2-0.1,0.3-0.1c0.1,0,0.3,0,0.4,0c0.1,0,0.3,0.1,0.4,0.2c0.1,0.1,0.3,0.2,0.4,0.3
	c0.1,0.1,0.2,0.2,0.2,0.3c0,0.1,0.1,0.2,0.1,0.3C520.4,259.3,520.4,259.4,520.3,259.5 M519.8,259.4c0.1-0.1,0.1-0.2,0-0.3
	c-0.1-0.1-0.2-0.2-0.3-0.3c-0.3-0.2-0.5-0.2-0.7,0c-0.1,0.1-0.1,0.3,0,0.4l0.7,0.4c0.1,0,0.1-0.1,0.2-0.1
	C519.8,259.5,519.8,259.4,519.8,259.4"/>
    <path id="Path_505_00000060727558629055972860000013802732565504361622_" class="st19" d="M521.5,257.4c-0.1,0.1-0.1,0.2-0.2,0.3
	c-0.1,0.1-0.2,0.2-0.3,0.2c-0.1,0-0.3,0.1-0.4,0c-0.2,0-0.3-0.1-0.4-0.1c-0.1-0.1-0.3-0.2-0.4-0.3c-0.1-0.1-0.2-0.2-0.2-0.3
	c0-0.1-0.1-0.3,0-0.4c0-0.1,0-0.2,0.1-0.3c0.1-0.1,0.1-0.2,0.2-0.3c0.1-0.1,0.2-0.1,0.3-0.1c0.1,0,0.2,0,0.3,0
	c0.1,0,0.3,0.1,0.4,0.1c0,0,0.1,0.1,0.1,0.1c0,0,0.1,0,0.1,0.1l-0.6,1.1c0.1,0,0.3,0,0.4,0c0.1-0.1,0.2-0.2,0.2-0.3
	c0.1-0.1,0.1-0.3,0.1-0.4h0.4v0.4C521.5,257.2,521.5,257.3,521.5,257.4 M520.1,257.2l0.3-0.7c-0.1-0.1-0.2-0.1-0.3-0.1
	c-0.1,0-0.2,0.1-0.2,0.2c0,0.1-0.1,0.2,0,0.3C519.9,257,520,257.1,520.1,257.2"/>
    <path id="Path_506_00000050659683907637732640000015197715935290067377_" class="st19" d="M522.4,255.6c0,0.1-0.1,0.2-0.2,0.2
	l-0.2,0.1h-0.2c-0.1,0-0.2-0.1-0.3-0.1l-2-1l0.3-0.6l2.1,1c0,0,0.1,0,0.1,0c0,0,0.1,0,0.1,0v-0.1l0.4,0.1c0,0,0,0.1,0,0.1
	C522.4,255.5,522.4,255.6,522.4,255.6"/>
    <path id="Path_507_00000037674641547788468930000014789573281112143036_" class="st19" d="M523.1,254c-0.1,0.1-0.1,0.2-0.2,0.3
	c-0.1,0.1-0.2,0.2-0.3,0.2c-0.1,0-0.3,0.1-0.4,0.1c-0.2,0-0.3,0-0.4-0.1c-0.1-0.1-0.3-0.2-0.4-0.3c-0.1-0.1-0.2-0.2-0.2-0.3
	c0-0.1-0.1-0.2-0.1-0.4c0-0.1,0-0.2,0.1-0.3c0.1-0.1,0.1-0.2,0.2-0.3c0.1-0.1,0.2-0.1,0.3-0.2c0.1,0,0.2,0,0.3,0
	c0.1,0,0.3,0.1,0.4,0.1c0,0,0.1,0,0.1,0.1c0,0,0.1,0,0.1,0.1l-0.5,1.1c0.1,0,0.3,0,0.4,0c0.1-0.1,0.2-0.2,0.2-0.3
	c0.1-0.1,0.1-0.3,0.1-0.4l0.4,0c0,0.1,0,0.3,0,0.4C523.2,253.8,523.2,253.9,523.1,254 M521.7,253.9l0.3-0.7c-0.1,0-0.2-0.1-0.3,0
	c-0.1,0-0.2,0.1-0.2,0.2c0,0.1,0,0.2,0,0.3C521.6,253.8,521.6,253.8,521.7,253.9"/>
    <path id="Path_508_00000032625153851827374830000012842075051629118361_" class="st19" d="M521.6,251.5c0,0.1-0.1,0.2-0.2,0.2
	c-0.1,0-0.2,0-0.2,0c-0.1,0-0.1-0.1-0.2-0.2c0-0.1,0-0.2,0-0.3c0-0.1,0.1-0.2,0.2-0.2c0.1,0,0.2,0,0.2,0c0.1,0,0.1,0.1,0.2,0.2
	C521.7,251.3,521.6,251.4,521.6,251.5 M523.6,252.7l-1.9-0.8l0.2-0.5l1.9,0.8L523.6,252.7z"/>
    <path id="Path_509_00000023255336130780785430000005429210095566360991_" class="st19" d="M524.5,250.8c0,0.1-0.1,0.2-0.2,0.3
	c-0.1,0.1-0.2,0.1-0.3,0.2c-0.1,0-0.3,0-0.4,0c-0.2,0-0.3,0-0.4-0.1c-0.1-0.1-0.3-0.1-0.4-0.2c-0.1-0.1-0.2-0.2-0.2-0.3
	c-0.1-0.1-0.1-0.2-0.1-0.3c0-0.1,0-0.2,0-0.3c0-0.1,0.1-0.2,0.2-0.2c0.1-0.1,0.2-0.1,0.2-0.1l-0.3-0.1l-0.6-0.3l0.2-0.6l2.7,1.1
	l-0.2,0.4l-0.2,0c0,0.1,0.1,0.2,0.1,0.3C524.5,250.6,524.5,250.7,524.5,250.8 M524.1,250.5c0-0.1,0-0.1,0-0.2c0-0.1,0-0.1-0.1-0.2
	l-0.8-0.3c-0.1,0-0.1,0.1-0.2,0.1c0,0-0.1,0.1-0.1,0.1c0,0.1,0,0.2,0,0.3c0.1,0.1,0.2,0.2,0.4,0.3c0.1,0.1,0.3,0.1,0.4,0.1
	C524,250.6,524.1,250.6,524.1,250.5"/>
    <path id="Path_510_00000020373061757603665790000010550523404519453369_" class="st19" d="M437.4,297.7l0.4-2.1l-0.7-0.1l0.1-0.5
	l2,0.4l-0.1,0.5l-0.7-0.1l-0.4,2.1L437.4,297.7z"/>
    <path id="Path_511_00000042014679180429822820000010757814460706236307_" class="st19" d="M439.8,298.2c-0.1,0-0.2-0.1-0.3-0.1
	c-0.1-0.1-0.2-0.2-0.3-0.3c-0.1-0.1-0.1-0.2-0.1-0.4c0-0.1,0-0.3,0-0.4c0-0.2,0.1-0.3,0.2-0.4c0.1-0.1,0.2-0.2,0.3-0.3
	c0.1-0.1,0.2-0.1,0.3-0.1c0.1,0,0.3,0,0.4,0c0.1,0,0.2,0.1,0.3,0.1c0.1,0.1,0.2,0.2,0.3,0.3c0.1,0.1,0.1,0.2,0.1,0.4
	c0,0.1,0,0.3,0,0.4c0,0.2-0.1,0.3-0.2,0.4c-0.1,0.1-0.2,0.2-0.3,0.3c-0.1,0.1-0.2,0.1-0.3,0.1C440.1,298.2,439.9,298.2,439.8,298.2
	 M439.9,297.7c0.1,0,0.2,0,0.3-0.1c0.1-0.1,0.1-0.3,0.2-0.4c0-0.1,0-0.3,0-0.4c0-0.1-0.1-0.2-0.2-0.2c-0.1,0-0.2,0-0.3,0.1
	c-0.1,0.1-0.1,0.3-0.2,0.4c0,0.1,0,0.3,0,0.4C439.7,297.6,439.8,297.7,439.9,297.7"/>
    <path id="Path_512_00000132779142766586764090000017948595568137933961_" class="st19" d="M442.3,298.6c-0.1,0-0.3-0.1-0.4-0.1
	c-0.1-0.1-0.2-0.1-0.3-0.2c-0.1-0.1-0.1-0.2-0.2-0.4c0-0.1,0-0.3,0-0.4c0-0.1,0.1-0.3,0.1-0.4c0.1-0.1,0.2-0.2,0.3-0.3
	c0.1-0.1,0.2-0.1,0.3-0.2c0.1,0,0.3,0,0.4,0c0.1,0,0.3,0.1,0.4,0.1c0.1,0.1,0.2,0.1,0.2,0.2c0.1,0.1,0.1,0.2,0.1,0.3v0.4
	c0,0.1,0,0.1,0,0.1c0,0,0,0.1,0,0.1l-1.2-0.2c0,0.1,0,0.3,0.1,0.3c0.1,0.1,0.2,0.1,0.3,0.2c0.2,0,0.3,0,0.4-0.1l0.1,0.4
	c-0.1,0.1-0.2,0.1-0.4,0.1C442.6,298.6,442.4,298.6,442.3,298.6 M442,297.3l0.7,0.1c0-0.1,0-0.2,0-0.3c-0.1-0.1-0.1-0.1-0.2-0.1
	c-0.1,0-0.2,0-0.3,0.1C442.1,297,442.1,297.1,442,297.3"/>
    <path id="Path_513_00000164494841565754303970000005871586437576526271_" class="st19" d="M444.4,298.9c-0.1,0-0.2,0-0.3-0.1
	c-0.1,0-0.1-0.1-0.2-0.2c0-0.1-0.1-0.2-0.1-0.3V298l0.1-0.8l-0.3,0l0.1-0.4h0.3l0.1-0.5l0.5,0.1l-0.1,0.5l0.5,0.1l-0.1,0.5l-0.5-0.1
	l-0.1,0.8c0,0.1,0,0.2,0,0.2c0,0.1,0.1,0.1,0.2,0.1h0.2l0,0.4c-0.1,0-0.1,0-0.2,0C444.6,298.9,444.5,298.9,444.4,298.9"/>
    <path id="Path_514_00000070103635231354763520000016385030135664258998_" class="st19" d="M445.9,299.1c-0.1,0-0.3-0.1-0.4-0.1
	c-0.1-0.1-0.2-0.1-0.3-0.2l0.3-0.3c0.1,0.1,0.2,0.1,0.2,0.2c0.1,0,0.2,0.1,0.2,0.1c0.1,0,0.2,0,0.2,0c0,0,0.1-0.1,0.1-0.1
	c0,0,0-0.1,0-0.1c0,0,0-0.1-0.1-0.1s-0.1,0-0.1-0.1c0,0-0.1,0-0.1-0.1c-0.1,0-0.1-0.1-0.2-0.1c-0.1,0-0.1-0.1-0.2-0.1
	c0-0.1-0.1-0.1-0.1-0.2c0-0.1,0-0.2,0-0.2c0-0.1,0-0.2,0.1-0.2c0-0.1,0.1-0.1,0.2-0.2c0.1,0,0.2-0.1,0.2-0.1c0.1,0,0.2,0,0.3,0
	c0.1,0,0.3,0.1,0.4,0.1c0.1,0.1,0.2,0.1,0.3,0.2l-0.3,0.3c-0.1-0.1-0.1-0.1-0.2-0.1c-0.1,0-0.1-0.1-0.2-0.1c-0.1,0-0.2,0-0.2,0.1
	c0,0,0,0.1,0,0.1l0.1,0.1c0,0,0.1,0,0.1,0.1c0,0,0.1,0,0.1,0.1c0.1,0,0.1,0.1,0.2,0.1c0.1,0,0.1,0.1,0.2,0.1c0,0,0.1,0.1,0.1,0.2
	c0,0.1,0,0.2,0,0.2c0,0.1,0,0.2-0.1,0.2c0,0.1-0.1,0.1-0.2,0.2c-0.1,0.1-0.2,0.1-0.3,0.1C446.2,299.1,446,299.1,445.9,299.1"/>
    <path id="Path_515_00000170271460023044352280000017957136087064632225_" class="st19" d="M448.2,299.3c-0.1,0-0.3,0-0.4-0.1
	c-0.1-0.1-0.2-0.2-0.3-0.2c-0.1-0.1-0.1-0.2-0.2-0.3c-0.1-0.3,0-0.6,0.1-0.9c0.1-0.1,0.1-0.2,0.2-0.3c0.1-0.1,0.2-0.1,0.3-0.2
	c0.1,0,0.3-0.1,0.4,0c0.1,0,0.3,0,0.4,0.1c0.1,0.1,0.2,0.2,0.3,0.2c0.1,0.1,0.1,0.2,0.2,0.3c0.1,0.3,0,0.6-0.1,0.9
	c-0.1,0.1-0.1,0.2-0.2,0.3c-0.1,0.1-0.2,0.1-0.3,0.2C448.4,299.3,448.3,299.3,448.2,299.3 M448.2,298.8c0.1,0,0.2,0,0.3-0.1
	c0.1-0.1,0.1-0.3,0.1-0.4c0-0.1,0-0.3-0.1-0.4c-0.1-0.1-0.2-0.2-0.3-0.2c-0.1,0-0.2,0-0.3,0.1c-0.1,0.1-0.1,0.3-0.1,0.4
	c0,0.1,0,0.3,0.1,0.4C448,298.7,448.1,298.8,448.2,298.8"/>
    <path id="Path_516_00000101815461160564110750000003724297965702449291_" class="st19" d="M449.7,299.3l0.1-2l0.5,0l0,0.3
	c0.1-0.1,0.2-0.2,0.3-0.3c0.1-0.1,0.2-0.1,0.3-0.1h0.1c0,0,0.1,0,0.1,0l-0.1,0.5c0,0-0.1,0-0.1,0h-0.1c-0.1,0-0.2,0-0.2,0.1
	c-0.1,0.1-0.2,0.2-0.2,0.3l-0.1,1.2L449.7,299.3z"/>
    <path id="Path_517_00000112619480293248476820000001970955355118099631_" class="st19" d="M452.3,300.3c-0.1,0-0.2,0-0.3,0
	c-0.1,0-0.2,0-0.3-0.1c-0.1,0-0.1-0.1-0.2-0.2c0-0.1-0.1-0.2-0.1-0.2c0-0.2,0.1-0.3,0.3-0.4c-0.1,0-0.1-0.1-0.1-0.1
	c-0.1-0.1-0.1-0.3,0-0.4c0-0.1,0.1-0.1,0.2-0.2c-0.1,0-0.1-0.1-0.2-0.2c0-0.1-0.1-0.2-0.1-0.3c0-0.1,0-0.2,0.1-0.3
	c0-0.1,0.1-0.2,0.2-0.2c0.1-0.1,0.2-0.1,0.3-0.1c0.1,0,0.2,0,0.3,0c0.1,0,0.2,0,0.3,0h0.7v0.4H453c0,0,0,0.1,0,0.1c0,0,0,0.1,0,0.1
	c0,0.1,0,0.2-0.1,0.3c0,0.1-0.1,0.2-0.2,0.2c-0.1,0.1-0.2,0.1-0.2,0.1c-0.1,0-0.2,0-0.3,0c-0.1,0-0.2,0-0.2,0l-0.1,0.1v0.1
	c0,0.1,0,0.1,0.1,0.1c0,0,0.1,0,0.2,0h0.3c0.2,0,0.4,0,0.6,0.1c0.1,0.1,0.2,0.2,0.2,0.4c0,0.1,0,0.2-0.1,0.3
	c-0.1,0.1-0.1,0.2-0.2,0.2c-0.1,0.1-0.2,0.1-0.3,0.1C452.6,300.3,452.4,300.3,452.3,300.3 M452.4,299.9c0.1,0,0.2,0,0.3-0.1
	c0.1,0,0.1-0.1,0.1-0.2c0-0.1,0-0.1-0.1-0.1c0,0-0.1,0-0.2,0h-0.4c0,0-0.1,0-0.1,0c-0.1,0.1-0.1,0.1-0.1,0.2c0,0.1,0.1,0.2,0.1,0.2
	C452.1,299.9,452.2,299.9,452.4,299.9 M452.3,298.4c0.1,0,0.1,0,0.2-0.1c0.1-0.1,0.1-0.2,0.1-0.2c0-0.1,0-0.2-0.1-0.2
	c-0.1-0.1-0.1-0.1-0.2-0.1c-0.1,0-0.1,0-0.2,0.1c-0.1,0.1-0.1,0.2-0.1,0.2c0,0.1,0,0.2,0.1,0.2C452.2,298.4,452.2,298.4,452.3,298.4
	"/>
    <path id="Path_518_00000008851253690729200760000017352003452613703310_" class="st19" d="M454.4,299.5c-0.1,0-0.2,0-0.2,0
	c-0.1,0-0.1-0.1-0.2-0.1c-0.1-0.1-0.1-0.1-0.1-0.2c0-0.1,0-0.2,0-0.2c0-0.2,0.1-0.4,0.3-0.5c0.3-0.2,0.6-0.2,0.9-0.2
	c0-0.1,0-0.1-0.1-0.2c0-0.1-0.1-0.1-0.2-0.1c-0.1,0-0.2,0-0.3,0.1c-0.1,0-0.2,0.1-0.3,0.1l-0.2-0.4l0.4-0.2c0.1,0,0.3-0.1,0.4-0.1
	c0.2,0,0.4,0.1,0.6,0.2c0.2,0.2,0.2,0.4,0.2,0.7v1.2H455l0-0.2c-0.1,0.1-0.2,0.1-0.3,0.2C454.6,299.4,454.5,299.5,454.4,299.5
	 M454.6,299c0.1,0,0.1,0,0.2,0c0,0,0.1-0.1,0.1-0.1v-0.3c-0.2,0-0.3,0.1-0.4,0.1c-0.1,0.1-0.1,0.1-0.1,0.2c0,0.1,0,0.1,0.1,0.1
	C454.5,299,454.5,299,454.6,299"/>
    <path id="Path_519_00000087406708465466291400000008795005129036474282_" class="st19" d="M456.2,299.4l-0.1-2l0.5,0l0.1,0.2
	c0.1-0.1,0.2-0.2,0.3-0.2c0.3-0.2,0.6-0.1,0.8,0.1c0.1,0.2,0.2,0.4,0.2,0.6l0.1,1.2l-0.6,0l0-1.2c0-0.1,0-0.2-0.1-0.3
	c0-0.1-0.1-0.1-0.2-0.1c-0.1,0-0.1,0-0.2,0.1c-0.1,0-0.1,0.1-0.2,0.1l0.1,1.4L456.2,299.4z"/>
    <path id="Path_520_00000143610821352414359740000000553417359781067905_" class="st19" d="M458.8,296.9c-0.1,0-0.2,0-0.2-0.1
	c-0.1-0.1-0.1-0.1-0.1-0.2c0-0.1,0-0.2,0.1-0.2c0.1-0.1,0.2-0.1,0.2-0.1c0.1,0,0.2,0,0.2,0.1c0.1,0.1,0.1,0.1,0.1,0.2
	c0,0.1,0,0.2-0.1,0.2C459,296.9,458.9,296.9,458.8,296.9 M458.7,299.3l-0.1-2l0.6,0l0.1,2L458.7,299.3z"/>
    <path id="Path_521_00000139995127697358063630000003781884445929380255_" class="st19" d="M460.6,299.2c-0.1,0-0.3,0-0.4,0
	c-0.1,0-0.3-0.1-0.4-0.2l0.2-0.4c0.1,0.1,0.2,0.1,0.3,0.1c0.1,0,0.2,0,0.3,0c0.1,0,0.1,0,0.2-0.1c0.1,0,0.1-0.1,0-0.1
	c0,0,0-0.1,0-0.1c0,0-0.1,0-0.1-0.1c0,0-0.1,0-0.1,0c-0.1,0-0.1,0-0.2,0c-0.1,0-0.1,0-0.2-0.1c-0.1,0-0.1-0.1-0.2-0.1
	c-0.1,0-0.1-0.1-0.1-0.2c0-0.1-0.1-0.1-0.1-0.2c0-0.1,0-0.2,0-0.3c0-0.1,0.1-0.1,0.1-0.2c0.1-0.1,0.2-0.1,0.2-0.1
	c0.1,0,0.2-0.1,0.3-0.1c0.1,0,0.3,0,0.4,0c0.1,0,0.2,0.1,0.3,0.1l-0.2,0.4c-0.1,0-0.2-0.1-0.2-0.1c-0.1,0-0.1,0-0.2,0
	c-0.1,0-0.2,0.1-0.2,0.2c0,0,0,0.1,0,0.1c0,0,0.1,0,0.1,0.1c0,0,0.1,0,0.1,0s0.1,0,0.1,0c0.1,0,0.1,0,0.2,0.1c0.1,0,0.1,0.1,0.2,0.1
	c0.1,0,0.1,0.1,0.1,0.2c0,0.1,0.1,0.2,0.1,0.2c0,0.1,0,0.2,0,0.3c0,0.1-0.1,0.2-0.1,0.2c-0.1,0.1-0.2,0.1-0.2,0.2
	C460.8,299.2,460.7,299.2,460.6,299.2"/>
    <path id="Path_522_00000000192347767815451770000011234901935033826984_" class="st19" d="M462.5,299c-0.1,0-0.2,0-0.2,0l-0.2-0.1
	c-0.1,0-0.1-0.1-0.1-0.2c0-0.1-0.1-0.2-0.1-0.2c0-0.2,0-0.4,0.2-0.5c0.3-0.2,0.5-0.3,0.8-0.3c0-0.1,0-0.2-0.1-0.2
	c-0.1,0-0.2-0.1-0.2,0c-0.1,0-0.2,0-0.2,0.1c-0.1,0-0.2,0.1-0.2,0.2l-0.3-0.4c0.1-0.1,0.2-0.2,0.4-0.2c0.1-0.1,0.3-0.1,0.4-0.1
	c0.2,0,0.4,0,0.6,0.1c0.2,0.2,0.3,0.4,0.3,0.6l0.1,1.1l-0.5,0.1l-0.1-0.2c-0.1,0.1-0.2,0.1-0.2,0.2C462.7,298.9,462.6,299,462.5,299
	 M462.6,298.5c0.1,0,0.1,0,0.2-0.1c0,0,0.1-0.1,0.1-0.1l0-0.3c-0.1,0-0.3,0.1-0.4,0.2c-0.1,0.1-0.1,0.1-0.1,0.2c0,0.1,0,0.1,0.1,0.1
	C462.5,298.5,462.6,298.5,462.6,298.5"/>
    <path id="Path_523_00000100366375694531209170000013970712453953495698_" class="st19" d="M465,298.7c-0.1,0-0.2,0-0.3,0
	c-0.1,0-0.2-0.1-0.2-0.1c-0.1-0.1-0.1-0.2-0.2-0.2c0-0.1-0.1-0.2-0.1-0.3l-0.1-0.8l-0.3,0l-0.1-0.4l0.3-0.1v-0.5l0.5-0.1l0.1,0.5
	l0.5-0.1l0.1,0.4l-0.5,0.1l0.1,0.8c0,0.1,0,0.2,0.1,0.2c0.1,0,0.1,0.1,0.2,0c0,0,0.1,0,0.1,0c0,0,0.1,0,0.1,0l0.2,0.4
	c0,0-0.1,0-0.2,0.1C465.3,298.6,465.1,298.6,465,298.7"/>
    <path id="Path_524_00000142136710960966609020000017586878259255355058_" class="st19" d="M465.9,296.2c-0.1,0-0.2,0-0.3,0
	c-0.1,0-0.1-0.1-0.1-0.2c0-0.1,0-0.2,0.1-0.2c0.1-0.1,0.2-0.1,0.2-0.1c0.1,0,0.2,0,0.3,0c0.1,0,0.1,0.1,0.1,0.2c0,0.1,0,0.2-0.1,0.2
	C466.1,296.1,466,296.1,465.9,296.2 M466,298.5l-0.3-2l0.6-0.1l0.3,2L466,298.5z"/>
    <path id="Path_525_00000115503013963052759970000012235865982502209673_" class="st19" d="M468.2,298.1c-0.1,0-0.3,0-0.4,0
	c-0.3,0-0.5-0.2-0.6-0.4c-0.1-0.1-0.1-0.3-0.2-0.4c0-0.1,0-0.3,0-0.4c0-0.1,0.1-0.3,0.1-0.4c0.1-0.1,0.2-0.2,0.3-0.3
	c0.1-0.1,0.2-0.1,0.3-0.1c0.1,0,0.3,0,0.4,0c0.1,0,0.2,0.1,0.3,0.1c0.1,0.1,0.2,0.2,0.2,0.3c0.1,0.1,0.1,0.2,0.1,0.4
	c0,0.1,0,0.1,0,0.1v0.1l-1.2,0.2c0.1,0.1,0.1,0.2,0.2,0.3c0.1,0,0.2,0.1,0.3,0c0.1,0,0.3-0.1,0.4-0.2l0.3,0.3
	c-0.1,0.1-0.2,0.2-0.3,0.2C468.4,298.1,468.3,298.1,468.2,298.1 M467.5,297l0.7-0.1c0-0.1-0.1-0.2-0.1-0.3c-0.1-0.1-0.2-0.1-0.3-0.1
	c-0.1,0-0.2,0.1-0.2,0.1C467.5,296.7,467.5,296.9,467.5,297"/>
    <path id="Path_526_00000044893729993530409750000000243238284459191424_" class="st19" d="M377.2,236.4l2.2-0.4l-0.1-0.7l0.5-0.1
	l0.4,2.1l-0.5,0.1l-0.1-0.8l-2.2,0.4L377.2,236.4z"/>
    <path id="Path_527_00000108994131361694522520000003487717088845840533_" class="st19" d="M377.7,238.8c0-0.1,0-0.3,0-0.4
	c0-0.3,0.2-0.5,0.4-0.6c0.1-0.1,0.3-0.1,0.4-0.2c0.2,0,0.3,0,0.5,0c0.1,0,0.3,0.1,0.4,0.1c0.1,0.1,0.2,0.2,0.3,0.3
	c0.1,0.1,0.1,0.2,0.1,0.3c0,0.1,0,0.3,0,0.4c0,0.1-0.1,0.2-0.1,0.3c-0.1,0.1-0.2,0.2-0.3,0.3c-0.1,0.1-0.3,0.1-0.4,0.2
	c-0.2,0-0.3,0-0.5,0c-0.1,0-0.3-0.1-0.4-0.1c-0.1-0.1-0.2-0.2-0.3-0.3C377.7,239.1,377.7,239,377.7,238.8 M378.2,238.7
	c0,0.1,0.1,0.2,0.2,0.2c0.1,0,0.3,0,0.4,0c0.1,0,0.3-0.1,0.4-0.2c0.1-0.1,0.1-0.2,0.1-0.3c0-0.1-0.1-0.2-0.2-0.2c-0.1,0-0.3,0-0.4,0
	c-0.1,0-0.3,0.1-0.4,0.2C378.2,238.5,378.1,238.6,378.2,238.7"/>
    <path id="Path_528_00000155107613913473147460000005027245543992908947_" class="st19" d="M378.2,241.3c0-0.1,0-0.3,0-0.4
	c0-0.1,0.1-0.3,0.1-0.4c0.1-0.1,0.2-0.2,0.3-0.3c0.1-0.1,0.3-0.1,0.4-0.2c0.1,0,0.3,0,0.4,0c0.1,0,0.3,0.1,0.4,0.1
	c0.1,0.1,0.2,0.1,0.3,0.2c0.1,0.1,0.1,0.2,0.2,0.3c0,0.1,0,0.3,0,0.4c0,0.1-0.1,0.2-0.1,0.3c-0.1,0.1-0.2,0.2-0.3,0.2
	c-0.1,0.1-0.2,0.1-0.4,0.1c-0.1,0-0.1,0-0.2,0h-0.1l-0.3-1.2c-0.1,0.1-0.2,0.1-0.3,0.3c0,0.1,0,0.3,0,0.4c0,0.2,0.1,0.3,0.2,0.4
	l-0.3,0.3c-0.1-0.1-0.2-0.2-0.2-0.3C378.3,241.6,378.3,241.4,378.2,241.3 M379.4,240.6l0.2,0.7c0.1,0,0.2-0.1,0.2-0.1
	c0.1-0.1,0.1-0.2,0-0.3c0-0.1-0.1-0.2-0.2-0.2C379.6,240.6,379.5,240.5,379.4,240.6"/>
    <path id="Path_529_00000026125052308079463400000016656723449944869033_" class="st19" d="M378.8,243.4c0-0.1,0-0.2,0-0.3
	c0-0.1,0-0.2,0.1-0.2c0.1-0.1,0.1-0.1,0.2-0.2c0.1-0.1,0.2-0.1,0.3-0.1l0.8-0.2l-0.1-0.3l0.4-0.1l0.1,0.3l0.5-0.1l0.1,0.5l-0.5,0.1
	l0.1,0.5l-0.4,0.1l-0.1-0.5l-0.8,0.2c-0.1,0-0.2,0.1-0.2,0.1c0,0.1,0,0.1,0,0.2c0,0,0,0.1,0,0.1c0,0,0,0.1,0.1,0.1l-0.4,0.2
	c0-0.1-0.1-0.1-0.1-0.2C378.9,243.6,378.8,243.5,378.8,243.4"/>
    <path id="Path_530_00000173862901485597632640000000014477766643330980_" class="st19" d="M379.3,244.9c0-0.1-0.1-0.3,0-0.4
	c0-0.1,0-0.3,0.1-0.4l0.4,0.1c0,0.1-0.1,0.2-0.1,0.3c0,0.1,0,0.2,0,0.3c0,0.1,0.1,0.1,0.1,0.2c0,0,0.1,0,0.1,0c0,0,0.1,0,0.1-0.1
	c0,0,0-0.1,0-0.1c0,0,0-0.1,0-0.1v-0.2c0-0.1,0-0.1,0-0.2c0-0.1,0-0.1,0.1-0.2c0-0.1,0.1-0.1,0.1-0.2c0.1,0,0.1-0.1,0.2-0.1
	c0.1,0,0.2,0,0.3,0c0.1,0,0.2,0,0.2,0.1c0.1,0.1,0.2,0.1,0.2,0.2c0.1,0.1,0.1,0.2,0.1,0.3c0,0.1,0.1,0.3,0,0.4c0,0.1,0,0.2-0.1,0.3
	L381,245c0-0.1,0-0.2,0.1-0.2c0-0.1,0-0.1,0-0.2c0-0.1-0.1-0.2-0.2-0.2c0,0-0.1,0-0.1,0.1c0,0,0,0.1,0,0.1v0.3c0,0.1,0,0.1,0,0.2
	c0,0.1,0,0.1-0.1,0.2c0,0.1-0.1,0.1-0.1,0.2c-0.1,0.1-0.1,0.1-0.2,0.1c-0.1,0-0.2,0-0.3,0c-0.1,0-0.2,0-0.2-0.1l-0.2-0.2
	C379.4,245.2,379.3,245.1,379.3,244.9"/>
    <path id="Path_531_00000111886415831399239470000016127398175688003200_" class="st19" d="M380,247.3c0-0.1,0-0.2,0-0.3
	c0-0.1,0-0.2,0.1-0.3l-0.2,0l-0.1-0.4l2.8-0.9l0.2,0.6l-0.7,0.2l-0.3,0.1c0.1,0,0.2,0.1,0.2,0.2c0.1,0.1,0.1,0.2,0.1,0.2
	c0,0.1,0.1,0.2,0,0.3c0,0.1-0.1,0.2-0.1,0.3c-0.1,0.1-0.2,0.2-0.3,0.3c-0.1,0.1-0.2,0.1-0.4,0.2c-0.2,0.1-0.3,0.1-0.5,0.1
	c-0.1,0-0.3,0-0.4-0.1c-0.1,0-0.2-0.1-0.3-0.2C380.1,247.6,380.1,247.4,380,247.3 M380.5,247c0,0.1,0.1,0.2,0.2,0.2
	c0.2,0,0.3,0,0.5,0c0.3-0.1,0.5-0.3,0.4-0.5c-0.1-0.1-0.2-0.2-0.3-0.3l-0.8,0.3c0,0.1,0,0.1,0,0.2C380.4,246.9,380.4,247,380.5,247"
    />
    <path id="Path_532_00000127766021177840974450000002735837300910109099_" class="st19" d="M380.8,249.6c-0.1-0.1-0.1-0.3-0.1-0.4
	c0-0.1,0-0.3,0.1-0.4c0.1-0.1,0.1-0.2,0.2-0.3c0.1-0.1,0.3-0.2,0.4-0.2c0.1-0.1,0.3-0.1,0.4-0.1c0.1,0,0.3,0,0.4,0.1
	c0.1,0,0.2,0.1,0.3,0.2c0.1,0.1,0.1,0.2,0.2,0.3c0,0.1,0.1,0.2,0.1,0.4c0,0.1,0,0.2-0.1,0.3c-0.1,0.1-0.2,0.2-0.2,0.3
	c-0.1,0.1-0.2,0.1-0.3,0.2c0,0-0.1,0-0.1,0c0,0-0.1,0-0.1,0l-0.4-1.2c-0.1,0.1-0.2,0.2-0.2,0.3c0,0.1,0,0.3,0,0.4
	c0.1,0.1,0.2,0.3,0.3,0.4l-0.3,0.3c-0.1-0.1-0.2-0.2-0.3-0.3C381,249.8,380.9,249.7,380.8,249.6 M381.9,248.7l0.3,0.7
	c0.1,0,0.2-0.1,0.2-0.2c0.1-0.1,0.1-0.2,0-0.3c0-0.1-0.1-0.2-0.2-0.2C382.1,248.7,382,248.7,381.9,248.7"/>
    <path id="Path_533_00000084503349926232502180000016906639659728455089_" class="st19" d="M381.4,250.9l2.7-1.1l0.2,0.5l-1.5,0.6
	l1,0.3l0.2,0.6l-1.1-0.3l-0.8,1.2l-0.2-0.6l0.6-0.7l-0.4-0.1l-0.5,0.2L381.4,250.9z"/>
    <path id="Path_534_00000031900253469835502810000008823561439704118406_" class="st19" d="M382.5,253.6l1.7-1.3l0.2,0.5l-0.8,0.6
	c-0.1,0-0.2,0.1-0.2,0.2c-0.1,0.1-0.2,0.1-0.3,0.2c0.1,0,0.2-0.1,0.3-0.1c0.1,0,0.2,0,0.3-0.1l1-0.2l0.2,0.5l-0.8,0.6
	c-0.2,0.1-0.3,0.2-0.5,0.3c0.1,0,0.2-0.1,0.3-0.1c0.1,0,0.2-0.1,0.3-0.1l1-0.2l0.2,0.5l-2.1,0.4l-0.3-0.6l0.7-0.5
	c0.1-0.1,0.2-0.1,0.2-0.2c0.1-0.1,0.2-0.1,0.3-0.2c-0.1,0-0.2,0.1-0.3,0.1c-0.1,0-0.2,0-0.3,0.1l-0.8,0.2L382.5,253.6z"/>
    <path id="Path_535_00000096780061312612379130000006862028386013494400_" class="st19" d="M384,256.8c0-0.1-0.1-0.2-0.1-0.2
	c0-0.1,0-0.2,0-0.2c0.1-0.2,0.2-0.3,0.3-0.3c0.2-0.1,0.4-0.1,0.6,0c0.3,0.2,0.5,0.4,0.6,0.7c0.1,0,0.1-0.1,0.2-0.2
	c0-0.1,0-0.1,0-0.2c0-0.1-0.1-0.1-0.2-0.2c-0.1-0.1-0.2-0.1-0.2-0.2l0.3-0.4c0.1,0.1,0.3,0.2,0.4,0.3c0.1,0.1,0.2,0.2,0.3,0.4
	c0.1,0.2,0.1,0.4,0.1,0.7c-0.1,0.2-0.2,0.3-0.6,0.5l-1.1,0.5l-0.2-0.4l0.2-0.1c-0.1,0-0.2-0.1-0.3-0.2
	C384.1,257,384,256.9,384,256.8 M384.5,256.8c0,0.1,0.1,0.1,0.1,0.1c0,0,0.1,0.1,0.2,0.1l0.3-0.2c-0.1-0.1-0.2-0.2-0.3-0.3
	c-0.1,0-0.2-0.1-0.2,0c-0.1,0-0.1,0.1-0.1,0.1C384.4,256.6,384.5,256.7,384.5,256.8"/>
    <path id="Path_536_00000083084336046204443850000008570306559688726675_" class="st19" d="M385.1,258.9c0-0.1-0.1-0.2-0.1-0.2
	c0-0.1,0-0.2,0-0.2l0.1-0.2c0.1-0.1,0.1-0.1,0.2-0.2c0.2-0.1,0.4-0.1,0.6,0c0.3,0.2,0.5,0.4,0.7,0.7c0.1,0,0.1-0.1,0.1-0.2
	c0-0.1,0-0.1,0-0.2c0-0.1-0.1-0.1-0.2-0.2c-0.1-0.1-0.2-0.1-0.2-0.2l0.2-0.4c0.1,0.1,0.3,0.2,0.4,0.3c0.1,0.1,0.2,0.2,0.3,0.4
	c0.1,0.2,0.2,0.4,0.1,0.6c-0.1,0.2-0.3,0.4-0.5,0.5l-1,0.5l-0.2-0.4l0.2-0.1c-0.1,0-0.2-0.1-0.3-0.2
	C385.2,259.1,385.1,259,385.1,258.9 M385.6,258.9c0,0.1,0.1,0.1,0.1,0.1c0,0,0.1,0.1,0.2,0.1l0.3-0.2c-0.1-0.1-0.2-0.2-0.3-0.3
	c-0.1,0-0.2,0-0.2,0c-0.1,0-0.1,0.1-0.1,0.1C385.5,258.8,385.5,258.8,385.6,258.9"/>
    <path id="Path_537_00000043433747672702200400000005054744701121473434_" class="st19" d="M386,260.6l1.8-1.1l0.2,0.4l-0.2,0.2
	c0.1,0,0.2,0.1,0.3,0.1c0.1,0.1,0.2,0.1,0.3,0.2c0.1,0.1,0.1,0.2,0.1,0.3c0,0.1,0,0.2-0.1,0.3c0.1,0,0.2,0.1,0.3,0.1
	c0.1,0.1,0.2,0.2,0.3,0.3c0.1,0.2,0.1,0.4,0.1,0.5c-0.1,0.2-0.3,0.3-0.4,0.4l-1.1,0.7l-0.3-0.5l1-0.6c0.1,0,0.2-0.1,0.2-0.2
	c0-0.1,0-0.2,0-0.2c-0.1-0.1-0.2-0.2-0.3-0.2l-1.2,0.7l-0.3-0.5l1-0.6c0.1,0,0.2-0.1,0.2-0.2c0-0.1,0-0.2,0-0.2
	c-0.1-0.1-0.2-0.2-0.3-0.2l-1.2,0.7L386,260.6z"/>
    <path id="Path_538_00000074412051748643546820000000172361096693343922_" class="st19" d="M387.9,263.8l2.4-1.6l0.3,0.5l-0.6,0.4
	l-0.3,0.2c0.1,0,0.2,0.1,0.3,0.1c0.1,0.1,0.2,0.2,0.3,0.3c0.1,0.1,0.1,0.3,0.1,0.5c-0.1,0.2-0.3,0.4-0.4,0.4l-1.1,0.7l-0.3-0.5
	l1-0.6c0.1,0,0.2-0.1,0.2-0.2c0-0.1,0-0.1,0-0.2c0-0.1-0.1-0.1-0.1-0.1c-0.1,0-0.2-0.1-0.2-0.1l-1.2,0.8L387.9,263.8z"/>
    <path id="Path_539_00000140001925027224385170000016405174918205746836_" class="st19" d="M389.8,266.7c-0.1-0.1-0.1-0.2-0.2-0.4
	c0-0.1,0-0.3,0-0.4c0-0.1,0.1-0.3,0.1-0.4c0.1-0.1,0.2-0.2,0.3-0.3c0.1-0.1,0.3-0.2,0.4-0.2c0.1,0,0.3,0,0.4,0
	c0.1,0,0.2,0.1,0.3,0.1c0.1,0.1,0.2,0.1,0.3,0.2c0.1,0.1,0.1,0.2,0.2,0.3c0,0.1,0,0.2,0,0.3c0,0.1-0.1,0.2-0.2,0.3
	c-0.1,0.1-0.2,0.2-0.3,0.3c0,0-0.1,0.1-0.1,0.1c0,0-0.1,0-0.1,0l-0.7-1c-0.1,0.1-0.2,0.2-0.2,0.3c0,0.1,0,0.2,0.1,0.3
	c0.1,0.1,0.2,0.2,0.4,0.3l-0.2,0.4c-0.1,0-0.2-0.1-0.3-0.2C390,266.9,389.9,266.8,389.8,266.7 M390.6,265.6l0.4,0.6
	c0.1-0.1,0.2-0.1,0.2-0.2c0-0.1,0-0.2-0.1-0.3c-0.1-0.1-0.1-0.1-0.2-0.2C390.8,265.5,390.7,265.5,390.6,265.6"/>
    <path id="Path_540_00000092431138322076948050000011321099321308214430_" class="st19" d="M390.7,267.9l1.7-1.2l0.3,0.5l-1.7,1.2
	L390.7,267.9z M392.8,266.7c-0.1-0.1-0.1-0.2-0.1-0.3c0-0.1,0.1-0.2,0.1-0.2c0.1-0.1,0.2-0.1,0.2-0.1c0.1,0,0.2,0.1,0.2,0.1
	c0.1,0.1,0.1,0.2,0.1,0.3c0,0.1-0.1,0.2-0.1,0.2c-0.1,0.1-0.2,0.1-0.2,0.1C392.9,266.8,392.8,266.8,392.8,266.7"/>
    <path id="Path_541_00000067952025985416538990000001532626653802857912_" class="st19" d="M391.9,269.5c-0.1-0.1-0.1-0.2-0.1-0.3
	c0-0.1,0-0.2,0-0.3c0-0.1,0.1-0.2,0.2-0.3c0.1-0.1,0.2-0.2,0.3-0.3c0.1-0.1,0.3-0.2,0.4-0.2c0.1,0,0.2-0.1,0.4-0.1
	c0.1,0,0.2,0,0.3,0.1c0.1,0.1,0.2,0.1,0.2,0.2c0.1,0.1,0.1,0.2,0.1,0.3c0,0.1,0,0.2,0,0.3l0.2-0.2l0.5-0.4l0.4,0.5l-2.3,1.8
	l-0.3-0.4l0.1-0.2c-0.1,0-0.2,0-0.3-0.1C392,269.7,391.9,269.6,391.9,269.5 M392.4,269.4c0,0.1,0.1,0.1,0.1,0.1c0.1,0,0.1,0,0.2,0
	l0.7-0.5c0-0.1,0-0.1,0-0.2c0-0.1,0-0.1-0.1-0.1c-0.1-0.1-0.2-0.1-0.3-0.1c-0.2,0-0.3,0.1-0.4,0.2c-0.1,0.1-0.2,0.2-0.3,0.3
	C392.3,269.2,392.3,269.3,392.4,269.4"/>
    <path id="Path_542_00000095326563069648558170000010789213750541565878_" class="st10" d="M451.9,193.2l0.3-43.9l0.8,0l0.1,44.1
	L451.9,193.2z"/>
    <path id="Path_543_00000114769720976680201170000009950413920592584843_" class="st10" d="M479.7,212.8l41.8-13.6l0.3,0.7l-41.8,14
	L479.7,212.8z"/>
    <path id="Path_544_00000047050786382775294000000005904866401297943717_" class="st10" d="M425.6,212.8l-41.8-13.6l-0.3,0.7l41.8,14
	L425.6,212.8z"/>
    <path id="Path_545_00000092454239259418164800000010935887767498987402_" class="st10" d="M435.6,244.5L410,280.2l0.6,0.4l26-35.6
	L435.6,244.5z"/>
    <path id="Path_546_00000158015405206180926760000010325855365164268727_" class="st10" d="M469.6,244.5l25.5,35.8l-0.5,0.5l-26-35.6
	L469.6,244.5z"/>
    <path id="Path_577_00000170263845231545511490000006541554215570653835_" class="st20"
          d="M548.5,288.8c-0.1-0.1-0.3-0.2-0.4-0.3"/>
</svg>
