<?xml version="1.0" encoding="utf-8"?>
<!-- Generator: Adobe Illustrator 26.3.1, SVG Export Plug-In . SVG Version: 6.00 Build 0)  -->
<svg version="1.1" id="Laag_1" xmlns="http://www.w3.org/2000/svg" xmlns:xlink="http://www.w3.org/1999/xlink" x="0px" y="0px"
	 viewBox="0 0 678.6 595.3" style="enable-background:new 0 0 678.6 595.3;" xml:space="preserve">
<style type="text/css">
	.st0{fill:#78BE80;}
	.st1{opacity:0.5;}
	.st2{fill:#97CB9C;}
	.st3{fill:#61B66E;}
	.st4{fill:#15A63C;}
	.st5{fill:#FFFFFF;}
	.st6{opacity:0.15;}
	.st7{fill:#F7B192;}
	.st8{fill:#F1A181;}
	.st9{fill:#F8BC9D;}
	.st10{fill:#070708;}
	.st11{fill:#D1C45D;}
	.st12{fill:#29316F;}
	.st13{opacity:0.65;}
	.st14{clip-path:url(#SVGID_00000034069293274028773560000011923207027862697349_);}
	.st15{clip-path:url(#SVGID_00000047035380593973277020000016398725064733583285_);}
	.st16{fill:#050607;}
	.st17{fill:#EF7D77;}
</style>
<g id="XMLID_5_">
	<g id="XMLID_17_">
		<path class="st0" d="M486.3,263.8c-0.2,0-0.5-0.2-0.5-0.5l-0.2-2.5c0-0.3,0.2-0.5,0.5-0.5c0.3,0,0.5,0.2,0.5,0.5l0.2,2.5
			C486.8,263.5,486.6,263.8,486.3,263.8C486.3,263.8,486.3,263.8,486.3,263.8z"/>
	</g>
	<g id="XMLID_18_">
		<g id="XMLID_19_">
			<polygon class="st0" points="497.9,378.8 491.2,379.3 483.5,271.4 486.9,271.2 490.2,271 			"/>
		</g>
	</g>
	<polygon class="st0" points="486.9,262.2 485.5,262.3 483.5,271.4 490.2,271 	"/>
</g>
<g id="XMLID_49_">
	<polyline class="st0" points="465,288.3 487.8,376.7 483.5,377.8 455.4,290.8 	"/>
	<g id="XMLID_50_">
		<path class="st0" d="M444.1,290.4c-11.5,3-23.8-5.9-27.4-19.8c-3.6-13.9,2.9-27.6,14.4-30.6c11.5-3,23.8,5.9,27.4,19.8
			C462.1,273.7,455.7,287.4,444.1,290.4z M433.1,247.7c-7.2,1.9-11.1,11.2-8.6,20.9c2.5,9.6,10.4,16,17.7,14.1
			c7.2-1.9,11.1-11.2,8.6-20.9C448.3,252.1,440.4,245.8,433.1,247.7z"/>
	</g>
	<g id="XMLID_51_">
		<path class="st0" d="M455.9,265.8c0.4,1.5,6.9,26.9,6.9,26.9c0.3,1.4-0.5,2.7-1.8,3.1l0,0c-1.4,0.3-2.7-0.5-3.1-1.8l-0.8-3
			c0,0-3.6-7.7-13.6-4.5c0,0,11.9-1.5,12.3-1.5C456.3,284.9,455.6,264.3,455.9,265.8z"/>
		<path class="st0" d="M462.1,299.6c-3.5,0.9-7-1.2-7.9-4.7c0,0-0.4-2.1-1.2-3.3c-1.3-1.8-3.9-2.5-8.7-1.3l-1.2-6.8
			c2.5-0.8,4.3-2,6.4-1.9c1.1-0.1,2-0.2,2.8-0.3c0-2.1-0.1-4.8-0.1-6.9c0-2.2,2.9-4.8,2.8-6.4c0-2.9-3-5.8,0.6-6.3l3.5-0.5l7.9,30.4
			C467.6,295.1,465.5,298.7,462.1,299.6z"/>
	</g>
	<g id="XMLID_52_">
		<polyline class="st0" points="468.3,287.5 468.6,378.8 473.1,378.8 478.3,287.5 		"/>
		<g id="XMLID_53_">
			<path class="st0" d="M467.4,258.3c0-14.4,9.6-26.1,21.5-26.1c11.9,0,21.6,11.6,21.6,26c0,14.4-9.6,26.1-21.5,26.1
				C477.2,284.3,467.5,272.6,467.4,258.3z M475.4,258.2c0,10,6.1,18,13.6,18c7.5,0,13.5-8.1,13.5-18.1c0-10-6.1-18-13.6-18
				C481.4,240.1,475.4,248.3,475.4,258.2z"/>
		</g>
		<g id="XMLID_54_">
			<path class="st0" d="M471.4,263.4c0,1.5,0.1,27.8,0.1,27.8c0,1.4,1.1,2.5,2.5,2.5l0,0c1.4,0,2.5-1.1,2.5-2.5l0-3.1
				c0,0,1.6-8.3,12-7.8c0,0-11.9,1.5-12.3,1.7C475.9,282,471.4,261.9,471.4,263.4z"/>
			<path class="st0" d="M474.1,297.7c3.6,0,6.5-2.9,6.5-6.5c0,0-0.1-2.2,0.4-3.5c0.8-2.1,3.2-3.4,8.1-3.4l-0.5-6.9
				c-2.7-0.2-4.7-0.9-6.7-0.2c-1.1,0.1-2,0.3-2.8,0.4c-0.5-2-1.2-4.7-1.7-6.7c-0.5-2.2-4-3.9-4.4-5.4c-0.7-2.8,1.4-6.4-2.2-5.9
				l-3.5,0.4l0.1,31.4C467.5,294.8,470.5,297.7,474.1,297.7z"/>
		</g>
	</g>
</g>
<g id="XMLID_00000021838637607378993290000013274611132398210196_">
	<g id="XMLID_56_">
		<path id="XMLID_70_" class="st0" d="M507,362.6l-11.5-2l17.6-99.1c0.1-0.6,0.7-1.1,1.4-0.9l9.2,1.6c0.6,0.1,1.1,0.7,0.9,1.4
			L507,362.6z"/>
	</g>
	<g id="XMLID_57_">
		<path id="XMLID_69_" class="st0" d="M522.9,273.3l-11.5-2l1.7-9.8c0.1-0.6,0.7-1.1,1.4-0.9l9.2,1.6c0.6,0.1,1.1,0.7,0.9,1.4
			L522.9,273.3z"/>
	</g>
	<g id="XMLID_58_" class="st1">
		<g id="XMLID_59_">
			
				<rect x="515.1" y="268.1" transform="matrix(0.1752 -0.9845 0.9845 0.1752 156.5421 734.7828)" class="st0" width="3.5" height="11.7"/>
		</g>
	</g>
</g>
<g id="XMLID_60_">
	
		<rect id="XMLID_68_" x="516.4" y="276.3" transform="matrix(0.9313 0.3643 -0.3643 0.9313 156.685 -169.0746)" class="st2" width="20.1" height="109"/>
	<g id="XMLID_61_">
		
			<rect x="550.6" y="282.5" transform="matrix(0.3642 -0.9313 0.9313 0.3642 84.3674 695.1673)" class="st2" width="1.4" height="6.6"/>
		
			<rect x="548.6" y="287.7" transform="matrix(0.3644 -0.9313 0.9313 0.3644 78.0917 696.5331)" class="st2" width="1.4" height="6.6"/>
		
			<rect x="546.5" y="293" transform="matrix(0.3644 -0.9312 0.9312 0.3644 71.8503 697.9381)" class="st2" width="1.4" height="6.6"/>
		
			<rect x="542.9" y="296.1" transform="matrix(0.3643 -0.9313 0.9313 0.3643 65.2524 697.6231)" class="st2" width="1.4" height="9.9"/>
		
			<rect x="542.4" y="303.6" transform="matrix(0.3644 -0.9313 0.9313 0.3644 59.4319 700.8242)" class="st2" width="1.4" height="6.6"/>
		
			<rect x="540.3" y="308.8" transform="matrix(0.3644 -0.9312 0.9312 0.3644 53.1911 702.2286)" class="st2" width="1.4" height="6.6"/>
		
			<rect x="538.3" y="314.1" transform="matrix(0.3644 -0.9312 0.9312 0.3644 46.9712 703.6584)" class="st2" width="1.4" height="6.6"/>
		
			<rect x="534.7" y="317.2" transform="matrix(0.3643 -0.9313 0.9313 0.3643 40.387 703.3624)" class="st2" width="1.4" height="9.9"/>
		
			<rect x="534.1" y="324.6" transform="matrix(0.3643 -0.9313 0.9313 0.3643 34.5843 706.5873)" class="st2" width="1.4" height="6.6"/>
		
			<rect x="532.1" y="329.9" transform="matrix(0.3642 -0.9313 0.9313 0.3642 28.3842 708.0452)" class="st2" width="1.4" height="6.6"/>
		
			<rect x="530" y="335.2" transform="matrix(0.3642 -0.9313 0.9313 0.3642 22.1635 709.4758)" class="st2" width="1.4" height="6.6"/>
		
			<rect x="526.4" y="338.2" transform="matrix(0.3643 -0.9313 0.9313 0.3643 15.4932 709.0667)" class="st2" width="1.4" height="9.9"/>
		
			<rect x="525.9" y="345.7" transform="matrix(0.3644 -0.9313 0.9313 0.3644 9.6735 712.2668)" class="st2" width="1.4" height="6.6"/>
		
			<rect x="523.8" y="351" transform="matrix(0.3644 -0.9313 0.9313 0.3644 3.4534 713.6969)" class="st2" width="1.4" height="6.6"/>
		
			<rect x="521.8" y="356.3" transform="matrix(0.3644 -0.9312 0.9312 0.3644 -2.7855 715.0993)" class="st2" width="1.4" height="6.6"/>
		
			<rect x="518.2" y="359.3" transform="matrix(0.3643 -0.9313 0.9313 0.3643 -9.3743 714.8079)" class="st2" width="1.4" height="9.9"/>
		
			<rect x="517.6" y="366.8" transform="matrix(0.3644 -0.9313 0.9313 0.3644 -15.2064 717.988)" class="st2" width="1.4" height="6.6"/>
		
			<rect x="515.6" y="372.1" transform="matrix(0.3644 -0.9312 0.9312 0.3644 -21.4447 719.3897)" class="st2" width="1.4" height="6.6"/>
		
			<rect x="513.5" y="377.4" transform="matrix(0.3642 -0.9313 0.9313 0.3642 -27.599 720.923)" class="st2" width="1.4" height="6.6"/>
	</g>
</g>
<path class="st2" d="M530,477.7l-93.4,0.2l-16.1-141.3c-0.2-1.8,1.2-3.4,3-3.4l118.8-0.3c1.8,0,3.2,1.6,3,3.4L530,477.7z"/>
<path id="XMLID_74_" class="st3" d="M321.2,124.4c-7,0-12.7,5.7-12.7,12.7v16.3h25.4c0,0,0-12.9,0-16.3
	C333.9,130.1,328.2,124.4,321.2,124.4z M321.2,144.4c-3.9,0-7.1-3.2-7.1-7.1c0-3.9,3.2-7.1,7.1-7.1c3.9,0,7.1,3.2,7.1,7.1
	C328.3,141.3,325.1,144.4,321.2,144.4z"/>
<path id="XMLID_82_" class="st3" d="M328.3,137.3c0-3.9-3.2-7.1-7.1-7.1c-0.4,0-0.7,0.1-1.1,0.1c1.1-0.4,1.1-0.7,2.9-0.7
	c3.9,0,7.1,3.2,7.1,7.1c0,3.6-1.8,5.5-4.6,6.2C327.1,141.6,328.3,139.5,328.3,137.3z M312.3,151.8v-16.3c0-4.4,1.9-8.3,5.3-10.6
	c-5.3,1.5-9.2,6.4-9.2,12.2v16.3h25.4c0,0,0-0.6,0-1.6H312.3z"/>
<path class="st4" d="M428.7,492.9h-220c-5.4,0-9.7-4.4-9.7-9.7V164c0-5.4,4.4-9.7,9.7-9.7h220c5.4,0,9.7,4.4,9.7,9.7v319.1
	C438.5,488.6,434.1,492.9,428.7,492.9z"/>
<rect id="XMLID_67_" x="212.9" y="167.6" class="st2" width="211.7" height="312.1"/>
<rect x="221" y="177.1" class="st5" width="195.5" height="293"/>
<path id="XMLID_198_" class="st3" d="M395.8,159.9v12.7H241.7v-12.7c0-0.9,0.1-1.8,0.4-2.7c1.1-3.6,4.5-6.3,8.5-6.3h136.2
	C391.8,151,395.8,155,395.8,159.9z"/>
<path id="XMLID_195_" class="st3" d="M395.8,169.4v3.2H241.7v-9.2c0-2.5,0.1-4.5,0.4-6.2c1.1-3.6,4.5-6.3,8.5-6.3h1.1
	c-2.4,2.3-4.1,5.7-4.1,9.3v9.2H395.8z"/>
<g>
	<g id="XMLID_87_">
		<g id="XMLID_88_" class="st6">
			<path class="st2" d="M307,209.8h-31.7c-0.9,0-1.6-0.7-1.6-1.6s0.7-1.6,1.6-1.6H307c0.9,0,1.6,0.7,1.6,1.6S307.8,209.8,307,209.8z
				"/>
			<path class="st2" d="M402.4,219.9h-24.1c-0.9,0-1.6-0.7-1.6-1.6s0.7-1.6,1.6-1.6h24.1c0.9,0,1.6,0.7,1.6,1.6
				S403.2,219.9,402.4,219.9z"/>
			<path class="st2" d="M367.8,219.9h-92.5c-0.9,0-1.6-0.7-1.6-1.6s0.7-1.6,1.6-1.6h92.5c0.9,0,1.6,0.7,1.6,1.6
				S368.6,219.9,367.8,219.9z"/>
			<path class="st2" d="M402.4,230.1H275.2c-0.9,0-1.6-0.7-1.6-1.6s0.7-1.6,1.6-1.6h127.1c0.9,0,1.6,0.7,1.6,1.6
				S403.2,230.1,402.4,230.1z"/>
			<path class="st2" d="M402.4,240.2h-40.4c-0.9,0-1.6-0.7-1.6-1.6s0.7-1.6,1.6-1.6h40.4c0.9,0,1.6,0.7,1.6,1.6
				S403.2,240.2,402.4,240.2z"/>
			<path class="st2" d="M351.9,240.2h-76.7c-0.9,0-1.6-0.7-1.6-1.6s0.7-1.6,1.6-1.6h76.7c0.9,0,1.6,0.7,1.6,1.6
				S352.7,240.2,351.9,240.2z"/>
			<path class="st2" d="M402.4,209.8h-85c-0.9,0-1.6-0.7-1.6-1.6s0.7-1.6,1.6-1.6h85c0.9,0,1.6,0.7,1.6,1.6S403.2,209.8,402.4,209.8
				z"/>
		</g>
	</g>
	<g id="XMLID_96_">
		<g id="XMLID_97_" class="st6">
			<path class="st2" d="M307,282.6h-31.7c-0.9,0-1.6-0.7-1.6-1.6s0.7-1.6,1.6-1.6H307c0.9,0,1.6,0.7,1.6,1.6S307.8,282.6,307,282.6z
				"/>
			<path class="st2" d="M402.4,292.7h-24.1c-0.9,0-1.6-0.7-1.6-1.6s0.7-1.6,1.6-1.6h24.1c0.9,0,1.6,0.7,1.6,1.6
				S403.2,292.7,402.4,292.7z"/>
			<path class="st2" d="M367.8,292.7h-92.5c-0.9,0-1.6-0.7-1.6-1.6s0.7-1.6,1.6-1.6h92.5c0.9,0,1.6,0.7,1.6,1.6
				S368.6,292.7,367.8,292.7z"/>
			<path class="st2" d="M402.4,302.8H275.2c-0.9,0-1.6-0.7-1.6-1.6s0.7-1.6,1.6-1.6h127.1c0.9,0,1.6,0.7,1.6,1.6
				S403.2,302.8,402.4,302.8z"/>
			<path class="st2" d="M402.4,312.9h-40.4c-0.9,0-1.6-0.7-1.6-1.6s0.7-1.6,1.6-1.6h40.4c0.9,0,1.6,0.7,1.6,1.6
				S403.2,312.9,402.4,312.9z"/>
			<path class="st2" d="M351.9,312.9h-76.7c-0.9,0-1.6-0.7-1.6-1.6s0.7-1.6,1.6-1.6h76.7c0.9,0,1.6,0.7,1.6,1.6
				S352.7,312.9,351.9,312.9z"/>
			<path class="st2" d="M402.4,282.6h-85c-0.9,0-1.6-0.7-1.6-1.6s0.7-1.6,1.6-1.6h85c0.9,0,1.6,0.7,1.6,1.6S403.2,282.6,402.4,282.6
				z"/>
		</g>
	</g>
	<g id="XMLID_105_">
		<g id="XMLID_106_" class="st6">
			<path class="st2" d="M307,352.5h-31.7c-0.9,0-1.6-0.6-1.6-1.4s0.7-1.4,1.6-1.4H307c0.9,0,1.6,0.6,1.6,1.4S307.8,352.5,307,352.5z
				"/>
			<path class="st2" d="M402.4,361.5h-24.1c-0.9,0-1.6-0.6-1.6-1.4s0.7-1.4,1.6-1.4h24.1c0.9,0,1.6,0.6,1.6,1.4
				S403.2,361.5,402.4,361.5z"/>
			<path class="st2" d="M367.8,361.5h-92.5c-0.9,0-1.6-0.6-1.6-1.4s0.7-1.4,1.6-1.4h92.5c0.9,0,1.6,0.6,1.6,1.4
				S368.6,361.5,367.8,361.5z"/>
			<path class="st2" d="M402.4,370.5H275.2c-0.9,0-1.6-0.6-1.6-1.4s0.7-1.4,1.6-1.4h127.1c0.9,0,1.6,0.6,1.6,1.4
				S403.2,370.5,402.4,370.5z"/>
			<path class="st2" d="M402.4,379.5h-40.4c-0.9,0-1.6-0.6-1.6-1.4c0-0.8,0.7-1.4,1.6-1.4h40.4c0.9,0,1.6,0.6,1.6,1.4
				C403.9,378.9,403.2,379.5,402.4,379.5z"/>
			<path class="st2" d="M351.9,379.5h-76.7c-0.9,0-1.6-0.6-1.6-1.4c0-0.8,0.7-1.4,1.6-1.4h76.7c0.9,0,1.6,0.6,1.6,1.4
				C353.4,378.9,352.7,379.5,351.9,379.5z"/>
			<path class="st2" d="M402.4,352.5h-85c-0.9,0-1.6-0.6-1.6-1.4s0.7-1.4,1.6-1.4h85c0.9,0,1.6,0.6,1.6,1.4S403.2,352.5,402.4,352.5
				z"/>
		</g>
	</g>
	<g id="XMLID_114_">
		<g id="XMLID_115_" class="st6">
			<path class="st2" d="M286.2,424.3h-11.9c-0.3,0-0.6-0.7-0.6-1.6s0.3-1.6,0.6-1.6h11.9c0.3,0,0.6,0.7,0.6,1.6
				S286.5,424.3,286.2,424.3z"/>
			<path class="st2" d="M322.1,434.4H313c-0.3,0-0.6-0.7-0.6-1.6s0.3-1.6,0.6-1.6h9.1c0.3,0,0.6,0.7,0.6,1.6
				S322.4,434.4,322.1,434.4z"/>
			<path class="st2" d="M309.1,434.4h-34.8c-0.3,0-0.6-0.7-0.6-1.6s0.3-1.6,0.6-1.6h34.8c0.3,0,0.6,0.7,0.6,1.6
				S309.4,434.4,309.1,434.4z"/>
			<path class="st2" d="M322.1,444.5h-47.8c-0.3,0-0.6-0.7-0.6-1.6s0.3-1.6,0.6-1.6h47.8c0.3,0,0.6,0.7,0.6,1.6
				S322.4,444.5,322.1,444.5z"/>
			<path class="st2" d="M322.1,454.7h-15.2c-0.3,0-0.6-0.7-0.6-1.6s0.3-1.6,0.6-1.6h15.2c0.3,0,0.6,0.7,0.6,1.6
				S322.4,454.7,322.1,454.7z"/>
			<path class="st2" d="M303.1,454.7h-28.8c-0.3,0-0.6-0.7-0.6-1.6s0.3-1.6,0.6-1.6h28.8c0.3,0,0.6,0.7,0.6,1.6
				S303.4,454.7,303.1,454.7z"/>
			<path class="st2" d="M322.1,424.3h-32c-0.3,0-0.6-0.7-0.6-1.6s0.3-1.6,0.6-1.6h32c0.3,0,0.6,0.7,0.6,1.6S322.4,424.3,322.1,424.3
				z"/>
		</g>
	</g>
	<g id="XMLID_123_">
		<path class="st2" d="M262.4,234.9h-24.9c-1.5,0-2.7-1.2-2.7-2.7v-24.9c0-1.5,1.2-2.7,2.7-2.7h24.9c1.5,0,2.7,1.2,2.7,2.7v24.9
			C265.1,233.7,263.9,234.9,262.4,234.9z M237.5,205.8c-0.8,0-1.5,0.7-1.5,1.5v24.9c0,0.8,0.7,1.5,1.5,1.5h24.9
			c0.8,0,1.5-0.7,1.5-1.5v-24.9c0-0.8-0.7-1.5-1.5-1.5H237.5z"/>
		<path class="st2" d="M262.4,307.4h-24.9c-1.5,0-2.7-1.2-2.7-2.7v-24.9c0-1.5,1.2-2.7,2.7-2.7h24.9c1.5,0,2.7,1.2,2.7,2.7v24.9
			C265.1,306.2,263.9,307.4,262.4,307.4z M237.5,278.3c-0.8,0-1.5,0.7-1.5,1.5v24.9c0,0.8,0.7,1.5,1.5,1.5h24.9
			c0.8,0,1.5-0.7,1.5-1.5v-24.9c0-0.8-0.7-1.5-1.5-1.5H237.5z"/>
		<path class="st2" d="M262.4,379.9h-24.9c-1.5,0-2.7-1.2-2.7-2.7v-24.9c0-1.5,1.2-2.7,2.7-2.7h24.9c1.5,0,2.7,1.2,2.7,2.7v24.9
			C265.1,378.7,263.9,379.9,262.4,379.9z M237.5,350.8c-0.8,0-1.5,0.7-1.5,1.5v24.9c0,0.8,0.7,1.5,1.5,1.5h24.9
			c0.8,0,1.5-0.7,1.5-1.5v-24.9c0-0.8-0.7-1.5-1.5-1.5H237.5z"/>
		<path class="st2" d="M262.4,452.5h-24.9c-1.5,0-2.7-1.2-2.7-2.7v-24.9c0-1.5,1.2-2.7,2.7-2.7h24.9c1.5,0,2.7,1.2,2.7,2.7v24.9
			C265.1,451.3,263.9,452.5,262.4,452.5z M237.5,423.4c-0.8,0-1.5,0.7-1.5,1.5v24.9c0,0.8,0.7,1.5,1.5,1.5h24.9
			c0.8,0,1.5-0.7,1.5-1.5v-24.9c0-0.8-0.7-1.5-1.5-1.5H237.5z"/>
		<path class="st2" d="M249.9,229.6c-0.5,0-1-0.2-1.3-0.6l-11-13.2c-0.6-0.7-0.5-1.8,0.2-2.4c0.7-0.6,1.8-0.5,2.4,0.2l9.4,11.4
			l19.8-31.3c0.5-0.8,1.6-1.1,2.4-0.5c0.8,0.5,1,1.6,0.5,2.4l-21.1,33.3c-0.3,0.5-0.8,0.8-1.4,0.8C250,229.6,250,229.6,249.9,229.6z
			"/>
		<path class="st2" d="M249.9,301.5c-0.5,0-1-0.2-1.3-0.6l-11-13.2c-0.6-0.7-0.5-1.8,0.2-2.4c0.7-0.6,1.8-0.5,2.4,0.2l9.4,11.4
			l19.8-31.3c0.5-0.8,1.6-1.1,2.4-0.5c0.8,0.5,1,1.6,0.5,2.4l-21.1,33.3c-0.3,0.5-0.8,0.8-1.4,0.8C250,301.5,250,301.5,249.9,301.5z
			"/>
	</g>
</g>
<g id="XMLID_77_">
	<path id="XMLID_293_" class="st7" d="M158.1,307.7c0,0,0.5,3.6,0.9,3.9c0,0-0.3,0.6-1.4,0.7"/>
	<g id="XMLID_86_">
		<path id="XMLID_135_" class="st2" d="M168.8,324.6l-6.7,29.5c-0.2,0.8,0.4,1.6,1.2,1.7l20.9,3c0.7,0.1,1.4-0.4,1.6-1.1l6.7-29.5
			c0.2-0.8-0.4-1.6-1.2-1.7l-20.9-3C169.7,323.4,169,323.9,168.8,324.6z"/>
		<polygon id="XMLID_136_" class="st5" points="170.1,325.6 163.7,353.8 184.4,356.8 190.9,328.6 		"/>
		<g id="XMLID_137_">
			<path class="st4" d="M188.7,330.9C188.6,330.9,188.6,330.9,188.7,330.9l-17.7-2.5c-0.2,0-0.3-0.2-0.2-0.3c0-0.2,0.2-0.3,0.3-0.2
				l17.6,2.5c0.2,0,0.3,0.2,0.2,0.3C188.9,330.8,188.8,330.9,188.7,330.9z"/>
			<path class="st4" d="M188.1,333.6C188,333.6,188,333.6,188.1,333.6l-17.7-2.5c-0.2,0-0.3-0.2-0.2-0.3c0-0.2,0.2-0.3,0.3-0.2
				l17.6,2.5c0.2,0,0.3,0.2,0.2,0.3C188.3,333.5,188.2,333.6,188.1,333.6z"/>
			<path class="st4" d="M180.7,335.8C180.7,335.8,180.7,335.8,180.7,335.8l-11.1-1.6c-0.2,0-0.3-0.2-0.2-0.3c0-0.2,0.2-0.3,0.3-0.2
				l11,1.6c0.2,0,0.3,0.2,0.2,0.3C181,335.7,180.9,335.8,180.7,335.8z"/>
			<path class="st4" d="M179.9,338.1C179.9,338.1,179.9,338.1,179.9,338.1l-11.1-1.6c-0.2,0-0.3-0.2-0.2-0.3c0-0.2,0.2-0.3,0.3-0.2
				l11,1.6c0.2,0,0.3,0.2,0.2,0.3C180.2,338,180.1,338.1,179.9,338.1z"/>
			<path class="st4" d="M179.2,340.4C179.1,340.4,179.1,340.4,179.2,340.4l-11.1-1.6c-0.2,0-0.3-0.2-0.2-0.3c0-0.2,0.2-0.3,0.3-0.2
				l11,1.6c0.2,0,0.3,0.2,0.2,0.3C179.4,340.3,179.3,340.4,179.2,340.4z"/>
			<path class="st4" d="M183.2,353.1C183.2,353.1,183.2,353.1,183.2,353.1l-11.1-1.6c-0.2,0-0.3-0.2-0.2-0.3c0-0.2,0.2-0.3,0.3-0.2
				l11,1.6c0.2,0,0.3,0.2,0.2,0.3C183.5,353,183.3,353.1,183.2,353.1z"/>
		</g>
	</g>
	<g id="XMLID_00000163793865971687000130000009805897112408408453_">
		<path class="st8" d="M160.8,354.5c1.2-0.6,2.1-1.6,2.9-2.6c0.8-1,1.7-2,2.5-3c0.3-0.4,0.7-0.8,0.7-1.3c-1.4-0.1-2.3,1.7-3.7,1.8
			c0.6-2.3,1.6-4.5,2.8-6.6c0.3-0.5,0.6-1.1,0.4-1.6c-1.5,0.6-2.8,1.6-3.9,2.8c-0.8,0.8-1.5,1.7-2.1,2.7c-1.8,2.8-3,6-3.7,9.2"/>
	</g>
	<g id="XMLID_144_">
		<path id="XMLID_271_" class="st9" d="M154.8,378.2l-14.9-12.6c0,0-6.9,9.4-4.3,18.5c1.3,4.5,2.9,6.7,3.6,8.8c0.7,2,5.1,30,4.8,32
			c-0.3,2-2.7,7.8-3.7,13.8c-1.1,7.2-0.9,30.9-1.8,37.1c-0.9,6.3,4.9,7.3,5.2,5.2c2.7-18.1,9.9-46.3,10.9-55.4
			C155.7,416.7,155.3,400.1,154.8,378.2z"/>
		<g id="XMLID_268_">
			<path class="st8" d="M154.8,396l-6.5,14.9c2.7,4.6,4.3,10.1,4.5,15.6c0.1,2.9-0.1,5.7-0.1,8.6c0,0.2,0,0.4,0.1,0.6
				c0.9-4.3,1.5-7.8,1.8-10c0.7-6.4,0.7-16.6,0.5-29.7C155,396,154.9,396,154.8,396z"/>
		</g>
		<path id="XMLID_266_" class="st9" d="M144.8,475.3c0,0-1.4,6.6-1,7.4c0.4,0.8,1.7,3.3,3.1,4.2c1.4,0.9,4.6,2,4.9,2.4
			c0.3,0.4,0.3,1-0.2,1.3c-1.2,0.9-3.2,1.4-4.6,1.2c-4.3-0.7-4.8-2.6-7.3-2.9c-0.4-0.1-1.2,0.6-2.4,0c-1.2-0.6-1.8-1.7-1.7-2.8
			c0.2-1.8,1.2-3.3,1.9-4.6c0.7-1.3,1.2-7.5,1.2-7.5"/>
		<path id="XMLID_263_" class="st10" d="M151.9,490.9c0.3-0.5,0.4-1.4,0.1-1.6c-0.4-0.3-1.9-1.2-2.7-1.6c-0.8-0.4-2.2-0.7-1.7-0.5
			c0.5,0.3-0.4,1.2-1.2,1.2c-2.7-0.2-4.7-2-6.3-2.4c-2.2-0.6-3.2-3.2-3.3-3.6c-0.4,0.3-1.4,2.4-1.6,3.1c-0.2,0.6-0.5,1.7-0.3,2.3
			c0.1,0.4,0.4,1.3,0.2,2.2c0,0,0.4,0.3,1.6,0.6c0.7,0.2,1.7,0,1.7,0l0.2-1.4c0,0,0.6,0,1.4,0.1c0.8,0.2,2,0.9,2.1,1
			c0.3,0.4,0.6,1,1,1.3c1.1,0.5,2.2,0.8,3.6,0.9C149.7,492.7,151.4,491.8,151.9,490.9z"/>
	</g>
	<g id="XMLID_146_">
		<path id="XMLID_148_" class="st9" d="M175.1,490.6c-0.3-0.4-3.8-0.9-5.4-1.6c-1.5-0.6-3.4-2.7-3.8-3.6c-0.4-0.9-0.3-5.3-0.2-7.2
			c0.3-12.9,2.7-44.4,3.1-52c0.6-13.1-1.1-26.7-6.1-47.7l-18.8-14.4c0,0-5.3,9.8-3.5,19.1c1,5.4,5.5,6.3,6.3,8.4
			c0.8,2.1,12.1,36.1,12.1,36.1s-2.2,7.4-2.3,15.4c-0.1,6.9,3,27.6,3.6,35.5c0.1,1.5,0.3,5.2-0.1,6.4c-0.6,1.4-2,3.1-1.9,5
			c0,1.1,0.8,2.1,2.1,2.5c1.3,0.4,2.1-0.4,2.5-0.4c2.6-0.1,3.4,1.7,8,1.7c1.4,0,3.5-0.8,4.5-1.9C175.6,491.6,175.5,491,175.1,490.6z
			"/>
		<path id="XMLID_149_" class="st10" d="M175.5,492.3c0.2-0.6,0.2-1.4-0.1-1.6c-0.5-0.2-2.1-0.9-3-1.2c-0.9-0.2-2.3-0.4-1.8-0.2
			c0.5,0.2-0.2,1.3-1.1,1.3c-2.8,0.3-5.1-1.2-6.8-1.3c-2.4-0.2-3.3-2.6-3.4-3c-0.4,0.3-1.6,2.6-1.7,3.3c-0.1,0.6-0.3,1.8,0,2.4
			c0.2,0.4,0.6,1.2,0.6,2.2c0,0,0.5,0.3,1.7,0.3c0.8,0,1.8-0.3,1.8-0.3v-1.4c0,0,0.6-0.1,1.4-0.1c0.8,0,1.8,0.5,2.3,0.8
			c0.4,0.3,0.8,0.8,1.3,0.9c1.3,0.3,2.3,0.4,3.7,0.3C173.5,494.4,175.1,493.3,175.5,492.3z"/>
	</g>
	<path id="XMLID_150_" class="st2" d="M140.3,364c-1.3,1.4-5.8,9-5.9,15.1c0,6.2,1.9,10.2,2.3,11.4c1.2,3.4,3.3,6.4,3.3,7
		c0,0.6,3.4,1,10.6,0.6c13.3-0.8,18.2-3.3,18.2-3.3s0.4-5.5-0.9-17.5c-0.6-5.7-5.5-14.7-5.5-14.7"/>
	<path id="XMLID_248_" class="st9" d="M128.2,339.4c0,0,2.1,10.6,2.7,12.5c0.6,1.9,3.3,13.9,6,13.7c2.6-0.2,17-12.2,17-12.2l-2-4.1
		l-12.7,6c0,0-1.1-13.7-2.2-17"/>
	<g id="XMLID_244_">
		<path class="st8" d="M133.1,345.9c1.3,4.7,4.1,9.7,4.9,13.4c0.2,0.7,8.9-2.5,9-5.8"/>
	</g>
	<path id="XMLID_153_" class="st4" d="M136.7,324.7c0,0-4.2,0.4-6.3,2.1c-5.4,4.2-1.2,19.3-1.2,19.3s-0.3,0.8,3.4,0.6
		c3.7-0.2,6.6-1.2,6.6-1.2l-1.1-12.4"/>
	<path id="XMLID_154_" class="st4" d="M131.9,333.2c0,0-0.5,8.9,1.1,13.4c1.6,0,3-0.4,3-0.4L131.9,333.2z"/>
	<g id="XMLID_216_">
		<path class="st9" d="M156.8,296.8c2.5,3.3,2,7.9,1.4,12c-0.3,2.1-0.6,4.1-0.9,6.2c-0.2,1-0.4,2.1-1.1,2.7
			c-0.8,0.6-1.9,0.6-2.9,0.6c0,1.7,0,3.4,0,5.1c-2.9,0.1-5.9,0.1-8.8,0c0-1.2-0.3-2.4-0.8-3.5c-1.4,0-2.4-1.5-3-2.8
			c-0.6-1.5-1.1-3.1-1.6-4.7c-0.6-2.1-1.2-4.3-1.2-6.5c-0.1-2.2,0.5-4.5,1.9-6.2c1-1.2,2.2-2,3.6-2.7c1.8-1,4-1.7,5.9-0.9"/>
	</g>
	<g id="XMLID_158_">
		<path class="st11" d="M153.8,312.5c-0.3-1.7-0.3-2.7,0.2-3.8c0.2-0.4,0.4-0.7,0.8-1c0.5-0.3,1.1-0.4,1.6-0.2
			c0.3,0.1,0.6,0.4,0.8,0.7c0.6-2.3,0.7-4.8,0.6-7.2c-0.3-3.8-2.6-6.8-5.9-8.1c-6.2-2.6-15.2,0-17.7,6.1c-1.9,4.6-0.9,11.3,2.7,15.1
			c3.2,3.4,7.9,3.9,12.2,3.2c2.2-0.4,5.6-0.1,6.7-3.1c0.1-0.2-0.1-0.5-0.3-0.4C154.5,313.8,153.9,312.8,153.8,312.5z"/>
	</g>
	<g id="XMLID_208_">
		<path class="st11" d="M154.3,304.3c0.2,0.4,0.2,0.8,0.4,1.2c0.4,0.6,0.8,0.8,1.5,1.2c1.1,0.5,0.8,2,0.8,2.7c0.8-0.5,0.9-2,1.1-2.7
			c0.2-0.8,0.4-1.7,0.6-2.5c0.2-0.8,0.6-1.5,0.7-2.4c0.3-2.9-1.6-6.3-3.7-7.9c-1.6-1.2-4-1.1-5.8,0.1c-0.8,0.5-1.3,1.3-1.7,2.1
			c-0.1,0.4-0.2,0.8-0.1,1.1"/>
	</g>
	<g id="XMLID_205_">
		<path class="st4" d="M140.1,324.7c0.1-1,0.4-2.2,1.4-2.6c0.3-0.1,0.5-0.1,0.8-0.2c2.9-0.3,5.7-0.5,8.6-0.4c1.2,0,2.4,0.1,3.5,0.6
			c1.7,0.8,2.6,2.6,3.4,4.3"/>
	</g>
	<g id="XMLID_164_">
		<path class="st4" d="M164.4,361.6c-0.4-0.6-1.3-1.3-1.7-2c-0.8-1.6-1.5-8.2-1.2-9.8c0.3-1.8,1.9-2.8,2.6-6.8
			c0.9-5.2-1.2-9.2-2.4-10.9c-1.7-2.4-0.7-2.4-1.3-5.4c-0.1-0.5-0.2-1.1-0.6-1.5c-0.4-0.4-2.9-1.5-3.4-1.6c-4.7-0.7-7.4-0.2-12.1,0
			c-2.3,0.1-4.7,0.4-6.9,0.9c-2.5,0.6-4.7,1.2-5.3,4.7c-0.8,5.3-0.1,10.7,1.5,15.7c1.1,3.3,7.5,14.9,5.9,17.1
			c-0.4,0.5-1.3,1.5-1.4,2.1c-0.4,2.3,4.9,3.2,7.1,3.3c3.4,0.3,7.4,0.1,10.8-0.1c2.6-0.1,8.3-1,8.7-4.3
			C165,362.5,164.7,362,164.4,361.6z"/>
	</g>
	<path id="XMLID_165_" class="st4" d="M163.4,344c0,0.9-0.5,2.2-0.7,2.7c-0.7,0.3-3.3,0.9-4.7,0.2c-0.3-3.1-2.1-9.1-2.1-9.1
		S163.4,343.1,163.4,344z"/>
	<g id="XMLID_166_">
		<path id="XMLID_167_" class="st9" d="M160.1,341.8c0,0,8.6,20.8,12.3,20.8c2.7,0,9.4-19.2,9.4-19.2l-4.2-2l-4.7,8l-4.8-15"/>
		<path id="XMLID_168_" class="st9" d="M176.8,342.8c0,0,1.4-2.2,1.3-3.8c0-0.6-0.4-3.4-0.1-4c0.3-0.6,1-2.4,1.4-2.7
			c0.4-0.4,1.9-0.9,2.3-0.7c0.4,0.3,0.8-0.9,1.4-0.8c0.6,0.1,1.1,0.6,1.1,1.2c0,0.6,0.8,0.7,0.9,1.1c0.1,0.4,0.1,0.8,0.2,1.1
			c0.2,0.3,0.6,0.2,0.8,0.9c0.1,0.7-0.1,0.8,0,1.1c0.1,0.4,0.4,0.3,0.3,1c-0.1,0.7-0.6,1.5-1,2.3c-0.4,0.8-1.2,1.7-2.3,2.4
			c-0.5,0.3-0.8,0.9-1.4,1.9"/>
		<path id="XMLID_169_" class="st12" d="M179.1,326.8c-0.1-0.2-0.4-0.4-0.7-0.2c-0.3,0.2-0.2,0.7-0.2,0.8c0.1,0.2,2.5,5.8,2.5,5.8
			s0.2,0.2,0.6-0.1c0.4-0.4,0.3-0.6,0.3-0.6S179.2,326.9,179.1,326.8z"/>
		<g id="XMLID_170_">
			<path id="XMLID_171_" class="st8" d="M181.7,332.1c-0.5,0.9-1,1.1-1.6,1.6c-0.4,0.4-0.3,0.6-0.8,1c0.8-0.1,0.6-0.5,1.6-1.2
				c0.5-0.3,0.9-0.7,1-1.3C182.1,332.1,181.9,332,181.7,332.1L181.7,332.1z"/>
		</g>
	</g>
	<g id="XMLID_192_">
		<path class="st4" d="M152.2,323.3c2.2,0.1,8.8-1,12.4,2.8c3,3.2,4.8,11.5,6,14.9c-3,3.1-6,5.6-10.6,4.6c-0.2-0.1-2.5-7.3-4.1-8"/>
	</g>
	<path id="XMLID_174_" class="st2" d="M168.8,389.3c0,0,1.5,35.6,1.2,38.2c-0.3,2.6-3.2,51.7-3.2,51.7s-5.9,1-9.5,0
		c0,0-4.6-38.3,0-50.2l-2-11.4c0,0,0.3,8.5,0,10.2c-0.3,1.7-9.5,50.2-9.5,50.2s-6.1-0.2-8.8-2.6c0,0-0.9-33.6,5.4-47.8l-5.8-37
		l3.3-9.4L168.8,389.3z"/>
	<g id="XMLID_79_">
		<path class="st4" d="M155.4,417.6c-0.8-5.5-6.1-24.9-6.3-25.3c-2.9-2.2-5.5-4.2-6.4-6c1.6,4.7,4.6,4.9,5.7,7.3
			c2.8,6,0.7,4.7,7.1,24.7"/>
	</g>
	<path id="XMLID_177_" class="st11" d="M129.9,323c-0.1,1.9,0.3,3.8,0.3,5.7c0,1.9-0.4,3.9-1.8,5.2c-1.4,1.3-4,1.3-5-0.3
		c1,2.1,3.2,3.5,5.4,3.9c2.3,0.4,4.7-0.1,6.8-1c5.6-2.6,9.3-8.4,9.2-14.6c-0.1-5.1-4-10-9.4-7.3C132.2,316.2,130.1,319.5,129.9,323z
		"/>
</g>
<g>
	<path id="Path_400_00000085241644655646426880000001126165624869083286_" class="st5" d="M368.6,385.2c21.6,0,39.1,17.5,39.1,39.1
		c0,21.6-17.5,39.1-39.1,39.1c-21.6,0-39.1-17.5-39.1-39.1C329.5,402.7,347,385.2,368.6,385.2L368.6,385.2"/>
	<g>
		<path id="Path_401_00000007393659491197842460000008668591708884988058_" class="st2" d="M340,424.3c0-3,0.5-5.9,1.4-8.7l-4.8-1.6
			c-4.4,13.8,0.5,29,12.3,37.5l2.9-4.1C344.4,442.1,340,433.5,340,424.3"/>
		<path id="Path_402_00000161605508218684250100000015107403943862617482_" class="st2" d="M345.1,424.3c0-2.4,0.4-4.8,1.1-7.1
			l-4.8-1.6c-3.7,11.7,0.4,24.6,10.4,31.8l2.9-4.1C348.6,438.9,345.1,431.8,345.1,424.3"/>
		<path id="Path_404_00000175290703376546189450000015349176672578731137_" class="st2" d="M350.1,424.3c0-1.9,0.3-3.8,0.8-5.5
			l-4.8-1.6c-3.1,9.7,0.4,20.2,8.6,26.2l2.9-4.1C352.9,435.8,350.1,430.2,350.1,424.3"/>
		<path id="Path_406_00000115492669134165087910000008931773370531471278_" class="st2" d="M350.9,418.7c-2.4,7.6,0.3,15.8,6.7,20.5
			l10.6-14.8L350.9,418.7z"/>
		<path id="Path_408_00000106132918285101968580000008523526749312877193_" class="st2" d="M368.7,452.9c-6,0-11.8-1.9-16.7-5.4
			l-3,4c11.8,8.5,27.6,8.5,39.4,0l-3-4C380.5,451,374.7,452.9,368.7,452.9"/>
		<path id="Path_409_00000066493978588112573970000016912833855640494513_" class="st2" d="M368.7,447.9c-4.9,0-9.7-1.5-13.7-4.4
			l-3,4c10,7.2,23.5,7.2,33.4,0l-3-4C378.4,446.4,373.6,447.9,368.7,447.9"/>
		<path id="Path_411_00000145779904060624303690000017334730542406973572_" class="st2" d="M368.7,442.9c-3.8,0-7.6-1.2-10.7-3.4
			l-3,4c8.2,5.9,19.3,5.8,27.5,0l-3-4C376.3,441.7,372.5,442.9,368.7,442.9"/>
		<path id="Path_413_00000030452974005259620740000006231235948499412117_" class="st2" d="M357.9,439.4c6.4,4.6,15.1,4.6,21.5,0
			l-10.7-14.6L357.9,439.4z"/>
		<path id="Path_415_00000137850771687787508090000015745580453290528128_" class="st2" d="M402.3,424.3c0-3.5-0.5-7-1.6-10.3
			l-4.8,1.6c3.7,11.7-0.5,24.5-10.4,31.8l2.9,4.1C397.2,445.2,402.3,435.1,402.3,424.3"/>
		<path id="Path_416_00000123411682871872839950000011325611591747498374_" class="st2" d="M392.2,424.3c0,7.5-3.6,14.6-9.6,19
			l2.9,4.1c9.9-7.3,14.1-20.1,10.4-31.8l-4.8,1.6C391.9,419.5,392.3,421.9,392.2,424.3"/>
		<path id="Path_418_00000047775042132134401220000016790829152769492409_" class="st2" d="M387.2,424.3c0,5.9-2.8,11.4-7.5,14.9
			l2.9,4.1c8.1-6,11.6-16.5,8.5-26.1l-4.8,1.6C386.9,420.6,387.2,422.4,387.2,424.3"/>
		<path id="Path_420_00000016784793618098319200000011458144716677547952_" class="st2" d="M379.7,439.2c4.7-3.5,7.5-9,7.5-14.9
			c0-1.9-0.3-3.7-0.8-5.5l-17.3,5.7L379.7,439.2z"/>
		<path id="Path_422_00000075138597021102789980000017173516036203245455_" class="st2" d="M395.9,415.4l4.8-1.5
			c-4.5-13.8-17.4-23.2-31.9-23.2l0,5C381.1,395.7,392,403.7,395.9,415.4"/>
		<path id="Path_423_00000070831854662356427070000001493090946225060752_" class="st2" d="M391.1,416.9l4.8-1.5
			c-3.8-11.7-14.7-19.7-27.1-19.7l0,5C379,400.8,387.9,407.3,391.1,416.9"/>
		<path id="Path_425_00000034062411913028737460000008530814654664371344_" class="st2" d="M368.8,400.7l0,5
			c7.9,0.1,14.9,5.2,17.4,12.7l4.8-1.5C387.9,407.3,379,400.8,368.8,400.7"/>
		<path id="Path_427_00000039132850805169414790000001841105178561488803_" class="st2" d="M386.3,418.5
			c-2.5-7.5-9.5-12.7-17.4-12.7L369,424L386.3,418.5z"/>
		<path id="Path_429_00000140706634831771940360000018006709721505360316_" class="st2" d="M368.6,395.7l0-5
			c-14.6,0-27.5,9.4-32,23.2l4.8,1.5C345.3,403.6,356.2,395.7,368.6,395.7"/>
		<path id="Path_430_00000119098762559835384830000010646224026924553891_" class="st2" d="M368.6,400.7l0-5
			c-12.4,0-23.3,8-27.2,19.7l4.8,1.5C349.4,407.3,358.4,400.7,368.6,400.7"/>
		<path id="Path_432_00000059278217197841908420000004117856487353996695_" class="st2" d="M368.5,405.7l0-5
			c-10.2,0-19.1,6.6-22.3,16.2l4.8,1.5C353.5,410.9,360.6,405.8,368.5,405.7"/>
		<path id="Path_434_00000114044122141249572080000006817238585400715947_" class="st2" d="M368.5,405.7c-8,0.1-15,5.2-17.5,12.7
			l17.4,5.5L368.5,405.7z"/>
	</g>
	<path id="Path_403_00000026877418329076523790000007482732621934881945_" class="st5" d="M351.8,447.5L351.8,447.5
		c-7.5-5.5-11.9-14.1-11.9-23.2c0-3,0.5-5.9,1.4-8.7l0-0.1l4.9,1.6l0,0.1c-3.1,9.6,0.4,20.1,8.6,26.1l0.1,0L351.8,447.5z
		 M341.4,415.7c-3.7,11.7,0.5,24.4,10.3,31.6l2.8-4c-6.1-4.5-9.6-11.5-9.6-19.1c0-2.4,0.4-4.8,1.1-7.1L341.4,415.7z"/>
	<path id="Path_405_00000122722540186544350420000014521540758516026776_" class="st5" d="M354.8,443.5L354.8,443.5
		c-8.3-6.1-11.7-16.6-8.7-26.3l0-0.1l4.9,1.6l0,0.1c-2.3,7.5,0.3,15.7,6.7,20.4l0.1,0L354.8,443.5z M346.2,417.3
		c-1.8,5.9-1.3,12.3,1.6,17.8c1.7,3.2,4,6,6.9,8.1l2.8-4c-6.3-4.7-9-12.9-6.7-20.5L346.2,417.3z"/>
	<path id="Path_407_00000081609649812005725160000001848023749962561713_" class="st5" d="M357.7,439.4L357.7,439.4
		c-4.8-3.6-7.7-9.1-7.7-15.1c0-1.9,0.3-3.8,0.8-5.6l0-0.1l17.5,5.8L357.7,439.4z M351,418.9c-2.3,7.5,0.4,15.6,6.7,20.3l10.5-14.6
		L351,418.9z"/>
	<path id="Path_410_00000142160177367037170780000012108160216833878953_" class="st5" d="M368.7,453c-6,0-11.9-1.9-16.7-5.4l-0.1,0
		l3.1-4.2l0.1,0c8.2,5.8,19.2,5.8,27.4,0l0.1,0l3.1,4.2l-0.1,0C380.6,451.1,374.7,453,368.7,453 M352.1,447.5
		c9.9,7.1,23.3,7.1,33.2,0l-2.9-3.9c-8.2,5.8-19.2,5.9-27.4,0L352.1,447.5z"/>
	<path id="Path_412_00000171688235199725849860000001319759875759940786_" class="st5" d="M368.7,448c-4.9,0-9.8-1.5-13.8-4.4
		l-0.1,0l3.1-4.2l0.1,0c6.4,4.6,15,4.5,21.4,0l0.1,0l3.1,4.2l-0.1,0C378.4,446.4,373.6,448,368.7,448 M355.1,443.5
		c8.2,5.8,19.1,5.8,27.2,0l-2.9-3.9c-6.4,4.5-15,4.6-21.5,0L355.1,443.5z"/>
	<path id="Path_414_00000155866544511285013390000007915727072458575801_" class="st5" d="M368.7,442.9c-3.9,0-7.6-1.2-10.8-3.4
		l-0.1,0l0-0.1l10.8-14.7l10.9,14.8l-0.1,0C376.3,441.7,372.5,443,368.7,442.9 M358,439.4c6.4,4.5,14.9,4.5,21.3,0l-10.6-14.5
		L358,439.4z"/>
	<path id="Path_417_00000141438906783454674600000001715137366816135859_" class="st5" d="M385.5,447.5l-3-4.2l0.1,0
		c2.9-2.2,5.3-4.9,7-8.2c1.7-3.3,2.6-7,2.6-10.8c0-2.4-0.4-4.8-1.1-7.1l0-0.1l4.9-1.6l0,0.1C399.8,427.3,395.6,440.2,385.5,447.5
		L385.5,447.5z M382.7,443.3l2.8,4c7.3-5.4,11.6-13.9,11.6-23c0-2.9-0.4-5.8-1.3-8.6l-4.6,1.5c1.8,5.9,1.3,12.4-1.6,17.9
		C388,438.4,385.7,441.2,382.7,443.3"/>
	<g id="Group_170_00000176748583016036858380000011904175942572776579_" transform="translate(426.733 140.595)" class="st13">
		<g id="Group_169_00000121246237032899878620000011392081929291735231_">
			<g>
				<defs>
					<rect id="SVGID_1_" x="-47.2" y="276.5" width="12.8" height="26.3"/>
				</defs>
				<clipPath id="SVGID_00000004539382015346897560000004901612266115826580_">
					<use xlink:href="#SVGID_1_"  style="overflow:visible;"/>
				</clipPath>
				
					<g id="Group_168_00000107562121606998103890000014539393858109156030_" style="clip-path:url(#SVGID_00000004539382015346897560000004901612266115826580_);">
					<path id="Path_419_00000168078195024709657470000016680802764186564507_" class="st5" d="M-44.1,302.8l-3-4.2l0.1,0
						c4.7-3.5,7.5-9,7.5-14.9c0-1.9-0.3-3.7-0.8-5.5l0-0.1l4.9-1.6l0,0.1C-32.4,286.2-35.9,296.8-44.1,302.8L-44.1,302.8z
						 M-46.9,298.6l2.8,4c2.9-2.1,5.3-4.9,6.9-8.1c2.8-5.5,3.4-11.9,1.5-17.8l-4.6,1.5c0.5,1.8,0.8,3.6,0.8,5.5
						C-39.4,289.6-42.2,295.1-46.9,298.6"/>
				</g>
			</g>
		</g>
	</g>
	<g id="Group_173_00000028305317567987906890000011337770451939865011_" transform="translate(398.936 144.748)" class="st1">
		<g id="Group_172_00000116943362281532948090000012304893486164925078_">
			<g>
				<defs>
					<rect id="SVGID_00000091004862059527112610000016007839420003451028_" x="-29.9" y="273.9" width="18.3" height="20.7"/>
				</defs>
				<clipPath id="SVGID_00000018928214057683856520000001981500275383335344_">
					<use xlink:href="#SVGID_00000091004862059527112610000016007839420003451028_"  style="overflow:visible;"/>
				</clipPath>
				
					<g id="Group_171_00000070839171457105593830000011443925831916616073_" style="clip-path:url(#SVGID_00000018928214057683856520000001981500275383335344_);">
					<path id="Path_421_00000174572901564481938960000009837184665782748584_" class="st5" d="M-19.3,294.6l-10.7-14.9l17.4-5.8
						l0,0.1c0.6,1.8,0.8,3.7,0.8,5.5C-11.6,285.5-14.4,291-19.3,294.6L-19.3,294.6z M-29.7,279.8l10.5,14.6
						c6.3-4.7,8.9-12.8,6.6-20.2L-29.7,279.8z"/>
				</g>
			</g>
		</g>
	</g>
	<path id="Path_424_00000007389486423748709640000008359095364827941009_" class="st5" d="M391,417L391,417
		c-3.2-9.7-12.1-16.2-22.2-16.3h-0.1l0-5.2h0.1c12.4,0,23.3,8,27.2,19.8l0,0.1L391,417z M368.9,400.6c10.1,0.1,19.1,6.6,22.2,16.2
		l4.6-1.5c-3.8-11.6-14.7-19.5-26.9-19.6L368.9,400.6z"/>
	<path id="Path_426_00000118384259979331530120000015969760297816934020_" class="st5" d="M386.2,418.6L386.2,418.6
		c-2.5-7.6-9.5-12.7-17.4-12.8h-0.1l0-5.2h0.1c10.2,0.1,19.2,6.6,22.3,16.3l0,0.1L386.2,418.6z M368.9,405.7
		c7.9,0.1,14.9,5.2,17.4,12.7l4.6-1.5c-3.2-9.5-12-16-22.1-16.1L368.9,405.7z"/>
	<path id="Path_428_00000083781711953486146130000012901555193241006488_" class="st5" d="M368.9,424.1l-0.1-18.4h0.1
		c8,0.1,15,5.2,17.5,12.8l0,0.1l-0.1,0L368.9,424.1z M368.9,405.8l0.1,18.1l17.2-5.5C383.7,411,376.8,405.9,368.9,405.8"/>
	<path id="Path_431_00000163786083478588160560000008818633864504264623_" class="st5" d="M346.3,417l-5-1.6l0-0.1
		c3.8-11.8,14.8-19.8,27.2-19.8h0.1l0,5.2h-0.1C358.4,400.8,349.5,407.3,346.3,417L346.3,417z M341.5,415.3l4.6,1.5
		c3.2-9.6,12.2-16.1,22.3-16.2l0-4.9C356.3,395.8,345.4,403.7,341.5,415.3"/>
	<path id="Path_433_00000131363632175003575810000014622258854969689532_" class="st5" d="M351.1,418.6l-5-1.6l0-0.1
		c3.2-9.7,12.2-16.2,22.4-16.3h0.1l0,5.2h-0.1C360.6,405.9,353.6,411,351.1,418.6L351.1,418.6z M346.3,416.9l4.6,1.5
		c2.5-7.5,9.5-12.6,17.5-12.7l0-4.9C358.4,400.8,349.5,407.3,346.3,416.9"/>
	<path id="Path_435_00000111885528868256136110000002671644768862038419_" class="st5" d="M368.5,424.1l-17.6-5.6l0-0.1
		c2.5-7.6,9.6-12.7,17.6-12.8h0.1L368.5,424.1z M351.1,418.4l17.2,5.5l0.1-18.1C360.6,405.9,353.6,410.9,351.1,418.4"/>
	<path id="Path_436_00000055688140866719849950000003959590369961267586_" class="st5" d="M359.1,414.7c5.3-5.3,13.9-5.3,19.1,0
		c5.3,5.3,5.3,13.9,0,19.1s-13.9,5.3-19.1,0c0,0,0,0,0,0C353.8,428.6,353.8,420,359.1,414.7"/>
	<path id="Path_437_00000053538911904022984250000006488761471668542851_" class="st16" d="M362.8,423.4l-0.7-2.3h0.5l0.3,1
		c0,0.1,0.1,0.2,0.1,0.4c0,0.1,0.1,0.2,0.1,0.4h0c0-0.1,0.1-0.2,0.1-0.4c0-0.1,0.1-0.2,0.1-0.4l0.3-1h0.5l-0.7,2.3H362.8z"/>
	<path id="Path_438_00000029762676187616076030000006192434905790875581_" class="st16" d="M364.7,421.5c-0.1,0-0.2,0-0.2-0.1
		c-0.1-0.1-0.1-0.3,0-0.4c0,0,0,0,0,0c0.1-0.1,0.3-0.1,0.4,0c0.1,0.1,0.1,0.3,0,0.4C364.9,421.5,364.8,421.5,364.7,421.5
		 M364.5,421.7h0.5v1.7h-0.5L364.5,421.7z"/>
	<path id="Path_439_00000014615943281881539920000013146966912396165006_" class="st16" d="M366.1,423.5c-0.1,0-0.2,0-0.4-0.1
		c-0.1,0-0.2-0.1-0.3-0.2l0.2-0.3c0.1,0.1,0.1,0.1,0.2,0.1c0.1,0,0.1,0,0.2,0c0.1,0,0.1,0,0.2,0c0,0,0-0.1,0-0.1c0,0,0,0,0-0.1
		c0,0-0.1,0-0.1-0.1c0,0-0.1,0-0.1,0c0,0-0.1,0-0.1,0c-0.1,0-0.1,0-0.2-0.1l-0.1-0.1c-0.1,0-0.1-0.1-0.1-0.1c0-0.1-0.1-0.1,0-0.2
		c0-0.1,0-0.2,0-0.2c0-0.1,0.1-0.1,0.1-0.2c0.1,0,0.1-0.1,0.2-0.1c0.2-0.1,0.4,0,0.6,0c0.1,0,0.2,0.1,0.3,0.1l-0.2,0.3
		c-0.1,0-0.1-0.1-0.2-0.1c-0.1,0-0.1,0-0.2,0c-0.1,0-0.2,0-0.2,0.1c0,0,0,0,0,0.1c0,0,0.1,0,0.1,0c0,0,0.1,0,0.1,0c0,0,0.1,0,0.1,0
		c0,0,0.1,0,0.2,0.1c0.1,0,0.1,0.1,0.1,0.1c0.1,0,0.1,0.1,0.1,0.1c0,0.1,0,0.1,0,0.2c0,0.1,0,0.2,0,0.2c0,0.1-0.1,0.1-0.1,0.2
		c-0.1,0.1-0.1,0.1-0.2,0.1C366.3,423.5,366.2,423.5,366.1,423.5"/>
	<path id="Path_440_00000041269050610872390720000006708989485196657063_" class="st16" d="M367.6,421.5c-0.1,0-0.2,0-0.2-0.1
		c-0.1-0.1-0.1-0.3,0-0.4c0,0,0,0,0,0c0.1-0.1,0.3-0.1,0.4,0c0.1,0.1,0.1,0.3,0,0.4c0,0,0,0,0,0
		C367.7,421.5,367.6,421.5,367.6,421.5 M367.3,421.7h0.5v1.7h-0.5V421.7z"/>
	<path id="Path_441_00000094602811311324560640000009331042681487747712_" class="st16" d="M369.2,423.5c-0.1,0-0.2,0-0.3-0.1
		c-0.1,0-0.2-0.1-0.3-0.2c-0.1-0.1-0.1-0.2-0.2-0.3c0-0.1-0.1-0.3-0.1-0.4c0-0.1,0-0.3,0.1-0.4c0-0.1,0.1-0.2,0.2-0.3
		c0.1-0.1,0.2-0.1,0.3-0.2c0.1,0,0.2-0.1,0.3-0.1c0.1,0,0.2,0,0.3,0.1c0.1,0,0.2,0.1,0.2,0.2c0.1,0.1,0.1,0.2,0.1,0.3
		c0,0.1,0,0.2,0,0.3v0.1c0,0,0,0.1,0,0.1h-1c0,0.1,0.1,0.2,0.2,0.3c0.1,0.1,0.2,0.1,0.3,0.1c0.1,0,0.3,0,0.4-0.1l0.2,0.3
		c-0.1,0.1-0.2,0.1-0.3,0.1C369.4,423.5,369.3,423.5,369.2,423.5 M368.8,422.4h0.6c0-0.1,0-0.2-0.1-0.2c-0.1-0.1-0.1-0.1-0.2-0.1
		c-0.1,0-0.2,0-0.2,0.1C368.9,422.2,368.8,422.3,368.8,422.4"/>
	<path id="Path_442_00000170989009092566617460000015308067049557214097_" class="st16" d="M372,423.5c-0.1,0-0.2,0-0.3-0.1
		c-0.2-0.1-0.4-0.2-0.5-0.5c-0.1-0.3-0.1-0.5,0-0.8c0.1-0.2,0.2-0.4,0.5-0.5c0.1,0,0.2-0.1,0.3-0.1c0.1,0,0.2,0,0.3,0.1
		c0.1,0,0.2,0.1,0.3,0.2c0.1,0.1,0.1,0.2,0.2,0.3c0.1,0.3,0.1,0.5,0,0.8c-0.1,0.2-0.2,0.4-0.5,0.5
		C372.2,423.5,372.1,423.5,372,423.5 M372,423.1c0.1,0,0.2-0.1,0.2-0.1c0.1-0.2,0.1-0.5,0-0.7c-0.1-0.1-0.1-0.1-0.2-0.1
		c-0.1,0-0.2,0-0.2,0.1c-0.1,0.2-0.1,0.5,0,0.7C371.8,423,371.9,423.1,372,423.1"/>
	<path id="Path_443_00000039132312514317488130000012768219261749641122_" class="st16" d="M373.4,424.1v-2.4h0.4l0,0.2h0
		c0.1-0.1,0.1-0.1,0.2-0.1c0.1,0,0.2-0.1,0.3-0.1c0.1,0,0.2,0,0.3,0.1c0.1,0,0.2,0.1,0.2,0.2c0.1,0.1,0.1,0.2,0.1,0.3
		c0,0.1,0,0.2,0,0.4c0,0.1,0,0.3-0.1,0.4c0,0.1-0.1,0.2-0.2,0.3c-0.1,0.1-0.1,0.1-0.2,0.2c-0.1,0-0.2,0.1-0.3,0.1
		c-0.1,0-0.1,0-0.2,0c-0.1,0-0.1-0.1-0.2-0.1l0,0.3v0.5H373.4L373.4,424.1z M374.2,423.1c0.1,0,0.2,0,0.2-0.1
		c0.1-0.1,0.1-0.3,0.1-0.4c0-0.3-0.1-0.5-0.3-0.5c-0.1,0-0.2,0.1-0.3,0.2v0.7c0,0,0.1,0.1,0.1,0.1
		C374.1,423.1,374.1,423.1,374.2,423.1"/>
	<path id="Path_444_00000056426223736833236940000015142531106598340271_" class="st16" d="M361.3,427.6c-0.1,0-0.3,0-0.4-0.1
		c-0.1-0.1-0.2-0.1-0.3-0.2c-0.1-0.1-0.2-0.2-0.2-0.4c-0.1-0.2-0.1-0.3-0.1-0.5c0-0.2,0-0.3,0.1-0.5c0-0.1,0.1-0.3,0.2-0.4
		c0.1-0.1,0.2-0.2,0.3-0.2c0.3-0.1,0.6-0.1,0.8,0c0.1,0.1,0.2,0.1,0.3,0.2c0.1,0.1,0.2,0.2,0.2,0.4c0.1,0.2,0.1,0.3,0.1,0.5
		c0,0.2,0,0.3-0.1,0.5c0,0.1-0.1,0.3-0.2,0.4c-0.1,0.1-0.2,0.2-0.3,0.2C361.6,427.6,361.4,427.6,361.3,427.6 M361.3,427.2
		c0.1,0,0.3-0.1,0.4-0.2c0.1-0.2,0.1-0.4,0.1-0.5c0-0.2,0-0.4-0.1-0.5c-0.1-0.2-0.4-0.3-0.6-0.1c0,0-0.1,0.1-0.1,0.1
		c-0.1,0.2-0.1,0.3-0.1,0.5c0,0.2,0,0.4,0.1,0.5C361,427.1,361.2,427.2,361.3,427.2"/>
	<path id="Path_445_00000181773646556685866350000007877958621121316497_" class="st16" d="M362.9,427.6v-1.7h0.4l0,0.2h0
		c0.1-0.1,0.2-0.1,0.2-0.2c0.1-0.1,0.2-0.1,0.3-0.1c0.2,0,0.3,0.1,0.4,0.2c0.1,0.2,0.1,0.3,0.1,0.5v1.1h-0.5v-1c0-0.1,0-0.2,0-0.3
		c0,0-0.1-0.1-0.2-0.1c-0.1,0-0.1,0-0.2,0c-0.1,0-0.1,0.1-0.1,0.1v1.2L362.9,427.6L362.9,427.6z"/>
	<path id="Path_446_00000000182281876901672710000001180973497082939541_" class="st16" d="M365.7,427.6c-0.1,0-0.2,0-0.3-0.1
		c-0.1,0-0.2-0.1-0.2-0.2c-0.1-0.1-0.1-0.2-0.1-0.3c0-0.1,0-0.2,0-0.4c0-0.1,0-0.3,0.1-0.4c0-0.1,0.1-0.2,0.2-0.3
		c0.1-0.1,0.1-0.1,0.2-0.2c0.1,0,0.2-0.1,0.3-0.1c0.1,0,0.2,0,0.2,0c0.1,0,0.1,0.1,0.2,0.1l0-0.3v-0.6h0.5v2.4h-0.4l0-0.2h0
		c-0.1,0.1-0.1,0.1-0.2,0.1C365.8,427.6,365.7,427.6,365.7,427.6 M365.8,427.2c0.1,0,0.1,0,0.1,0c0,0,0.1-0.1,0.1-0.1v-0.7
		c0,0-0.1-0.1-0.1-0.1c0,0-0.1,0-0.1,0c-0.1,0-0.2,0-0.2,0.1c-0.1,0.1-0.1,0.2-0.1,0.4c0,0.1,0,0.3,0.1,0.4
		C365.6,427.2,365.7,427.2,365.8,427.2"/>
	<path id="Path_447_00000063616762696826996060000012317903684956063134_" class="st16" d="M368,427.6c-0.1,0-0.2,0-0.3-0.1
		c-0.1,0-0.2-0.1-0.3-0.2c-0.1-0.1-0.1-0.2-0.2-0.3c0-0.1-0.1-0.3-0.1-0.4c0-0.1,0-0.3,0.1-0.4c0-0.1,0.1-0.2,0.2-0.3
		c0.1-0.1,0.2-0.1,0.3-0.2c0.1,0,0.2-0.1,0.3-0.1c0.1,0,0.2,0,0.3,0.1c0.1,0,0.2,0.1,0.2,0.2c0.1,0.1,0.1,0.2,0.1,0.3
		c0,0.1,0,0.2,0,0.3v0.1c0,0,0,0.1,0,0.1h-1c0,0.1,0.1,0.2,0.2,0.3c0.1,0.1,0.2,0.1,0.3,0.1c0.1,0,0.3,0,0.4-0.1l0.2,0.3
		c-0.1,0.1-0.2,0.1-0.3,0.1C368.2,427.6,368.1,427.6,368,427.6 M367.6,426.6h0.6c0-0.1,0-0.2-0.1-0.2c-0.1-0.1-0.1-0.1-0.2-0.1
		c-0.1,0-0.2,0-0.2,0.1C367.6,426.4,367.6,426.5,367.6,426.6"/>
	<path id="Path_448_00000148650673548773323510000014177142394219871416_" class="st16" d="M369.2,427.6v-1.7h0.4l0,0.3h0
		c0.1-0.1,0.1-0.2,0.2-0.3c0.1,0,0.2-0.1,0.3-0.1c0,0,0.1,0,0.1,0c0,0,0.1,0,0.1,0l-0.1,0.4c0,0-0.1,0-0.1,0H370
		c-0.1,0-0.1,0-0.2,0.1c-0.1,0.1-0.1,0.1-0.2,0.2v1L369.2,427.6L369.2,427.6z"/>
	<path id="Path_449_00000162334412690047656270000015425907894305676954_" class="st16" d="M371,427.6l-0.4-1.7h0.5l0.2,0.8
		c0,0.1,0,0.2,0,0.3c0,0.1,0,0.2,0,0.3h0c0-0.1,0-0.2,0-0.3l0-0.2l0.2-0.8h0.4l0.2,0.8c0,0.1,0,0.2,0,0.3s0,0.2,0,0.3h0
		c0-0.1,0-0.2,0-0.3c0-0.1,0-0.2,0-0.3l0.2-0.8h0.5l-0.4,1.7H372l-0.2-0.7l0-0.2c0-0.1,0-0.2,0-0.3h0c0,0.1,0,0.2,0,0.3l0,0.2
		l-0.1,0.7L371,427.6L371,427.6z"/>
	<path id="Path_450_00000150062912586963876130000016756408946266818709_" class="st16" d="M373.9,425.6c-0.1,0-0.2,0-0.2-0.1
		c-0.1-0.1-0.1-0.3,0-0.4c0,0,0,0,0,0c0.1-0.1,0.3-0.1,0.4,0c0.1,0.1,0.1,0.3,0,0.4c0,0,0,0,0,0C374,425.6,373.9,425.6,373.9,425.6
		 M373.6,425.9h0.5v1.7h-0.5V425.9z"/>
	<path id="Path_451_00000183944692973378843420000001719350186269427841_" class="st16" d="M374.6,428.3c-0.1,0-0.1,0-0.2,0
		c0,0-0.1,0-0.1,0l0.1-0.4c0,0,0,0,0.1,0h0.1c0.1,0,0.1,0,0.1-0.1c0-0.1,0-0.1,0-0.2v-1.7h0.5v1.7c0,0.1,0,0.2,0,0.3
		c0,0.1,0,0.2-0.1,0.2c0,0.1-0.1,0.1-0.2,0.1C374.8,428.3,374.7,428.3,374.6,428.3 M375,425.6c-0.1,0-0.2,0-0.2-0.1
		c-0.1-0.1-0.1-0.3,0-0.4c0,0,0,0,0,0c0.1-0.1,0.3-0.1,0.4,0c0.1,0.1,0.1,0.3,0,0.4c0,0,0,0,0,0C375.1,425.6,375.1,425.6,375,425.6"
		/>
	<path id="Path_452_00000147916528461066895370000006699960230322809008_" class="st16" d="M376.4,427.6c-0.1,0-0.2,0-0.4-0.1
		c-0.1,0-0.2-0.1-0.3-0.2l0.2-0.3c0.1,0.1,0.1,0.1,0.2,0.1c0.1,0,0.1,0,0.2,0c0.1,0,0.1,0,0.2,0c0,0,0-0.1,0-0.1c0,0,0,0,0-0.1
		c0,0-0.1,0-0.1-0.1c0,0-0.1,0-0.1,0c0,0-0.1,0-0.1,0c-0.1,0-0.1,0-0.2-0.1l-0.1-0.1c-0.1,0-0.1-0.1-0.1-0.1c0-0.1-0.1-0.1,0-0.2
		c0-0.1,0-0.2,0-0.2c0-0.1,0.1-0.1,0.1-0.2c0.1,0,0.1-0.1,0.2-0.1c0.2-0.1,0.4,0,0.6,0c0.1,0,0.2,0.1,0.3,0.1l-0.2,0.3
		c-0.1,0-0.1-0.1-0.2-0.1c-0.1,0-0.1,0-0.2,0c-0.1,0-0.2,0-0.2,0.1c0,0,0,0,0,0.1c0,0,0.1,0,0.1,0c0,0,0.1,0,0.1,0c0,0,0.1,0,0.1,0
		c0,0,0.1,0,0.2,0.1l0.1,0.1c0.1,0,0.1,0.1,0.1,0.1c0,0.1,0,0.1,0,0.2c0,0.1,0,0.2,0,0.2c0,0.1-0.1,0.1-0.1,0.2
		c-0.1,0.1-0.1,0.1-0.2,0.1C376.6,427.6,376.5,427.6,376.4,427.6"/>
	<path id="Path_453_00000100362906948424951970000011019979414113632677_" class="st16" d="M357.9,413.4V413h0.4v-1.2H358v-0.3
		c0.1,0,0.2,0,0.3-0.1c0.1,0,0.2-0.1,0.2-0.1h0.3v1.6h0.4v0.4L357.9,413.4L357.9,413.4z"/>
	<path id="Path_454_00000049932399895206304700000004321560148627701416_" class="st16" d="M353,430.1v-0.4h0.4v-1.2H353v-0.3
		c0.1,0,0.2,0,0.3-0.1c0.1,0,0.2-0.1,0.2-0.1h0.3v1.6h0.4v0.4L353,430.1L353,430.1z"/>
	<path id="Path_455_00000076571527875870198040000009355477964418695810_" class="st16" d="M383,430.1v-0.4h0.4v-1.2H383v-0.3
		c0.1,0,0.2,0,0.3-0.1c0.1,0,0.2-0.1,0.2-0.1h0.3v1.6h0.4v0.4L383,430.1L383,430.1z"/>
	<path id="Path_456_00000040550709762934494740000001286249827907868800_" class="st16" d="M387.4,432.8v-0.3
		c0.1-0.1,0.2-0.2,0.4-0.3c0.1-0.1,0.2-0.2,0.3-0.3c0.1-0.1,0.1-0.2,0.2-0.3c0-0.1,0.1-0.1,0.1-0.2c0-0.1,0-0.2-0.1-0.2
		c-0.1-0.1-0.1-0.1-0.2-0.1c-0.1,0-0.1,0-0.2,0.1c0,0-0.1,0.1-0.2,0.1l-0.3-0.2c0.1-0.1,0.2-0.2,0.3-0.2c0.1-0.1,0.2-0.1,0.4-0.1
		c0.1,0,0.2,0,0.3,0c0.1,0,0.1,0.1,0.2,0.1c0.1,0.1,0.1,0.1,0.1,0.2c0,0.1,0,0.2,0,0.3c0,0.1,0,0.2,0,0.3c0,0.1-0.1,0.2-0.1,0.3
		c-0.1,0.1-0.1,0.2-0.2,0.3c-0.1,0.1-0.2,0.2-0.2,0.3c0,0,0.1,0,0.2,0h0.6v0.4H387.4z"/>
	<path id="Path_457_00000092457016437155134640000017190830941757751211_" class="st16" d="M392.5,435.8c-0.1,0-0.3,0-0.4-0.1
		c-0.1,0-0.2-0.1-0.3-0.2l0.2-0.3c0.1,0.1,0.1,0.1,0.2,0.1c0.1,0,0.2,0.1,0.2,0.1c0.1,0,0.2,0,0.2-0.1c0.1,0,0.1-0.1,0.1-0.2
		c0,0,0-0.1,0-0.1c0,0,0-0.1-0.1-0.1c-0.1,0-0.1,0-0.2-0.1c-0.1,0-0.2,0-0.3,0v-0.3c0.1,0,0.2,0,0.2,0c0,0,0.1,0,0.1,0
		c0,0,0.1,0,0.1-0.1c0,0,0-0.1,0-0.1c0-0.1,0-0.1-0.1-0.2c-0.1,0-0.1-0.1-0.2-0.1c-0.1,0-0.1,0-0.2,0c-0.1,0-0.1,0.1-0.2,0.1
		l-0.2-0.3c0.1-0.1,0.2-0.1,0.3-0.2c0.1,0,0.2-0.1,0.3-0.1c0.1,0,0.2,0,0.3,0c0.1,0,0.1,0.1,0.2,0.1c0.1,0,0.1,0.1,0.1,0.2
		c0,0.1,0,0.1,0,0.2c0,0.1,0,0.2-0.1,0.3c-0.1,0.1-0.2,0.1-0.2,0.2v0c0.1,0,0.2,0.1,0.3,0.2c0.1,0.1,0.1,0.2,0.1,0.3
		c0,0.1,0,0.2-0.1,0.2c0,0.1-0.1,0.1-0.2,0.2c-0.1,0.1-0.2,0.1-0.2,0.1C392.7,435.8,392.6,435.8,392.5,435.8"/>
	<path id="Path_458_00000014628659125858364670000012432601282018434968_" class="st16" d="M397.1,438.7v-0.5h-0.9v-0.3l0.7-1.2h0.6
		v1.2h0.2v0.4h-0.2v0.5L397.1,438.7L397.1,438.7z M396.7,437.9h0.4v-0.5c0-0.1,0-0.2,0-0.2h0c0,0,0,0.1-0.1,0.2c0,0.1,0,0.1-0.1,0.2
		L396.7,437.9z"/>
	<path id="Path_459_00000129181427944970255670000006387893577737172865_" class="st16" d="M347.9,432.1v-0.3
		c0.1-0.1,0.2-0.2,0.4-0.3c0.1-0.1,0.2-0.2,0.3-0.3c0.1-0.1,0.1-0.2,0.2-0.3c0-0.1,0.1-0.1,0.1-0.2c0-0.1,0-0.2-0.1-0.2
		c-0.1-0.1-0.1-0.1-0.2-0.1c-0.1,0-0.1,0-0.2,0.1c0,0-0.1,0.1-0.2,0.1l-0.3-0.2c0.1-0.1,0.2-0.2,0.3-0.2c0.1-0.1,0.2-0.1,0.4-0.1
		c0.1,0,0.2,0,0.3,0c0.1,0,0.1,0.1,0.2,0.1c0.1,0.1,0.1,0.1,0.1,0.2c0,0.1,0,0.2,0,0.3c0,0.1,0,0.2,0,0.3c0,0.1-0.1,0.2-0.1,0.3
		c-0.1,0.1-0.1,0.2-0.2,0.3c-0.1,0.1-0.2,0.2-0.2,0.3c0,0,0.1,0,0.2,0h0.6v0.4L347.9,432.1z"/>
	<path id="Path_460_00000023268227888936368000000004887419868106067335_" class="st16" d="M344.1,434.3c-0.1,0-0.3,0-0.4-0.1
		c-0.1,0-0.2-0.1-0.3-0.2l0.2-0.3c0.1,0.1,0.1,0.1,0.2,0.1c0.1,0,0.2,0.1,0.2,0.1c0.1,0,0.2,0,0.2-0.1c0.1,0,0.1-0.1,0.1-0.2
		c0,0,0-0.1,0-0.1c0,0,0-0.1-0.1-0.1c-0.1,0-0.1,0-0.2-0.1c-0.1,0-0.2,0-0.3,0v-0.3c0.1,0,0.2,0,0.2,0c0,0,0.1,0,0.1,0
		c0,0,0.1,0,0.1-0.1c0,0,0-0.1,0-0.1c0-0.1,0-0.1-0.1-0.2c-0.1,0-0.1-0.1-0.2-0.1c-0.1,0-0.1,0-0.2,0c-0.1,0-0.1,0.1-0.2,0.1
		l-0.2-0.3c0.1-0.1,0.2-0.1,0.3-0.2c0.1,0,0.2-0.1,0.3-0.1c0.1,0,0.2,0,0.3,0c0.1,0,0.1,0.1,0.2,0.1c0.1,0,0.1,0.1,0.1,0.2
		c0,0.1,0,0.1,0,0.2c0,0.1,0,0.2-0.1,0.3c-0.1,0.1-0.2,0.1-0.2,0.2v0c0.1,0,0.2,0.1,0.3,0.2c0.1,0.1,0.1,0.2,0.1,0.3
		c0,0.1,0,0.2-0.1,0.2c0,0.1-0.1,0.1-0.2,0.2c-0.1,0.1-0.2,0.1-0.2,0.1C344.3,434.3,344.2,434.3,344.1,434.3"/>
	<path id="Path_461_00000155129846461248973310000008163427882273063053_" class="st16" d="M339.9,436.8v-0.5H339V436l0.7-1.2h0.6
		v1.2h0.2v0.4h-0.2v0.5L339.9,436.8L339.9,436.8z M339.4,435.9h0.4v-0.5c0-0.1,0-0.2,0-0.2h0c0,0,0,0.1-0.1,0.2c0,0.1,0,0.1-0.1,0.2
		L339.4,435.9z"/>
	<path id="Path_462_00000045604434747039772600000014717161948796881578_" class="st16" d="M378.5,413.4V413h0.4v-1.2h-0.4v-0.3
		c0.1,0,0.2,0,0.3-0.1c0.1,0,0.2-0.1,0.2-0.1h0.3v1.6h0.4v0.4L378.5,413.4L378.5,413.4z"/>
	<path id="Path_463_00000013186334470678212060000001093887153428259734_" class="st16" d="M368.1,441.5v-0.4h0.4v-1.2h-0.4v-0.3
		c0.1,0,0.2,0,0.3-0.1c0.1,0,0.2-0.1,0.2-0.1h0.3v1.6h0.4v0.4L368.1,441.5L368.1,441.5z"/>
	<path id="Path_464_00000078753447285692908890000009695201646461044620_" class="st16" d="M368,446.3V446c0.1-0.1,0.2-0.2,0.4-0.3
		c0.1-0.1,0.2-0.2,0.3-0.3c0.1-0.1,0.1-0.2,0.2-0.3c0-0.1,0.1-0.1,0.1-0.2c0-0.1,0-0.2-0.1-0.2c-0.1-0.1-0.1-0.1-0.2-0.1
		c-0.1,0-0.1,0-0.2,0.1c0,0-0.1,0.1-0.2,0.1l-0.3-0.2c0.1-0.1,0.2-0.2,0.3-0.2c0.1-0.1,0.2-0.1,0.4-0.1c0.1,0,0.2,0,0.3,0
		c0.1,0,0.1,0.1,0.2,0.1c0.1,0.1,0.1,0.1,0.1,0.2c0,0.1,0,0.2,0,0.3c0,0.1,0,0.2,0,0.3c0,0.1-0.1,0.2-0.1,0.3
		c-0.1,0.1-0.1,0.2-0.2,0.3c-0.1,0.1-0.2,0.2-0.2,0.3c0,0,0.1,0,0.2,0h0.6v0.4L368,446.3z"/>
	<path id="Path_465_00000107562532755506505250000013075904543994280853_" class="st16" d="M368.7,451.5c-0.1,0-0.3,0-0.4-0.1
		c-0.1,0-0.2-0.1-0.3-0.2l0.2-0.3c0.1,0.1,0.1,0.1,0.2,0.1c0.1,0,0.2,0.1,0.2,0.1c0.1,0,0.2,0,0.2-0.1c0.1,0,0.1-0.1,0.1-0.2
		c0,0,0-0.1,0-0.1c0,0,0-0.1-0.1-0.1c-0.1,0-0.1,0-0.2-0.1c-0.1,0-0.2,0-0.3,0v-0.3c0.1,0,0.2,0,0.2,0c0,0,0.1,0,0.1,0
		c0,0,0.1,0,0.1-0.1c0,0,0-0.1,0-0.1c0-0.1,0-0.1-0.1-0.2c-0.1,0-0.1-0.1-0.2-0.1c-0.1,0-0.1,0-0.2,0c-0.1,0-0.1,0.1-0.2,0.1
		l-0.2-0.3c0.1-0.1,0.2-0.1,0.3-0.2c0.1,0,0.2-0.1,0.3-0.1c0.1,0,0.2,0,0.3,0c0.1,0,0.1,0.1,0.2,0.1c0.1,0,0.1,0.1,0.1,0.2
		c0,0.1,0,0.1,0,0.2c0,0.1,0,0.2-0.1,0.3c-0.1,0.1-0.2,0.1-0.2,0.2v0c0.1,0,0.2,0.1,0.3,0.2c0.1,0.1,0.1,0.2,0.1,0.3
		c0,0.1,0,0.2-0.1,0.2c0,0.1-0.1,0.1-0.2,0.2c-0.1,0.1-0.2,0.1-0.2,0.1C368.9,451.5,368.8,451.5,368.7,451.5"/>
	<path id="Path_466_00000086683658765077143330000011036120891941760925_" class="st16" d="M368.8,456.4v-0.5H368v-0.3l0.7-1.2h0.6
		v1.2h0.2v0.4h-0.2v0.5L368.8,456.4L368.8,456.4z M368.4,455.6h0.4V455c0-0.1,0-0.2,0-0.2h0c0,0,0,0.1-0.1,0.2c0,0.1,0,0.1-0.1,0.2
		L368.4,455.6z"/>
	<path id="Path_467_00000107569436067647883330000014184155550267649200_" class="st16" d="M382.1,409.6v-0.3
		c0.1-0.1,0.2-0.2,0.4-0.3s0.2-0.2,0.3-0.3c0.1-0.1,0.1-0.2,0.2-0.3c0-0.1,0.1-0.1,0.1-0.2c0-0.1,0-0.2-0.1-0.2
		c-0.1-0.1-0.1-0.1-0.2-0.1c-0.1,0-0.1,0-0.2,0.1c0,0-0.1,0.1-0.2,0.1l-0.3-0.2c0.1-0.1,0.2-0.2,0.3-0.2c0.1-0.1,0.2-0.1,0.4-0.1
		c0.1,0,0.2,0,0.3,0c0.1,0,0.1,0.1,0.2,0.1c0.1,0.1,0.1,0.1,0.1,0.2c0,0.1,0,0.2,0,0.3c0,0.1,0,0.2,0,0.3c0,0.1-0.1,0.2-0.1,0.3
		c-0.1,0.1-0.1,0.2-0.2,0.3c-0.1,0.1-0.2,0.2-0.2,0.3c0,0,0.1,0,0.2,0h0.6v0.4H382.1z"/>
	<path id="Path_468_00000048485354684949862650000017938948622009483410_" class="st16" d="M386.2,406.2c-0.1,0-0.3,0-0.4-0.1
		c-0.1,0-0.2-0.1-0.3-0.2l0.2-0.3c0.1,0.1,0.1,0.1,0.2,0.1c0.1,0,0.2,0.1,0.2,0.1c0.1,0,0.2,0,0.2-0.1c0.1,0,0.1-0.1,0.1-0.2
		c0,0,0-0.1,0-0.1c0,0,0-0.1-0.1-0.1c-0.1,0-0.1,0-0.2-0.1c-0.1,0-0.2,0-0.3,0V405c0.1,0,0.2,0,0.2,0c0,0,0.1,0,0.1,0
		c0,0,0.1,0,0.1-0.1c0,0,0-0.1,0-0.1c0-0.1,0-0.1-0.1-0.2c-0.1,0-0.1-0.1-0.2-0.1c-0.1,0-0.1,0-0.2,0c-0.1,0-0.1,0.1-0.2,0.1
		l-0.2-0.3c0.1-0.1,0.2-0.1,0.3-0.2c0.1,0,0.2-0.1,0.3-0.1c0.1,0,0.2,0,0.3,0c0.1,0,0.1,0.1,0.2,0.1c0.1,0,0.1,0.1,0.1,0.2
		c0,0.1,0,0.1,0,0.2c0,0.1,0,0.2-0.1,0.3c-0.1,0.1-0.2,0.1-0.2,0.2v0c0.1,0,0.2,0.1,0.3,0.2c0.1,0.1,0.1,0.2,0.1,0.3
		c0,0.1,0,0.2-0.1,0.2c0,0.1-0.1,0.1-0.2,0.2c-0.1,0.1-0.2,0.1-0.2,0.1C386.4,406.2,386.3,406.2,386.2,406.2"/>
	<path id="Path_469_00000075121642871149280020000012902059916134928527_" class="st16" d="M390,402.6v-0.5h-0.9v-0.3l0.7-1.2h0.6
		v1.2h0.2v0.4h-0.2v0.5L390,402.6L390,402.6z M389.6,401.7h0.4v-0.5c0-0.1,0-0.2,0-0.2h0c0,0,0,0.1-0.1,0.2c0,0.1,0,0.1-0.1,0.2
		L389.6,401.7z"/>
	<path id="Path_470_00000076601622595008513660000014086276685525425842_" class="st16" d="M354,409.6v-0.3c0.1-0.1,0.2-0.2,0.4-0.3
		c0.1-0.1,0.2-0.2,0.3-0.3c0.1-0.1,0.1-0.2,0.2-0.3c0-0.1,0.1-0.1,0.1-0.2c0-0.1,0-0.2-0.1-0.2c-0.1-0.1-0.1-0.1-0.2-0.1
		c-0.1,0-0.1,0-0.2,0.1c0,0-0.1,0.1-0.2,0.1l-0.3-0.2c0.1-0.1,0.2-0.2,0.3-0.2c0.1-0.1,0.2-0.1,0.4-0.1c0.1,0,0.2,0,0.3,0
		c0.1,0,0.1,0.1,0.2,0.1c0.1,0.1,0.1,0.1,0.1,0.2c0,0.1,0,0.2,0,0.3c0,0.1,0,0.2,0,0.3c0,0.1-0.1,0.2-0.1,0.3
		c-0.1,0.1-0.1,0.2-0.2,0.3c-0.1,0.1-0.2,0.2-0.2,0.3c0,0,0.1,0,0.2,0h0.6v0.4L354,409.6z"/>
	<path id="Path_471_00000160891023143976067960000003480912483766610622_" class="st16" d="M351,406c-0.1,0-0.3,0-0.4-0.1
		c-0.1,0-0.2-0.1-0.3-0.2l0.2-0.3c0.1,0.1,0.1,0.1,0.2,0.1c0.1,0,0.2,0.1,0.2,0.1c0.1,0,0.2,0,0.2-0.1c0.1,0,0.1-0.1,0.1-0.2
		c0,0,0-0.1,0-0.1c0,0,0-0.1-0.1-0.1c-0.1,0-0.1,0-0.2-0.1c-0.1,0-0.2,0-0.3,0v-0.3c0.1,0,0.2,0,0.2,0c0,0,0.1,0,0.1,0
		c0,0,0.1,0,0.1-0.1c0,0,0-0.1,0-0.1c0-0.1,0-0.1-0.1-0.2c-0.1,0-0.1-0.1-0.2-0.1c-0.1,0-0.1,0-0.2,0c-0.1,0-0.1,0.1-0.2,0.1
		l-0.2-0.3c0.1-0.1,0.2-0.1,0.3-0.2c0.1,0,0.2-0.1,0.3-0.1c0.1,0,0.2,0,0.3,0c0.1,0,0.1,0.1,0.2,0.1c0.1,0,0.1,0.1,0.1,0.2
		c0,0.1,0,0.1,0,0.2c0,0.1,0,0.2-0.1,0.3c-0.1,0.1-0.2,0.1-0.2,0.2v0c0.1,0,0.2,0.1,0.3,0.2c0.1,0.1,0.1,0.2,0.1,0.3
		c0,0.1,0,0.2-0.1,0.2c0,0.1-0.1,0.1-0.2,0.2c-0.1,0.1-0.2,0.1-0.2,0.1C351.2,405.9,351.1,406,351,406"/>
	<path id="Path_472_00000001659511099534025320000002872653348678340534_" class="st16" d="M347.5,402.3v-0.5h-0.9v-0.3l0.7-1.2h0.6
		v1.2h0.2v0.4h-0.2v0.5L347.5,402.3L347.5,402.3z M347.1,401.5h0.4v-0.5c0-0.1,0-0.2,0-0.2h0c0,0,0,0.1-0.1,0.2c0,0.1,0,0.1-0.1,0.2
		L347.1,401.5z"/>
	<path id="Path_473_00000008866669522949957410000001061406435564572571_" class="st16" d="M340.7,403l-0.8-0.6l-0.2,0.3l-0.2-0.1
		l0.6-0.8l0.2,0.1l-0.2,0.3l0.8,0.6L340.7,403z"/>
	<path id="Path_474_00000109709074916972777660000016408174400072153268_" class="st16" d="M341.4,402.1c0,0-0.1,0.1-0.1,0.1
		c0,0-0.1,0-0.2,0c-0.1,0-0.1,0-0.2,0c-0.1,0-0.1-0.1-0.2-0.1c-0.1,0-0.1-0.1-0.1-0.2c0-0.1-0.1-0.1-0.1-0.2c0-0.1,0-0.1,0-0.2
		c0-0.1,0-0.1,0.1-0.2c0,0,0.1-0.1,0.1-0.1c0,0,0.1,0,0.2,0c0.1,0,0.1,0,0.2,0c0.1,0,0.1,0.1,0.2,0.1c0.1,0,0.1,0.1,0.1,0.2
		c0,0.1,0.1,0.1,0.1,0.2c0,0.1,0,0.1,0,0.2C341.5,402,341.5,402,341.4,402.1 M341.2,401.9c0,0,0-0.1,0-0.1c0-0.1-0.1-0.1-0.1-0.2
		c-0.1,0-0.1-0.1-0.2-0.1c-0.1,0-0.1,0-0.1,0c0,0,0,0.1,0,0.1c0,0.1,0.1,0.1,0.1,0.2c0.1,0,0.1,0.1,0.2,0.1
		C341.2,402,341.2,402,341.2,401.9"/>
	<path id="Path_475_00000061458961654574231530000012095699855461525414_" class="st16" d="M342.2,401.2c0,0-0.1,0.1-0.1,0.1
		c-0.1,0-0.1,0-0.2,0c-0.1,0-0.1,0-0.2,0c-0.1,0-0.1-0.1-0.2-0.1c-0.1,0-0.1-0.1-0.1-0.2c0-0.1,0-0.1,0-0.2c0-0.1,0-0.1,0-0.2
		c0-0.1,0-0.1,0.1-0.1c0,0,0.1-0.1,0.1-0.1c0.1,0,0.1,0,0.2,0c0.1,0,0.1,0,0.2,0c0.1,0,0.1,0.1,0.1,0.1l0,0l0,0l-0.4,0.4
		c0.1,0,0.1,0,0.2,0c0.1,0,0.1-0.1,0.1-0.1c0.1-0.1,0.1-0.1,0.1-0.2l0.2,0c0,0.1,0,0.1,0,0.2C342.3,401.1,342.2,401.1,342.2,401.2
		 M341.6,401l0.2-0.3c0,0-0.1,0-0.1-0.1c0,0-0.1,0-0.1,0.1c0,0,0,0.1,0,0.1C341.5,400.9,341.5,400.9,341.6,401"/>
	<path id="Path_476_00000029749817771487913310000012102710730552634243_" class="st16" d="M342.8,400.5c-0.1,0.1-0.1,0.1-0.2,0.1
		c0,0-0.1,0-0.1,0c0,0-0.1,0-0.1-0.1l-0.3-0.3l-0.1,0.1l-0.2-0.1l0.1-0.1l-0.2-0.2l0.2-0.2l0.2,0.2l0.1-0.2l0.2,0.1l-0.1,0.2
		l0.3,0.3c0,0,0.1,0,0.1,0c0,0,0.1,0,0.1,0l0,0c0,0,0,0,0,0l0.2,0.1C342.9,400.3,342.9,400.3,342.8,400.5
		C342.9,400.4,342.9,400.4,342.8,400.5"/>
	<path id="Path_477_00000030453625721325949800000001760460563288711092_" class="st16" d="M343.3,399.9c0,0-0.1,0.1-0.2,0.1
		c-0.1,0-0.1,0.1-0.2,0.1l0-0.2c0,0,0.1,0,0.1,0c0,0,0.1,0,0.1-0.1c0,0,0,0,0-0.1c0,0,0,0,0-0.1c0,0-0.1,0-0.1,0c0,0,0,0-0.1,0
		c0,0,0,0-0.1,0c0,0-0.1,0-0.1,0c-0.1,0-0.1,0-0.2,0l-0.1,0c0,0,0-0.1-0.1-0.1c0,0,0-0.1,0-0.1c0,0,0-0.1,0-0.1c0,0,0-0.1,0.1-0.1
		c0-0.1,0.1-0.1,0.2-0.1c0,0,0.1,0,0.2,0l0,0.2c0,0-0.1,0-0.1,0c0,0-0.1,0-0.1,0.1c0,0,0,0.1,0,0.1c0,0,0,0,0,0c0,0,0,0,0,0
		c0,0,0,0,0.1,0c0,0,0,0,0.1,0c0,0,0.1,0,0.1,0c0.1,0,0.1,0,0.2,0c0,0,0.1,0,0.1,0.1c0,0,0,0.1,0.1,0.1c0,0,0,0.1,0,0.1
		c0,0,0,0.1,0,0.1C343.4,399.9,343.4,399.9,343.3,399.9"/>
	<path id="Path_478_00000046323837772605250770000017839449587596565430_" class="st16" d="M344.2,399.5c-0.1,0-0.3-0.1-0.4-0.2
		c-0.1-0.1-0.3-0.2-0.4-0.3c-0.1-0.1-0.2-0.2-0.3-0.4c-0.1-0.1-0.1-0.3-0.2-0.4l0.2-0.1c0,0.1,0.1,0.3,0.2,0.4
		c0.1,0.2,0.3,0.4,0.6,0.6c0.1,0.1,0.2,0.1,0.4,0.2L344.2,399.5z"/>
	<path id="Path_479_00000022549996829238887420000018282138127913823901_" class="st16" d="M344.6,398.7c0,0-0.1,0.1-0.1,0.1
		c0,0-0.1,0-0.1,0c0,0-0.1,0-0.1,0c0,0-0.1-0.1-0.1-0.1l-0.3-0.3l-0.1,0.1l-0.1-0.1l0.1-0.1l-0.2-0.2l0.2-0.2l0.2,0.2l0.2-0.2
		l0.2,0.2l-0.2,0.2l0.3,0.3c0,0,0.1,0.1,0.1,0.1c0,0,0.1,0,0.1,0l0,0c0,0,0,0,0,0l0.2,0.1C344.7,398.5,344.6,398.6,344.6,398.7
		C344.6,398.6,344.6,398.6,344.6,398.7"/>
	<path id="Path_480_00000106108299952352264310000006962589366830994611_" class="st16" d="M345.1,398.2
		C345,398.3,345,398.3,345.1,398.2c-0.1,0.1-0.2,0.1-0.2,0.1c0,0-0.1,0-0.1,0c0,0-0.1,0-0.1-0.1c-0.1-0.1-0.1-0.2-0.1-0.3
		c0.1-0.1,0.1-0.3,0.2-0.4c0,0-0.1,0-0.1,0c0,0-0.1,0-0.1,0c0,0,0,0.1-0.1,0.1c0,0,0,0.1,0,0.1l-0.2-0.1c0-0.1,0-0.1,0.1-0.2
		c0-0.1,0.1-0.1,0.1-0.2c0.1-0.1,0.2-0.1,0.3-0.1c0.1,0,0.2,0.1,0.3,0.2l0.4,0.4l-0.2,0.2l-0.1-0.1c0,0,0,0.1,0,0.1
		C345.1,398.2,345.1,398.2,345.1,398.2 M345,398C345,398,345,398,345,398c0-0.1,0.1-0.1,0.1-0.2l-0.1-0.1c0,0.1-0.1,0.1-0.1,0.2
		c0,0,0,0.1,0,0.1C344.8,398,344.9,398,345,398C344.9,398,345,398,345,398"/>
	<path id="Path_481_00000005254913776994518500000002533977947837735601_" class="st16" d="M345.7,397.6l-0.9-1l0.2-0.2l0.5,0.6
		l0-0.5l0.2-0.2v0.5l0.6,0.2l-0.2,0.2l-0.4-0.1v0.2l0.1,0.2L345.7,397.6z"/>
	<path id="Path_482_00000111162887527690990900000005390448168691162504_" class="st16" d="M346.9,397.1l-0.2,0
		c0-0.1-0.1-0.3-0.1-0.4c-0.1-0.1-0.1-0.2-0.2-0.4c-0.1-0.1-0.2-0.2-0.3-0.3c-0.1-0.1-0.2-0.2-0.4-0.2l0.1-0.2
		c0.1,0,0.3,0.1,0.4,0.2c0.1,0.1,0.2,0.2,0.3,0.3c0.1,0.1,0.2,0.3,0.2,0.4C346.8,396.8,346.8,396.9,346.9,397.1"/>
	<path id="Path_483_00000006693011120982187530000007137117761193041853_" class="st16" d="M347.5,396.2c-0.1,0-0.1,0.1-0.2,0.1
		c-0.1,0-0.1,0-0.2,0c-0.1,0-0.1,0-0.2-0.1c-0.1,0-0.1-0.1-0.2-0.1c0-0.1-0.1-0.1-0.1-0.2c0-0.1,0-0.1,0-0.2c0-0.1,0-0.1,0-0.2
		c0-0.1,0.1-0.1,0.1-0.1c0,0,0.1-0.1,0.2-0.1c0.1,0,0.1,0,0.2,0c0.1,0,0.1,0,0.1,0.1c0.1,0,0.1,0.1,0.1,0.1c0,0,0,0,0,0.1
		c0,0,0,0,0,0l-0.5,0.3c0.1,0.1,0.2,0.1,0.3,0c0.1,0,0.1-0.1,0.1-0.2l0.2,0.1c0,0.1,0,0.1-0.1,0.2
		C347.6,396.1,347.5,396.2,347.5,396.2 M346.9,395.9l0.3-0.2c0,0-0.1-0.1-0.1-0.1c0,0-0.1,0-0.1,0c0,0-0.1,0.1-0.1,0.1
		C346.9,395.8,346.9,395.8,346.9,395.9"/>
	<path id="Path_484_00000111901132771178039720000004227816537519670713_" class="st16" d="M348,395.8l-0.5-0.8l0.2-0.1l0.1,0.1
		c0,0,0-0.1,0-0.2c0-0.1,0.1-0.1,0.1-0.1c0.1-0.1,0.2-0.1,0.2,0c0.1,0,0.2,0.1,0.2,0.2l0.3,0.5l-0.2,0.2l-0.3-0.5
		c0,0-0.1-0.1-0.1-0.1c0,0-0.1,0-0.1,0c0,0-0.1,0-0.1,0.1c0,0,0,0.1,0,0.1l0.4,0.5L348,395.8z"/>
	<path id="Path_485_00000086690896337482949150000011716610046459929789_" class="st16" d="M387.7,394.7l0.5-0.8l-0.3-0.2l0.1-0.2
		l0.8,0.5l-0.1,0.2l-0.3-0.2l-0.5,0.8L387.7,394.7z"/>
	<path id="Path_486_00000173874623476857522690000004306212130409921437_" class="st16" d="M388.6,395.3c-0.1,0-0.1-0.1-0.1-0.1
		c0-0.1,0-0.1-0.1-0.2c0-0.1,0-0.1,0-0.2c0-0.1,0.1-0.1,0.1-0.2c0-0.1,0.1-0.1,0.1-0.1c0.1,0,0.1-0.1,0.2-0.1c0.1,0,0.1,0,0.2,0
		c0.1,0,0.1,0,0.2,0.1c0.1,0.1,0.2,0.2,0.2,0.3c0,0.1,0,0.1,0,0.2c0,0.1-0.1,0.1-0.1,0.2c0,0.1-0.1,0.1-0.1,0.1
		c-0.1,0.1-0.2,0.1-0.4,0.1C388.7,395.4,388.7,395.4,388.6,395.3 M388.8,395.1c0,0,0.1,0,0.1,0c0.1,0,0.1-0.1,0.1-0.1
		c0-0.1,0.1-0.1,0.1-0.2c0-0.1,0-0.1-0.1-0.1c0,0-0.1,0-0.1,0c-0.1,0-0.1,0.1-0.1,0.1c0,0.1-0.1,0.1-0.1,0.2
		C388.7,395.1,388.7,395.1,388.8,395.1"/>
	<path id="Path_487_00000010269048690663827300000009037086161510356159_" class="st16" d="M389.6,396c-0.1,0-0.1-0.1-0.1-0.1
		c0-0.1-0.1-0.1-0.1-0.2c0-0.1,0-0.1,0-0.2c0-0.1,0.1-0.1,0.1-0.2c0-0.1,0.1-0.1,0.2-0.1c0.1,0,0.1-0.1,0.2-0.1c0.1,0,0.1,0,0.2,0
		c0.1,0,0.1,0,0.2,0.1c0.1,0,0.1,0.1,0.1,0.1c0,0,0,0.1,0,0.1c0,0.1,0,0.1,0,0.2c0,0.1,0,0.1-0.1,0.2l0,0l0,0l-0.5-0.3
		c0,0.1,0,0.1,0,0.2c0,0.1,0,0.1,0.1,0.1c0.1,0,0.1,0.1,0.2,0.1l0,0.2c-0.1,0-0.1,0-0.2,0C389.7,396.1,389.6,396,389.6,396
		 M389.8,395.4l0.3,0.2c0,0,0-0.1,0-0.1c0,0,0-0.1-0.1-0.1c0,0-0.1,0-0.1,0C389.8,395.3,389.8,395.4,389.8,395.4"/>
	<path id="Path_488_00000075847425109575365970000017791655532059662736_" class="st16" d="M390.4,396.6c-0.1-0.1-0.1-0.1-0.1-0.2
		c0,0,0-0.1,0-0.1c0,0,0-0.1,0.1-0.1l0.2-0.3l-0.1-0.1l0.1-0.2l0.1,0.1l0.2-0.2l0.2,0.1l-0.2,0.2l0.2,0.1l-0.1,0.2l-0.2-0.1
		l-0.2,0.3c0,0,0,0.1,0,0.1c0,0,0,0.1,0,0.1c0,0,0,0,0,0c0,0,0,0,0,0l-0.1,0.2c0,0,0,0-0.1,0C390.4,396.7,390.4,396.6,390.4,396.6"
		/>
	<path id="Path_489_00000094617652486988169430000015282740364489357196_" class="st16" d="M390.9,397.1c-0.1,0-0.1-0.1-0.1-0.1
		c0-0.1-0.1-0.1-0.1-0.2l0.2,0c0,0,0,0.1,0,0.1c0,0,0,0.1,0.1,0.1c0,0,0,0,0.1,0c0,0,0.1,0,0.1,0c0,0,0-0.1,0-0.1c0,0,0,0,0-0.1
		c0,0,0,0,0-0.1c0,0,0-0.1,0-0.1c0,0,0-0.1,0-0.1v-0.1c0,0,0-0.1,0-0.1c0,0,0.1-0.1,0.1-0.1c0,0,0.1,0,0.1,0c0,0,0.1,0,0.1,0
		c0,0,0.1,0,0.1,0.1c0,0,0.1,0.1,0.1,0.1c0,0.1,0,0.1,0.1,0.2l-0.2,0c0,0,0-0.1,0-0.1c0,0,0-0.1-0.1-0.1c0,0-0.1,0-0.1,0
		c0,0,0,0,0,0c0,0,0,0,0,0c0,0,0,0,0,0.1c0,0,0,0,0,0.1c0,0,0,0.1,0,0.1c0,0,0,0.1,0,0.1v0.1c0,0,0,0.1,0,0.1c0,0-0.1,0.1-0.1,0.1
		c0,0-0.1,0-0.1,0c0,0-0.1,0-0.1,0C391,397.1,391,397.1,390.9,397.1"/>
	<path id="Path_490_00000140000896027771523390000017201515020566442910_" class="st16" d="M391.2,397.7l0.9-1l0.2,0.1l0,0.1
		c0,0,0.1,0,0.1,0c0,0,0.1,0,0.1,0.1c0,0,0.1,0.1,0.1,0.1c0,0,0,0.1,0,0.1c0,0.1,0,0.1,0,0.2c0,0.1-0.1,0.1-0.1,0.2
		c0,0.1-0.1,0.1-0.2,0.1c-0.1,0-0.1,0.1-0.2,0.1c-0.1,0-0.1,0-0.2,0c0,0-0.1,0-0.1-0.1c0,0,0-0.1-0.1-0.1c0,0,0-0.1,0-0.1l-0.1,0.1
		l-0.2,0.2L391.2,397.7z M391.9,397.6c0,0,0.1,0,0.1,0c0.1,0,0.1-0.1,0.2-0.1c0.1-0.1,0.1-0.2,0-0.3c-0.1,0-0.1-0.1-0.2,0l-0.3,0.3
		C391.8,397.5,391.8,397.5,391.9,397.6C391.9,397.5,391.9,397.6,391.9,397.6"/>
	<path id="Path_491_00000159461595901025964760000008347428214456096689_" class="st16" d="M392.3,398.3l0.6-0.7l0.2,0.2l-0.1,0.1
		c0.1,0,0.1,0,0.2,0c0.1,0,0.1,0,0.1,0.1l0,0c0,0,0,0,0,0l-0.2,0.1c0,0,0,0,0,0c0,0,0,0,0,0c0,0-0.1,0-0.1,0c-0.1,0-0.1,0-0.2,0
		l-0.4,0.4L392.3,398.3z"/>
	<path id="Path_492_00000168081297194342402760000001962271928408064912_" class="st16" d="M393.2,399.1c0,0-0.1-0.1-0.1-0.1
		c0-0.1,0-0.1,0-0.2c0-0.1,0-0.1,0-0.2c0.1-0.1,0.2-0.2,0.3-0.3c0.1,0,0.1,0,0.2,0c0.1,0,0.1,0,0.2,0c0.1,0,0.2,0.1,0.2,0.2
		c0,0.1,0,0.2,0,0.4c0,0.1-0.1,0.1-0.1,0.2c-0.1,0.1-0.1,0.1-0.2,0.1c-0.1,0-0.1,0-0.2,0c-0.1,0-0.1,0-0.2,0
		C393.3,399.2,393.2,399.2,393.2,399.1 M393.4,399c0,0,0.1,0,0.1,0c0.1,0,0.1-0.1,0.2-0.1c0.1,0,0.1-0.1,0.1-0.2c0-0.1,0-0.1,0-0.1
		c0,0-0.1-0.1-0.1,0c-0.1,0-0.1,0.1-0.2,0.1c-0.1,0-0.1,0.1-0.1,0.2C393.3,398.9,393.3,398.9,393.4,399"/>
	<path id="Path_493_00000138536645990364408030000009287696700138561976_" class="st16" d="M393.7,400.1c0,0-0.1-0.1-0.1-0.1
		c0,0,0-0.1,0-0.1c0,0,0-0.1,0-0.1c0,0,0-0.1,0.1-0.1c0.1-0.1,0.2-0.1,0.2,0v-0.1c0,0,0-0.1,0-0.1c0,0,0.1,0,0.1,0h0.1
		c0,0,0-0.1,0-0.1c0-0.1,0-0.1,0.1-0.1c0,0,0.1-0.1,0.1-0.1c0,0,0.1,0,0.1,0c0,0,0.1,0,0.1,0c0,0,0.1,0.1,0.1,0.1
		c0,0,0.1,0.1,0.1,0.1l0.2,0.3l-0.1,0.1l-0.1-0.1c0,0,0,0,0,0l0,0c0,0-0.1,0.1-0.1,0.1c0,0-0.1,0-0.1,0c0,0-0.1,0-0.1,0
		c0,0-0.1-0.1-0.1-0.1c0,0,0-0.1-0.1-0.1h0c0,0,0,0,0,0c0,0,0,0,0,0.1s0,0,0.1,0.1l0.1,0.1c0.1,0.1,0.1,0.1,0.1,0.2
		c0,0.1,0,0.1-0.1,0.2c0,0-0.1,0.1-0.1,0.1c0,0-0.1,0-0.1,0c-0.1,0-0.1,0-0.2-0.1C393.8,400.3,393.7,400.2,393.7,400.1 M393.8,400
		c0,0,0.1,0.1,0.1,0.1c0,0,0.1,0,0.1,0c0,0,0,0,0-0.1c0,0,0-0.1-0.1-0.1l-0.1-0.1c0,0,0,0,0-0.1c0,0,0,0,0,0c0,0-0.1,0-0.1,0
		c0,0,0,0.1,0,0.1C393.8,400,393.8,400,393.8,400 M394.3,399.6C394.4,399.6,394.4,399.6,394.3,399.6c0.1,0,0.2,0,0.2,0
		c0,0,0.1-0.1,0.1-0.1c0,0,0-0.1,0-0.1c0,0-0.1,0-0.1,0c0,0-0.1,0-0.1,0c0,0-0.1,0.1-0.1,0.1C394.3,399.5,394.3,399.5,394.3,399.6"
		/>
	<path id="Path_494_00000041290373457526217460000014716861261565066172_" class="st16" d="M394.5,400.4l0.7-0.6l0.2,0.2l-0.1,0.1
		c0.1,0,0.1,0,0.2,0c0,0,0.1,0,0.1,0.1l0,0c0,0,0,0,0,0l-0.2,0.1c0,0,0,0,0,0c0,0,0,0,0,0c0,0-0.1,0-0.1-0.1c-0.1,0-0.1,0-0.2,0
		l-0.4,0.4L394.5,400.4z"/>
	<path id="Path_495_00000093878386773883185050000004834224846759073704_" class="st16" d="M395.2,401.2
		C395.1,401.2,395.1,401.2,395.2,401.2c-0.1-0.1-0.1-0.2-0.1-0.2c0,0,0-0.1,0-0.1c0,0,0-0.1,0.1-0.1c0.1-0.1,0.2-0.1,0.3,0
		c0.1,0.1,0.3,0.1,0.4,0.2c0,0,0-0.1,0-0.1c0,0,0-0.1,0-0.1c0,0-0.1-0.1-0.1-0.1c0,0-0.1,0-0.1-0.1l0.1-0.2c0.1,0,0.1,0,0.2,0.1
		c0.1,0,0.1,0.1,0.2,0.1c0.1,0.1,0.1,0.2,0.1,0.3c0,0.1-0.1,0.2-0.2,0.3l-0.4,0.4l-0.1-0.2l0.1-0.1c-0.1,0-0.1,0-0.1,0
		C395.2,401.3,395.2,401.3,395.2,401.2 M395.4,401.1C395.4,401.2,395.4,401.2,395.4,401.1c0.1,0.1,0.1,0.1,0.2,0.1l0.1-0.1
		c-0.1-0.1-0.1-0.1-0.2-0.1c0,0-0.1,0-0.1,0C395.4,401,395.4,401,395.4,401.1C395.4,401.1,395.4,401.1,395.4,401.1"/>
	<path id="Path_496_00000120535708862906755100000005737139116309448588_" class="st16" d="M395.7,401.9l0.7-0.6l0.1,0.2l-0.1,0.1
		c0.1,0,0.1,0,0.2,0c0.1,0,0.1,0.1,0.1,0.1c0,0,0.1,0.1,0.1,0.2c0,0.1,0,0.1,0,0.1c0.1,0,0.1,0,0.2,0c0.1,0,0.1,0.1,0.1,0.1
		c0.1,0.1,0.1,0.2,0.1,0.2c0,0.1-0.1,0.2-0.2,0.2l-0.5,0.4l-0.2-0.2l0.4-0.3c0,0,0.1-0.1,0.1-0.1c0,0,0-0.1,0-0.1
		c0,0-0.1-0.1-0.2-0.1l-0.5,0.4l-0.2-0.2l0.4-0.3c0,0,0.1-0.1,0.1-0.1c0,0,0-0.1,0-0.1c0,0-0.1-0.1-0.2-0.1l-0.5,0.4L395.7,401.9z"
		/>
	<path id="Path_497_00000163770558431076193300000013476775644280048801_" class="st16" d="M396.8,403.2l0.8-0.5l0.1,0.2l-0.1,0.1
		c0.1,0,0.1,0,0.2,0c0.1,0,0.1,0.1,0.1,0.1c0,0,0.1,0.1,0.1,0.2c0,0,0,0.1,0,0.1c0.1,0,0.1,0,0.2,0c0.1,0,0.1,0.1,0.1,0.1
		c0.1,0.1,0.1,0.2,0,0.2c0,0.1-0.1,0.2-0.2,0.2l-0.5,0.3l-0.2-0.2l0.5-0.3c0,0,0.1-0.1,0.1-0.1c0,0,0-0.1,0-0.1c0,0-0.1-0.1-0.2-0.1
		l-0.5,0.4l-0.2-0.2l0.5-0.3c0,0,0.1-0.1,0.1-0.1c0,0,0-0.1,0-0.1c0,0-0.1-0.1-0.2-0.1l-0.5,0.4L396.8,403.2z"/>
	<path id="Path_498_00000044164198810809603860000015689772552189641603_" class="st16" d="M397.9,404.8c0,0,0-0.1,0-0.1v-0.1
		c0,0,0-0.1,0-0.1c0,0,0,0,0.1-0.1c0.1-0.1,0.2-0.1,0.3,0c0.1,0.1,0.2,0.2,0.3,0.3c0,0,0-0.1,0.1-0.1c0,0,0-0.1,0-0.1
		c0,0,0-0.1-0.1-0.1c0,0-0.1-0.1-0.1-0.1l0.1-0.2c0.1,0,0.1,0.1,0.2,0.1c0.1,0.1,0.1,0.1,0.1,0.2c0.1,0.1,0.1,0.2,0.1,0.3
		c0,0.1-0.1,0.2-0.2,0.3l-0.5,0.3l-0.1-0.2l0.1-0.1C398.1,405,398,404.9,397.9,404.8C398,404.9,397.9,404.9,397.9,404.8
		 M398.1,404.8C398.1,404.8,398.2,404.8,398.1,404.8c0.1,0.1,0.1,0.1,0.2,0.1l0.1-0.1c0-0.1-0.1-0.1-0.2-0.1c0,0-0.1,0-0.1,0
		C398.1,404.7,398.1,404.7,398.1,404.8C398.1,404.7,398.1,404.8,398.1,404.8"/>
	<path id="Path_499_00000171692132159199101530000010827639990775882162_" class="st16" d="M397.6,446.3l-0.8-0.6l-0.2,0.3l-0.2-0.1
		l0.6-0.8l0.2,0.1l-0.2,0.3l0.8,0.6L397.6,446.3z"/>
	<path id="Path_500_00000158000104292858916040000011528695411604455582_" class="st16" d="M398.3,445.4c0,0.1-0.1,0.1-0.1,0.1
		c-0.1,0-0.1,0.1-0.2,0.1c-0.1,0-0.1,0-0.2,0c-0.1,0-0.1-0.1-0.2-0.1c-0.1,0-0.1-0.1-0.1-0.2c0-0.1-0.1-0.1-0.1-0.2
		c0-0.1,0-0.1,0-0.2c0-0.1,0-0.1,0.1-0.2c0-0.1,0.1-0.1,0.1-0.1c0.1,0,0.1,0,0.2-0.1c0.1,0,0.1,0,0.2,0c0.1,0,0.1,0.1,0.2,0.1
		c0.1,0,0.1,0.1,0.1,0.2c0,0.1,0.1,0.1,0.1,0.2c0,0.1,0,0.1,0,0.2C398.3,445.3,398.3,445.4,398.3,445.4 M398.1,445.3
		c0,0,0-0.1,0-0.1c0-0.1-0.1-0.1-0.1-0.2c-0.1,0-0.1-0.1-0.2-0.1c-0.1,0-0.1,0-0.1,0.1c0,0,0,0.1,0,0.1c0,0.1,0.1,0.1,0.1,0.2
		c0.1,0,0.1,0.1,0.2,0.1C398,445.3,398.1,445.3,398.1,445.3C398.1,445.3,398.1,445.3,398.1,445.3"/>
	<path id="Path_501_00000038385050869356734470000006347293525284313525_" class="st16" d="M399,444.4c0,0.1-0.1,0.1-0.1,0.1
		c-0.1,0-0.1,0.1-0.2,0.1c-0.1,0-0.1,0-0.2,0c-0.1,0-0.1-0.1-0.2-0.1c-0.1,0-0.1-0.1-0.2-0.1c0-0.1-0.1-0.1-0.1-0.2
		c0-0.1,0-0.1,0-0.2c0-0.1,0-0.1,0.1-0.2c0-0.1,0.1-0.1,0.1-0.1c0,0,0.1,0,0.2,0c0.1,0,0.1,0,0.2,0c0.1,0,0.1,0,0.2,0.1
		c0,0,0,0,0.1,0l0,0l-0.3,0.5c0.1,0,0.1,0,0.2,0c0.1,0,0.1-0.1,0.1-0.1c0-0.1,0.1-0.1,0.1-0.2l0.2,0c0,0.1,0,0.1,0,0.2
		C399,444.3,399,444.4,399,444.4 M398.3,444.3l0.2-0.3c0,0-0.1,0-0.1,0c0,0-0.1,0-0.1,0.1c0,0,0,0.1,0,0.1
		C398.2,444.2,398.3,444.2,398.3,444.3"/>
	<path id="Path_502_00000067203459871484651480000003432914328955145619_" class="st16" d="M399.5,443.6c0,0-0.1,0.1-0.1,0.1
		c0,0-0.1,0-0.1,0c0,0-0.1,0-0.1,0c-0.1,0-0.1,0-0.1-0.1l-0.3-0.2l-0.1,0.1l-0.2-0.1l0.1-0.1l-0.2-0.2l0.1-0.2l0.2,0.1l0.1-0.2
		l0.2,0.1l-0.1,0.2l0.3,0.2c0,0,0.1,0,0.1,0c0,0,0.1,0,0.1-0.1c0,0,0,0,0,0c0,0,0,0,0,0l0.2,0.1
		C399.6,443.4,399.6,443.4,399.5,443.6C399.6,443.5,399.5,443.5,399.5,443.6"/>
	<path id="Path_503_00000034790278875300570510000015733960719795983749_" class="st16" d="M399.9,442.9c0,0.1-0.1,0.1-0.1,0.1
		c0,0-0.1,0.1-0.2,0.1l-0.1-0.2c0,0,0.1,0,0.1-0.1c0,0,0.1,0,0.1-0.1c0,0,0-0.1,0-0.1c0,0,0,0,0,0c0,0,0,0,0,0c0,0,0,0,0,0
		c0,0,0,0,0,0c0,0,0,0-0.1,0c0,0,0,0-0.1,0c0,0,0,0-0.1,0c0,0-0.1,0-0.1,0c0,0-0.1,0-0.1,0c0,0-0.1,0-0.1,0c0,0-0.1,0-0.1-0.1
		c0,0,0-0.1,0-0.1v-0.1c0-0.1,0-0.1,0.1-0.1c0-0.1,0.1-0.1,0.1-0.1c0,0,0.1-0.1,0.1-0.1l0.1,0.2c0,0-0.1,0-0.1,0.1
		c0,0,0,0.1-0.1,0.1c0,0.1,0,0.1,0,0.1c0,0,0,0,0,0c0,0,0,0,0,0c0,0,0,0,0,0c0,0,0,0,0,0c0,0,0,0,0.1,0c0,0,0.1,0,0.1-0.1
		c0,0,0.1,0,0.1,0c0,0,0.1,0,0.1,0c0,0,0.1,0,0.1,0c0,0,0.1,0,0.1,0.1c0,0,0,0.1,0,0.1v0.1C400,442.8,399.9,442.9,399.9,442.9"/>
	<path id="Path_504_00000082368868374993190330000013232743378711397012_" class="st16" d="M400.5,441.9
		C400.5,441.9,400.4,442,400.5,441.9c-0.1,0.1-0.2,0.1-0.2,0.2l0.1,0.1l-0.1,0.2l-1.2-0.7l0.1-0.3l0.3,0.2l0.1,0.1c0,0,0-0.1,0-0.1
		c0,0,0-0.1,0-0.1c0-0.1,0.1-0.1,0.1-0.1c0,0,0.1,0,0.1-0.1c0.1,0,0.1,0,0.2,0c0.1,0,0.1,0,0.2,0.1c0.1,0,0.1,0.1,0.2,0.1
		c0,0,0.1,0.1,0.1,0.2c0,0.1,0,0.1,0,0.2C400.6,441.8,400.5,441.9,400.5,441.9 M400.3,441.8c0,0,0-0.1,0-0.1c0-0.1-0.1-0.1-0.2-0.1
		c-0.1-0.1-0.3-0.1-0.3,0c0,0.1,0,0.1,0,0.2l0.3,0.2C400.2,441.9,400.2,441.9,400.3,441.8C400.2,441.9,400.3,441.9,400.3,441.8"/>
	<path id="Path_505_00000056388989553638570000000007808402134972864164_" class="st16" d="M401.1,440.9c0,0.1-0.1,0.1-0.1,0.2
		c0,0-0.1,0.1-0.2,0.1c-0.1,0-0.1,0-0.2,0c-0.1,0-0.1,0-0.2-0.1c-0.1,0-0.1-0.1-0.2-0.1c0,0-0.1-0.1-0.1-0.2c0-0.1,0-0.1,0-0.2
		c0-0.1,0-0.1,0-0.2c0-0.1,0.1-0.1,0.1-0.1c0,0,0.1-0.1,0.1-0.1c0.1,0,0.1,0,0.2,0c0.1,0,0.1,0,0.2,0.1c0,0,0,0,0.1,0c0,0,0,0,0,0
		l-0.3,0.5c0.1,0,0.1,0,0.2,0c0.1,0,0.1-0.1,0.1-0.1c0-0.1,0-0.1,0-0.2h0.2v0.2C401.1,440.8,401.1,440.9,401.1,440.9 M400.4,440.8
		l0.2-0.3c0,0-0.1,0-0.1,0c0,0-0.1,0-0.1,0.1c0,0,0,0.1,0,0.1C400.3,440.7,400.4,440.8,400.4,440.8"/>
	<path id="Path_506_00000026873841357375321270000011289720250698341817_" class="st16" d="M401.5,440.1
		C401.5,440.1,401.4,440.1,401.5,440.1l-0.2,0.1h-0.1c0,0-0.1,0-0.1,0l-1-0.5l0.1-0.3l1,0.5c0,0,0,0,0.1,0c0,0,0,0,0,0v0l0.2,0.1
		C401.5,440,401.5,440,401.5,440.1C401.5,440,401.5,440,401.5,440.1"/>
	<path id="Path_507_00000137834981962607162240000009632852685189370541_" class="st16" d="M401.8,439.3c0,0.1-0.1,0.1-0.1,0.2
		c0,0-0.1,0.1-0.2,0.1c-0.1,0-0.1,0-0.2,0c-0.1,0-0.1,0-0.2,0c-0.1,0-0.1-0.1-0.2-0.1c0,0-0.1-0.1-0.1-0.2c0-0.1,0-0.1,0-0.2
		c0-0.1,0-0.1,0-0.2c0-0.1,0.1-0.1,0.1-0.1c0,0,0.1-0.1,0.1-0.1c0.1,0,0.1,0,0.2,0c0.1,0,0.1,0,0.2,0c0,0,0,0,0.1,0c0,0,0,0,0,0
		l-0.2,0.5c0.1,0,0.1,0,0.2,0c0,0,0.1-0.1,0.1-0.1c0-0.1,0-0.1,0-0.2l0.2,0c0,0.1,0,0.1,0,0.2C401.9,439.2,401.9,439.3,401.8,439.3
		 M401.2,439.3l0.1-0.3c0,0-0.1,0-0.1,0c0,0-0.1,0-0.1,0.1c0,0,0,0.1,0,0.1C401.1,439.2,401.1,439.2,401.2,439.3"/>
	<path id="Path_508_00000058563584378489166310000011480442879066720898_" class="st16" d="M401.1,438.1
		C401.1,438.2,401.1,438.2,401.1,438.1c-0.1,0.1-0.2,0.1-0.2,0.1c0,0-0.1,0-0.1-0.1c0,0,0-0.1,0-0.1c0,0,0-0.1,0.1-0.1
		c0,0,0.1,0,0.1,0c0,0,0.1,0,0.1,0.1C401.1,438,401.1,438.1,401.1,438.1 M402.1,438.7l-0.9-0.4l0.1-0.3l0.9,0.4L402.1,438.7z"/>
	<path id="Path_509_00000147208716156195380650000007440324282036226479_" class="st16" d="M402.5,437.8c0,0.1-0.1,0.1-0.1,0.1
		c0,0-0.1,0.1-0.1,0.1c-0.1,0-0.1,0-0.2,0c-0.1,0-0.1,0-0.2,0c-0.1,0-0.1-0.1-0.2-0.1c0,0-0.1-0.1-0.1-0.1c0,0,0-0.1,0-0.2
		c0,0,0-0.1,0-0.1c0,0,0-0.1,0.1-0.1c0,0,0.1,0,0.1-0.1l-0.1,0l-0.3-0.1l0.1-0.3l1.3,0.5l-0.1,0.2l-0.1,0c0,0,0,0.1,0,0.1
		C402.5,437.7,402.5,437.8,402.5,437.8 M402.3,437.7C402.3,437.6,402.3,437.6,402.3,437.7c0-0.1,0-0.1,0-0.2l-0.4-0.1
		c0,0-0.1,0-0.1,0c0,0,0,0,0,0.1c0,0,0,0.1,0,0.1c0,0.1,0.1,0.1,0.2,0.1c0.1,0,0.1,0,0.2,0C402.2,437.7,402.3,437.7,402.3,437.7"/>
	<path id="Path_510_00000128442893364481755380000001097982049888667569_" class="st16" d="M361.6,459.8l0.2-1l-0.3-0.1l0-0.2l1,0.2
		l0,0.2l-0.3-0.1l-0.2,1L361.6,459.8z"/>
	<path id="Path_511_00000139272257602314707590000003227016005059248269_" class="st16" d="M362.7,460.1c-0.1,0-0.1,0-0.2-0.1
		c-0.1,0-0.1-0.1-0.1-0.1c0-0.1-0.1-0.1-0.1-0.2c0-0.1,0-0.1,0-0.2c0-0.1,0-0.1,0.1-0.2c0-0.1,0.1-0.1,0.1-0.1c0,0,0.1-0.1,0.2-0.1
		c0.1,0,0.1,0,0.2,0c0.1,0,0.1,0,0.2,0.1c0.1,0,0.1,0.1,0.1,0.1c0,0.1,0.1,0.1,0.1,0.2c0,0.1,0,0.1,0,0.2c0,0.1,0,0.1-0.1,0.2
		c0,0.1-0.1,0.1-0.1,0.1c0,0-0.1,0.1-0.2,0.1C362.8,460.1,362.8,460.1,362.7,460.1 M362.8,459.8c0.1,0,0.1,0,0.1,0
		c0-0.1,0.1-0.1,0.1-0.2c0-0.1,0-0.1,0-0.2c0,0-0.1-0.1-0.1-0.1c-0.1,0-0.1,0-0.1,0c0,0.1-0.1,0.1-0.1,0.2c0,0.1,0,0.1,0,0.2
		C362.7,459.8,362.7,459.8,362.8,459.8"/>
	<path id="Path_512_00000018922602333891906380000009933667421686089620_" class="st16" d="M363.9,460.2c-0.1,0-0.1,0-0.2-0.1
		c-0.1,0-0.1-0.1-0.1-0.1c0-0.1-0.1-0.1-0.1-0.2c0-0.1,0-0.1,0-0.2c0-0.1,0-0.1,0.1-0.2c0-0.1,0.1-0.1,0.1-0.1c0,0,0.1-0.1,0.2-0.1
		c0.1,0,0.1,0,0.2,0c0.1,0,0.1,0,0.2,0.1c0,0,0.1,0.1,0.1,0.1c0,0,0,0.1,0,0.2v0.2c0,0,0,0,0,0.1s0,0,0,0l-0.6-0.1
		c0,0.1,0,0.1,0.1,0.2c0,0,0.1,0.1,0.1,0.1c0.1,0,0.1,0,0.2,0l0.1,0.2c-0.1,0-0.1,0-0.2,0C364,460.3,363.9,460.3,363.9,460.2
		 M363.8,459.6l0.3,0c0,0,0-0.1,0-0.1c0,0-0.1-0.1-0.1-0.1c0,0-0.1,0-0.1,0C363.8,459.5,363.8,459.6,363.8,459.6"/>
	<path id="Path_513_00000125574074599785303820000001063730968874290082_" class="st16" d="M364.9,460.4c-0.1,0-0.1,0-0.1,0
		c0,0-0.1,0-0.1-0.1c0,0,0-0.1,0-0.1V460l0-0.4l-0.1,0l0-0.2h0.1l0.1-0.2l0.2,0l0,0.3l0.2,0l0,0.2l-0.2,0l0,0.4c0,0,0,0.1,0,0.1
		c0,0,0,0,0.1,0h0.1l0,0.2C365,460.4,365,460.4,364.9,460.4C365,460.4,364.9,460.4,364.9,460.4"/>
	<path id="Path_514_00000150801893428319253490000016670333620661407666_" class="st16" d="M365.6,460.5c-0.1,0-0.1,0-0.2,0
		c-0.1,0-0.1-0.1-0.2-0.1l0.1-0.2c0,0,0.1,0.1,0.1,0.1c0,0,0.1,0,0.1,0c0,0,0.1,0,0.1,0c0,0,0,0,0,0c0,0,0,0,0,0c0,0,0,0,0,0
		c0,0,0,0-0.1,0c0,0,0,0-0.1,0c0,0,0,0-0.1,0c0,0-0.1,0-0.1-0.1c0,0,0,0,0-0.1c0,0,0-0.1,0-0.1c0,0,0-0.1,0-0.1c0,0,0-0.1,0.1-0.1
		c0,0,0.1,0,0.1,0c0,0,0.1,0,0.1,0c0.1,0,0.1,0,0.2,0.1c0,0,0.1,0.1,0.1,0.1l-0.1,0.2c0,0-0.1,0-0.1-0.1c0,0-0.1,0-0.1,0
		c-0.1,0-0.1,0-0.1,0.1c0,0,0,0,0,0l0,0c0,0,0,0,0,0c0,0,0,0,0.1,0c0,0,0.1,0,0.1,0c0,0,0.1,0,0.1,0.1c0,0,0,0.1,0,0.1
		c0,0,0,0.1,0,0.1c0,0,0,0.1,0,0.1c0,0,0,0.1-0.1,0.1c0,0-0.1,0-0.1,0C365.7,460.5,365.6,460.5,365.6,460.5"/>
	<path id="Path_515_00000072281335359160083120000007062781015290885766_" class="st16" d="M366.6,460.6c-0.1,0-0.1,0-0.2,0
		c-0.1,0-0.1-0.1-0.1-0.1c0-0.1-0.1-0.1-0.1-0.2c0-0.1,0-0.3,0-0.4c0-0.1,0.1-0.1,0.1-0.1c0,0,0.1-0.1,0.2-0.1c0.1,0,0.1,0,0.2,0
		c0.1,0,0.1,0,0.2,0c0.1,0,0.1,0.1,0.1,0.1c0,0.1,0.1,0.1,0.1,0.2c0,0.1,0,0.3,0,0.4c0,0.1-0.1,0.1-0.1,0.1c0,0-0.1,0.1-0.2,0.1
		C366.8,460.6,366.7,460.6,366.6,460.6 M366.7,460.3c0.1,0,0.1,0,0.1-0.1c0-0.1,0.1-0.1,0.1-0.2c0-0.1,0-0.1,0-0.2
		c0,0-0.1-0.1-0.1-0.1c-0.1,0-0.1,0-0.1,0.1c0,0.1-0.1,0.1-0.1,0.2c0,0.1,0,0.1,0,0.2C366.6,460.3,366.6,460.3,366.7,460.3"/>
	<path id="Path_516_00000089547331681870272750000017180895962722358688_" class="st16" d="M367.4,460.6l0-1l0.2,0l0,0.2
		c0-0.1,0.1-0.1,0.1-0.1c0,0,0.1,0,0.1,0h0.1c0,0,0,0,0,0l-0.1,0.2c0,0,0,0,0,0h0c0,0-0.1,0-0.1,0c0,0-0.1,0.1-0.1,0.1l0,0.5
		L367.4,460.6z"/>
	<path id="Path_517_00000028284803374816094220000012344997753449924737_" class="st16" d="M368.6,461c-0.1,0-0.1,0-0.2,0
		c0,0-0.1,0-0.1,0c0,0-0.1,0-0.1-0.1c0,0,0-0.1,0-0.1c0-0.1,0.1-0.2,0.1-0.2c0,0-0.1,0-0.1-0.1c0-0.1,0-0.1,0-0.2c0,0,0-0.1,0.1-0.1
		c0,0-0.1-0.1-0.1-0.1c0,0,0-0.1,0-0.1c0-0.1,0-0.1,0-0.1c0,0,0-0.1,0.1-0.1c0,0,0.1-0.1,0.1-0.1c0,0,0.1,0,0.1,0c0,0,0.1,0,0.1,0
		h0.3v0.2h-0.1c0,0,0,0,0,0c0,0,0,0,0,0.1c0,0,0,0.1,0,0.1c0,0,0,0.1-0.1,0.1c0,0-0.1,0-0.1,0.1c0,0-0.1,0-0.1,0c0,0-0.1,0-0.1,0
		l0,0v0c0,0,0,0,0,0c0,0,0.1,0,0.1,0h0.1c0.1,0,0.2,0,0.3,0.1c0.1,0,0.1,0.1,0.1,0.2c0,0,0,0.1,0,0.1c0,0-0.1,0.1-0.1,0.1
		c0,0-0.1,0.1-0.2,0.1C368.7,461,368.7,461,368.6,461 M368.6,460.9c0.1,0,0.1,0,0.2,0c0,0,0.1,0,0.1-0.1c0,0,0,0,0-0.1
		c0,0-0.1,0-0.1,0h-0.2c0,0,0,0,0,0c0,0,0,0.1,0,0.1c0,0,0,0.1,0.1,0.1C368.5,460.9,368.6,460.9,368.6,460.9 M368.6,460.2
		C368.6,460.2,368.7,460.1,368.6,460.2c0.1-0.1,0.1-0.1,0.1-0.1c0,0,0-0.1,0-0.1c0,0,0,0-0.1,0c0,0-0.1,0-0.1,0c0,0,0,0.1,0,0.1
		C368.5,460.1,368.5,460.1,368.6,460.2C368.5,460.1,368.6,460.2,368.6,460.2"/>
	<path id="Path_518_00000179626076188005647590000000702431641955827382_" class="st16" d="M369.6,460.7c0,0-0.1,0-0.1,0
		c0,0-0.1,0-0.1-0.1c0,0-0.1-0.1-0.1-0.1c0,0,0-0.1,0-0.1c0-0.1,0-0.2,0.1-0.2c0.1-0.1,0.3-0.1,0.4-0.1c0,0,0-0.1,0-0.1
		c0,0-0.1,0-0.1,0c0,0-0.1,0-0.1,0c0,0-0.1,0-0.1,0.1l-0.1-0.2l0.2-0.1c0.1,0,0.1,0,0.2,0c0.1,0,0.2,0,0.3,0.1
		c0.1,0.1,0.1,0.2,0.1,0.3v0.5h-0.2l0-0.1c0,0-0.1,0.1-0.1,0.1C369.7,460.6,369.6,460.7,369.6,460.7 M369.7,460.4
		C369.7,460.4,369.7,460.4,369.7,460.4c0.1,0,0.1,0,0.1-0.1v-0.2c-0.1,0-0.1,0-0.2,0.1c0,0-0.1,0.1,0,0.1
		C369.5,460.4,369.6,460.4,369.7,460.4C369.6,460.4,369.6,460.4,369.7,460.4"/>
	<path id="Path_519_00000021115405284442874670000007691111032352918450_" class="st16" d="M370.4,460.6l0-1l0.2,0l0,0.1
		c0,0,0.1-0.1,0.1-0.1c0.1-0.1,0.3-0.1,0.4,0c0.1,0.1,0.1,0.2,0.1,0.3l0,0.6l-0.3,0l0-0.5c0-0.1,0-0.1,0-0.1c0,0,0,0-0.1,0
		c0,0-0.1,0-0.1,0c0,0,0,0-0.1,0.1l0,0.6L370.4,460.6z"/>
	<path id="Path_520_00000023278357258934416920000000040180276442283153_" class="st16" d="M371.7,459.5c0,0-0.1,0-0.1,0
		c0,0,0-0.1,0-0.1c0,0,0-0.1,0-0.1c0,0,0.1,0,0.1,0c0,0,0.1,0,0.1,0c0,0,0,0.1,0,0.1c0,0,0,0.1,0,0.1
		C371.7,459.5,371.7,459.5,371.7,459.5 M371.6,460.6l-0.1-1l0.3,0l0.1,1L371.6,460.6z"/>
	<path id="Path_521_00000070076302814669496330000016507822494848105912_" class="st16" d="M372.5,460.5c-0.1,0-0.1,0-0.2,0
		c-0.1,0-0.1,0-0.2-0.1l0.1-0.2c0,0,0.1,0,0.1,0.1c0,0,0.1,0,0.1,0c0,0,0.1,0,0.1,0c0,0,0,0,0-0.1c0,0,0,0,0,0c0,0,0,0,0,0
		c0,0,0,0-0.1,0c0,0-0.1,0-0.1,0c0,0-0.1,0-0.1,0c0,0-0.1,0-0.1,0c0,0-0.1,0-0.1-0.1c0,0,0-0.1,0-0.1c0,0,0-0.1,0-0.1
		c0,0,0-0.1,0.1-0.1c0,0,0.1-0.1,0.1-0.1c0,0,0.1,0,0.1,0c0.1,0,0.1,0,0.2,0c0.1,0,0.1,0,0.1,0.1l-0.1,0.2c0,0-0.1,0-0.1,0
		c0,0-0.1,0-0.1,0c-0.1,0-0.1,0-0.1,0.1c0,0,0,0,0,0c0,0,0,0,0,0c0,0,0,0,0.1,0c0,0,0,0,0.1,0c0,0,0.1,0,0.1,0c0,0,0.1,0,0.1,0
		c0,0,0.1,0,0.1,0.1c0,0,0,0.1,0,0.1c0,0,0,0.1,0,0.1c0,0,0,0.1-0.1,0.1c0,0-0.1,0.1-0.1,0.1C372.6,460.5,372.5,460.5,372.5,460.5"
		/>
	<path id="Path_522_00000141415815577883205740000008598930429197376385_" class="st16" d="M373.4,460.4c0,0-0.1,0-0.1,0l-0.1,0
		c0,0-0.1,0-0.1-0.1c0,0,0-0.1,0-0.1c0-0.1,0-0.2,0.1-0.2c0.1-0.1,0.2-0.1,0.4-0.2c0,0,0-0.1,0-0.1c0,0-0.1,0-0.1,0c0,0-0.1,0-0.1,0
		c0,0-0.1,0-0.1,0.1l-0.1-0.2c0.1,0,0.1-0.1,0.2-0.1c0.1,0,0.1-0.1,0.2-0.1c0.1,0,0.2,0,0.3,0.1c0.1,0.1,0.1,0.2,0.1,0.3l0.1,0.5
		l-0.2,0l0-0.1c0,0-0.1,0.1-0.1,0.1C373.5,460.4,373.4,460.4,373.4,460.4 M373.4,460.2C373.5,460.2,373.5,460.2,373.4,460.2
		c0.1,0,0.1-0.1,0.1-0.1l0-0.2c-0.1,0-0.1,0-0.2,0.1c0,0,0,0.1,0,0.1C373.3,460.2,373.3,460.2,373.4,460.2
		C373.4,460.2,373.4,460.2,373.4,460.2"/>
	<path id="Path_523_00000049197316530409775980000007769753481066251940_" class="st16" d="M374.6,460.3c0,0-0.1,0-0.1,0
		c0,0-0.1,0-0.1-0.1c0,0-0.1-0.1-0.1-0.1c0,0,0-0.1,0-0.1l0-0.4l-0.1,0l0-0.2l0.1,0v-0.3l0.2,0l0,0.2l0.2,0l0,0.2l-0.2,0l0,0.4
		c0,0,0,0.1,0,0.1c0,0,0.1,0,0.1,0c0,0,0,0,0,0c0,0,0,0,0,0l0.1,0.2c0,0,0,0-0.1,0C374.7,460.2,374.6,460.3,374.6,460.3"/>
	<path id="Path_524_00000053521979812320980860000013113383653913447858_" class="st16" d="M375,459.1c0,0-0.1,0-0.1,0
		c0,0-0.1-0.1-0.1-0.1c0,0,0-0.1,0-0.1c0,0,0.1-0.1,0.1-0.1c0,0,0.1,0,0.1,0c0,0,0.1,0.1,0.1,0.1c0,0,0,0.1,0,0.1
		C375.1,459.1,375,459.1,375,459.1 M375,460.2l-0.2-0.9l0.3,0l0.2,0.9L375,460.2z"/>
	<path id="Path_525_00000172428495526405793160000012334217845153869499_" class="st16" d="M376,460c-0.1,0-0.1,0-0.2,0
		c-0.1,0-0.2-0.1-0.3-0.2c0-0.1-0.1-0.1-0.1-0.2c0-0.1,0-0.1,0-0.2c0-0.1,0-0.1,0.1-0.2c0-0.1,0.1-0.1,0.1-0.1c0,0,0.1-0.1,0.2-0.1
		c0.1,0,0.1,0,0.2,0c0.1,0,0.1,0,0.1,0.1c0,0,0.1,0.1,0.1,0.1c0,0.1,0.1,0.1,0.1,0.2c0,0,0,0,0,0.1v0l-0.6,0.1
		c0,0.1,0.1,0.1,0.1,0.1c0.1,0,0.1,0,0.2,0c0.1,0,0.1-0.1,0.2-0.1l0.1,0.1c0,0-0.1,0.1-0.1,0.1C376.2,460,376.1,460,376,460
		 M375.7,459.5l0.3-0.1c0,0,0-0.1-0.1-0.1c0,0-0.1,0-0.1,0c0,0-0.1,0-0.1,0.1C375.7,459.4,375.7,459.4,375.7,459.5"/>
	<path id="Path_526_00000129900229266008888720000014661550972611144579_" class="st16" d="M333.3,431.1l1-0.2l-0.1-0.3l0.2,0l0.2,1
		l-0.2,0l0-0.4l-1,0.2L333.3,431.1z"/>
	<path id="Path_527_00000156560748774940730270000013633986743188331952_" class="st16" d="M333.6,432.2c0-0.1,0-0.1,0-0.2
		c0-0.1,0.1-0.2,0.2-0.3c0.1,0,0.1-0.1,0.2-0.1c0.1,0,0.2,0,0.2,0c0.1,0,0.1,0,0.2,0.1c0.1,0,0.1,0.1,0.1,0.1c0,0,0.1,0.1,0.1,0.2
		c0,0.1,0,0.1,0,0.2c0,0.1,0,0.1-0.1,0.2c0,0.1-0.1,0.1-0.1,0.1c-0.1,0-0.1,0.1-0.2,0.1c-0.1,0-0.2,0-0.2,0c-0.1,0-0.1,0-0.2-0.1
		c-0.1,0-0.1-0.1-0.1-0.1C333.6,432.3,333.6,432.3,333.6,432.2 M333.8,432.2c0,0.1,0,0.1,0.1,0.1c0.1,0,0.1,0,0.2,0
		c0.1,0,0.1,0,0.2-0.1c0,0,0.1-0.1,0-0.1c0-0.1,0-0.1-0.1-0.1c-0.1,0-0.1,0-0.2,0c-0.1,0-0.1,0-0.2,0.1
		C333.8,432,333.8,432.1,333.8,432.2"/>
	<path id="Path_528_00000105392916147427035260000009924424491361784252_" class="st16" d="M333.8,433.4c0-0.1,0-0.1,0-0.2
		c0-0.1,0-0.1,0.1-0.2c0-0.1,0.1-0.1,0.1-0.1c0.1,0,0.1-0.1,0.2-0.1c0.1,0,0.1,0,0.2,0c0.1,0,0.1,0,0.2,0.1c0.1,0,0.1,0.1,0.1,0.1
		c0,0,0.1,0.1,0.1,0.2c0,0.1,0,0.1,0,0.2c0,0.1,0,0.1-0.1,0.1c0,0-0.1,0.1-0.1,0.1c-0.1,0-0.1,0.1-0.2,0.1c0,0,0,0-0.1,0h0l-0.1-0.6
		c-0.1,0-0.1,0.1-0.1,0.1c0,0.1,0,0.1,0,0.2c0,0.1,0.1,0.1,0.1,0.2l-0.1,0.1c-0.1,0-0.1-0.1-0.1-0.1
		C333.9,433.5,333.8,433.4,333.8,433.4 M334.4,433l0.1,0.3c0,0,0.1,0,0.1-0.1c0,0,0-0.1,0-0.1c0,0,0-0.1-0.1-0.1
		C334.5,433,334.4,433,334.4,433"/>
	<path id="Path_529_00000019643141135291772060000015494138173196367530_" class="st16" d="M334.1,434.4c0-0.1,0-0.1,0-0.2
		c0,0,0-0.1,0-0.1c0,0,0.1-0.1,0.1-0.1c0,0,0.1,0,0.1-0.1l0.4-0.1l0-0.1l0.2-0.1l0,0.1l0.3,0l0.1,0.2l-0.2,0.1l0.1,0.2l-0.2,0.1
		l-0.1-0.2l-0.4,0.1c0,0-0.1,0-0.1,0.1c0,0,0,0.1,0,0.1c0,0,0,0,0,0c0,0,0,0,0,0l-0.2,0.1c0,0,0-0.1,0-0.1
		C334.1,434.4,334.1,434.4,334.1,434.4"/>
	<path id="Path_530_00000159447651589111729940000013976662094221863599_" class="st16" d="M334.3,435.1c0-0.1,0-0.1,0-0.2
		c0-0.1,0-0.1,0-0.2l0.2,0.1c0,0,0,0.1,0,0.1c0,0,0,0.1,0,0.1c0,0,0,0.1,0,0.1c0,0,0,0,0.1,0c0,0,0,0,0,0c0,0,0,0,0,0c0,0,0,0,0-0.1
		v-0.1c0,0,0-0.1,0-0.1c0,0,0-0.1,0-0.1c0,0,0-0.1,0.1-0.1c0,0,0,0,0.1,0c0,0,0.1,0,0.1,0c0,0,0.1,0,0.1,0c0,0,0.1,0.1,0.1,0.1
		c0,0,0.1,0.1,0.1,0.1c0,0.1,0,0.1,0,0.2c0,0.1,0,0.1,0,0.2l-0.2-0.1c0,0,0-0.1,0-0.1c0,0,0-0.1,0-0.1c0-0.1,0-0.1-0.1-0.1
		c0,0,0,0,0,0c0,0,0,0,0,0v0.1c0,0,0,0.1,0,0.1c0,0,0,0.1,0,0.1c0,0,0,0.1-0.1,0.1c0,0-0.1,0-0.1,0c0,0-0.1,0-0.1,0c0,0-0.1,0-0.1,0
		l-0.1-0.1C334.4,435.2,334.3,435.1,334.3,435.1"/>
	<path id="Path_531_00000133494711731682310320000016749943445383594647_" class="st16" d="M334.7,436.2c0,0,0-0.1,0-0.1
		c0-0.1,0-0.1,0-0.1l-0.1,0l-0.1-0.2l1.3-0.4l0.1,0.3l-0.3,0.1l-0.1,0c0,0,0.1,0.1,0.1,0.1c0,0,0,0.1,0.1,0.1c0,0.1,0,0.1,0,0.2
		c0,0.1,0,0.1,0,0.1c0,0.1-0.1,0.1-0.1,0.1c-0.1,0-0.1,0.1-0.2,0.1c-0.1,0-0.1,0-0.2,0c-0.1,0-0.1,0-0.2,0c-0.1,0-0.1-0.1-0.1-0.1
		C334.7,436.3,334.7,436.2,334.7,436.2 M334.9,436C334.9,436.1,334.9,436.1,334.9,436c0.2,0.1,0.3,0.1,0.3,0.1
		c0.2,0,0.2-0.1,0.2-0.2c0-0.1-0.1-0.1-0.1-0.1l-0.4,0.1C334.9,435.9,334.9,435.9,334.9,436C334.9,436,334.9,436,334.9,436"/>
	<path id="Path_532_00000097487245672375675540000014036492403767364256_" class="st16" d="M335.1,437.3c0-0.1,0-0.1,0-0.2
		c0-0.1,0-0.1,0-0.2c0-0.1,0.1-0.1,0.1-0.1c0.1-0.1,0.1-0.1,0.2-0.1c0.1,0,0.1,0,0.2,0c0.1,0,0.1,0,0.2,0c0.1,0,0.1,0.1,0.1,0.1
		c0,0,0.1,0.1,0.1,0.1c0,0.1,0,0.1,0,0.2c0,0.1,0,0.1,0,0.2c0,0-0.1,0.1-0.1,0.1c0,0-0.1,0.1-0.2,0.1c0,0,0,0-0.1,0c0,0,0,0,0,0
		l-0.2-0.5c-0.1,0-0.1,0.1-0.1,0.1c0,0.1,0,0.1,0,0.2c0,0.1,0.1,0.1,0.1,0.2l-0.1,0.1c-0.1,0-0.1-0.1-0.1-0.1
		C335.1,437.3,335.1,437.3,335.1,437.3 M335.6,436.8l0.1,0.3c0,0,0.1,0,0.1-0.1c0,0,0-0.1,0-0.1c0,0,0-0.1-0.1-0.1
		C335.7,436.8,335.6,436.8,335.6,436.8"/>
	<path id="Path_533_00000131360227924062258390000011676479759993861006_" class="st16" d="M335.3,437.9l1.3-0.5l0.1,0.3l-0.7,0.3
		l0.5,0.1l0.1,0.3l-0.5-0.2l-0.4,0.5l-0.1-0.3l0.3-0.3l-0.2-0.1l-0.2,0.1L335.3,437.9z"/>
	<path id="Path_534_00000060725591540035437580000001458036197957461929_" class="st16" d="M335.8,439.1l0.8-0.6l0.1,0.3l-0.4,0.3
		c0,0-0.1,0.1-0.1,0.1c0,0-0.1,0.1-0.1,0.1c0,0,0.1,0,0.1,0c0,0,0.1,0,0.1,0l0.5-0.1l0.1,0.2l-0.4,0.3c-0.1,0.1-0.2,0.1-0.2,0.2
		c0,0,0.1,0,0.1,0c0,0,0.1,0,0.1,0l0.5-0.1l0.1,0.2l-1,0.2l-0.1-0.3l0.3-0.2c0,0,0.1,0,0.1-0.1c0,0,0.1-0.1,0.1-0.1c0,0-0.1,0-0.1,0
		c0,0-0.1,0-0.1,0l-0.4,0.1L335.8,439.1z"/>
	<path id="Path_535_00000163772603494788885900000015791190370733103778_" class="st16" d="M336.5,440.6c0,0,0-0.1,0-0.1
		c0,0,0-0.1,0-0.1c0-0.1,0.1-0.1,0.2-0.2c0.1-0.1,0.2,0,0.3,0c0.1,0.1,0.2,0.2,0.3,0.3c0,0,0.1,0,0.1-0.1c0,0,0-0.1,0-0.1
		c0,0,0-0.1-0.1-0.1c0,0-0.1-0.1-0.1-0.1l0.1-0.2c0.1,0,0.1,0.1,0.2,0.1c0.1,0.1,0.1,0.1,0.1,0.2c0,0.1,0.1,0.2,0,0.3
		c0,0.1-0.1,0.2-0.3,0.2l-0.5,0.2l-0.1-0.2l0.1-0.1c-0.1,0-0.1,0-0.1-0.1C336.6,440.7,336.6,440.7,336.5,440.6 M336.8,440.6
		C336.8,440.7,336.8,440.7,336.8,440.6c0.1,0.1,0.1,0.1,0.1,0.1l0.1-0.1c0-0.1-0.1-0.1-0.1-0.2c0,0-0.1,0-0.1,0
		C336.8,440.5,336.7,440.5,336.8,440.6C336.7,440.6,336.7,440.6,336.8,440.6"/>
	<path id="Path_536_00000023994359859404960570000008004558519672184731_" class="st16" d="M337,441.6c0,0,0-0.1,0-0.1
		c0,0,0-0.1,0-0.1l0-0.1c0,0,0.1-0.1,0.1-0.1c0.1,0,0.2,0,0.3,0c0.1,0.1,0.2,0.2,0.3,0.3c0,0,0.1,0,0.1-0.1c0,0,0-0.1,0-0.1
		c0,0,0-0.1-0.1-0.1c0,0-0.1-0.1-0.1-0.1l0.1-0.2c0.1,0,0.1,0.1,0.2,0.1c0.1,0,0.1,0.1,0.1,0.2c0.1,0.1,0.1,0.2,0,0.3
		c0,0.1-0.1,0.2-0.2,0.2l-0.5,0.3l-0.1-0.2l0.1-0.1c-0.1,0-0.1,0-0.1-0.1C337.1,441.7,337.1,441.7,337,441.6 M337.3,441.6
		C337.3,441.6,337.3,441.7,337.3,441.6c0.1,0.1,0.1,0.1,0.1,0.1l0.1-0.1c0-0.1-0.1-0.1-0.2-0.2c0,0-0.1,0-0.1,0
		C337.3,441.5,337.2,441.5,337.3,441.6C337.2,441.6,337.3,441.6,337.3,441.6"/>
	<path id="Path_537_00000147222327995880331370000004281356302627740332_" class="st16" d="M337.5,442.4l0.8-0.5l0.1,0.2l-0.1,0.1
		c0.1,0,0.1,0,0.2,0.1c0.1,0,0.1,0.1,0.1,0.1c0,0,0,0.1,0,0.2c0,0.1,0,0.1,0,0.1c0.1,0,0.1,0,0.2,0.1c0.1,0,0.1,0.1,0.1,0.1
		c0,0.1,0.1,0.2,0,0.3c0,0.1-0.1,0.2-0.2,0.2l-0.5,0.3l-0.1-0.2l0.5-0.3c0,0,0.1-0.1,0.1-0.1c0,0,0-0.1,0-0.1c0-0.1-0.1-0.1-0.2-0.1
		l-0.6,0.3l-0.1-0.2l0.5-0.3c0,0,0.1-0.1,0.1-0.1c0,0,0-0.1,0-0.1c0-0.1-0.1-0.1-0.2-0.1l-0.6,0.3L337.5,442.4z"/>
	<path id="Path_538_00000181069261294586803780000016124057593749841794_" class="st16" d="M338.4,443.9l1.1-0.7l0.2,0.2l-0.3,0.2
		l-0.2,0.1c0.1,0,0.1,0,0.1,0.1c0.1,0,0.1,0.1,0.1,0.1c0.1,0.1,0.1,0.2,0,0.2c0,0.1-0.1,0.2-0.2,0.2l-0.5,0.3l-0.2-0.2l0.5-0.3
		c0,0,0.1-0.1,0.1-0.1c0,0,0-0.1,0-0.1c0,0,0,0-0.1-0.1c0,0-0.1,0-0.1,0l-0.5,0.4L338.4,443.9z"/>
	<path id="Path_539_00000034050814866493613380000007929581100594006186_" class="st16" d="M339.3,445.3c0-0.1-0.1-0.1-0.1-0.2
		c0-0.1,0-0.1,0-0.2c0-0.1,0-0.1,0.1-0.2c0-0.1,0.1-0.1,0.2-0.1c0.1,0,0.1-0.1,0.2-0.1c0.1,0,0.1,0,0.2,0c0.1,0,0.1,0,0.2,0.1
		c0.1,0,0.1,0.1,0.1,0.1c0,0.1,0.1,0.1,0.1,0.2c0,0.1,0,0.1,0,0.2c0,0.1,0,0.1-0.1,0.1c0,0.1-0.1,0.1-0.1,0.1c0,0,0,0-0.1,0
		c0,0,0,0,0,0l-0.3-0.5c0,0-0.1,0.1-0.1,0.2c0,0.1,0,0.1,0,0.2c0,0.1,0.1,0.1,0.2,0.1l-0.1,0.2c-0.1,0-0.1-0.1-0.2-0.1
		C339.3,445.4,339.3,445.3,339.3,445.3 M339.6,444.8l0.2,0.3c0,0,0.1-0.1,0.1-0.1c0,0,0-0.1,0-0.1c0,0-0.1-0.1-0.1-0.1
		C339.7,444.7,339.7,444.7,339.6,444.8"/>
	<path id="Path_540_00000163058518162827265860000004069022200658646945_" class="st16" d="M339.7,445.8l0.8-0.6l0.2,0.2l-0.8,0.6
		L339.7,445.8z M340.7,445.3c0,0,0-0.1,0-0.1c0,0,0-0.1,0.1-0.1c0,0,0.1,0,0.1,0c0,0,0.1,0,0.1,0.1c0,0,0,0.1,0,0.1
		c0,0,0,0.1-0.1,0.1C340.8,445.3,340.8,445.3,340.7,445.3C340.7,445.3,340.7,445.3,340.7,445.3"/>
	<path id="Path_541_00000097469345979243973230000012241141013805724596_" class="st16" d="M340.2,446.6c0,0-0.1-0.1-0.1-0.1
		c0-0.1,0-0.1,0-0.2c0-0.1,0-0.1,0.1-0.2c0-0.1,0.1-0.1,0.1-0.1c0.1,0,0.1-0.1,0.2-0.1c0.1,0,0.1,0,0.2,0c0.1,0,0.1,0,0.2,0
		c0,0,0.1,0.1,0.1,0.1c0,0,0,0.1,0.1,0.1c0,0,0,0.1,0,0.1l0.1-0.1l0.3-0.2l0.2,0.2l-1.1,0.8l-0.1-0.2l0.1-0.1c-0.1,0-0.1,0-0.1,0
		C340.3,446.7,340.3,446.7,340.2,446.6 M340.5,446.5C340.5,446.6,340.5,446.6,340.5,446.5c0.1,0.1,0.1,0.1,0.2,0.1l0.3-0.2
		c0,0,0-0.1,0-0.1c0,0,0,0,0-0.1c0,0-0.1-0.1-0.1,0c-0.1,0-0.1,0-0.2,0.1c-0.1,0-0.1,0.1-0.1,0.2
		C340.4,446.4,340.4,446.5,340.5,446.5"/>
	<path id="Path_542_00000126321673837661343960000014370866729249018023_" class="st5" d="M368.4,410.8l0.1-20.6l0.4,0l0.1,20.7
		L368.4,410.8z"/>
	<path id="Path_543_00000038375450234738307410000006884351903417956789_" class="st5" d="M381.4,420l19.6-6.4l0.1,0.3l-19.6,6.6
		L381.4,420z"/>
	<path id="Path_544_00000124849185657073372330000002238228288139194549_" class="st5" d="M356,420l-19.6-6.4l-0.1,0.3l19.6,6.6
		L356,420z"/>
	<path id="Path_545_00000014617427573575254870000017891602645479646125_" class="st5" d="M360.7,434.8l-12,16.8l0.3,0.2l12.2-16.7
		L360.7,434.8z"/>
	<path id="Path_546_00000129171863335705068240000012956690910668488354_" class="st5" d="M376.7,434.9l12,16.8l-0.3,0.2l-12.2-16.7
		L376.7,434.9z"/>
	<path id="Path_577_00000148650986348397260390000000587235847946669970_" class="st17" d="M413.8,455.7c-0.1,0-0.1-0.1-0.2-0.1"/>
</g>
</svg>
