<svg version="1.1" baseProfile="tiny" id="Layer_1" xmlns="http://www.w3.org/2000/svg" x="0px" y="0px" overflow="visible"
     xml:space="preserve" viewBox="734.33 412.25 451.33 255.5">
<g>
	<g>
		<path fill="#231F20"
              d="M752.65,595.58h-10.27l-1.53,3.28h-6.51v-0.97l11.72-25.41h2.86l11.76,25.41v0.97h-6.51L752.65,595.58z     M747.48,583.01l-2.9,6.85h5.88L747.48,583.01z"/>
        <path fill="#231F20"
              d="M786.14,572.51c5.39,0,11.24,2.94,12.24,9.89c-2.27,0-4.28,0-6.55,0c-0.93-2.64-2.9-3.83-5.69-3.83    c-3.91,0-6.47,2.94-6.47,7.26c0,3.84,2.53,7.19,6.47,7.22c2.83,0,5.1-1.41,5.81-4.21c2.23,0,4.28,0,6.55,0    c-0.97,7.37-6.81,10.27-12.35,10.27c-6.62,0.04-13.32-4.42-13.36-13.28C772.82,576.98,779.51,572.51,786.14,572.51z"/>
        <path fill="#231F20"
              d="M825.58,597.89v0.97h-7.44l-4.47-7.67h-3.46v7.67c-2.23,0-4.51,0-6.66,0c0-8.67,0-17.35,0-26.05    c3.76,0,7.63,0,11.42,0c10.23,0.04,12.09,12.35,5.51,16.82L825.58,597.89z M814.97,578.76c-1.57-0.03-3.2,0-4.76,0    c0,2.13,0,4.36,0,6.44h4.76C818.58,585.2,818.77,578.8,814.97,578.76z"/>
        <path fill="#231F20"
              d="M845.85,578.76c-3.87,0-5.81,0-9.64,0v3.69h8.86c0,1.97,0,3.95,0,5.92h-8.86c0,1.53,0,3.01,0,4.58    c3.83,0,6.06,0,9.97,0c0,1.93,0,3.94,0,5.92c-6.11,0-10.57,0-16.6,0c0-8.71,0-17.42,0-26.05c6.03,0,10.16,0,16.26,0    C845.85,574.74,845.85,576.75,845.85,578.76z"/>
        <path fill="#231F20"
              d="M866.95,595.58h-10.27l-1.53,3.28h-6.51v-0.97l11.72-25.41h2.87l11.76,25.41v0.97h-6.51L866.95,595.58z     M861.78,583.01l-2.9,6.85h5.88L861.78,583.01z"/>
        <path fill="#231F20"
              d="M874.39,578.76c0-2.01,0-3.98,0-5.95h19.35c0,1.97,0,3.94,0,5.95h-6.36v20.1c-2.2,0-4.39,0-6.58,0v-20.1    H874.39z"/>
        <path fill="#231F20"
              d="M909.48,593.02c0,2.19,0,3.57,0,5.84c-4.43,0-8.78,0-13.21,0c0-2.27,0-3.65,0-5.84h3.31v-14.4h-3.05    c0-2.23,0-3.61,0-5.8c4.24,0,8.45,0,12.69,0c0,2.2,0,3.57,0,5.8h-3.05v14.4H909.48z"/>
        <path fill="#231F20"
              d="M923.54,587.58h0.19l5.96-14.77h6.4v1.01l-11.05,25.34h-2.83l-11.16-25.34v-1.01h6.4L923.54,587.58z"/>
        <path fill="#231F20"
              d="M956.21,578.76c-3.87,0-5.81,0-9.64,0v3.69h8.86c0,1.97,0,3.95,0,5.92h-8.86c0,1.53,0,3.01,0,4.58    c3.83,0,6.07,0,9.97,0c0,1.93,0,3.94,0,5.92c-6.1,0-10.57,0-16.6,0c0-8.71,0-17.42,0-26.05c6.03,0,10.16,0,16.27,0    C956.21,574.74,956.21,576.75,956.21,578.76z"/>
        <path fill="#231F20"
              d="M992.14,572.83h2.38v26.13c-2.26,0-4.54,0-6.81,0v-11.61l-5.54,5.81h-0.75l-5.51-5.81v11.61    c-2.27,0-4.54,0-6.81,0v-26.13h2.46l10.2,11.31L992.14,572.83z"/>
        <path fill="#231F20"
              d="M1017.4,578.86c-3.87,0-5.8,0-9.64,0v3.68h8.85c0,1.98,0,3.94,0,5.92h-8.85c0,1.53,0,3.01,0,4.58    c3.83,0,6.06,0,9.97,0c0,1.93,0,3.94,0,5.91c-6.1,0-10.57,0-16.59,0c0-8.71,0-17.42,0-26.05c6.03,0,10.15,0,16.26,0    C1017.4,574.84,1017.4,576.85,1017.4,578.86z"/>
        <path fill="#231F20"
              d="M1033.29,598.95h-9.83V572.9h9.83C1050.25,572.98,1050.25,598.88,1033.29,598.95z M1030.12,592.89h3.16    c8.3,0,8.3-13.92,0-13.92h-3.16V592.89z"/>
        <path fill="#231F20"
              d="M1062.12,593.11c0,2.2,0,3.57,0,5.84c-4.43,0-8.78,0-13.21,0c0-2.27,0-3.65,0-5.84h3.31v-14.4h-3.05    c0-2.23,0-3.61,0-5.81c4.24,0,8.45,0,12.69,0c0,2.2,0,3.57,0,5.81h-3.06v14.4H1062.12z"/>
        <path fill="#231F20"
              d="M1081.51,595.68h-10.27l-1.53,3.28h-6.51v-0.97l11.71-25.42h2.87l11.76,25.42v0.97h-6.51L1081.51,595.68z     M1076.33,583.1l-2.9,6.85h5.88L1076.33,583.1z"/>
        <path fill="#231F20"
              d="M1126.19,572.83h2.38v26.13c-2.27,0-4.54,0-6.81,0v-11.61l-5.54,5.81h-0.74l-5.51-5.81v11.61    c-2.27,0-4.54,0-6.81,0v-26.13h2.46l10.2,11.31L1126.19,572.83z"/>
        <path fill="#231F20"
              d="M1133.59,585.97c0-18.01,26.72-18.01,26.72,0C1160.31,604.02,1133.59,604.02,1133.59,585.97z     M1153.5,585.97c0-9.38-13.06-9.38-13.06,0C1140.44,595.42,1153.5,595.42,1153.5,585.97z"/>
        <path fill="#231F20"
              d="M1182.52,585.41c2.12,1.07,3.13,3.02,3.13,5.32c-0.04,4.54-2.79,8.22-8.12,8.22h-12.21V572.9h11.13    c4.5,0,8.11,3.5,8.11,8C1184.57,582.47,1183.79,584.37,1182.52,585.41z M1171.77,578.86v4.28h4.2c2.64,0,2.64-4.28-0.04-4.28    H1171.77z M1171.77,588.61v4.43h5.32c2.68,0,2.64-4.43-0.04-4.43H1171.77z"/>
	</g>
    <g>
		<rect x="810.08" y="622" fill="#43C6EE" width="18.03" height="35.21"/>
        <rect x="868.46" y="622" fill="#19A89D" width="18.03" height="43.15"/>
        <rect x="923.83" y="622" fill="#19A89D" width="18.03" height="21.57"/>
        <rect x="979.85" y="622" fill="#F05B43" width="18.03" height="35.21"/>
        <rect x="1035.87" y="622" fill="#F05B43" width="18.03" height="45.72"/>
        <rect x="1091.89" y="622" fill="#FBB146" width="18.03" height="25.76"/>
	</g>
    <g>
		<path fill="#231F20"
              d="M825.36,478.69c10.94,5.56,16.7,16.51,16.7,28.79c0,23.03-14.97,40.88-42.6,40.88h-64.67V414.2h59.3    c24.95,0,42.41,16.32,42.41,41.27C836.49,463.72,832.07,473.31,825.36,478.69z M769.9,444.72v22.46h21.69    c6.72,0,10.17-5.18,10.36-10.56c0.19-5.95-3.27-11.9-10.36-11.9H769.9z M769.9,495.58v22.26h27.06c6.72,0,9.79-4.99,10.36-10.36    c0.19-4.03-1.53-8.25-4.8-10.56c-1.72-0.77-3.45-1.34-5.76-1.34H769.9z"/>
        <path fill="#231F20"
              d="M888.12,508.24c0,8.64,5.95,13.24,14.97,13.24c9.4,0,14.78-7.1,14.97-16.12    c-0.57-20.54-18.62-19.77-34.16-18.23v-4.42l19.96-39.53h-41.26v-28.4h85.6v4.99l-24.57,45.29c21.11,5.57,27.44,22.65,27.44,40.12    c0,22.84-16.31,46.44-47.4,46.44c-26.1,0-45.68-16.7-46.25-43.38H888.12z"/>
        <path fill="#231F20"
              d="M1072.93,458.53v47.22c0,29.36-22.46,46.25-50.09,46.25c-27.82,0-50.47-16.89-50.47-46.25v-47.22    c0-29.17,22.65-46.25,50.47-46.25C1050.47,412.29,1072.93,429.36,1072.93,458.53z M1040.31,505.18V459.3    c0-10.94-7.68-16.5-17.47-16.5c-10.17,0-17.65,5.56-17.65,16.5v45.87c0,10.75,7.48,16.12,17.65,16.12    C1032.63,521.3,1040.31,515.92,1040.31,505.18z"/>
        <path fill="#231F20"
              d="M1123.02,456.42h-28.98c-0.58-27.64,16.12-43.76,42.99-43.76c36.27,0,53.93,36.08,31.85,68.52    c0,0.38-0.38,1.53-26.1,36.85h42.6v31.09h-92.88v-7.48l46.63-67.75c9.21-13.82,12.29-29.74-3.26-30.32    C1129.55,443.37,1123.02,447.4,1123.02,456.42z"/>
	</g>
</g>
</svg>