<?xml version="1.0" encoding="utf-8"?>
<!-- Generator: Adobe Illustrator 26.5.0, SVG Export Plug-In . SVG Version: 6.00 Build 0)  -->
<svg version="1.1" id="Laag_1" xmlns="http://www.w3.org/2000/svg" xmlns:xlink="http://www.w3.org/1999/xlink" x="0px" y="0px"
	 viewBox="0 0 2000 2000" style="enable-background:new 0 0 2000 2000;" xml:space="preserve">
<style type="text/css">
	.st0{clip-path:url(#SVGID_00000088124085004041358210000013766707934027249546_);}
	.st1{clip-path:url(#SVGID_00000083055833282203029590000017966417866784035746_);}
	.st2{fill:#FFFFFF;}
	.st3{fill:#46AD48;}
	.st4{opacity:0.75;}
	.st5{clip-path:url(#SVGID_00000106842819224371240870000003359389693329613754_);}
	.st6{opacity:0.65;}
	.st7{clip-path:url(#SVGID_00000008109001690678998930000011235970138293521032_);}
	.st8{opacity:0.5;}
	.st9{clip-path:url(#SVGID_00000165212575227631355430000016682979317125804478_);}
	.st10{fill:#ED7A0F;}
	.st11{clip-path:url(#SVGID_00000039127558036489284630000005590292060380600224_);}
	.st12{clip-path:url(#SVGID_00000025414067973378968320000006719269659940844714_);}
	.st13{clip-path:url(#SVGID_00000116925908506007771850000003493843169577987718_);}
	.st14{fill:#AF72AD;}
	.st15{clip-path:url(#SVGID_00000033355110242080705340000016022401501935763896_);}
	.st16{clip-path:url(#SVGID_00000124121252048767590140000006651000964313828483_);}
	.st17{clip-path:url(#SVGID_00000164477626829980119030000007888524223519977352_);}
	.st18{clip-path:url(#SVGID_00000030486753078676545980000007070510073086086332_);}
	.st19{clip-path:url(#SVGID_00000010996754556682434340000009091404966145320853_);}
	.st20{fill:#2DB3A5;}
	.st21{clip-path:url(#SVGID_00000093873147274363456590000012381973383397300403_);}
	.st22{clip-path:url(#SVGID_00000104695632857336644240000001777031264160705712_);}
	.st23{clip-path:url(#SVGID_00000107588251977726825350000010848631973454973881_);}
	.st24{fill:#45A7C3;}
	.st25{clip-path:url(#SVGID_00000134234111755646203450000011078741345659292841_);}
	.st26{fill:#46A8C4;}
	.st27{clip-path:url(#SVGID_00000069370807942085340120000011283023742728971684_);}
	.st28{clip-path:url(#SVGID_00000054947636355985520970000000433035405931797683_);}
	.st29{fill:#020304;}
	.st30{fill:none;}
	.st31{opacity:0;}
</style>
<g>
	<g>
		<defs>
			<rect id="SVGID_1_" x="0.3" y="-21.7" width="1921.4" height="1921.4"/>
		</defs>
		<clipPath id="SVGID_00000096028794159551747160000003153952920540018322_">
			<use xlink:href="#SVGID_1_"  style="overflow:visible;"/>
		</clipPath>
		<g id="Group_76" style="clip-path:url(#SVGID_00000096028794159551747160000003153952920540018322_);">
			<g id="Group_77">
				<g>
					<defs>
						<rect id="SVGID_00000003822795842048516900000004503237709369680790_" x="63.1" y="41.1" width="1898.2" height="1898.2"/>
					</defs>
					<clipPath id="SVGID_00000145751603953670068030000012223973799682556076_">
						<use xlink:href="#SVGID_00000003822795842048516900000004503237709369680790_"  style="overflow:visible;"/>
					</clipPath>
					
						<g id="Group_76_00000044865907423133627000000013851058659394335916_" style="clip-path:url(#SVGID_00000145751603953670068030000012223973799682556076_);">
						<g id="Group_75">
							<path id="Path_247" class="st2" d="M1012.2,41.1c524.2,0,949.1,424.9,949.1,949.1s-424.9,949.1-949.1,949.1
								S63.1,1514.4,63.1,990.2S488,41.1,1012.2,41.1"/>
							<path id="Path_248" class="st3" d="M318,990.6c-0.2-71.8,10.9-143.1,32.9-211.4L235,740.8c-26.1,80.7-39.3,165-39.2,249.8
								c0,271.7,132.7,512.1,336.7,660.9l71.3-99.1C430.8,1425.6,318,1221.2,318,990.6"/>
							<g id="Group_25" transform="translate(90.678 262.562)" class="st4">
								<g id="Group_24">
									<g>
										<defs>
											
												<rect id="SVGID_00000129888971997361036200000013506697188072998572_" x="227.3" y="516.6" width="356.7" height="772.9"/>
										</defs>
										<clipPath id="SVGID_00000031189446456199195400000016343272956074082998_">
											<use xlink:href="#SVGID_00000129888971997361036200000013506697188072998572_"  style="overflow:visible;"/>
										</clipPath>
										<g id="Group_23" style="clip-path:url(#SVGID_00000031189446456199195400000016343272956074082998_);">
											<path id="Path_249" class="st3" d="M349.5,728c0-58.7,9-117.1,26.6-173.1l-115.9-38.4c-91,285.1,10.8,596.5,252.5,772.9
												l71.3-99.1C436.5,1082.6,349.3,910.8,349.5,728"/>
										</g>
									</g>
								</g>
							</g>
							<path id="Path_250" class="st2" d="M604.2,1554.8l-1.6-1.2c-180-131.1-286.5-340.3-286.6-563c-0.1-71.9,11-143.4,32.9-211.8
								l0.8-2l119.8,39.5l-0.4,2c-74.1,233.7,9.5,488.6,207.5,633.1l1.6,1.2L604.2,1554.8z M352.1,781.5
								c-89.9,283.3,11.1,592.3,251,767.8l68.9-95.9c-147.1-108.3-233.9-280.1-233.7-462.8c-0.1-58.3,8.7-116.3,26.2-171.9
								L352.1,781.5z"/>
							<g id="Group_28" transform="translate(134.137 276.212)" class="st6">
								<g id="Group_27">
									<g>
										<defs>
											<rect id="SVGID_00000085215913877268729770000011150647001856989112_" x="306" y="541.3" width="305.8" height="635.5"/>
										</defs>
										<clipPath id="SVGID_00000089556667950748776880000003574448808033630652_">
											<use xlink:href="#SVGID_00000085215913877268729770000011150647001856989112_"  style="overflow:visible;"/>
										</clipPath>
										<g id="Group_26" style="clip-path:url(#SVGID_00000089556667950748776880000003574448808033630652_);">
											<path id="Path_251" class="st3" d="M428.2,714.4c-0.1-45.7,6.8-91.1,20.4-134.7l-115.9-38.4
												c-74,234.5,9.6,490.1,207.9,635.5l71.3-99.1C496.4,992.6,428.2,857.8,428.2,714.4"/>
										</g>
									</g>
								</g>
							</g>
							<path id="Path_252" class="st2" d="M675.5,1455.7l-1.6-1.2C475,1308.7,391.1,1052.4,465.2,817.1l0.8-2l119.8,39.5l-0.4,2
								c-57,182.9,8.2,381.7,162.5,495.3l1.6,1.2L675.5,1455.7z M468,820.3c-44.7,143.6-31,299,38,432.6
								c40.5,77.7,98.1,145.1,168.4,197.3l68.9-95.9C589.3,1240,524,1041.1,580.3,857.9L468,820.3z"/>
							<g id="Group_31" transform="translate(177.595 289.862)" class="st8">
								<g id="Group_30">
									<g>
										<defs>
											<rect id="SVGID_00000170258328496267955770000002075223552332278706_" x="384.7" y="566" width="440.9" height="497.6"/>
										</defs>
										<clipPath id="SVGID_00000163774841440938229460000017361382376468686746_">
											<use xlink:href="#SVGID_00000170258328496267955770000002075223552332278706_"  style="overflow:visible;"/>
										</clipPath>
										<g id="Group_29" style="clip-path:url(#SVGID_00000163774841440938229460000017361382376468686746_);">
											<path id="Path_253" class="st3" d="M405.1,566c-57.1,183.7,8.4,383.5,163.3,497.6l257.2-358.3L405.1,566z"/>
										</g>
									</g>
								</g>
							</g>
							<path id="Path_254" class="st2" d="M746.3,1356.3l-1.6-1.2c-115.7-85.4-184.1-220.7-184.4-364.5c0-45.8,6.9-91.3,20.4-135.1
								l0.8-2l424.8,141L746.3,1356.3z M583.9,858.6c-55.4,181.7,9.3,378.7,161.7,492.2l254.5-354.3L583.9,858.6z"/>
							<path id="Path_255" class="st10" d="M1013,1685.2c-145.4,0.3-287.3-45.3-405.2-130.4l-72.4,98.3
								c285.5,206,670.9,205.7,956.1-0.8L1419,1554C1300.9,1639.5,1158.8,1685.5,1013,1685.2"/>
							<g id="Group_34" transform="translate(193.752 503.394)" class="st4">
								<g id="Group_33">
									<g>
										<defs>
											<rect id="SVGID_00000045600649902963086870000002797990854405039026_" x="414" y="952.7" width="811.7" height="229.4"/>
										</defs>
										<clipPath id="SVGID_00000008865157803666453980000006588741883176735149_">
											<use xlink:href="#SVGID_00000045600649902963086870000002797990854405039026_"  style="overflow:visible;"/>
										</clipPath>
										<g id="Group_32" style="clip-path:url(#SVGID_00000008865157803666453980000006588741883176735149_);">
											<path id="Path_256" class="st10" d="M819.2,1060c-119.3,0.2-235.7-37.1-332.8-106.5l-72.4,98.3
												c242.6,174.1,569.4,173.8,811.7-0.8l-72.4-98.3C1055.8,1022.5,939,1060.1,819.2,1060"/>
										</g>
									</g>
								</g>
							</g>
							<path id="Path_257" class="st2" d="M1013,1687.1c-145.9,0.4-288.1-45.4-406.4-130.8l-1.6-1.2l74.8-101.4l1.6,1.2
								c198.9,141.8,465.9,141.4,664.4-0.8l1.6-1.2l74.8,101.4l-1.6,1.2C1302,1641.4,1159.3,1687.4,1013,1687.1 M610.5,1554.4
								c241.3,172,565.2,171.7,806.2-0.8l-70.1-95.1c-199.3,141.7-466.4,142-666,0.8L610.5,1554.4z"/>
							<g id="Group_37" transform="translate(219.521 468.293)" class="st6">
								<g id="Group_36">
									<g>
										<defs>
											
												<rect id="SVGID_00000149361077626640309090000018091036462406776502_" x="460.7" y="889.2" width="666.8" height="205.6"/>
										</defs>
										<clipPath id="SVGID_00000162323712377111040970000001126193081030614441_">
											<use xlink:href="#SVGID_00000149361077626640309090000018091036462406776502_"  style="overflow:visible;"/>
										</clipPath>
										<g id="Group_35" style="clip-path:url(#SVGID_00000162323712377111040970000001126193081030614441_);">
											<path id="Path_258" class="st10" d="M793.5,973c-93.3,0.2-184.4-28.8-260.4-83l-72.4,98.3
												c199.6,142.3,467.5,142,666.8-0.8l-72.4-98.3C978.8,943.8,887.3,973.1,793.5,973"/>
										</g>
									</g>
								</g>
							</g>
							<path id="Path_259" class="st2" d="M1013,1565.4c-119.8,0.3-236.6-37.1-334-106.9l-1.6-1.2l74.8-101.4l1.6,1.2
								c155.7,110.4,364.2,110.1,519.6-0.8l1.6-1.2l74.8,101.4l-1.6,1.2C1250.4,1527.8,1133.2,1565.4,1013,1565.4 M682.9,1456.1
								c198.2,140.2,463.4,139.9,661.3-0.8l-70.1-95.1c-156.1,110.4-364.7,110.7-521.1,0.8L682.9,1456.1z"/>
							<g id="Group_40" transform="translate(245.15 342.235)" class="st8">
								<g id="Group_39">
									<g>
										<defs>
											
												<rect id="SVGID_00000171685915134829036150000002567711205564100794_" x="507.1" y="660.9" width="521.9" height="438.1"/>
										</defs>
										<clipPath id="SVGID_00000065763399051958276730000003943698314733114295_">
											<use xlink:href="#SVGID_00000171685915134829036150000002567711205564100794_"  style="overflow:visible;"/>
										</clipPath>
										<g id="Group_38" style="clip-path:url(#SVGID_00000065763399051958276730000003943698314733114295_);">
											<path id="Path_260" class="st10" d="M507.1,1016c156.4,111,365.9,110.6,521.9-0.8L768.2,660.9L507.1,1016z"/>
										</g>
									</g>
								</g>
							</g>
							<path id="Path_261" class="st2" d="M1013,1443.2c-93.7,0.1-185.2-29-261.5-83.4l-1.6-1.2l1.2-1.6l262.7-357.5l263.5,358.3
								l-1.6,1.2C1199.1,1413.8,1107.2,1443.3,1013,1443.2 M755.3,1357.9c155,108.9,361.7,108.6,516.4-0.8l-258-350.8L755.3,1357.9z
								"/>
							<path id="Path_262" class="st14" d="M1829.7,990.6c0-84.6-13.1-168.8-38.8-249.4l-115.9,38.4
								c90.2,284.7-11.3,595.2-252.1,771.7l71.3,99.1C1705.2,1496.9,1830,1251.6,1829.7,990.6"/>
							<g id="Group_43" transform="translate(458.403 262.701)" class="st4">
								<g id="Group_42">
									<g>
										<defs>
											
												<rect id="SVGID_00000174593717970469306010000012818191994147678595_" x="893.3" y="516.9" width="355.9" height="771.7"/>
										</defs>
										<clipPath id="SVGID_00000139266123829363910350000007525339017470847132_">
											<use xlink:href="#SVGID_00000174593717970469306010000012818191994147678595_"  style="overflow:visible;"/>
										</clipPath>
										<g id="Group_41" style="clip-path:url(#SVGID_00000139266123829363910350000007525339017470847132_);">
											<path id="Path_263" class="st14" d="M1127,727.9c0.2,182.3-86.7,353.8-233.7,461.6l71.3,99.1
												c240.9-176.5,342.3-487,252.1-771.7l-115.9,38.4C1118.3,611.1,1127.2,669.3,1127,727.9"/>
										</g>
									</g>
								</g>
							</g>
							<path id="Path_264" class="st2" d="M1422.5,1554l-73.6-102.6l1.6-1.2c70.8-52.4,128.7-120.1,169.5-198.1
								c42.1-80.9,63.8-170.8,63.4-261.9c0-58.3-8.9-116.2-26.2-171.9l-0.4-2l119.8-39.5l0.8,2c91.1,285.4-10.7,597-252.5,773.7
								L1422.5,1554z M1354.8,1452.6l68.9,95.9C1601.2,1418,1706,1210.9,1706,990.6c0.1-70.7-10.7-140.9-32.1-208.3l-112.4,37.2
								c44.7,144.3,31,300.3-38,434.6C1483,1332.2,1425.3,1400.1,1354.8,1452.6"/>
							<g id="Group_46" transform="translate(433.053 276.351)" class="st6">
								<g id="Group_45">
									<g>
										<defs>
											<rect id="SVGID_00000075162302903502112200000013675661872497925271_" x="847.4" y="541.6" width="305" height="633.9"/>
										</defs>
										<clipPath id="SVGID_00000139292824913366820610000011412481077825908623_">
											<use xlink:href="#SVGID_00000075162302903502112200000013675661872497925271_"  style="overflow:visible;"/>
										</clipPath>
										<g id="Group_44" style="clip-path:url(#SVGID_00000139292824913366820610000011412481077825908623_);">
											<path id="Path_265" class="st14" d="M1030.2,714.2c0.1,142.9-67.8,277.4-182.8,362.2l71.3,99.1
												c197.8-145.1,281.1-400,207.1-633.9l-115.9,38.4C1023.4,623.4,1030.2,668.7,1030.2,714.2"/>
										</g>
									</g>
								</g>
							</g>
							<g id="Group_49" transform="translate(432.217 275.516)" class="st6">
								<g id="Group_48">
									<g>
										<defs>
											
												<rect id="SVGID_00000076578039149343927030000005575327006463121794_" x="845.8" y="540.1" width="310.1" height="639.4"/>
										</defs>
										<clipPath id="SVGID_00000064355622466775676800000010257466173602896030_">
											<use xlink:href="#SVGID_00000076578039149343927030000005575327006463121794_"  style="overflow:visible;"/>
										</clipPath>
										<g id="Group_47" style="clip-path:url(#SVGID_00000064355622466775676800000010257466173602896030_);">
											<path id="Path_266" class="st2" d="M919.4,1179.4l-73.6-102.6l1.6-1.2c114.2-84.7,181.7-218.4,182.1-360.6
												c0.1-45.3-6.7-90.3-20.4-133.5l-0.4-2l119.8-39.5l0.8,2c74.3,234.7-9.4,490.7-207.9,636.2L919.4,1179.4z M851.3,1077.6
												l68.9,95.9c70.3-52,127.7-119.4,168-196.9c68.7-133.5,82.2-288.6,37.6-431.9l-112.4,37.2c13.3,43,20,87.7,20,132.7
												C1033.1,857.5,965.7,992,851.3,1077.6"/>
										</g>
									</g>
								</g>
							</g>
							<g id="Group_52" transform="translate(341.957 290.141)" class="st8">
								<g id="Group_51">
									<g>
										<defs>
											
												<rect id="SVGID_00000157271126519842251850000008335200711395932569_" x="682.4" y="566.5" width="439.3" height="496.1"/>
										</defs>
										<clipPath id="SVGID_00000155856459024081052910000010551039258118657950_">
											<use xlink:href="#SVGID_00000157271126519842251850000008335200711395932569_"  style="overflow:visible;"/>
										</clipPath>
										<g id="Group_50" style="clip-path:url(#SVGID_00000155856459024081052910000010551039258118657950_);">
											<path id="Path_267" class="st14" d="M938.8,1062.6c115-84.9,182.8-219.3,182.8-362.2c0.1-45.4-6.8-90.6-20.4-133.9
												l-418.9,139L938.8,1062.6z"/>
										</g>
									</g>
								</g>
							</g>
							<g id="Group_55" transform="translate(340.843 289.166)" class="st8">
								<g id="Group_54">
									<g>
										<defs>
											
												<rect id="SVGID_00000062152864900498534940000002697078450142495925_" x="680.4" y="564.8" width="444.4" height="501.6"/>
										</defs>
										<clipPath id="SVGID_00000024716736230887956390000010889836556976633020_">
											<use xlink:href="#SVGID_00000062152864900498534940000002697078450142495925_"  style="overflow:visible;"/>
										</clipPath>
										<g id="Group_53" style="clip-path:url(#SVGID_00000024716736230887956390000010889836556976633020_);">
											<path id="Path_268" class="st2" d="M939.6,1066.3L680.4,704.9l423.2-140.2l0.8,2c13.6,43.6,20.5,89,20.4,134.7
												c-0.2,143.5-68.3,278.4-183.6,363.7L939.6,1066.3z M686.6,707.3l253.7,353.6c151.9-113.3,216.3-309.8,160.9-491
												L686.6,707.3z"/>
										</g>
									</g>
								</g>
							</g>
							<path id="Path_269" class="st20" d="M1673.5,774.9l116.3-37.2c-106.1-326.5-412.7-563-774.5-564.2l0.8,122.2
								C1323.1,297.2,1583.1,497.6,1673.5,774.9"/>
							<g id="Group_58" transform="translate(339.031 90.538)" class="st4">
								<g id="Group_57">
									<g>
										<defs>
											
												<rect id="SVGID_00000096047689269213569470000001741748411818978715_" x="677.1" y="205.1" width="657.4" height="516.4"/>
										</defs>
										<clipPath id="SVGID_00000043452611950922220610000010380720436788205700_">
											<use xlink:href="#SVGID_00000096047689269213569470000001741748411818978715_"  style="overflow:visible;"/>
										</clipPath>
										<g id="Group_56" style="clip-path:url(#SVGID_00000043452611950922220610000010380720436788205700_);">
											<path id="Path_270" class="st20" d="M1218.2,721.5l116.3-37.2C1244,407.1,984,206.6,677.1,205.1l0.8,122.2
												C923.9,329.1,1141.4,487.8,1218.2,721.5"/>
										</g>
									</g>
								</g>
							</g>
							<path id="Path_271" class="st2" d="M1556,814.4l-0.8-2c-76.2-233.2-293.1-391.4-538.4-392.7h-2l-0.8-126.1h2
								c300.4,1,566.3,194.8,659.3,480.4l0.8,2L1556,814.4z M1018.9,415.8c245.5,2.2,462.4,160.4,539.5,393.5l112.8-36
								c-92.8-282.5-355.7-474.1-653.1-476.1L1018.9,415.8z"/>
							<g id="Group_61" transform="translate(339.311 133.997)" class="st6">
								<g id="Group_60">
									<g>
										<defs>
											
												<rect id="SVGID_00000100377693301890822100000003685503138342573241_" x="677.6" y="283.8" width="540.3" height="431.1"/>
										</defs>
										<clipPath id="SVGID_00000131357679097248521990000016247306478874888361_">
											<use xlink:href="#SVGID_00000100377693301890822100000003685503138342573241_"  style="overflow:visible;"/>
										</clipPath>
										<g id="Group_59" style="clip-path:url(#SVGID_00000131357679097248521990000016247306478874888361_);">
											<path id="Path_272" class="st20" d="M677.6,283.8l0.8,122.2c192.6,1.9,362.7,126.1,423.2,308.9l116.3-37.2
												C1140.9,444.1,923.5,285.6,677.6,283.8"/>
										</g>
									</g>
								</g>
							</g>
							<path id="Path_273" class="st2" d="M1439.4,851.6l-0.8-2c-60.2-182.1-229.5-305.8-421.3-307.7h-2l-0.8-126.1h2
								c247,1.4,465.5,160.7,542.3,395.5l0.8,2L1439.4,851.6z M1019.6,538c192,2.7,361.4,126.4,422.5,308.5l112.8-36
								c-76.6-231.6-292.1-388.7-536-390.7L1019.6,538z"/>
							<g id="Group_64" transform="translate(339.589 177.595)" class="st8">
								<g id="Group_63">
									<g>
										<defs>
											
												<rect id="SVGID_00000114757236422251432670000002221740996231684505_" x="678.1" y="362.7" width="423.2" height="442.8"/>
										</defs>
										<clipPath id="SVGID_00000102504116062369646140000006124389274056829612_">
											<use xlink:href="#SVGID_00000114757236422251432670000002221740996231684505_"  style="overflow:visible;"/>
										</clipPath>
										<g id="Group_62" style="clip-path:url(#SVGID_00000102504116062369646140000006124389274056829612_);">
											<path id="Path_274" class="st20" d="M1101.3,671.7c-60.5-182.9-230.6-307-423.2-308.9l2.7,442.8L1101.3,671.7z"/>
										</g>
									</g>
								</g>
							</g>
							<path id="Path_275" class="st2" d="M1018.1,985.5l-2.3-447.5h2c193.5,2,364.4,126.8,425.2,310.5l0.8,2l-2,0.8L1018.1,985.5z
								 M1019.6,541.9l2.7,438.1l416.2-132.3C1377.8,667.3,1210,544.8,1019.6,541.9"/>
							<path id="Path_276" class="st24" d="M1011.4,295.6l0.8-122.2c-362.6,0.4-669.5,236.9-776,563.8l116.3,37.2
								C442.9,497.3,703.7,296.4,1011.4,295.6"/>
							<g id="Group_67" transform="translate(102.936 90.538)" class="st4">
								<g id="Group_66">
									<g>
										<defs>
											<rect id="SVGID_00000025431467997498601020000004080549895924602756_" x="249.5" y="205.1" width="659" height="516"/>
										</defs>
										<clipPath id="SVGID_00000176723057908626843980000016998685437863157136_">
											<use xlink:href="#SVGID_00000025431467997498601020000004080549895924602756_"  style="overflow:visible;"/>
										</clipPath>
										<g id="Group_65" style="clip-path:url(#SVGID_00000176723057908626843980000016998685437863157136_);">
											<path id="Path_277" class="st26" d="M907.7,327.2l0.8-122.2c-307.7,0.8-568.1,201.3-659,478.9l116.3,37.2
												C442.9,486.9,661.2,328.3,907.7,327.2"/>
										</g>
									</g>
								</g>
							</g>
							<path id="Path_278" class="st2" d="M469.9,814l-120.2-38.4l0.8-2c93.4-285.9,359.8-479.5,660.5-480h2l-0.8,126.1h-2
								c-245.7,0.7-463.4,158.8-539.9,392.3L469.9,814z M354.8,773.3l112.8,36c77.3-233.6,295.1-391.7,541.1-393.1l0.8-118.2
								C711.9,299.5,448.4,490.8,354.8,773.3"/>
							<g id="Group_70" transform="translate(144.305 133.997)" class="st6">
								<g id="Group_69">
									<g>
										<defs>
											
												<rect id="SVGID_00000091736425600366639970000002264994588782317481_" x="324.4" y="283.8" width="541.9" height="430.7"/>
										</defs>
										<clipPath id="SVGID_00000052801976946018403870000008152521585747256458_">
											<use xlink:href="#SVGID_00000091736425600366639970000002264994588782317481_"  style="overflow:visible;"/>
										</clipPath>
										<g id="Group_68" style="clip-path:url(#SVGID_00000052801976946018403870000008152521585747256458_);">
											<path id="Path_279" class="st26" d="M865.6,405.9l0.8-122.2c-246.4,1-464.6,159.5-541.9,393.5l116.3,37.2
												C501.8,531.3,672.5,407.3,865.6,405.9"/>
										</g>
									</g>
								</g>
							</g>
							<path id="Path_280" class="st2" d="M586.2,851.2L466,812.8l0.8-2c77.2-235,296.1-394.1,543.5-395.1h2l-0.8,126.1h-2
								c-192.2,1.3-362.3,124.9-422.9,307.4L586.2,851.2z M471.1,810.5l112.8,36c61.4-182.5,231.5-306.1,424-308.1l0.8-118.2
								C764.3,421.4,548,578.5,471.1,810.5"/>
							<g id="Group_73" transform="translate(185.674 177.455)" class="st8">
								<g id="Group_72">
									<g>
										<defs>
											
												<rect id="SVGID_00000121237025686737055630000010185398497582695595_" x="399.4" y="362.5" width="424.8" height="442.8"/>
										</defs>
										<clipPath id="SVGID_00000173856314620739242310000009309259283913122455_">
											<use xlink:href="#SVGID_00000121237025686737055630000010185398497582695595_"  style="overflow:visible;"/>
										</clipPath>
										<g id="Group_71" style="clip-path:url(#SVGID_00000173856314620739242310000009309259283913122455_);">
											<path id="Path_281" class="st26" d="M824.2,362.5C626.5,363.7,458.9,492.9,399.4,671l422.1,134.3L824.2,362.5z"/>
										</g>
									</g>
								</g>
							</g>
							<path id="Path_282" class="st2" d="M1009.1,985.5L582.7,849.6l0.8-2c61.1-183.9,232.5-308.6,426.4-310.1h2L1009.1,985.5z
								 M587.8,847.3l417.8,133.1l2.7-438.1C817.4,543.8,648.5,666.3,587.8,847.3"/>
							<g id="Visie_op_onderwijs">
								<path id="Path_283" class="st2" d="M780.7,758.2c128.3-128.3,336.3-128.3,464.6,0s128.3,336.3,0,464.6s-336.3,128.3-464.6,0
									c0,0,0,0,0,0C652.4,1094.5,652.4,886.5,780.7,758.2C780.7,758.2,780.7,758.2,780.7,758.2"/>
								<path id="Path_284" class="st29" d="M871.2,969.8L854.8,915h12.9l6.7,25.5c0.8,3.1,1.6,5.9,2.3,8.6s1.6,5.9,2.3,8.6h0.4
									c0.8-3.1,1.6-5.9,2.3-8.6s1.6-5.9,2.3-8.6l6.7-25.5h12.5l-16.4,54.8H871.2z"/>
								<path id="Path_285" class="st29" d="M917.8,922.1c-1.9,0-3.7-0.7-5.1-2c-2.6-2.6-2.6-6.8,0-9.4c0,0,0,0,0,0
									c2.9-2.6,7.3-2.6,10.2,0c2.6,2.6,2.6,6.8,0,9.4C921.6,921.5,919.7,922.2,917.8,922.1 M911.6,928.3h12.5v41.5h-12.5V928.3z"
									/>
								<path id="Path_286" class="st29" d="M951.1,971c-2.9,0-5.9-0.5-8.6-1.6c-2.7-1-5.3-2.4-7.4-4.3l5.5-7.8
									c1.6,1.4,3.5,2.5,5.5,3.1c1.8,0.6,3.6,1,5.5,1.2c1.3,0.1,2.7-0.2,3.9-0.8c0.8-0.7,1.2-1.7,1.2-2.7c0-0.8-0.4-1.2-0.8-2
									c-0.6-0.6-1.2-1.1-2-1.6c-0.9-0.5-1.8-0.9-2.7-1.2c-1.2-0.4-2-0.8-3.1-1.2c-1.4-0.5-2.7-1.2-3.9-2l-3.5-2.3
									c-1.2-0.9-2.2-2.1-2.7-3.5c-0.8-1.4-1.3-3-1.2-4.7c0-1.9,0.4-3.8,1.2-5.5c0.8-1.6,1.9-3,3.1-4.3c1.6-1.1,3.3-2.1,5.1-2.7
									c4.9-1.3,10.1-1,14.9,0.8c2.2,1,4.3,2.2,6.3,3.5l-5.5,7.4c-1.6-1.2-3.1-2-4.3-2.7c-1.3-0.6-2.8-0.9-4.3-0.8
									c-3.1,0-4.7,1.2-4.7,3.1c0,0.6,0.3,1.2,0.8,1.6c0.6,0.5,1.3,0.9,2,1.2c0.9,0.5,1.8,0.9,2.7,1.2c1.2,0.4,2,0.8,3.1,1.2
									c1.2,0.4,2.7,1.2,3.9,1.6c1.3,0.6,2.4,1.4,3.5,2.3c1.2,0.9,2.2,2.1,2.7,3.5c0.8,1.6,1.2,3.3,1.2,5.1c0,1.9-0.4,3.8-1.2,5.5
									c-0.8,1.6-1.9,3-3.1,4.3c-1.6,1.4-3.4,2.3-5.5,2.7C956.5,970.4,953.8,971.2,951.1,971"/>
								<path id="Path_287" class="st29" d="M986.4,922.1c-1.9,0-3.7-0.7-5.1-2c-2.6-2.6-2.6-6.8,0-9.4c0,0,0,0,0,0
									c2.9-2.6,7.3-2.6,10.2,0c2.6,2.6,2.6,6.8,0,9.4c0,0,0,0,0,0C990.2,921.6,988.3,922.3,986.4,922.1 M980.5,928.3H993v41.5
									h-12.5V928.3z"/>
								<path id="Path_288" class="st29" d="M1026.3,971c-2.8,0.1-5.6-0.4-8.2-1.6c-2.6-0.8-4.9-2.3-6.7-4.3
									c-1.9-1.9-3.4-4.1-4.3-6.7c-1.2-3-1.7-6.2-1.6-9.4c-0.1-3.1,0.4-6.1,1.6-9c1.1-2.5,2.6-4.9,4.3-7c1.8-1.8,3.9-3.2,6.3-4.3
									c2.3-1.1,4.9-1.7,7.4-1.6c2.7-0.1,5.4,0.4,7.8,1.6c2.1,1,4,2.5,5.5,4.3c1.6,1.8,2.7,3.9,3.1,6.3c0.8,2.5,1.2,5.2,1.2,7.8
									v3.1c-0.1,0.8-0.2,1.6-0.4,2.3h-25.1c0.3,2.7,1.7,5.1,3.9,6.7c2,1.5,4.5,2.2,7,2c3.2,0,6.3-1,9-2.7l4.3,7.4
									c-2.1,1.6-4.5,2.8-7,3.5C1031.9,970.5,1029.1,971.1,1026.3,971 M1017.3,944.4h14.9c0.1-2.1-0.4-4.1-1.6-5.9
									c-1.3-1.7-3.4-2.6-5.5-2.3c-1.9,0.1-3.7,0.8-5.1,2C1018.5,939.9,1017.5,942.1,1017.3,944.4"/>
								<path id="Path_289" class="st29" d="M1094.4,971c-2.7,0-5.4-0.5-7.8-1.6c-5.1-1.9-9-5.9-11-11c-2.1-6.1-2.1-12.7,0-18.8
									c1.9-5.1,5.9-9,11-11c2.5-0.9,5.2-1.5,7.8-1.6c2.6-0.1,5.1,0.4,7.4,1.6c2.4,1.1,4.7,2.5,6.7,4.3c1.9,1.9,3.4,4.1,4.3,6.7
									c2.1,6.1,2.1,12.7,0,18.8c-1.9,5.1-5.9,9-11,11C1099.5,970.6,1097,971.1,1094.4,971 M1094.4,960.8c2.3-0.1,4.5-1.2,5.9-3.1
									c2.6-5.4,2.6-11.8,0-17.2c-1.2-2.1-3.5-3.3-5.9-3.1c-2.4,0-4.6,1.2-5.9,3.1c-2.6,5.4-2.6,11.8,0,17.2
									C1089.7,959.8,1092,961,1094.4,960.8"/>
								<path id="Path_290" class="st29" d="M1127.3,985.5v-57.2h10.2l0.8,4.3h0.4c1.6-1.5,3.4-2.7,5.5-3.5c2-0.9,4.1-1.4,6.3-1.6
									c2.3-0.1,4.6,0.5,6.7,1.6c2,1,3.8,2.5,5.1,4.3c1.5,2,2.6,4.2,3.1,6.7c0.8,2.8,1.2,5.7,1.2,8.6c0.1,3.2-0.4,6.4-1.6,9.4
									c-1,2.5-2.3,4.9-3.9,7c-1.4,1.9-3.3,3.4-5.5,4.3c-2,1.1-4.3,1.7-6.7,1.6c-1.8,0-3.5-0.4-5.1-1.2c-1.7-0.9-3.2-2-4.7-3.1
									l0.4,6.7v12.1L1127.3,985.5z M1146.5,960.8c2.2,0,4.2-1,5.5-2.7c1.8-2.8,2.6-6.1,2.3-9.4c0-7.4-2.3-11.4-7-11.4
									c-2.8,0.2-5.4,1.6-7,3.9v17.2c1,0.9,2.2,1.6,3.5,2C1144.1,960.8,1145.3,960.8,1146.5,960.8"/>
								<path id="Path_291" class="st29" d="M834.4,1071.6c-3.5,0-6.9-0.7-10.2-2c-3-1.2-5.7-3.1-7.8-5.5c-2.4-2.6-4.1-5.6-5.1-9
									c-1.3-3.9-2-8-2-12.1c0-4.1,0.7-8.2,2-12.1c1.1-3.3,2.8-6.4,5.1-9c2.2-2.4,4.8-4.3,7.8-5.5c6.5-2.6,13.8-2.6,20.4,0
									c3,1.2,5.7,3.1,7.8,5.5c2.4,2.6,4.1,5.6,5.1,9c1.3,3.8,2,7.8,2,11.7c0,4.1-0.7,8.2-2,12.1c-1,3.4-2.7,6.4-5.1,9
									c-2.2,2.4-4.8,4.3-7.8,5.5C841.5,1071.1,838,1071.9,834.4,1071.6 M834.4,1061.1c3.6,0.1,7-1.7,9-4.7
									c2.3-3.1,3.1-7.4,3.1-13.3c0.2-4.5-0.9-9-3.1-12.9c-3.5-5-10.3-6.2-15.3-2.7c-1.1,0.7-2,1.7-2.7,2.7
									c-2.4,3.9-3.5,8.4-3.1,12.9c-0.1,4.6,1,9.2,3.1,13.3C827.5,1059.3,830.8,1061.1,834.4,1061.1"/>
								<path id="Path_292" class="st29" d="M872.8,1070.9v-41.5H883l0.8,5.5h0.4c1.9-1.6,3.8-3,5.9-4.3c2.3-1.3,4.8-2,7.4-2
									c3.8-0.3,7.5,1.3,9.8,4.3c2.2,3.8,3.3,8.1,3.1,12.5v25.8h-12.5V1047c0.2-2.2-0.2-4.3-1.2-6.3c-0.9-1.2-2.4-1.8-3.9-1.6
									c-1.4,0-2.8,0.4-3.9,1.2c-1.4,0.8-2.6,1.9-3.5,3.1v28.2h-12.5V1070.9z"/>
								<path id="Path_293" class="st29" d="M940.2,1071.6c-2.4,0.1-4.9-0.4-7-1.6c-2.1-1.1-3.9-2.5-5.5-4.3c-1.6-2-2.7-4.2-3.5-6.7
									c-0.8-2.9-1.2-6-1.2-9c-0.2-3.1,0.4-6.2,1.6-9c1-2.5,2.3-4.9,3.9-7c1.5-1.8,3.4-3.2,5.5-4.3c1.9-1.1,4.1-1.6,6.3-1.6
									c2-0.1,4,0.3,5.9,1.2c1.6,0.8,3,1.9,4.3,3.1l-0.4-6.3v-14.5h12.5v58.7h-10.2l-0.8-4.3h-0.4c-1.4,1.5-3.2,2.7-5.1,3.5
									C944.4,1071,942.3,1071.7,940.2,1071.6 M943.3,1061.9c1.2,0,2.4-0.3,3.5-0.8c1.2-0.4,2-1.6,3.1-3.1v-17.2
									c-1-0.9-2.2-1.6-3.5-2c-1.1-0.4-2.3-0.7-3.5-0.8c-2,0-4,1-5.1,2.7c-1.8,2.5-2.6,5.6-2.3,8.6c-0.2,3.1,0.5,6.2,2,9
									C938.6,1060.4,940.8,1061.8,943.3,1061.9"/>
								<path id="Path_294" class="st29" d="M996.1,1071.6c-2.8,0.1-5.6-0.4-8.2-1.6c-2.6-0.8-4.9-2.3-6.7-4.3
									c-1.9-1.9-3.4-4.1-4.3-6.7c-1.2-3-1.7-6.2-1.6-9.4c-0.1-3.1,0.4-6.1,1.6-9c1.1-2.5,2.6-4.9,4.3-7c1.8-1.9,3.9-3.3,6.3-4.3
									c2.3-1.1,4.9-1.7,7.4-1.6c2.7-0.1,5.4,0.4,7.8,1.6c2.1,1,4,2.5,5.5,4.3c1.6,1.8,2.7,3.9,3.1,6.3c0.8,2.5,1.2,5.2,1.2,7.8
									v3.1c0,0.8-0.4,2-0.4,2.3h-25.1c0.3,2.7,1.7,5.1,3.9,6.7c2,1.5,4.5,2.2,7,2c3.2,0,6.3-1,9-2.7l4.3,7.4
									c-2.1,1.6-4.5,2.8-7,3.5C1001.7,1071.1,999,1071.7,996.1,1071.6 M986.7,1045.4h14.9c0.1-2.1-0.4-4.1-1.6-5.9
									c-1.3-1.7-3.4-2.6-5.5-2.3c-1.9,0.1-3.7,0.8-5.1,2C988.2,1041.1,987.3,1043.2,986.7,1045.4"/>
								<path id="Path_295" class="st29" d="M1025.1,1070.9v-41.5h10.2l0.8,7.4h0.4c1.3-2.5,3.2-4.6,5.5-6.3c1.9-1.2,4-1.9,6.3-2
									c0.9-0.1,1.9,0,2.7,0.4c0.8,0.4,1.6,0.4,2,0.8l-2,10.6c-0.7-0.3-1.5-0.5-2.3-0.4h-2.3c-1.8,0-3.6,0.6-5.1,1.6
									c-1.9,1.6-3.4,3.6-4.3,5.9v24.3h-11.7V1070.9z"/>
								<path id="Path_296" class="st29" d="M1070.1,1070.9l-10.6-41.5h12.1l3.9,19.2c0.5,2.1,0.7,4.2,0.8,6.3
									c0.5,2.1,0.7,4.2,0.8,6.3h0.4c0.4-2,0.8-4.3,1.2-6.3l1.2-5.9l4.7-19.2h10.6l4.7,19.2c0.4,2,0.8,4.3,1.2,6.3
									c0.4,2,0.8,3.9,1.2,6.3h0.4c0.5-2.1,0.7-4.2,0.8-6.3c0.4-2,0.4-3.9,0.8-6.3l3.9-19.2h11.4l-10.2,41.5h-14.5l-3.9-16.4
									l-1.2-5.9c-0.4-2-0.8-3.9-1.2-6.3h-0.4c-0.4,2.3-0.8,4.3-1.2,6.3l-1.2,5.9l-3.5,16.4h-12.1L1070.1,1070.9z"/>
								<path id="Path_297" class="st29" d="M1139.1,1023.1c-1.9,0-3.7-0.7-5.1-2c-2.6-2.6-2.6-6.8,0-9.4c0,0,0,0,0,0
									c2.9-2.6,7.3-2.6,10.2,0c2.6,2.6,2.6,6.8,0,9.4c0,0,0,0,0,0C1142.7,1022.3,1140.9,1023,1139.1,1023.1 M1132.8,1029.4h12.5
									v41.5h-12.5V1029.4z"/>
								<path id="Path_298" class="st29" d="M1157.9,1087.3c-1.4,0.1-2.9,0-4.3-0.4c-1.2-0.4-2-0.4-3.1-0.8l2.3-9
									c0.4,0,1.2,0.4,1.6,0.4h1.6c1.4,0.2,2.7-0.4,3.5-1.6c0.7-1.6,1-3.4,0.8-5.1V1029h12.5v41.5c-0.1,2.2-0.3,4.5-0.8,6.7
									c-0.4,2-1.2,3.8-2.3,5.5c-1.2,1.6-2.8,2.8-4.7,3.5C1162.6,1087,1160.3,1087.4,1157.9,1087.3 M1166.5,1023.1
									c-1.9,0-3.7-0.7-5.1-2c-2.6-2.6-2.6-6.8,0-9.4c0,0,0,0,0,0c2.9-2.6,7.3-2.6,10.2,0c2.6,2.6,2.6,6.8,0,9.4c0,0,0,0,0,0
									C1170.2,1022.4,1168.3,1023.1,1166.5,1023.1"/>
								<path id="Path_299" class="st29" d="M1200.1,1071.6c-2.9,0-5.9-0.5-8.6-1.6c-2.7-1-5.3-2.4-7.4-4.3l5.5-7.8
									c1.6,1.4,3.5,2.5,5.5,3.1c1.7,0.8,3.6,1.2,5.5,1.2c1.3,0.1,2.7-0.2,3.9-0.8c0.8-0.7,1.2-1.7,1.2-2.7c0-0.8-0.4-1.2-0.8-2
									c-0.6-0.6-1.2-1.1-2-1.6c-0.9-0.5-1.8-0.9-2.7-1.2c-1.2-0.4-2-0.8-3.1-1.2c-1.4-0.5-2.7-1.2-3.9-2l-3.5-2.3
									c-1.2-0.9-2.2-2.1-2.7-3.5c-0.8-1.4-1.3-3-1.2-4.7c0-1.9,0.4-3.8,1.2-5.5c0.8-1.6,1.9-3,3.1-4.3c1.6-1.1,3.3-2.1,5.1-2.7
									c4.9-1.3,10.1-1,14.9,0.8c2.2,1,4.3,2.2,6.3,3.5l-5.5,7.4c-1.6-1.2-3.1-2-4.3-2.7c-1.3-0.6-2.8-0.9-4.3-0.8
									c-3.1,0-4.7,1.2-4.7,3.1c0,0.6,0.3,1.2,0.8,1.6c0.6,0.5,1.3,0.9,2,1.2c0.9,0.5,1.8,0.9,2.7,1.2c1,0.5,2.1,0.8,3.1,1.2
									c1.2,0.4,2.7,1.2,3.9,1.6l3.5,2.3c1.2,0.9,2.2,2.1,2.7,3.5c0.8,1.6,1.2,3.3,1.2,5.1c0,1.9-0.4,3.8-1.2,5.5
									c-0.8,1.6-1.9,3-3.1,4.3c-1.6,1.4-3.4,2.3-5.5,2.7C1205.5,1071,1202.8,1071.8,1200.1,1071.6"/>
							</g>
							<circle id="Paars_-_4-2" class="st14" cx="1696.3" cy="1313.5" r="45"/>
							<circle id="Paars_-_3-2" class="st30" cx="1592.3" cy="1246.8" r="45"/>
							<circle id="Paars_-_2-2" class="st30" cx="1486.1" cy="1173.1" r="45"/>
							<circle id="Paars_-_1-2" class="st30" cx="1375.8" cy="1108.1" r="45"/>
							<circle id="Turqoise_-_1-2" class="st30" cx="1266.2" cy="695.1" r="45"/>
							<circle id="Turqoise_-_2-2" class="st30" cx="1356.2" cy="605.1" r="45"/>
							<circle id="Turqoise_-_3-2" class="st30" cx="1443.3" cy="523.6" r="45"/>
							<circle id="Turqoise_-_4-2" class="st20" cx="1529.6" cy="439.6" r="45"/>
							<circle id="Blue_-_1-2" class="st30" cx="767" cy="700.1" r="45"/>
							<circle id="Blue_-_2-2" class="st30" cx="675.1" cy="609.1" r="45"/>
							<circle id="Blue_-_3-2" class="st30" cx="583.1" cy="523.6" r="45"/>
							<circle id="Blue_-_4-2" class="st24" cx="500.2" cy="433.6" r="45"/>
							<circle id="Groen_-_1" class="st30" cx="648.2" cy="1109.1" r="45"/>
							<circle id="Groen_-_2" class="st30" cx="526.9" cy="1158.9" r="45"/>
							<circle id="Groen_-_3" class="st30" cx="417.5" cy="1208.1" r="45"/>
							<circle id="Groen_-_4" class="st3" cx="313.5" cy="1271.5" r="45"/>
							<circle id="Oranje_-_1-2" class="st30" cx="1015.2" cy="1384.3" r="45"/>
							<circle id="Oranje_-_2-2" class="st30" cx="1014.2" cy="1501.8" r="45"/>
							<circle id="Oranje_-_3-2" class="st30" cx="1014.2" cy="1628.3" r="45"/>
							<circle id="Oranje_-_4-2" class="st30" cx="1017.2" cy="1748.2" r="45"/>
							<path id="Blue_-_1" class="st29" d="M752.6,726.3v-9h10.6v-28.2h-9v-7c2.3-0.4,4.5-1,6.7-2c1.9-0.8,3.7-1.7,5.5-2.7h8.2v39.5
								h9v9h-30.9V726.3z"/>
							<path id="Green_-_1" class="st29" d="M632.4,1131.2v-9H643V1094h-9v-7c2.3-0.4,4.5-1,6.7-2c1.9-0.8,3.7-1.7,5.5-2.7h8.2v39.5
								h9v9h-30.9V1131.2z"/>
							<path id="Paars_-_1" class="st29" d="M1359.9,1131.2v-9h10.6V1094h-9v-7c2.3-0.4,4.5-1,6.7-2c1.9-0.8,3.7-1.7,5.5-2.7h8.2
								v39.5h9v9h-30.9V1131.2z"/>
							<path id="Paars_-_2" class="st29" d="M1468.7,1195.8v-6.3c3.1-2.7,5.9-5.5,8.6-8.2s4.7-4.7,6.7-7c1.6-2,3-4.1,4.3-6.3
								c1-1.7,1.5-3.5,1.6-5.5c0.1-2-0.6-4-2-5.5c-1.3-1.3-3.2-2.1-5.1-2c-1.7-0.1-3.4,0.4-4.7,1.6c-1.2,1.2-2.7,2.3-3.9,3.5
								l-6.3-5.9c2.1-2.4,4.6-4.4,7.5-5.9c2.8-1.5,5.9-2.2,9-2c2.3,0,4.5,0.4,6.7,1.2c1.8,0.8,3.5,1.9,5.1,3.1
								c1.4,1.3,2.5,2.9,3.1,4.7c0.8,2,1.2,4.1,1.2,6.3c0,2.1-0.4,4.3-1.2,6.3c-0.9,2.2-2.1,4.4-3.5,6.3c-1.6,2.2-3.3,4.3-5.1,6.3
								c-2,2-3.9,4.3-5.9,6.3c1.2,0,2.7-0.4,3.9-0.4h13.7v9.4L1468.7,1195.8z"/>
							<path id="Paars_-_3" class="st29" d="M1590.9,1269.8c-3.5,0-7-0.6-10.2-2c-2.7-1-5-2.8-6.7-5.1l5.1-7c1.4,1.4,3,2.6,4.7,3.5
								c1.8,1,3.8,1.5,5.9,1.6c2.1,0.1,4.1-0.4,5.9-1.6c1.4-1,2.2-2.6,2-4.3c0.1-0.9,0-1.9-0.4-2.7c-0.5-0.9-1.2-1.7-2-2.3
								c-1.2-0.7-2.6-1.2-3.9-1.6c-2.2-0.4-4.4-0.5-6.7-0.4v-7.8c1.8,0.1,3.7,0,5.5-0.4c1.2-0.3,2.4-0.7,3.5-1.2
								c0.8-0.4,1.5-1.1,2-2c0.3-0.9,0.5-1.8,0.4-2.7c0.2-1.5-0.4-2.9-1.6-3.9c-1.2-1-2.7-1.5-4.3-1.6c-1.6,0-3.2,0.4-4.7,1.2
								c-1.5,0.9-3,2-4.3,3.1l-5.5-7c2.2-1.8,4.5-3.4,7-4.7c2.6-1.2,5.4-1.7,8.2-1.6c2.2,0,4.5,0.3,6.7,0.8c1.9,0.6,3.6,1.5,5.1,2.7
								c1.5,1.2,2.7,2.6,3.5,4.3c0.8,1.7,1.2,3.6,1.2,5.5c0,2.4-0.7,4.7-2,6.7c-1.7,1.7-3.7,3.2-5.9,4.3v0.4c2.7,0.8,5.1,2.3,7,4.3
								c1.9,2.1,2.9,5,2.7,7.8c0.1,2.1-0.4,4.1-1.6,5.9c-1,1.7-2.3,3.2-3.9,4.3c-1.8,1.2-3.8,2.1-5.9,2.7
								C1595.6,1269.5,1593.3,1269.7,1590.9,1269.8"/>
							<path id="Paars_-_4" class="st29" d="M1703.3,1339.8v-11.7h-21.1v-7.8l17.6-29.4h13.7v28.2h5.5v8.6h-5.5v11.7h-10.2
								L1703.3,1339.8z M1693.1,1319.5h10.2v-13.3c0-2,0.4-3.9,0.4-5.5h-0.4c-0.8,1.2-1.2,2.7-2,3.9c-0.8,1.6-1.2,2.7-2,4.3
								L1693.1,1319.5z"/>
							<path id="Green_-_2" class="st29" d="M510.3,1180.9v-6.3c3.1-2.7,5.9-5.5,8.6-8.2c2.7-2.7,4.7-4.7,6.7-7c1.6-2,3-4.1,4.3-6.3
								c1-1.7,1.5-3.5,1.6-5.5c0.1-2-0.6-4-2-5.5c-1.3-1.3-3.2-2.1-5.1-2c-1.7-0.1-3.4,0.4-4.7,1.6c-1.2,1.2-2.7,2.3-3.9,3.5
								l-6.3-5.9c2.1-2.4,4.6-4.4,7.4-5.9c2.8-1.5,5.9-2.2,9-2c2.3,0,4.5,0.4,6.7,1.2c1.8,0.8,3.5,1.9,5.1,3.1
								c1.4,1.3,2.5,2.9,3.1,4.7c0.8,2,1.2,4.1,1.2,6.3c0,2.1-0.4,4.3-1.2,6.3c-0.9,2.2-2.1,4.4-3.5,6.3c-1.6,2.2-3.3,4.3-5.1,6.3
								c-2,2-3.9,4.3-5.9,6.3c1.2,0,2.7-0.4,3.9-0.4h13.7v9.4L510.3,1180.9z"/>
							<path id="Green_-_3" class="st29" d="M417.1,1233c-3.5,0-7-0.6-10.2-2c-2.7-1-5-2.8-6.7-5.1l5.1-7c1.4,1.4,3,2.6,4.7,3.5
								c1.8,1,3.8,1.5,5.9,1.6c2.1,0.1,4.1-0.4,5.9-1.6c1.4-1,2.2-2.6,2-4.3c0.1-0.9,0-1.9-0.4-2.7c-0.5-0.9-1.2-1.7-2-2.3
								c-1.2-0.7-2.6-1.2-3.9-1.6c-2.2-0.4-4.4-0.5-6.7-0.4v-7.8c1.8,0.1,3.7,0,5.5-0.4c1.2-0.3,2.4-0.7,3.5-1.2
								c0.8-0.4,1.5-1.1,2-2c0.3-0.9,0.5-1.8,0.4-2.7c0.2-1.5-0.4-2.9-1.6-3.9c-1.2-1-2.7-1.5-4.3-1.6c-1.6,0-3.2,0.4-4.7,1.2
								c-1.5,0.9-3,2-4.3,3.1l-5.5-7c2.2-1.8,4.5-3.4,7-4.7c2.6-1.2,5.4-1.7,8.2-1.6c2.2,0,4.5,0.3,6.7,0.8c1.9,0.6,3.6,1.5,5.1,2.7
								c1.5,1.2,2.7,2.6,3.5,4.3c0.8,1.7,1.2,3.6,1.2,5.5c0,2.4-0.7,4.7-2,6.7c-1.7,1.7-3.7,3.2-5.9,4.3v0.4c2.7,0.8,5.1,2.3,7,4.3
								c1.9,2.1,2.9,5,2.7,7.8c0.1,2.1-0.4,4.1-1.6,5.9c-1,1.7-2.3,3.2-3.9,4.3c-1.8,1.2-3.8,2.1-5.9,2.7
								C421.8,1232.6,419.4,1232.9,417.1,1233"/>
							<path id="Green_-_4" class="st29" d="M314.1,1293.6v-11.7h-21.1v-7.8l17.6-29.4h13.7v28.2h5.5v8.6h-5.5v11.7h-10.2V1293.6z
								 M303.9,1273.3h10.2V1260c0-2,0.4-3.9,0.4-5.5h-0.4c-0.8,1.2-1.2,2.7-2,3.9c-0.8,1.6-1.2,2.7-2,4.3L303.9,1273.3z"/>
							<path id="Turqoise_-_1" class="st29" d="M1250.6,726.3v-9h10.6v-28.2h-9v-7c2.3-0.4,4.5-1,6.7-2c1.9-0.8,3.7-1.7,5.5-2.7h8.2
								v39.5h9v9h-30.9L1250.6,726.3z"/>
							<path id="Oranje_-_1" class="st29" d="M1000.1,1407.6v-9h10.6v-28.2h-9v-7c2.3-0.4,4.5-1,6.7-2c1.9-0.8,3.7-1.7,5.5-2.7h8.2
								v39.5h9v9h-30.9V1407.6z"/>
							<path id="Oranje_-_2" class="st29" d="M997.3,1523.5v-6.3c3.1-2.7,5.9-5.5,8.6-8.2s4.7-4.7,6.7-7c1.6-2,3-4.1,4.3-6.3
								c1-1.7,1.5-3.5,1.6-5.5c0.1-2-0.6-4-2-5.5c-1.3-1.3-3.2-2.1-5.1-2c-1.7-0.1-3.4,0.4-4.7,1.6c-1.2,1.2-2.7,2.3-3.9,3.5
								l-6.3-5.9c2.1-2.4,4.6-4.4,7.4-5.9c2.8-1.5,5.9-2.2,9-2c2.3,0,4.5,0.4,6.7,1.2c1.8,0.8,3.5,1.9,5.1,3.1
								c1.4,1.3,2.5,2.9,3.1,4.7c0.8,2,1.2,4.1,1.2,6.3c0,2.1-0.4,4.3-1.2,6.3c-0.9,2.2-2.1,4.4-3.5,6.3c-1.6,2.2-3.3,4.3-5.1,6.3
								c-2,2-3.9,4.3-5.9,6.3c1.2,0,2.7-0.4,3.9-0.4h13.7v9.4L997.3,1523.5z"/>
							<path id="Oranje_-_3" class="st29" d="M1013,1651.9c-3.5,0-7-0.6-10.2-2c-2.7-1-5-2.8-6.7-5.1l5.1-7c1.4,1.4,3,2.6,4.7,3.5
								c1.8,1,3.8,1.5,5.9,1.6c2.1,0.1,4.1-0.4,5.9-1.6c1.4-1,2.2-2.6,2-4.3c0.1-0.9,0-1.9-0.4-2.7c-0.5-0.9-1.2-1.7-2-2.3
								c-1.2-0.7-2.6-1.2-3.9-1.6c-2.2-0.4-4.4-0.5-6.7-0.4v-7.8c1.8,0.1,3.7,0,5.5-0.4c1.2-0.3,2.4-0.7,3.5-1.2
								c0.8-0.4,1.5-1.1,2-2c0.3-0.9,0.5-1.8,0.4-2.7c0.2-1.5-0.4-2.9-1.6-3.9c-1.2-1-2.7-1.5-4.3-1.6c-1.6,0-3.2,0.4-4.7,1.2
								c-1.5,0.9-3,2-4.3,3.1l-5.5-7c2.2-1.8,4.5-3.4,7-4.7c2.6-1.2,5.4-1.7,8.2-1.6c2.2,0,4.5,0.3,6.7,0.8c1.9,0.6,3.6,1.5,5.1,2.7
								c1.5,1.2,2.7,2.6,3.5,4.3c0.8,1.7,1.2,3.6,1.2,5.5c0,2.4-0.7,4.7-2,6.7c-1.7,1.7-3.7,3.2-5.9,4.3v0.4c2.7,0.8,5.1,2.3,7,4.3
								c1.9,2.1,2.9,5,2.7,7.8c0.1,2.1-0.4,4.1-1.6,5.9c-1,1.7-2.3,3.2-3.9,4.3c-1.8,1.2-3.8,2.1-5.9,2.7
								C1017.7,1651.6,1015.4,1651.9,1013,1651.9"/>
							<path id="Oranje_-_4" class="st29" d="M1016.9,1770.1v-11.7h-21.1v-7.8l17.6-29.4h13.7v28.2h5.5v8.6h-5.5v11.7h-10.2
								L1016.9,1770.1z M1006.7,1749.8h10.2v-13.3c0-2,0.4-3.9,0.4-5.5h-0.4c-0.8,1.2-1.2,2.7-2,3.9c-0.8,1.6-1.2,2.7-2,4.3
								L1006.7,1749.8z"/>
							<path id="Turqoise_-_2" class="st29" d="M1339.5,634.7v-6.3c3.1-2.7,5.9-5.5,8.6-8.2c2.7-2.7,4.7-4.7,6.7-7
								c1.6-2,3-4.1,4.3-6.3c1-1.7,1.5-3.5,1.6-5.5c0.1-2-0.6-4-2-5.5c-1.3-1.3-3.2-2.1-5.1-2c-1.7-0.1-3.4,0.4-4.7,1.6
								c-1.2,1.2-2.7,2.3-3.9,3.5l-6.3-5.9c2.1-2.4,4.6-4.4,7.4-5.9c2.8-1.5,5.9-2.2,9-2c2.3,0,4.5,0.4,6.7,1.2
								c1.8,0.8,3.5,1.9,5.1,3.1c1.4,1.3,2.5,2.9,3.1,4.7c0.8,2,1.2,4.1,1.2,6.3c0,2.1-0.4,4.3-1.2,6.3c-0.9,2.2-2.1,4.4-3.5,6.3
								c-1.6,2.2-3.3,4.3-5.1,6.3c-2,2-3.9,4.3-5.9,6.3c1.2,0,2.7-0.4,3.9-0.4h13.7v9.4L1339.5,634.7z"/>
							<path id="Turqoise_-_3" class="st29" d="M1439,552.1c-3.5,0-7-0.6-10.2-2c-2.7-1-5-2.8-6.7-5.1l5.1-7c1.4,1.4,3,2.6,4.7,3.5
								c1.8,1,3.8,1.5,5.9,1.6c2.1,0.1,4.1-0.4,5.9-1.6c1.4-1,2.2-2.6,2-4.3c0.1-0.9,0-1.9-0.4-2.7c-0.5-0.9-1.2-1.7-2-2.3
								c-1.2-0.7-2.6-1.2-3.9-1.6c-2.2-0.4-4.4-0.5-6.7-0.4v-7.8c1.8,0.1,3.7,0,5.5-0.4c1.2-0.3,2.4-0.7,3.5-1.2
								c0.8-0.4,1.5-1.1,2-2c0.3-0.9,0.5-1.8,0.4-2.7c0.2-1.5-0.4-2.9-1.6-3.9c-1.2-1-2.7-1.5-4.3-1.6c-1.6,0-3.2,0.4-4.7,1.2
								c-1.5,0.9-3,2-4.3,3.1l-5.5-7c2.2-1.8,4.5-3.4,7-4.7c2.6-1.2,5.4-1.7,8.2-1.6c2.2,0,4.5,0.3,6.7,0.8c1.9,0.6,3.6,1.5,5.1,2.7
								c1.5,1.2,2.7,2.6,3.5,4.3c0.8,1.7,1.2,3.6,1.2,5.5c0,2.4-0.7,4.7-2,6.7c-1.7,1.7-3.7,3.2-5.9,4.3v0.4c2.7,0.8,5.1,2.3,7,4.3
								c1.9,2.1,2.9,5,2.7,7.8c0.1,2.1-0.4,4.1-1.6,5.9c-1,1.7-2.3,3.2-3.9,4.3c-1.8,1.2-3.8,2.1-5.9,2.7
								C1443.7,551.9,1441.4,552.2,1439,552.1"/>
							<path id="Turqoise_-_4" class="st29" d="M1531.4,462.8v-11.7h-21.1v-7.8l17.6-29.4h13.7V442h5.5v8.6h-5.5v11.7h-10.2
								L1531.4,462.8z M1521.2,442.4h10.2v-13.3c0-2,0.4-3.9,0.4-5.5h-0.4c-0.8,1.2-1.2,2.7-2,3.9c-0.8,1.6-1.2,2.7-2,4.3
								L1521.2,442.4z"/>
							<path id="Blue_-_2" class="st29" d="M657.5,633.5v-6.3c3.1-2.7,5.9-5.5,8.6-8.2c2.7-2.7,4.7-4.7,6.7-7c1.6-2,3-4.1,4.3-6.3
								c1-1.7,1.5-3.5,1.6-5.5c0.1-2-0.6-4-2-5.5c-1.3-1.3-3.2-2.1-5.1-2c-1.7-0.1-3.4,0.4-4.7,1.6c-1.2,1.2-2.7,2.3-3.9,3.5
								l-6.3-5.9c2.1-2.4,4.6-4.4,7.4-5.9c2.8-1.5,5.9-2.2,9-2c2.3,0,4.5,0.4,6.7,1.2c1.8,0.8,3.5,1.9,5.1,3.1
								c1.4,1.3,2.5,2.9,3.1,4.7c0.8,2,1.2,4.1,1.2,6.3c0,2.1-0.4,4.3-1.2,6.3c-0.9,2.2-2.1,4.4-3.5,6.3c-1.6,2.2-3.3,4.3-5.1,6.3
								c-2,2-3.9,4.3-5.9,6.3c1.2,0,2.7-0.4,3.9-0.4h13.7v9.4L657.5,633.5z"/>
							<path id="Blue_-_3" class="st29" d="M583.9,545.4c-3.5,0-7-0.6-10.2-2c-2.7-1-5-2.8-6.7-5.1l5.1-7c1.4,1.4,3,2.6,4.7,3.5
								c1.8,1,3.8,1.5,5.9,1.6c2.1,0.1,4.1-0.4,5.9-1.6c1.4-1,2.2-2.6,2-4.3c0.1-0.9,0-1.9-0.4-2.7c-0.5-0.9-1.2-1.7-2-2.3
								c-1.2-0.7-2.6-1.2-3.9-1.6c-2.2-0.4-4.4-0.5-6.7-0.4v-7.8c1.8,0.1,3.7,0,5.5-0.4c1.2-0.3,2.4-0.7,3.5-1.2
								c0.8-0.4,1.5-1.1,2-2c0.3-0.9,0.5-1.8,0.4-2.7c0.2-1.5-0.4-2.9-1.6-3.9c-1.2-1-2.7-1.5-4.3-1.6c-1.6,0-3.2,0.4-4.7,1.2
								c-1.5,0.9-3,2-4.3,3.1l-5.5-7c2.2-1.8,4.5-3.4,7-4.7c2.6-1.2,5.4-1.7,8.2-1.6c2.2,0,4.5,0.3,6.7,0.8c1.9,0.6,3.6,1.5,5.1,2.7
								c1.5,1.2,2.7,2.6,3.5,4.3c0.8,1.7,1.2,3.6,1.2,5.5c0,2.4-0.7,4.7-2,6.7c-1.7,1.7-3.7,3.2-5.9,4.3v0.4c2.7,0.8,5.1,2.3,7,4.3
								c1.9,2.1,2.9,5,2.7,7.8c0.1,2.1-0.4,4.1-1.6,5.9c-1,1.7-2.3,3.2-3.9,4.3c-1.8,1.2-3.8,2.1-5.9,2.7
								C588.6,545.1,586.2,545.3,583.9,545.4"/>
							<path id="Blue_-_4" class="st29" d="M499.7,456.1v-11.7h-21.1v-7.8l17.6-29.4h13.7v28.2h5.5v8.6h-5.5v11.7h-10.2L499.7,456.1
								z M489.5,436.2h10.2v-13.3c0-2,0.4-3.9,0.4-5.5h-0.4c-0.8,1.2-1.2,2.7-2,3.9c-0.8,1.6-1.2,2.7-2,4.3L489.5,436.2z"/>
							<path id="Path_320" class="st29" d="M334.4,473l-19.6-14.9l-5.1,6.7l-4.7-3.5l14.1-18.8l4.7,3.5l-5.1,6.7l19.6,14.9
								L334.4,473z"/>
							<path id="Path_321" class="st29" d="M352.1,451.4c-0.9,1.1-1.9,2-3.1,2.7c-1.2,0.7-2.5,1.2-3.9,1.2c-1.6,0.1-3.2-0.1-4.7-0.4
								c-1.7-0.5-3.3-1.3-4.7-2.3c-1.5-1-2.7-2.3-3.5-3.9c-0.7-1.4-1.2-2.8-1.6-4.3c-0.1-1.4,0.1-2.9,0.4-4.3c0.4-1.4,1.1-2.7,2-3.9
								c0.9-1.1,1.9-2,3.1-2.7c1.2-0.7,2.5-1.2,3.9-1.2c1.4-0.1,2.9,0,4.3,0.4c1.7,0.5,3.3,1.3,4.7,2.3c1.5,1,2.7,2.3,3.5,3.9
								c0.7,1.4,1.2,2.8,1.6,4.3c0.1,1.4-0.1,2.9-0.4,4.3C353.7,449,353.2,450.4,352.1,451.4 M347.8,447.9c0.8-1,1.1-2.3,0.8-3.5
								c-0.7-1.6-1.7-2.9-3.1-3.9c-1.3-1-2.8-1.8-4.3-2.3c-1.3,0-2.5,0.4-3.5,1.2c-0.8,1-1.1,2.3-0.8,3.5c0.7,1.6,1.7,2.9,3.1,3.9
								c1.3,1,2.8,1.8,4.3,2.3C345.6,449.6,347,449.1,347.8,447.9"/>
							<path id="Path_322" class="st29" d="M370.1,429.9c-1.1,1.2-2.3,2.2-3.5,3.1c-1.3,0.8-2.8,1.2-4.3,1.2c-1.5,0.2-3-0.1-4.3-0.8
								c-1.6-0.5-3.1-1.5-4.3-2.7c-1.4-1-2.4-2.4-3.1-3.9c-0.8-1.3-1.2-2.8-1.2-4.3c-0.1-1.4,0.1-2.9,0.4-4.3c0.4-1.3,1.1-2.5,2-3.5
								c1.1-1,2.3-2,3.5-2.7c1.2-0.5,2.6-0.8,3.9-0.8c1.3,0.1,2.7,0.3,3.9,0.8c1.3,0.6,2.4,1.4,3.5,2.3l1.2,1.2l0.8,0.8l-9,10.6
								c1.3,0.8,2.8,1.1,4.3,0.8c1.3-0.5,2.5-1.3,3.5-2.3c1.3-1.2,2-2.9,2-4.7l4.7,0.8c0,1.5-0.4,3-1.2,4.3
								C372.3,427.2,371.3,428.7,370.1,429.9 M356,424l5.5-6.3c-1-0.7-2-1.2-3.1-1.6c-1.1-0.1-2.2,0.6-2.7,1.6
								c-0.7,0.7-1.1,1.7-1.2,2.7C354.3,421.9,354.9,423.2,356,424"/>
							<path id="Path_323" class="st29" d="M386.5,411.9c-1.4,1.9-3.5,3.1-5.9,3.1c-1.1-0.1-2.1-0.3-3.1-0.8c-1.1-0.5-2.2-1.2-3.1-2
								l-7-6.2l-2,2.3l-3.9-3.5l2.3-2.7l-3.9-4.7l3.9-4.3l4.7,4.3l3.5-3.9l3.9,3.5l-3.5,3.9l6.7,6.3c0.7,0.7,1.7,1.1,2.7,1.2
								c0.8,0,1.6-0.4,2-1.2l0.8-0.8c0.3-0.3,0.4-0.7,0.4-1.2l4.3,2.7c-0.5,0.6-0.9,1.3-1.2,2C387.7,410.7,386.9,411.1,386.5,411.9"
								/>
							<path id="Path_324" class="st29" d="M398.3,399c-1.1,1.1-2.5,2.1-3.9,2.7c-1.5,0.7-3.1,1.2-4.7,1.6l-0.8-5.1
								c1.2-0.4,2.3-0.4,3.5-0.8c0.8-0.4,2-0.8,2.3-1.6c0.6-0.5,1-1.2,1.2-2c0.1-0.6-0.1-1.1-0.4-1.6c-0.7-0.5-1.7-0.5-2.3,0
								c-0.6,0.1-1.1,0.4-1.6,0.8c-0.4,0.4-1.2,0.4-1.6,0.8c-0.7,0.4-1.5,0.7-2.3,0.8c-1.5,0.5-3.2,0.5-4.7,0l-2.3-1.2
								c-0.7-0.7-1.2-1.5-1.6-2.3c-0.3-0.9-0.5-1.8-0.4-2.7c0.1-1.1,0.4-2.1,0.8-3.1c0.5-1.1,1.2-2.2,2-3.1c1-1.3,2.4-2.2,3.9-2.7
								c1.2-0.4,2.7-0.8,3.9-1.2l0.8,5.1c-1,0-1.9,0.3-2.7,0.8c-0.8,0.3-1.5,0.8-2,1.6c-1.2,1.2-1.2,2.3-0.4,3.1
								c0.4,0.4,0.4,0.4,0.8,0.4c0.4,0.1,0.9-0.1,1.2-0.4c0.4,0,0.8-0.4,1.6-0.8c0.4-0.4,1.2-0.4,1.6-0.8c0.7-0.4,1.5-0.7,2.3-0.8
								c1.5-0.5,3.2-0.5,4.7,0c1.8,0.7,3.2,2.1,3.9,3.9c0.3,0.9,0.5,1.8,0.4,2.7c-0.1,1.1-0.3,2.1-0.8,3.1
								C400.1,397.3,399.3,398.3,398.3,399"/>
							<path id="Path_325" class="st29" d="M419.4,388.4c-3.6-0.7-7-2-10.2-3.9c-3.2-1.9-6.3-4.1-9-6.7c-2.7-2.6-4.9-5.7-6.7-9
								c-1.7-3.2-3-6.6-3.9-10.2l4.3-2c0.8,3.3,2.1,6.5,3.9,9.4c1.9,2.8,4,5.4,6.3,7.8c2.4,2.3,5.1,4.4,7.8,6.3
								c2.8,1.9,6,3.3,9.4,3.9L419.4,388.4z"/>
							<path id="Path_326" class="st29" d="M428.4,368.8c-0.8,0.9-1.9,1.6-3.1,2c-1,0.3-2.1,0.5-3.1,0.4c-1.1,0-2.2-0.4-3.1-1.2
								c-1.1-0.5-2-1.4-2.7-2.3l-6.7-6.7l-2.3,2.3l-3.5-3.5l2.3-2.7l-3.9-5.1l3.9-3.9l4.3,4.3l3.9-3.9l3.9,3.9l-3.9,3.9l6.7,6.7
								c0.7,0.8,1.7,1.4,2.7,1.6c0.7,0,1.4-0.3,2-0.8l0.8-0.8c0.2-0.2,0.4-0.5,0.4-0.8l4.3,2.7c-0.5,0.6-0.9,1.3-1.2,2
								C430,367.3,429.2,368.1,428.4,368.8"/>
							<path id="Path_327" class="st29" d="M440.2,357.9c-0.7,0.7-1.5,1.2-2.3,1.6c-0.9,0.3-1.8,0.5-2.7,0.4
								c-0.8-0.1-1.6-0.3-2.3-0.8c-0.9-0.4-1.7-0.9-2.3-1.6c-1.5-1.7-2-4-1.6-6.3c1.2-3.2,3.1-6.1,5.5-8.6c-0.6-0.7-1.4-1.1-2.3-1.2
								c-1,0.1-2,0.5-2.7,1.2c-0.8,0.8-1.2,1.6-2,2.3c-0.5,1-0.8,2.1-1.2,3.1l-4.7-1.6c0.5-1.6,1.1-3.2,2-4.7
								c0.8-1.5,1.9-2.8,3.1-3.9c1.8-1.7,4.2-2.7,6.7-2.7c2.9,0.4,5.4,1.9,7,4.3l9,9.8l-4.3,3.9l-2-1.6c-0.1,1.2-0.3,2.4-0.8,3.5
								C441.7,356.2,441,357.1,440.2,357.9 M438.2,352.4c0.4-0.4,0.8-1.2,1.2-1.6c0-0.8,0.4-1.6,0.4-2.3l-2.7-3.1
								c-1.1,1.3-2,2.8-2.7,4.3c-0.3,0.9-0.1,1.9,0.4,2.7c0.4,0.4,1,0.7,1.6,0.8C437,353.2,437.8,353.2,438.2,352.4"/>
							<path id="Path_328" class="st29" d="M455.4,343.8l-21.1-24.7l5.1-4.3l12.1,14.1l-0.4-11.7l5.5-4.7V325l15.3,4.7l-5.5,4.7
								l-9.8-3.5v4.3l3.5,4.3L455.4,343.8z"/>
							<path id="Path_329" class="st29" d="M484.4,330.1l-4.3,1.2c-0.4-3.4-1.5-6.7-3.1-9.8c-1.5-3.1-3.3-6-5.5-8.6
								c-1.9-2.7-4.3-5.1-7.1-7.1c-2.7-2.2-5.8-3.9-9-5.1l2.3-3.9c3.4,1.2,6.7,2.7,9.8,4.7c3.2,2.1,6,4.7,8.2,7.8
								c2.6,2.8,4.6,6.2,5.9,9.8C482.8,323,483.6,326.5,484.4,330.1"/>
							<path id="Path_330" class="st29" d="M498.9,308.9c-1.2,1-2.7,1.7-4.3,2c-1.4,0.3-2.9,0.5-4.3,0.4c-1.5-0.2-3-0.7-4.3-1.6
								c-1.5-0.9-2.8-2.1-3.9-3.5c-1.1-1.4-1.9-3-2.3-4.7c-0.3-1.5-0.5-3.1-0.4-4.7c0.2-1.4,0.6-2.7,1.2-3.9
								c0.7-1.2,1.6-2.3,2.7-3.1c1.1-1,2.5-1.6,3.9-2c1.3-0.4,2.6-0.4,3.9,0c1.2,0.4,2.4,0.9,3.5,1.6c1.2,0.8,2.3,1.9,3.1,3.1
								c0.5,0.4,0.9,1,1.2,1.6c0.4,0.4,0.4,0.8,0.8,1.2l-11,8.2c2.2,2.1,5.6,2.1,7.8,0c1.3-1.2,2.4-2.7,3.1-4.3l4.3,2
								c-0.5,1.4-1.2,2.7-2,3.9C501.3,306.5,500.2,307.9,498.9,308.9 M486,300.3l6.7-5.1c-0.6-1-1.6-1.7-2.7-2
								c-1.1-0.3-2.3,0-3.1,0.8c-0.9,0.7-1.4,1.6-1.6,2.7C485.1,298,485.3,299.3,486,300.3"/>
							<path id="Path_331" class="st29" d="M511,298.7L497.7,280l4.7-3.1l2,2c0.4-1.2,0.8-2.7,1.2-3.9c0.6-1.3,1.5-2.4,2.7-3.1
								c1.6-1.5,3.9-1.9,5.9-1.2c2.2,1.1,4.1,2.7,5.5,4.7l8.2,11.7l-5.5,3.9l-7.8-11c-0.8-1.2-2-2.3-2.7-2.3
								c-0.8-0.3-1.7-0.1-2.3,0.4c-0.7,0.5-1.3,1.2-1.6,2c-0.4,0.8-0.4,1.6-0.8,2.3l9,12.5L511,298.7z"/>
							<path id="Path_332" class="st29" d="M1474.6,271.3l13.3-20.4l-7-4.7l3.1-4.7l19.6,12.9l-3.1,4.7l-7-4.7l-13.3,20.4
								L1474.6,271.3z"/>
							<path id="Path_333" class="st29" d="M1497.7,287.4c-1.2-0.8-2.3-1.9-3.1-3.1c-0.7-1.2-1.2-2.5-1.6-3.9
								c-0.4-1.5-0.4-3.2,0-4.7c0.5-1.7,1.3-3.3,2.3-4.7c1-1.4,2.2-2.6,3.5-3.5c1.3-0.9,2.8-1.5,4.3-1.6c1.4-0.4,2.9-0.4,4.3,0
								c1.4,0.3,2.7,0.8,3.9,1.6c1.2,0.8,2.3,1.9,3.1,3.1c0.8,1.2,1.3,2.5,1.6,3.9c0.4,1.5,0.4,3.2,0,4.7c-0.5,1.7-1.3,3.3-2.3,4.7
								c-1,1.4-2.2,2.6-3.5,3.5c-1.3,0.9-2.8,1.5-4.3,1.6c-1.4,0.4-2.9,0.4-4.3,0C1500.2,288.7,1498.9,288.1,1497.7,287.4
								 M1500.8,282.7c1,0.7,2.4,0.8,3.5,0.4c1.4-0.7,2.7-1.8,3.5-3.1c1.1-1.3,1.8-3,2-4.7c0.1-1.2-0.5-2.4-1.6-3.1
								c-1-0.7-2.4-0.8-3.5-0.4c-1.4,0.7-2.7,1.8-3.5,3.1c-1.1,1.3-1.8,3-2,4.7C1499,280.8,1499.7,282.1,1500.8,282.7"/>
							<path id="Path_334" class="st29" d="M1520.4,303.8c-1.2-1-2.3-2.2-3.1-3.5c-0.8-1.3-1.3-2.8-1.6-4.3
								c-0.3-1.6-0.1-3.2,0.4-4.7c0.5-1.7,1.3-3.3,2.3-4.7c1-1.5,2.3-2.7,3.9-3.5c1.4-0.7,2.8-1.2,4.3-1.6c1.4-0.2,2.9-0.2,4.3,0
								c1.4,0.3,2.7,0.8,3.9,1.6c1.2,0.8,2.3,1.9,3.1,3.1c0.7,1,1.1,2.3,1.2,3.5c0.1,1.4-0.2,2.7-0.8,3.9c-0.5,1.4-1.2,2.7-2,3.9
								l-1.2,1.2l-0.8,0.8l-11-8.2c-0.7,1.3-0.8,2.9-0.4,4.3c0.3,1.3,1.2,2.5,2.3,3.1c1.3,1.1,3,1.6,4.7,1.6l-0.8,4.7
								c-1.5-0.1-2.9-0.3-4.3-0.8C1523.6,305.2,1521.7,305,1520.4,303.8 M1525.1,289.3l6.7,5.1c0.7-0.9,1.1-2,1.2-3.1
								c0.1-1.1-0.6-2.2-1.6-2.7c-0.8-0.6-1.8-0.9-2.7-0.8C1527.1,287.4,1526.3,288.2,1525.1,289.3"/>
							<path id="Path_335" class="st29" d="M1539.6,318.7c-1.9-1.4-3.1-3.5-3.1-5.9c-0.1-1.1,0.2-2.2,0.8-3.1c0.8-1.2,1.2-2,2-3.1
								l5.9-7.4l-2.3-2l3.1-3.9l3.1,2l4.3-4.3l4.3,3.5l-3.9,4.7l4.3,3.5l-3.1,4.3l-4.3-3.5l-5.9,7.4c-0.7,0.8-1.1,1.7-1.2,2.7
								c0,0.8,0.4,1.6,1.2,2c0.4,0.4,0.8,0.4,0.8,0.8c0.4,0,0.8,0.4,1.2,0.4l-2.3,4.7c-0.8-0.4-1.2-0.4-2-0.8
								C1541.4,320.1,1540.4,319.4,1539.6,318.7"/>
							<path id="Path_336" class="st29" d="M1552.9,329.7c-1.2-1-2.3-2.2-3.1-3.5c-0.8-1.3-1.3-2.8-1.6-4.3l5.1-1.2
								c0.3,1.1,0.7,2.1,1.2,3.1c0.5,0.9,1.2,1.7,2,2.3c0.5,0.6,1.2,1,2,1.2c0.6,0.1,1.3-0.2,1.6-0.8c0.5-0.7,0.5-1.7,0-2.3
								c-0.4-0.4-0.4-0.8-0.8-1.6c-0.4-0.4-0.7-1-0.8-1.6c-0.3-0.7-0.7-1.4-1.2-2c-0.4-0.8-0.4-1.6-0.8-2.3v-2.3
								c0.1-0.9,0.5-1.8,1.2-2.3c0.7-0.8,1.5-1.4,2.3-2c0.9-0.4,1.8-0.7,2.7-0.8c1.1,0.1,2.1,0.3,3.1,0.8c1.1,0.5,2.2,1.2,3.1,2
								c1.2,1.1,2.2,2.3,3.1,3.5c0.7,1.2,1.2,2.5,1.6,3.9l-5.1,1.2c-0.2-0.9-0.5-1.8-0.8-2.7c-0.3-0.8-0.8-1.5-1.6-2
								c-1.2-1.2-2.3-1.2-3.1-0.4c-0.2,0.2-0.4,0.5-0.4,0.8c-0.1,0.4,0.1,0.9,0.4,1.2c0,0.4,0.4,0.8,0.8,1.6c0.4,0.4,0.7,1,0.8,1.6
								c0.3,0.7,0.7,1.4,1.2,2c0.4,0.8,0.4,1.6,0.8,2.3v2.3c0,0.8-0.8,1.6-1.2,2.3c-0.6,0.9-1.4,1.5-2.3,2c-0.9,0.4-1.8,0.7-2.7,0.8
								c-1.1-0.1-2.1-0.3-3.1-0.8C1555.7,331.1,1554.3,330.5,1552.9,329.7"/>
							<path id="Path_337" class="st29" d="M1560,345.7l20.8-23.9l4.3,3.5l-1.2,2c1.2-0.1,2.4,0.1,3.5,0.4c1.1,0.3,2.2,0.8,3.1,1.6
								c1.1,0.8,1.9,1.9,2.3,3.1c0.5,1.1,0.7,2.3,0.4,3.5c0,1.4-0.4,2.7-1.2,3.9c-0.8,1.4-1.7,2.7-2.7,3.9c-1.1,1.4-2.4,2.6-3.9,3.5
								c-1.4,0.7-2.8,1.2-4.3,1.6c-1.3,0.3-2.7,0.1-3.9-0.4c-1.1-0.3-2.2-0.8-3.1-1.6c-0.7-0.7-1.2-1.5-1.6-2.3
								c-0.5-1-0.8-2-0.8-3.1l-2.3,2.7l-4.3,5.1L1560,345.7z M1576.8,342.6c0.8,0.8,2,1.1,3.1,0.8c1.7-0.6,3.2-1.7,4.3-3.1
								c2.7-3.1,3.1-5.5,1.2-7.4c-1.3-0.8-2.8-1.3-4.3-1.2l-6.3,7c0,0.7,0.3,1.4,0.8,2C1575.9,341.4,1576.3,342,1576.8,342.6"/>
							<path id="Path_338" class="st29" d="M1587,358.7l15.7-16.8l3.9,3.9l-2.3,3.1c1.5-0.5,3.1-0.7,4.7-0.4
								c1.2,0.4,2.4,0.9,3.5,1.6l1.2,1.2c0.4,0.4,0.4,0.8,0.8,1.2l-4.7,3.5c-0.4-0.4-0.4-0.8-0.8-1.2c-0.4-0.4-0.4-0.8-0.8-0.8
								c-0.8-0.8-1.6-0.8-2.7-1.2c-1.4-0.1-2.7,0.2-3.9,0.8l-9,9.8L1587,358.7z"/>
							<path id="Path_339" class="st29" d="M1608.5,379.4c-1-1-1.8-2.2-2.3-3.5c-0.7-1.3-0.9-2.8-0.8-4.3c0.1-1.5,0.3-2.9,0.8-4.3
								c1.6-3.2,4.2-5.8,7.4-7.4c1.4-0.6,2.8-0.9,4.3-0.8c1.5,0.1,2.9,0.3,4.3,0.8c2.7,1.1,4.8,3.2,5.9,5.9c1,2.8,1,5.8,0,8.6
								c-0.6,1.7-1.7,3.2-3.1,4.3c-1.3,1.3-2.7,2.3-4.3,3.1c-1.4,0.6-2.8,0.9-4.3,0.8c-1.5-0.1-2.9-0.4-4.3-0.8
								C1610.6,381.4,1609.3,380.6,1608.5,379.4 M1612.4,375.5c1,0.8,2.3,1.1,3.5,0.8c1.6-0.6,3.1-1.5,4.3-2.7
								c1.3-1.1,2.3-2.6,2.7-4.3c0.4-1.3-0.1-2.7-1.2-3.5c-0.9-1-2.3-1.3-3.5-0.8c-1.6,0.5-2.9,1.4-3.9,2.7
								c-1.3,1.1-2.3,2.6-2.7,4.3C1611.2,373.5,1611.2,374.7,1612.4,375.5"/>
							<path id="Path_340" class="st29" d="M1619.9,404.5c-0.8-1.2-1.6-2-2.3-3.1c-0.7-0.9-1.1-2-1.2-3.1c-0.4-0.9-0.4-1.9,0-2.7
								c0.4-0.9,0.9-1.7,1.6-2.3c1.5-1.3,3.7-1.6,5.5-0.8V390c0.1-0.8,0.6-1.5,1.2-2c0.7-0.5,1.5-0.9,2.3-1.2h2.7
								c0-1.1,0.1-2.1,0.4-3.1c0.3-1.2,1-2.4,2-3.1c1-0.8,2-1.5,3.1-2c1.1-0.3,2.3-0.5,3.5-0.4c1.2,0,2.3,0.4,3.1,1.2
								c1.1,0.6,2,1.4,2.7,2.3c0.8,1,1.5,2,2,3.1l5.9,6.3l-3.5,3.5l-2.3-2.7c0,0.4-0.4,0.8-0.4,1.2l-1.2,1.2c-0.9,0.9-2,1.5-3.1,2
								c-1,0.3-2.1,0.5-3.1,0.4c-1.1,0-2.2-0.4-3.1-1.2c-1.1-0.5-2-1.4-2.7-2.3c-0.7-0.7-1.2-1.5-1.6-2.3h-1.2
								c-0.4,0-0.4,0.4-0.8,0.4c-0.4,0.4-0.4,0.8-0.4,1.6c0,0.8,0.8,1.2,1.6,2.3l2.7,2.7c1.6,1.5,2.8,3.4,3.5,5.5
								c0.4,1.7-0.2,3.6-1.6,4.7c-0.8,0.9-1.9,1.5-3.1,1.6c-1.1,0.4-2.4,0.4-3.5,0c-1.4-0.4-2.7-0.9-3.9-1.6
								C1622.7,407.2,1621.1,406,1619.9,404.5 M1623.8,402.1c0.8,1,1.9,1.8,3.1,2.3c1.2,0.4,2,0.4,2.3-0.4c0.4-0.4,0.8-1.2,0.4-1.6
								c-0.5-0.8-1-1.6-1.6-2.3l-1.6-1.6c-0.4-0.4-1.2-1.2-1.2-1.6c-0.4-0.4-0.4-0.8-0.8-1.2c-1.2,0-2,0-2.3,0.8
								c-0.7,0.6-0.9,1.6-0.4,2.3C1622.1,400.2,1622.8,401.3,1623.8,402.1 M1635.9,390.4c0.8,0.8,1.2,0.8,2.3,0.8c1,0,2-0.4,2.7-1.2
								c0.7-0.8,1.3-1.7,1.6-2.7c-0.1-0.8-0.3-1.6-0.8-2.3c-0.6-0.6-1.5-1-2.3-1.2c-1.2-0.4-1.6,0.4-2.7,1.2
								c-0.8,0.7-1.4,1.7-1.6,2.7C1634.8,388.6,1635.1,389.7,1635.9,390.4"/>
							<path id="Path_341" class="st29" d="M1639.8,411.5l17.2-15.3l3.9,4.3l-2.7,3.1c1.5-0.4,3.2-0.4,4.7,0c1.2,0.4,2.2,1.1,3.1,2
								l1.2,1.2c0.3,0.3,0.4,0.7,0.4,1.2l-5.1,3.1c-0.4-0.4-0.4-0.8-0.8-1.2c-0.4-0.4-0.4-0.8-0.8-1.2c-0.4-0.8-1.6-1.2-2.3-1.6
								c-1.3-0.2-2.7-0.1-3.9,0.4l-9.8,9L1639.8,411.5z"/>
							<path id="Path_342" class="st29" d="M1656.3,430.7c-0.7-0.7-1.2-1.5-1.6-2.3c-0.3-0.9-0.5-1.8-0.4-2.7
								c0.1-0.8,0.3-1.6,0.8-2.3c0.4-0.7,0.9-1.4,1.6-2c1.7-1.5,4.1-2,6.3-1.2c3.2,1.4,6.1,3.4,8.6,5.9c0.7-0.6,1.1-1.4,1.2-2.3
								c-0.1-1-0.5-2-1.2-2.7c-0.7-0.8-1.5-1.4-2.3-2c-1.1-0.4-2.1-1-3.1-1.6l2-4.7c1.6,0.5,3.2,1.1,4.7,2c1.6,0.8,2.9,2.1,3.9,3.5
								c1.7,1.8,2.6,4.2,2.3,6.7c-0.5,2.8-2.1,5.3-4.3,7l-10.2,8.6l-3.5-4.3l1.6-2c-1.3,0-2.5-0.4-3.5-1.2
								C1658,432.3,1657.1,431.5,1656.3,430.7 M1661.8,428.7c0.4,0.4,1.2,0.8,1.6,1.2c0.7,0.4,1.5,0.5,2.3,0.4l3.1-2.7
								c-2-1.6-3.1-2.7-4.3-2.7c-0.9-0.3-1.9-0.1-2.7,0.4c-0.4,0.4-0.7,1-0.8,1.6C1661,427.5,1661,428.3,1661.8,428.7"/>
							<path id="Path_343" class="st29" d="M1670,446l18-14.1l3.5,4.3l-2,2.3c1.3,0.1,2.7,0.3,3.9,0.8c1.3,0.4,2.4,1.2,3.1,2.3
								c1.1,1,1.6,2.4,1.6,3.9c0.1,1.2-0.2,2.5-0.8,3.5c1.5,0.1,2.9,0.3,4.3,0.8c1.3,0.5,2.5,1.3,3.5,2.3c1.4,1.6,2,3.8,1.6,5.9
								c-0.7,2.3-2.2,4.3-4.3,5.5l-11.4,9l-4.3-5.5l10.6-8.2c0.9-0.8,1.7-1.7,2.3-2.7c0.4-0.8,0-1.6-0.8-2.3
								c-1.1-1.1-2.7-1.7-4.3-1.6l-12.1,9.8l-4.3-5.5l10.6-8.2c0.9-0.8,1.7-1.7,2.3-2.7c0.4-0.8,0-1.6-0.8-2.3
								c-1.1-1.1-2.7-1.7-4.3-1.6l-12.1,9.8L1670,446z"/>
							<path id="Path_344" class="st29" d="M1695.8,478.9l18.8-13.3l3.1,4.7l-2,2c1.4,0.2,2.7,0.6,3.9,1.2c1.4,0.4,2.5,1.4,3.1,2.7
								c0.9,1.1,1.4,2.5,1.6,3.9c-0.1,1.2-0.3,2.4-0.8,3.5c1.4,0.2,2.7,0.6,3.9,1.2c1.4,0.4,2.5,1.4,3.1,2.7
								c1.5,1.6,1.9,3.9,1.2,5.9c-1.1,2.2-2.7,4.1-4.7,5.5l-11.7,8.2l-3.9-5.5l11-7.8c1.2-0.8,2.3-2,2.3-2.3
								c0.3-0.8,0.1-1.7-0.4-2.3c-1.1-1-2.4-1.7-3.9-2l-12.5,9l-3.9-5.5l11-7.8c1.2-0.8,2.3-2,2.3-2.3c0.3-0.8,0.1-1.7-0.4-2.3
								c-1.1-1-2.4-1.7-3.9-2l-12.5,9L1695.8,478.9z"/>
							<path id="Path_345" class="st29" d="M1722.4,518c-0.4-0.8-0.8-2-1.2-2.7v-2.7c0.4-0.8,0.4-1.6,1.2-2.3c0.4-0.8,1.2-1.2,2-2
								c1.9-1.3,4.3-1.4,6.3-0.4c3.1,1.6,5.8,3.8,7.8,6.7c0.6-0.6,1.2-1.2,1.6-2c0.4-0.8,0-1.6-0.8-2.7c-0.5-0.9-1.2-1.7-2-2.3
								c-1-0.7-2-1.4-3.1-2l2.3-4.7c1.6,0.7,3,1.6,4.3,2.7c1.3,1.2,2.4,2.5,3.5,3.9c1.6,2,2.2,4.6,1.6,7c-0.4,2.3-2.3,4.3-5.5,6.3
								l-11,7l-3.1-4.7l1.6-1.6c-1.2-0.4-2.4-0.9-3.5-1.6C1724,519.9,1723.2,519.2,1722.4,518 M1727.9,517.2
								c0.3,0.7,0.9,1.3,1.6,1.6c0.4,0.4,1.2,0.4,2.3,0.8l3.5-2.3c-1-1.5-2.3-2.7-3.9-3.5c-0.9-0.4-1.9-0.4-2.7,0
								c-0.8,0.4-0.8,0.8-1.2,1.6S1727.5,516.4,1727.9,517.2"/>
							<path id="Path_346" class="st29" d="M1714.2,1525l-20-15.3l-5.1,6.7l-4.7-3.5l14.5-19.2l4.7,3.5l-5.1,6.7l20,15.3
								L1714.2,1525z"/>
							<path id="Path_347" class="st29" d="M1731.5,1502.7c-0.8,1.2-1.9,2.3-3.1,3.1c-1.2,0.7-2.5,1.2-3.9,1.6
								c-1.6,0.3-3.2,0.1-4.7-0.4c-1.7-0.5-3.3-1.3-4.7-2.3c-1.5-1-2.7-2.3-3.5-3.9c-0.9-1.3-1.4-2.8-1.6-4.3
								c-0.1-1.4,0.1-2.9,0.4-4.3c0.4-1.4,1.1-2.7,2-3.9c0.8-1.2,1.9-2.3,3.1-3.1c1.2-0.7,2.5-1.2,3.9-1.6c1.6-0.3,3.2-0.1,4.7,0.4
								c1.7,0.5,3.3,1.3,4.7,2.3c1.5,1,2.7,2.3,3.5,3.9c0.9,1.3,1.4,2.8,1.6,4.3c0.3,1.4,0.1,2.9-0.4,4.3
								C1733.1,1500.3,1732.4,1501.6,1731.5,1502.7 M1727.2,1499.2c0.7-1,0.8-2.4,0.4-3.5c-0.8-1.5-1.8-2.8-3.1-3.9
								c-1.3-1.1-3-1.8-4.7-2c-1.4-0.1-2.7,0.5-3.5,1.6c-0.9,1-1.1,2.4-0.4,3.5c0.8,1.6,2,2.9,3.5,3.9c1.3,1.1,3,1.8,4.7,2
								C1725.3,1501.2,1726.7,1500.5,1727.2,1499.2C1727.1,1499.2,1727.2,1499.2,1727.2,1499.2"/>
							<path id="Path_348" class="st29" d="M1748.3,1478.8c-0.8,1.3-1.9,2.5-3.1,3.5c-1.3,0.9-2.8,1.6-4.3,2c-1.5,0.4-3.2,0.4-4.7,0
								c-1.7-0.5-3.3-1.3-4.7-2.3c-1.4-1.1-2.7-2.3-3.9-3.5c-1-1.2-1.7-2.7-2-4.3c-0.4-1.4-0.4-2.9,0-4.3c0.3-1.4,0.8-2.7,1.6-3.9
								c0.7-1.3,1.8-2.4,3.1-3.1c1.1-0.8,2.5-1.2,3.9-1.2c1.3-0.1,2.6,0.1,3.9,0.4c1.4,0.4,2.7,1.1,3.9,2c0.4,0.4,1.2,0.8,1.6,1.2
								l0.8,0.8l-7.8,11.7c1.3,0.7,2.9,0.8,4.3,0.4c1.4-0.4,2.5-1.4,3.1-2.7c0.9-1.5,1.5-3.3,1.6-5.1l4.7,0.4
								c-0.1,1.5-0.3,2.9-0.8,4.3C1749.5,1476.3,1749.1,1477.7,1748.3,1478.8 M1733,1474.9l4.7-7c-0.9-0.7-2-1.1-3.1-1.2
								c-1.2,0-2,0.8-2.7,2c-0.7,0.9-0.9,2-0.8,3.1C1731,1473,1731.8,1473.8,1733,1474.9"/>
							<path id="Path_349" class="st29" d="M1761.6,1458.1c-0.6,1.2-1.6,2.1-2.7,2.7c-1.2,0.4-2,1.2-2.7,1.2c-1.1,0-2.1-0.1-3.1-0.4
								c-1.2-0.4-2.4-0.9-3.5-1.6l-8.2-5.1l-1.6,2.7l-4.3-2.7l1.6-3.1l-4.7-3.9l3.1-4.7l5.1,3.5l3.1-4.7l4.7,2.7l-3.1,4.7l7.8,5.1
								c1.2,0.8,2,1.2,2.7,0.8c0.9-0.1,1.6-0.7,2-1.6c0.3-0.3,0.4-0.7,0.4-1.2c0-0.4,0.4-0.8,0.4-1.2l4.7,2c0,0.8-0.4,1.2-0.8,2.3
								C1762.8,1456.5,1762.4,1457.3,1761.6,1458.1"/>
							<path id="Path_350" class="st29" d="M1771,1443.2c-0.9,1.3-2,2.4-3.1,3.5c-1.2,1.2-2.7,2-4.3,2.3l-2-5.1
								c1.1-0.4,2.1-1,3.1-1.6c0.8-0.8,1.6-1.2,2-2.3c0.4-0.7,0.7-1.5,0.8-2.3c0-0.4-0.4-1.2-0.8-1.2c-0.2-0.3-0.7-0.4-1-0.1
								c-0.1,0-0.1,0.1-0.1,0.1c-0.4,0-0.8,0.4-1.2,0.4c-0.4,0.4-0.8,0.4-1.6,0.8c-0.4,0.5-1,0.9-1.6,1.2c-0.8,0.4-1.2,0.8-2,1.2
								c-0.7,0.4-1.5,0.7-2.3,0.8c-0.7,0.3-1.5,0.5-2.3,0.4c-0.8-0.1-1.6-0.3-2.3-0.8c-0.9-0.5-1.7-1.2-2.3-2
								c-0.8-0.8-0.8-1.6-1.2-2.7v-3.1c0.4-1.2,0.9-2.4,1.6-3.5c0.7-1.4,1.8-2.6,3.1-3.5c1.1-0.8,2.3-1.5,3.5-2l2,4.7
								c-1,0.3-2,0.8-2.7,1.6c-0.6,0.6-1.2,1.2-1.6,2c-0.8,1.6-0.8,2.7,0.4,3.1c0.2,0.3,0.7,0.4,1,0.1c0.1,0,0.1-0.1,0.1-0.1
								c0.4,0,0.8-0.4,1.2-0.4c0.4-0.4,0.8-0.4,1.2-0.8c0.4-0.5,1-0.9,1.6-1.2c0.7-0.4,1.4-0.9,2-1.6c0.8-0.8,1.6-0.8,2.3-1.2
								c0.7-0.3,1.5-0.5,2.3-0.4c0.9,0.1,1.9,0.4,2.7,0.8c0.9,0.5,1.7,1.2,2.3,2c0.8,0.8,0.8,2,1.2,2.7v3.5
								C1772.6,1440.2,1771.9,1441.7,1771,1443.2"/>
							<path id="Path_351" class="st29" d="M1785.9,1417.8c-0.6,1-1.4,1.8-2.3,2.3c-1.1,0.8-2.3,1.3-3.5,1.6l2,1.6l-2.7,4.7
								l-29-16.1l3.5-6.3l7,3.9l3.1,2c-0.3-1.1-0.5-2.3-0.4-3.5c0-1.1,0.3-2.2,0.8-3.1c0.7-1.2,1.6-2.3,2.7-3.1
								c1.1-0.7,2.3-1.2,3.5-1.6c1.4-0.2,2.9-0.1,4.3,0.4c1.7,0.3,3.3,1,4.7,2c1.7,0.9,3.1,2.1,4.3,3.5c1.1,1.1,1.9,2.5,2.3,3.9
								c0.4,1.3,0.7,2.6,0.8,3.9C1787.1,1415.3,1786.7,1416.6,1785.9,1417.8 M1780,1416.2c0.6-1.1,0.6-2.4,0-3.5
								c-1-1.5-2.4-2.7-3.9-3.5c-3.5-2-6.3-2-7.4,0.4c-0.8,1.5-0.8,3.2,0,4.7l8.2,4.7c0.7-0.3,1.4-0.7,2-1.2
								C1779.6,1417.4,1780,1417,1780,1416.2"/>
							<path id="Path_352" class="st29" d="M1799.2,1393.5c-0.7,1.5-1.6,2.8-2.7,3.9c-1.1,1.1-2.4,2-3.9,2.3
								c-1.5,0.5-3.1,0.7-4.7,0.4c-1.8-0.2-3.5-0.7-5.1-1.6c-1.6-0.8-3-1.9-4.3-3.1c-1.1-1.1-1.9-2.5-2.3-3.9
								c-0.5-1.4-0.7-2.9-0.4-4.3c0-1.4,0.4-2.8,1.2-3.9c0.6-1.4,1.5-2.6,2.7-3.5c1-0.8,2.2-1.4,3.5-1.6c1.3-0.4,2.6-0.4,3.9,0
								c1.5,0.4,2.9,0.9,4.3,1.6c0.4,0.4,1,0.7,1.6,0.8c0.4,0,0.8,0.4,1.2,0.8l-6.7,12.5c1.4,0.4,2.9,0.4,4.3,0
								c1.3-0.6,2.3-1.8,2.7-3.1c0.9-1.6,1.1-3.4,0.8-5.1h4.7v4.3C1799.9,1391.2,1799.6,1392.3,1799.2,1393.5 M1783.5,1391.1
								l3.9-7.4c-0.9-0.6-2-0.9-3.1-0.8c-1.1,0-2.1,0.8-2.3,2c-0.5,1-0.7,2.1-0.4,3.1C1781.5,1389.4,1782.3,1390.6,1783.5,1391.1"/>
							<path id="Path_353" class="st29" d="M1809.4,1373.1c-0.3,1-1,1.9-2,2.3l-2.3,1.2h-2.7c-1.2,0-2-0.8-3.1-1.2l-23.1-11.4
								l3.1-6.3l23.5,11.7c0.5,0.3,1,0.4,1.6,0.4c0.3,0,0.6-0.2,0.8-0.4v-0.8l5.1,1.6c0,0.5-0.1,1.1-0.4,1.6
								C1809.7,1372.4,1809.6,1372.8,1809.4,1373.1"/>
							<path id="Path_354" class="st29" d="M1817.6,1355.1c-0.7,1.5-1.6,2.8-2.7,3.9c-1.1,1.1-2.4,2-3.9,2.3
								c-1.5,0.5-3.1,0.7-4.7,0.8c-1.8,0-3.5-0.4-5.1-1.2c-1.6-0.8-3-1.9-4.3-3.1c-1.1-1.1-2-2.4-2.3-3.9c-0.4-1.4-0.7-2.8-0.8-4.3
								c0-1.3,0.3-2.7,0.8-3.9c0.6-1.4,1.5-2.6,2.7-3.5c1.1-0.8,2.3-1.5,3.5-2c1.3-0.3,2.6-0.5,3.9-0.4c1.5,0.3,2.9,0.7,4.3,1.2
								c0.4,0.4,1.2,0.4,1.6,0.8c0.4,0.4,0.8,0.4,1.2,0.8l-5.9,12.9c1.4,0.5,3,0.3,4.3-0.4c1.2-0.8,2.2-1.8,2.7-3.1
								c0.7-1.6,0.9-3.4,0.8-5.1l4.7-0.4c0.4,1.4,0.4,2.9,0,4.3C1818.7,1352.3,1818.5,1353.9,1817.6,1355.1 M1801.9,1353.9l3.5-7.8
								c-1-0.5-2.1-0.6-3.1-0.4c-1.2,0.2-2.1,1.2-2.3,2.3c-0.3,1-0.5,2.1-0.4,3.1C1800.2,1352.2,1801,1353.1,1801.9,1353.9"/>
							<path id="Path_355" class="st29" d="M1800.4,1326.1c-0.3,1-1,1.9-2,2.3c-0.9,0.4-1.9,0.4-2.7,0c-0.9-0.3-1.6-1-2-2
								c-0.4-1-0.3-2.2,0.4-3.1c0.3-1,1-1.9,2-2.3c0.9-0.4,1.9-0.4,2.7,0c0.9,0.3,1.6,1,2,2
								C1801.2,1324,1801.1,1325.3,1800.4,1326.1 M1823.9,1340.2l-21.5-9.4l2.7-6.3l21.5,9.4L1823.9,1340.2z"/>
							<path id="Path_356" class="st29" d="M1833.6,1318.7c-0.5,1.3-1.3,2.5-2.3,3.5c-1,1-2.2,1.6-3.5,2c-1.4,0.3-2.9,0.5-4.3,0.4
								c-1.8-0.1-3.5-0.5-5.1-1.2c-1.6-0.6-3.1-1.5-4.3-2.7c-1-1.1-2-2.3-2.7-3.5c-0.8-1.1-1.2-2.5-1.2-3.9
								c-0.1-1.2,0.1-2.4,0.4-3.5c0.3-1.1,1-2.1,2-2.7c0.9-0.6,1.8-1.1,2.7-1.6l-3.5-1.2l-7.4-3.1l2.7-6.7l30.9,12.5l-2,5.1
								l-2.3-0.4c0.4,1.1,0.7,2.3,0.8,3.5C1834,1316.4,1834,1317.5,1833.6,1318.7 M1828.9,1314.8c0.3-0.6,0.4-1.3,0.4-2
								c-0.1-0.8-0.3-1.6-0.8-2.3l-9-3.5c-0.7,0.3-1.4,0.7-2,1.2c-0.4,0.4-0.8,1.2-1.2,1.6c-0.5,1-0.3,2.2,0.4,3.1
								c1,1.5,2.5,2.6,4.3,3.1c1.6,0.8,3.4,1,5.1,0.8C1827.4,1316.7,1828.5,1315.9,1828.9,1314.8"/>
							<path id="Path_357" class="st29" d="M841.9,1852.4l5.1-23.9l-8.2-1.6l1.2-5.5l23.1,5.1l-1.2,5.5l-8.2-1.6l-5.1,23.9
								L841.9,1852.4z"/>
							<path id="Path_358" class="st29" d="M868.9,1858.2c-1.4-0.3-2.7-0.8-3.9-1.6c-1.2-0.8-2.3-1.9-3.1-3.1
								c-0.9-1.3-1.5-2.8-1.6-4.3c-0.4-1.7-0.4-3.4,0-5.1c0.2-1.7,0.9-3.4,2-4.7c0.8-1.2,1.9-2.3,3.1-3.1c1.2-0.8,2.5-1.3,3.9-1.6
								c1.4-0.4,2.9-0.4,4.3,0c1.4,0.3,2.7,0.8,3.9,1.6c1.2,0.8,2.3,1.9,3.1,3.1c0.9,1.3,1.5,2.8,1.6,4.3c0.4,1.7,0.4,3.4,0,5.1
								c-0.2,1.7-0.9,3.4-2,4.7c-0.8,1.2-1.9,2.3-3.1,3.1c-1.2,0.8-2.5,1.3-3.9,1.6C871.8,1858.6,870.3,1858.6,868.9,1858.2
								 M870.1,1853.1c1.3,0.4,2.7-0.1,3.5-1.2c1-1.4,1.7-3,2-4.7c0.4-1.5,0.4-3.2,0-4.7c-0.5-1.2-1.5-2-2.7-2.3
								c-1.3-0.5-2.8,0-3.5,1.2c-1,1.4-1.7,3-2,4.7c-0.4,1.5-0.4,3.2,0,4.7C867.7,1852,868.8,1852.9,870.1,1853.1"/>
							<path id="Path_359" class="st29" d="M897.1,1862.9c-1.5-0.3-3-0.8-4.3-1.6c-1.2-0.7-2.3-1.6-3.1-2.7c-0.9-1.3-1.6-2.8-2-4.3
								c-0.4-1.7-0.4-3.4,0-5.1c0.2-1.7,0.8-3.2,1.6-4.7c0.8-1.3,1.9-2.5,3.1-3.5c1.2-0.9,2.5-1.6,3.9-2c1.4-0.3,2.9-0.5,4.3-0.4
								c1.5,0.3,3,0.8,4.3,1.6c1.1,0.7,2,1.6,2.7,2.7c0.8,1.1,1.2,2.5,1.2,3.9v4.3c0,0.8-0.4,1.2-0.4,1.6s-0.4,0.8-0.4,1.2l-13.7-2
								c-0.2,1.5,0.4,2.9,1.6,3.9c1,0.9,2.2,1.6,3.5,2c1.7,0.3,3.5,0,5.1-0.8l1.6,4.3c-1.3,0.8-2.8,1.2-4.3,1.2
								C900.3,1863.2,898.6,1863.4,897.1,1862.9 M894.4,1848.1l8.2,1.2c0.3-1.1,0.1-2.2-0.4-3.1c-0.6-1-1.6-1.5-2.7-1.6
								c-1.1-0.1-2.2,0.2-3.1,0.8C895.5,1845.3,894.7,1846.5,894.4,1848.1"/>
							<path id="Path_360" class="st29" d="M921,1866.5c-1.3,0.1-2.6-0.3-3.5-1.2c-0.9-0.5-1.7-1.2-2.3-2c-0.5-1-0.8-2.1-1.2-3.1
								v-3.5l1.2-9.4l-3.1-0.4l0.8-5.1h3.5l1.6-5.9l5.5,0.8l-0.8,6.3l5.5,0.8l-0.8,5.5l-5.5-0.8l-1.2,9c0,1.2,0,2.3,0.4,2.7
								c0.4,0.7,1.1,1.2,2,1.2h2.3l0.4,5.1c-0.8,0-1.6,0.4-2.3,0.4C923.3,1866.5,922.2,1866.5,921,1866.5"/>
							<path id="Path_361" class="st29" d="M938.2,1868.4c-1.6-0.2-3.2-0.6-4.7-1.2c-1.5-0.7-2.8-1.6-3.9-2.7l3.5-3.9
								c0.8,0.8,1.7,1.4,2.7,2c0.9,0.4,1.8,0.7,2.7,0.8c1.2,0,2,0,2.3-0.4c0.4-0.4,0.8-0.8,0.8-1.2c0.1-0.4-0.1-0.9-0.4-1.2
								c-0.4-0.4-0.4-0.8-0.8-0.8c-0.4,0-0.8-0.4-1.6-0.8c-0.4-0.4-1.2-0.4-1.6-0.8c-0.8-0.4-1.2-0.8-2-1.2c-0.7-0.4-1.4-0.9-2-1.6
								c-0.4-0.8-0.8-1.2-1.2-2c-0.3-0.9-0.5-1.8-0.4-2.7c0-1,0.3-1.9,0.8-2.7c0.4-0.8,1.1-1.5,2-2c0.8-0.4,2-0.8,2.7-1.2
								c1.1-0.4,2.4-0.4,3.5,0c1.7,0.2,3.3,0.7,4.7,1.6c1.1,0.7,2.2,1.5,3.1,2.3l-3.5,3.9c-0.7-0.7-1.5-1.2-2.3-1.6
								c-0.7-0.4-1.5-0.7-2.3-0.8c-1.6,0-2.7,0.4-2.7,1.6c-0.1,0.4,0.1,0.9,0.4,1.2l0.8,0.8c0.4,0.4,0.8,0.4,1.2,0.8
								c0.4,0.4,1.2,0.4,1.6,0.8c0.7,0.3,1.4,0.7,2,1.2c0.7,0.4,1.4,0.9,2,1.6c0.5,0.6,0.9,1.2,1.2,2c0.3,0.9,0.5,1.8,0.4,2.7
								c0,1-0.3,1.9-0.8,2.7c-0.4,0.8-1.1,1.5-2,2c-0.9,0.6-2,1-3.1,1.2C941.3,1868.4,939.8,1868.4,938.2,1868.4"/>
							<path id="Path_362" class="st29" d="M964,1870.8c-1.5,0-3-0.4-4.3-1.2c-1.3-0.8-2.4-1.7-3.5-2.7c-0.9-1.3-1.7-2.6-2.3-3.9
								c-0.8-3.4-0.5-6.9,0.8-10.2c0.6-1.4,1.5-2.6,2.7-3.5c1.2-0.9,2.5-1.6,3.9-2c1.4-0.5,2.9-0.7,4.3-0.4c1.5,0,3,0.4,4.3,1.2
								c1.3,0.8,2.4,1.7,3.5,2.7c0.9,1.3,1.7,2.6,2.3,3.9c0.8,3.4,0.5,6.9-0.8,10.2c-0.6,1.4-1.5,2.6-2.7,3.5
								c-1.2,0.9-2.5,1.6-3.9,2C966.9,1870.7,965.5,1870.8,964,1870.8 M964.4,1865.3c1.3,0.2,2.5-0.5,3.1-1.6c0.8-1.5,1.3-3,1.6-4.7
								c0.2-1.6-0.1-3.2-0.8-4.7c-0.6-1.2-1.8-2-3.1-2c-1.3-0.2-2.5,0.5-3.1,1.6c-0.8,1.5-1.3,3-1.6,4.7c-0.2,1.6,0.1,3.2,0.8,4.7
								C962,1864.4,963.1,1865.1,964.4,1865.3"/>
							<path id="Path_363" class="st29" d="M982.1,1871.2l1.2-23.1l5.5,0.4l0.4,3.9c0.7-1.4,1.8-2.6,3.1-3.5c1-0.8,2.3-1.1,3.5-0.8
								h1.6c0.4,0,0.8,0.4,1.2,0.4l-1.6,5.9c-0.4,0-0.8-0.4-1.2-0.4h-1.2c-1,0.1-1.9,0.3-2.7,0.8c-1.2,0.7-2,1.8-2.3,3.1l-0.8,13.3
								L982.1,1871.2z"/>
							<path id="Path_364" class="st29" d="M1011,1882.1c-1.3,0.1-2.6-0.1-3.9-0.4c-1.2-0.4-2.3-0.4-3.1-1.2c-0.8-0.4-1.5-1.1-2-2
								c-0.5-0.8-0.8-1.8-0.8-2.7c0.1-2,1.3-3.8,3.1-4.7c-0.7-0.3-1.3-0.9-1.6-1.6c-1-1.4-1-3.3,0-4.7c0.4-0.8,1.1-1.5,2-2
								c-0.9-0.5-1.6-1.3-2-2.3c-0.4-1.1-0.7-2.3-0.8-3.5c0-1.2,0.3-2.4,0.8-3.5c0.4-1.1,1.1-2,2-2.7c0.9-0.8,2-1.3,3.1-1.6
								c1.1-0.3,2.3-0.5,3.5-0.4c1.2-0.1,2.4,0,3.5,0.4h8.2v5.1h-3.5c0.3,0.3,0.4,0.7,0.4,1.2c0,0.4,0.4,1.2,0.4,1.6
								c-0.1,1.2-0.3,2.4-0.8,3.5c-0.4,0.9-1.1,1.8-2,2.3c-0.8,0.7-1.7,1.2-2.7,1.6c-1.1,0.3-2.3,0.5-3.5,0.4
								c-0.9,0.1-1.9-0.1-2.7-0.4l-0.8,0.8v0.8c0,0.8,0.4,1.2,0.8,1.2c0.4,0.4,1.6,0.4,2.7,0.4h3.5c2.3-0.2,4.7,0.4,6.7,1.6
								c1.6,0.8,2.5,2.5,2.3,4.3c0,1.1-0.3,2.2-0.8,3.1c-0.7,1.1-1.6,2-2.7,2.7c-1.2,0.8-2.5,1.3-3.9,1.6
								C1014.8,1881.9,1012.9,1882.3,1011,1882.1 M1012.2,1877.8c1.3,0,2.7-0.3,3.9-0.8c0.9-0.2,1.6-1,1.6-2c0-0.6-0.3-1.2-0.8-1.6
								c-0.4-0.4-1.6-0.4-2.7-0.4h-4.3c-0.4,0.1-0.9-0.1-1.2-0.4c-0.7,0.6-1.1,1.4-1.2,2.3c0,0.9,0.6,1.8,1.6,2
								C1009.4,1877.8,1010.6,1877.8,1012.2,1877.8 M1011.4,1861c0.8-0.1,1.6-0.3,2.3-0.8c0.7-0.7,1-1.8,0.8-2.7
								c0-1-0.3-1.9-0.8-2.7c-0.8-0.8-1.2-0.8-2.3-0.8c-0.8,0.1-1.6,0.3-2.3,0.8c-0.7,0.7-1,1.8-0.8,2.7c0,1,0.2,1.9,0.8,2.7
								C1009.8,1860.6,1010.6,1860.9,1011.4,1861"/>
							<path id="Path_365" class="st29" d="M1034.9,1873.1c-0.9,0.1-1.9,0-2.7-0.4c-0.9-0.4-1.7-0.9-2.3-1.6
								c-0.7-0.6-1.3-1.4-1.6-2.3c-0.3-0.9-0.5-1.8-0.4-2.7c-0.1-2.4,1.1-4.6,3.1-5.9c3-1.8,6.3-2.7,9.8-2.7
								c0.1-0.9-0.2-1.7-0.8-2.3c-0.4-0.8-1.6-0.8-2.7-0.8c-1.1,0.1-2.1,0.3-3.1,0.8c-1.1,0.4-2.1,1-3.1,1.6l-2.3-4.3l4.7-2.3
								c1.7-0.5,3.4-0.7,5.1-0.8c2.5-0.2,4.9,0.7,6.7,2.3c1.8,2.2,2.6,5,2.3,7.8v13.3h-5.5l-0.4-2.3c-1,0.8-2,1.5-3.1,2
								C1037.3,1872.8,1036.1,1873.1,1034.9,1873.1 M1037.3,1867.7c0.7,0.1,1.4,0,2-0.4c0.4-0.4,1.2-0.8,1.6-1.6v-3.9
								c-1.8,0.2-3.5,0.7-5.1,1.6c-0.8,0.8-1.6,1.6-1.2,2.3c0,0.6,0.3,1.2,0.8,1.6C1035.9,1867.6,1036.6,1867.8,1037.3,1867.7"/>
							<path id="Path_366" class="st29" d="M1055.7,1872.3l-0.8-23.1l5.5-0.4l0.8,2.7c1-1,2-1.9,3.1-2.7c3-1.9,7-1.4,9.4,1.2
								c1.3,2,2,4.3,2,6.7l0.8,14.1l-6.7,0.4l-0.4-13.3c0-1.2-0.3-2.4-0.8-3.5c-0.4-0.8-1.2-0.8-2.3-0.8c-0.8,0.1-1.6,0.3-2.3,0.8
								c-0.8,0.4-1.2,1.2-2,1.6l0.8,15.7L1055.7,1872.3z"/>
							<path id="Path_367" class="st29" d="M1085.8,1844.1c-1,0.2-2-0.1-2.7-0.8c-0.7-0.6-1.1-1.4-1.2-2.3c0-1,0.3-1.9,0.8-2.7
								c0.7-0.8,1.7-1.2,2.7-1.2c1-0.2,2,0.1,2.7,0.8c0.7,0.6,1.1,1.4,1.2,2.3c0,1-0.3,1.9-0.8,2.7
								C1087.9,1843.7,1086.8,1844.2,1085.8,1844.1 M1084.2,1870.8l-1.6-23.1l6.7-0.4l1.6,23.1L1084.2,1870.8z"/>
							<path id="Path_368" class="st29" d="M1105.8,1869.6c-1.6,0.1-3.2-0.1-4.7-0.4c-1.5-0.4-3-1.1-4.3-2l2.7-4.7
								c1,0.6,2,1.1,3.1,1.6c1,0.3,2.1,0.5,3.1,0.4c0.8,0,1.7-0.3,2.3-0.8c0.8-0.4,0.8-0.8,0.4-1.6c0-0.4,0-0.8-0.4-0.8
								c-0.4-0.4-0.8-0.4-1.2-0.8c-0.5-0.3-1-0.4-1.6-0.4c-0.6-0.2-1.3-0.3-2-0.4c-0.8-0.4-1.6-0.4-2.3-0.8c-0.7-0.3-1.4-0.7-2-1.2
								c-0.7-0.5-1.3-1.2-1.6-2c-0.4-0.7-0.7-1.5-0.8-2.3c-0.1-1.1,0.1-2.1,0.4-3.1c0.4-0.9,0.9-1.7,1.6-2.3
								c0.8-0.7,1.7-1.3,2.7-1.6c1.1-0.4,2.3-0.7,3.5-0.8c1.6-0.1,3.2,0.1,4.7,0.4c1.2,0.4,2.4,0.9,3.5,1.6l-2.7,4.3
								c-0.9-0.5-1.8-0.9-2.7-1.2c-0.7-0.3-1.5-0.4-2.3-0.4c-1.6,0-2.3,0.8-2.3,2c0,0.4,0,0.8,0.4,0.8c0.4,0.4,0.8,0.4,1.2,0.8
								c0.4,0,0.8,0.4,1.6,0.4c0.8,0,1.2,0.4,1.6,0.4c0.8,0.4,1.6,0.4,2.3,0.8c0.7,0.3,1.4,0.7,2,1.2c0.7,0.5,1.3,1.2,1.6,2
								c0.5,0.8,0.8,1.8,0.8,2.7c0.1,1.1-0.1,2.1-0.4,3.1c-0.2,1-0.7,1.8-1.6,2.3c-0.8,0.7-1.8,1.4-2.7,2
								C1108.4,1869.3,1107.1,1869.6,1105.8,1869.6"/>
							<path id="Path_369" class="st29" d="M1127.3,1867.6c-0.9,0.1-1.9,0-2.7-0.4l-2.3-1.2c-0.7-0.5-1.3-1.2-1.6-2
								c-0.5-0.8-0.8-1.8-0.8-2.7c-0.4-2.2,0.5-4.5,2.3-5.9c2.9-1.9,6-3.2,9.4-3.9c0.1-0.9-0.3-1.9-1.2-2.3
								c-0.8-0.5-1.8-0.7-2.7-0.4c-1,0-1.9,0.3-2.7,0.8c-1,0.5-1.9,1.2-2.7,2l-3.1-4.3c1.3-1.1,2.7-2.1,4.3-2.7
								c1.6-0.8,3.3-1.3,5.1-1.6c2.5-0.4,5,0.1,7,1.6c1.9,2,3,4.7,3.1,7.4l1.6,12.9l-5.5,0.8l-0.8-2.3c-0.8,0.9-1.7,1.7-2.7,2.3
								C1130.1,1866.7,1128.8,1867.4,1127.3,1867.6 M1129.3,1862.2c0.7,0,1.4-0.3,2-0.8c0.4-0.4,1.2-0.8,1.6-1.6l-0.4-3.9
								c-1.7,0.4-3.3,1-4.7,2c-0.7,0.6-1.1,1.4-1.2,2.3c0,0.6,0.3,1.2,0.8,1.6C1127.9,1862.2,1128.6,1862.3,1129.3,1862.2"/>
							<path id="Path_370" class="st29" d="M1156.3,1863.7c-1.2,0.2-2.4,0.2-3.5,0c-1-0.3-2-0.8-2.7-1.6c-0.7-0.8-1.4-1.8-2-2.7
								c-0.4-1.1-0.7-2.3-0.8-3.5l-1.2-9.4l-3.1,0.4l-0.8-5.1l3.5-0.8v-6.3l5.5-0.8l0.8,5.9l5.5-0.8l0.8,5.1l-5.5,0.8l1.2,9
								c0.1,1,0.5,2,1.2,2.7c0.7,0.5,1.5,0.7,2.3,0.4c0.4,0.1,0.9-0.1,1.2-0.4s0.7-0.4,1.2-0.4l2,4.7c-0.4,0.4-1.2,0.4-2,0.8
								C1158.9,1862.8,1157.7,1863.5,1156.3,1863.7"/>
							<path id="Path_371" class="st29" d="M1166.1,1835.1c-1.1,0.1-2.1-0.1-3.1-0.4c-0.8-0.5-1.4-1.4-1.6-2.3c-0.4-1,0-2.1,0.8-2.7
								c0.8-0.7,1.7-1.3,2.7-1.6c1.1-0.1,2.1,0.1,3.1,0.4c0.8,0.5,1.4,1.4,1.6,2.3c0.2,1-0.1,2-0.8,2.7
								C1168,1834.3,1167.1,1834.9,1166.1,1835.1 M1166.9,1861.8l-3.9-22.7l6.7-1.2l3.9,22.7L1166.9,1861.8z"/>
							<path id="Path_372" class="st29" d="M1191.9,1857.8c-1.5,0.4-3.2,0.4-4.7,0c-1.4-0.3-2.7-0.8-3.9-1.6
								c-1.2-0.8-2.3-1.9-3.1-3.1c-0.9-1.5-1.6-3-2-4.7c-0.4-1.7-0.4-3.4,0-5.1c0.3-1.5,0.8-3,1.6-4.3c0.8-1.2,1.9-2.3,3.1-3.1
								c1.2-0.8,2.5-1.3,3.9-1.6c1.4-0.4,2.9-0.4,4.3,0c1.2,0.4,2.4,0.9,3.5,1.6c1.1,0.8,1.9,1.9,2.3,3.1c0.8,1.3,1.3,2.8,1.6,4.3
								c0,0.8,0,1.2,0.4,1.6v1.2l-13.7,2.7c0.8,1.6,1.6,2.7,2.7,3.1c1.2,0.5,2.6,0.7,3.9,0.4c1.7-0.5,3.3-1.3,4.7-2.3l3.1,3.5
								c-1.1,1-2.3,2-3.5,2.7C1194.8,1857,1193.4,1857.5,1191.9,1857.8 M1184.5,1844.5l8.2-1.6c-0.3-1.1-0.8-2.2-1.6-3.1
								c-0.9-0.7-2-0.9-3.1-0.8c-1,0.3-2,0.8-2.7,1.6C1184.4,1841.7,1184.1,1843.2,1184.5,1844.5"/>
							<path id="Path_373" class="st29" d="M155.9,1154.6l24.7-4.7l-1.6-8.2l5.9-1.2l4.3,23.5l-5.9,1.2l-1.2-8.6l-24.7,4.7
								L155.9,1154.6z"/>
							<path id="Path_374" class="st29" d="M161.4,1182.4c-0.4-1.4-0.4-2.9,0-4.3c0.3-1.4,0.8-2.7,1.6-3.9c0.8-1.2,1.9-2.3,3.1-3.1
								c1.6-1,3.3-1.6,5.1-2c1.8-0.4,3.7-0.4,5.5,0c1.5,0.3,3,0.8,4.3,1.6c1.2,0.8,2.3,1.9,3.1,3.1c0.9,1.1,1.4,2.5,1.6,3.9
								c0.4,1.4,0.4,2.9,0,4.3c-0.3,1.4-0.8,2.7-1.6,3.9c-0.8,1.2-1.9,2.3-3.1,3.1c-1.6,1-3.3,1.6-5.1,2c-1.8,0.4-3.7,0.4-5.5,0
								c-1.5-0.3-3-0.8-4.3-1.6c-1.2-0.8-2.3-1.9-3.1-3.1C162,1185.2,161.5,1183.9,161.4,1182.4 M166.9,1181.3
								c0.2,1.3,1.1,2.3,2.3,2.7c1.7,0.4,3.4,0.4,5.1,0c1.7-0.3,3.3-1,4.7-2c1.2-0.8,1.7-2.2,1.2-3.5c-0.2-1.3-1.1-2.3-2.3-2.7
								c-1.7-0.4-3.4-0.4-5.1,0c-1.7,0.3-3.3,1-4.7,2C167,1178.6,166.5,1180,166.9,1181.3"/>
							<path id="Path_375" class="st29" d="M167.7,1210.6c-0.3-1.5-0.5-3.1-0.4-4.7c0.1-1.6,0.6-3,1.6-4.3c0.9-1.3,2-2.4,3.1-3.5
								c1.5-0.9,3-1.6,4.7-2c1.7-0.3,3.4-0.4,5.1-0.4c1.5,0.3,3,0.8,4.3,1.6c1.2,0.7,2.3,1.6,3.1,2.7c0.9,1.2,1.6,2.5,2,3.9
								c0.3,1.4,0.4,2.9,0.4,4.3c-0.3,1.3-0.8,2.5-1.6,3.5c-0.9,1.1-1.9,2-3.1,2.7c-1.3,0.8-2.8,1.3-4.3,1.6c-0.8,0-1.2,0.4-2,0.4
								h-1.2l-3.5-13.7c-1.6,0.8-2.7,1.6-3.1,3.1c-0.4,1.4-0.4,2.9,0,4.3c0.5,1.8,1.4,3.4,2.7,4.7l-3.5,3.1
								c-1.2-0.9-2.2-2.1-2.7-3.5C168.6,1213.3,168.1,1211.9,167.7,1210.6 M181,1202l2,8.2c1.2-0.4,2.3-0.8,2.7-1.6
								c0.7-0.9,0.9-2.1,0.4-3.1c-0.3-1.1-1-2.1-2-2.7C183.7,1202,182.5,1201.6,181,1202"/>
							<path id="Path_376" class="st29" d="M174.3,1234.5c-0.3-1.3-0.4-2.6-0.4-3.9c0-1,0.4-2,1.2-2.7c0.6-0.9,1.4-1.5,2.3-2
								c1.1-0.7,2.3-1.2,3.5-1.6l9-2.7l-0.8-3.1l5.1-1.6l1.2,3.5l6.3-0.8l1.6,5.5l-5.9,1.6l1.6,5.5l-5.1,1.6l-1.6-5.5l-9,2.7
								c-1,0.2-1.8,0.7-2.3,1.6c-0.3,0.7-0.5,1.5-0.4,2.3c0,0.4,0.4,0.8,0.4,1.2c0.4,0.4,0.4,0.8,0.8,0.8l-4.7,2.3
								c-0.5-0.6-0.9-1.3-1.2-2C175.1,1236.9,174.7,1235.7,174.3,1234.5"/>
							<path id="Path_377" class="st29" d="M179.4,1251.7c-0.5-1.5-0.7-3.1-0.4-4.7c0-1.6,0.4-3.2,1.2-4.7l5.1,1.6
								c-0.4,1.1-0.7,2.3-0.8,3.5c-0.1,1.1,0.1,2.1,0.4,3.1c0.2,0.8,0.6,1.4,1.2,2c0.5,0.3,1,0.4,1.6,0.4c0.4,0,0.8-0.4,0.8-0.8
								c0.3-0.3,0.4-0.7,0.4-1.2c-0.1-0.6,0.1-1.1,0.4-1.6v-2c-0.1-0.8,0.1-1.6,0.4-2.3c0.1-0.8,0.3-1.6,0.8-2.3
								c0.3-0.8,0.8-1.5,1.6-2c0.8-0.4,1.2-1.2,2.3-1.2c1-0.3,2.1-0.4,3.1-0.4c1,0,2,0.4,2.7,1.2c1,0.6,1.8,1.4,2.3,2.3
								c0.8,1,1.4,2.2,1.6,3.5c0.5,1.5,0.7,3.1,0.4,4.7c0,1.3-0.3,2.7-0.8,3.9l-5.1-2c0.2-0.9,0.5-1.8,0.8-2.7
								c0.1-0.8-0.1-1.6-0.4-2.3c-0.4-1.6-1.2-2.3-2.7-2c-0.4,0-0.8,0.4-0.8,0.8c0,0.4-0.4,0.8-0.4,1.2v3.5c0.1,0.8-0.1,1.6-0.4,2.3
								c-0.1,0.8-0.3,1.6-0.8,2.3c-0.3,0.8-0.8,1.5-1.6,2c-0.6,0.7-1.4,1.1-2.3,1.2c-1,0.3-2.1,0.5-3.1,0.4c-1,0-2-0.4-2.7-1.2
								l-2.3-2.3C180.5,1254.9,179.7,1253.4,179.4,1251.7"/>
							<path id="Path_378" class="st29" d="M188,1279.2c-0.3-1-0.5-2.1-0.4-3.1c0-1.3,0.4-2.5,1.2-3.5l-2.7,0.4l-1.6-5.1l31.3-10.6
								l2.3,6.7l-7.8,2.7l-3.5,0.8c1.1,0.6,2,1.4,2.7,2.3c0.7,0.8,1.2,1.7,1.6,2.7c0.5,1.2,0.7,2.6,0.4,3.9
								c-0.2,1.2-0.6,2.4-1.2,3.5c-0.8,1.2-1.9,2.3-3.1,3.1c-1.4,0.9-2.8,1.6-4.3,2.3c-1.8,0.6-3.6,0.9-5.5,0.8
								c-1.6-0.1-3.2-0.3-4.7-0.8c-1.3-0.5-2.5-1.3-3.5-2.3C189.1,1281.7,188.7,1280.4,188,1279.2 M193.1,1275.6
								c0.3,1.1,1.2,2,2.3,2.3c1.8,0.4,3.7,0.3,5.5-0.4c3.9-1.2,5.5-3.5,4.7-5.9c-0.6-1.4-1.7-2.5-3.1-3.1l-9,3.1
								c-0.3,0.7-0.5,1.5-0.4,2.3C192.7,1274.5,192.7,1275.2,193.1,1275.6"/>
							<path id="Path_379" class="st29" d="M197.4,1305c-0.6-1.5-0.9-3.1-0.8-4.7c0-1.5,0.3-2.9,0.8-4.3c0.6-1.4,1.5-2.6,2.7-3.5
								c1.4-1.2,3-2.2,4.7-2.7c1.6-0.6,3.4-0.9,5.1-0.8c1.6,0.1,3.2,0.3,4.7,0.8c1.6,0.4,2.3,1.6,3.5,2.3c0.9,1.1,1.7,2.3,2.3,3.5
								c0.4,1.4,0.7,2.8,0.8,4.3c0,1.4-0.4,2.7-1.2,3.9c-0.8,1.1-1.7,2.2-2.7,3.1c-1.2,0.9-2.5,1.6-3.9,2c-0.5,0.3-1,0.4-1.6,0.4
								c-0.4,0-0.8,0.4-1.2,0.4l-5.1-13.3c-1.3,0.6-2.3,1.8-2.7,3.1c-0.4,1.4-0.3,3,0.4,4.3c0.7,1.7,1.8,3.1,3.1,4.3l-3.1,3.5
								c-1.2-0.8-2.3-1.9-3.1-3.1C199.4,1307.3,197.8,1306.2,197.4,1305 M209.5,1294.8l3.1,7.8c1.1-0.4,2-1.1,2.7-2
								c0.8-0.9,0.8-2.2,0-3.1c-0.3-1-1-1.9-2-2.3C212.3,1294.5,210.8,1294.3,209.5,1294.8"/>
							<path id="Path_380" class="st29" d="M203.7,1319.9l30.9-12.5l2.7,6.3l-17.6,7l11.4,3.5l2.7,7l-12.1-3.9l-9.4,13.3l-2.7-7
								l6.7-8.2l-4.3-1.6l-5.5,2.3L203.7,1319.9z"/>
							<path id="Path_381" class="st29" d="M216.2,1350.4l18.8-15.3l2.7,6.3l-9,6.7c-1,0.6-1.9,1.2-2.7,2c-1,0.7-2,1.4-3.1,2
								c1.1-0.4,2.3-0.7,3.5-0.8c1.2-0.1,2.4-0.3,3.5-0.8l11-2.3l2.3,5.5l-9,7c-0.8,0.8-1.7,1.4-2.7,2c-0.8,0.8-1.7,1.4-2.7,2
								c1.1-0.4,2.3-0.7,3.5-0.8c1.1-0.4,2.3-0.7,3.5-0.8l11-2.3l2.7,5.9l-23.9,4.7l-3.5-7.4l7.8-5.9c0.8-0.8,2-1.2,2.7-2
								c1-0.7,2-1.4,3.1-2c-1.1,0.4-2.3,0.7-3.5,0.8c-1.2,0.4-2.3,0.4-3.1,0.8l-9.4,2L216.2,1350.4z"/>
							<path id="Path_382" class="st29" d="M233,1387.2c-0.4-0.9-0.7-1.8-0.8-2.7c-0.1-0.9,0.1-1.9,0.4-2.7c0.7-1.8,2.1-3.2,3.9-3.9
								c2.1-1.2,4.7-1.1,6.7,0.4c3,1.9,5.4,4.6,7,7.8c0.8-0.4,1.5-1.1,2-2c0.4-0.8,0-1.6-0.4-2.7c-0.5-0.9-1.2-1.7-2-2.3
								c-0.8-0.9-1.7-1.7-2.7-2.3l3.1-4.3c1.5,0.9,3,2,4.3,3.1c1.3,1.3,2.3,2.7,3.1,4.3c1.2,2.3,1.5,5,0.8,7.4
								c-0.8,2.3-2.7,3.9-6.3,5.9l-12.1,5.9l-2.3-5.1l2-1.6c-1.3-0.5-2.4-1.2-3.5-2C235,1389.5,233.9,1388.4,233,1387.2
								 M238.9,1386.8c0.3,0.7,0.9,1.3,1.6,1.6c0.5,0.5,1.2,0.8,2,0.8l3.5-2c-1-1.5-2.2-2.8-3.5-3.9c-1.2-0.4-2-0.8-2.7-0.4
								c-0.8,0.4-1.2,0.8-1.2,1.6C238.4,1385.3,238.6,1386.1,238.9,1386.8"/>
							<path id="Path_383" class="st29" d="M245.6,1411.1c-0.4-0.9-0.7-1.8-0.8-2.7c-0.1-0.9,0.1-1.9,0.4-2.7l1.2-2.3
								c0.7-0.8,1.5-1.4,2.3-2c2.1-1.2,4.6-1.2,6.7,0c3,1.8,5.6,4.4,7.4,7.4c0.8-0.3,1.4-1.1,1.6-2c0.4-0.8,0-1.6-0.4-2.7
								c-0.5-0.9-1.2-1.7-2-2.3c-0.8-0.8-1.7-1.4-2.7-2l2.7-4.3c1.5,0.9,3,2,4.3,3.1c1.4,1.2,2.5,2.6,3.1,4.3
								c1.5,2.2,1.9,4.9,1.2,7.4c-1.1,2.7-3.2,4.8-5.9,5.9l-11.7,6.3l-2.7-5.1l2-1.6c-1.3-0.5-2.4-1.2-3.5-2
								C247.2,1413.6,246,1412.5,245.6,1411.1 M251.5,1410.7c0.3,0.7,0.9,1.3,1.6,1.6c0.5,0.5,1.2,0.8,2,0.8l3.5-2
								c-1.1-1.5-2.4-2.8-3.9-3.9c-0.9-0.4-1.9-0.4-2.7,0c-0.8,0.4-1.2,0.8-1.2,1.6S251.1,1409.9,251.5,1410.7"/>
							<path id="Path_384" class="st29" d="M256.1,1429.9l20.4-12.1l2.7,5.1l-2.3,2c1.4,0.4,2.7,0.9,3.9,1.6
								c1.2,0.7,2.3,1.6,3.1,2.7c0.7,1.2,1.1,2.5,1.2,3.9c0,1.3-0.4,2.5-1.2,3.5c1.4,0.3,2.7,0.8,3.9,1.6c1.3,0.7,2.4,1.8,3.1,3.1
								c1.2,1.9,1.5,4.2,0.8,6.3c-1.2,2.2-2.9,3.9-5.1,5.1l-12.5,7.4l-3.5-5.9l11.7-7c1.1-0.5,2.1-1.3,2.7-2.3
								c0.5-0.8,0.3-1.8-0.4-2.3c-0.9-1.3-2.3-2.2-3.9-2.3l-13.7,8.2l-3.5-5.9l11.7-7c1.1-0.5,2.1-1.3,2.7-2.3
								c0.5-0.8,0.3-1.8-0.4-2.3c-0.9-1.3-2.3-2.2-3.9-2.3l-13.7,8.2L256.1,1429.9z"/>
							<path id="Path_385" class="st29" d="M278.1,1466.3l27.8-18l3.9,5.9l-7,4.3l-3.9,2c1.2,0.4,2.4,0.9,3.5,1.6
								c1.3,0.7,2.4,1.8,3.1,3.1c1.4,1.6,1.7,3.9,0.8,5.9c-1,2.2-2.9,4-5.1,5.1l-12.1,7.8l-3.9-5.9l11.4-7.4
								c1.1-0.5,2.1-1.3,2.7-2.3c0.3-0.8,0.1-1.7-0.4-2.3c-0.4-0.8-1.2-1.2-1.6-1.6c-0.8-0.5-1.8-0.8-2.7-0.8l-13.3,8.6
								L278.1,1466.3z"/>
							<path id="Path_386" class="st29" d="M299.6,1500c-0.8-1.4-1.5-2.8-2-4.3c-0.4-1.5-0.4-3.2,0-4.7c0.3-1.5,0.9-2.9,1.6-4.3
								c1-1.5,2.4-2.7,3.9-3.5c1.3-1.1,3-1.8,4.7-2c1.5-0.4,3.2-0.4,4.7,0c1.4,0.3,2.7,0.8,3.9,1.6c1.2,0.7,2.3,1.6,3.1,2.7
								c0.7,1.3,1.4,2.6,2,3.9c0.2,1.3,0.2,2.6,0,3.9c-0.5,1.3-1.2,2.4-2,3.5c-1,1.2-2.2,2.3-3.5,3.1c-0.4,0.4-1,0.7-1.6,0.8
								c-0.3,0.3-0.7,0.4-1.2,0.4l-7.8-11.7c-1.2,1-1.9,2.4-2,3.9c0,1.4,0.4,2.7,1.2,3.9c1,1.5,2.5,2.7,4.3,3.1l-2,4.3
								c-1.5-0.5-2.8-1.3-3.9-2.3C301.6,1502.1,300.3,1501.3,299.6,1500 M308.6,1487l4.7,7c1.2-0.8,2-1.6,2-2.7
								c0.3-1.1,0-2.3-0.8-3.1c-0.7-0.9-1.7-1.5-2.7-2C310.6,1486.2,309.5,1486.5,308.6,1487"/>
							<path id="Path_387" class="st29" d="M309.4,1512.9l19.2-13.7l3.9,5.5l-19.2,13.7L309.4,1512.9z M333.3,1499.6
								c-0.8-0.8-1.1-2-0.8-3.1c0-1,0.6-1.9,1.6-2.3c0.8-0.6,1.8-0.9,2.7-0.8c1,0.2,1.8,0.7,2.3,1.6c0.8,0.8,1.1,2,0.8,3.1
								c0,1-0.6,1.9-1.6,2.3c-0.8,0.6-1.8,0.9-2.7,0.8C334.6,1501.1,333.7,1500.5,333.3,1499.6"/>
							<path id="Path_388" class="st29" d="M323.1,1532.1c-0.8-1-1.4-2.2-1.6-3.5c-0.4-1.3-0.4-2.6,0-3.9c0.3-1.4,1-2.8,2-3.9
								c1.1-1.3,2.3-2.5,3.5-3.5c1.4-1.1,3-1.9,4.7-2.3c1.4-0.4,2.8-0.7,4.3-0.8c1.4,0,2.7,0.4,3.9,1.2c1,0.7,1.9,1.5,2.7,2.3
								c0.7,1,1.2,2,1.6,3.1c0.2,1,0.2,2.1,0,3.1l2.7-2.3l6.3-4.7l4.3,5.5l-26.2,20.4l-3.5-4.7l1.6-2c-1.3,0-2.5-0.4-3.5-1.2
								C324.7,1534.2,323.7,1533.3,323.1,1532.1 M328.6,1530.1c0.3,0.6,0.9,1.1,1.6,1.2c0.7,0.3,1.5,0.5,2.3,0.4l7.8-5.9
								c0.1-0.8-0.1-1.6-0.4-2.3c-0.4-0.8-0.4-1.2-0.8-1.6c-0.8-0.8-2-1.3-3.1-1.2c-1.7,0.2-3.3,0.9-4.7,2c-1.5,1-2.7,2.3-3.5,3.9
								C327.5,1527.8,327.8,1529.1,328.6,1530.1"/>
							<path id="Path_389" class="st2" d="M1006.7,662.1l3.1-500.4l8.6-0.4l1.6,502.3L1006.7,662.1z"/>
							<path id="Path_390" class="st2" d="M1323.1,885.7L1799.2,731l3.1,7.8l-476.5,159.7L1323.1,885.7z"/>
							<path id="Path_391" class="st2" d="M706.8,885.7L231.1,731l-3.1,7.8l476.5,159.7L706.8,885.7z"/>
							<path id="Path_392" class="st2" d="M820.7,1246.3l-290.9,407.2l6.7,5.1l295.6-406L820.7,1246.3z"/>
							<path id="Path_393" class="st2" d="M1208,1247l290.5,407.2l-6.3,5.5l-296-406L1208,1247z"/>
							<rect id="Rectangle_489" x="63.1" y="41.1" class="st30" width="1898.2" height="1898.2"/>
						</g>
					</g>
				</g>
			</g>
		</g>
	</g>
	<g id="Boog_turqoise" class="st31">
		<path class="st20" d="M1764.3,593.8c-11,0-21.6-5.9-27-16.3c-55.4-105.6-140.5-186.6-202.1-235.9c-67.5-54-122.5-83-123-83.3
			c-14.9-7.8-20.7-26.2-12.9-41.1c7.8-14.9,26.2-20.7,41.1-12.9c2.4,1.3,59.8,31.4,131.7,88.8c42.2,33.7,80.8,69.9,114.6,107.5
			c42.6,47.4,77.8,97.4,104.6,148.6c7.8,14.9,2.1,33.4-12.8,41.2C1773.9,592.7,1769.1,593.8,1764.3,593.8z"/>
	</g>
	<g id="Boog_blue_00000072985381751194635750000003573300305747323041_" class="st31">
		<path class="st24" d="M630.8,226c-0.3,11-6.5,21.4-17,26.6C506.9,305.5,423.9,388.6,373.2,449c-55.6,66.2-85.9,120.5-86.2,121
			c-8.2,14.7-26.7,20.1-41.4,11.9c-14.7-8.1-20.1-26.7-11.9-41.4c1.3-2.4,32.8-59,91.9-129.6c34.7-41.4,71.8-79.1,110.3-112
			c48.4-41.4,99.3-75.4,151-101c15.1-7.5,33.4-1.3,40.9,13.8C629.9,216.4,630.9,221.3,630.8,226z"/>
	</g>
	<g id="Boog_green" class="st31">
		<path class="st3" d="M176,1103c10.3,3.9,18.1,13.1,19.6,24.8c14.8,118.4,66.1,224,106.5,291.8c44.3,74.3,85.6,120.7,86,121.1
			c11.2,12.5,10.2,31.8-2.3,43.1c-12.5,11.2-31.8,10.2-43-2.3c-1.8-2-45-50.4-92.2-129.3c-27.7-46.3-51.1-93.8-69.6-140.9
			c-23.2-59.3-38.6-118.5-45.8-175.8c-2.1-16.7,9.8-32,26.5-34.1C166.6,1100.6,171.5,1101.3,176,1103z"/>
	</g>
	<g id="Boog_orange" class="st31">
		<path class="st10" d="M757.8,1796.6c8.1-7.4,19.9-10.3,30.9-6.3c112.4,40,229.8,41.7,308.5,36.1c86.2-6.1,146.3-22.2,146.9-22.3
			c16.3-4.4,33,5.2,37.4,21.5c4.4,16.2-5.2,33-21.4,37.4c-2.6,0.7-65.2,17.5-157,24.2c-53.9,3.9-106.7,3.5-157.1-1.2
			c-63.4-5.9-123.2-18.8-177.6-38.2c-15.9-5.6-24.2-23.1-18.5-39C751.5,1804,754.3,1799.9,757.8,1796.6z"/>
	</g>
	<g id="Boog_purple" class="st31">
		<path class="st14" d="M1583.1,1619c-2.6-10.7,0.7-22.4,9.5-30.1c89.6-78.8,148.2-180.5,181.6-252c36.6-78.3,51.8-138.6,51.9-139.2
			c4.1-16.3,20.6-26.3,36.9-22.3c16.3,4.1,26.3,20.6,22.3,36.9c-0.7,2.6-16.4,65.5-55.2,149c-22.8,49-48.8,95-77.5,136.7
			c-36,52.5-76.3,98.5-119.7,136.7c-12.7,11.1-31.9,9.9-43-2.8C1586.5,1628.1,1584.3,1623.7,1583.1,1619z"/>
	</g>
</g>
</svg>
