<?xml version="1.0" encoding="UTF-8"?><svg id="Laag_1" xmlns="http://www.w3.org/2000/svg" xmlns:xlink="http://www.w3.org/1999/xlink" viewBox="0 0 2000 2000"><defs><clipPath id="clippath"><rect x=".3" y="-21.7" width="1921.4" height="1921.4" style="fill:none;"/></clipPath><clipPath id="clippath-1"><rect x="63.1" y="41.1" width="1898.2" height="1898.2" style="fill:none;"/></clipPath><clipPath id="clippath-2"><rect x="317.98" y="779.16" width="356.7" height="772.9" style="fill:none;"/></clipPath><clipPath id="clippath-3"><rect x="440.14" y="817.51" width="305.8" height="635.5" style="fill:none;"/></clipPath><clipPath id="clippath-4"><rect x="562.3" y="855.86" width="440.9" height="497.6" style="fill:none;"/></clipPath><clipPath id="clippath-5"><rect x="607.75" y="1456.09" width="811.7" height="229.4" style="fill:none;"/></clipPath><clipPath id="clippath-6"><rect x="680.22" y="1357.49" width="666.8" height="205.6" style="fill:none;"/></clipPath><clipPath id="clippath-7"><rect x="752.25" y="1003.14" width="521.9" height="438.1" style="fill:none;"/></clipPath><clipPath id="clippath-8"><rect x="1351.7" y="779.6" width="355.9" height="771.7" style="fill:none;"/></clipPath><clipPath id="clippath-9"><rect x="1280.45" y="817.95" width="305" height="633.9" style="fill:none;"/></clipPath><clipPath id="clippath-10"><rect x="1278.02" y="815.62" width="310.1" height="639.4" style="fill:none;"/></clipPath><clipPath id="clippath-11"><rect x="1024.36" y="856.64" width="439.3" height="496.1" style="fill:none;"/></clipPath><clipPath id="clippath-12"><rect x="1021.24" y="853.97" width="444.4" height="501.6" style="fill:none;"/></clipPath><clipPath id="clippath-13"><rect x="1016.13" y="295.64" width="657.4" height="516.4" style="fill:none;"/></clipPath><clipPath id="clippath-14"><rect x="1016.91" y="417.8" width="540.3" height="431.1" style="fill:none;"/></clipPath><clipPath id="clippath-15"><rect x="1017.69" y="540.3" width="423.2" height="442.8" style="fill:none;"/></clipPath><clipPath id="clippath-16"><rect x="352.44" y="295.64" width="659" height="516" style="fill:none;"/></clipPath><clipPath id="clippath-17"><rect x="468.7" y="417.8" width="541.9" height="430.7" style="fill:none;"/></clipPath><clipPath id="clippath-18"><rect x="585.07" y="539.96" width="424.8" height="442.8" style="fill:none;"/></clipPath></defs><g style="clip-path:url(#clippath);"><g id="Group_76"><g id="Group_77"><g style="clip-path:url(#clippath-1);"><g id="Group_76-2"><g id="Group_75"><path id="Path_247" d="M1012.2,41.1c524.2,0,949.1,424.9,949.1,949.1s-424.9,949.1-949.1,949.1S63.1,1514.4,63.1,990.2,488,41.1,1012.2,41.1" style="fill:#fff;"/><path id="Path_248" d="M318,990.6c-.2-71.8,10.9-143.1,32.9-211.4l-115.9-38.4c-26.1,80.7-39.3,165-39.2,249.8,0,271.7,132.7,512.1,336.7,660.9l71.3-99.1c-173-126.8-285.8-331.2-285.8-561.8" style="fill:#46ad48;"/><g id="Group_25" style="opacity:.75;"><g id="Group_24"><g style="clip-path:url(#clippath-2);"><g id="Group_23"><path id="Path_249" d="M440.18,990.56c0-58.7,9-117.1,26.6-173.1l-115.9-38.4c-91,285.1,10.8,596.5,252.5,772.9l71.3-99.1c-147.5-107.7-234.7-279.5-234.5-462.3" style="fill:#46ad48;"/></g></g></g></g><path id="Path_250" d="M604.2,1554.8l-1.6-1.2c-180-131.1-286.5-340.3-286.6-563-.1-71.9,11-143.4,32.9-211.8l.8-2,119.8,39.5-.4,2c-74.1,233.7,9.5,488.6,207.5,633.1l1.6,1.2-74,102.2Zm-252.1-773.3c-89.9,283.3,11.1,592.3,251,767.8l68.9-95.9c-147.1-108.3-233.9-280.1-233.7-462.8-.1-58.3,8.7-116.3,26.2-171.9l-112.4-37.2Z" style="fill:#fff;"/><g id="Group_28" style="opacity:.65;"><g id="Group_27"><g style="clip-path:url(#clippath-3);"><g id="Group_26"><path id="Path_251" d="M562.34,990.61c-.1-45.7,6.8-91.1,20.4-134.7l-115.9-38.4c-74,234.5,9.6,490.1,207.9,635.5l71.3-99.1c-115.5-85.1-183.7-219.9-183.7-363.3" style="fill:#46ad48;"/></g></g></g></g><path id="Path_252" d="M675.5,1455.7l-1.6-1.2c-198.9-145.8-282.8-402.1-208.7-637.4l.8-2,119.8,39.5-.4,2c-57,182.9,8.2,381.7,162.5,495.3l1.6,1.2-74,102.6Zm-207.5-635.4c-44.7,143.6-31,299,38,432.6,40.5,77.7,98.1,145.1,168.4,197.3l68.9-95.9c-154-114.3-219.3-313.2-163-496.4l-112.3-37.6Z" style="fill:#fff;"/><g id="Group_31" style="opacity:.5;"><g id="Group_30"><g style="clip-path:url(#clippath-4);"><g id="Group_29"><path id="Path_253" d="M582.7,855.86c-57.1,183.7,8.4,383.5,163.3,497.6l257.2-358.3-420.5-139.3Z" style="fill:#46ad48;"/></g></g></g></g><path id="Path_254" d="M746.3,1356.3l-1.6-1.2c-115.7-85.4-184.1-220.7-184.4-364.5,0-45.8,6.9-91.3,20.4-135.1l.8-2,424.8,141-260,361.8Zm-162.4-497.7c-55.4,181.7,9.3,378.7,161.7,492.2l254.5-354.3-416.2-137.9Z" style="fill:#fff;"/><path id="Path_255" d="M1013,1685.2c-145.4,.3-287.3-45.3-405.2-130.4l-72.4,98.3c285.5,206,670.9,205.7,956.1-.8l-72.5-98.3c-118.1,85.5-260.2,131.5-406,131.2" style="fill:#ed7a0f;"/><g id="Group_34" style="opacity:.75;"><g id="Group_33"><g style="clip-path:url(#clippath-5);"><g id="Group_32"><path id="Path_256" d="M1012.95,1563.39c-119.3,.2-235.7-37.1-332.8-106.5l-72.4,98.3c242.6,174.1,569.4,173.8,811.7-.8l-72.4-98.3c-97.5,69.8-214.3,107.4-334.1,107.3" style="fill:#ed7a0f;"/></g></g></g></g><path id="Path_257" d="M1013,1687.1c-145.9,.4-288.1-45.4-406.4-130.8l-1.6-1.2,74.8-101.4,1.6,1.2c198.9,141.8,465.9,141.4,664.4-.8l1.6-1.2,74.8,101.4-1.6,1.2c-118.6,85.9-261.3,131.9-407.6,131.6m-402.5-132.7c241.3,172,565.2,171.7,806.2-.8l-70.1-95.1c-199.3,141.7-466.4,142-666,.8l-70.1,95.1Z" style="fill:#fff;"/><g id="Group_37" style="opacity:.65;"><g id="Group_36"><g style="clip-path:url(#clippath-6);"><g id="Group_35"><path id="Path_258" d="M1013.02,1441.29c-93.3,.2-184.4-28.8-260.4-83l-72.4,98.3c199.6,142.3,467.5,142,666.8-.8l-72.4-98.3c-76.3,54.6-167.8,83.9-261.6,83.8" style="fill:#ed7a0f;"/></g></g></g></g><path id="Path_259" d="M1013,1565.4c-119.8,.3-236.6-37.1-334-106.9l-1.6-1.2,74.8-101.4,1.6,1.2c155.7,110.4,364.2,110.1,519.6-.8l1.6-1.2,74.8,101.4-1.6,1.2c-97.8,70.1-215,107.7-335.2,107.7m-330.1-109.3c198.2,140.2,463.4,139.9,661.3-.8l-70.1-95.1c-156.1,110.4-364.7,110.7-521.1,.8l-70.1,95.1Z" style="fill:#fff;"/><g id="Group_40" style="opacity:.5;"><g id="Group_39"><g style="clip-path:url(#clippath-7);"><g id="Group_38"><path id="Path_260" d="M752.25,1358.23c156.4,111,365.9,110.6,521.9-.8l-260.8-354.3-261.1,355.1Z" style="fill:#ed7a0f;"/></g></g></g></g><path id="Path_261" d="M1013,1443.2c-93.7,.1-185.2-29-261.5-83.4l-1.6-1.2,1.2-1.6,262.7-357.5,263.5,358.3-1.6,1.2c-76.6,54.8-168.5,84.3-262.7,84.2m-257.7-85.3c155,108.9,361.7,108.6,516.4-.8l-258-350.8-258.4,351.6Z" style="fill:#fff;"/><path id="Path_262" d="M1829.7,990.6c0-84.6-13.1-168.8-38.8-249.4l-115.9,38.4c90.2,284.7-11.3,595.2-252.1,771.7l71.3,99.1c211-153.5,335.8-398.8,335.5-659.8" style="fill:#af72ad;"/><g id="Group_43" style="opacity:.75;"><g id="Group_42"><g style="clip-path:url(#clippath-8);"><g id="Group_41"><path id="Path_263" d="M1585.4,990.6c.2,182.3-86.7,353.8-233.7,461.6l71.3,99.1c240.9-176.5,342.3-487,252.1-771.7l-115.9,38.4c17.5,55.8,26.4,114,26.2,172.6" style="fill:#af72ad;"/></g></g></g></g><path id="Path_264" d="M1422.5,1554l-73.6-102.6,1.6-1.2c70.8-52.4,128.7-120.1,169.5-198.1,42.1-80.9,63.8-170.8,63.4-261.9,0-58.3-8.9-116.2-26.2-171.9l-.4-2,119.8-39.5,.8,2c91.1,285.4-10.7,597-252.5,773.7l-2.4,1.5Zm-67.7-101.4l68.9,95.9c177.5-130.5,282.3-337.6,282.3-557.9,.1-70.7-10.7-140.9-32.1-208.3l-112.4,37.2c44.7,144.3,31,300.3-38,434.6-40.5,78.1-98.2,146-168.7,198.5" style="fill:#fff;"/><g id="Group_46" style="opacity:.65;"><g id="Group_45"><g style="clip-path:url(#clippath-9);"><g id="Group_44"><path id="Path_265" d="M1463.25,990.55c.1,142.9-67.8,277.4-182.8,362.2l71.3,99.1c197.8-145.1,281.1-400,207.1-633.9l-115.9,38.4c13.5,43.4,20.3,88.7,20.3,134.2" style="fill:#af72ad;"/></g></g></g></g><g id="Group_49" style="opacity:.65;"><g id="Group_48"><g style="clip-path:url(#clippath-10);"><g id="Group_47"><path id="Path_266" d="M1351.62,1454.92l-73.6-102.6,1.6-1.2c114.2-84.7,181.7-218.4,182.1-360.6,.1-45.3-6.7-90.3-20.4-133.5l-.4-2,119.8-39.5,.8,2c74.3,234.7-9.4,490.7-207.9,636.2l-2,1.2Zm-68.1-101.8l68.9,95.9c70.3-52,127.7-119.4,168-196.9,68.7-133.5,82.2-288.6,37.6-431.9l-112.4,37.2c13.3,43,20,87.7,20,132.7-.3,142.9-67.7,277.4-182.1,363" style="fill:#fff;"/></g></g></g></g><g id="Group_52" style="opacity:.5;"><g id="Group_51"><g style="clip-path:url(#clippath-11);"><g id="Group_50"><path id="Path_267" d="M1280.76,1352.74c115-84.9,182.8-219.3,182.8-362.2,.1-45.4-6.8-90.6-20.4-133.9l-418.9,139,256.5,357.1Z" style="fill:#af72ad;"/></g></g></g></g><g id="Group_55" style="opacity:.5;"><g id="Group_54"><g style="clip-path:url(#clippath-12);"><g id="Group_53"><path id="Path_268" d="M1280.44,1355.47l-259.2-361.4,423.2-140.2,.8,2c13.6,43.6,20.5,89,20.4,134.7-.2,143.5-68.3,278.4-183.6,363.7l-1.6,1.2Zm-253-359l253.7,353.6c151.9-113.3,216.3-309.8,160.9-491l-414.6,137.4Z" style="fill:#fff;"/></g></g></g></g><path id="Path_269" d="M1673.5,774.9l116.3-37.2c-106.1-326.5-412.7-563-774.5-564.2l.8,122.2c307,1.5,567,201.9,657.4,479.2" style="fill:#2db3a5;"/><g id="Group_58" style="opacity:.75;"><g id="Group_57"><g style="clip-path:url(#clippath-13);"><g id="Group_56"><path id="Path_270" d="M1557.23,812.04l116.3-37.2c-90.5-277.2-350.5-477.7-657.4-479.2l.8,122.2c246,1.8,463.5,160.5,540.3,394.2" style="fill:#2db3a5;"/></g></g></g></g><path id="Path_271" d="M1556,814.4l-.8-2c-76.2-233.2-293.1-391.4-538.4-392.7h-2l-.8-126.1h2c300.4,1,566.3,194.8,659.3,480.4l.8,2-120.1,38.4ZM1018.9,415.8c245.5,2.2,462.4,160.4,539.5,393.5l112.8-36c-92.8-282.5-355.7-474.1-653.1-476.1l.8,118.6Z" style="fill:#fff;"/><g id="Group_61" style="opacity:.65;"><g id="Group_60"><g style="clip-path:url(#clippath-14);"><g id="Group_59"><path id="Path_272" d="M1016.91,417.8l.8,122.2c192.6,1.9,362.7,126.1,423.2,308.9l116.3-37.2c-77-233.6-294.4-392.1-540.3-393.9" style="fill:#2db3a5;"/></g></g></g></g><path id="Path_273" d="M1439.4,851.6l-.8-2c-60.2-182.1-229.5-305.8-421.3-307.7h-2l-.8-126.1h2c247,1.4,465.5,160.7,542.3,395.5l.8,2-120.2,38.3Zm-419.8-313.6c192,2.7,361.4,126.4,422.5,308.5l112.8-36c-76.6-231.6-292.1-388.7-536-390.7l.7,118.2Z" style="fill:#fff;"/><g id="Group_64" style="opacity:.5;"><g id="Group_63"><g style="clip-path:url(#clippath-15);"><g id="Group_62"><path id="Path_274" d="M1440.89,849.3c-60.5-182.9-230.6-307-423.2-308.9l2.7,442.8,420.5-133.9Z" style="fill:#2db3a5;"/></g></g></g></g><path id="Path_275" d="M1018.1,985.5l-2.3-447.5h2c193.5,2,364.4,126.8,425.2,310.5l.8,2-2,.8-423.7,134.2Zm1.5-443.6l2.7,438.1,416.2-132.3c-60.7-180.4-228.5-302.9-418.9-305.8" style="fill:#fff;"/><path id="Path_276" d="M1011.4,295.6l.8-122.2c-362.6,.4-669.5,236.9-776,563.8l116.3,37.2c90.4-277.1,351.2-478,658.9-478.8" style="fill:#45a7c3;"/><g id="Group_67" style="opacity:.75;"><g id="Group_66"><g style="clip-path:url(#clippath-16);"><g id="Group_65"><path id="Path_277" d="M1010.64,417.74l.8-122.2c-307.7,.8-568.1,201.3-659,478.9l116.3,37.2c77.1-234.2,295.4-392.8,541.9-393.9" style="fill:#46a8c4;"/></g></g></g></g><path id="Path_278" d="M469.9,814l-120.2-38.4,.8-2c93.4-285.9,359.8-479.5,660.5-480h2l-.8,126.1h-2c-245.7,.7-463.4,158.8-539.9,392.3l-.4,2Zm-115.1-40.7l112.8,36c77.3-233.6,295.1-391.7,541.1-393.1l.8-118.2c-297.6,1.5-561.1,192.8-654.7,475.3" style="fill:#fff;"/><g id="Group_70" style="opacity:.65;"><g id="Group_69"><g style="clip-path:url(#clippath-17);"><g id="Group_68"><path id="Path_279" d="M1009.9,539.9l.8-122.2c-246.4,1-464.6,159.5-541.9,393.5l116.3,37.2c61-183.1,231.7-307.1,424.8-308.5" style="fill:#46a8c4;"/></g></g></g></g><path id="Path_280" d="M586.2,851.2l-120.2-38.4,.8-2c77.2-235,296.1-394.1,543.5-395.1h2l-.8,126.1h-2c-192.2,1.3-362.3,124.9-422.9,307.4l-.4,2Zm-115.1-40.7l112.8,36c61.4-182.5,231.5-306.1,424-308.1l.8-118.2c-244.4,1.2-460.7,158.3-537.6,390.3" style="fill:#fff;"/><g id="Group_73" style="opacity:.5;"><g id="Group_72"><g style="clip-path:url(#clippath-18);"><g id="Group_71"><path id="Path_281" d="M1009.87,539.96c-197.7,1.2-365.3,130.4-424.8,308.5l422.1,134.3,2.7-442.8Z" style="fill:#46a8c4;"/></g></g></g></g><path id="Path_282" d="M1009.1,985.5l-426.4-135.9,.8-2c61.1-183.9,232.5-308.6,426.4-310.1h2l-2.8,448Zm-421.3-138.2l417.8,133.1,2.7-438.1c-190.9,1.5-359.8,124-420.5,305" style="fill:#fff;"/><g id="Visie_op_onderwijs"><path id="Path_283" d="M780.7,758.2c128.3-128.3,336.3-128.3,464.6,0s128.3,336.3,0,464.6-336.3,128.3-464.6,0h0c-128.3-128.3-128.3-336.3,0-464.6h0" style="fill:#fff;"/><path id="Path_284" d="M871.2,969.8l-16.4-54.8h12.9l6.7,25.5c.8,3.1,1.6,5.9,2.3,8.6s1.6,5.9,2.3,8.6h.4c.8-3.1,1.6-5.9,2.3-8.6s1.6-5.9,2.3-8.6l6.7-25.5h12.5l-16.4,54.8h-15.6Z" style="fill:#020304;"/><path id="Path_285" d="M917.8,922.1c-1.9,0-3.7-.7-5.1-2-2.6-2.6-2.6-6.8,0-9.4h0c2.9-2.6,7.3-2.6,10.2,0,2.6,2.6,2.6,6.8,0,9.4-1.3,1.4-3.2,2.1-5.1,2m-6.2,6.2h12.5v41.5h-12.5v-41.5Z" style="fill:#020304;"/><path id="Path_286" d="M951.1,971c-2.9,0-5.9-.5-8.6-1.6-2.7-1-5.3-2.4-7.4-4.3l5.5-7.8c1.6,1.4,3.5,2.5,5.5,3.1,1.8,.6,3.6,1,5.5,1.2,1.3,.1,2.7-.2,3.9-.8,.8-.7,1.2-1.7,1.2-2.7,0-.8-.4-1.2-.8-2-.6-.6-1.2-1.1-2-1.6-.9-.5-1.8-.9-2.7-1.2-1.2-.4-2-.8-3.1-1.2-1.4-.5-2.7-1.2-3.9-2l-3.5-2.3c-1.2-.9-2.2-2.1-2.7-3.5-.8-1.4-1.3-3-1.2-4.7,0-1.9,.4-3.8,1.2-5.5,.8-1.6,1.9-3,3.1-4.3,1.6-1.1,3.3-2.1,5.1-2.7,4.9-1.3,10.1-1,14.9,.8,2.2,1,4.3,2.2,6.3,3.5l-5.5,7.4c-1.6-1.2-3.1-2-4.3-2.7-1.3-.6-2.8-.9-4.3-.8-3.1,0-4.7,1.2-4.7,3.1,0,.6,.3,1.2,.8,1.6,.6,.5,1.3,.9,2,1.2,.9,.5,1.8,.9,2.7,1.2,1.2,.4,2,.8,3.1,1.2,1.2,.4,2.7,1.2,3.9,1.6,1.3,.6,2.4,1.4,3.5,2.3,1.2,.9,2.2,2.1,2.7,3.5,.8,1.6,1.2,3.3,1.2,5.1,0,1.9-.4,3.8-1.2,5.5-.8,1.6-1.9,3-3.1,4.3-1.6,1.4-3.4,2.3-5.5,2.7-2.2,1.8-4.9,2.6-7.6,2.4" style="fill:#020304;"/><path id="Path_287" d="M986.4,922.1c-1.9,0-3.7-.7-5.1-2-2.6-2.6-2.6-6.8,0-9.4h0c2.9-2.6,7.3-2.6,10.2,0,2.6,2.6,2.6,6.8,0,9.4h0c-1.3,1.5-3.2,2.2-5.1,2m-5.9,6.2h12.5v41.5h-12.5v-41.5Z" style="fill:#020304;"/><path id="Path_288" d="M1026.3,971c-2.8,.1-5.6-.4-8.2-1.6-2.6-.8-4.9-2.3-6.7-4.3-1.9-1.9-3.4-4.1-4.3-6.7-1.2-3-1.7-6.2-1.6-9.4-.1-3.1,.4-6.1,1.6-9,1.1-2.5,2.6-4.9,4.3-7,1.8-1.8,3.9-3.2,6.3-4.3,2.3-1.1,4.9-1.7,7.4-1.6,2.7-.1,5.4,.4,7.8,1.6,2.1,1,4,2.5,5.5,4.3,1.6,1.8,2.7,3.9,3.1,6.3,.8,2.5,1.2,5.2,1.2,7.8v3.1c-.1,.8-.2,1.6-.4,2.3h-25.1c.3,2.7,1.7,5.1,3.9,6.7,2,1.5,4.5,2.2,7,2,3.2,0,6.3-1,9-2.7l4.3,7.4c-2.1,1.6-4.5,2.8-7,3.5-2.5,1.1-5.3,1.7-8.1,1.6m-9-26.6h14.9c.1-2.1-.4-4.1-1.6-5.9-1.3-1.7-3.4-2.6-5.5-2.3-1.9,.1-3.7,.8-5.1,2-1.5,1.7-2.5,3.9-2.7,6.2" style="fill:#020304;"/><path id="Path_289" d="M1094.4,971c-2.7,0-5.4-.5-7.8-1.6-5.1-1.9-9-5.9-11-11-2.1-6.1-2.1-12.7,0-18.8,1.9-5.1,5.9-9,11-11,2.5-.9,5.2-1.5,7.8-1.6,2.6-.1,5.1,.4,7.4,1.6,2.4,1.1,4.7,2.5,6.7,4.3,1.9,1.9,3.4,4.1,4.3,6.7,2.1,6.1,2.1,12.7,0,18.8-1.9,5.1-5.9,9-11,11-2.3,1.2-4.8,1.7-7.4,1.6m0-10.2c2.3-.1,4.5-1.2,5.9-3.1,2.6-5.4,2.6-11.8,0-17.2-1.2-2.1-3.5-3.3-5.9-3.1-2.4,0-4.6,1.2-5.9,3.1-2.6,5.4-2.6,11.8,0,17.2,1.2,2.1,3.5,3.3,5.9,3.1" style="fill:#020304;"/><path id="Path_290" d="M1127.3,985.5v-57.2h10.2l.8,4.3h.4c1.6-1.5,3.4-2.7,5.5-3.5,2-.9,4.1-1.4,6.3-1.6,2.3-.1,4.6,.5,6.7,1.6,2,1,3.8,2.5,5.1,4.3,1.5,2,2.6,4.2,3.1,6.7,.8,2.8,1.2,5.7,1.2,8.6,.1,3.2-.4,6.4-1.6,9.4-1,2.5-2.3,4.9-3.9,7-1.4,1.9-3.3,3.4-5.5,4.3-2,1.1-4.3,1.7-6.7,1.6-1.8,0-3.5-.4-5.1-1.2-1.7-.9-3.2-2-4.7-3.1l.4,6.7v12.1h-12.2Zm19.2-24.7c2.2,0,4.2-1,5.5-2.7,1.8-2.8,2.6-6.1,2.3-9.4,0-7.4-2.3-11.4-7-11.4-2.8,.2-5.4,1.6-7,3.9v17.2c1,.9,2.2,1.6,3.5,2,.3,.4,1.5,.4,2.7,.4" style="fill:#020304;"/><path id="Path_291" d="M834.4,1071.6c-3.5,0-6.9-.7-10.2-2-3-1.2-5.7-3.1-7.8-5.5-2.4-2.6-4.1-5.6-5.1-9-1.3-3.9-2-8-2-12.1s.7-8.2,2-12.1c1.1-3.3,2.8-6.4,5.1-9,2.2-2.4,4.8-4.3,7.8-5.5,6.5-2.6,13.8-2.6,20.4,0,3,1.2,5.7,3.1,7.8,5.5,2.4,2.6,4.1,5.6,5.1,9,1.3,3.8,2,7.8,2,11.7,0,4.1-.7,8.2-2,12.1-1,3.4-2.7,6.4-5.1,9-2.2,2.4-4.8,4.3-7.8,5.5-3.1,1.9-6.6,2.7-10.2,2.4m0-10.5c3.6,.1,7-1.7,9-4.7,2.3-3.1,3.1-7.4,3.1-13.3,.2-4.5-.9-9-3.1-12.9-3.5-5-10.3-6.2-15.3-2.7-1.1,.7-2,1.7-2.7,2.7-2.4,3.9-3.5,8.4-3.1,12.9-.1,4.6,1,9.2,3.1,13.3,2.1,2.9,5.4,4.7,9,4.7" style="fill:#020304;"/><path id="Path_292" d="M872.8,1070.9v-41.5h10.2l.8,5.5h.4c1.9-1.6,3.8-3,5.9-4.3,2.3-1.3,4.8-2,7.4-2,3.8-.3,7.5,1.3,9.8,4.3,2.2,3.8,3.3,8.1,3.1,12.5v25.8h-12.5v-24.2c.2-2.2-.2-4.3-1.2-6.3-.9-1.2-2.4-1.8-3.9-1.6-1.4,0-2.8,.4-3.9,1.2-1.4,.8-2.6,1.9-3.5,3.1v28.2h-12.5v-.7h-.1Z" style="fill:#020304;"/><path id="Path_293" d="M940.2,1071.6c-2.4,.1-4.9-.4-7-1.6-2.1-1.1-3.9-2.5-5.5-4.3-1.6-2-2.7-4.2-3.5-6.7-.8-2.9-1.2-6-1.2-9-.2-3.1,.4-6.2,1.6-9,1-2.5,2.3-4.9,3.9-7,1.5-1.8,3.4-3.2,5.5-4.3,1.9-1.1,4.1-1.6,6.3-1.6,2-.1,4,.3,5.9,1.2,1.6,.8,3,1.9,4.3,3.1l-.4-6.3v-14.5h12.5v58.7h-10.2l-.8-4.3h-.4c-1.4,1.5-3.2,2.7-5.1,3.5-1.7,1.5-3.8,2.2-5.9,2.1m3.1-9.7c1.2,0,2.4-.3,3.5-.8,1.2-.4,2-1.6,3.1-3.1v-17.2c-1-.9-2.2-1.6-3.5-2-1.1-.4-2.3-.7-3.5-.8-2,0-4,1-5.1,2.7-1.8,2.5-2.6,5.6-2.3,8.6-.2,3.1,.5,6.2,2,9,1.1,2.1,3.3,3.5,5.8,3.6" style="fill:#020304;"/><path id="Path_294" d="M996.1,1071.6c-2.8,.1-5.6-.4-8.2-1.6-2.6-.8-4.9-2.3-6.7-4.3-1.9-1.9-3.4-4.1-4.3-6.7-1.2-3-1.7-6.2-1.6-9.4-.1-3.1,.4-6.1,1.6-9,1.1-2.5,2.6-4.9,4.3-7,1.8-1.9,3.9-3.3,6.3-4.3,2.3-1.1,4.9-1.7,7.4-1.6,2.7-.1,5.4,.4,7.8,1.6,2.1,1,4,2.5,5.5,4.3,1.6,1.8,2.7,3.9,3.1,6.3,.8,2.5,1.2,5.2,1.2,7.8v3.1c0,.8-.4,2-.4,2.3h-25.1c.3,2.7,1.7,5.1,3.9,6.7,2,1.5,4.5,2.2,7,2,3.2,0,6.3-1,9-2.7l4.3,7.4c-2.1,1.6-4.5,2.8-7,3.5-2.5,1.1-5.2,1.7-8.1,1.6m-9.4-26.2h14.9c.1-2.1-.4-4.1-1.6-5.9-1.3-1.7-3.4-2.6-5.5-2.3-1.9,.1-3.7,.8-5.1,2-1.2,1.9-2.1,4-2.7,6.2" style="fill:#020304;"/><path id="Path_295" d="M1025.1,1070.9v-41.5h10.2l.8,7.4h.4c1.3-2.5,3.2-4.6,5.5-6.3,1.9-1.2,4-1.9,6.3-2,.9-.1,1.9,0,2.7,.4,.8,.4,1.6,.4,2,.8l-2,10.6c-.7-.3-1.5-.5-2.3-.4h-2.3c-1.8,0-3.6,.6-5.1,1.6-1.9,1.6-3.4,3.6-4.3,5.9v24.3h-11.7v-.8h-.2Z" style="fill:#020304;"/><path id="Path_296" d="M1070.1,1070.9l-10.6-41.5h12.1l3.9,19.2c.5,2.1,.7,4.2,.8,6.3,.5,2.1,.7,4.2,.8,6.3h.4c.4-2,.8-4.3,1.2-6.3l1.2-5.9,4.7-19.2h10.6l4.7,19.2c.4,2,.8,4.3,1.2,6.3,.4,2,.8,3.9,1.2,6.3h.4c.5-2.1,.7-4.2,.8-6.3,.4-2,.4-3.9,.8-6.3l3.9-19.2h11.4l-10.2,41.5h-14.5l-3.9-16.4-1.2-5.9c-.4-2-.8-3.9-1.2-6.3h-.4c-.4,2.3-.8,4.3-1.2,6.3l-1.2,5.9-3.5,16.4h-12.1l-.1-.4Z" style="fill:#020304;"/><path id="Path_297" d="M1139.1,1023.1c-1.9,0-3.7-.7-5.1-2-2.6-2.6-2.6-6.8,0-9.4h0c2.9-2.6,7.3-2.6,10.2,0,2.6,2.6,2.6,6.8,0,9.4h0c-1.5,1.2-3.3,1.9-5.1,2m-6.3,6.3h12.5v41.5h-12.5v-41.5Z" style="fill:#020304;"/><path id="Path_298" d="M1157.9,1087.3c-1.4,.1-2.9,0-4.3-.4-1.2-.4-2-.4-3.1-.8l2.3-9c.4,0,1.2,.4,1.6,.4h1.6c1.4,.2,2.7-.4,3.5-1.6,.7-1.6,1-3.4,.8-5.1v-41.8h12.5v41.5c-.1,2.2-.3,4.5-.8,6.7-.4,2-1.2,3.8-2.3,5.5-1.2,1.6-2.8,2.8-4.7,3.5-2.4,.8-4.7,1.2-7.1,1.1m8.6-64.2c-1.9,0-3.7-.7-5.1-2-2.6-2.6-2.6-6.8,0-9.4h0c2.9-2.6,7.3-2.6,10.2,0,2.6,2.6,2.6,6.8,0,9.4h0c-1.4,1.3-3.3,2-5.1,2" style="fill:#020304;"/><path id="Path_299" d="M1200.1,1071.6c-2.9,0-5.9-.5-8.6-1.6-2.7-1-5.3-2.4-7.4-4.3l5.5-7.8c1.6,1.4,3.5,2.5,5.5,3.1,1.7,.8,3.6,1.2,5.5,1.2,1.3,.1,2.7-.2,3.9-.8,.8-.7,1.2-1.7,1.2-2.7,0-.8-.4-1.2-.8-2-.6-.6-1.2-1.1-2-1.6-.9-.5-1.8-.9-2.7-1.2-1.2-.4-2-.8-3.1-1.2-1.4-.5-2.7-1.2-3.9-2l-3.5-2.3c-1.2-.9-2.2-2.1-2.7-3.5-.8-1.4-1.3-3-1.2-4.7,0-1.9,.4-3.8,1.2-5.5,.8-1.6,1.9-3,3.1-4.3,1.6-1.1,3.3-2.1,5.1-2.7,4.9-1.3,10.1-1,14.9,.8,2.2,1,4.3,2.2,6.3,3.5l-5.5,7.4c-1.6-1.2-3.1-2-4.3-2.7-1.3-.6-2.8-.9-4.3-.8-3.1,0-4.7,1.2-4.7,3.1,0,.6,.3,1.2,.8,1.6,.6,.5,1.3,.9,2,1.2,.9,.5,1.8,.9,2.7,1.2,1,.5,2.1,.8,3.1,1.2,1.2,.4,2.7,1.2,3.9,1.6l3.5,2.3c1.2,.9,2.2,2.1,2.7,3.5,.8,1.6,1.2,3.3,1.2,5.1,0,1.9-.4,3.8-1.2,5.5-.8,1.6-1.9,3-3.1,4.3-1.6,1.4-3.4,2.3-5.5,2.7-2.2,1.8-4.9,2.6-7.6,2.4" style="fill:#020304;"/></g><circle id="Paars_-_4-2" cx="1696.3" cy="1313.5" r="45" style="fill:#af72ad;"/><circle id="Paars_-_3-2" cx="1592.3" cy="1246.8" r="45" style="fill:none;"/><circle id="Paars_-_2-2" cx="1486.1" cy="1173.1" r="45" style="fill:none;"/><circle id="Paars_-_1-2" cx="1375.8" cy="1108.1" r="45" style="fill:none;"/><circle id="Turqoise_-_1-2" cx="1266.2" cy="695.1" r="45" style="fill:none;"/><circle id="Turqoise_-_2-2" cx="1356.2" cy="605.1" r="45" style="fill:none;"/><circle id="Turqoise_-_3-2" cx="1443.3" cy="523.6" r="45" style="fill:none;"/><circle id="Turqoise_-_4-2" cx="1529.6" cy="439.6" r="45" style="fill:#2db3a5;"/><circle id="Blue_-_1-2" cx="767" cy="700.1" r="45" style="fill:none;"/><circle id="Blue_-_2-2" cx="675.1" cy="609.1" r="45" style="fill:none;"/><circle id="Blue_-_3-2" cx="583.1" cy="523.6" r="45" style="fill:none;"/><circle id="Blue_-_4-2" cx="500.2" cy="433.6" r="45" style="fill:#45a7c3;"/><circle id="Groen_-_1" cx="648.2" cy="1109.1" r="45" style="fill:none;"/><circle id="Groen_-_2" cx="526.9" cy="1158.9" r="45" style="fill:none;"/><circle id="Groen_-_3" cx="417.5" cy="1208.1" r="45" style="fill:none;"/><circle id="Groen_-_4" cx="313.5" cy="1271.5" r="45" style="fill:#46ad48;"/><circle id="Oranje_-_1-2" cx="1015.2" cy="1384.3" r="45" transform="translate(-513.84 2164.65) rotate(-80.78)" style="fill:none;"/><circle id="Oranje_-_2-2" cx="1014.2" cy="1501.8" r="45" transform="translate(-630.66 2262.34) rotate(-80.78)" style="fill:none;"/><circle id="Oranje_-_3-2" cx="1014.2" cy="1628.3" r="45" transform="translate(-755.53 2368.58) rotate(-80.78)" style="fill:none;"/><circle id="Oranje_-_4-2" cx="1017.2" cy="1748.2" r="45" transform="translate(-871.36 2472.23) rotate(-80.78)" style="fill:none;"/><path id="Blue_-_1" d="M752.6,726.3v-9h10.6v-28.2h-9v-7c2.3-.4,4.5-1,6.7-2,1.9-.8,3.7-1.7,5.5-2.7h8.2v39.5h9v9h-30.9v.4h-.1Z" style="fill:#020304;"/><path id="Green_-_1" d="M632.4,1131.2v-9h10.6v-28.2h-9v-7c2.3-.4,4.5-1,6.7-2,1.9-.8,3.7-1.7,5.5-2.7h8.2v39.5h9v9h-30.9v.4h-.1Z" style="fill:#020304;"/><path id="Paars_-_1" d="M1359.9,1131.2v-9h10.6v-28.2h-9v-7c2.3-.4,4.5-1,6.7-2,1.9-.8,3.7-1.7,5.5-2.7h8.2v39.5h9v9h-30.9v.4h-.1Z" style="fill:#020304;"/><path id="Paars_-_2" d="M1468.7,1195.8v-6.3c3.1-2.7,5.9-5.5,8.6-8.2s4.7-4.7,6.7-7c1.6-2,3-4.1,4.3-6.3,1-1.7,1.5-3.5,1.6-5.5s-.6-4-2-5.5c-1.3-1.3-3.2-2.1-5.1-2-1.7-.1-3.4,.4-4.7,1.6-1.2,1.2-2.7,2.3-3.9,3.5l-6.3-5.9c2.1-2.4,4.6-4.4,7.5-5.9,2.8-1.5,5.9-2.2,9-2,2.3,0,4.5,.4,6.7,1.2,1.8,.8,3.5,1.9,5.1,3.1,1.4,1.3,2.5,2.9,3.1,4.7,.8,2,1.2,4.1,1.2,6.3s-.4,4.3-1.2,6.3c-.9,2.2-2.1,4.4-3.5,6.3-1.6,2.2-3.3,4.3-5.1,6.3-2,2-3.9,4.3-5.9,6.3,1.2,0,2.7-.4,3.9-.4h13.7v9.4h-33.7Z" style="fill:#020304;"/><path id="Paars_-_3" d="M1590.9,1269.8c-3.5,0-7-.6-10.2-2-2.7-1-5-2.8-6.7-5.1l5.1-7c1.4,1.4,3,2.6,4.7,3.5,1.8,1,3.8,1.5,5.9,1.6s4.1-.4,5.9-1.6c1.4-1,2.2-2.6,2-4.3,.1-.9,0-1.9-.4-2.7-.5-.9-1.2-1.7-2-2.3-1.2-.7-2.6-1.2-3.9-1.6-2.2-.4-4.4-.5-6.7-.4v-7.8c1.8,.1,3.7,0,5.5-.4,1.2-.3,2.4-.7,3.5-1.2,.8-.4,1.5-1.1,2-2,.3-.9,.5-1.8,.4-2.7,.2-1.5-.4-2.9-1.6-3.9s-2.7-1.5-4.3-1.6c-1.6,0-3.2,.4-4.7,1.2-1.5,.9-3,2-4.3,3.1l-5.5-7c2.2-1.8,4.5-3.4,7-4.7,2.6-1.2,5.4-1.7,8.2-1.6,2.2,0,4.5,.3,6.7,.8,1.9,.6,3.6,1.5,5.1,2.7s2.7,2.6,3.5,4.3c.8,1.7,1.2,3.6,1.2,5.5,0,2.4-.7,4.7-2,6.7-1.7,1.7-3.7,3.2-5.9,4.3v.4c2.7,.8,5.1,2.3,7,4.3,1.9,2.1,2.9,5,2.7,7.8,.1,2.1-.4,4.1-1.6,5.9-1,1.7-2.3,3.2-3.9,4.3-1.8,1.2-3.8,2.1-5.9,2.7-2.1,.5-4.4,.7-6.8,.8" style="fill:#020304;"/><path id="Paars_-_4" d="M1703.3,1339.8v-11.7h-21.1v-7.8l17.6-29.4h13.7v28.2h5.5v8.6h-5.5v11.7h-10.2v.4Zm-10.2-20.3h10.2v-13.3c0-2,.4-3.9,.4-5.5h-.4c-.8,1.2-1.2,2.7-2,3.9-.8,1.6-1.2,2.7-2,4.3l-6.2,10.6Z" style="fill:#020304;"/><path id="Green_-_2" d="M510.3,1180.9v-6.3c3.1-2.7,5.9-5.5,8.6-8.2,2.7-2.7,4.7-4.7,6.7-7,1.6-2,3-4.1,4.3-6.3,1-1.7,1.5-3.5,1.6-5.5s-.6-4-2-5.5c-1.3-1.3-3.2-2.1-5.1-2-1.7-.1-3.4,.4-4.7,1.6-1.2,1.2-2.7,2.3-3.9,3.5l-6.3-5.9c2.1-2.4,4.6-4.4,7.4-5.9,2.8-1.5,5.9-2.2,9-2,2.3,0,4.5,.4,6.7,1.2,1.8,.8,3.5,1.9,5.1,3.1,1.4,1.3,2.5,2.9,3.1,4.7,.8,2,1.2,4.1,1.2,6.3s-.4,4.3-1.2,6.3c-.9,2.2-2.1,4.4-3.5,6.3-1.6,2.2-3.3,4.3-5.1,6.3-2,2-3.9,4.3-5.9,6.3,1.2,0,2.7-.4,3.9-.4h13.7v9.4h-33.6Z" style="fill:#020304;"/><path id="Green_-_3" d="M417.1,1233c-3.5,0-7-.6-10.2-2-2.7-1-5-2.8-6.7-5.1l5.1-7c1.4,1.4,3,2.6,4.7,3.5,1.8,1,3.8,1.5,5.9,1.6s4.1-.4,5.9-1.6c1.4-1,2.2-2.6,2-4.3,.1-.9,0-1.9-.4-2.7-.5-.9-1.2-1.7-2-2.3-1.2-.7-2.6-1.2-3.9-1.6-2.2-.4-4.4-.5-6.7-.4v-7.8c1.8,.1,3.7,0,5.5-.4,1.2-.3,2.4-.7,3.5-1.2,.8-.4,1.5-1.1,2-2,.3-.9,.5-1.8,.4-2.7,.2-1.5-.4-2.9-1.6-3.9s-2.7-1.5-4.3-1.6c-1.6,0-3.2,.4-4.7,1.2-1.5,.9-3,2-4.3,3.1l-5.5-7c2.2-1.8,4.5-3.4,7-4.7,2.6-1.2,5.4-1.7,8.2-1.6,2.2,0,4.5,.3,6.7,.8,1.9,.6,3.6,1.5,5.1,2.7s2.7,2.6,3.5,4.3c.8,1.7,1.2,3.6,1.2,5.5,0,2.4-.7,4.7-2,6.7-1.7,1.7-3.7,3.2-5.9,4.3v.4c2.7,.8,5.1,2.3,7,4.3,1.9,2.1,2.9,5,2.7,7.8,.1,2.1-.4,4.1-1.6,5.9-1,1.7-2.3,3.2-3.9,4.3-1.8,1.2-3.8,2.1-5.9,2.7-2.1,.4-4.5,.7-6.8,.8" style="fill:#020304;"/><path id="Green_-_4" d="M314.1,1293.6v-11.7h-21.1v-7.8l17.6-29.4h13.7v28.2h5.5v8.6h-5.5v11.7h-10.2v.4Zm-10.2-20.3h10.2v-13.3c0-2,.4-3.9,.4-5.5h-.4c-.8,1.2-1.2,2.7-2,3.9-.8,1.6-1.2,2.7-2,4.3l-6.2,10.6Z" style="fill:#020304;"/><path id="Turqoise_-_1" d="M1250.6,726.3v-9h10.6v-28.2h-9v-7c2.3-.4,4.5-1,6.7-2,1.9-.8,3.7-1.7,5.5-2.7h8.2v39.5h9v9h-30.9l-.1,.4Z" style="fill:#020304;"/><path id="Oranje_-_1" d="M1000.1,1407.6v-9h10.6v-28.2h-9v-7c2.3-.4,4.5-1,6.7-2,1.9-.8,3.7-1.7,5.5-2.7h8.2v39.5h9v9h-30.9v.4h-.1Z" style="fill:#020304;"/><path id="Oranje_-_2" d="M997.3,1523.5v-6.3c3.1-2.7,5.9-5.5,8.6-8.2s4.7-4.7,6.7-7c1.6-2,3-4.1,4.3-6.3,1-1.7,1.5-3.5,1.6-5.5s-.6-4-2-5.5c-1.3-1.3-3.2-2.1-5.1-2-1.7-.1-3.4,.4-4.7,1.6-1.2,1.2-2.7,2.3-3.9,3.5l-6.3-5.9c2.1-2.4,4.6-4.4,7.4-5.9,2.8-1.5,5.9-2.2,9-2,2.3,0,4.5,.4,6.7,1.2,1.8,.8,3.5,1.9,5.1,3.1,1.4,1.3,2.5,2.9,3.1,4.7,.8,2,1.2,4.1,1.2,6.3s-.4,4.3-1.2,6.3c-.9,2.2-2.1,4.4-3.5,6.3-1.6,2.2-3.3,4.3-5.1,6.3-2,2-3.9,4.3-5.9,6.3,1.2,0,2.7-.4,3.9-.4h13.7v9.4h-33.6Z" style="fill:#020304;"/><path id="Oranje_-_3" d="M1013,1651.9c-3.5,0-7-.6-10.2-2-2.7-1-5-2.8-6.7-5.1l5.1-7c1.4,1.4,3,2.6,4.7,3.5,1.8,1,3.8,1.5,5.9,1.6,2.1,.1,4.1-.4,5.9-1.6,1.4-1,2.2-2.6,2-4.3,.1-.9,0-1.9-.4-2.7-.5-.9-1.2-1.7-2-2.3-1.2-.7-2.6-1.2-3.9-1.6-2.2-.4-4.4-.5-6.7-.4v-7.8c1.8,.1,3.7,0,5.5-.4,1.2-.3,2.4-.7,3.5-1.2,.8-.4,1.5-1.1,2-2,.3-.9,.5-1.8,.4-2.7,.2-1.5-.4-2.9-1.6-3.9-1.2-1-2.7-1.5-4.3-1.6-1.6,0-3.2,.4-4.7,1.2-1.5,.9-3,2-4.3,3.1l-5.5-7c2.2-1.8,4.5-3.4,7-4.7,2.6-1.2,5.4-1.7,8.2-1.6,2.2,0,4.5,.3,6.7,.8,1.9,.6,3.6,1.5,5.1,2.7,1.5,1.2,2.7,2.6,3.5,4.3,.8,1.7,1.2,3.6,1.2,5.5,0,2.4-.7,4.7-2,6.7-1.7,1.7-3.7,3.2-5.9,4.3v.4c2.7,.8,5.1,2.3,7,4.3,1.9,2.1,2.9,5,2.7,7.8,.1,2.1-.4,4.1-1.6,5.9-1,1.7-2.3,3.2-3.9,4.3-1.8,1.2-3.8,2.1-5.9,2.7-2.1,.5-4.4,.8-6.8,.8" style="fill:#020304;"/><path id="Oranje_-_4" d="M1016.9,1770.1v-11.7h-21.1v-7.8l17.6-29.4h13.7v28.2h5.5v8.6h-5.5v11.7h-10.2v.4Zm-10.2-20.3h10.2v-13.3c0-2,.4-3.9,.4-5.5h-.4c-.8,1.2-1.2,2.7-2,3.9-.8,1.6-1.2,2.7-2,4.3l-6.2,10.6Z" style="fill:#020304;"/><path id="Turqoise_-_2" d="M1339.5,634.7v-6.3c3.1-2.7,5.9-5.5,8.6-8.2s4.7-4.7,6.7-7c1.6-2,3-4.1,4.3-6.3,1-1.7,1.5-3.5,1.6-5.5s-.6-4-2-5.5c-1.3-1.3-3.2-2.1-5.1-2-1.7-.1-3.4,.4-4.7,1.6-1.2,1.2-2.7,2.3-3.9,3.5l-6.3-5.9c2.1-2.4,4.6-4.4,7.4-5.9s5.9-2.2,9-2c2.3,0,4.5,.4,6.7,1.2,1.8,.8,3.5,1.9,5.1,3.1,1.4,1.3,2.5,2.9,3.1,4.7,.8,2,1.2,4.1,1.2,6.3s-.4,4.3-1.2,6.3c-.9,2.2-2.1,4.4-3.5,6.3-1.6,2.2-3.3,4.3-5.1,6.3-2,2-3.9,4.3-5.9,6.3,1.2,0,2.7-.4,3.9-.4h13.7v9.4h-33.6Z" style="fill:#020304;"/><path id="Turqoise_-_3" d="M1439,552.1c-3.5,0-7-.6-10.2-2-2.7-1-5-2.8-6.7-5.1l5.1-7c1.4,1.4,3,2.6,4.7,3.5,1.8,1,3.8,1.5,5.9,1.6s4.1-.4,5.9-1.6c1.4-1,2.2-2.6,2-4.3,.1-.9,0-1.9-.4-2.7-.5-.9-1.2-1.7-2-2.3-1.2-.7-2.6-1.2-3.9-1.6-2.2-.4-4.4-.5-6.7-.4v-7.8c1.8,.1,3.7,0,5.5-.4,1.2-.3,2.4-.7,3.5-1.2,.8-.4,1.5-1.1,2-2,.3-.9,.5-1.8,.4-2.7,.2-1.5-.4-2.9-1.6-3.9s-2.7-1.5-4.3-1.6c-1.6,0-3.2,.4-4.7,1.2-1.5,.9-3,2-4.3,3.1l-5.5-7c2.2-1.8,4.5-3.4,7-4.7,2.6-1.2,5.4-1.7,8.2-1.6,2.2,0,4.5,.3,6.7,.8,1.9,.6,3.6,1.5,5.1,2.7s2.7,2.6,3.5,4.3c.8,1.7,1.2,3.6,1.2,5.5,0,2.4-.7,4.7-2,6.7-1.7,1.7-3.7,3.2-5.9,4.3v.4c2.7,.8,5.1,2.3,7,4.3,1.9,2.1,2.9,5,2.7,7.8,.1,2.1-.4,4.1-1.6,5.9-1,1.7-2.3,3.2-3.9,4.3-1.8,1.2-3.8,2.1-5.9,2.7-2.1,.6-4.4,.9-6.8,.8" style="fill:#020304;"/><path id="Turqoise_-_4" d="M1531.4,462.8v-11.7h-21.1v-7.8l17.6-29.4h13.7v28.1h5.5v8.6h-5.5v11.7h-10.2v.5Zm-10.2-20.4h10.2v-13.3c0-2,.4-3.9,.4-5.5h-.4c-.8,1.2-1.2,2.7-2,3.9-.8,1.6-1.2,2.7-2,4.3l-6.2,10.6Z" style="fill:#020304;"/><path id="Blue_-_2" d="M657.5,633.5v-6.3c3.1-2.7,5.9-5.5,8.6-8.2,2.7-2.7,4.7-4.7,6.7-7,1.6-2,3-4.1,4.3-6.3,1-1.7,1.5-3.5,1.6-5.5s-.6-4-2-5.5c-1.3-1.3-3.2-2.1-5.1-2-1.7-.1-3.4,.4-4.7,1.6-1.2,1.2-2.7,2.3-3.9,3.5l-6.3-5.9c2.1-2.4,4.6-4.4,7.4-5.9,2.8-1.5,5.9-2.2,9-2,2.3,0,4.5,.4,6.7,1.2,1.8,.8,3.5,1.9,5.1,3.1,1.4,1.3,2.5,2.9,3.1,4.7,.8,2,1.2,4.1,1.2,6.3s-.4,4.3-1.2,6.3c-.9,2.2-2.1,4.4-3.5,6.3-1.6,2.2-3.3,4.3-5.1,6.3-2,2-3.9,4.3-5.9,6.3,1.2,0,2.7-.4,3.9-.4h13.7v9.4h-33.6Z" style="fill:#020304;"/><path id="Blue_-_3" d="M583.9,545.4c-3.5,0-7-.6-10.2-2-2.7-1-5-2.8-6.7-5.1l5.1-7c1.4,1.4,3,2.6,4.7,3.5,1.8,1,3.8,1.5,5.9,1.6,2.1,.1,4.1-.4,5.9-1.6,1.4-1,2.2-2.6,2-4.3,.1-.9,0-1.9-.4-2.7-.5-.9-1.2-1.7-2-2.3-1.2-.7-2.6-1.2-3.9-1.6-2.2-.4-4.4-.5-6.7-.4v-7.8c1.8,.1,3.7,0,5.5-.4,1.2-.3,2.4-.7,3.5-1.2,.8-.4,1.5-1.1,2-2,.3-.9,.5-1.8,.4-2.7,.2-1.5-.4-2.9-1.6-3.9-1.2-1-2.7-1.5-4.3-1.6-1.6,0-3.2,.4-4.7,1.2-1.5,.9-3,2-4.3,3.1l-5.5-7c2.2-1.8,4.5-3.4,7-4.7,2.6-1.2,5.4-1.7,8.2-1.6,2.2,0,4.5,.3,6.7,.8,1.9,.6,3.6,1.5,5.1,2.7s2.7,2.6,3.5,4.3c.8,1.7,1.2,3.6,1.2,5.5,0,2.4-.7,4.7-2,6.7-1.7,1.7-3.7,3.2-5.9,4.3v.4c2.7,.8,5.1,2.3,7,4.3,1.9,2.1,2.9,5,2.7,7.8,.1,2.1-.4,4.1-1.6,5.9-1,1.7-2.3,3.2-3.9,4.3-1.8,1.2-3.8,2.1-5.9,2.7-2.1,.5-4.5,.7-6.8,.8" style="fill:#020304;"/><path id="Blue_-_4" d="M499.7,456.1v-11.7h-21.1v-7.8l17.6-29.4h13.7v28.2h5.5v8.6h-5.5v11.7h-10.2v.4Zm-10.2-19.9h10.2v-13.3c0-2,.4-3.9,.4-5.5h-.4c-.8,1.2-1.2,2.7-2,3.9-.8,1.6-1.2,2.7-2,4.3l-6.2,10.6Z" style="fill:#020304;"/><path id="Path_320" d="M334.4,473l-19.6-14.9-5.1,6.7-4.7-3.5,14.1-18.8,4.7,3.5-5.1,6.7,19.6,14.9-3.9,5.4Z" style="fill:#020304;"/><path id="Path_321" d="M352.1,451.4c-.9,1.1-1.9,2-3.1,2.7s-2.5,1.2-3.9,1.2c-1.6,.1-3.2-.1-4.7-.4-1.7-.5-3.3-1.3-4.7-2.3-1.5-1-2.7-2.3-3.5-3.9-.7-1.4-1.2-2.8-1.6-4.3-.1-1.4,.1-2.9,.4-4.3,.4-1.4,1.1-2.7,2-3.9,.9-1.1,1.9-2,3.1-2.7s2.5-1.2,3.9-1.2c1.4-.1,2.9,0,4.3,.4,1.7,.5,3.3,1.3,4.7,2.3,1.5,1,2.7,2.3,3.5,3.9,.7,1.4,1.2,2.8,1.6,4.3,.1,1.4-.1,2.9-.4,4.3,0,1.5-.5,2.9-1.6,3.9m-4.3-3.5c.8-1,1.1-2.3,.8-3.5-.7-1.6-1.7-2.9-3.1-3.9-1.3-1-2.8-1.8-4.3-2.3-1.3,0-2.5,.4-3.5,1.2-.8,1-1.1,2.3-.8,3.5,.7,1.6,1.7,2.9,3.1,3.9,1.3,1,2.8,1.8,4.3,2.3,1.3,.5,2.7,0,3.5-1.2" style="fill:#020304;"/><path id="Path_322" d="M370.1,429.9c-1.1,1.2-2.3,2.2-3.5,3.1-1.3,.8-2.8,1.2-4.3,1.2-1.5,.2-3-.1-4.3-.8-1.6-.5-3.1-1.5-4.3-2.7-1.4-1-2.4-2.4-3.1-3.9-.8-1.3-1.2-2.8-1.2-4.3-.1-1.4,.1-2.9,.4-4.3,.4-1.3,1.1-2.5,2-3.5,1.1-1,2.3-2,3.5-2.7,1.2-.5,2.6-.8,3.9-.8,1.3,.1,2.7,.3,3.9,.8,1.3,.6,2.4,1.4,3.5,2.3l1.2,1.2,.8,.8-9,10.6c1.3,.8,2.8,1.1,4.3,.8,1.3-.5,2.5-1.3,3.5-2.3,1.3-1.2,2-2.9,2-4.7l4.7,.8c0,1.5-.4,3-1.2,4.3-.6,1.4-1.6,2.9-2.8,4.1m-14.1-5.9l5.5-6.3c-1-.7-2-1.2-3.1-1.6-1.1-.1-2.2,.6-2.7,1.6-.7,.7-1.1,1.7-1.2,2.7-.2,1.5,.4,2.8,1.5,3.6" style="fill:#020304;"/><path id="Path_323" d="M386.5,411.9c-1.4,1.9-3.5,3.1-5.9,3.1-1.1-.1-2.1-.3-3.1-.8-1.1-.5-2.2-1.2-3.1-2l-7-6.2-2,2.3-3.9-3.5,2.3-2.7-3.9-4.7,3.9-4.3,4.7,4.3,3.5-3.9,3.9,3.5-3.5,3.9,6.7,6.3c.7,.7,1.7,1.1,2.7,1.2,.8,0,1.6-.4,2-1.2l.8-.8c.3-.3,.4-.7,.4-1.2l4.3,2.7c-.5,.6-.9,1.3-1.2,2-.4,.8-1.2,1.2-1.6,2" style="fill:#020304;"/><path id="Path_324" d="M398.3,399c-1.1,1.1-2.5,2.1-3.9,2.7-1.5,.7-3.1,1.2-4.7,1.6l-.8-5.1c1.2-.4,2.3-.4,3.5-.8,.8-.4,2-.8,2.3-1.6,.6-.5,1-1.2,1.2-2,.1-.6-.1-1.1-.4-1.6-.7-.5-1.7-.5-2.3,0-.6,.1-1.1,.4-1.6,.8-.4,.4-1.2,.4-1.6,.8-.7,.4-1.5,.7-2.3,.8-1.5,.5-3.2,.5-4.7,0l-2.3-1.2c-.7-.7-1.2-1.5-1.6-2.3-.3-.9-.5-1.8-.4-2.7,.1-1.1,.4-2.1,.8-3.1,.5-1.1,1.2-2.2,2-3.1,1-1.3,2.4-2.2,3.9-2.7,1.2-.4,2.7-.8,3.9-1.2l.8,5.1c-1,0-1.9,.3-2.7,.8-.8,.3-1.5,.8-2,1.6-1.2,1.2-1.2,2.3-.4,3.1q.4,.4,.8,.4c.4,.1,.9-.1,1.2-.4,.4,0,.8-.4,1.6-.8,.4-.4,1.2-.4,1.6-.8,.7-.4,1.5-.7,2.3-.8,1.5-.5,3.2-.5,4.7,0,1.8,.7,3.2,2.1,3.9,3.9,.3,.9,.5,1.8,.4,2.7-.1,1.1-.3,2.1-.8,3.1-.6,1.1-1.4,2.1-2.4,2.8" style="fill:#020304;"/><path id="Path_325" d="M419.4,388.4c-3.6-.7-7-2-10.2-3.9s-6.3-4.1-9-6.7-4.9-5.7-6.7-9c-1.7-3.2-3-6.6-3.9-10.2l4.3-2c.8,3.3,2.1,6.5,3.9,9.4,1.9,2.8,4,5.4,6.3,7.8,2.4,2.3,5.1,4.4,7.8,6.3,2.8,1.9,6,3.3,9.4,3.9l-1.9,4.4Z" style="fill:#020304;"/><path id="Path_326" d="M428.4,368.8c-.8,.9-1.9,1.6-3.1,2-1,.3-2.1,.5-3.1,.4-1.1,0-2.2-.4-3.1-1.2-1.1-.5-2-1.4-2.7-2.3l-6.7-6.7-2.3,2.3-3.5-3.5,2.3-2.7-3.9-5.1,3.9-3.9,4.3,4.3,3.9-3.9,3.9,3.9-3.9,3.9,6.7,6.7c.7,.8,1.7,1.4,2.7,1.6,.7,0,1.4-.3,2-.8l.8-.8c.2-.2,.4-.5,.4-.8l4.3,2.7c-.5,.6-.9,1.3-1.2,2-.1,.4-.9,1.2-1.7,1.9" style="fill:#020304;"/><path id="Path_327" d="M440.2,357.9c-.7,.7-1.5,1.2-2.3,1.6-.9,.3-1.8,.5-2.7,.4-.8-.1-1.6-.3-2.3-.8-.9-.4-1.7-.9-2.3-1.6-1.5-1.7-2-4-1.6-6.3,1.2-3.2,3.1-6.1,5.5-8.6-.6-.7-1.4-1.1-2.3-1.2-1,.1-2,.5-2.7,1.2-.8,.8-1.2,1.6-2,2.3-.5,1-.8,2.1-1.2,3.1l-4.7-1.6c.5-1.6,1.1-3.2,2-4.7,.8-1.5,1.9-2.8,3.1-3.9,1.8-1.7,4.2-2.7,6.7-2.7,2.9,.4,5.4,1.9,7,4.3l9,9.8-4.3,3.9-2-1.6c-.1,1.2-.3,2.4-.8,3.5-.6,1.2-1.3,2.1-2.1,2.9m-2-5.5c.4-.4,.8-1.2,1.2-1.6,0-.8,.4-1.6,.4-2.3l-2.7-3.1c-1.1,1.3-2,2.8-2.7,4.3-.3,.9-.1,1.9,.4,2.7,.4,.4,1,.7,1.6,.8,.6,0,1.4,0,1.8-.8" style="fill:#020304;"/><path id="Path_328" d="M455.4,343.8l-21.1-24.7,5.1-4.3,12.1,14.1-.4-11.7,5.5-4.7v12.5l15.3,4.7-5.5,4.7-9.8-3.5v4.3l3.5,4.3-4.7,4.3Z" style="fill:#020304;"/><path id="Path_329" d="M484.4,330.1l-4.3,1.2c-.4-3.4-1.5-6.7-3.1-9.8-1.5-3.1-3.3-6-5.5-8.6-1.9-2.7-4.3-5.1-7.1-7.1-2.7-2.2-5.8-3.9-9-5.1l2.3-3.9c3.4,1.2,6.7,2.7,9.8,4.7,3.2,2.1,6,4.7,8.2,7.8,2.6,2.8,4.6,6.2,5.9,9.8,1.2,3.9,2,7.4,2.8,11" style="fill:#020304;"/><path id="Path_330" d="M498.9,308.9c-1.2,1-2.7,1.7-4.3,2-1.4,.3-2.9,.5-4.3,.4-1.5-.2-3-.7-4.3-1.6-1.5-.9-2.8-2.1-3.9-3.5s-1.9-3-2.3-4.7c-.3-1.5-.5-3.1-.4-4.7,.2-1.4,.6-2.7,1.2-3.9,.7-1.2,1.6-2.3,2.7-3.1,1.1-1,2.5-1.6,3.9-2,1.3-.4,2.6-.4,3.9,0,1.2,.4,2.4,.9,3.5,1.6,1.2,.8,2.3,1.9,3.1,3.1,.5,.4,.9,1,1.2,1.6,.4,.4,.4,.8,.8,1.2l-11,8.2c2.2,2.1,5.6,2.1,7.8,0,1.3-1.2,2.4-2.7,3.1-4.3l4.3,2c-.5,1.4-1.2,2.7-2,3.9-.6,1.4-1.7,2.8-3,3.8m-12.9-8.6l6.7-5.1c-.6-1-1.6-1.7-2.7-2s-2.3,0-3.1,.8c-.9,.7-1.4,1.6-1.6,2.7-.2,1.3,0,2.6,.7,3.6" style="fill:#020304;"/><path id="Path_331" d="M511,298.7l-13.3-18.7,4.7-3.1,2,2c.4-1.2,.8-2.7,1.2-3.9,.6-1.3,1.5-2.4,2.7-3.1,1.6-1.5,3.9-1.9,5.9-1.2,2.2,1.1,4.1,2.7,5.5,4.7l8.2,11.7-5.5,3.9-7.8-11c-.8-1.2-2-2.3-2.7-2.3-.8-.3-1.7-.1-2.3,.4-.7,.5-1.3,1.2-1.6,2-.4,.8-.4,1.6-.8,2.3l9,12.5-5.2,3.8Z" style="fill:#020304;"/><path id="Path_332" d="M1474.6,271.3l13.3-20.4-7-4.7,3.1-4.7,19.6,12.9-3.1,4.7-7-4.7-13.3,20.4-5.6-3.5Z" style="fill:#020304;"/><path id="Path_333" d="M1497.7,287.4c-1.2-.8-2.3-1.9-3.1-3.1-.7-1.2-1.2-2.5-1.6-3.9-.4-1.5-.4-3.2,0-4.7,.5-1.7,1.3-3.3,2.3-4.7,1-1.4,2.2-2.6,3.5-3.5s2.8-1.5,4.3-1.6c1.4-.4,2.9-.4,4.3,0,1.4,.3,2.7,.8,3.9,1.6,1.2,.8,2.3,1.9,3.1,3.1,.8,1.2,1.3,2.5,1.6,3.9,.4,1.5,.4,3.2,0,4.7-.5,1.7-1.3,3.3-2.3,4.7-1,1.4-2.2,2.6-3.5,3.5s-2.8,1.5-4.3,1.6c-1.4,.4-2.9,.4-4.3,0-1.4-.3-2.7-.9-3.9-1.6m3.1-4.7c1,.7,2.4,.8,3.5,.4,1.4-.7,2.7-1.8,3.5-3.1,1.1-1.3,1.8-3,2-4.7,.1-1.2-.5-2.4-1.6-3.1-1-.7-2.4-.8-3.5-.4-1.4,.7-2.7,1.8-3.5,3.1-1.1,1.3-1.8,3-2,4.7-.2,1.2,.5,2.5,1.6,3.1" style="fill:#020304;"/><path id="Path_334" d="M1520.4,303.8c-1.2-1-2.3-2.2-3.1-3.5-.8-1.3-1.3-2.8-1.6-4.3-.3-1.6-.1-3.2,.4-4.7,.5-1.7,1.3-3.3,2.3-4.7,1-1.5,2.3-2.7,3.9-3.5,1.4-.7,2.8-1.2,4.3-1.6,1.4-.2,2.9-.2,4.3,0,1.4,.3,2.7,.8,3.9,1.6,1.2,.8,2.3,1.9,3.1,3.1,.7,1,1.1,2.3,1.2,3.5,.1,1.4-.2,2.7-.8,3.9-.5,1.4-1.2,2.7-2,3.9l-1.2,1.2-.8,.8-11-8.2c-.7,1.3-.8,2.9-.4,4.3,.3,1.3,1.2,2.5,2.3,3.1,1.3,1.1,3,1.6,4.7,1.6l-.8,4.7c-1.5-.1-2.9-.3-4.3-.8-1.2,1-3.1,.8-4.4-.4m4.7-14.5l6.7,5.1c.7-.9,1.1-2,1.2-3.1s-.6-2.2-1.6-2.7c-.8-.6-1.8-.9-2.7-.8-1.6-.4-2.4,.4-3.6,1.5" style="fill:#020304;"/><path id="Path_335" d="M1539.6,318.7c-1.9-1.4-3.1-3.5-3.1-5.9-.1-1.1,.2-2.2,.8-3.1,.8-1.2,1.2-2,2-3.1l5.9-7.4-2.3-2,3.1-3.9,3.1,2,4.3-4.3,4.3,3.5-3.9,4.7,4.3,3.5-3.1,4.3-4.3-3.5-5.9,7.4c-.7,.8-1.1,1.7-1.2,2.7,0,.8,.4,1.6,1.2,2,.4,.4,.8,.4,.8,.8,.4,0,.8,.4,1.2,.4l-2.3,4.7c-.8-.4-1.2-.4-2-.8-1.1-.6-2.1-1.3-2.9-2" style="fill:#020304;"/><path id="Path_336" d="M1552.9,329.7c-1.2-1-2.3-2.2-3.1-3.5-.8-1.3-1.3-2.8-1.6-4.3l5.1-1.2c.3,1.1,.7,2.1,1.2,3.1,.5,.9,1.2,1.7,2,2.3,.5,.6,1.2,1,2,1.2,.6,.1,1.3-.2,1.6-.8,.5-.7,.5-1.7,0-2.3-.4-.4-.4-.8-.8-1.6-.4-.4-.7-1-.8-1.6-.3-.7-.7-1.4-1.2-2-.4-.8-.4-1.6-.8-2.3v-2.3c.1-.9,.5-1.8,1.2-2.3,.7-.8,1.5-1.4,2.3-2,.9-.4,1.8-.7,2.7-.8,1.1,.1,2.1,.3,3.1,.8,1.1,.5,2.2,1.2,3.1,2,1.2,1.1,2.2,2.3,3.1,3.5,.7,1.2,1.2,2.5,1.6,3.9l-5.1,1.2c-.2-.9-.5-1.8-.8-2.7-.3-.8-.8-1.5-1.6-2-1.2-1.2-2.3-1.2-3.1-.4-.2,.2-.4,.5-.4,.8-.1,.4,.1,.9,.4,1.2,0,.4,.4,.8,.8,1.6,.4,.4,.7,1,.8,1.6,.3,.7,.7,1.4,1.2,2,.4,.8,.4,1.6,.8,2.3v2.3c0,.8-.8,1.6-1.2,2.3-.6,.9-1.4,1.5-2.3,2-.9,.4-1.8,.7-2.7,.8-1.1-.1-2.1-.3-3.1-.8-1.6-.6-3-1.2-4.4-2" style="fill:#020304;"/><path id="Path_337" d="M1560,345.7l20.8-23.9,4.3,3.5-1.2,2c1.2-.1,2.4,.1,3.5,.4s2.2,.8,3.1,1.6c1.1,.8,1.9,1.9,2.3,3.1,.5,1.1,.7,2.3,.4,3.5,0,1.4-.4,2.7-1.2,3.9-.8,1.4-1.7,2.7-2.7,3.9-1.1,1.4-2.4,2.6-3.9,3.5-1.4,.7-2.8,1.2-4.3,1.6-1.3,.3-2.7,.1-3.9-.4-1.1-.3-2.2-.8-3.1-1.6-.7-.7-1.2-1.5-1.6-2.3-.5-1-.8-2-.8-3.1l-2.3,2.7-4.3,5.1-5.1-3.5Zm16.8-3.1c.8,.8,2,1.1,3.1,.8,1.7-.6,3.2-1.7,4.3-3.1,2.7-3.1,3.1-5.5,1.2-7.4-1.3-.8-2.8-1.3-4.3-1.2l-6.3,7c0,.7,.3,1.4,.8,2,.3,.7,.7,1.3,1.2,1.9" style="fill:#020304;"/><path id="Path_338" d="M1587,358.7l15.7-16.8,3.9,3.9-2.3,3.1c1.5-.5,3.1-.7,4.7-.4,1.2,.4,2.4,.9,3.5,1.6l1.2,1.2c.4,.4,.4,.8,.8,1.2l-4.7,3.5c-.4-.4-.4-.8-.8-1.2-.4-.4-.4-.8-.8-.8-.8-.8-1.6-.8-2.7-1.2-1.4-.1-2.7,.2-3.9,.8l-9,9.8-5.6-4.7Z" style="fill:#020304;"/><path id="Path_339" d="M1608.5,379.4c-1-1-1.8-2.2-2.3-3.5-.7-1.3-.9-2.8-.8-4.3s.3-2.9,.8-4.3c1.6-3.2,4.2-5.8,7.4-7.4,1.4-.6,2.8-.9,4.3-.8s2.9,.3,4.3,.8c2.7,1.1,4.8,3.2,5.9,5.9,1,2.8,1,5.8,0,8.6-.6,1.7-1.7,3.2-3.1,4.3-1.3,1.3-2.7,2.3-4.3,3.1-1.4,.6-2.8,.9-4.3,.8s-2.9-.4-4.3-.8c-1.5-.4-2.8-1.2-3.6-2.4m3.9-3.9c1,.8,2.3,1.1,3.5,.8,1.6-.6,3.1-1.5,4.3-2.7,1.3-1.1,2.3-2.6,2.7-4.3,.4-1.3-.1-2.7-1.2-3.5-.9-1-2.3-1.3-3.5-.8-1.6,.5-2.9,1.4-3.9,2.7-1.3,1.1-2.3,2.6-2.7,4.3-.4,1.5-.4,2.7,.8,3.5" style="fill:#020304;"/><path id="Path_340" d="M1619.9,404.5c-.8-1.2-1.6-2-2.3-3.1-.7-.9-1.1-2-1.2-3.1-.4-.9-.4-1.9,0-2.7,.4-.9,.9-1.7,1.6-2.3,1.5-1.3,3.7-1.6,5.5-.8v-2.5c.1-.8,.6-1.5,1.2-2,.7-.5,1.5-.9,2.3-1.2h2.7c0-1.1,.1-2.1,.4-3.1,.3-1.2,1-2.4,2-3.1,1-.8,2-1.5,3.1-2,1.1-.3,2.3-.5,3.5-.4,1.2,0,2.3,.4,3.1,1.2,1.1,.6,2,1.4,2.7,2.3,.8,1,1.5,2,2,3.1l5.9,6.3-3.5,3.5-2.3-2.7c0,.4-.4,.8-.4,1.2l-1.2,1.2c-.9,.9-2,1.5-3.1,2-1,.3-2.1,.5-3.1,.4-1.1,0-2.2-.4-3.1-1.2-1.1-.5-2-1.4-2.7-2.3-.7-.7-1.2-1.5-1.6-2.3h-1.2c-.4,0-.4,.4-.8,.4-.4,.4-.4,.8-.4,1.6s.8,1.2,1.6,2.3l2.7,2.7c1.6,1.5,2.8,3.4,3.5,5.5,.4,1.7-.2,3.6-1.6,4.7-.8,.9-1.9,1.5-3.1,1.6-1.1,.4-2.4,.4-3.5,0-1.4-.4-2.7-.9-3.9-1.6-2-.9-3.6-2.1-4.8-3.6m3.9-2.4c.8,1,1.9,1.8,3.1,2.3,1.2,.4,2,.4,2.3-.4,.4-.4,.8-1.2,.4-1.6-.5-.8-1-1.6-1.6-2.3l-1.6-1.6c-.4-.4-1.2-1.2-1.2-1.6-.4-.4-.4-.8-.8-1.2-1.2,0-2,0-2.3,.8-.7,.6-.9,1.6-.4,2.3,.4,1.4,1.1,2.5,2.1,3.3m12.1-11.7c.8,.8,1.2,.8,2.3,.8,1,0,2-.4,2.7-1.2,.7-.8,1.3-1.7,1.6-2.7-.1-.8-.3-1.6-.8-2.3-.6-.6-1.5-1-2.3-1.2-1.2-.4-1.6,.4-2.7,1.2-.8,.7-1.4,1.7-1.6,2.7-.3,.9,0,2,.8,2.7" style="fill:#020304;"/><path id="Path_341" d="M1639.8,411.5l17.2-15.3,3.9,4.3-2.7,3.1c1.5-.4,3.2-.4,4.7,0,1.2,.4,2.2,1.1,3.1,2l1.2,1.2c.3,.3,.4,.7,.4,1.2l-5.1,3.1c-.4-.4-.4-.8-.8-1.2-.4-.4-.4-.8-.8-1.2-.4-.8-1.6-1.2-2.3-1.6-1.3-.2-2.7-.1-3.9,.4l-9.8,9-5.1-5Z" style="fill:#020304;"/><path id="Path_342" d="M1656.3,430.7c-.7-.7-1.2-1.5-1.6-2.3-.3-.9-.5-1.8-.4-2.7,.1-.8,.3-1.6,.8-2.3,.4-.7,.9-1.4,1.6-2,1.7-1.5,4.1-2,6.3-1.2,3.2,1.4,6.1,3.4,8.6,5.9,.7-.6,1.1-1.4,1.2-2.3-.1-1-.5-2-1.2-2.7-.7-.8-1.5-1.4-2.3-2-1.1-.4-2.1-1-3.1-1.6l2-4.7c1.6,.5,3.2,1.1,4.7,2,1.6,.8,2.9,2.1,3.9,3.5,1.7,1.8,2.6,4.2,2.3,6.7-.5,2.8-2.1,5.3-4.3,7l-10.2,8.6-3.5-4.3,1.6-2c-1.3,0-2.5-.4-3.5-1.2-1.2-.8-2.1-1.6-2.9-2.4m5.5-2c.4,.4,1.2,.8,1.6,1.2,.7,.4,1.5,.5,2.3,.4l3.1-2.7c-2-1.6-3.1-2.7-4.3-2.7-.9-.3-1.9-.1-2.7,.4-.4,.4-.7,1-.8,1.6,0,.6,0,1.4,.8,1.8" style="fill:#020304;"/><path id="Path_343" d="M1670,446l18-14.1,3.5,4.3-2,2.3c1.3,.1,2.7,.3,3.9,.8,1.3,.4,2.4,1.2,3.1,2.3,1.1,1,1.6,2.4,1.6,3.9,.1,1.2-.2,2.5-.8,3.5,1.5,.1,2.9,.3,4.3,.8,1.3,.5,2.5,1.3,3.5,2.3,1.4,1.6,2,3.8,1.6,5.9-.7,2.3-2.2,4.3-4.3,5.5l-11.4,9-4.3-5.5,10.6-8.2c.9-.8,1.7-1.7,2.3-2.7,.4-.8,0-1.6-.8-2.3-1.1-1.1-2.7-1.7-4.3-1.6l-12.1,9.8-4.3-5.5,10.6-8.2c.9-.8,1.7-1.7,2.3-2.7,.4-.8,0-1.6-.8-2.3-1.1-1.1-2.7-1.7-4.3-1.6l-12.1,9.8-3.8-5.5Z" style="fill:#020304;"/><path id="Path_344" d="M1695.8,478.9l18.8-13.3,3.1,4.7-2,2c1.4,.2,2.7,.6,3.9,1.2,1.4,.4,2.5,1.4,3.1,2.7,.9,1.1,1.4,2.5,1.6,3.9-.1,1.2-.3,2.4-.8,3.5,1.4,.2,2.7,.6,3.9,1.2,1.4,.4,2.5,1.4,3.1,2.7,1.5,1.6,1.9,3.9,1.2,5.9-1.1,2.2-2.7,4.1-4.7,5.5l-11.7,8.2-3.9-5.5,11-7.8c1.2-.8,2.3-2,2.3-2.3,.3-.8,.1-1.7-.4-2.3-1.1-1-2.4-1.7-3.9-2l-12.5,9-3.9-5.5,11-7.8c1.2-.8,2.3-2,2.3-2.3,.3-.8,.1-1.7-.4-2.3-1.1-1-2.4-1.7-3.9-2l-12.5,9-4.7-6.4Z" style="fill:#020304;"/><path id="Path_345" d="M1722.4,518c-.4-.8-.8-2-1.2-2.7v-2.7c.4-.8,.4-1.6,1.2-2.3,.4-.8,1.2-1.2,2-2,1.9-1.3,4.3-1.4,6.3-.4,3.1,1.6,5.8,3.8,7.8,6.7,.6-.6,1.2-1.2,1.6-2s0-1.6-.8-2.7c-.5-.9-1.2-1.7-2-2.3-1-.7-2-1.4-3.1-2l2.3-4.7c1.6,.7,3,1.6,4.3,2.7,1.3,1.2,2.4,2.5,3.5,3.9,1.6,2,2.2,4.6,1.6,7-.4,2.3-2.3,4.3-5.5,6.3l-11,7-3.1-4.7,1.6-1.6c-1.2-.4-2.4-.9-3.5-1.6-.4,0-1.2-.7-2-1.9m5.5-.8c.3,.7,.9,1.3,1.6,1.6,.4,.4,1.2,.4,2.3,.8l3.5-2.3c-1-1.5-2.3-2.7-3.9-3.5-.9-.4-1.9-.4-2.7,0-.8,.4-.8,.8-1.2,1.6s0,1,.4,1.8" style="fill:#020304;"/><path id="Path_346" d="M1714.2,1525l-20-15.3-5.1,6.7-4.7-3.5,14.5-19.2,4.7,3.5-5.1,6.7,20,15.3-4.3,5.8Z" style="fill:#020304;"/><path id="Path_347" d="M1731.5,1502.7c-.8,1.2-1.9,2.3-3.1,3.1-1.2,.7-2.5,1.2-3.9,1.6-1.6,.3-3.2,.1-4.7-.4-1.7-.5-3.3-1.3-4.7-2.3-1.5-1-2.7-2.3-3.5-3.9-.9-1.3-1.4-2.8-1.6-4.3-.1-1.4,.1-2.9,.4-4.3,.4-1.4,1.1-2.7,2-3.9,.8-1.2,1.9-2.3,3.1-3.1,1.2-.7,2.5-1.2,3.9-1.6,1.6-.3,3.2-.1,4.7,.4,1.7,.5,3.3,1.3,4.7,2.3,1.5,1,2.7,2.3,3.5,3.9,.9,1.3,1.4,2.8,1.6,4.3,.3,1.4,.1,2.9-.4,4.3-.4,1.5-1.1,2.8-2,3.9m-4.3-3.5c.7-1,.8-2.4,.4-3.5-.8-1.5-1.8-2.8-3.1-3.9-1.3-1.1-3-1.8-4.7-2-1.4-.1-2.7,.5-3.5,1.6-.9,1-1.1,2.4-.4,3.5,.8,1.6,2,2.9,3.5,3.9,1.3,1.1,3,1.8,4.7,2,1.2,.4,2.6-.3,3.1-1.6-.1,0,0,0,0,0" style="fill:#020304;"/><path id="Path_348" d="M1748.3,1478.8c-.8,1.3-1.9,2.5-3.1,3.5-1.3,.9-2.8,1.6-4.3,2s-3.2,.4-4.7,0c-1.7-.5-3.3-1.3-4.7-2.3-1.4-1.1-2.7-2.3-3.9-3.5-1-1.2-1.7-2.7-2-4.3-.4-1.4-.4-2.9,0-4.3,.3-1.4,.8-2.7,1.6-3.9,.7-1.3,1.8-2.4,3.1-3.1,1.1-.8,2.5-1.2,3.9-1.2,1.3-.1,2.6,.1,3.9,.4,1.4,.4,2.7,1.1,3.9,2,.4,.4,1.2,.8,1.6,1.2l.8,.8-7.8,11.7c1.3,.7,2.9,.8,4.3,.4s2.5-1.4,3.1-2.7c.9-1.5,1.5-3.3,1.6-5.1l4.7,.4c-.1,1.5-.3,2.9-.8,4.3,0,1.2-.4,2.6-1.2,3.7m-15.3-3.9l4.7-7c-.9-.7-2-1.1-3.1-1.2-1.2,0-2,.8-2.7,2-.7,.9-.9,2-.8,3.1-.1,1.2,.7,2,1.9,3.1" style="fill:#020304;"/><path id="Path_349" d="M1761.6,1458.1c-.6,1.2-1.6,2.1-2.7,2.7-1.2,.4-2,1.2-2.7,1.2-1.1,0-2.1-.1-3.1-.4-1.2-.4-2.4-.9-3.5-1.6l-8.2-5.1-1.6,2.7-4.3-2.7,1.6-3.1-4.7-3.9,3.1-4.7,5.1,3.5,3.1-4.7,4.7,2.7-3.1,4.7,7.8,5.1c1.2,.8,2,1.2,2.7,.8,.9-.1,1.6-.7,2-1.6,.3-.3,.4-.7,.4-1.2,0-.4,.4-.8,.4-1.2l4.7,2c0,.8-.4,1.2-.8,2.3,.3,.9-.1,1.7-.9,2.5" style="fill:#020304;"/><path id="Path_350" d="M1771,1443.2c-.9,1.3-2,2.4-3.1,3.5-1.2,1.2-2.7,2-4.3,2.3l-2-5.1c1.1-.4,2.1-1,3.1-1.6,.8-.8,1.6-1.2,2-2.3,.4-.7,.7-1.5,.8-2.3,0-.4-.4-1.2-.8-1.2-.2-.3-.7-.4-1-.1-.1,0-.1,.1-.1,.1-.4,0-.8,.4-1.2,.4-.4,.4-.8,.4-1.6,.8-.4,.5-1,.9-1.6,1.2-.8,.4-1.2,.8-2,1.2-.7,.4-1.5,.7-2.3,.8-.7,.3-1.5,.5-2.3,.4s-1.6-.3-2.3-.8c-.9-.5-1.7-1.2-2.3-2-.8-.8-.8-1.6-1.2-2.7v-3.1c.4-1.2,.9-2.4,1.6-3.5,.7-1.4,1.8-2.6,3.1-3.5,1.1-.8,2.3-1.5,3.5-2l2,4.7c-1,.3-2,.8-2.7,1.6-.6,.6-1.2,1.2-1.6,2-.8,1.6-.8,2.7,.4,3.1,.2,.3,.7,.4,1,.1,.1,0,.1-.1,.1-.1,.4,0,.8-.4,1.2-.4,.4-.4,.8-.4,1.2-.8,.4-.5,1-.9,1.6-1.2,.7-.4,1.4-.9,2-1.6,.8-.8,1.6-.8,2.3-1.2,.7-.3,1.5-.5,2.3-.4,.9,.1,1.9,.4,2.7,.8,.9,.5,1.7,1.2,2.3,2,.8,.8,.8,2,1.2,2.7v3.5c-.4,1.7-1.1,3.2-2,4.7" style="fill:#020304;"/><path id="Path_351" d="M1785.9,1417.8c-.6,1-1.4,1.8-2.3,2.3-1.1,.8-2.3,1.3-3.5,1.6l2,1.6-2.7,4.7-29-16.1,3.5-6.3,7,3.9,3.1,2c-.3-1.1-.5-2.3-.4-3.5,0-1.1,.3-2.2,.8-3.1,.7-1.2,1.6-2.3,2.7-3.1,1.1-.7,2.3-1.2,3.5-1.6,1.4-.2,2.9-.1,4.3,.4,1.7,.3,3.3,1,4.7,2,1.7,.9,3.1,2.1,4.3,3.5,1.1,1.1,1.9,2.5,2.3,3.9,.4,1.3,.7,2.6,.8,3.9,.1,1.4-.3,2.7-1.1,3.9m-5.9-1.6c.6-1.1,.6-2.4,0-3.5-1-1.5-2.4-2.7-3.9-3.5-3.5-2-6.3-2-7.4,.4-.8,1.5-.8,3.2,0,4.7l8.2,4.7c.7-.3,1.4-.7,2-1.2,.7-.4,1.1-.8,1.1-1.6" style="fill:#020304;"/><path id="Path_352" d="M1799.2,1393.5c-.7,1.5-1.6,2.8-2.7,3.9s-2.4,2-3.9,2.3c-1.5,.5-3.1,.7-4.7,.4-1.8-.2-3.5-.7-5.1-1.6-1.6-.8-3-1.9-4.3-3.1-1.1-1.1-1.9-2.5-2.3-3.9-.5-1.4-.7-2.9-.4-4.3,0-1.4,.4-2.8,1.2-3.9,.6-1.4,1.5-2.6,2.7-3.5,1-.8,2.2-1.4,3.5-1.6,1.3-.4,2.6-.4,3.9,0,1.5,.4,2.9,.9,4.3,1.6,.4,.4,1,.7,1.6,.8,.4,0,.8,.4,1.2,.8l-6.7,12.5c1.4,.4,2.9,.4,4.3,0,1.3-.6,2.3-1.8,2.7-3.1,.9-1.6,1.1-3.4,.8-5.1h4.7v4.3c-.1,1.2-.4,2.3-.8,3.5m-15.7-2.4l3.9-7.4c-.9-.6-2-.9-3.1-.8-1.1,0-2.1,.8-2.3,2-.5,1-.7,2.1-.4,3.1-.1,1.4,.7,2.6,1.9,3.1" style="fill:#020304;"/><path id="Path_353" d="M1809.4,1373.1c-.3,1-1,1.9-2,2.3l-2.3,1.2h-2.7c-1.2,0-2-.8-3.1-1.2l-23.1-11.4,3.1-6.3,23.5,11.7c.5,.3,1,.4,1.6,.4,.3,0,.6-.2,.8-.4v-.8l5.1,1.6c0,.5-.1,1.1-.4,1.6-.2,.6-.3,1-.5,1.3" style="fill:#020304;"/><path id="Path_354" d="M1817.6,1355.1c-.7,1.5-1.6,2.8-2.7,3.9s-2.4,2-3.9,2.3c-1.5,.5-3.1,.7-4.7,.8-1.8,0-3.5-.4-5.1-1.2-1.6-.8-3-1.9-4.3-3.1-1.1-1.1-2-2.4-2.3-3.9-.4-1.4-.7-2.8-.8-4.3,0-1.3,.3-2.7,.8-3.9,.6-1.4,1.5-2.6,2.7-3.5,1.1-.8,2.3-1.5,3.5-2,1.3-.3,2.6-.5,3.9-.4,1.5,.3,2.9,.7,4.3,1.2,.4,.4,1.2,.4,1.6,.8s.8,.4,1.2,.8l-5.9,12.9c1.4,.5,3,.3,4.3-.4,1.2-.8,2.2-1.8,2.7-3.1,.7-1.6,.9-3.4,.8-5.1l4.7-.4c.4,1.4,.4,2.9,0,4.3,.3,1.5,.1,3.1-.8,4.3m-15.7-1.2l3.5-7.8c-1-.5-2.1-.6-3.1-.4-1.2,.2-2.1,1.2-2.3,2.3-.3,1-.5,2.1-.4,3.1,.6,1.1,1.4,2,2.3,2.8" style="fill:#020304;"/><path id="Path_355" d="M1800.4,1326.1c-.3,1-1,1.9-2,2.3-.9,.4-1.9,.4-2.7,0-.9-.3-1.6-1-2-2s-.3-2.2,.4-3.1c.3-1,1-1.9,2-2.3,.9-.4,1.9-.4,2.7,0,.9,.3,1.6,1,2,2,.4,1,.3,2.3-.4,3.1m23.5,14.1l-21.5-9.4,2.7-6.3,21.5,9.4-2.7,6.3Z" style="fill:#020304;"/><path id="Path_356" d="M1833.6,1318.7c-.5,1.3-1.3,2.5-2.3,3.5s-2.2,1.6-3.5,2c-1.4,.3-2.9,.5-4.3,.4-1.8-.1-3.5-.5-5.1-1.2-1.6-.6-3.1-1.5-4.3-2.7-1-1.1-2-2.3-2.7-3.5-.8-1.1-1.2-2.5-1.2-3.9-.1-1.2,.1-2.4,.4-3.5s1-2.1,2-2.7c.9-.6,1.8-1.1,2.7-1.6l-3.5-1.2-7.4-3.1,2.7-6.7,30.9,12.5-2,5.1-2.3-.4c.4,1.1,.7,2.3,.8,3.5-.5,1.2-.5,2.3-.9,3.5m-4.7-3.9c.3-.6,.4-1.3,.4-2-.1-.8-.3-1.6-.8-2.3l-9-3.5c-.7,.3-1.4,.7-2,1.2-.4,.4-.8,1.2-1.2,1.6-.5,1-.3,2.2,.4,3.1,1,1.5,2.5,2.6,4.3,3.1,1.6,.8,3.4,1,5.1,.8,1.3-.1,2.4-.9,2.8-2" style="fill:#020304;"/><path id="Path_357" d="M841.9,1852.4l5.1-23.9-8.2-1.6,1.2-5.5,23.1,5.1-1.2,5.5-8.2-1.6-5.1,23.9-6.7-1.9Z" style="fill:#020304;"/><path id="Path_358" d="M868.9,1858.2c-1.4-.3-2.7-.8-3.9-1.6-1.2-.8-2.3-1.9-3.1-3.1-.9-1.3-1.5-2.8-1.6-4.3-.4-1.7-.4-3.4,0-5.1,.2-1.7,.9-3.4,2-4.7,.8-1.2,1.9-2.3,3.1-3.1,1.2-.8,2.5-1.3,3.9-1.6,1.4-.4,2.9-.4,4.3,0,1.4,.3,2.7,.8,3.9,1.6,1.2,.8,2.3,1.9,3.1,3.1,.9,1.3,1.5,2.8,1.6,4.3,.4,1.7,.4,3.4,0,5.1-.2,1.7-.9,3.4-2,4.7-.8,1.2-1.9,2.3-3.1,3.1-1.2,.8-2.5,1.3-3.9,1.6-1.4,.4-2.9,.4-4.3,0m1.2-5.1c1.3,.4,2.7-.1,3.5-1.2,1-1.4,1.7-3,2-4.7,.4-1.5,.4-3.2,0-4.7-.5-1.2-1.5-2-2.7-2.3-1.3-.5-2.8,0-3.5,1.2-1,1.4-1.7,3-2,4.7-.4,1.5-.4,3.2,0,4.7,.3,1.2,1.4,2.1,2.7,2.3" style="fill:#020304;"/><path id="Path_359" d="M897.1,1862.9c-1.5-.3-3-.8-4.3-1.6-1.2-.7-2.3-1.6-3.1-2.7-.9-1.3-1.6-2.8-2-4.3-.4-1.7-.4-3.4,0-5.1,.2-1.7,.8-3.2,1.6-4.7,.8-1.3,1.9-2.5,3.1-3.5,1.2-.9,2.5-1.6,3.9-2,1.4-.3,2.9-.5,4.3-.4,1.5,.3,3,.8,4.3,1.6,1.1,.7,2,1.6,2.7,2.7,.8,1.1,1.2,2.5,1.2,3.9v4.3c0,.8-.4,1.2-.4,1.6s-.4,.8-.4,1.2l-13.7-2c-.2,1.5,.4,2.9,1.6,3.9,1,.9,2.2,1.6,3.5,2,1.7,.3,3.5,0,5.1-.8l1.6,4.3c-1.3,.8-2.8,1.2-4.3,1.2-1.5,.7-3.2,.9-4.7,.4m-2.7-14.8l8.2,1.2c.3-1.1,.1-2.2-.4-3.1-.6-1-1.6-1.5-2.7-1.6-1.1-.1-2.2,.2-3.1,.8-.9-.1-1.7,1.1-2,2.7" style="fill:#020304;"/><path id="Path_360" d="M921,1866.5c-1.3,.1-2.6-.3-3.5-1.2-.9-.5-1.7-1.2-2.3-2-.5-1-.8-2.1-1.2-3.1v-3.5l1.2-9.4-3.1-.4,.8-5.1h3.5l1.6-5.9,5.5,.8-.8,6.3,5.5,.8-.8,5.5-5.5-.8-1.2,9c0,1.2,0,2.3,.4,2.7,.4,.7,1.1,1.2,2,1.2h2.3l.4,5.1c-.8,0-1.6,.4-2.3,.4-.2-.4-1.3-.4-2.5-.4" style="fill:#020304;"/><path id="Path_361" d="M938.2,1868.4c-1.6-.2-3.2-.6-4.7-1.2-1.5-.7-2.8-1.6-3.9-2.7l3.5-3.9c.8,.8,1.7,1.4,2.7,2,.9,.4,1.8,.7,2.7,.8,1.2,0,2,0,2.3-.4,.4-.4,.8-.8,.8-1.2,.1-.4-.1-.9-.4-1.2-.4-.4-.4-.8-.8-.8s-.8-.4-1.6-.8c-.4-.4-1.2-.4-1.6-.8-.8-.4-1.2-.8-2-1.2-.7-.4-1.4-.9-2-1.6-.4-.8-.8-1.2-1.2-2-.3-.9-.5-1.8-.4-2.7,0-1,.3-1.9,.8-2.7,.4-.8,1.1-1.5,2-2,.8-.4,2-.8,2.7-1.2,1.1-.4,2.4-.4,3.5,0,1.7,.2,3.3,.7,4.7,1.6,1.1,.7,2.2,1.5,3.1,2.3l-3.5,3.9c-.7-.7-1.5-1.2-2.3-1.6-.7-.4-1.5-.7-2.3-.8-1.6,0-2.7,.4-2.7,1.6-.1,.4,.1,.9,.4,1.2l.8,.8c.4,.4,.8,.4,1.2,.8s1.2,.4,1.6,.8c.7,.3,1.4,.7,2,1.2,.7,.4,1.4,.9,2,1.6,.5,.6,.9,1.2,1.2,2,.3,.9,.5,1.8,.4,2.7,0,1-.3,1.9-.8,2.7-.4,.8-1.1,1.5-2,2-.9,.6-2,1-3.1,1.2,0-.4-1.5-.4-3.1-.4" style="fill:#020304;"/><path id="Path_362" d="M964,1870.8c-1.5,0-3-.4-4.3-1.2-1.3-.8-2.4-1.7-3.5-2.7-.9-1.3-1.7-2.6-2.3-3.9-.8-3.4-.5-6.9,.8-10.2,.6-1.4,1.5-2.6,2.7-3.5s2.5-1.6,3.9-2c1.4-.5,2.9-.7,4.3-.4,1.5,0,3,.4,4.3,1.2,1.3,.8,2.4,1.7,3.5,2.7,.9,1.3,1.7,2.6,2.3,3.9,.8,3.4,.5,6.9-.8,10.2-.6,1.4-1.5,2.6-2.7,3.5s-2.5,1.6-3.9,2c-1.4,.3-2.8,.4-4.3,.4m.4-5.5c1.3,.2,2.5-.5,3.1-1.6,.8-1.5,1.3-3,1.6-4.7,.2-1.6-.1-3.2-.8-4.7-.6-1.2-1.8-2-3.1-2-1.3-.2-2.5,.5-3.1,1.6-.8,1.5-1.3,3-1.6,4.7-.2,1.6,.1,3.2,.8,4.7,.7,1.1,1.8,1.8,3.1,2" style="fill:#020304;"/><path id="Path_363" d="M982.1,1871.2l1.2-23.1,5.5,.4,.4,3.9c.7-1.4,1.8-2.6,3.1-3.5,1-.8,2.3-1.1,3.5-.8h1.6c.4,0,.8,.4,1.2,.4l-1.6,5.9c-.4,0-.8-.4-1.2-.4h-1.2c-1,.1-1.9,.3-2.7,.8-1.2,.7-2,1.8-2.3,3.1l-.8,13.3h-6.7Z" style="fill:#020304;"/><path id="Path_364" d="M1011,1882.1c-1.3,.1-2.6-.1-3.9-.4-1.2-.4-2.3-.4-3.1-1.2-.8-.4-1.5-1.1-2-2-.5-.8-.8-1.8-.8-2.7,.1-2,1.3-3.8,3.1-4.7-.7-.3-1.3-.9-1.6-1.6-1-1.4-1-3.3,0-4.7,.4-.8,1.1-1.5,2-2-.9-.5-1.6-1.3-2-2.3-.4-1.1-.7-2.3-.8-3.5,0-1.2,.3-2.4,.8-3.5,.4-1.1,1.1-2,2-2.7,.9-.8,2-1.3,3.1-1.6,1.1-.3,2.3-.5,3.5-.4,1.2-.1,2.4,0,3.5,.4h8.2v5.1h-3.5c.3,.3,.4,.7,.4,1.2,0,.4,.4,1.2,.4,1.6-.1,1.2-.3,2.4-.8,3.5-.4,.9-1.1,1.8-2,2.3-.8,.7-1.7,1.2-2.7,1.6-1.1,.3-2.3,.5-3.5,.4-.9,.1-1.9-.1-2.7-.4l-.8,.8v.8c0,.8,.4,1.2,.8,1.2,.4,.4,1.6,.4,2.7,.4h3.5c2.3-.2,4.7,.4,6.7,1.6,1.6,.8,2.5,2.5,2.3,4.3,0,1.1-.3,2.2-.8,3.1-.7,1.1-1.6,2-2.7,2.7-1.2,.8-2.5,1.3-3.9,1.6-1.6,.9-3.5,1.3-5.4,1.1m1.2-4.3c1.3,0,2.7-.3,3.9-.8,.9-.2,1.6-1,1.6-2,0-.6-.3-1.2-.8-1.6-.4-.4-1.6-.4-2.7-.4h-4.3c-.4,.1-.9-.1-1.2-.4-.7,.6-1.1,1.4-1.2,2.3,0,.9,.6,1.8,1.6,2,.3,.9,1.5,.9,3.1,.9m-.8-16.8c.8-.1,1.6-.3,2.3-.8,.7-.7,1-1.8,.8-2.7,0-1-.3-1.9-.8-2.7-.8-.8-1.2-.8-2.3-.8-.8,.1-1.6,.3-2.3,.8-.7,.7-1,1.8-.8,2.7,0,1,.2,1.9,.8,2.7,.7,.4,1.5,.7,2.3,.8" style="fill:#020304;"/><path id="Path_365" d="M1034.9,1873.1c-.9,.1-1.9,0-2.7-.4-.9-.4-1.7-.9-2.3-1.6-.7-.6-1.3-1.4-1.6-2.3-.3-.9-.5-1.8-.4-2.7-.1-2.4,1.1-4.6,3.1-5.9,3-1.8,6.3-2.7,9.8-2.7,.1-.9-.2-1.7-.8-2.3-.4-.8-1.6-.8-2.7-.8-1.1,.1-2.1,.3-3.1,.8-1.1,.4-2.1,1-3.1,1.6l-2.3-4.3,4.7-2.3c1.7-.5,3.4-.7,5.1-.8,2.5-.2,4.9,.7,6.7,2.3,1.8,2.2,2.6,5,2.3,7.8v13.3h-5.5l-.4-2.3c-1,.8-2,1.5-3.1,2-1.3,.3-2.5,.6-3.7,.6m2.4-5.4c.7,.1,1.4,0,2-.4,.4-.4,1.2-.8,1.6-1.6v-3.9c-1.8,.2-3.5,.7-5.1,1.6-.8,.8-1.6,1.6-1.2,2.3,0,.6,.3,1.2,.8,1.6,.5,.3,1.2,.5,1.9,.4" style="fill:#020304;"/><path id="Path_366" d="M1055.7,1872.3l-.8-23.1,5.5-.4,.8,2.7c1-1,2-1.9,3.1-2.7,3-1.9,7-1.4,9.4,1.2,1.3,2,2,4.3,2,6.7l.8,14.1-6.7,.4-.4-13.3c0-1.2-.3-2.4-.8-3.5-.4-.8-1.2-.8-2.3-.8-.8,.1-1.6,.3-2.3,.8-.8,.4-1.2,1.2-2,1.6l.8,15.7-7.1,.6Z" style="fill:#020304;"/><path id="Path_367" d="M1085.8,1844.1c-1,.2-2-.1-2.7-.8-.7-.6-1.1-1.4-1.2-2.3,0-1,.3-1.9,.8-2.7,.7-.8,1.7-1.2,2.7-1.2,1-.2,2,.1,2.7,.8,.7,.6,1.1,1.4,1.2,2.3,0,1-.3,1.9-.8,2.7-.6,.8-1.7,1.3-2.7,1.2m-1.6,26.7l-1.6-23.1,6.7-.4,1.6,23.1-6.7,.4Z" style="fill:#020304;"/><path id="Path_368" d="M1105.8,1869.6c-1.6,.1-3.2-.1-4.7-.4-1.5-.4-3-1.1-4.3-2l2.7-4.7c1,.6,2,1.1,3.1,1.6,1,.3,2.1,.5,3.1,.4,.8,0,1.7-.3,2.3-.8,.8-.4,.8-.8,.4-1.6,0-.4,0-.8-.4-.8-.4-.4-.8-.4-1.2-.8-.5-.3-1-.4-1.6-.4-.6-.2-1.3-.3-2-.4-.8-.4-1.6-.4-2.3-.8-.7-.3-1.4-.7-2-1.2-.7-.5-1.3-1.2-1.6-2-.4-.7-.7-1.5-.8-2.3-.1-1.1,.1-2.1,.4-3.1,.4-.9,.9-1.7,1.6-2.3,.8-.7,1.7-1.3,2.7-1.6,1.1-.4,2.3-.7,3.5-.8,1.6-.1,3.2,.1,4.7,.4,1.2,.4,2.4,.9,3.5,1.6l-2.7,4.3c-.9-.5-1.8-.9-2.7-1.2-.7-.3-1.5-.4-2.3-.4-1.6,0-2.3,.8-2.3,2,0,.4,0,.8,.4,.8,.4,.4,.8,.4,1.2,.8,.4,0,.8,.4,1.6,.4s1.2,.4,1.6,.4c.8,.4,1.6,.4,2.3,.8,.7,.3,1.4,.7,2,1.2,.7,.5,1.3,1.2,1.6,2,.5,.8,.8,1.8,.8,2.7,.1,1.1-.1,2.1-.4,3.1-.2,1-.7,1.8-1.6,2.3-.8,.7-1.8,1.4-2.7,2-1.3,.5-2.6,.8-3.9,.8" style="fill:#020304;"/><path id="Path_369" d="M1127.3,1867.6c-.9,.1-1.9,0-2.7-.4l-2.3-1.2c-.7-.5-1.3-1.2-1.6-2-.5-.8-.8-1.8-.8-2.7-.4-2.2,.5-4.5,2.3-5.9,2.9-1.9,6-3.2,9.4-3.9,.1-.9-.3-1.9-1.2-2.3-.8-.5-1.8-.7-2.7-.4-1,0-1.9,.3-2.7,.8-1,.5-1.9,1.2-2.7,2l-3.1-4.3c1.3-1.1,2.7-2.1,4.3-2.7,1.6-.8,3.3-1.3,5.1-1.6,2.5-.4,5,.1,7,1.6,1.9,2,3,4.7,3.1,7.4l1.6,12.9-5.5,.8-.8-2.3c-.8,.9-1.7,1.7-2.7,2.3-1.2,1-2.5,1.7-4,1.9m2-5.4c.7,0,1.4-.3,2-.8,.4-.4,1.2-.8,1.6-1.6l-.4-3.9c-1.7,.4-3.3,1-4.7,2-.7,.6-1.1,1.4-1.2,2.3,0,.6,.3,1.2,.8,1.6,.5,.4,1.2,.5,1.9,.4" style="fill:#020304;"/><path id="Path_370" d="M1156.3,1863.7c-1.2,.2-2.4,.2-3.5,0-1-.3-2-.8-2.7-1.6-.7-.8-1.4-1.8-2-2.7-.4-1.1-.7-2.3-.8-3.5l-1.2-9.4-3.1,.4-.8-5.1,3.5-.8v-6.3l5.5-.8,.8,5.9,5.5-.8,.8,5.1-5.5,.8,1.2,9c.1,1,.5,2,1.2,2.7,.7,.5,1.5,.7,2.3,.4,.4,.1,.9-.1,1.2-.4s.7-.4,1.2-.4l2,4.7c-.4,.4-1.2,.4-2,.8-1,1.1-2.2,1.8-3.6,2" style="fill:#020304;"/><path id="Path_371" d="M1166.1,1835.1c-1.1,.1-2.1-.1-3.1-.4-.8-.5-1.4-1.4-1.6-2.3-.4-1,0-2.1,.8-2.7,.8-.7,1.7-1.3,2.7-1.6,1.1-.1,2.1,.1,3.1,.4,.8,.5,1.4,1.4,1.6,2.3,.2,1-.1,2-.8,2.7-.8,.8-1.7,1.4-2.7,1.6m.8,26.7l-3.9-22.7,6.7-1.2,3.9,22.7-6.7,1.2Z" style="fill:#020304;"/><path id="Path_372" d="M1191.9,1857.8c-1.5,.4-3.2,.4-4.7,0-1.4-.3-2.7-.8-3.9-1.6-1.2-.8-2.3-1.9-3.1-3.1-.9-1.5-1.6-3-2-4.7s-.4-3.4,0-5.1c.3-1.5,.8-3,1.6-4.3,.8-1.2,1.9-2.3,3.1-3.1,1.2-.8,2.5-1.3,3.9-1.6,1.4-.4,2.9-.4,4.3,0,1.2,.4,2.4,.9,3.5,1.6,1.1,.8,1.9,1.9,2.3,3.1,.8,1.3,1.3,2.8,1.6,4.3,0,.8,0,1.2,.4,1.6v1.2l-13.7,2.7c.8,1.6,1.6,2.7,2.7,3.1,1.2,.5,2.6,.7,3.9,.4,1.7-.5,3.3-1.3,4.7-2.3l3.1,3.5c-1.1,1-2.3,2-3.5,2.7-1.3,.8-2.7,1.3-4.2,1.6m-7.4-13.3l8.2-1.6c-.3-1.1-.8-2.2-1.6-3.1-.9-.7-2-.9-3.1-.8-1,.3-2,.8-2.7,1.6-.9,1.1-1.2,2.6-.8,3.9" style="fill:#020304;"/><path id="Path_373" d="M155.9,1154.6l24.7-4.7-1.6-8.2,5.9-1.2,4.3,23.5-5.9,1.2-1.2-8.6-24.7,4.7-1.5-6.7Z" style="fill:#020304;"/><path id="Path_374" d="M161.4,1182.4c-.4-1.4-.4-2.9,0-4.3,.3-1.4,.8-2.7,1.6-3.9,.8-1.2,1.9-2.3,3.1-3.1,1.6-1,3.3-1.6,5.1-2s3.7-.4,5.5,0c1.5,.3,3,.8,4.3,1.6,1.2,.8,2.3,1.9,3.1,3.1,.9,1.1,1.4,2.5,1.6,3.9,.4,1.4,.4,2.9,0,4.3-.3,1.4-.8,2.7-1.6,3.9-.8,1.2-1.9,2.3-3.1,3.1-1.6,1-3.3,1.6-5.1,2s-3.7,.4-5.5,0c-1.5-.3-3-.8-4.3-1.6-1.2-.8-2.3-1.9-3.1-3.1-1-1.1-1.5-2.4-1.6-3.9m5.5-1.1c.2,1.3,1.1,2.3,2.3,2.7,1.7,.4,3.4,.4,5.1,0,1.7-.3,3.3-1,4.7-2,1.2-.8,1.7-2.2,1.2-3.5-.2-1.3-1.1-2.3-2.3-2.7-1.7-.4-3.4-.4-5.1,0-1.7,.3-3.3,1-4.7,2-1.1,.8-1.6,2.2-1.2,3.5" style="fill:#020304;"/><path id="Path_375" d="M167.7,1210.6c-.3-1.5-.5-3.1-.4-4.7s.6-3,1.6-4.3c.9-1.3,2-2.4,3.1-3.5,1.5-.9,3-1.6,4.7-2,1.7-.3,3.4-.4,5.1-.4,1.5,.3,3,.8,4.3,1.6,1.2,.7,2.3,1.6,3.1,2.7,.9,1.2,1.6,2.5,2,3.9,.3,1.4,.4,2.9,.4,4.3-.3,1.3-.8,2.5-1.6,3.5-.9,1.1-1.9,2-3.1,2.7-1.3,.8-2.8,1.3-4.3,1.6-.8,0-1.2,.4-2,.4h-1.2l-3.5-13.7c-1.6,.8-2.7,1.6-3.1,3.1-.4,1.4-.4,2.9,0,4.3,.5,1.8,1.4,3.4,2.7,4.7l-3.5,3.1c-1.2-.9-2.2-2.1-2.7-3.5-.7-1.1-1.2-2.5-1.6-3.8m13.3-8.6l2,8.2c1.2-.4,2.3-.8,2.7-1.6,.7-.9,.9-2.1,.4-3.1-.3-1.1-1-2.1-2-2.7-.4-.8-1.6-1.2-3.1-.8" style="fill:#020304;"/><path id="Path_376" d="M174.3,1234.5c-.3-1.3-.4-2.6-.4-3.9,0-1,.4-2,1.2-2.7,.6-.9,1.4-1.5,2.3-2,1.1-.7,2.3-1.2,3.5-1.6l9-2.7-.8-3.1,5.1-1.6,1.2,3.5,6.3-.8,1.6,5.5-5.9,1.6,1.6,5.5-5.1,1.6-1.6-5.5-9,2.7c-1,.2-1.8,.7-2.3,1.6-.3,.7-.5,1.5-.4,2.3,0,.4,.4,.8,.4,1.2,.4,.4,.4,.8,.8,.8l-4.7,2.3c-.5-.6-.9-1.3-1.2-2-.8-.3-1.2-1.5-1.6-2.7" style="fill:#020304;"/><path id="Path_377" d="M179.4,1251.7c-.5-1.5-.7-3.1-.4-4.7,0-1.6,.4-3.2,1.2-4.7l5.1,1.6c-.4,1.1-.7,2.3-.8,3.5-.1,1.1,.1,2.1,.4,3.1,.2,.8,.6,1.4,1.2,2,.5,.3,1,.4,1.6,.4,.4,0,.8-.4,.8-.8,.3-.3,.4-.7,.4-1.2-.1-.6,.1-1.1,.4-1.6v-2c-.1-.8,.1-1.6,.4-2.3,.1-.8,.3-1.6,.8-2.3,.3-.8,.8-1.5,1.6-2,.8-.4,1.2-1.2,2.3-1.2,1-.3,2.1-.4,3.1-.4s2,.4,2.7,1.2c1,.6,1.8,1.4,2.3,2.3,.8,1,1.4,2.2,1.6,3.5,.5,1.5,.7,3.1,.4,4.7,0,1.3-.3,2.7-.8,3.9l-5.1-2c.2-.9,.5-1.8,.8-2.7,.1-.8-.1-1.6-.4-2.3-.4-1.6-1.2-2.3-2.7-2-.4,0-.8,.4-.8,.8s-.4,.8-.4,1.2v3.5c.1,.8-.1,1.6-.4,2.3-.1,.8-.3,1.6-.8,2.3-.3,.8-.8,1.5-1.6,2-.6,.7-1.4,1.1-2.3,1.2-1,.3-2.1,.5-3.1,.4-1,0-2-.4-2.7-1.2l-2.3-2.3c-1.4-1-2.2-2.5-2.5-4.2" style="fill:#020304;"/><path id="Path_378" d="M188,1279.2c-.3-1-.5-2.1-.4-3.1,0-1.3,.4-2.5,1.2-3.5l-2.7,.4-1.6-5.1,31.3-10.6,2.3,6.7-7.8,2.7-3.5,.8c1.1,.6,2,1.4,2.7,2.3,.7,.8,1.2,1.7,1.6,2.7,.5,1.2,.7,2.6,.4,3.9-.2,1.2-.6,2.4-1.2,3.5-.8,1.2-1.9,2.3-3.1,3.1-1.4,.9-2.8,1.6-4.3,2.3-1.8,.6-3.6,.9-5.5,.8-1.6-.1-3.2-.3-4.7-.8-1.3-.5-2.5-1.3-3.5-2.3-.1-1.3-.5-2.6-1.2-3.8m5.1-3.6c.3,1.1,1.2,2,2.3,2.3,1.8,.4,3.7,.3,5.5-.4,3.9-1.2,5.5-3.5,4.7-5.9-.6-1.4-1.7-2.5-3.1-3.1l-9,3.1c-.3,.7-.5,1.5-.4,2.3-.4,.6-.4,1.3,0,1.7" style="fill:#020304;"/><path id="Path_379" d="M197.4,1305c-.6-1.5-.9-3.1-.8-4.7,0-1.5,.3-2.9,.8-4.3,.6-1.4,1.5-2.6,2.7-3.5,1.4-1.2,3-2.2,4.7-2.7,1.6-.6,3.4-.9,5.1-.8,1.6,.1,3.2,.3,4.7,.8,1.6,.4,2.3,1.6,3.5,2.3,.9,1.1,1.7,2.3,2.3,3.5,.4,1.4,.7,2.8,.8,4.3,0,1.4-.4,2.7-1.2,3.9-.8,1.1-1.7,2.2-2.7,3.1-1.2,.9-2.5,1.6-3.9,2-.5,.3-1,.4-1.6,.4-.4,0-.8,.4-1.2,.4l-5.1-13.3c-1.3,.6-2.3,1.8-2.7,3.1-.4,1.4-.3,3,.4,4.3,.7,1.7,1.8,3.1,3.1,4.3l-3.1,3.5c-1.2-.8-2.3-1.9-3.1-3.1-.7-1.2-2.3-2.3-2.7-3.5m12.1-10.2l3.1,7.8c1.1-.4,2-1.1,2.7-2,.8-.9,.8-2.2,0-3.1-.3-1-1-1.9-2-2.3-1-.7-2.5-.9-3.8-.4" style="fill:#020304;"/><path id="Path_380" d="M203.7,1319.9l30.9-12.5,2.7,6.3-17.6,7,11.4,3.5,2.7,7-12.1-3.9-9.4,13.3-2.7-7,6.7-8.2-4.3-1.6-5.5,2.3-2.8-6.2Z" style="fill:#020304;"/><path id="Path_381" d="M216.2,1350.4l18.8-15.3,2.7,6.3-9,6.7c-1,.6-1.9,1.2-2.7,2-1,.7-2,1.4-3.1,2,1.1-.4,2.3-.7,3.5-.8,1.2-.1,2.4-.3,3.5-.8l11-2.3,2.3,5.5-9,7c-.8,.8-1.7,1.4-2.7,2-.8,.8-1.7,1.4-2.7,2,1.1-.4,2.3-.7,3.5-.8,1.1-.4,2.3-.7,3.5-.8l11-2.3,2.7,5.9-23.9,4.7-3.5-7.4,7.8-5.9c.8-.8,2-1.2,2.7-2,1-.7,2-1.4,3.1-2-1.1,.4-2.3,.7-3.5,.8-1.2,.4-2.3,.4-3.1,.8l-9.4,2-3.5-7.3Z" style="fill:#020304;"/><path id="Path_382" d="M233,1387.2c-.4-.9-.7-1.8-.8-2.7-.1-.9,.1-1.9,.4-2.7,.7-1.8,2.1-3.2,3.9-3.9,2.1-1.2,4.7-1.1,6.7,.4,3,1.9,5.4,4.6,7,7.8,.8-.4,1.5-1.1,2-2,.4-.8,0-1.6-.4-2.7-.5-.9-1.2-1.7-2-2.3-.8-.9-1.7-1.7-2.7-2.3l3.1-4.3c1.5,.9,3,2,4.3,3.1,1.3,1.3,2.3,2.7,3.1,4.3,1.2,2.3,1.5,5,.8,7.4-.8,2.3-2.7,3.9-6.3,5.9l-12.1,5.9-2.3-5.1,2-1.6c-1.3-.5-2.4-1.2-3.5-2-1.2-.9-2.3-2-3.2-3.2m5.9-.4c.3,.7,.9,1.3,1.6,1.6,.5,.5,1.2,.8,2,.8l3.5-2c-1-1.5-2.2-2.8-3.5-3.9-1.2-.4-2-.8-2.7-.4-.8,.4-1.2,.8-1.2,1.6-.2,.8,0,1.6,.3,2.3" style="fill:#020304;"/><path id="Path_383" d="M245.6,1411.1c-.4-.9-.7-1.8-.8-2.7-.1-.9,.1-1.9,.4-2.7l1.2-2.3c.7-.8,1.5-1.4,2.3-2,2.1-1.2,4.6-1.2,6.7,0,3,1.8,5.6,4.4,7.4,7.4,.8-.3,1.4-1.1,1.6-2,.4-.8,0-1.6-.4-2.7-.5-.9-1.2-1.7-2-2.3-.8-.8-1.7-1.4-2.7-2l2.7-4.3c1.5,.9,3,2,4.3,3.1,1.4,1.2,2.5,2.6,3.1,4.3,1.5,2.2,1.9,4.9,1.2,7.4-1.1,2.7-3.2,4.8-5.9,5.9l-11.7,6.3-2.7-5.1,2-1.6c-1.3-.5-2.4-1.2-3.5-2-1.6-.2-2.8-1.3-3.2-2.7m5.9-.4c.3,.7,.9,1.3,1.6,1.6,.5,.5,1.2,.8,2,.8l3.5-2c-1.1-1.5-2.4-2.8-3.9-3.9-.9-.4-1.9-.4-2.7,0s-1.2,.8-1.2,1.6,.3,1.1,.7,1.9" style="fill:#020304;"/><path id="Path_384" d="M256.1,1429.9l20.4-12.1,2.7,5.1-2.3,2c1.4,.4,2.7,.9,3.9,1.6,1.2,.7,2.3,1.6,3.1,2.7,.7,1.2,1.1,2.5,1.2,3.9,0,1.3-.4,2.5-1.2,3.5,1.4,.3,2.7,.8,3.9,1.6,1.3,.7,2.4,1.8,3.1,3.1,1.2,1.9,1.5,4.2,.8,6.3-1.2,2.2-2.9,3.9-5.1,5.1l-12.5,7.4-3.5-5.9,11.7-7c1.1-.5,2.1-1.3,2.7-2.3,.5-.8,.3-1.8-.4-2.3-.9-1.3-2.3-2.2-3.9-2.3l-13.7,8.2-3.5-5.9,11.7-7c1.1-.5,2.1-1.3,2.7-2.3,.5-.8,.3-1.8-.4-2.3-.9-1.3-2.3-2.2-3.9-2.3l-13.7,8.2-3.8-7Z" style="fill:#020304;"/><path id="Path_385" d="M278.1,1466.3l27.8-18,3.9,5.9-7,4.3-3.9,2c1.2,.4,2.4,.9,3.5,1.6,1.3,.7,2.4,1.8,3.1,3.1,1.4,1.6,1.7,3.9,.8,5.9-1,2.2-2.9,4-5.1,5.1l-12.1,7.8-3.9-5.9,11.4-7.4c1.1-.5,2.1-1.3,2.7-2.3,.3-.8,.1-1.7-.4-2.3-.4-.8-1.2-1.2-1.6-1.6-.8-.5-1.8-.8-2.7-.8l-13.3,8.6-3.2-6Z" style="fill:#020304;"/><path id="Path_386" d="M299.6,1500c-.8-1.4-1.5-2.8-2-4.3-.4-1.5-.4-3.2,0-4.7,.3-1.5,.9-2.9,1.6-4.3,1-1.5,2.4-2.7,3.9-3.5,1.3-1.1,3-1.8,4.7-2,1.5-.4,3.2-.4,4.7,0,1.4,.3,2.7,.8,3.9,1.6,1.2,.7,2.3,1.6,3.1,2.7,.7,1.3,1.4,2.6,2,3.9,.2,1.3,.2,2.6,0,3.9-.5,1.3-1.2,2.4-2,3.5-1,1.2-2.2,2.3-3.5,3.1-.4,.4-1,.7-1.6,.8-.3,.3-.7,.4-1.2,.4l-7.8-11.7c-1.2,1-1.9,2.4-2,3.9,0,1.4,.4,2.7,1.2,3.9,1,1.5,2.5,2.7,4.3,3.1l-2,4.3c-1.5-.5-2.8-1.3-3.9-2.3-1.4-.2-2.7-1-3.4-2.3m9-13l4.7,7c1.2-.8,2-1.6,2-2.7,.3-1.1,0-2.3-.8-3.1-.7-.9-1.7-1.5-2.7-2-1.2,0-2.3,.3-3.2,.8" style="fill:#020304;"/><path id="Path_387" d="M309.4,1512.9l19.2-13.7,3.9,5.5-19.2,13.7-3.9-5.5Zm23.9-13.3c-.8-.8-1.1-2-.8-3.1,0-1,.6-1.9,1.6-2.3,.8-.6,1.8-.9,2.7-.8,1,.2,1.8,.7,2.3,1.6,.8,.8,1.1,2,.8,3.1,0,1-.6,1.9-1.6,2.3-.8,.6-1.8,.9-2.7,.8-1-.1-1.9-.7-2.3-1.6" style="fill:#020304;"/><path id="Path_388" d="M323.1,1532.1c-.8-1-1.4-2.2-1.6-3.5-.4-1.3-.4-2.6,0-3.9,.3-1.4,1-2.8,2-3.9,1.1-1.3,2.3-2.5,3.5-3.5,1.4-1.1,3-1.9,4.7-2.3,1.4-.4,2.8-.7,4.3-.8,1.4,0,2.7,.4,3.9,1.2,1,.7,1.9,1.5,2.7,2.3,.7,1,1.2,2,1.6,3.1,.2,1,.2,2.1,0,3.1l2.7-2.3,6.3-4.7,4.3,5.5-26.2,20.4-3.5-4.7,1.6-2c-1.3,0-2.5-.4-3.5-1.2-1.2-.7-2.2-1.6-2.8-2.8m5.5-2c.3,.6,.9,1.1,1.6,1.2,.7,.3,1.5,.5,2.3,.4l7.8-5.9c.1-.8-.1-1.6-.4-2.3-.4-.8-.4-1.2-.8-1.6-.8-.8-2-1.3-3.1-1.2-1.7,.2-3.3,.9-4.7,2-1.5,1-2.7,2.3-3.5,3.9-.3,1.2,0,2.5,.8,3.5" style="fill:#020304;"/><path id="Path_389" d="M1006.7,662.1l3.1-500.4,8.6-.4,1.6,502.3-13.3-1.5Z" style="fill:#fff;"/><path id="Path_390" d="M1323.1,885.7l476.1-154.7,3.1,7.8-476.5,159.7-2.7-12.8Z" style="fill:#fff;"/><path id="Path_391" d="M706.8,885.7l-475.7-154.7-3.1,7.8,476.5,159.7,2.3-12.8Z" style="fill:#fff;"/><path id="Path_392" d="M820.7,1246.3l-290.9,407.2,6.7,5.1,295.6-406-11.4-6.3Z" style="fill:#fff;"/><path id="Path_393" d="M1208,1247l290.5,407.2-6.3,5.5-296-406,11.8-6.7Z" style="fill:#fff;"/><rect id="Rectangle_489" x="63.1" y="41.1" width="1898.2" height="1898.2" style="fill:none;"/></g></g></g></g></g></g><g id="Boog_turqoise" style="opacity:0;"><path d="M1764.3,593.8c-11,0-21.6-5.9-27-16.3-55.4-105.6-140.5-186.6-202.1-235.9-67.5-54-122.5-83-123-83.3-14.9-7.8-20.7-26.2-12.9-41.1,7.8-14.9,26.2-20.7,41.1-12.9,2.4,1.3,59.8,31.4,131.7,88.8,42.2,33.7,80.8,69.9,114.6,107.5,42.6,47.4,77.8,97.4,104.6,148.6,7.8,14.9,2.1,33.4-12.8,41.2-4.6,2.3-9.4,3.4-14.2,3.4Z" style="fill:#2db3a5;"/></g><g id="Boog_blue" style="opacity:0;"><path d="M630.8,226c-.3,11-6.5,21.4-17,26.6-106.9,52.9-189.9,136-240.6,196.4-55.6,66.2-85.9,120.5-86.2,121-8.2,14.7-26.7,20.1-41.4,11.9-14.7-8.1-20.1-26.7-11.9-41.4,1.3-2.4,32.8-59,91.9-129.6,34.7-41.4,71.8-79.1,110.3-112,48.4-41.4,99.3-75.4,151-101,15.1-7.5,33.4-1.3,40.9,13.8,2.1,4.7,3.1,9.6,3,14.3Z" style="fill:#45a7c3;"/></g><g id="Boog_green" style="opacity:0;"><path d="M176,1103c10.3,3.9,18.1,13.1,19.6,24.8,14.8,118.4,66.1,224,106.5,291.8,44.3,74.3,85.6,120.7,86,121.1,11.2,12.5,10.2,31.8-2.3,43.1-12.5,11.2-31.8,10.2-43-2.3-1.8-2-45-50.4-92.2-129.3-27.7-46.3-51.1-93.8-69.6-140.9-23.2-59.3-38.6-118.5-45.8-175.8-2.1-16.7,9.8-32,26.5-34.1,4.9-.8,9.8-.1,14.3,1.6Z" style="fill:#46ad48;"/></g><g id="Boog_orange" style="opacity:0;"><path d="M757.8,1796.6c8.1-7.4,19.9-10.3,30.9-6.3,112.4,40,229.8,41.7,308.5,36.1,86.2-6.1,146.3-22.2,146.9-22.3,16.3-4.4,33,5.2,37.4,21.5,4.4,16.2-5.2,33-21.4,37.4-2.6,.7-65.2,17.5-157,24.2-53.9,3.9-106.7,3.5-157.1-1.2-63.4-5.9-123.2-18.8-177.6-38.2-15.9-5.6-24.2-23.1-18.5-39,1.6-4.8,4.4-8.9,7.9-12.2Z" style="fill:#ed7a0f;"/></g><g id="Boog_purple" style="opacity:0;"><path d="M1583.1,1619c-2.6-10.7,.7-22.4,9.5-30.1,89.6-78.8,148.2-180.5,181.6-252,36.6-78.3,51.8-138.6,51.9-139.2,4.1-16.3,20.6-26.3,36.9-22.3,16.3,4.1,26.3,20.6,22.3,36.9-.7,2.6-16.4,65.5-55.2,149-22.8,49-48.8,95-77.5,136.7-36,52.5-76.3,98.5-119.7,136.7-12.7,11.1-31.9,9.9-43-2.8-3.4-3.8-5.6-8.2-6.8-12.9Z" style="fill:#af72ad;"/></g></svg>