<svg xmlns="http://www.w3.org/2000/svg" xmlns:xlink="http://www.w3.org/1999/xlink" width="1920" height="1080" viewBox="0 0 1920 1080">
  <defs>
    <clipPath id="clip-path">
      <rect id="Rectangle_19" data-name="Rectangle 19" width="1015.035" height="1015.035"/>
    </clipPath>
    <clipPath id="clip-path-2">
      <rect id="Rectangle_18" data-name="Rectangle 18" width="1002.778" height="1002.778"/>
    </clipPath>
    <clipPath id="clip-path-3">
      <rect id="Rectangle_1" data-name="Rectangle 1" width="188.437" height="408.307"/>
    </clipPath>
    <clipPath id="clip-path-4">
      <rect id="Rectangle_2" data-name="Rectangle 2" width="161.548" height="335.721"/>
    </clipPath>
    <clipPath id="clip-path-5">
      <rect id="Rectangle_3" data-name="Rectangle 3" width="232.918" height="262.871"/>
    </clipPath>
    <clipPath id="clip-path-6">
      <rect id="Rectangle_4" data-name="Rectangle 4" width="428.804" height="121.187"/>
    </clipPath>
    <clipPath id="clip-path-7">
      <rect id="Rectangle_5" data-name="Rectangle 5" width="352.256" height="108.614"/>
    </clipPath>
    <clipPath id="clip-path-8">
      <rect id="Rectangle_6" data-name="Rectangle 6" width="275.709" height="231.439"/>
    </clipPath>
    <clipPath id="clip-path-9">
      <rect id="Rectangle_7" data-name="Rectangle 7" width="188.014" height="407.673"/>
    </clipPath>
    <clipPath id="clip-path-10">
      <rect id="Rectangle_8" data-name="Rectangle 8" width="161.125" height="334.876"/>
    </clipPath>
    <clipPath id="clip-path-11">
      <rect id="Rectangle_9" data-name="Rectangle 9" width="163.819" height="337.781"/>
    </clipPath>
    <clipPath id="clip-path-12">
      <rect id="Rectangle_10" data-name="Rectangle 10" width="232.073" height="262.079"/>
    </clipPath>
    <clipPath id="clip-path-13">
      <rect id="Rectangle_11" data-name="Rectangle 11" width="234.767" height="264.985"/>
    </clipPath>
    <clipPath id="clip-path-14">
      <rect id="Rectangle_12" data-name="Rectangle 12" width="347.29" height="272.803"/>
    </clipPath>
    <clipPath id="clip-path-15">
      <rect id="Rectangle_13" data-name="Rectangle 13" width="285.429" height="227.741"/>
    </clipPath>
    <clipPath id="clip-path-16">
      <rect id="Rectangle_14" data-name="Rectangle 14" width="223.568" height="233.922"/>
    </clipPath>
    <clipPath id="clip-path-17">
      <rect id="Rectangle_15" data-name="Rectangle 15" width="348.136" height="272.592"/>
    </clipPath>
    <clipPath id="clip-path-18">
      <rect id="Rectangle_16" data-name="Rectangle 16" width="286.274" height="227.53"/>
    </clipPath>
    <clipPath id="clip-path-19">
      <rect id="Rectangle_17" data-name="Rectangle 17" width="224.413" height="233.922"/>
    </clipPath>
    <clipPath id="clip-Web_1920_1">
      <rect width="1920" height="1080"/>
    </clipPath>
  </defs>
  <g id="Web_1920_1" data-name="Web 1920 – 1" clip-path="url(#clip-Web_1920_1)">
    <rect width="1920" height="1080" fill="#fff"/>
    <g id="Visie-op-onderwijs-diagram" transform="translate(163.7 -492.3)">
      <g id="Group_19" data-name="Group 19" transform="translate(240.284 514)">
        <g id="Group_76" transform="translate(0.3 -21.7)" clip-path="url(#clip-path)">
          <g id="Group_77" transform="translate(33.176 33.176)">
            <g id="Group_18" data-name="Group 18">
              <g id="Group_76_00000044865907423133627000000013851058659394335916_" clip-path="url(#clip-path-2)">
                <g id="Group_75">
                  <path id="Path_247" d="M564.489,41.1c276.924,0,501.389,224.466,501.389,501.389s-224.466,501.389-501.389,501.389S63.1,819.413,63.1,542.489,287.566,41.1,564.489,41.1" transform="translate(-63.1 -41.1)" fill="#fff"/>
                  <path id="Path_248" d="M260.355,872.764a360.868,360.868,0,0,1,17.38-111.678L216.508,740.8A427.184,427.184,0,0,0,195.8,872.764c0,143.533,70.1,270.531,177.871,349.139l37.666-52.352c-91.392-66.986-150.982-174.966-150.982-296.787" transform="translate(-125.697 -371.164)" fill="#46ad48"/>
                  <g id="Group_25" transform="translate(134.647 389.902)" opacity="0.75">
                    <g id="Group_24" transform="translate(0 0)">
                      <g id="Group_1" data-name="Group 1">
                        <g id="Group_23" clip-path="url(#clip-path-3)">
                          <path id="Path_249" d="M291.835,628.231a305.088,305.088,0,0,1,14.052-91.445L244.659,516.5A367.292,367.292,0,0,0,378.05,924.807l37.666-52.352A301.984,301.984,0,0,1,291.835,628.231" transform="translate(-227.279 -516.553)" fill="#46ad48"/>
                        </g>
                      </g>
                    </g>
                  </g>
                  <path id="Path_250" d="M468.25,1187.8l-.845-.634A368.068,368.068,0,0,1,333.38,777.857l.423-1.057,63.288,20.867-.211,1.057A301.328,301.328,0,0,0,506.5,1133.177l.845.634ZM335.071,779.283a365.531,365.531,0,0,0,132.6,405.612l36.4-50.662a304.046,304.046,0,0,1-109.618-335.3Z" transform="translate(-182.398 -388.146)" fill="#fff"/>
                  <g id="Group_28" transform="translate(199.181 410.162)" opacity="0.65">
                    <g id="Group_27" transform="translate(0)">
                      <g id="Group_2" data-name="Group 2">
                        <g id="Group_26" clip-path="url(#clip-path-4)">
                          <path id="Path_251" d="M370.582,632.745a237.183,237.183,0,0,1,10.777-71.159L320.132,541.3A303.165,303.165,0,0,0,429.961,877.021l37.666-52.352a238.386,238.386,0,0,1-97.045-191.924" transform="translate(-306.027 -541.3)" fill="#46ad48"/>
                        </g>
                      </g>
                    </g>
                  </g>
                  <path id="Path_252" d="M563.727,1153.515l-.845-.634A304.175,304.175,0,0,1,452.63,816.157l.423-1.057,63.288,20.867-.211,1.057a237.2,237.2,0,0,0,85.845,261.656l.845.634ZM454.109,817.847a302.256,302.256,0,0,0,20.075,228.533,305.982,305.982,0,0,0,88.962,104.229l36.4-50.662A239.138,239.138,0,0,1,513.435,837.71Z" transform="translate(-240.209 -406.212)" fill="#fff"/>
                  <g id="Group_31" transform="translate(263.714 430.421)" opacity="0.5">
                    <g id="Group_30" transform="translate(0 0)">
                      <g id="Group_3" data-name="Group 3">
                        <g id="Group_29" clip-path="url(#clip-path-5)">
                          <path id="Path_253" d="M395.484,566a238.554,238.554,0,0,0,86.268,262.871L617.625,639.589Z" transform="translate(-384.707 -566)" fill="#46ad48"/>
                        </g>
                      </g>
                    </g>
                  </g>
                  <path id="Path_254" d="M658.56,1119.119l-.845-.634a239.639,239.639,0,0,1-86.638-263.928l.423-1.057,224.413,74.487ZM572.767,856.194a237.774,237.774,0,0,0,85.423,260.019L792.637,929.044Z" transform="translate(-297.64 -424.327)" fill="#fff"/>
                  <path id="Path_255" d="M787.706,1623.31a364.515,364.515,0,0,1-214.059-68.887l-38.247,51.93a431.093,431.093,0,0,0,505.087-.423l-38.3-51.93a364.491,364.491,0,0,1-214.481,69.31" transform="translate(-285.894 -754.767)" fill="#ed7a0f"/>
                  <g id="Group_34" transform="translate(287.728 747.511)" opacity="0.75">
                    <g id="Group_33">
                      <g id="Group_4" data-name="Group 4">
                        <g id="Group_32" clip-path="url(#clip-path-6)">
                          <path id="Path_256" d="M628.059,1009.384a301.544,301.544,0,0,1-175.811-56.262L414,1005.052a367.261,367.261,0,0,0,428.8-.423L804.556,952.7a302.8,302.8,0,0,1-176.5,56.684" transform="translate(-414 -952.7)" fill="#ed7a0f"/>
                        </g>
                      </g>
                    </g>
                  </g>
                  <path id="Path_257" d="M820.538,1576.623a365.039,365.039,0,0,1-214.693-69.1l-.845-.634,39.515-53.568.845.634a301.836,301.836,0,0,0,350.988-.423l.845-.634,39.515,53.568-.845.634a365.771,365.771,0,0,1-215.326,69.521m-212.632-70.1a366.353,366.353,0,0,0,425.9-.423l-37.032-50.239a304.117,304.117,0,0,1-351.834.423Z" transform="translate(-318.726 -707.076)" fill="#fff"/>
                  <g id="Group_37" transform="translate(326.012 695.422)" opacity="0.65">
                    <g id="Group_36" transform="translate(0 0)">
                      <g id="Group_5" data-name="Group 5">
                        <g id="Group_35" clip-path="url(#clip-path-7)">
                          <path id="Path_258" d="M636.511,933.47a236.078,236.078,0,0,1-137.564-43.847L460.7,941.552a302.862,302.862,0,0,0,352.256-.423L774.709,889.2a237.052,237.052,0,0,1-138.2,44.27" transform="translate(-460.7 -889.2)" fill="#ed7a0f"/>
                        </g>
                      </g>
                    </g>
                  </g>
                  <path id="Path_259" d="M854.69,1466.2a301.568,301.568,0,0,1-176.445-56.473l-.845-.634,39.515-53.567.845.634a236.752,236.752,0,0,0,274.494-.423l.845-.634,39.515,53.568-.845.634a303.9,303.9,0,0,1-177.079,56.9m-174.385-57.741a301.973,301.973,0,0,0,349.351-.423l-37.032-50.239a238.876,238.876,0,0,1-275.286.423Z" transform="translate(-352.878 -660.942)" fill="#fff"/>
                  <g id="Group_40" transform="translate(364.063 508.223)" opacity="0.5">
                    <g id="Group_39" transform="translate(0 0)">
                      <g id="Group_6" data-name="Group 6">
                        <g id="Group_38" clip-path="url(#clip-path-8)">
                          <path id="Path_260" d="M507.1,848.492a237.7,237.7,0,0,0,275.709-.423L645.034,660.9Z" transform="translate(-507.1 -660.9)" fill="#ed7a0f"/>
                        </g>
                      </g>
                    </g>
                  </g>
                  <path id="Path_261" d="M888.89,1233.9a237.556,237.556,0,0,1-138.145-44.058l-.845-.634.634-.845L889.313,999.5l139.2,189.282-.845.634A238.153,238.153,0,0,1,888.89,1233.9m-136.137-45.062a236.733,236.733,0,0,0,272.8-.423l-136.3-185.32Z" transform="translate(-387.078 -493.198)" fill="#fff"/>
                  <path id="Path_262" d="M1637.8,872.953a433.883,433.883,0,0,0-20.5-131.753l-61.227,20.286A367.769,367.769,0,0,1,1422.9,1169.159l37.666,52.352A430.448,430.448,0,0,0,1637.8,872.953" transform="translate(-704.547 -371.352)" fill="#af72ad"/>
                  <g id="Group_43" transform="translate(680.741 390.134)" opacity="0.75">
                    <g id="Group_42" transform="translate(0)">
                      <g id="Group_7" data-name="Group 7">
                        <g id="Group_41" clip-path="url(#clip-path-9)">
                          <path id="Path_263" d="M1016.759,628.367A302.065,302.065,0,0,1,893.3,872.22l37.666,52.352A367.687,367.687,0,0,0,1064.145,516.9l-61.227,20.286a301.269,301.269,0,0,1,13.841,91.181" transform="translate(-893.3 -516.9)" fill="#af72ad"/>
                        </g>
                      </g>
                    </g>
                  </g>
                  <path id="Path_264" d="M1387.781,1187.378l-38.881-54.2.845-.634a307.415,307.415,0,0,0,89.543-104.652,296.88,296.88,0,0,0,33.493-138.356,306.084,306.084,0,0,0-13.841-90.811l-.211-1.057,63.288-20.867.423,1.057a367.752,367.752,0,0,1-133.39,408.729Zm-35.765-53.567,36.4,50.662a365.781,365.781,0,0,0,149.133-294.727,361.752,361.752,0,0,0-16.958-110.04l-59.378,19.652a303.95,303.95,0,0,1-109.2,334.453" transform="translate(-669.639 -388.145)" fill="#fff"/>
                  <g id="Group_46" transform="translate(643.102 410.394)" opacity="0.65">
                    <g id="Group_45" transform="translate(0 0)">
                      <g id="Group_8" data-name="Group 8">
                        <g id="Group_44" clip-path="url(#clip-path-10)">
                          <path id="Path_265" d="M943.969,632.781A237.584,237.584,0,0,1,847.4,824.123l37.666,52.352A302.2,302.2,0,0,0,994.473,541.6l-61.228,20.286a238.79,238.79,0,0,1,10.724,70.9" transform="translate(-847.4 -541.6)" fill="#af72ad"/>
                        </g>
                      </g>
                    </g>
                  </g>
                  <g id="Group_49" transform="translate(641.815 409.16)" opacity="0.65">
                    <g id="Group_48" transform="translate(0 0)">
                      <g id="Group_9" data-name="Group 9">
                        <g id="Group_47" clip-path="url(#clip-path-11)">
                          <path id="Path_266" d="M884.681,877.781,845.8,823.58l.845-.634a238.015,238.015,0,0,0,96.2-190.5,231.461,231.461,0,0,0-10.777-70.525l-.211-1.057L995.144,540l.423,1.057A303.277,303.277,0,0,1,885.738,877.148ZM848.706,824l36.4,50.662A300.946,300.946,0,0,0,993.718,542.483l-59.379,19.652a237.124,237.124,0,0,1,10.566,70.1A240.114,240.114,0,0,1,848.706,824" transform="translate(-845.8 -540.053)" fill="#fff"/>
                        </g>
                      </g>
                    </g>
                  </g>
                  <g id="Group_52" transform="translate(507.812 430.833)" opacity="0.5">
                    <g id="Group_51">
                      <g id="Group_10" data-name="Group 10">
                        <g id="Group_50" clip-path="url(#clip-path-12)">
                          <path id="Path_267" d="M817.8,828.579a237.805,237.805,0,0,0,96.569-191.343A234.455,234.455,0,0,0,903.6,566.5L682.3,639.931Z" transform="translate(-682.353 -566.5)" fill="#af72ad"/>
                        </g>
                      </g>
                    </g>
                  </g>
                  <g id="Group_55" transform="translate(506.166 429.42)" opacity="0.5">
                    <g id="Group_54" transform="translate(0)">
                      <g id="Group_11" data-name="Group 11">
                        <g id="Group_53" clip-path="url(#clip-path-13)">
                          <path id="Path_268" d="M817.33,829.685,680.4,638.765,903.968,564.7l.423,1.057a239.15,239.15,0,0,1-86.215,263.294ZM683.675,640.033,817.7,826.832a237.121,237.121,0,0,0,85-259.385Z" transform="translate(-680.4 -564.753)" fill="#fff"/>
                        </g>
                      </g>
                    </g>
                  </g>
                  <path id="Path_269" d="M1363.013,491.207l61.439-19.652C1368.4,299.072,1206.431,174.134,1015.3,173.5l.423,64.556c162.182.792,299.534,106.659,347.29,253.151" transform="translate(-512.273 -103.556)" fill="#2db3a5"/>
                  <g id="Group_58" transform="translate(503.466 134.467)" opacity="0.75">
                    <g id="Group_57" transform="translate(0 0)">
                      <g id="Group_12" data-name="Group 12">
                        <g id="Group_56" clip-path="url(#clip-path-14)">
                          <path id="Path_270" d="M962.952,477.9l61.439-19.652C976.581,311.812,839.229,205.892,677.1,205.1l.423,64.556A302.83,302.83,0,0,1,962.952,477.9" transform="translate(-677.1 -205.1)" fill="#2db3a5"/>
                        </g>
                      </g>
                    </g>
                  </g>
                  <path id="Path_271" d="M1300.327,568.728l-.423-1.057a300.9,300.9,0,0,0-284.425-207.455h-1.057L1014,293.6h1.057a367.642,367.642,0,0,1,348.294,253.785l.423,1.057ZM1016.589,358.156a303.06,303.06,0,0,1,285.006,207.878l59.59-19.018A365.694,365.694,0,0,0,1016.166,295.5Z" transform="translate(-511.66 -160.21)" fill="#fff"/>
                  <g id="Group_61" transform="translate(503.878 199.001)" opacity="0.65">
                    <g id="Group_60" transform="translate(0 0)">
                      <g id="Group_13" data-name="Group 13">
                        <g id="Group_59" clip-path="url(#clip-path-15)">
                          <path id="Path_272" d="M677.6,283.8l.423,64.556A238,238,0,0,1,901.59,511.541l61.439-19.652A302.906,302.906,0,0,0,677.6,283.8" transform="translate(-677.6 -283.8)" fill="#2db3a5"/>
                        </g>
                      </g>
                    </g>
                  </g>
                  <path id="Path_273" d="M1238.966,646.024l-.423-1.057a236.892,236.892,0,0,0-222.564-162.551h-1.057L1014.5,415.8h1.057a303.244,303.244,0,0,1,286.486,208.934l.423,1.057ZM1017.194,480.356a239,239,0,0,1,223.2,162.974l59.59-19.018a300.84,300.84,0,0,0-283.157-206.4Z" transform="translate(-511.896 -217.854)" fill="#fff"/>
                  <g id="Group_64" transform="translate(504.289 263.714)" opacity="0.5">
                    <g id="Group_63">
                      <g id="Group_14" data-name="Group 14">
                        <g id="Group_62" clip-path="url(#clip-path-16)">
                          <path id="Path_274" d="M901.668,525.985A237.925,237.925,0,0,0,678.1,362.8l1.426,233.922Z" transform="translate(-678.1 -362.747)" fill="#2db3a5"/>
                        </g>
                      </g>
                    </g>
                  </g>
                  <path id="Path_275" d="M1017.015,774.4,1015.8,538h1.057a239.239,239.239,0,0,1,224.624,164.031l.423,1.057-1.057.423Zm.792-234.344,1.426,231.439,219.87-69.891a237.241,237.241,0,0,0-221.3-161.548" transform="translate(-512.509 -275.498)" fill="#fff"/>
                  <path id="Path_276" d="M645.722,237.956l.423-64.556C454.59,173.611,292.462,298.549,236.2,471.244L297.639,490.9C345.4,344.509,483.17,238.378,645.722,237.956" transform="translate(-144.755 -103.509)" fill="#45a7c3"/>
                  <g id="Group_67" transform="translate(152.85 134.467)" opacity="0.75">
                    <g id="Group_66" transform="translate(0 0)">
                      <g id="Group_15" data-name="Group 15">
                        <g id="Group_65" clip-path="url(#clip-path-17)">
                          <path id="Path_277" d="M597.213,269.556,597.636,205c-162.551.423-300.115,106.342-348.136,252.993l61.439,19.652A302.816,302.816,0,0,1,597.213,269.556" transform="translate(-249.5 -205.053)" fill="#46a8c4"/>
                        </g>
                      </g>
                    </g>
                  </g>
                  <path id="Path_278" d="M413.2,568.516,349.7,548.23l.423-1.057A367.745,367.745,0,0,1,699.051,293.6h1.057l-.423,66.616h-1.057A301.03,301.03,0,0,0,413.41,567.46Zm-60.8-21.5,59.59,19.018A302.874,302.874,0,0,1,697.836,358.367l.423-62.443A366.326,366.326,0,0,0,352.394,547.015" transform="translate(-198.295 -160.21)" fill="#fff"/>
                  <g id="Group_70" transform="translate(214.272 199.001)" opacity="0.65">
                    <g id="Group_69" transform="translate(0 0)">
                      <g id="Group_16" data-name="Group 16">
                        <g id="Group_68" clip-path="url(#clip-path-18)">
                          <path id="Path_279" d="M610.352,348.256l.423-64.556A302.843,302.843,0,0,0,324.5,491.578l61.439,19.652A238.308,238.308,0,0,1,610.352,348.256" transform="translate(-324.447 -283.753)" fill="#46a8c4"/>
                        </g>
                      </g>
                    </g>
                  </g>
                  <path id="Path_280" d="M529.5,645.765,466,625.479l.423-1.057A303.432,303.432,0,0,1,753.542,415.7H754.6l-.423,66.616h-1.057A237.114,237.114,0,0,0,529.71,644.709Zm-60.8-21.5,59.59,19.018A238.933,238.933,0,0,1,752.274,480.52l.423-62.443a300.775,300.775,0,0,0-284,206.187" transform="translate(-253.157 -217.807)" fill="#fff"/>
                  <g id="Group_73" transform="translate(275.748 263.534)" opacity="0.5">
                    <g id="Group_72" transform="translate(0 0)">
                      <g id="Group_17" data-name="Group 17">
                        <g id="Group_71" clip-path="url(#clip-path-19)">
                          <path id="Path_281" d="M623.813,362.5c-104.441.634-192.98,68.888-224.413,162.974l222.986,70.948Z" transform="translate(-399.4 -362.5)" fill="#46a8c4"/>
                        </g>
                      </g>
                    </g>
                  </g>
                  <path id="Path_282" d="M807.958,774.169,582.7,702.376l.423-1.057A239.3,239.3,0,0,1,808.381,537.5h1.057ZM585.394,701.161l220.715,70.314,1.426-231.439A236.252,236.252,0,0,0,585.394,701.161" transform="translate(-308.206 -275.262)" fill="#fff"/>
                  <g id="Visie_op_onderwijs" transform="translate(328.259 327.995)">
                    <path id="Path_283" d="M735.309,712.809a173.551,173.551,0,1,1,0,245.438h0a173.547,173.547,0,0,1,0-245.438h0" transform="translate(-684.475 -661.975)" fill="#fff"/>
                    <path id="Path_284" d="M863.464,943.95,854.8,915h6.815l3.539,13.471c.423,1.638.845,3.117,1.215,4.543s.845,3.117,1.215,4.543h.211c.423-1.638.845-3.117,1.215-4.543s.845-3.117,1.215-4.543L873.765,915h6.6L871.7,943.95Z" transform="translate(-764.821 -781.332)" fill="#020304"/>
                    <path id="Path_285" d="M914.474,915.8a3.932,3.932,0,0,1-2.694-1.057,3.507,3.507,0,0,1,0-4.966h0a4.038,4.038,0,0,1,5.388,0,3.507,3.507,0,0,1,0,4.966,3.431,3.431,0,0,1-2.694,1.057m-3.275,3.275h6.6V941h-6.6Z" transform="translate(-791.214 -778.384)" fill="#020304"/>
                    <path id="Path_286" d="M943.552,949.915A13.414,13.414,0,0,1,935.1,946.8l2.906-4.121a7.945,7.945,0,0,0,2.906,1.638,13.577,13.577,0,0,0,2.906.634,4.023,4.023,0,0,0,2.06-.423,1.887,1.887,0,0,0,.634-1.426c0-.423-.211-.634-.423-1.057a5.712,5.712,0,0,0-1.057-.845,8.421,8.421,0,0,0-1.426-.634c-.634-.211-1.057-.423-1.638-.634a9.478,9.478,0,0,1-2.06-1.057l-1.849-1.215a4.088,4.088,0,0,1-1.426-1.849,4.473,4.473,0,0,1-.634-2.483,6.852,6.852,0,0,1,.634-2.906,9.949,9.949,0,0,1,1.638-2.272,11.006,11.006,0,0,1,2.694-1.426,12.951,12.951,0,0,1,7.871.423,25.494,25.494,0,0,1,3.328,1.849l-2.906,3.909a21.378,21.378,0,0,0-2.272-1.426,4.719,4.719,0,0,0-2.272-.423c-1.638,0-2.483.634-2.483,1.638a1.1,1.1,0,0,0,.423.845,4.318,4.318,0,0,0,1.057.634,8.422,8.422,0,0,0,1.426.634c.634.211,1.057.423,1.638.634.634.211,1.426.634,2.06.845a8.6,8.6,0,0,1,1.849,1.215,4.088,4.088,0,0,1,1.426,1.849,5.944,5.944,0,0,1,.634,2.694,6.852,6.852,0,0,1-.634,2.906,9.949,9.949,0,0,1-1.638,2.272,6.023,6.023,0,0,1-2.906,1.426,5.639,5.639,0,0,1-4.015,1.268" transform="translate(-802.7 -786.663)" fill="#020304"/>
                    <path id="Path_287" d="M983.074,915.8a3.932,3.932,0,0,1-2.694-1.057,3.507,3.507,0,0,1,0-4.966h0a4.038,4.038,0,0,1,5.388,0,3.507,3.507,0,0,1,0,4.966h0a3.111,3.111,0,0,1-2.694,1.057m-3.117,3.275h6.6V941h-6.6Z" transform="translate(-823.574 -778.384)" fill="#020304"/>
                    <path id="Path_288" d="M1016.482,950.286a9.483,9.483,0,0,1-4.332-.845,7.883,7.883,0,0,1-3.539-2.272,9.271,9.271,0,0,1-2.272-3.539,12.3,12.3,0,0,1-.845-4.966,11.321,11.321,0,0,1,.845-4.755,16.564,16.564,0,0,1,2.272-3.7,11.269,11.269,0,0,1,3.328-2.272,9.952,9.952,0,0,1,8.03,0,8.683,8.683,0,0,1,2.906,2.272,6.6,6.6,0,0,1,1.638,3.328,13.689,13.689,0,0,1,.634,4.121V939.3a8.3,8.3,0,0,1-.211,1.215h-13.26a5.038,5.038,0,0,0,2.06,3.539,5.442,5.442,0,0,0,3.7,1.057,8.949,8.949,0,0,0,4.754-1.426l2.272,3.909a11.059,11.059,0,0,1-3.7,1.849,9.839,9.839,0,0,1-4.279.845m-4.755-14.052h7.871a5.068,5.068,0,0,0-.845-3.117,3.119,3.119,0,0,0-2.906-1.215,4.5,4.5,0,0,0-2.694,1.057,5.767,5.767,0,0,0-1.426,3.275" transform="translate(-835.904 -787.034)" fill="#020304"/>
                    <path id="Path_289" d="M1084.789,950.238a10.857,10.857,0,0,1-9.932-6.656,15.235,15.235,0,0,1,0-9.932,10.007,10.007,0,0,1,5.811-5.811,13.966,13.966,0,0,1,4.121-.845,7.7,7.7,0,0,1,3.909.845,13.939,13.939,0,0,1,3.539,2.272,9.269,9.269,0,0,1,2.272,3.539,15.235,15.235,0,0,1,0,9.932,10.007,10.007,0,0,1-5.811,5.811,7.7,7.7,0,0,1-3.909.845m0-5.388a4.086,4.086,0,0,0,3.117-1.638,10.533,10.533,0,0,0,0-9.086,3.272,3.272,0,0,0-3.117-1.638,3.783,3.783,0,0,0-3.117,1.638,10.533,10.533,0,0,0,0,9.086,3.272,3.272,0,0,0,3.117,1.638" transform="translate(-868.234 -786.987)" fill="#020304"/>
                    <path id="Path_290" d="M1127.3,958.135V927.918h5.388l.423,2.272h.211a8.8,8.8,0,0,1,2.906-1.849,10.3,10.3,0,0,1,3.328-.845,7,7,0,0,1,3.54.845,7.477,7.477,0,0,1,2.694,2.272,8.7,8.7,0,0,1,1.638,3.539,16.55,16.55,0,0,1,.634,4.543,12.3,12.3,0,0,1-.845,4.966,15.8,15.8,0,0,1-2.06,3.7,6.829,6.829,0,0,1-2.906,2.272,6.755,6.755,0,0,1-3.539.845,5.945,5.945,0,0,1-2.694-.634,20.177,20.177,0,0,1-2.483-1.638l.211,3.539v6.392Zm10.143-13.048a3.629,3.629,0,0,0,2.906-1.426,7.854,7.854,0,0,0,1.215-4.966c0-3.909-1.215-6.022-3.7-6.022a4.915,4.915,0,0,0-3.7,2.06v9.086a4.966,4.966,0,0,0,1.849,1.057c.158.211.792.211,1.426.211" transform="translate(-893.365 -787.224)" fill="#020304"/>
                    <path id="Path_291" d="M822.56,1044.641a14.6,14.6,0,0,1-5.388-1.057,10.845,10.845,0,0,1-4.121-2.906,11.846,11.846,0,0,1-2.694-4.755,19.864,19.864,0,0,1,0-12.784,13.7,13.7,0,0,1,2.694-4.755,11.267,11.267,0,0,1,4.121-2.906,14.608,14.608,0,0,1,10.777,0,10.846,10.846,0,0,1,4.121,2.906,11.846,11.846,0,0,1,2.694,4.755,19.237,19.237,0,0,1,1.057,6.181,20.268,20.268,0,0,1-1.057,6.392,11.847,11.847,0,0,1-2.694,4.755,11.269,11.269,0,0,1-4.121,2.906,8.794,8.794,0,0,1-5.388,1.268m0-5.547a5.549,5.549,0,0,0,4.755-2.483c1.215-1.638,1.638-3.909,1.638-7.026a12.775,12.775,0,0,0-1.638-6.815,5.779,5.779,0,0,0-8.083-1.426,5.236,5.236,0,0,0-1.426,1.426,11.111,11.111,0,0,0-1.638,6.815,14.78,14.78,0,0,0,1.638,7.026,5.884,5.884,0,0,0,4.755,2.483" transform="translate(-743.358 -828.245)" fill="#020304"/>
                    <path id="Path_292" d="M872.8,1050.929v-21.924h5.388l.423,2.906h.211a26.1,26.1,0,0,1,3.117-2.272,7.893,7.893,0,0,1,3.909-1.057,5.923,5.923,0,0,1,5.177,2.272,12.051,12.051,0,0,1,1.638,6.6v13.63h-6.6V1038.3a6.076,6.076,0,0,0-.634-3.328,2.205,2.205,0,0,0-2.06-.845,3.522,3.522,0,0,0-2.06.634,6.163,6.163,0,0,0-1.849,1.638v14.9h-6.6v-.37Z" transform="translate(-773.312 -834.903)" fill="#020304"/>
                    <path id="Path_293" d="M932.069,1043.3a6.937,6.937,0,0,1-3.7-.845,10.07,10.07,0,0,1-2.906-2.272,10.789,10.789,0,0,1-1.849-3.539,18.088,18.088,0,0,1-.634-4.755,10.424,10.424,0,0,1,.845-4.755,15.8,15.8,0,0,1,2.06-3.7,9.41,9.41,0,0,1,2.906-2.272,6.639,6.639,0,0,1,3.328-.845,6.483,6.483,0,0,1,3.117.634,9.947,9.947,0,0,1,2.272,1.638l-.211-3.328v-7.66h6.6v31.01h-5.388l-.423-2.272h-.211a7.917,7.917,0,0,1-2.694,1.849,4.368,4.368,0,0,1-3.117,1.109m1.638-5.124a4.5,4.5,0,0,0,1.849-.423c.634-.211,1.057-.845,1.638-1.638v-9.086a4.966,4.966,0,0,0-1.849-1.057,7.245,7.245,0,0,0-1.849-.423,3.239,3.239,0,0,0-2.694,1.426,6.681,6.681,0,0,0-1.215,4.543,8.849,8.849,0,0,0,1.057,4.755,3.607,3.607,0,0,0,3.064,1.9" transform="translate(-796.975 -826.901)" fill="#020304"/>
                    <path id="Path_294" d="M986.282,1050.885a9.481,9.481,0,0,1-4.332-.845,7.883,7.883,0,0,1-3.539-2.272,9.272,9.272,0,0,1-2.272-3.539,12.3,12.3,0,0,1-.845-4.966,11.321,11.321,0,0,1,.845-4.755,16.564,16.564,0,0,1,2.272-3.7,9.579,9.579,0,0,1,3.328-2.272,9.952,9.952,0,0,1,8.03,0,8.684,8.684,0,0,1,2.906,2.272,6.6,6.6,0,0,1,1.638,3.328,13.689,13.689,0,0,1,.634,4.121v1.638a10.937,10.937,0,0,1-.211,1.215h-13.26a5.038,5.038,0,0,0,2.06,3.539,5.443,5.443,0,0,0,3.7,1.057,8.95,8.95,0,0,0,4.755-1.426l2.272,3.909a11.059,11.059,0,0,1-3.7,1.849,9.691,9.691,0,0,1-4.279.845m-4.966-13.841h7.871a5.068,5.068,0,0,0-.845-3.117,3.119,3.119,0,0,0-2.906-1.215,4.5,4.5,0,0,0-2.694,1.057,12.087,12.087,0,0,0-1.426,3.275" transform="translate(-821.658 -834.489)" fill="#020304"/>
                    <path id="Path_295" d="M1025.1,1050.882v-21.924h5.388l.423,3.909h.211a9.756,9.756,0,0,1,2.906-3.328,6.7,6.7,0,0,1,3.328-1.057,2.626,2.626,0,0,1,1.426.211c.423.211.845.211,1.057.423l-1.057,5.6a2.375,2.375,0,0,0-1.215-.211h-1.215a4.923,4.923,0,0,0-2.694.845,7.811,7.811,0,0,0-2.272,3.117V1051.3h-6.181v-.423Z" transform="translate(-845.155 -834.856)" fill="#020304"/>
                    <path id="Path_296" d="M1065.1,1051.324l-5.6-21.924h6.392l2.06,10.143a731973.4,731973.4,0,0,0,.845,6.656h.211c.211-1.057.423-2.272.634-3.328l.634-3.117,2.483-10.143h5.6l2.483,10.143c.211,1.057.423,2.272.634,3.328s.423,2.06.634,3.328h.211a17.947,17.947,0,0,0,.423-3.328c.211-1.057.211-2.06.423-3.328l2.06-10.143h6.022l-5.388,21.924h-7.66l-2.06-8.664-.634-3.117c-.211-1.057-.423-2.06-.634-3.328h-.211c-.211,1.215-.423,2.272-.634,3.328l-.634,3.117-1.849,8.664h-6.392Z" transform="translate(-861.382 -835.297)" fill="#020304"/>
                    <path id="Path_297" d="M1135.774,1016.8a3.932,3.932,0,0,1-2.694-1.057,3.507,3.507,0,0,1,0-4.966h0a4.038,4.038,0,0,1,5.388,0,3.507,3.507,0,0,1,0,4.966h0a4.772,4.772,0,0,1-2.694,1.057m-3.328,3.328h6.6v21.924h-6.6Z" transform="translate(-895.606 -826.028)" fill="#020304"/>
                    <path id="Path_298" d="M1154.409,1050.718a6.645,6.645,0,0,1-2.272-.211c-.634-.211-1.057-.211-1.638-.423l1.215-4.755c.211,0,.634.211.845.211h.845a1.864,1.864,0,0,0,1.849-.845,5.279,5.279,0,0,0,.423-2.694v-22.082h6.6v21.923a20.236,20.236,0,0,1-.423,3.539,8.292,8.292,0,0,1-1.215,2.906,5.417,5.417,0,0,1-2.483,1.849,10.3,10.3,0,0,1-3.751.581m4.543-33.916a3.932,3.932,0,0,1-2.694-1.057,3.507,3.507,0,0,1,0-4.966h0a4.038,4.038,0,0,1,5.388,0,3.507,3.507,0,0,1,0,4.966h0a4.03,4.03,0,0,1-2.694,1.057" transform="translate(-904.309 -826.028)" fill="#020304"/>
                    <path id="Path_299" d="M1192.552,1050.515a13.413,13.413,0,0,1-8.453-3.117l2.906-4.121a7.945,7.945,0,0,0,2.906,1.638,6.851,6.851,0,0,0,2.906.634,4.023,4.023,0,0,0,2.06-.423,1.887,1.887,0,0,0,.634-1.426c0-.423-.211-.634-.423-1.057a5.7,5.7,0,0,0-1.057-.845,8.421,8.421,0,0,0-1.426-.634c-.634-.211-1.057-.423-1.638-.634a9.484,9.484,0,0,1-2.06-1.057l-1.849-1.215a4.087,4.087,0,0,1-1.426-1.849,4.471,4.471,0,0,1-.634-2.483,6.852,6.852,0,0,1,.634-2.906,9.948,9.948,0,0,1,1.638-2.272,11.006,11.006,0,0,1,2.694-1.426,12.951,12.951,0,0,1,7.871.423,25.45,25.45,0,0,1,3.328,1.849l-2.906,3.909a21.385,21.385,0,0,0-2.271-1.426,4.72,4.72,0,0,0-2.272-.423c-1.638,0-2.483.634-2.483,1.638a1.1,1.1,0,0,0,.423.845,4.318,4.318,0,0,0,1.057.634,8.425,8.425,0,0,0,1.426.634c.528.264,1.109.423,1.638.634.634.211,1.426.634,2.06.845l1.849,1.215a4.088,4.088,0,0,1,1.426,1.849,5.944,5.944,0,0,1,.634,2.694,6.852,6.852,0,0,1-.634,2.906,9.953,9.953,0,0,1-1.638,2.272,6.023,6.023,0,0,1-2.906,1.426,5.639,5.639,0,0,1-4.015,1.268" transform="translate(-920.159 -834.118)" fill="#020304"/>
                  </g>
                  <circle id="Paars_-_4-2" cx="23.773" cy="23.773" r="23.773" transform="translate(839.012 648.409)" fill="#af72ad"/>
                  <circle id="Paars_-_3-2" cx="23.773" cy="23.773" r="23.773" transform="translate(784.071 613.173)" fill="none"/>
                  <circle id="Paars_-_2-2" cx="23.773" cy="23.773" r="23.773" transform="translate(727.968 574.239)" fill="none"/>
                  <circle id="Paars_-_1-2" cx="23.773" cy="23.773" r="23.773" transform="translate(669.699 539.901)" fill="none"/>
                  <circle id="Turqoise_-_1-2" cx="23.773" cy="23.773" r="23.773" transform="translate(611.799 321.722)" fill="none"/>
                  <circle id="Turqoise_-_2-2" cx="23.773" cy="23.773" r="23.773" transform="translate(659.345 274.177)" fill="none"/>
                  <circle id="Turqoise_-_3-2" cx="23.773" cy="23.773" r="23.773" transform="translate(705.358 231.122)" fill="none"/>
                  <circle id="Turqoise_-_4-2" cx="23.773" cy="23.773" r="23.773" transform="translate(750.948 186.747)" fill="#2db3a5"/>
                  <circle id="Blue_-_1-2" cx="23.773" cy="23.773" r="23.773" transform="translate(348.083 324.363)" fill="none"/>
                  <circle id="Blue_-_2-2" cx="23.773" cy="23.773" r="23.773" transform="translate(299.534 276.29)" fill="none"/>
                  <circle id="Blue_-_3-2" cx="23.773" cy="23.773" r="23.773" transform="translate(250.932 231.122)" fill="none"/>
                  <circle id="Blue_-_4-2" cx="23.773" cy="23.773" r="23.773" transform="translate(207.138 183.577)" fill="#45a7c3"/>
                  <circle id="Groen_-_1" cx="23.773" cy="23.773" r="23.773" transform="translate(285.323 540.429)" fill="none"/>
                  <circle id="Groen_-_2" cx="23.773" cy="23.773" r="23.773" transform="translate(221.243 566.737)" fill="none"/>
                  <circle id="Groen_-_3" cx="23.773" cy="23.773" r="23.773" transform="translate(163.449 592.729)" fill="none"/>
                  <circle id="Groen_-_4" cx="23.773" cy="23.773" r="23.773" transform="translate(108.508 626.221)" fill="#46ad48"/>
                  <circle id="Oranje_-_1-2" cx="23.773" cy="23.773" r="23.773" transform="translate(479.202 685.811)" fill="none"/>
                  <circle id="Oranje_-_2-2" cx="23.773" cy="23.773" r="23.773" transform="translate(478.673 747.884)" fill="none"/>
                  <circle id="Oranje_-_3-2" cx="23.773" cy="23.773" r="23.773" transform="translate(478.673 814.711)" fill="none"/>
                  <circle id="Oranje_-_4-2" cx="23.773" cy="23.773" r="23.773" transform="translate(480.258 878.052)" fill="none"/>
                  <path id="Blue_-_1" d="M752.6,703.233v-4.755h5.6v-14.9h-4.755v-3.7a14.323,14.323,0,0,0,3.539-1.057,29.591,29.591,0,0,0,2.906-1.426h4.332v20.867h4.755v4.755H752.653v.211Z" transform="translate(-388.352 -341.256)" fill="#020304"/>
                  <path id="Green_-_1" d="M632.4,1108.133v-4.754H638v-14.9h-4.755v-3.7a14.322,14.322,0,0,0,3.54-1.057,29.576,29.576,0,0,0,2.906-1.426h4.332v20.867h4.755v4.755H632.453v.211Z" transform="translate(-331.651 -532.256)" fill="#020304"/>
                  <path id="Paars_-_1" d="M1359.9,1108.133v-4.754h5.6v-14.9h-4.754v-3.7a14.32,14.32,0,0,0,3.539-1.057,29.569,29.569,0,0,0,2.906-1.426h4.332v20.867h4.755v4.755h-16.324v.211Z" transform="translate(-674.828 -532.256)" fill="#020304"/>
                  <path id="Paars_-_2" d="M1468.323,1172.434v-3.328c1.638-1.426,3.117-2.906,4.543-4.332s2.483-2.483,3.54-3.7a28.442,28.442,0,0,0,2.271-3.328,6.188,6.188,0,0,0,.845-2.906,3.973,3.973,0,0,0-1.057-2.906,3.622,3.622,0,0,0-2.694-1.057,3.327,3.327,0,0,0-2.483.845c-.634.634-1.426,1.215-2.06,1.849l-3.328-3.117a13.459,13.459,0,0,1,3.962-3.117,8.849,8.849,0,0,1,4.754-1.057,10.214,10.214,0,0,1,3.54.634,14.121,14.121,0,0,1,2.694,1.638,6.011,6.011,0,0,1,1.638,2.483,8.879,8.879,0,0,1,.634,3.328,9.082,9.082,0,0,1-.634,3.328,15.752,15.752,0,0,1-1.849,3.328,41.157,41.157,0,0,1-2.694,3.328c-1.056,1.057-2.06,2.272-3.117,3.328.634,0,1.426-.211,2.06-.211h7.237v4.966Z" transform="translate(-725.774 -562.431)" fill="#020304"/>
                  <path id="Paars_-_3" d="M1582.928,1245.972a13.433,13.433,0,0,1-5.388-1.056,7.774,7.774,0,0,1-3.539-2.694l2.694-3.7a10.483,10.483,0,0,0,2.483,1.849,7.042,7.042,0,0,0,3.117.845,5.069,5.069,0,0,0,3.117-.845,2.441,2.441,0,0,0,1.057-2.272,2.627,2.627,0,0,0-.211-1.426,3.908,3.908,0,0,0-1.057-1.215,9.953,9.953,0,0,0-2.06-.845,15.755,15.755,0,0,0-3.54-.211v-4.121a10.786,10.786,0,0,0,2.906-.211,10.905,10.905,0,0,0,1.849-.634,2.543,2.543,0,0,0,1.056-1.057,3.355,3.355,0,0,0,.211-1.426,2.254,2.254,0,0,0-.845-2.06,3.869,3.869,0,0,0-2.272-.845,5.259,5.259,0,0,0-2.483.634,17.748,17.748,0,0,0-2.271,1.638l-2.906-3.7a21.549,21.549,0,0,1,3.7-2.483,9.484,9.484,0,0,1,4.332-.845,16.2,16.2,0,0,1,3.539.423,8.245,8.245,0,0,1,2.694,1.426,6.389,6.389,0,0,1,1.849,2.272,6.85,6.85,0,0,1,.634,2.906,6.464,6.464,0,0,1-1.057,3.539,12.116,12.116,0,0,1-3.117,2.272v.211a8.389,8.389,0,0,1,3.7,2.271,5.639,5.639,0,0,1,1.426,4.121,5.068,5.068,0,0,1-.845,3.117,7.089,7.089,0,0,1-2.06,2.272,11.127,11.127,0,0,1-3.117,1.426,19.134,19.134,0,0,1-3.592.422" transform="translate(-775.824 -596.876)" fill="#020304"/>
                  <path id="Paars_-_4" d="M1693.347,1316.733v-6.181H1682.2v-4.121l9.3-15.531h7.237v14.9h2.906v4.543h-2.906v6.181h-5.388Zm-5.389-10.724h5.388v-7.026c0-1.057.211-2.06.211-2.906h-.211c-.423.634-.634,1.426-1.057,2.06-.423.845-.634,1.426-1.057,2.272Z" transform="translate(-826.864 -630.657)" fill="#020304"/>
                  <path id="Green_-_2" d="M509.923,1157.534v-3.328c1.638-1.426,3.117-2.906,4.543-4.332s2.483-2.483,3.539-3.7a28.452,28.452,0,0,0,2.272-3.328,6.188,6.188,0,0,0,.845-2.906,3.972,3.972,0,0,0-1.057-2.906,3.622,3.622,0,0,0-2.694-1.057,3.328,3.328,0,0,0-2.483.845c-.634.634-1.426,1.215-2.06,1.849l-3.328-3.117a13.948,13.948,0,0,1,3.909-3.117,8.851,8.851,0,0,1,4.755-1.057,10.214,10.214,0,0,1,3.54.634,14.117,14.117,0,0,1,2.694,1.638,6.011,6.011,0,0,1,1.638,2.483,8.878,8.878,0,0,1,.634,3.328,9.081,9.081,0,0,1-.634,3.328,15.755,15.755,0,0,1-1.849,3.328,41.184,41.184,0,0,1-2.694,3.328c-1.057,1.056-2.06,2.271-3.117,3.328.634,0,1.426-.211,2.06-.211h7.237v4.966Z" transform="translate(-273.676 -555.402)" fill="#020304"/>
                  <path id="Green_-_3" d="M409.128,1209.172a13.433,13.433,0,0,1-5.388-1.056,7.775,7.775,0,0,1-3.539-2.694l2.694-3.7a10.482,10.482,0,0,0,2.483,1.849,7.043,7.043,0,0,0,3.117.845,5.069,5.069,0,0,0,3.117-.845,2.441,2.441,0,0,0,1.057-2.272,2.626,2.626,0,0,0-.211-1.426,3.908,3.908,0,0,0-1.057-1.215,9.952,9.952,0,0,0-2.06-.845,15.755,15.755,0,0,0-3.539-.211v-4.121a10.786,10.786,0,0,0,2.906-.211,10.9,10.9,0,0,0,1.849-.634,2.542,2.542,0,0,0,1.057-1.056,3.354,3.354,0,0,0,.211-1.426,2.254,2.254,0,0,0-.845-2.06,3.869,3.869,0,0,0-2.272-.845,5.258,5.258,0,0,0-2.483.634,17.743,17.743,0,0,0-2.272,1.638l-2.906-3.7a21.553,21.553,0,0,1,3.7-2.483,9.482,9.482,0,0,1,4.332-.845,16.2,16.2,0,0,1,3.539.423,8.245,8.245,0,0,1,2.694,1.426,6.39,6.39,0,0,1,1.849,2.272,6.851,6.851,0,0,1,.634,2.906,6.465,6.465,0,0,1-1.057,3.539,12.119,12.119,0,0,1-3.117,2.272v.211a8.389,8.389,0,0,1,3.7,2.271,5.639,5.639,0,0,1,1.426,4.121,5.068,5.068,0,0,1-.845,3.117,7.088,7.088,0,0,1-2.06,2.272,11.126,11.126,0,0,1-3.117,1.426,25.722,25.722,0,0,1-3.592.422" transform="translate(-222.117 -579.517)" fill="#020304"/>
                  <path id="Green_-_4" d="M304.147,1270.533v-6.181H293v-4.121l9.3-15.531h7.237v14.9h2.906v4.543h-2.906v6.181h-5.388Zm-5.388-10.724h5.388v-7.026c0-1.057.211-2.06.211-2.906h-.211c-.423.634-.634,1.426-1.057,2.06-.423.845-.634,1.426-1.057,2.271Z" transform="translate(-171.549 -608.864)" fill="#020304"/>
                  <path id="Turqoise_-_1" d="M1250.6,703.233v-4.755h5.6v-14.9h-4.754v-3.7a14.321,14.321,0,0,0,3.539-1.057,29.57,29.57,0,0,0,2.906-1.426h4.332v20.867h4.754v4.755h-16.324Z" transform="translate(-623.269 -341.256)" fill="#020304"/>
                  <path id="Oranje_-_1" d="M1000.1,1384.533v-4.755h5.6v-14.9h-4.755v-3.7a14.321,14.321,0,0,0,3.54-1.057,29.584,29.584,0,0,0,2.906-1.426h4.332v20.867h4.755v4.754h-16.324v.211Z" transform="translate(-505.103 -662.64)" fill="#020304"/>
                  <path id="Oranje_-_2" d="M996.923,1500.134v-3.328c1.638-1.426,3.117-2.906,4.543-4.332s2.483-2.483,3.539-3.7a28.443,28.443,0,0,0,2.272-3.328,6.188,6.188,0,0,0,.845-2.906,3.972,3.972,0,0,0-1.057-2.906,3.622,3.622,0,0,0-2.694-1.057,3.327,3.327,0,0,0-2.483.845c-.634.634-1.426,1.215-2.06,1.849l-3.328-3.117a13.946,13.946,0,0,1,3.909-3.117,8.85,8.85,0,0,1,4.755-1.057,10.213,10.213,0,0,1,3.539.634,14.122,14.122,0,0,1,2.694,1.638,6.012,6.012,0,0,1,1.638,2.483,8.879,8.879,0,0,1,.634,3.328,9.083,9.083,0,0,1-.634,3.328,15.753,15.753,0,0,1-1.849,3.328,41.156,41.156,0,0,1-2.694,3.328c-1.057,1.057-2.06,2.272-3.117,3.328.634,0,1.426-.211,2.06-.211h7.237v4.966Z" transform="translate(-503.405 -717.014)" fill="#020304"/>
                  <path id="Oranje_-_3" d="M1005.028,1628.072a13.429,13.429,0,0,1-5.388-1.057,7.775,7.775,0,0,1-3.539-2.694l2.694-3.7a10.479,10.479,0,0,0,2.483,1.849,7.043,7.043,0,0,0,3.117.845,5.068,5.068,0,0,0,3.117-.845,2.441,2.441,0,0,0,1.057-2.272,2.626,2.626,0,0,0-.211-1.426,3.905,3.905,0,0,0-1.057-1.215,9.936,9.936,0,0,0-2.06-.845,15.754,15.754,0,0,0-3.539-.211v-4.121a10.787,10.787,0,0,0,2.906-.211,10.9,10.9,0,0,0,1.849-.634,2.543,2.543,0,0,0,1.057-1.057,3.353,3.353,0,0,0,.211-1.426,2.254,2.254,0,0,0-.845-2.06,3.868,3.868,0,0,0-2.272-.845,5.26,5.26,0,0,0-2.483.634,17.74,17.74,0,0,0-2.272,1.638l-2.906-3.7a21.547,21.547,0,0,1,3.7-2.483,9.481,9.481,0,0,1,4.332-.845,16.2,16.2,0,0,1,3.539.423,8.243,8.243,0,0,1,2.694,1.426,6.39,6.39,0,0,1,1.849,2.272,6.851,6.851,0,0,1,.634,2.906,6.463,6.463,0,0,1-1.057,3.539,12.123,12.123,0,0,1-3.117,2.272v.211a8.389,8.389,0,0,1,3.7,2.272,5.639,5.639,0,0,1,1.426,4.121,5.068,5.068,0,0,1-.845,3.117,7.086,7.086,0,0,1-2.06,2.272,11.123,11.123,0,0,1-3.117,1.426,15.568,15.568,0,0,1-3.592.423" transform="translate(-503.216 -777.121)" fill="#020304"/>
                  <path id="Oranje_-_4" d="M1006.947,1747.033v-6.181H995.8v-4.121l9.3-15.531h7.237v14.9h2.906v4.543h-2.906v6.181h-5.388Zm-5.388-10.724h5.388v-7.026c0-1.057.211-2.06.211-2.906h-.211c-.423.634-.634,1.426-1.057,2.06-.423.845-.634,1.426-1.057,2.272Z" transform="translate(-503.075 -833.639)" fill="#020304"/>
                  <path id="Turqoise_-_2" d="M1339.123,611.334v-3.328c1.638-1.426,3.117-2.906,4.543-4.332s2.483-2.483,3.54-3.7a28.477,28.477,0,0,0,2.272-3.328,6.19,6.19,0,0,0,.845-2.906,3.973,3.973,0,0,0-1.057-2.906,3.622,3.622,0,0,0-2.694-1.057,3.327,3.327,0,0,0-2.483.845c-.634.634-1.426,1.215-2.06,1.849l-3.328-3.117a13.948,13.948,0,0,1,3.909-3.117,8.849,8.849,0,0,1,4.754-1.057,10.214,10.214,0,0,1,3.54.634,14.115,14.115,0,0,1,2.694,1.638,6.011,6.011,0,0,1,1.638,2.483,8.878,8.878,0,0,1,.634,3.328,9.081,9.081,0,0,1-.634,3.328,15.751,15.751,0,0,1-1.849,3.328,41.156,41.156,0,0,1-2.694,3.328c-1.057,1.057-2.06,2.272-3.117,3.328.634,0,1.426-.211,2.06-.211h7.237v4.966Z" transform="translate(-664.828 -297.748)" fill="#020304"/>
                  <path id="Turqoise_-_3" d="M1431.028,528.272a13.431,13.431,0,0,1-5.388-1.057,7.775,7.775,0,0,1-3.54-2.694l2.694-3.7a10.478,10.478,0,0,0,2.483,1.849,7.041,7.041,0,0,0,3.117.845,5.068,5.068,0,0,0,3.117-.845,2.441,2.441,0,0,0,1.057-2.272,2.626,2.626,0,0,0-.211-1.426,3.906,3.906,0,0,0-1.057-1.215,9.945,9.945,0,0,0-2.06-.845,15.757,15.757,0,0,0-3.539-.211v-4.121a10.786,10.786,0,0,0,2.906-.211,10.9,10.9,0,0,0,1.849-.634,2.543,2.543,0,0,0,1.057-1.057,3.354,3.354,0,0,0,.211-1.426,2.254,2.254,0,0,0-.845-2.06,3.868,3.868,0,0,0-2.271-.845,5.258,5.258,0,0,0-2.483.634,17.756,17.756,0,0,0-2.272,1.638l-2.906-3.7a21.558,21.558,0,0,1,3.7-2.483,9.483,9.483,0,0,1,4.332-.845,16.2,16.2,0,0,1,3.54.423,8.244,8.244,0,0,1,2.694,1.426,6.392,6.392,0,0,1,1.849,2.272,6.852,6.852,0,0,1,.634,2.906,6.464,6.464,0,0,1-1.057,3.539,12.118,12.118,0,0,1-3.117,2.272v.211a8.39,8.39,0,0,1,3.7,2.272,5.639,5.639,0,0,1,1.426,4.121,5.069,5.069,0,0,1-.845,3.117,7.086,7.086,0,0,1-2.06,2.272,11.126,11.126,0,0,1-3.117,1.426,11.366,11.366,0,0,1-3.592.423" transform="translate(-704.169 -258.322)" fill="#020304"/>
                  <path id="Turqoise_-_4" d="M1521.447,439.733v-6.181H1510.3v-4.121l9.3-15.531h7.237v14.845h2.906v4.543h-2.906v6.181h-5.388Zm-5.389-10.777h5.388V421.93c0-1.057.211-2.06.211-2.906h-.211c-.423.634-.634,1.426-1.057,2.06-.423.845-.634,1.426-1.057,2.272Z" transform="translate(-745.775 -216.958)" fill="#020304"/>
                  <path id="Blue_-_2" d="M657.123,610.134v-3.328c1.638-1.426,3.117-2.906,4.543-4.332s2.483-2.483,3.539-3.7a28.444,28.444,0,0,0,2.272-3.328,6.188,6.188,0,0,0,.845-2.906,3.972,3.972,0,0,0-1.057-2.906,3.622,3.622,0,0,0-2.694-1.057,3.328,3.328,0,0,0-2.483.845c-.634.634-1.426,1.215-2.06,1.849l-3.328-3.117a13.945,13.945,0,0,1,3.909-3.117,8.849,8.849,0,0,1,4.755-1.057,10.212,10.212,0,0,1,3.539.634,14.115,14.115,0,0,1,2.694,1.638,6.013,6.013,0,0,1,1.638,2.483,8.879,8.879,0,0,1,.634,3.328,9.082,9.082,0,0,1-.634,3.328,15.75,15.75,0,0,1-1.849,3.328,41.134,41.134,0,0,1-2.694,3.328c-1.057,1.057-2.06,2.272-3.117,3.328.634,0,1.426-.211,2.06-.211h7.237v4.966Z" transform="translate(-343.114 -297.182)" fill="#020304"/>
                  <path id="Blue_-_3" d="M575.928,521.572a13.431,13.431,0,0,1-5.388-1.057A7.775,7.775,0,0,1,567,517.821l2.694-3.7a10.481,10.481,0,0,0,2.483,1.849,7.041,7.041,0,0,0,3.117.845,5.068,5.068,0,0,0,3.117-.845,2.441,2.441,0,0,0,1.057-2.272,2.626,2.626,0,0,0-.211-1.426,3.907,3.907,0,0,0-1.057-1.215,9.948,9.948,0,0,0-2.06-.845A15.755,15.755,0,0,0,572.6,510v-4.121a9.473,9.473,0,0,0,4.755-.845,2.543,2.543,0,0,0,1.057-1.057,3.354,3.354,0,0,0,.211-1.426,2.254,2.254,0,0,0-.845-2.06,3.868,3.868,0,0,0-2.272-.845,5.258,5.258,0,0,0-2.483.634,17.747,17.747,0,0,0-2.272,1.638l-2.906-3.7a21.552,21.552,0,0,1,3.7-2.483,9.482,9.482,0,0,1,4.332-.845,16.2,16.2,0,0,1,3.539.423,8.243,8.243,0,0,1,2.694,1.426,6.39,6.39,0,0,1,1.849,2.272,6.853,6.853,0,0,1,.634,2.906,6.464,6.464,0,0,1-1.057,3.539,12.116,12.116,0,0,1-3.117,2.272v.211a8.39,8.39,0,0,1,3.7,2.272,5.639,5.639,0,0,1,1.426,4.121,5.068,5.068,0,0,1-.845,3.117,7.085,7.085,0,0,1-2.06,2.272,11.125,11.125,0,0,1-3.117,1.426,19.664,19.664,0,0,1-3.592.423" transform="translate(-300.8 -255.161)" fill="#020304"/>
                  <path id="Blue_-_4" d="M489.747,433.033v-6.181H478.6v-4.121l9.3-15.531h7.237v14.9h2.906v4.543h-2.906v6.181h-5.388Zm-5.388-10.513h5.388v-7.026c0-1.057.211-2.06.211-2.906h-.211c-.423.634-.634,1.426-1.057,2.06-.423.845-.634,1.426-1.057,2.272Z" transform="translate(-259.1 -213.797)" fill="#020304"/>
                  <path id="Path_320" d="M320.531,458.613l-10.354-7.871-2.694,3.539L305,452.432l7.449-9.932,2.483,1.849-2.694,3.539,10.354,7.871Z" transform="translate(-177.209 -230.449)" fill="#020304"/>
                  <path id="Path_321" d="M341.946,442.373a6.017,6.017,0,0,1-1.638,1.426,4.1,4.1,0,0,1-2.06.634,9.664,9.664,0,0,1-2.483-.211,8.354,8.354,0,0,1-2.483-1.215,5.337,5.337,0,0,1-1.849-2.06,11.758,11.758,0,0,1-.845-2.272,8.288,8.288,0,0,1,.211-2.272,6.361,6.361,0,0,1,1.057-2.06,6.018,6.018,0,0,1,1.638-1.426,4.1,4.1,0,0,1,2.06-.634,6.646,6.646,0,0,1,2.272.211,8.356,8.356,0,0,1,2.483,1.215,5.338,5.338,0,0,1,1.849,2.06,11.759,11.759,0,0,1,.845,2.272,8.284,8.284,0,0,1-.211,2.272,2.711,2.711,0,0,1-.845,2.06m-2.272-1.849a2.143,2.143,0,0,0,.423-1.849,4.835,4.835,0,0,0-1.638-2.06,7.876,7.876,0,0,0-2.272-1.215,2.907,2.907,0,0,0-1.849.634,2.143,2.143,0,0,0-.423,1.849,4.835,4.835,0,0,0,1.638,2.06,7.874,7.874,0,0,0,2.272,1.215,1.537,1.537,0,0,0,1.849-.634" transform="translate(-189.273 -225.62)" fill="#020304"/>
                  <path id="Path_322" d="M360.323,421.079a13.257,13.257,0,0,1-1.849,1.638,4.339,4.339,0,0,1-2.272.634,3.747,3.747,0,0,1-2.272-.423,5.715,5.715,0,0,1-2.272-1.426,5.173,5.173,0,0,1-1.638-2.06,4.339,4.339,0,0,1-.634-2.272,8.286,8.286,0,0,1,.211-2.272,4.966,4.966,0,0,1,1.057-1.849,11.549,11.549,0,0,1,1.849-1.426,5.524,5.524,0,0,1,2.06-.423,6.815,6.815,0,0,1,2.06.423,8.6,8.6,0,0,1,1.849,1.215l.634.634.423.423-4.755,5.6a3.124,3.124,0,0,0,2.272.423A5.359,5.359,0,0,0,358.9,418.7a3.352,3.352,0,0,0,1.057-2.483l2.483.423a4.339,4.339,0,0,1-.634,2.272,7.192,7.192,0,0,1-1.479,2.166m-7.449-3.117,2.906-3.328a6.889,6.889,0,0,0-1.638-.845,1.509,1.509,0,0,0-1.426.845,2.36,2.36,0,0,0-.634,1.426,1.967,1.967,0,0,0,.792,1.9" transform="translate(-198.142 -215.684)" fill="#020304"/>
                  <path id="Path_323" d="M373.952,403.032a3.856,3.856,0,0,1-3.117,1.638,4.42,4.42,0,0,1-1.638-.423,6.684,6.684,0,0,1-1.638-1.057l-3.7-3.275-1.057,1.215-2.06-1.849,1.215-1.426-2.06-2.483,2.06-2.272,2.483,2.272,1.849-2.06,2.06,1.849-1.849,2.06,3.539,3.328a2.36,2.36,0,0,0,1.426.634,1.162,1.162,0,0,0,1.057-.634l.423-.423a.842.842,0,0,0,.211-.634l2.272,1.426a4.318,4.318,0,0,0-.634,1.057c-.211.423-.634.634-.845,1.057" transform="translate(-203.107 -207.146)" fill="#020304"/>
                  <path id="Path_324" d="M389.042,389.235a6.866,6.866,0,0,1-2.06,1.426,13.756,13.756,0,0,1-2.483.845l-.423-2.694c.634-.211,1.215-.211,1.849-.423.423-.211,1.057-.423,1.215-.845a1.975,1.975,0,0,0,.634-1.057,1.2,1.2,0,0,0-.211-.845,1.03,1.03,0,0,0-1.215,0,1.83,1.83,0,0,0-.845.423c-.211.211-.634.211-.845.423a3.333,3.333,0,0,1-1.215.423,3.989,3.989,0,0,1-2.483,0l-1.215-.634a4.585,4.585,0,0,1-.845-1.215,3.355,3.355,0,0,1-.211-1.426A5.752,5.752,0,0,1,379.11,382a6.684,6.684,0,0,1,1.057-1.638,4.3,4.3,0,0,1,2.06-1.426c.634-.211,1.426-.423,2.06-.634l.423,2.694a2.657,2.657,0,0,0-1.426.423,2.055,2.055,0,0,0-1.057.845c-.634.634-.634,1.215-.211,1.638.211.211.211.211.423.211a.726.726,0,0,0,.634-.211c.211,0,.423-.211.845-.423.211-.211.634-.211.845-.423a3.334,3.334,0,0,1,1.215-.423,3.989,3.989,0,0,1,2.483,0,3.6,3.6,0,0,1,2.06,2.06,3.353,3.353,0,0,1,.211,1.426,4.418,4.418,0,0,1-.423,1.638,4.3,4.3,0,0,1-1.268,1.479" transform="translate(-211.963 -200.164)" fill="#020304"/>
                  <path id="Path_325" d="M405.343,373.4a16.742,16.742,0,0,1-5.388-2.06A25.859,25.859,0,0,1,395.2,367.8a19.559,19.559,0,0,1-3.539-4.755,23.68,23.68,0,0,1-2.06-5.388l2.272-1.057a17.04,17.04,0,0,0,2.06,4.966,31.525,31.525,0,0,0,3.328,4.121,35.476,35.476,0,0,0,4.121,3.328,12.889,12.889,0,0,0,4.966,2.06Z" transform="translate(-217.117 -189.928)" fill="#020304"/>
                  <path id="Path_326" d="M416.088,359.035a3.825,3.825,0,0,1-1.638,1.057,4.376,4.376,0,0,1-1.638.211,2.458,2.458,0,0,1-1.638-.634,3.984,3.984,0,0,1-1.426-1.215l-3.539-3.539-1.215,1.215-1.849-1.849,1.215-1.426-2.06-2.694,2.06-2.06,2.272,2.272,2.06-2.06,2.06,2.06-2.06,2.06,3.539,3.539a2.658,2.658,0,0,0,1.426.845,1.678,1.678,0,0,0,1.057-.423l.423-.423a.652.652,0,0,0,.211-.423l2.272,1.426a4.32,4.32,0,0,0-.634,1.057,3.445,3.445,0,0,1-.9,1" transform="translate(-223.108 -185.918)" fill="#020304"/>
                  <path id="Path_327" d="M431.426,347.145a4.584,4.584,0,0,1-1.215.845,3.353,3.353,0,0,1-1.426.211,2.583,2.583,0,0,1-1.215-.423,3.35,3.35,0,0,1-1.215-.845,3.937,3.937,0,0,1-.845-3.328,13.358,13.358,0,0,1,2.906-4.543,1.833,1.833,0,0,0-1.215-.634,2.36,2.36,0,0,0-1.426.634c-.423.423-.634.845-1.057,1.215-.264.528-.423,1.109-.634,1.638l-2.483-.845a11.322,11.322,0,0,1,1.057-2.483,7.831,7.831,0,0,1,1.638-2.06,4.532,4.532,0,0,1,7.237.845l4.754,5.177-2.272,2.06-1.057-.845a5.547,5.547,0,0,1-.423,1.849,5.72,5.72,0,0,1-1.109,1.532m-1.057-2.906c.211-.211.423-.634.634-.845,0-.423.211-.845.211-1.215l-1.426-1.638a10.243,10.243,0,0,0-1.426,2.272,1.707,1.707,0,0,0,.211,1.426,1.61,1.61,0,0,0,.845.423.919.919,0,0,0,.951-.423" transform="translate(-232.212 -179.786)" fill="#020304"/>
                  <path id="Path_328" d="M445.447,329.035,434.3,315.987l2.694-2.272,6.392,7.449-.211-6.181,2.906-2.483v6.6l8.083,2.483-2.906,2.483-5.177-1.849v2.272l1.849,2.272Z" transform="translate(-238.203 -169.125)" fill="#020304"/>
                  <path id="Path_329" d="M470.72,314.392l-2.272.634a15.191,15.191,0,0,0-1.638-5.177,21.446,21.446,0,0,0-2.906-4.543,15.8,15.8,0,0,0-3.751-3.751,16.989,16.989,0,0,0-4.754-2.694l1.215-2.06a24.525,24.525,0,0,1,5.177,2.483,16.093,16.093,0,0,1,4.332,4.121,15.247,15.247,0,0,1,3.117,5.177c.634,2.06,1.057,3.909,1.479,5.811" transform="translate(-248.156 -161.719)" fill="#020304"/>
                  <path id="Path_330" d="M489.689,298.805a5.008,5.008,0,0,1-2.272,1.057,8.284,8.284,0,0,1-2.272.211,5.179,5.179,0,0,1-2.272-.845,7.627,7.627,0,0,1-2.06-1.849A6.414,6.414,0,0,1,479.6,294.9a9.663,9.663,0,0,1-.211-2.483,6.689,6.689,0,0,1,.634-2.06,5.329,5.329,0,0,1,1.426-1.638,5.109,5.109,0,0,1,2.06-1.057,3.427,3.427,0,0,1,2.06,0,8.324,8.324,0,0,1,1.849.845,6.039,6.039,0,0,1,1.638,1.638,2.543,2.543,0,0,1,.634.845c.211.211.211.423.423.634l-5.811,4.332a2.967,2.967,0,0,0,4.121,0,6.938,6.938,0,0,0,1.638-2.272l2.272,1.057a9.481,9.481,0,0,1-1.057,2.06,5.255,5.255,0,0,1-1.585,2.007m-6.815-4.543,3.539-2.694a2.4,2.4,0,0,0-1.426-1.057,1.7,1.7,0,0,0-1.638.423,2.232,2.232,0,0,0-.845,1.426,2.609,2.609,0,0,0,.37,1.9" transform="translate(-259.465 -157.332)" fill="#020304"/>
                  <path id="Path_331" d="M504.726,285.334l-7.026-9.879,2.483-1.638,1.057,1.057c.211-.634.423-1.426.634-2.06a3.6,3.6,0,0,1,1.426-1.638,3.077,3.077,0,0,1,3.117-.634,7.775,7.775,0,0,1,2.906,2.483l4.332,6.181-2.906,2.06-4.121-5.811c-.423-.634-1.057-1.215-1.426-1.215a1.248,1.248,0,0,0-1.215.211,2.361,2.361,0,0,0-.845,1.057c-.211.423-.211.845-.423,1.215l4.754,6.6Z" transform="translate(-268.11 -149.25)" fill="#020304"/>
                  <path id="Path_332" d="M1474.6,257.243l7.026-10.777-3.7-2.483,1.638-2.483,10.354,6.815-1.638,2.483-3.7-2.483-7.026,10.777Z" transform="translate(-728.935 -135.633)" fill="#020304"/>
                  <path id="Path_333" d="M1495.341,277.116a6.041,6.041,0,0,1-1.638-1.638,8.889,8.889,0,0,1-.845-2.06,4.942,4.942,0,0,1,0-2.483,8.356,8.356,0,0,1,1.215-2.483,7.678,7.678,0,0,1,1.849-1.849,4.6,4.6,0,0,1,2.271-.845,4.15,4.15,0,0,1,2.272,0,5.866,5.866,0,0,1,2.06.845,6.039,6.039,0,0,1,1.638,1.638,5.864,5.864,0,0,1,.845,2.06,4.942,4.942,0,0,1,0,2.483,8.356,8.356,0,0,1-1.215,2.483,7.68,7.68,0,0,1-1.849,1.849,4.6,4.6,0,0,1-2.272.845,4.15,4.15,0,0,1-2.272,0,7.063,7.063,0,0,1-2.06-.845m1.638-2.483a2.088,2.088,0,0,0,1.849.211,4.629,4.629,0,0,0,1.849-1.638,4.763,4.763,0,0,0,1.057-2.483,1.782,1.782,0,0,0-.845-1.638,2.088,2.088,0,0,0-1.849-.211,4.628,4.628,0,0,0-1.849,1.638,4.764,4.764,0,0,0-1.057,2.483,1.64,1.64,0,0,0,.845,1.638" transform="translate(-737.473 -147.001)" fill="#020304"/>
                  <path id="Path_334" d="M1518.116,293.21a7.776,7.776,0,0,1-1.638-1.849,6.938,6.938,0,0,1-.845-2.272,4.944,4.944,0,0,1,.211-2.483,8.356,8.356,0,0,1,1.215-2.483,5.337,5.337,0,0,1,2.06-1.849,11.759,11.759,0,0,1,2.271-.845,8.181,8.181,0,0,1,2.272,0,5.866,5.866,0,0,1,2.06.845,6.039,6.039,0,0,1,1.638,1.638,3.875,3.875,0,0,1,.634,1.849,3.916,3.916,0,0,1-.423,2.06,9.481,9.481,0,0,1-1.057,2.06l-.634.634-.423.423-5.811-4.332a3.083,3.083,0,0,0-.211,2.272,2.58,2.58,0,0,0,1.215,1.638,3.825,3.825,0,0,0,2.483.845l-.423,2.483a8.225,8.225,0,0,1-2.272-.423,1.788,1.788,0,0,1-2.324-.211m2.483-7.66,3.54,2.694a3.143,3.143,0,0,0,.634-1.638,1.509,1.509,0,0,0-.845-1.426,2.064,2.064,0,0,0-1.426-.423c-.845-.211-1.268.211-1.9.792" transform="translate(-748.256 -154.431)" fill="#020304"/>
                  <path id="Path_335" d="M1538.129,305.633a3.856,3.856,0,0,1-1.638-3.117,2.551,2.551,0,0,1,.423-1.638c.423-.634.634-1.057,1.056-1.638l3.117-3.909-1.215-1.057,1.638-2.06,1.638,1.057,2.271-2.272,2.272,1.849-2.06,2.483,2.272,1.849-1.638,2.272-2.272-1.849-3.117,3.909a2.5,2.5,0,0,0-.634,1.426,1.162,1.162,0,0,0,.634,1.057c.211.211.423.211.423.423.211,0,.423.211.634.211l-1.215,2.483c-.423-.211-.634-.211-1.057-.423a8.668,8.668,0,0,1-1.532-1.057" transform="translate(-758.125 -158.983)" fill="#020304"/>
                  <path id="Path_336" d="M1550.683,320.077a7.771,7.771,0,0,1-1.638-1.849,6.938,6.938,0,0,1-.845-2.272l2.694-.634a8.767,8.767,0,0,0,.634,1.638,3.905,3.905,0,0,0,1.057,1.215,1.975,1.975,0,0,0,1.057.634.816.816,0,0,0,.845-.423,1.03,1.03,0,0,0,0-1.215c-.211-.211-.211-.423-.423-.845a1.608,1.608,0,0,1-.423-.845,4.32,4.32,0,0,0-.634-1.057c-.211-.423-.211-.845-.423-1.215v-1.215a1.723,1.723,0,0,1,.634-1.215,7.567,7.567,0,0,1,1.215-1.057,4.881,4.881,0,0,1,1.426-.423,4.418,4.418,0,0,1,1.638.423,6.682,6.682,0,0,1,1.638,1.057,13.249,13.249,0,0,1,1.638,1.849,8.877,8.877,0,0,1,.845,2.06l-2.694.634a14.6,14.6,0,0,0-.423-1.426,2.056,2.056,0,0,0-.845-1.057c-.634-.634-1.215-.634-1.638-.211a.652.652,0,0,0-.211.423.726.726,0,0,0,.211.634c0,.211.211.423.423.845a1.61,1.61,0,0,1,.423.845,4.321,4.321,0,0,0,.634,1.057c.211.423.211.845.423,1.215v1.215c0,.423-.423.845-.634,1.215a3.328,3.328,0,0,1-1.215,1.057,4.88,4.88,0,0,1-1.426.423,4.419,4.419,0,0,1-1.638-.423,15.55,15.55,0,0,1-2.324-1.057" transform="translate(-763.654 -167.616)" fill="#020304"/>
                  <path id="Path_337" d="M1560,334.426l10.988-12.626,2.271,1.849-.634,1.057a5.384,5.384,0,0,1,1.849.211,4.05,4.05,0,0,1,1.638.845,3.356,3.356,0,0,1,1.215,1.638,2.791,2.791,0,0,1,.211,1.849,3.642,3.642,0,0,1-.634,2.06,14.256,14.256,0,0,1-1.426,2.06,7.627,7.627,0,0,1-2.06,1.849,11.759,11.759,0,0,1-2.272.845,3.438,3.438,0,0,1-2.06-.211,4.05,4.05,0,0,1-1.638-.845,4.584,4.584,0,0,1-.845-1.215,3.6,3.6,0,0,1-.423-1.638l-1.215,1.426-2.271,2.694Zm8.875-1.638a1.7,1.7,0,0,0,1.638.423,5.048,5.048,0,0,0,2.272-1.638c1.426-1.638,1.638-2.906.634-3.909a3.9,3.9,0,0,0-2.271-.634l-3.328,3.7a1.678,1.678,0,0,0,.423,1.057,4.017,4.017,0,0,0,.634,1" transform="translate(-769.22 -173.512)" fill="#020304"/>
                  <path id="Path_338" d="M1587,350.775l8.294-8.875,2.06,2.06-1.215,1.638a4.943,4.943,0,0,1,2.483-.211,8.323,8.323,0,0,1,1.849.845l.634.634c.211.211.211.423.423.634l-2.483,1.849c-.211-.211-.211-.423-.423-.634s-.211-.423-.423-.423c-.423-.423-.845-.423-1.426-.634a3.916,3.916,0,0,0-2.06.423l-4.755,5.177Z" transform="translate(-781.956 -182.994)" fill="#020304"/>
                  <path id="Path_339" d="M1607.026,369.815a5.361,5.361,0,0,1-1.215-1.849,4.174,4.174,0,0,1-.423-2.272,8.231,8.231,0,0,1,.423-2.272,8.747,8.747,0,0,1,3.909-3.909,4.838,4.838,0,0,1,2.272-.423,8.224,8.224,0,0,1,2.272.423,5.643,5.643,0,0,1,3.117,3.117,6.711,6.711,0,0,1,0,4.543,5.049,5.049,0,0,1-1.638,2.272,8.572,8.572,0,0,1-2.272,1.638,4.838,4.838,0,0,1-2.272.423,10.786,10.786,0,0,1-2.272-.423,3.231,3.231,0,0,1-1.9-1.268m2.06-2.06a2.143,2.143,0,0,0,1.849.423,6.369,6.369,0,0,0,2.272-1.426,4.305,4.305,0,0,0,1.426-2.272,1.682,1.682,0,0,0-.634-1.849,1.636,1.636,0,0,0-1.849-.423,4.064,4.064,0,0,0-2.06,1.426,4.306,4.306,0,0,0-1.426,2.272c-.211.792-.211,1.426.423,1.849" transform="translate(-790.624 -191.099)" fill="#020304"/>
                  <path id="Path_340" d="M1618.107,392.081c-.423-.634-.845-1.057-1.215-1.638a3.143,3.143,0,0,1-.634-1.638,1.682,1.682,0,0,1,0-1.426,3.349,3.349,0,0,1,.845-1.215,2.774,2.774,0,0,1,2.906-.423v-1.321a1.7,1.7,0,0,1,.634-1.057,5.321,5.321,0,0,1,1.215-.634h1.426a5.575,5.575,0,0,1,.211-1.638,2.875,2.875,0,0,1,1.057-1.638,7.851,7.851,0,0,1,1.638-1.057,5.384,5.384,0,0,1,1.849-.211,2.273,2.273,0,0,1,1.638.634,4.587,4.587,0,0,1,1.426,1.215,7.855,7.855,0,0,1,1.057,1.638l3.117,3.328-1.849,1.849-1.215-1.426c0,.211-.211.423-.211.634l-.634.634a5.436,5.436,0,0,1-1.638,1.057,4.376,4.376,0,0,1-1.638.211,2.458,2.458,0,0,1-1.638-.634,3.985,3.985,0,0,1-1.426-1.215,4.59,4.59,0,0,1-.845-1.215h-.634c-.211,0-.211.211-.423.211-.211.211-.211.423-.211.845s.423.634.845,1.215l1.426,1.426a7.028,7.028,0,0,1,1.849,2.906,2.994,2.994,0,0,1-2.483,3.328,2.776,2.776,0,0,1-1.849,0,8.886,8.886,0,0,1-2.06-.845,6.692,6.692,0,0,1-2.536-1.9m2.06-1.268a4.164,4.164,0,0,0,1.638,1.215c.634.211,1.057.211,1.215-.211.211-.211.423-.634.211-.845a9.941,9.941,0,0,0-.845-1.215l-.845-.845c-.211-.211-.634-.634-.634-.845-.211-.211-.211-.423-.423-.634-.634,0-1.057,0-1.215.423a.918.918,0,0,0-.211,1.215,3.331,3.331,0,0,0,1.109,1.743m6.392-6.181a1.307,1.307,0,0,0,1.215.423,1.887,1.887,0,0,0,1.426-.634,3.934,3.934,0,0,0,.845-1.426,2.585,2.585,0,0,0-.423-1.215,2.694,2.694,0,0,0-1.215-.634c-.634-.211-.845.211-1.426.634a2.658,2.658,0,0,0-.845,1.426,1.365,1.365,0,0,0,.423,1.426" transform="translate(-795.683 -200.105)" fill="#020304"/>
                  <path id="Path_341" d="M1639.8,404.283l9.086-8.083,2.06,2.272-1.426,1.638a4.941,4.941,0,0,1,2.483,0,4.17,4.17,0,0,1,1.638,1.057l.634.634a.842.842,0,0,1,.211.634l-2.694,1.638c-.211-.211-.211-.423-.423-.634s-.211-.423-.423-.634c-.211-.423-.845-.634-1.215-.845a3.9,3.9,0,0,0-2.06.211l-5.177,4.755Z" transform="translate(-806.863 -208.608)" fill="#020304"/>
                  <path id="Path_342" d="M1655.344,422.256a4.582,4.582,0,0,1-.845-1.215,3.354,3.354,0,0,1-.211-1.426,2.582,2.582,0,0,1,.423-1.215,3.924,3.924,0,0,1,.845-1.057,3.311,3.311,0,0,1,3.328-.634,14.826,14.826,0,0,1,4.543,3.117,1.833,1.833,0,0,0,.634-1.215,2.36,2.36,0,0,0-.634-1.426,7.566,7.566,0,0,0-1.215-1.057,9.6,9.6,0,0,1-1.638-.845l1.057-2.483a11.321,11.321,0,0,1,2.483,1.057,5.791,5.791,0,0,1,2.06,1.849,4.38,4.38,0,0,1,1.215,3.539,6.071,6.071,0,0,1-2.272,3.7l-5.388,4.543-1.849-2.272.845-1.057a2.907,2.907,0,0,1-1.849-.634,9.76,9.76,0,0,1-1.532-1.268m2.906-1.057c.211.211.634.423.845.634a1.933,1.933,0,0,0,1.215.211l1.638-1.426c-1.057-.845-1.638-1.426-2.272-1.426a1.707,1.707,0,0,0-1.426.211,1.609,1.609,0,0,0-.423.845.92.92,0,0,0,.423.951" transform="translate(-813.691 -216.439)" fill="#020304"/>
                  <path id="Path_343" d="M1670,439.349l9.509-7.449,1.849,2.272-1.057,1.215a6.815,6.815,0,0,1,2.06.423,2.944,2.944,0,0,1,1.638,1.215,2.711,2.711,0,0,1,.845,2.06,3.2,3.2,0,0,1-.423,1.849,8.228,8.228,0,0,1,2.271.423,5.359,5.359,0,0,1,1.849,1.215,3.708,3.708,0,0,1,.845,3.117,5,5,0,0,1-2.272,2.906l-6.022,4.755-2.272-2.906,5.6-4.332a6.219,6.219,0,0,0,1.215-1.426c.211-.423,0-.845-.423-1.215a2.982,2.982,0,0,0-2.272-.845l-6.392,5.177-2.271-2.906,5.6-4.332a6.216,6.216,0,0,0,1.215-1.426c.211-.423,0-.845-.423-1.215a2.982,2.982,0,0,0-2.272-.845l-6.392,5.177Z" transform="translate(-821.109 -225.449)" fill="#020304"/>
                  <path id="Path_344" d="M1695.8,472.626l9.932-7.026,1.638,2.483-1.057,1.057a6.689,6.689,0,0,1,2.06.634,2.59,2.59,0,0,1,1.638,1.426,4.182,4.182,0,0,1,.845,2.06,5.544,5.544,0,0,1-.423,1.849,6.691,6.691,0,0,1,2.06.634,2.59,2.59,0,0,1,1.638,1.426,3.077,3.077,0,0,1,.634,3.117,7.775,7.775,0,0,1-2.483,2.906l-6.181,4.332-2.06-2.906,5.811-4.121a3.532,3.532,0,0,0,1.215-1.215,1.248,1.248,0,0,0-.211-1.215,4.28,4.28,0,0,0-2.06-1.057l-6.6,4.755-2.06-2.906,5.811-4.121a3.533,3.533,0,0,0,1.215-1.215,1.248,1.248,0,0,0-.211-1.215,4.279,4.279,0,0,0-2.06-1.057l-6.6,4.754Z" transform="translate(-833.279 -241.346)" fill="#020304"/>
                  <path id="Path_345" d="M1721.834,509.934c-.211-.423-.423-1.057-.634-1.426v-1.426c.211-.423.211-.845.634-1.215.211-.423.634-.634,1.057-1.057a3.277,3.277,0,0,1,3.328-.211,11.1,11.1,0,0,1,4.121,3.539,4.138,4.138,0,0,0,.845-1.057c.211-.423,0-.845-.423-1.426a3.906,3.906,0,0,0-1.057-1.215,17.323,17.323,0,0,0-1.638-1.057l1.215-2.483a9.161,9.161,0,0,1,2.272,1.426,17.155,17.155,0,0,1,1.849,2.06,4.285,4.285,0,0,1,.845,3.7c-.211,1.215-1.215,2.272-2.906,3.328l-5.811,3.7-1.638-2.483.845-.845a8.326,8.326,0,0,1-1.849-.845c-.211,0-.634-.37-1.057-1m2.906-.423a1.651,1.651,0,0,0,.845.845c.211.211.634.211,1.215.423l1.849-1.215a5.338,5.338,0,0,0-2.06-1.849,1.683,1.683,0,0,0-1.426,0c-.423.211-.423.423-.634.845s0,.528.211.951" transform="translate(-845.261 -257.997)" fill="#020304"/>
                  <path id="Path_346" d="M1700.143,1510.235l-10.566-8.083-2.694,3.54-2.483-1.849,7.66-10.143,2.483,1.849-2.694,3.539,10.565,8.083Z" transform="translate(-827.902 -726.322)" fill="#020304"/>
                  <path id="Path_347" d="M1721.346,1493.624a6.042,6.042,0,0,1-1.638,1.638,8.9,8.9,0,0,1-2.06.845,4.943,4.943,0,0,1-2.483-.211,8.355,8.355,0,0,1-2.483-1.215,5.338,5.338,0,0,1-1.849-2.06,5.178,5.178,0,0,1-.845-2.272,8.285,8.285,0,0,1,.211-2.272,6.36,6.36,0,0,1,1.057-2.06,6.039,6.039,0,0,1,1.638-1.638,8.9,8.9,0,0,1,2.06-.845,4.943,4.943,0,0,1,2.483.211,8.354,8.354,0,0,1,2.483,1.215,5.338,5.338,0,0,1,1.849,2.06,5.181,5.181,0,0,1,.845,2.272,4.2,4.2,0,0,1-.211,2.272,5.451,5.451,0,0,1-1.057,2.06m-2.272-1.849a2.088,2.088,0,0,0,.211-1.849,6.891,6.891,0,0,0-1.638-2.06,4.765,4.765,0,0,0-2.483-1.057,2.078,2.078,0,0,0-1.849.845,1.523,1.523,0,0,0-.211,1.849,5.338,5.338,0,0,0,1.849,2.06,4.763,4.763,0,0,0,2.483,1.057,1.35,1.35,0,0,0,1.638-.845h0" transform="translate(-839.966 -721.491)" fill="#020304"/>
                  <path id="Path_348" d="M1737.45,1470.721a7.773,7.773,0,0,1-1.638,1.849,7.423,7.423,0,0,1-2.272,1.057,4.945,4.945,0,0,1-2.483,0,8.355,8.355,0,0,1-2.483-1.215,23.269,23.269,0,0,1-2.06-1.849,5.009,5.009,0,0,1-1.057-2.272,4.15,4.15,0,0,1,0-2.272,5.868,5.868,0,0,1,.845-2.06,4.072,4.072,0,0,1,1.638-1.638,3.522,3.522,0,0,1,2.06-.634,6.841,6.841,0,0,1,2.06.211,6.362,6.362,0,0,1,2.06,1.057c.211.211.634.423.845.634l.423.423-4.121,6.181a3.082,3.082,0,0,0,2.272.211,2.59,2.59,0,0,0,1.638-1.426,5.981,5.981,0,0,0,.845-2.694l2.483.211a8.232,8.232,0,0,1-.423,2.272,3.441,3.441,0,0,1-.634,1.955m-8.083-2.06,2.483-3.7a3.142,3.142,0,0,0-1.638-.634c-.634,0-1.057.423-1.426,1.057a2.272,2.272,0,0,0-.423,1.638c-.053.634.37,1.057,1,1.638" transform="translate(-847.195 -711.215)" fill="#020304"/>
                  <path id="Path_349" d="M1747.826,1450.505a3.377,3.377,0,0,1-1.426,1.426c-.634.211-1.057.634-1.426.634a5.574,5.574,0,0,1-1.638-.211,8.332,8.332,0,0,1-1.849-.845l-4.332-2.694-.845,1.426-2.272-1.426.845-1.638-2.483-2.06,1.638-2.483,2.694,1.849,1.638-2.483,2.483,1.426-1.638,2.483,4.121,2.694c.634.423,1.057.634,1.426.423a1.324,1.324,0,0,0,1.056-.845.842.842,0,0,0,.211-.634c0-.211.211-.423.211-.634l2.483,1.057c0,.423-.211.634-.423,1.215a1.263,1.263,0,0,1-.475,1.321" transform="translate(-850.545 -701.934)" fill="#020304"/>
                  <path id="Path_350" d="M1760.528,1434a13.672,13.672,0,0,1-1.638,1.849,4.36,4.36,0,0,1-2.272,1.215l-1.057-2.694a9.61,9.61,0,0,0,1.638-.845c.423-.423.845-.634,1.057-1.215a3.33,3.33,0,0,0,.423-1.215c0-.211-.211-.634-.423-.634a.353.353,0,0,0-.528-.053.052.052,0,0,0-.053.053c-.211,0-.423.211-.634.211-.211.211-.423.211-.845.423a2.542,2.542,0,0,1-.845.634c-.423.211-.634.423-1.057.634a3.333,3.333,0,0,1-1.215.423,2.373,2.373,0,0,1-1.215.211,2.582,2.582,0,0,1-1.215-.423,3.907,3.907,0,0,1-1.215-1.057c-.423-.423-.423-.845-.634-1.426v-1.638a8.323,8.323,0,0,1,.845-1.849,5.007,5.007,0,0,1,1.638-1.849,9.256,9.256,0,0,1,1.849-1.057l1.057,2.483a3.033,3.033,0,0,0-1.426.845,4.139,4.139,0,0,0-.845,1.056c-.423.845-.423,1.426.211,1.638a.353.353,0,0,0,.528.053.052.052,0,0,0,.053-.053c.211,0,.423-.211.634-.211.211-.211.423-.211.634-.423a2.542,2.542,0,0,1,.845-.634,3.923,3.923,0,0,0,1.057-.845c.423-.423.845-.423,1.215-.634a2.373,2.373,0,0,1,1.215-.211,4.447,4.447,0,0,1,1.426.423,3.909,3.909,0,0,1,1.215,1.057c.423.423.423,1.056.634,1.426v1.849a8.584,8.584,0,0,1-1.056,2.483" transform="translate(-858.281 -693.302)" fill="#020304"/>
                  <path id="Path_351" d="M1769.154,1409.452a3.347,3.347,0,0,1-1.215,1.215,5.3,5.3,0,0,1-1.849.845l1.057.845-1.426,2.483-15.32-8.505,1.849-3.328,3.7,2.06,1.638,1.057a5.386,5.386,0,0,1-.211-1.849,3.432,3.432,0,0,1,.423-1.638,5.329,5.329,0,0,1,1.426-1.638,8.329,8.329,0,0,1,1.849-.845,4.781,4.781,0,0,1,2.272.211,6.11,6.11,0,0,1,2.483,1.057,7.766,7.766,0,0,1,2.272,1.849,4.853,4.853,0,0,1,1.215,2.06,9.526,9.526,0,0,1,.423,2.06,3.233,3.233,0,0,1-.581,2.06m-3.117-.845a1.917,1.917,0,0,0,0-1.849,5.741,5.741,0,0,0-2.06-1.849c-1.849-1.057-3.328-1.057-3.909.211a2.59,2.59,0,0,0,0,2.483l4.332,2.483a4.322,4.322,0,0,0,1.057-.634.905.905,0,0,0,.581-.845" transform="translate(-859.036 -682.171)" fill="#020304"/>
                  <path id="Path_352" d="M1788.1,1386.141a7.171,7.171,0,0,1-1.426,2.06,4.133,4.133,0,0,1-2.06,1.215,4.944,4.944,0,0,1-2.483.211,6.986,6.986,0,0,1-2.694-.845,9.952,9.952,0,0,1-2.272-1.638,4.855,4.855,0,0,1-1.215-2.06,4.2,4.2,0,0,1-.211-2.272,3.522,3.522,0,0,1,.634-2.06,4.486,4.486,0,0,1,1.426-1.849,3.956,3.956,0,0,1,1.849-.845,3.425,3.425,0,0,1,2.06,0,11.746,11.746,0,0,1,2.272.845,1.611,1.611,0,0,0,.845.423c.211,0,.423.211.634.423l-3.54,6.6a4.147,4.147,0,0,0,2.272,0,2.726,2.726,0,0,0,1.426-1.638,4.026,4.026,0,0,0,.423-2.694h2.483v2.271a7.778,7.778,0,0,1-.423,1.849m-8.294-1.268,2.06-3.909a2.551,2.551,0,0,0-1.638-.423,1.241,1.241,0,0,0-1.215,1.057,2.246,2.246,0,0,0-.211,1.638,1.631,1.631,0,0,0,1,1.638" transform="translate(-870.951 -671.697)" fill="#020304"/>
                  <path id="Path_353" d="M1793.739,1365.835a1.866,1.866,0,0,1-1.057,1.215l-1.215.634h-1.426c-.634,0-1.057-.423-1.638-.634l-12.2-6.022,1.638-3.328,12.415,6.181a1.55,1.55,0,0,0,.845.211.652.652,0,0,0,.423-.211v-.423l2.694.845a1.672,1.672,0,0,1-.211.845,3.113,3.113,0,0,1-.264.687" transform="translate(-871.206 -662.168)" fill="#020304"/>
                  <path id="Path_354" d="M1806.373,1347.87a7.173,7.173,0,0,1-1.426,2.06,4.134,4.134,0,0,1-2.06,1.215,9.778,9.778,0,0,1-2.483.423,5.945,5.945,0,0,1-2.694-.634,9.948,9.948,0,0,1-2.271-1.638,4.133,4.133,0,0,1-1.215-2.06,10.772,10.772,0,0,1-.423-2.272,5.524,5.524,0,0,1,.423-2.06,4.486,4.486,0,0,1,1.426-1.849A9.259,9.259,0,0,1,1797.5,1340a6.837,6.837,0,0,1,2.06-.211,16,16,0,0,1,2.272.634c.211.211.634.211.845.423s.423.211.634.423l-3.117,6.815a2.846,2.846,0,0,0,2.272-.211,3.56,3.56,0,0,0,1.426-1.638,5.907,5.907,0,0,0,.423-2.694l2.483-.211a4.149,4.149,0,0,1,0,2.271,2.85,2.85,0,0,1-.423,2.271m-8.294-.634,1.849-4.121a2.547,2.547,0,0,0-1.638-.211,1.52,1.52,0,0,0-1.215,1.215,4.376,4.376,0,0,0-.211,1.638,5.517,5.517,0,0,0,1.215,1.479" transform="translate(-879.508 -653.712)" fill="#020304"/>
                  <path id="Path_355" d="M1797.129,1323.553a1.866,1.866,0,0,1-1.057,1.215,1.684,1.684,0,0,1-1.426,0,1.743,1.743,0,0,1-1.057-1.057,1.668,1.668,0,0,1,.211-1.638,1.867,1.867,0,0,1,1.057-1.215,1.684,1.684,0,0,1,1.426,0,1.743,1.743,0,0,1,1.057,1.057,1.651,1.651,0,0,1-.211,1.638m12.415,7.449-11.358-4.966,1.426-3.328,11.358,4.966Z" transform="translate(-879.351 -644.715)" fill="#020304"/>
                  <path id="Path_356" d="M1819.826,1307.284a5.358,5.358,0,0,1-1.215,1.849,4.336,4.336,0,0,1-1.849,1.057,8.286,8.286,0,0,1-2.272.211,7.734,7.734,0,0,1-2.694-.634,6.37,6.37,0,0,1-2.272-1.426,11.554,11.554,0,0,1-1.426-1.849,3.522,3.522,0,0,1-.634-2.06,5.387,5.387,0,0,1,.211-1.849,2.4,2.4,0,0,1,1.057-1.426c.475-.317.951-.581,1.426-.845l-1.849-.634-3.909-1.638,1.426-3.54,16.324,6.6-1.057,2.694-1.215-.211a7.239,7.239,0,0,1,.423,1.849c-.264.634-.264,1.215-.475,1.849m-2.483-2.06a2.364,2.364,0,0,0,.211-1.057,2.585,2.585,0,0,0-.423-1.215l-4.755-1.849a4.324,4.324,0,0,0-1.057.634c-.211.211-.423.634-.634.845a1.549,1.549,0,0,0,.211,1.638,4,4,0,0,0,2.271,1.638,4.777,4.777,0,0,0,2.694.423,1.69,1.69,0,0,0,1.479-1.057" transform="translate(-884.508 -632.356)" fill="#020304"/>
                  <path id="Path_357" d="M840.438,1837.777l2.694-12.626-4.332-.845.634-2.906,12.2,2.694L851,1827l-4.332-.845-2.694,12.626Z" transform="translate(-429.014 -880.906)" fill="#020304"/>
                  <path id="Path_358" d="M864.7,1846.973a5.867,5.867,0,0,1-2.06-.845A6.041,6.041,0,0,1,861,1844.49a4.6,4.6,0,0,1-.845-2.272,5.8,5.8,0,0,1,0-2.694,4.762,4.762,0,0,1,1.057-2.483,6.038,6.038,0,0,1,1.638-1.638,5.863,5.863,0,0,1,2.06-.845,4.147,4.147,0,0,1,2.272,0,5.864,5.864,0,0,1,2.06.845,6.037,6.037,0,0,1,1.638,1.638,4.6,4.6,0,0,1,.845,2.271,5.8,5.8,0,0,1,0,2.694,4.763,4.763,0,0,1-1.057,2.483,6.041,6.041,0,0,1-1.638,1.638,5.861,5.861,0,0,1-2.06.845,4.149,4.149,0,0,1-2.272,0m.634-2.694a1.681,1.681,0,0,0,1.849-.634,6.108,6.108,0,0,0,1.057-2.483,4.94,4.94,0,0,0,0-2.483,2.057,2.057,0,0,0-1.426-1.215,1.516,1.516,0,0,0-1.849.634,6.108,6.108,0,0,0-1.057,2.483,4.94,4.94,0,0,0,0,2.483,1.71,1.71,0,0,0,1.426,1.215" transform="translate(-439.015 -887.038)" fill="#020304"/>
                  <path id="Path_359" d="M892.524,1851.425a6.943,6.943,0,0,1-2.272-.845,5.33,5.33,0,0,1-1.638-1.426,7.42,7.42,0,0,1-1.057-2.272,5.8,5.8,0,0,1,0-2.694,6.926,6.926,0,0,1,.845-2.483,7.776,7.776,0,0,1,1.638-1.849,6.361,6.361,0,0,1,2.06-1.057,8.281,8.281,0,0,1,2.272-.211,6.938,6.938,0,0,1,2.272.845,4.6,4.6,0,0,1,1.426,1.426,3.522,3.522,0,0,1,.634,2.06v2.272c0,.423-.211.634-.211.845s-.211.423-.211.634l-7.237-1.057a2.254,2.254,0,0,0,.845,2.06,4.964,4.964,0,0,0,1.849,1.057,4.366,4.366,0,0,0,2.694-.423l.845,2.272a4.339,4.339,0,0,1-2.272.634,3.394,3.394,0,0,1-2.483.211m-1.426-7.819,4.332.634a2.181,2.181,0,0,0-.211-1.638,1.787,1.787,0,0,0-1.426-.845,2.551,2.551,0,0,0-1.638.423c-.475-.053-.9.581-1.057,1.426" transform="translate(-451.94 -889.007)" fill="#020304"/>
                  <path id="Path_360" d="M916.8,1852.065a2.348,2.348,0,0,1-1.849-.634,3.906,3.906,0,0,1-1.215-1.057c-.264-.528-.423-1.109-.634-1.638v-1.849l.634-4.966-1.638-.211.423-2.694h1.849l.845-3.117,2.906.423-.423,3.328,2.906.423-.423,2.906-2.906-.423-.634,4.755c0,.634,0,1.215.211,1.426a1.2,1.2,0,0,0,1.057.634h1.215l.211,2.694c-.423,0-.845.211-1.215.211-.106-.211-.687-.211-1.321-.211" transform="translate(-463.592 -887.746)" fill="#020304"/>
                  <path id="Path_361" d="M934.143,1857.126a10.086,10.086,0,0,1-2.483-.634,7.174,7.174,0,0,1-2.06-1.426l1.849-2.06a7.125,7.125,0,0,0,1.426,1.057,4.878,4.878,0,0,0,1.426.423c.634,0,1.057,0,1.215-.211.211-.211.423-.423.423-.634a.726.726,0,0,0-.211-.634c-.211-.211-.211-.423-.423-.423s-.423-.211-.845-.423c-.211-.211-.634-.211-.845-.423-.423-.211-.634-.423-1.057-.634a3.924,3.924,0,0,1-1.057-.845c-.211-.423-.423-.634-.634-1.057a3.354,3.354,0,0,1-.211-1.426,2.656,2.656,0,0,1,.423-1.426,2.543,2.543,0,0,1,1.057-1.057c.423-.211,1.057-.423,1.426-.634a2.776,2.776,0,0,1,1.849,0,5.79,5.79,0,0,1,2.483.845,13.153,13.153,0,0,1,1.638,1.215l-1.849,2.06a4.584,4.584,0,0,0-1.215-.845,3.338,3.338,0,0,0-1.215-.423c-.845,0-1.426.211-1.426.845a.726.726,0,0,0,.211.634l.423.423c.211.211.423.211.634.423s.634.211.845.423a4.321,4.321,0,0,1,1.057.634,3.917,3.917,0,0,1,1.057.845,3.514,3.514,0,0,1,.634,1.057,3.354,3.354,0,0,1,.211,1.426,2.657,2.657,0,0,1-.423,1.426,2.543,2.543,0,0,1-1.057,1.057,4.414,4.414,0,0,1-1.638.634c0-.211-.792-.211-1.638-.211" transform="translate(-471.847 -891.803)" fill="#020304"/>
                  <path id="Path_362" d="M959.027,1859.459a4.339,4.339,0,0,1-2.272-.634,12.293,12.293,0,0,1-1.849-1.426,13.978,13.978,0,0,1-1.215-2.06,8.98,8.98,0,0,1,.423-5.388,4.486,4.486,0,0,1,1.426-1.849,6.363,6.363,0,0,1,2.06-1.057,4.2,4.2,0,0,1,2.272-.211,4.34,4.34,0,0,1,2.272.634,12.3,12.3,0,0,1,1.849,1.426,13.984,13.984,0,0,1,1.215,2.06,8.98,8.98,0,0,1-.423,5.388,4.487,4.487,0,0,1-1.426,1.849,6.363,6.363,0,0,1-2.06,1.057,10.694,10.694,0,0,1-2.272.211m.211-2.906a1.6,1.6,0,0,0,1.638-.845,8.122,8.122,0,0,0,.845-2.483,4.516,4.516,0,0,0-.423-2.483,1.864,1.864,0,0,0-1.638-1.057,1.6,1.6,0,0,0-1.638.845,8.122,8.122,0,0,0-.845,2.483,4.515,4.515,0,0,0,.423,2.483,2.323,2.323,0,0,0,1.638,1.057" transform="translate(-483.101 -892.868)" fill="#020304"/>
                  <path id="Path_363" d="M982.1,1860.249l.634-12.2,2.906.211.211,2.06a5.007,5.007,0,0,1,1.638-1.849,2.143,2.143,0,0,1,1.849-.423h.845c.211,0,.423.211.634.211l-.845,3.117c-.211,0-.423-.211-.634-.211H988.7a3.212,3.212,0,0,0-1.426.423,2.535,2.535,0,0,0-1.215,1.638l-.423,7.026Z" transform="translate(-496.612 -893.447)" fill="#020304"/>
                  <path id="Path_364" d="M1006.377,1866.375a6.837,6.837,0,0,1-2.06-.211c-.634-.211-1.215-.211-1.638-.634a2.543,2.543,0,0,1-1.057-1.057,2.8,2.8,0,0,1-.423-1.426,2.957,2.957,0,0,1,1.638-2.483,1.649,1.649,0,0,1-.845-.845,2.143,2.143,0,0,1,0-2.483,2.542,2.542,0,0,1,1.057-1.056,2.389,2.389,0,0,1-1.057-1.215,7.245,7.245,0,0,1-.423-1.849,4.5,4.5,0,0,1,.423-1.849,3.169,3.169,0,0,1,1.057-1.426,4.049,4.049,0,0,1,1.638-.845,5.386,5.386,0,0,1,1.849-.211,4.351,4.351,0,0,1,1.849.211h4.332v2.694h-1.849a.842.842,0,0,1,.211.634c0,.211.211.634.211.845a5.547,5.547,0,0,1-.423,1.849,2.62,2.62,0,0,1-1.057,1.215,4.853,4.853,0,0,1-1.426.845,5.389,5.389,0,0,1-1.849.211,3.24,3.24,0,0,1-1.426-.211l-.423.423v.423c0,.423.211.634.423.634.211.211.845.211,1.426.211h1.849a5.979,5.979,0,0,1,3.539.845,2.238,2.238,0,0,1,1.215,2.272,3.431,3.431,0,0,1-.423,1.638,4.6,4.6,0,0,1-1.426,1.426,5.863,5.863,0,0,1-2.06.845,4.812,4.812,0,0,1-2.853.581m.634-2.271a5.526,5.526,0,0,0,2.06-.423,1.08,1.08,0,0,0,.845-1.057,1.1,1.1,0,0,0-.423-.845c-.211-.211-.845-.211-1.426-.211H1005.8a.725.725,0,0,1-.634-.211,1.833,1.833,0,0,0-.634,1.215,1.068,1.068,0,0,0,.845,1.056c.159.476.792.476,1.638.476m-.423-8.875a2.583,2.583,0,0,0,1.215-.423,1.608,1.608,0,0,0,.423-1.426,2.656,2.656,0,0,0-.423-1.426,1.307,1.307,0,0,0-1.215-.423,2.584,2.584,0,0,0-1.215.423,1.609,1.609,0,0,0-.423,1.426,2.272,2.272,0,0,0,.423,1.426,3.332,3.332,0,0,0,1.215.423" transform="translate(-505.622 -893.814)" fill="#020304"/>
                  <path id="Path_365" d="M1031.586,1861.907a2.626,2.626,0,0,1-1.426-.211,3.354,3.354,0,0,1-1.215-.845,2.817,2.817,0,0,1-.845-1.215,3.352,3.352,0,0,1-.211-1.426,3.534,3.534,0,0,1,1.638-3.117,9.925,9.925,0,0,1,5.177-1.426,1.45,1.45,0,0,0-.423-1.215c-.211-.423-.845-.423-1.426-.423a4.417,4.417,0,0,0-1.638.423,9.61,9.61,0,0,0-1.638.845l-1.215-2.272,2.483-1.215a11.92,11.92,0,0,1,2.694-.423,4.77,4.77,0,0,1,3.54,1.215,5.548,5.548,0,0,1,1.215,4.121v7.026h-2.906l-.211-1.215a7.849,7.849,0,0,1-1.638,1.057,8.846,8.846,0,0,1-1.955.317m1.268-2.853a1.487,1.487,0,0,0,1.057-.211c.211-.211.634-.423.845-.845v-2.06a6.987,6.987,0,0,0-2.694.845c-.423.423-.845.845-.634,1.215a1.1,1.1,0,0,0,.423.845,1.574,1.574,0,0,0,1,.211" transform="translate(-518.205 -894.101)" fill="#020304"/>
                  <path id="Path_366" d="M1055.323,1860.673l-.423-12.2,2.906-.211.423,1.426a13.779,13.779,0,0,1,1.638-1.426,3.933,3.933,0,0,1,4.966.634,6.464,6.464,0,0,1,1.057,3.539l.423,7.449-3.539.211-.211-7.026a4.5,4.5,0,0,0-.423-1.849c-.211-.423-.634-.423-1.215-.423a2.582,2.582,0,0,0-1.215.423c-.423.211-.634.634-1.057.845l.423,8.294Z" transform="translate(-530.953 -893.29)" fill="#020304"/>
                  <path id="Path_367" d="M1083.96,1840.769a1.566,1.566,0,0,1-1.426-.423,1.834,1.834,0,0,1-.634-1.215,2.656,2.656,0,0,1,.423-1.426,1.887,1.887,0,0,1,1.426-.634,1.567,1.567,0,0,1,1.426.423,1.834,1.834,0,0,1,.634,1.215,2.657,2.657,0,0,1-.423,1.426,1.658,1.658,0,0,1-1.426.634m-.845,14.105-.845-12.2,3.539-.211.845,12.2Z" transform="translate(-543.69 -888.283)" fill="#020304"/>
                  <path id="Path_368" d="M1101.4,1858.266a9.664,9.664,0,0,1-2.483-.211,7.418,7.418,0,0,1-2.272-1.057l1.426-2.483a15.947,15.947,0,0,0,1.638.845,4.373,4.373,0,0,0,1.638.211,1.994,1.994,0,0,0,1.215-.423c.423-.211.423-.423.211-.845,0-.211,0-.423-.211-.423-.211-.211-.423-.211-.634-.423a1.55,1.55,0,0,0-.845-.211,6.241,6.241,0,0,0-1.056-.211c-.423-.211-.845-.211-1.215-.423a4.318,4.318,0,0,1-1.057-.634,2.361,2.361,0,0,1-.845-1.057,3.333,3.333,0,0,1-.423-1.215,4.239,4.239,0,0,1,.211-1.638,3.351,3.351,0,0,1,.845-1.215,3.933,3.933,0,0,1,1.426-.845,7.25,7.25,0,0,1,1.849-.423,9.671,9.671,0,0,1,2.483.211,8.329,8.329,0,0,1,1.849.845l-1.426,2.272a8.43,8.43,0,0,0-1.426-.634,3.1,3.1,0,0,0-1.215-.211c-.845,0-1.215.423-1.215,1.057,0,.211,0,.423.211.423.211.211.423.211.634.423.211,0,.423.211.845.211s.634.211.845.211c.423.211.845.211,1.215.423a4.318,4.318,0,0,1,1.057.634,2.361,2.361,0,0,1,.845,1.057,2.8,2.8,0,0,1,.423,1.426,4.241,4.241,0,0,1-.211,1.638,1.693,1.693,0,0,1-.845,1.215,14.219,14.219,0,0,1-1.426,1.057,5.741,5.741,0,0,1-2.06.423" transform="translate(-550.565 -892.309)" fill="#020304"/>
                  <path id="Path_369" d="M1123.479,1855.933a2.626,2.626,0,0,1-1.426-.211l-1.215-.634a2.36,2.36,0,0,1-.845-1.057,2.8,2.8,0,0,1-.423-1.426,3.249,3.249,0,0,1,1.215-3.117,14.161,14.161,0,0,1,4.966-2.06,1.171,1.171,0,0,0-.634-1.215,1.707,1.707,0,0,0-1.426-.211,2.657,2.657,0,0,0-1.426.423,5.555,5.555,0,0,0-1.426,1.056l-1.638-2.271a7.848,7.848,0,0,1,2.272-1.426,9.422,9.422,0,0,1,2.694-.845,4.818,4.818,0,0,1,3.7.845,6.061,6.061,0,0,1,1.638,3.909l.845,6.815-2.906.423-.423-1.215a6.226,6.226,0,0,1-1.426,1.215,4.142,4.142,0,0,1-2.113,1m1.057-2.853a1.677,1.677,0,0,0,1.057-.423c.211-.211.634-.423.845-.845l-.211-2.06a6.925,6.925,0,0,0-2.483,1.056,1.834,1.834,0,0,0-.634,1.215,1.1,1.1,0,0,0,.423.845,1.3,1.3,0,0,0,1,.211" transform="translate(-561.285 -891.032)" fill="#020304"/>
                  <path id="Path_370" d="M1149.649,1849.643a5.433,5.433,0,0,1-1.849,0,3.033,3.033,0,0,1-1.426-.845,14.232,14.232,0,0,1-1.057-1.426,7.244,7.244,0,0,1-.423-1.849l-.634-4.966-1.638.211-.423-2.694,1.849-.423v-3.328l2.906-.423.423,3.117,2.906-.423.423,2.694-2.906.423.634,4.755a2.36,2.36,0,0,0,.634,1.426,1.272,1.272,0,0,0,1.215.211.726.726,0,0,0,.634-.211.842.842,0,0,1,.634-.211l1.057,2.483c-.211.211-.634.211-1.057.423a3.14,3.14,0,0,1-1.9,1.057" transform="translate(-572.135 -886.802)" fill="#020304"/>
                  <path id="Path_371" d="M1163.809,1831.786a4.239,4.239,0,0,1-1.638-.211,1.989,1.989,0,0,1-.845-1.215,1.23,1.23,0,0,1,.423-1.426,3.934,3.934,0,0,1,1.426-.845,4.244,4.244,0,0,1,1.638.211,1.988,1.988,0,0,1,.845,1.215,1.566,1.566,0,0,1-.423,1.426,2.863,2.863,0,0,1-1.426.845m.423,14.105-2.06-11.992,3.54-.634,2.06,11.992Z" transform="translate(-581.118 -884.054)" fill="#020304"/>
                  <path id="Path_372" d="M1185.3,1846.573a4.945,4.945,0,0,1-2.483,0,5.87,5.87,0,0,1-2.06-.845,6.044,6.044,0,0,1-1.638-1.638,8.587,8.587,0,0,1-1.057-2.483,5.8,5.8,0,0,1,0-2.694,6.939,6.939,0,0,1,.845-2.272,6.038,6.038,0,0,1,1.638-1.638,5.862,5.862,0,0,1,2.06-.845,4.149,4.149,0,0,1,2.271,0,8.327,8.327,0,0,1,1.849.845,3.357,3.357,0,0,1,1.215,1.638,6.939,6.939,0,0,1,.845,2.272c0,.423,0,.634.211.845v.634l-7.237,1.426a2.989,2.989,0,0,0,1.426,1.638,3.438,3.438,0,0,0,2.06.211,8.358,8.358,0,0,0,2.483-1.215l1.638,1.849a11.543,11.543,0,0,1-1.849,1.426,6.662,6.662,0,0,1-2.219.845m-3.909-7.026,4.332-.845a4.049,4.049,0,0,0-.845-1.638,2.269,2.269,0,0,0-1.638-.423,3.032,3.032,0,0,0-1.426.845,2.254,2.254,0,0,0-.423,2.06" transform="translate(-588.975 -886.849)" fill="#020304"/>
                  <path id="Path_373" d="M155.9,1147.949l13.048-2.483-.845-4.332,3.117-.634,2.272,12.414-3.117.634-.634-4.543-13.048,2.483Z" transform="translate(-106.876 -559.711)" fill="#020304"/>
                  <path id="Path_374" d="M161.258,1175.985a4.15,4.15,0,0,1,0-2.272,5.866,5.866,0,0,1,.845-2.06,6.041,6.041,0,0,1,1.638-1.638,8.431,8.431,0,0,1,2.694-1.057,6.734,6.734,0,0,1,2.906,0,6.938,6.938,0,0,1,2.272.845,6.038,6.038,0,0,1,1.638,1.638,5.814,5.814,0,0,1,.845,4.332,5.863,5.863,0,0,1-.845,2.06,6.037,6.037,0,0,1-1.638,1.638,8.431,8.431,0,0,1-2.694,1.057,6.742,6.742,0,0,1-2.906,0,6.944,6.944,0,0,1-2.272-.845,6.043,6.043,0,0,1-1.638-1.638,3.276,3.276,0,0,1-.845-2.06m2.906-.581a1.78,1.78,0,0,0,1.215,1.426,5.8,5.8,0,0,0,2.694,0,6.107,6.107,0,0,0,2.483-1.057,1.537,1.537,0,0,0,.634-1.849,1.78,1.78,0,0,0-1.215-1.426,5.8,5.8,0,0,0-2.694,0,6.108,6.108,0,0,0-2.483,1.056,1.682,1.682,0,0,0-.634,1.849" transform="translate(-109.329 -573.06)" fill="#020304"/>
                  <path id="Path_375" d="M167.5,1203.571a9.663,9.663,0,0,1-.211-2.483,4,4,0,0,1,.845-2.271,13.659,13.659,0,0,1,1.638-1.849,8.583,8.583,0,0,1,2.483-1.057,15.43,15.43,0,0,1,2.694-.211,6.941,6.941,0,0,1,2.272.845,5.329,5.329,0,0,1,1.638,1.426,6.361,6.361,0,0,1,1.057,2.06,11.024,11.024,0,0,1,.211,2.272,4.557,4.557,0,0,1-.845,1.849,6.019,6.019,0,0,1-1.638,1.426,6.938,6.938,0,0,1-2.272.845c-.423,0-.634.211-1.057.211h-.634l-1.849-7.237c-.845.423-1.426.845-1.638,1.638a4.149,4.149,0,0,0,0,2.271,5.58,5.58,0,0,0,1.426,2.483l-1.849,1.638a4.088,4.088,0,0,1-1.426-1.849,8.487,8.487,0,0,1-.845-2.008m7.026-4.543,1.057,4.332c.634-.211,1.215-.423,1.426-.845a1.549,1.549,0,0,0,.211-1.638,2.4,2.4,0,0,0-1.057-1.426c-.211-.423-.845-.634-1.638-.423" transform="translate(-112.241 -585.749)" fill="#020304"/>
                  <path id="Path_376" d="M174.111,1226.2a9.1,9.1,0,0,1-.211-2.06,1.886,1.886,0,0,1,.634-1.426,3.329,3.329,0,0,1,1.215-1.057,8.332,8.332,0,0,1,1.849-.845l4.755-1.426-.423-1.638,2.694-.845.634,1.849,3.328-.423.845,2.906-3.117.845.845,2.906-2.694.845-.845-2.906-4.755,1.426a1.691,1.691,0,0,0-1.215.845,2.374,2.374,0,0,0-.211,1.215c0,.211.211.423.211.634.211.211.211.423.423.423l-2.483,1.215a4.318,4.318,0,0,1-.634-1.057c-.423-.159-.634-.792-.845-1.426" transform="translate(-115.367 -595.75)" fill="#020304"/>
                  <path id="Path_377" d="M179.145,1245.756a4.943,4.943,0,0,1-.211-2.483,5.258,5.258,0,0,1,.634-2.483l2.694.845a7.242,7.242,0,0,0-.423,1.849,4.241,4.241,0,0,0,.211,1.638,2.192,2.192,0,0,0,.634,1.057,1.55,1.55,0,0,0,.845.211.454.454,0,0,0,.423-.423.842.842,0,0,0,.211-.634,1.2,1.2,0,0,1,.211-.845v-1.057a2.375,2.375,0,0,1,.211-1.215,2.584,2.584,0,0,1,.423-1.215,2.055,2.055,0,0,1,.845-1.056c.423-.211.634-.634,1.215-.634a5.813,5.813,0,0,1,1.638-.211,1.887,1.887,0,0,1,1.426.634,3.345,3.345,0,0,1,1.215,1.215,3.956,3.956,0,0,1,.845,1.849,4.943,4.943,0,0,1,.211,2.483,5.524,5.524,0,0,1-.423,2.06l-2.694-1.056a14.564,14.564,0,0,1,.423-1.426,2.374,2.374,0,0,0-.211-1.215c-.211-.845-.634-1.215-1.426-1.057a.454.454,0,0,0-.423.423c0,.211-.211.423-.211.634v1.849a2.375,2.375,0,0,1-.211,1.215,2.584,2.584,0,0,1-.423,1.215,2.055,2.055,0,0,1-.845,1.057,1.834,1.834,0,0,1-1.215.634,4.375,4.375,0,0,1-1.638.211,1.887,1.887,0,0,1-1.426-.634l-1.215-1.215a3.357,3.357,0,0,1-1.321-2.219" transform="translate(-117.706 -606.222)" fill="#020304"/>
                  <path id="Path_378" d="M186.349,1268.869a4.376,4.376,0,0,1-.211-1.638,2.907,2.907,0,0,1,.634-1.849l-1.426.211-.845-2.694,16.535-5.6,1.215,3.54-4.121,1.426-1.849.423a4.588,4.588,0,0,1,1.426,1.215,4.854,4.854,0,0,1,.845,1.426,3.438,3.438,0,0,1,.211,2.06,5.909,5.909,0,0,1-.634,1.849,6.039,6.039,0,0,1-1.638,1.638,18.765,18.765,0,0,1-2.272,1.215,7.764,7.764,0,0,1-2.906.423,9.782,9.782,0,0,1-2.483-.423,5.359,5.359,0,0,1-1.849-1.215,4.7,4.7,0,0,0-.634-2.007m2.694-1.9a1.759,1.759,0,0,0,1.215,1.215,4.989,4.989,0,0,0,2.906-.211c2.06-.634,2.906-1.849,2.483-3.117a3.1,3.1,0,0,0-1.638-1.638l-4.755,1.638a2.374,2.374,0,0,0-.211,1.215.711.711,0,0,0,0,.9" transform="translate(-120.367 -614.808)" fill="#020304"/>
                  <path id="Path_379" d="M197.014,1297.444a5.733,5.733,0,0,1-.423-2.483,6.659,6.659,0,0,1,.423-2.272,4.486,4.486,0,0,1,1.426-1.849,6.912,6.912,0,0,1,2.483-1.426,6.706,6.706,0,0,1,2.694-.423,9.777,9.777,0,0,1,2.483.423c.845.211,1.215.845,1.849,1.215a10.138,10.138,0,0,1,1.215,1.849,10.787,10.787,0,0,1,.423,2.272,3.642,3.642,0,0,1-.634,2.06,10.573,10.573,0,0,1-1.426,1.638,6.361,6.361,0,0,1-2.06,1.057,1.551,1.551,0,0,1-.845.211c-.211,0-.423.211-.634.211l-2.694-7.026a2.727,2.727,0,0,0-1.426,1.638,3.083,3.083,0,0,0,.211,2.272,6.428,6.428,0,0,0,1.638,2.272l-1.638,1.849a6.04,6.04,0,0,1-1.638-1.638c-.37-.634-1.215-1.215-1.426-1.849m6.392-5.388,1.638,4.121a3.17,3.17,0,0,0,1.426-1.057,1.216,1.216,0,0,0,0-1.638,1.866,1.866,0,0,0-1.057-1.215,2.218,2.218,0,0,0-2.007-.211" transform="translate(-126.066 -629.752)" fill="#020304"/>
                  <path id="Path_380" d="M203.7,1314l16.324-6.6,1.426,3.328-9.3,3.7,6.022,1.849,1.426,3.7-6.392-2.06-4.966,7.026-1.426-3.7,3.539-4.332-2.272-.845-2.906,1.215Z" transform="translate(-129.424 -638.441)" fill="#020304"/>
                  <path id="Path_381" d="M216.2,1343.183l9.932-8.083,1.426,3.328-4.755,3.539a7.137,7.137,0,0,0-1.426,1.057,17.368,17.368,0,0,1-1.638,1.057,7.244,7.244,0,0,1,1.849-.423,5.547,5.547,0,0,0,1.849-.423l5.811-1.215,1.215,2.906-4.755,3.7a32121.89,32121.89,0,0,1-2.853,2.113,30229.532,30229.532,0,0,1,3.7-.845l5.811-1.215,1.426,3.117-12.626,2.483-1.849-3.909,4.121-3.117c.423-.423,1.057-.634,1.426-1.057a17.37,17.37,0,0,1,1.638-1.057,7.249,7.249,0,0,1-1.849.423c-.634.211-1.215.211-1.638.423l-4.966,1.057Z" transform="translate(-135.321 -651.507)" fill="#020304"/>
                  <path id="Path_382" d="M232.61,1380.266a4.881,4.881,0,0,1-.423-1.426,3.237,3.237,0,0,1,.211-1.426,3.6,3.6,0,0,1,2.06-2.06,3.2,3.2,0,0,1,3.539.211,10.316,10.316,0,0,1,3.7,4.121,2.542,2.542,0,0,0,1.057-1.056c.211-.423,0-.845-.211-1.426a3.908,3.908,0,0,0-1.057-1.215,6.223,6.223,0,0,0-1.426-1.215l1.638-2.272a17.757,17.757,0,0,1,2.272,1.638,8.572,8.572,0,0,1,1.638,2.272,5.323,5.323,0,0,1,.423,3.909c-.423,1.215-1.426,2.06-3.328,3.117l-6.392,3.117-1.215-2.694,1.057-.845a7.988,7.988,0,0,1-1.849-1.057,8.544,8.544,0,0,1-1.69-1.691m3.117-.211a1.65,1.65,0,0,0,.845.845,1.475,1.475,0,0,0,1.057.423l1.849-1.057a9.909,9.909,0,0,0-1.849-2.06c-.634-.211-1.057-.423-1.426-.211-.423.211-.634.423-.634.845a1.913,1.913,0,0,0,.158,1.215" transform="translate(-142.856 -669.15)" fill="#020304"/>
                  <path id="Path_383" d="M245.21,1403.741a4.882,4.882,0,0,1-.423-1.426,3.238,3.238,0,0,1,.211-1.426l.634-1.215a7.565,7.565,0,0,1,1.215-1.057,3.531,3.531,0,0,1,3.539,0,11.533,11.533,0,0,1,3.909,3.909,1.452,1.452,0,0,0,.845-1.057c.211-.423,0-.845-.211-1.426a3.91,3.91,0,0,0-1.057-1.215,7.131,7.131,0,0,0-1.426-1.056l1.426-2.272a17.757,17.757,0,0,1,2.272,1.638,5.349,5.349,0,0,1,1.638,2.272,4.678,4.678,0,0,1,.634,3.909,5.643,5.643,0,0,1-3.117,3.117l-6.181,3.328-1.426-2.694,1.057-.845a7.988,7.988,0,0,1-1.849-1.057,1.992,1.992,0,0,1-1.69-1.426m3.117-.211a1.649,1.649,0,0,0,.845.845,1.475,1.475,0,0,0,1.057.423l1.849-1.057a9.523,9.523,0,0,0-2.06-2.06,1.682,1.682,0,0,0-1.426,0c-.423.211-.634.423-.634.845a1.956,1.956,0,0,0,.37,1" transform="translate(-148.799 -679.999)" fill="#020304"/>
                  <path id="Path_384" d="M256.1,1424.192l10.777-6.392,1.426,2.694-1.215,1.057a8.9,8.9,0,0,1,2.06.845,5.331,5.331,0,0,1,1.638,1.426,4.7,4.7,0,0,1,.634,2.06,2.907,2.907,0,0,1-.634,1.849,5.864,5.864,0,0,1,2.06.845,4.073,4.073,0,0,1,1.638,1.638,3.907,3.907,0,0,1,.423,3.328,6.617,6.617,0,0,1-2.694,2.694l-6.6,3.909-1.849-3.117,6.181-3.7a3.212,3.212,0,0,0,1.426-1.215.9.9,0,0,0-.211-1.215,2.736,2.736,0,0,0-2.06-1.215l-7.237,4.332-1.849-3.117,6.181-3.7a3.212,3.212,0,0,0,1.426-1.215.9.9,0,0,0-.211-1.215,2.736,2.736,0,0,0-2.06-1.215l-7.237,4.332Z" transform="translate(-154.142 -690.519)" fill="#020304"/>
                  <path id="Path_385" d="M278.1,1457.809l14.686-9.509,2.06,3.117-3.7,2.271-2.06,1.057a8.327,8.327,0,0,1,1.849.845,4.073,4.073,0,0,1,1.638,1.638,2.907,2.907,0,0,1,.423,3.117,5.793,5.793,0,0,1-2.694,2.694l-6.392,4.121-2.06-3.117,6.022-3.909a3.212,3.212,0,0,0,1.426-1.215,1.248,1.248,0,0,0-.211-1.215c-.211-.423-.634-.634-.845-.845a2.8,2.8,0,0,0-1.426-.423l-7.026,4.543Z" transform="translate(-164.52 -704.906)" fill="#020304"/>
                  <path id="Path_386" d="M298.515,1490.99a12.635,12.635,0,0,1-1.057-2.272,4.942,4.942,0,0,1,0-2.483,9.086,9.086,0,0,1,.845-2.272,5.74,5.74,0,0,1,2.06-1.849,4.763,4.763,0,0,1,2.483-1.057,4.942,4.942,0,0,1,2.483,0,5.866,5.866,0,0,1,2.06.845,5.328,5.328,0,0,1,1.638,1.426c.37.687.74,1.374,1.057,2.06a6.734,6.734,0,0,1,0,2.06,7.988,7.988,0,0,1-1.057,1.849,7.774,7.774,0,0,1-1.849,1.638,1.61,1.61,0,0,1-.845.423.842.842,0,0,1-.634.211l-4.121-6.181a2.922,2.922,0,0,0-1.057,2.06,3.642,3.642,0,0,0,.634,2.06,3.773,3.773,0,0,0,2.272,1.638l-1.057,2.271a5.756,5.756,0,0,1-2.06-1.215,2.406,2.406,0,0,1-1.8-1.215m4.754-6.868,2.483,3.7c.634-.423,1.057-.845,1.057-1.426a1.7,1.7,0,0,0-.423-1.638,4.026,4.026,0,0,0-1.426-1.057,3.483,3.483,0,0,0-1.69.423" transform="translate(-173.577 -720.284)" fill="#020304"/>
                  <path id="Path_387" d="M309.4,1503.693l10.143-7.237,2.06,2.906L311.46,1506.6Zm12.626-7.026a1.7,1.7,0,0,1-.423-1.638,1.3,1.3,0,0,1,.845-1.215,2.064,2.064,0,0,1,1.426-.423,2.28,2.28,0,0,1,1.638,2.483,1.3,1.3,0,0,1-.845,1.215,2.064,2.064,0,0,1-1.426.423,1.482,1.482,0,0,1-1.215-.845" transform="translate(-179.285 -726.172)" fill="#020304"/>
                  <path id="Path_388" d="M322.2,1523.656a3.957,3.957,0,0,1-.845-1.849,3.427,3.427,0,0,1,0-2.06,4.527,4.527,0,0,1,1.057-2.06,15.275,15.275,0,0,1,1.849-1.849,6.413,6.413,0,0,1,2.483-1.215,10.779,10.779,0,0,1,2.272-.423,3.642,3.642,0,0,1,2.06.634,10.777,10.777,0,0,1,1.426,1.215,6.889,6.889,0,0,1,.845,1.638,4.269,4.269,0,0,1,0,1.638l1.426-1.215,3.328-2.483,2.272,2.906-13.841,10.777-1.849-2.483.845-1.057a2.907,2.907,0,0,1-1.849-.634,3.626,3.626,0,0,1-1.479-1.479m2.906-1.057a1.164,1.164,0,0,0,.845.634,2.374,2.374,0,0,0,1.215.211l4.121-3.117a2.374,2.374,0,0,0-.211-1.215c-.211-.423-.211-.634-.423-.845a2.146,2.146,0,0,0-1.638-.634,4.95,4.95,0,0,0-2.483,1.056,5.338,5.338,0,0,0-1.849,2.06,2.143,2.143,0,0,0,.423,1.849" transform="translate(-184.851 -735.993)" fill="#020304"/>
                  <path id="Path_389" d="M1006.7,425.862l1.638-264.351,4.543-.211.845,265.354Z" transform="translate(-508.216 -97.801)" fill="#fff"/>
                  <path id="Path_390" d="M1323.1,812.725,1574.614,731l1.638,4.121-251.725,84.366Z" transform="translate(-657.469 -366.541)" fill="#fff"/>
                  <path id="Path_391" d="M480.94,812.725,229.638,731,228,735.121l251.725,84.366Z" transform="translate(-140.887 -366.541)" fill="#fff"/>
                  <path id="Path_392" d="M683.476,1246.3,529.8,1461.415l3.539,2.694L689.5,1249.628Z" transform="translate(-283.252 -609.619)" fill="#fff"/>
                  <path id="Path_393" d="M1202.434,1247,1355.9,1462.115l-3.328,2.906L1196.2,1250.54Z" transform="translate(-597.607 -609.949)" fill="#fff"/>
                  <rect id="Rectangle_489" width="1002.778" height="1002.778" fill="none"/>
                </g>
              </g>
            </g>
          </g>
        </g>
      </g>
      <g id="Boog_turqoise" opacity="0">
        <path id="Path_1" data-name="Path 1" d="M1764.3,593.8a30.312,30.312,0,0,1-27-16.3c-55.4-105.6-140.5-186.6-202.1-235.9-67.5-54-122.5-83-123-83.3a30.46,30.46,0,1,1,28.2-54c2.4,1.3,59.8,31.4,131.7,88.8a959.272,959.272,0,0,1,114.6,107.5c42.6,47.4,77.8,97.4,104.6,148.6a30.545,30.545,0,0,1-12.8,41.2A31.541,31.541,0,0,1,1764.3,593.8Z" fill="#2db3a5"/>
      </g>
      <g id="Boog_blue_00000072985381751194635750000003573300305747323041_" opacity="0">
        <path id="Path_2" data-name="Path 2" d="M630.8,226a30.54,30.54,0,0,1-17,26.6C506.9,305.5,423.9,388.6,373.2,449c-55.6,66.2-85.9,120.5-86.2,121a30.46,30.46,0,1,1-53.3-29.5c1.3-2.4,32.8-59,91.9-129.6a951.211,951.211,0,0,1,110.3-112c48.4-41.4,99.3-75.4,151-101a30.519,30.519,0,0,1,40.9,13.8A33.437,33.437,0,0,1,630.8,226Z" fill="#45a7c3"/>
      </g>
      <g id="Boog_green" opacity="0">
        <path id="Path_3" data-name="Path 3" d="M176,1103a30.564,30.564,0,0,1,19.6,24.8c14.8,118.4,66.1,224,106.5,291.8,44.3,74.3,85.6,120.7,86,121.1a30.482,30.482,0,1,1-45.3,40.8c-1.8-2-45-50.4-92.2-129.3A958.3,958.3,0,0,1,181,1311.3c-23.2-59.3-38.6-118.5-45.8-175.8a30.581,30.581,0,0,1,26.5-34.1A27.765,27.765,0,0,1,176,1103Z" fill="#46ad48"/>
      </g>
      <g id="Boog_orange" opacity="0">
        <path id="Path_4" data-name="Path 4" d="M757.8,1796.6a30.413,30.413,0,0,1,30.9-6.3c112.4,40,229.8,41.7,308.5,36.1,86.2-6.1,146.3-22.2,146.9-22.3a30.517,30.517,0,0,1,16,58.9c-2.6.7-65.2,17.5-157,24.2A955.088,955.088,0,0,1,946,1886c-63.4-5.9-123.2-18.8-177.6-38.2a30.441,30.441,0,0,1-18.5-39A29.665,29.665,0,0,1,757.8,1796.6Z" fill="#ed7a0f"/>
      </g>
      <g id="Boog_purple" opacity="0">
        <path id="Path_5" data-name="Path 5" d="M1583.1,1619a30.407,30.407,0,0,1,9.5-30.1c89.6-78.8,148.2-180.5,181.6-252,36.6-78.3,51.8-138.6,51.9-139.2a30.487,30.487,0,0,1,59.2,14.6c-.7,2.6-16.4,65.5-55.2,149-22.8,49-48.8,95-77.5,136.7-36,52.5-76.3,98.5-119.7,136.7a30.627,30.627,0,0,1-49.8-15.7Z" fill="#af72ad"/>
      </g>
    </g>
  </g>
</svg>
