<svg width="129" height="129" viewBox="0 0 129 129" fill="none" xmlns="http://www.w3.org/2000/svg">
<path d="M111.939 33.8978L98.9684 22.4988C98.5704 22.1468 98.0414 21.9678 97.5194 22.0048C96.9904 22.0398 96.4964 22.2828 96.1464 22.6818L49.1004 76.2278L32.3724 54.0868C32.0534 53.6648 31.5784 53.3858 31.0534 53.3138C30.5294 53.2358 29.9944 53.3778 29.5724 53.6988L15.7944 64.1068C14.9134 64.7728 14.7384 66.0268 15.4044 66.9078L46.3784 107.904C46.7404 108.383 47.3004 108.675 47.9004 108.697C47.9244 108.697 47.9494 108.697 47.9734 108.697C48.5474 108.697 49.0954 108.451 49.4764 108.017L112.12 36.7198C112.85 35.8908 112.769 34.6258 111.939 33.8978Z" fill="black"/>
</svg>
