<svg width="10" height="10" viewBox="0 0 10 10" fill="none" xmlns="http://www.w3.org/2000/svg">
<path d="M1.06641 9.56226C1.15234 9.64819 1.25391 9.70483 1.37109 9.73218C1.48828 9.76343 1.60352 9.76343 1.7168 9.73218C1.83398 9.70483 1.93555 9.65015 2.02148 9.56812L5.36719 6.21655L8.71875 9.56812C8.84375 9.69312 9 9.75562 9.1875 9.75562C9.375 9.75952 9.53516 9.69507 9.66797 9.56226C9.79688 9.42944 9.86133 9.26929 9.86133 9.08179C9.86133 8.89429 9.79883 8.73804 9.67383 8.61304L6.32227 5.26147L9.67383 1.91577C9.79883 1.79077 9.86133 1.63452 9.86133 1.44702C9.86523 1.25562 9.80078 1.09546 9.66797 0.966553C9.53516 0.837646 9.375 0.773193 9.1875 0.773193C9 0.773193 8.84375 0.835693 8.71875 0.960693L5.36719 4.31226L2.02148 0.960693C1.93555 0.878662 1.83398 0.823975 1.7168 0.796631C1.60352 0.765381 1.48828 0.763428 1.37109 0.790771C1.25391 0.818115 1.15234 0.876709 1.06641 0.966553C0.984375 1.05249 0.927734 1.15405 0.896484 1.27124C0.869141 1.38843 0.869141 1.50562 0.896484 1.6228C0.927734 1.73608 0.984375 1.83374 1.06641 1.91577L4.41211 5.26147L1.06641 8.61304C0.984375 8.69507 0.927734 8.79468 0.896484 8.91187C0.865234 9.02515 0.863281 9.14038 0.890625 9.25757C0.921875 9.37866 0.980469 9.48022 1.06641 9.56226Z" fill="black"/>
</svg>
