<?xml version="1.0" standalone="no"?>
<!DOCTYPE svg PUBLIC "-//W3C//DTD SVG 20010904//EN"
 "http://www.w3.org/TR/2001/REC-SVG-20010904/DTD/svg10.dtd">
<svg version="1.0" xmlns="http://www.w3.org/2000/svg"
 width="1351.000000pt" height="1351.000000pt" viewBox="0 0 1351.000000 1351.000000"
 preserveAspectRatio="xMidYMid meet">
<metadata>
Created by potrace 1.14, written by Peter Selinger 2001-2017
</metadata>
<g transform="translate(0.000000,1351.000000) scale(0.100000,-0.100000)"
fill="#000000" stroke="none">
<path d="M6595 12563 c-542 -18 -1020 -95 -1518 -244 -619 -185 -1254 -504
-1772 -888 -760 -564 -1362 -1289 -1776 -2136 -143 -293 -301 -689 -281 -706
9 -8 784 -259 799 -259 6 0 14 12 18 28 4 15 27 81 51 147 447 1195 1363 2188
2522 2734 616 290 1244 443 1920 468 l172 6 0 429 0 428 -27 -2 c-16 -1 -64
-3 -108 -5z"/>
<path d="M6800 12142 l0 -429 178 -6 c706 -27 1449 -226 2082 -559 826 -435
1508 -1088 1978 -1892 140 -238 298 -578 392 -843 18 -51 37 -93 43 -93 17 0
781 251 790 260 5 4 -21 88 -58 186 -248 659 -566 1202 -1021 1749 -137 165
-478 507 -654 657 -349 297 -775 580 -1169 777 -240 121 -393 185 -676 287
-498 179 -1110 301 -1602 319 -87 3 -186 8 -220 11 l-63 5 0 -429z"/>
<path d="M6515 11673 c-1139 -70 -2103 -452 -2955 -1172 -522 -441 -936 -977
-1241 -1605 -111 -231 -243 -566 -228 -580 4 -4 774 -256 782 -256 3 0 11 17
18 38 77 239 238 579 390 820 176 280 339 484 583 727 352 352 661 572 1108
790 505 245 994 372 1572 405 93 6 170 11 171 12 1 2 6 189 9 416 l7 412 -83
-2 c-46 -1 -105 -3 -133 -5z"/>
<path d="M6800 11454 c0 -126 3 -313 7 -416 l6 -186 116 -6 c287 -16 550 -54
811 -117 159 -39 473 -143 614 -203 1040 -448 1830 -1273 2232 -2331 32 -83
59 -140 66 -139 15 1 771 245 777 250 10 9 -99 294 -189 494 -407 911 -1135
1714 -2010 2220 -162 93 -471 244 -632 309 -502 202 -1097 330 -1610 348
l-188 6 0 -229z"/>
<path d="M6500 10799 c-830 -50 -1639 -364 -2290 -886 -509 -409 -927 -957
-1178 -1548 -73 -171 -124 -313 -114 -318 6 -4 692 -228 768 -251 18 -5 23 0
33 36 43 148 192 456 308 640 483 766 1269 1296 2163 1458 136 25 367 50 463
50 l67 0 0 415 0 415 -47 -1 c-27 -1 -104 -5 -173 -10z"/>
<path d="M6810 10396 l0 -416 23 0 c88 0 335 -25 456 -46 1032 -174 1904 -824
2361 -1759 43 -88 97 -211 121 -272 23 -62 47 -113 53 -113 6 0 184 56 396
125 269 86 384 128 382 137 -2 7 -28 78 -59 158 -363 952 -1080 1737 -1994
2185 -499 244 -1043 384 -1596 411 l-143 7 0 -417z"/>
<path d="M1186 8406 c-108 -364 -171 -688 -218 -1121 -18 -163 -18 -895 0
-1065 50 -479 134 -878 277 -1305 346 -1038 964 -1936 1820 -2650 135 -112
267 -207 275 -199 17 19 491 686 488 688 -2 1 -46 35 -98 76 -336 260 -676
604 -927 936 -551 732 -878 1564 -980 2494 -22 204 -25 769 -5 950 42 375 99
668 187 959 14 46 23 86 21 88 -2 2 -183 64 -404 137 l-400 134 -36 -122z"/>
<path d="M11896 8384 c-219 -73 -400 -135 -402 -137 -2 -2 6 -32 16 -68 85
-274 156 -647 192 -999 16 -163 16 -688 0 -850 -110 -1077 -491 -1984 -1171
-2790 -197 -234 -572 -587 -785 -741 -26 -18 -45 -38 -44 -44 4 -16 482 -684
489 -685 11 0 336 264 450 366 684 611 1244 1431 1562 2290 340 915 443 1879
306 2854 -39 276 -119 641 -191 866 l-23 71 -399 -133z"/>
<path d="M2056 8232 c-8 -16 -58 -197 -90 -332 -235 -976 -161 -2009 211
-2965 66 -169 247 -539 338 -690 322 -534 701 -967 1188 -1357 67 -54 127 -98
133 -98 10 0 484 652 484 667 0 5 -48 47 -106 93 -772 612 -1300 1492 -1479
2463 -53 291 -59 368 -59 742 0 366 6 453 55 725 16 92 84 372 114 475 5 18
-26 31 -389 152 -218 72 -398 128 -400 125z"/>
<path d="M11055 8101 c-327 -110 -380 -131 -379 -147 1 -10 21 -91 44 -179 46
-176 91 -432 112 -625 19 -187 16 -658 -6 -845 -93 -794 -386 -1494 -885
-2120 -170 -213 -521 -554 -699 -680 -23 -17 -42 -34 -42 -38 0 -9 466 -664
479 -671 19 -12 356 272 540 455 254 253 449 488 635 769 153 229 227 357 331
575 494 1026 625 2134 384 3230 -47 210 -103 400 -120 402 -8 1 -185 -56 -394
-126z"/>
<path d="M2876 7943 c-186 -617 -224 -1275 -110 -1908 149 -833 552 -1593
1160 -2185 126 -123 287 -263 377 -327 l45 -33 241 335 c133 185 241 337 241
339 0 3 -37 33 -82 69 -306 239 -596 581 -802 945 -183 323 -325 741 -380
1122 -62 426 -31 900 85 1318 11 41 18 76 15 79 -6 6 -764 263 -776 263 -5 0
-11 -8 -14 -17z"/>
<path d="M10232 7827 c-315 -106 -391 -135 -386 -147 19 -48 67 -257 88 -381
66 -391 59 -800 -20 -1189 -101 -492 -324 -965 -645 -1370 -104 -131 -352
-381 -481 -484 -59 -47 -95 -83 -91 -90 20 -34 475 -666 480 -666 3 0 44 30
92 67 322 252 633 586 861 927 150 223 311 530 405 771 276 703 350 1452 219
2209 -29 168 -110 487 -123 485 -3 0 -183 -60 -399 -132z"/>
<path d="M8519 4056 c-386 -258 -860 -432 -1369 -503 -174 -24 -602 -24 -785
1 -502 67 -949 230 -1360 497 -91 59 -97 61 -110 43 -7 -10 -117 -161 -243
-334 -127 -173 -228 -319 -225 -324 3 -4 56 -41 117 -80 551 -357 1148 -568
1806 -638 180 -19 685 -16 860 5 663 80 1263 298 1788 649 56 38 102 72 102
76 0 5 -230 323 -456 629 l-30 42 -95 -63z"/>
<path d="M9062 3372 c-190 -134 -559 -330 -802 -425 -349 -136 -686 -218
-1085 -263 -204 -24 -622 -24 -835 -1 -675 74 -1267 284 -1814 644 -70 46
-130 83 -131 81 -13 -14 -485 -664 -485 -669 0 -10 243 -170 380 -249 487
-282 1055 -490 1597 -584 334 -59 481 -70 868 -70 393 0 518 9 839 63 685 116
1348 383 1924 773 70 48 100 74 93 82 -5 6 -113 155 -241 331 -128 176 -235
323 -239 326 -3 3 -34 -14 -69 -39z"/>
<path d="M9529 2646 c-280 -191 -666 -394 -974 -511 -453 -172 -851 -266
-1355 -317 -163 -17 -725 -17 -890 0 -855 87 -1593 346 -2279 801 -138 91
-144 94 -158 75 -157 -211 -483 -664 -483 -670 0 -13 332 -228 500 -324 918
-527 2030 -798 3077 -751 629 29 1181 134 1738 331 337 119 726 303 1038 490
139 83 392 254 390 263 -1 8 -494 688 -497 686 0 0 -49 -33 -107 -73z"/>
</g>
</svg>
